<?xml version="1.0" encoding="UTF-8"?>
<!DOCTYPE svg PUBLIC '-//W3C//DTD SVG 1.0//EN'
    'http://www.w3.org/TR/2001/REC-SVG-20010904/DTD/svg10.dtd' >

<svg style="stroke-dasharray:none; shape-rendering:auto; font-family:'Dialog'; text-rendering:auto; fill-opacity:1; color-interpolation:auto; color-rendering:auto; font-size:12px; fill:black; stroke:black; image-rendering:auto; stroke-miterlimit:10; stroke-linecap:square; stroke-linejoin:miter; font-style:normal; stroke-width:1; stroke-dashoffset:0; font-weight:normal; stroke-opacity:1;"
     xmlns="http://www.w3.org/2000/svg" contentScriptType="text/ecmascript"
     preserveAspectRatio="xMidYMid meet"
     xmlns:xlink="http://www.w3.org/1999/xlink" zoomAndPan="magnify"
     version="1.0" contentStyleType="text/css">
    <!--Generated by the Batik Graphics2D SVG Generator-->
    <defs id="genericDefs"/>
    <g>
        <defs id="defs1">
            <clipPath clipPathUnits="userSpaceOnUse" id="clipPath1">
                <path d="M0 0 L390 0 L390 390 L0 390 L0 0 Z"/>
            </clipPath>
            <clipPath clipPathUnits="userSpaceOnUse" id="clipPath2">
                <path d="M1 0 L1 389 L390 389 L390 0 Z"/>
            </clipPath>
            <clipPath clipPathUnits="userSpaceOnUse" id="clipPath3">
                <path d="M283 218 L283 236 L302 236 L302 218 Z"/>
            </clipPath>
            <clipPath clipPathUnits="userSpaceOnUse" id="clipPath4">
                <path d="M6 5 L396 5 L396 395 L6 395 L6 5 Z"/>
            </clipPath>
            <clipPath clipPathUnits="userSpaceOnUse" id="clipPath5">
                <path d="M37 207 L37 223 L45 223 L45 207 Z"/>
            </clipPath>
            <clipPath clipPathUnits="userSpaceOnUse" id="clipPath6">
                <path d="M94 207 L94 223 L102 223 L102 207 Z"/>
            </clipPath>
            <clipPath clipPathUnits="userSpaceOnUse" id="clipPath7">
                <path d="M136 207 L136 223 L144 223 L144 207 Z"/>
            </clipPath>
            <clipPath clipPathUnits="userSpaceOnUse" id="clipPath8">
                <path d="M130 88 L130 106 L150 106 L150 88 Z"/>
            </clipPath>
            <clipPath clipPathUnits="userSpaceOnUse" id="clipPath9">
                <path d="M161 340 L161 356 L169 356 L169 340 Z"/>
            </clipPath>
            <clipPath clipPathUnits="userSpaceOnUse" id="clipPath10">
                <path d="M175 290 L175 306 L183 306 L183 290 Z"/>
            </clipPath>
            <clipPath clipPathUnits="userSpaceOnUse" id="clipPath11">
                <path d="M161 241 L161 257 L169 257 L169 241 Z"/>
            </clipPath>
        </defs>
        <g transform="translate(6,5)"
           style="stroke-linecap:butt; fill:rgb(165,165,165); text-rendering:optimizeLegibility; image-rendering:optimizeQuality; color-rendering:optimizeQuality; font-family:'Lucida Bright'; stroke-linejoin:round; stroke:rgb(165,165,165); color-interpolation:linearRGB;">
            <path d="M47.7648 388 L47.7648 1"
                  style="fill:none; clip-path:url(#clipPath1);"/>
            <path d="M97.0099 388 L97.0099 1"
                  style="fill:none; clip-path:url(#clipPath1);"/>
            <path d="M146.2549 388 L146.2549 1"
                  style="fill:none; clip-path:url(#clipPath1);"/>
            <path d="M195.5 388 L195.5 1"
                  style="fill:none; clip-path:url(#clipPath1);"/>
            <path d="M244.7451 388 L244.7451 1"
                  style="fill:none; clip-path:url(#clipPath1);"/>
            <path d="M293.9901 388 L293.9901 1"
                  style="fill:none; clip-path:url(#clipPath1);"/>
            <path d="M343.2352 388 L343.2352 1"
                  style="fill:none; clip-path:url(#clipPath1);"/>
            <path d="M8.3688 388 L8.3688 1"
                  style="fill:none; clip-path:url(#clipPath1); stroke:rgb(233,233,233);"/>
            <path d="M18.2178 388 L18.2178 1"
                  style="fill:none; clip-path:url(#clipPath1); stroke:rgb(233,233,233);"/>
            <path d="M28.0668 388 L28.0668 1"
                  style="fill:none; clip-path:url(#clipPath1); stroke:rgb(233,233,233);"/>
            <path d="M37.9158 388 L37.9158 1"
                  style="fill:none; clip-path:url(#clipPath1); stroke:rgb(233,233,233);"/>
            <path d="M57.6138 388 L57.6138 1"
                  style="fill:none; clip-path:url(#clipPath1); stroke:rgb(233,233,233);"/>
            <path d="M67.4628 388 L67.4628 1"
                  style="fill:none; clip-path:url(#clipPath1); stroke:rgb(233,233,233);"/>
            <path d="M77.3118 388 L77.3118 1"
                  style="fill:none; clip-path:url(#clipPath1); stroke:rgb(233,233,233);"/>
            <path d="M87.1609 388 L87.1609 1"
                  style="fill:none; clip-path:url(#clipPath1); stroke:rgb(233,233,233);"/>
            <path d="M106.8589 388 L106.8589 1"
                  style="fill:none; clip-path:url(#clipPath1); stroke:rgb(233,233,233);"/>
            <path d="M116.7079 388 L116.7079 1"
                  style="fill:none; clip-path:url(#clipPath1); stroke:rgb(233,233,233);"/>
            <path d="M126.5569 388 L126.5569 1"
                  style="fill:none; clip-path:url(#clipPath1); stroke:rgb(233,233,233);"/>
            <path d="M136.4059 388 L136.4059 1"
                  style="fill:none; clip-path:url(#clipPath1); stroke:rgb(233,233,233);"/>
            <path d="M156.1039 388 L156.1039 1"
                  style="fill:none; clip-path:url(#clipPath1); stroke:rgb(233,233,233);"/>
            <path d="M165.953 388 L165.953 1"
                  style="fill:none; clip-path:url(#clipPath1); stroke:rgb(233,233,233);"/>
            <path d="M175.802 388 L175.802 1"
                  style="fill:none; clip-path:url(#clipPath1); stroke:rgb(233,233,233);"/>
            <path d="M185.651 388 L185.651 1"
                  style="fill:none; clip-path:url(#clipPath1); stroke:rgb(233,233,233);"/>
            <path d="M205.349 388 L205.349 1"
                  style="fill:none; clip-path:url(#clipPath1); stroke:rgb(233,233,233);"/>
            <path d="M215.198 388 L215.198 1"
                  style="fill:none; clip-path:url(#clipPath1); stroke:rgb(233,233,233);"/>
            <path d="M225.047 388 L225.047 1"
                  style="fill:none; clip-path:url(#clipPath1); stroke:rgb(233,233,233);"/>
            <path d="M234.8961 388 L234.8961 1"
                  style="fill:none; clip-path:url(#clipPath1); stroke:rgb(233,233,233);"/>
            <path d="M254.5941 388 L254.5941 1"
                  style="fill:none; clip-path:url(#clipPath1); stroke:rgb(233,233,233);"/>
            <path d="M264.4431 388 L264.4431 1"
                  style="fill:none; clip-path:url(#clipPath1); stroke:rgb(233,233,233);"/>
            <path d="M274.2921 388 L274.2921 1"
                  style="fill:none; clip-path:url(#clipPath1); stroke:rgb(233,233,233);"/>
            <path d="M284.1411 388 L284.1411 1"
                  style="fill:none; clip-path:url(#clipPath1); stroke:rgb(233,233,233);"/>
            <path d="M303.8391 388 L303.8391 1"
                  style="fill:none; clip-path:url(#clipPath1); stroke:rgb(233,233,233);"/>
            <path d="M313.6881 388 L313.6881 1"
                  style="fill:none; clip-path:url(#clipPath1); stroke:rgb(233,233,233);"/>
            <path d="M323.5372 388 L323.5372 1"
                  style="fill:none; clip-path:url(#clipPath1); stroke:rgb(233,233,233);"/>
            <path d="M333.3862 388 L333.3862 1"
                  style="fill:none; clip-path:url(#clipPath1); stroke:rgb(233,233,233);"/>
            <path d="M353.0842 388 L353.0842 1"
                  style="fill:none; clip-path:url(#clipPath1); stroke:rgb(233,233,233);"/>
            <path d="M362.9332 388 L362.9332 1"
                  style="fill:none; clip-path:url(#clipPath1); stroke:rgb(233,233,233);"/>
            <path d="M372.7822 388 L372.7822 1"
                  style="fill:none; clip-path:url(#clipPath1); stroke:rgb(233,233,233);"/>
            <path d="M382.6313 388 L382.6313 1"
                  style="fill:none; clip-path:url(#clipPath1); stroke:rgb(233,233,233);"/>
        </g>
        <g transform="translate(6,5)"
           style="stroke-linecap:butt; fill:rgb(165,165,165); text-rendering:optimizeLegibility; image-rendering:optimizeQuality; color-rendering:optimizeQuality; font-family:'Lucida Bright'; stroke-linejoin:round; stroke:rgb(165,165,165); color-interpolation:linearRGB;">
            <path d="M2 342.2352 L389 342.2352"
                  style="fill:none; clip-path:url(#clipPath1);"/>
            <path d="M2 292.9901 L389 292.9901"
                  style="fill:none; clip-path:url(#clipPath1);"/>
            <path d="M2 243.7451 L389 243.7451"
                  style="fill:none; clip-path:url(#clipPath1);"/>
            <path d="M2 194.5 L389 194.5"
                  style="fill:none; clip-path:url(#clipPath1);"/>
            <path d="M2 145.2549 L389 145.2549"
                  style="fill:none; clip-path:url(#clipPath1);"/>
            <path d="M2 96.0099 L389 96.0099"
                  style="fill:none; clip-path:url(#clipPath1);"/>
            <path d="M2 46.7648 L389 46.7648"
                  style="fill:none; clip-path:url(#clipPath1);"/>
            <path d="M2 381.6313 L389 381.6313"
                  style="fill:none; clip-path:url(#clipPath1); stroke:rgb(233,233,233);"/>
            <path d="M2 371.7822 L389 371.7822"
                  style="fill:none; clip-path:url(#clipPath1); stroke:rgb(233,233,233);"/>
            <path d="M2 361.9332 L389 361.9332"
                  style="fill:none; clip-path:url(#clipPath1); stroke:rgb(233,233,233);"/>
            <path d="M2 352.0842 L389 352.0842"
                  style="fill:none; clip-path:url(#clipPath1); stroke:rgb(233,233,233);"/>
            <path d="M2 332.3862 L389 332.3862"
                  style="fill:none; clip-path:url(#clipPath1); stroke:rgb(233,233,233);"/>
            <path d="M2 322.5372 L389 322.5372"
                  style="fill:none; clip-path:url(#clipPath1); stroke:rgb(233,233,233);"/>
            <path d="M2 312.6882 L389 312.6882"
                  style="fill:none; clip-path:url(#clipPath1); stroke:rgb(233,233,233);"/>
            <path d="M2 302.8391 L389 302.8391"
                  style="fill:none; clip-path:url(#clipPath1); stroke:rgb(233,233,233);"/>
            <path d="M2 283.1411 L389 283.1411"
                  style="fill:none; clip-path:url(#clipPath1); stroke:rgb(233,233,233);"/>
            <path d="M2 273.2921 L389 273.2921"
                  style="fill:none; clip-path:url(#clipPath1); stroke:rgb(233,233,233);"/>
            <path d="M2 263.4431 L389 263.4431"
                  style="fill:none; clip-path:url(#clipPath1); stroke:rgb(233,233,233);"/>
            <path d="M2 253.5941 L389 253.5941"
                  style="fill:none; clip-path:url(#clipPath1); stroke:rgb(233,233,233);"/>
            <path d="M2 233.8961 L389 233.8961"
                  style="fill:none; clip-path:url(#clipPath1); stroke:rgb(233,233,233);"/>
            <path d="M2 224.047 L389 224.047"
                  style="fill:none; clip-path:url(#clipPath1); stroke:rgb(233,233,233);"/>
            <path d="M2 214.198 L389 214.198"
                  style="fill:none; clip-path:url(#clipPath1); stroke:rgb(233,233,233);"/>
            <path d="M2 204.349 L389 204.349"
                  style="fill:none; clip-path:url(#clipPath1); stroke:rgb(233,233,233);"/>
            <path d="M2 184.651 L389 184.651"
                  style="fill:none; clip-path:url(#clipPath1); stroke:rgb(233,233,233);"/>
            <path d="M2 174.802 L389 174.802"
                  style="fill:none; clip-path:url(#clipPath1); stroke:rgb(233,233,233);"/>
            <path d="M2 164.953 L389 164.953"
                  style="fill:none; clip-path:url(#clipPath1); stroke:rgb(233,233,233);"/>
            <path d="M2 155.1039 L389 155.1039"
                  style="fill:none; clip-path:url(#clipPath1); stroke:rgb(233,233,233);"/>
            <path d="M2 135.4059 L389 135.4059"
                  style="fill:none; clip-path:url(#clipPath1); stroke:rgb(233,233,233);"/>
            <path d="M2 125.5569 L389 125.5569"
                  style="fill:none; clip-path:url(#clipPath1); stroke:rgb(233,233,233);"/>
            <path d="M2 115.7079 L389 115.7079"
                  style="fill:none; clip-path:url(#clipPath1); stroke:rgb(233,233,233);"/>
            <path d="M2 105.8589 L389 105.8589"
                  style="fill:none; clip-path:url(#clipPath1); stroke:rgb(233,233,233);"/>
            <path d="M2 86.1609 L389 86.1609"
                  style="fill:none; clip-path:url(#clipPath1); stroke:rgb(233,233,233);"/>
            <path d="M2 76.3119 L389 76.3119"
                  style="fill:none; clip-path:url(#clipPath1); stroke:rgb(233,233,233);"/>
            <path d="M2 66.4628 L389 66.4628"
                  style="fill:none; clip-path:url(#clipPath1); stroke:rgb(233,233,233);"/>
            <path d="M2 56.6138 L389 56.6138"
                  style="fill:none; clip-path:url(#clipPath1); stroke:rgb(233,233,233);"/>
            <path d="M2 36.9158 L389 36.9158"
                  style="fill:none; clip-path:url(#clipPath1); stroke:rgb(233,233,233);"/>
            <path d="M2 27.0668 L389 27.0668"
                  style="fill:none; clip-path:url(#clipPath1); stroke:rgb(233,233,233);"/>
            <path d="M2 17.2178 L389 17.2178"
                  style="fill:none; clip-path:url(#clipPath1); stroke:rgb(233,233,233);"/>
            <path d="M2 7.3687 L389 7.3687"
                  style="fill:none; clip-path:url(#clipPath1); stroke:rgb(233,233,233);"/>
        </g>
        <g transform="translate(6,5)"
           style="stroke-linecap:butt; fill:rgb(120,0,14); text-rendering:optimizeLegibility; image-rendering:optimizeQuality; color-rendering:optimizeQuality; font-family:'Lucida Bright'; stroke-linejoin:round; stroke:rgb(120,0,14); color-interpolation:linearRGB; stroke-width:1.5;">
            <path d="M358.3344 292.3322 L358.5976 292.4638 L358.5976 292.2006 L358.3344 292.0032 L357.5449 291.4111 L358.0712 292.2006 L358.3344 292.3322"
                  style="fill:none; clip-path:url(#clipPath2);"/>
            <path d="M32.6656 96.9967 L33.4551 97.5889 L32.9288 96.7994 L32.6656 96.6678 L32.4025 96.5362 L32.4025 96.7994 L32.6656 96.9967"
                  style="fill:none; clip-path:url(#clipPath2);"/>
            <path d="M36.6131 99.1678 L37.6658 100.7469 L38.5869 101.4377 L40.2975 102.7206 L40.5606 102.918 L41.3501 103.5101 L42.5344 104.3983 L42.9291 104.6944 L44.5081 105.8786 L45.5608 106.6681 L46.4819 107.3589 L48.1925 108.6419 L48.4556 108.8393 L49.2451 109.4314 L50.4294 110.3195 L50.8241 110.6156 L52.4031 111.7999 L53.4558 112.5894 L54.3769 113.2802 L56.0874 114.5631 L56.3506 114.7605 L57.1401 115.3526 L58.3244 116.2408 L58.7191 116.5369 L60.2981 117.7211 L61.3508 118.5106 L62.2719 119.2014 L63.9825 120.4844 L64.2456 120.6818 L65.0351 121.2739 L66.2194 122.162 L66.6141 122.4581 L68.1931 123.6424 L69.2458 124.4319 L70.1669 125.1227 L71.8774 126.4056 L72.1406 126.603 L72.9301 127.1951 L74.1144 128.0833 L74.5091 128.3794 L76.0881 129.5636 L77.1408 130.3531 L78.0619 131.0439 L79.7725 132.3269 L80.0356 132.5242 L80.8251 133.1164 L82.0094 134.0046 L82.4041 134.3006 L83.9831 135.4849 L85.0358 136.2744 L85.9569 136.9652 L87.6675 138.2481 L87.9306 138.4455 L88.7201 139.0376 L89.9044 139.9258 L90.2991 140.2219 L91.8781 141.4061 L92.9308 142.1956 L93.8519 142.8864 L95.5625 144.1694 L95.8256 144.3667 L96.6151 144.9589 L97.7994 145.8471 L98.1941 146.1431 L99.7731 147.3274 L100.8258 148.1169 L101.7469 148.8077 L103.4575 150.0906 L103.7206 150.288 L104.5101 150.8801 L105.6944 151.7683 L106.0891 152.0644 L107.6681 153.2486 L108.7208 154.0381 L109.6419 154.7289 L111.3525 156.0119 L111.6156 156.2092 L112.4051 156.8014 L113.5894 157.6896 L113.9841 157.9856 L115.5631 159.1699 L116.6158 159.9594 L117.5369 160.6502 L119.2475 161.9331 L119.5106 162.1305 L120.3001 162.7226 L121.4844 163.6108 L121.8791 163.9069 L123.4581 165.0911 L124.5108 165.8806 L125.4319 166.5714 L127.1424 167.8544 L127.4056 168.0517 L128.1951 168.6439 L129.3794 169.5321 L129.7741 169.8281 L131.3531 171.0124 L132.4058 171.8019 L133.3269 172.4927 L135.0375 173.7756 L135.3006 173.973 L136.0901 174.5651 L137.2744 175.4533 L137.6691 175.7494 L139.2481 176.9336 L140.3008 177.7231 L141.2219 178.4139 L142.9325 179.6969 L143.1956 179.8943 L143.9851 180.4864 L145.1694 181.3746 L145.5641 181.6706 L147.1431 182.8549 L148.1958 183.6444 L149.1169 184.3352 L150.8275 185.6181 L151.0906 185.8155 L151.8801 186.4076 L153.0644 187.2958 L153.4591 187.5919 L155.0381 188.7761 L156.0908 189.5656 L157.0119 190.2564 L158.7225 191.5394 L158.9856 191.7368 L159.7751 192.3289 L160.9594 193.2171 L161.3541 193.5131 L162.9331 194.4605 L164.6437 195.4869 L164.9069 195.6185 L165.17 195.75 L166.8806 196.6053 L168.5912 197.4606 L168.8544 197.5922 L169.1175 197.7238 L170.8281 198.5791 L172.5387 199.4344 L172.8019 199.566 L173.065 199.6975 L174.7756 200.5528 L176.4862 201.4081 L176.7494 201.5397 L177.0125 201.6713 L178.7231 202.5266 L180.4337 203.3819 L180.6969 203.5135 L180.96 203.645 L182.6706 204.5003 L184.3812 205.3556 L184.6444 205.4872 L184.9075 205.6188 L186.6181 206.4741 L188.3287 207.3294 L188.5919 207.461 L188.855 207.5925 L190.5656 208.4478 L192.2762 209.3031 L192.5394 209.4347 L192.8026 209.5663 L194.5131 210.4216 L196.2237 211.2769 L196.4869 211.4085 L196.75 211.54 L198.4606 212.3953 L200.1712 213.2506 L200.4344 213.3822 L200.6976 213.5138 L202.4081 214.3691 L204.1187 215.2244 L204.3819 215.356 L204.6451 215.4875 L206.3556 216.3428 L208.0662 217.1981 L208.3294 217.3297 L208.5925 217.4613 L210.3031 218.3166 L212.0137 219.1719 L212.2769 219.3035 L212.5401 219.435 L214.2506 220.2903 L215.9612 221.1456 L216.2244 221.2772 L216.4875 221.4088 L218.1981 222.2641 L219.9087 223.1194 L220.1719 223.251 L220.435 223.3825 L222.1456 224.2378 L223.8562 225.0931 L224.1194 225.2247 L224.3825 225.3563 L226.0931 226.2116 L227.8037 227.0669 L228.0669 227.1985 L228.33 227.33 L230.0406 228.1853 L231.7512 229.0406 L232.0144 229.1722 L232.2775 229.3038 L233.9881 230.1591 L235.6987 231.0144 L235.9619 231.146 L236.225 231.2775 L237.9356 232.1328 L239.6462 232.9881 L239.9094 233.1197 L240.1725 233.2513 L241.8831 234.1066 L243.5937 234.9619 L243.8569 235.0935 L244.12 235.2251 L245.8306 236.0803 L247.5412 236.9356 L247.8044 237.0672 L248.0675 237.1988 L249.7781 238.0541 L251.4887 238.9094 L251.7519 239.041 L252.015 239.1725 L253.7256 240.0278 L255.4362 240.8831 L255.6994 241.0147 L255.9625 241.1463 L257.6731 242.0016 L259.3837 242.8569 L259.6469 242.9884 L259.91 243.12 L261.6206 243.9753 L263.3312 244.8306 L263.5944 244.9622 L263.8575 245.0938 L265.5681 245.9491 L267.2787 246.8044 L267.5419 246.936 L267.8051 247.0675 L269.5156 247.9228 L271.2262 248.7781 L271.4894 248.9097 L271.7526 249.0413 L273.4631 249.8966 L275.1737 250.7519 L275.4369 250.8835 L275.7 251.015 L277.4106 251.8703 L279.1212 252.7256 L279.3844 252.8572 L279.6476 252.9888 L281.3581 253.8441 L283.0687 254.6994 L283.3319 254.831 L283.5951 254.9625 L285.3056 255.8178 L287.0162 256.6731 L287.2794 256.8047 L287.5425 256.9363 L289.2531 257.7916 L290.9637 258.6469 L291.2269 258.7784 L291.4901 258.91 L293.2006 259.7653 L294.9112 260.6206 L295.1744 260.7522 L295.4375 260.8838 L297.1481 261.7391 L298.8587 262.5944 L299.1219 262.726 L299.385 262.8575 L301.0956 263.7128 L302.8062 264.5681 L303.0694 264.6997 L303.3326 264.8313 L305.0432 265.6866 L306.7537 266.5419 L307.0169 266.6735 L307.28 266.8051 L308.9906 267.6603 L310.7012 268.5156 L310.9644 268.6472 L311.2275 268.7788 L312.9381 269.6341 L314.6487 270.4894 L314.9119 270.621 L315.175 270.7526 L316.8856 271.6078 L318.5962 272.4631 L318.8594 272.5947 L319.1226 272.7263 L320.8331 273.5816 L322.5437 274.4369 L322.8069 274.5685 L323.07 274.7 L324.7806 275.5554 L326.4912 276.4106 L326.7544 276.5422 L327.0175 276.6738 L328.7281 277.5291 L330.4387 278.3844 L330.7019 278.516 L330.9651 278.6476 L332.6756 279.5028 L334.3862 280.3581 L334.6494 280.4897 L334.9125 280.6213 L336.6231 281.4766 L338.3337 282.3319 L338.5969 282.4634 L338.86 282.595 L340.5706 283.4503 L342.2812 284.3056 L342.5444 284.4372 L342.8076 284.5688 L344.5181 285.4241 L346.2287 286.2794 L346.4919 286.4109 L346.7551 286.5425 L348.4656 287.3978 L350.1762 288.2531 L350.4394 288.3847 L350.7025 288.5163 L352.4131 288.9439 L354.1237 290.2269 L354.3869 290.3585 L354.6501 290.4901 L355.1764 290.2269 L354.3869 289.8321 L353.3342 288.2531 L352.4131 287.5623 L350.7025 286.2794 L350.4394 286.082 L349.6499 285.4899 L348.4656 284.6017 L348.0709 284.3056 L346.4919 283.1214 L345.4392 282.3319 L344.5181 281.6411 L342.8076 280.3581 L342.5444 280.1608 L341.7549 279.5686 L340.5706 278.6805 L340.1759 278.3844 L338.5969 277.2001 L337.5442 276.4106 L336.6231 275.7198 L334.9125 274.4369 L334.6494 274.2395 L333.8599 273.6474 L332.6756 272.7592 L332.2809 272.4631 L330.7019 271.2789 L329.6492 270.4894 L328.7281 269.7986 L327.0175 268.5156 L326.7544 268.3182 L325.9649 267.7261 L324.7806 266.838 L324.3859 266.5419 L322.8069 265.3576 L321.7542 264.5681 L320.8331 263.8773 L319.1226 262.5944 L318.8594 262.397 L318.0699 261.8049 L316.8856 260.9167 L316.4909 260.6206 L314.9119 259.4364 L313.8592 258.6469 L312.9381 257.9561 L311.2275 256.6731 L310.9644 256.4758 L310.1749 255.8836 L308.9906 254.9954 L308.5959 254.6994 L307.0169 253.5151 L305.9642 252.7256 L305.0432 252.0348 L303.3326 250.7519 L303.0694 250.5545 L302.2799 249.9624 L301.0956 249.0742 L300.7009 248.7781 L299.1219 247.5939 L298.0692 246.8044 L297.1481 246.1136 L295.4375 244.8306 L295.1744 244.6332 L294.3849 244.0411 L293.2006 243.1529 L292.8059 242.8569 L291.2269 241.6726 L290.1742 240.8831 L289.2531 240.1923 L287.5425 238.9094 L287.2794 238.712 L286.4899 238.1199 L285.3056 237.2317 L284.9109 236.9356 L283.3319 235.7514 L282.2792 234.9619 L281.3581 234.2711 L279.6476 232.9881 L279.3844 232.7908 L278.5949 232.1986 L277.4106 231.3104 L277.0159 231.0144 L275.4369 229.8301 L274.3842 229.0406 L273.4631 228.3498 L271.7526 227.0669 L271.4894 226.8695 L270.6999 226.2774 L269.5156 225.3892 L269.1209 225.0931 L267.5419 223.9089 L266.4892 223.1194 L265.5681 222.4286 L263.8575 221.1456 L263.5944 220.9483 L262.8049 220.3561 L261.6206 219.4679 L261.2259 219.1719 L259.6469 217.9876 L258.5942 217.1981 L257.6731 216.5073 L255.9625 215.2244 L255.6994 215.027 L254.9099 214.4349 L253.7256 213.5467 L253.3309 213.2506 L251.7519 212.0664 L250.6992 211.2769 L249.7781 210.5861 L248.0675 209.3031 L247.8044 209.1057 L247.0149 208.5136 L245.8306 207.6254 L245.4359 207.3294 L243.8569 206.1451 L242.8042 205.3556 L241.8831 204.6648 L240.1725 203.3819 L239.9094 203.1845 L239.1199 202.5924 L237.9356 201.7042 L237.5409 201.4081 L235.9619 200.2239 L234.9092 199.4344 L233.9881 198.7436 L232.2775 197.4606 L232.0144 197.2633 L231.2249 196.6711 L230.0406 195.7829 L229.6459 195.4869 L228.0669 194.5395 L226.3563 193.5131 L226.0931 193.3815 L225.83 193.25 L224.1194 192.3947 L222.4088 191.5394 L222.1456 191.4078 L221.8825 191.2762 L220.1719 190.4209 L218.4613 189.5656 L218.1981 189.4341 L217.935 189.3024 L216.2244 188.4472 L214.5138 187.5919 L214.2506 187.4603 L213.9875 187.3287 L212.2769 186.4734 L210.5663 185.6181 L210.3031 185.4865 L210.04 185.3549 L208.3294 184.4997 L206.6188 183.6444 L206.3556 183.5128 L206.0925 183.3812 L204.3819 182.5259 L202.6713 181.6706 L202.4081 181.539 L202.145 181.4075 L200.4344 180.5522 L198.7238 179.6969 L198.4606 179.5653 L198.1974 179.4337 L196.4869 178.5784 L194.7763 177.7231 L194.5131 177.5915 L194.25 177.4599 L192.5394 176.6047 L190.8288 175.7494 L190.5656 175.6178 L190.3025 175.4862 L188.5919 174.6309 L186.8813 173.7756 L186.6181 173.644 L186.355 173.5125 L184.6444 172.6572 L182.9338 171.8019 L182.6706 171.6703 L182.4075 171.5387 L180.6969 170.6834 L178.9863 169.8281 L178.7231 169.6965 L178.46 169.565 L176.7494 168.7097 L175.0388 167.8544 L174.7756 167.7228 L174.5125 167.5912 L172.8019 166.7359 L171.0913 165.8806 L170.8281 165.749 L170.565 165.6175 L168.8544 164.7622 L167.1438 163.9069 L166.8806 163.7753 L166.6175 163.6437 L164.9069 162.7884 L163.1963 161.9331 L162.9331 161.8015 L162.67 161.67 L160.9594 160.8147 L159.2488 159.9594 L158.9856 159.8278 L158.7225 159.6962 L157.0119 158.8409 L155.3013 157.9856 L155.0381 157.854 L154.775 157.7225 L153.0644 156.8672 L151.3538 156.0119 L151.0906 155.8803 L150.8275 155.7487 L149.1169 154.8934 L147.4063 154.0381 L147.1431 153.9065 L146.88 153.775 L145.1694 152.9197 L143.4588 152.0644 L143.1956 151.9328 L142.9325 151.8012 L141.2219 150.9459 L139.5113 150.0906 L139.2481 149.959 L138.985 149.8275 L137.2744 148.9722 L135.5638 148.1169 L135.3006 147.9853 L135.0375 147.8537 L133.3269 146.9984 L131.6163 146.1431 L131.3531 146.0115 L131.09 145.88 L129.3794 145.0247 L127.6688 144.1694 L127.4056 144.0378 L127.1424 143.9062 L125.4319 143.0509 L123.7213 142.1956 L123.4581 142.064 L123.195 141.9325 L121.4844 141.0772 L119.7738 140.2219 L119.5106 140.0903 L119.2475 139.9587 L117.5369 139.1034 L115.8263 138.2481 L115.5631 138.1165 L115.3 137.985 L113.5894 137.1297 L111.8788 136.2744 L111.6156 136.1428 L111.3525 136.0112 L109.6419 135.1559 L107.9313 134.3006 L107.6681 134.169 L107.405 134.0375 L105.6944 133.1822 L103.9838 132.3269 L103.7206 132.1953 L103.4575 132.0637 L101.7469 131.2084 L100.0363 130.3531 L99.7731 130.2215 L99.51 130.09 L97.7994 129.2346 L96.0888 128.3794 L95.8256 128.2478 L95.5625 128.1162 L93.8519 127.2609 L92.1413 126.4056 L91.8781 126.274 L91.615 126.1425 L89.9044 125.2872 L88.1938 124.4319 L87.9306 124.3003 L87.6675 124.1687 L85.9569 123.3134 L84.2463 122.4581 L83.9831 122.3265 L83.72 122.1949 L82.0094 121.3397 L80.2988 120.4844 L80.0356 120.3528 L79.7725 120.2212 L78.0619 119.3659 L76.3513 118.5106 L76.0881 118.3791 L75.825 118.2474 L74.1144 117.3922 L72.4038 116.5369 L72.1406 116.4053 L71.8774 116.2737 L70.1669 115.4184 L68.4563 114.5631 L68.1931 114.4315 L67.93 114.3 L66.2194 113.4447 L64.5088 112.5894 L64.2456 112.4578 L63.9825 112.3262 L62.2719 111.4709 L60.5613 110.6156 L60.2981 110.484 L60.035 110.3524 L58.3244 109.4972 L56.6138 108.6419 L56.3506 108.5103 L56.0874 108.3787 L54.3769 107.5234 L52.6663 106.6681 L52.4031 106.5365 L52.14 106.4049 L50.4294 105.5497 L48.7188 104.6944 L48.4556 104.5628 L48.1925 104.4312 L46.4819 103.5759 L44.7713 102.7206 L44.5081 102.5891 L44.2449 102.4575 L42.5344 101.6022 L40.8238 100.7469 L40.5606 100.6153 L40.2975 100.4837 L38.5869 100.0561 L36.8763 98.7731 L36.6131 98.6415 L36.35 98.5099 L35.8236 98.7731 L36.6131 99.1678"
                  style="fill:none; clip-path:url(#clipPath2);"/>
        </g>
        <g transform="translate(6,5)"
           style="stroke-linecap:butt; fill:blue; text-rendering:optimizeLegibility; image-rendering:optimizeQuality; color-rendering:optimizeQuality; font-family:'Lucida Bright'; stroke-linejoin:round; stroke:blue; color-interpolation:linearRGB; stroke-width:1.5;">
            <path d="M3.0594 214.7505 L3.1082 215.2244 L3.1145 215.2795 L3.332 217.1981 L3.3705 217.5093 L3.5762 219.1719 L3.6562 219.7687 L3.8407 221.1456 L3.9725 222.0588 L4.1256 223.1194 L4.3207 224.3807 L4.4308 225.0931 L4.7017 226.7355 L4.7564 227.0669 L5.0331 228.6458 L5.103 229.0406 L5.1192 229.1267 L5.4731 231.0144 L5.5817 231.5629 L5.8638 232.9881 L6.0823 234.0374 L6.2749 234.9619 L6.6227 236.5514 L6.7067 236.9356 L7.0069 238.2454 L7.1606 238.9094 L7.2097 239.1123 L7.6385 240.8831 L7.852 241.7282 L8.1371 242.8569 L8.5408 244.3908 L8.6565 244.8306 L8.9806 246.0148 L9.199 246.8044 L9.287 247.1108 L9.7659 248.7781 L10.0991 249.8966 L10.3539 250.7519 L10.9544 252.6984 L10.9629 252.7256 L10.9669 252.7382 L11.5996 254.6994 L11.9222 255.6672 L12.2575 256.6731 L12.9281 258.6222 L12.9367 258.6469 L12.9415 258.6603 L13.6447 260.6206 L14.0647 261.7573 L14.3741 262.5944 L14.9019 263.9816 L15.1275 264.5681 L15.2751 264.9414 L15.9083 266.5419 L16.5979 268.2379 L16.7108 268.5156 L16.8756 268.9103 L17.5423 270.4894 L18.0522 271.6659 L18.3976 272.4631 L18.8494 273.4796 L19.2796 274.4369 L19.6471 275.2346 L20.1889 276.4106 L20.8231 277.7546 L21.1237 278.3844 L21.4109 278.9722 L22.0881 280.3581 L22.7969 281.7756 L23.0782 282.3319 L23.3796 282.9146 L24.0991 284.3056 L24.7706 285.5757 L25.147 286.2794 L25.6006 287.1094 L26.2257 288.2531 L26.7444 289.1824 L27.3342 290.2269 L28.137 291.6195 L28.472 292.2006 L28.7181 292.619 L29.6439 294.1744 L30.6919 295.9004 L30.8441 296.1481 L31.0994 296.5557 L32.0806 298.1219 L32.6656 299.038 L33.3492 300.0956 L34.6394 302.0547 L34.6491 302.0694 L34.6698 302.0998 L35.9893 304.0431 L36.6131 304.9454 L37.3632 306.0169 L38.5869 307.7344 L38.7718 307.9906 L39.2824 308.6862 L40.2209 309.9644 L40.5606 310.4193 L41.7095 311.9381 L42.5344 313.0105 L43.2367 313.9119 L44.5081 315.5167 L44.8042 315.8856 L46.1154 317.4929 L46.4144 317.8594 L46.4819 317.9408 L48.0714 319.8331 L48.4556 320.2834 L49.7732 321.8069 L50.4294 322.5538 L51.5217 323.7806 L52.4031 324.7555 L53.3187 325.7544 L54.3769 326.8915 L55.1664 327.7281 L56.3506 328.9646 L57.0668 329.7019 L58.3244 330.9777 L59.0224 331.6756 L60.2981 332.9332 L61.0354 333.6494 L62.2719 334.8336 L63.1085 335.6231 L64.2456 336.6813 L65.2445 337.5969 L66.2194 338.4783 L67.4462 339.5706 L68.1931 340.2267 L69.7166 341.5444 L70.1669 341.9286 L72.0592 343.5181 L72.1406 343.5856 L72.5071 343.8846 L74.1144 345.1958 L74.4833 345.4919 L76.0881 346.7633 L76.9895 347.4656 L78.0619 348.2905 L79.5807 349.4394 L80.0356 349.7791 L81.3138 350.7176 L82.0094 351.2282 L82.2656 351.4131 L83.9831 352.6368 L85.0546 353.3869 L85.9569 354.0107 L87.9002 355.3302 L87.9306 355.3509 L87.9453 355.3606 L89.9044 356.6508 L90.962 357.3344 L91.8781 357.9194 L93.4443 358.9006 L93.8519 359.1559 L94.0996 359.3081 L95.8256 360.3561 L97.381 361.2819 L97.7994 361.528 L98.3805 361.863 L99.7731 362.6658 L100.8176 363.2556 L101.7469 363.7743 L102.8906 364.3994 L103.7206 364.853 L104.4243 365.2294 L105.6944 365.9009 L107.0854 366.6204 L107.6681 366.9218 L108.2244 367.2031 L109.6419 367.9119 L111.0278 368.5891 L111.6156 368.8763 L112.2454 369.1769 L113.5894 369.8111 L114.7654 370.3529 L115.5631 370.7204 L116.5204 371.1506 L117.5369 371.6024 L118.3341 371.9478 L119.5106 372.4577 L121.0897 373.1244 L121.4844 373.2892 L121.7621 373.4021 L123.4581 374.0917 L125.0586 374.7249 L125.4319 374.8726 L126.0184 375.0981 L127.4056 375.6259 L128.2427 375.9352 L129.3794 376.3553 L131.3397 377.0585 L131.3531 377.0633 L131.3778 377.0719 L133.3269 377.7425 L134.3328 378.0779 L135.3006 378.4005 L137.2618 379.0331 L137.2744 379.0371 L137.3016 379.0456 L139.2481 379.6461 L140.1034 379.9009 L141.2219 380.2341 L142.8892 380.713 L143.1956 380.801 L143.9852 381.0194 L145.1694 381.3435 L145.6092 381.4592 L147.1431 381.8629 L148.2718 382.148 L149.1169 382.3615 L150.8877 382.7903 L151.0906 382.8394 L151.7546 382.9931 L153.0644 383.2933 L153.4486 383.3773 L155.0381 383.725 L155.9626 383.9177 L157.0119 384.1363 L158.4371 384.4183 L158.9856 384.5269 L160.8733 384.8808 L160.9594 384.897 L161.3542 384.9669 L162.9331 385.2436 L163.2645 385.2982 L164.9069 385.5692 L165.6193 385.6794 L166.8806 385.8744 L167.9412 386.0275 L168.8544 386.1593 L170.2313 386.3438 L170.8281 386.4238 L172.4907 386.6295 L172.8019 386.668 L174.7205 386.8855 L174.7756 386.8918 L175.2495 386.9406 L176.7494 387.0937 L176.9179 387.1092 L178.7231 387.275 L179.0872 387.3047 L180.6969 387.4361 L181.2304 387.4742 L182.6706 387.5771 L183.3485 387.6186 L184.6444 387.6979 L185.4424 387.7386 L186.6181 387.7986 L187.5126 387.8351 L188.5919 387.8792 L189.56 387.9088 L190.5656 387.9396 L191.5854 387.9604 L192.5394 387.9799 L193.5893 387.9906 L194.5131 388 L195.5725 388 L196.4869 388 L197.5356 387.9893 L198.4606 387.9799 L199.479 387.9591 L200.4344 387.9396 L201.4037 387.9099 L202.4081 387.8792 L203.3098 387.8423 L204.3819 387.7986 L205.1982 387.757 L206.3556 387.6979 L207.0692 387.6542 L208.3294 387.5771 L208.9234 387.5346 L210.3031 387.4361 L210.7612 387.3987 L212.2769 387.275 L212.5831 387.2468 L214.2506 387.0937 L214.3895 387.0795 L215.7505 386.9406 L216.1801 386.8964 L216.2244 386.8918 L217.9532 386.6957 L218.1981 386.668 L219.7119 386.4807 L220.1719 386.4238 L221.4566 386.2516 L222.1456 386.1593 L223.1876 386.0089 L224.1194 385.8744 L224.9053 385.7528 L226.0931 385.5692 L226.6101 385.4839 L228.0669 385.2436 L228.3023 385.2023 L229.6458 384.9669 L229.9812 384.9075 L230.0406 384.897 L231.6439 384.5964 L232.0144 384.5269 L233.2947 384.2735 L233.9881 384.1363 L234.9342 383.9391 L235.9619 383.725 L236.5624 383.5937 L237.9356 383.2933 L238.1798 383.2373 L239.2454 382.9931 L239.7845 382.8683 L239.9094 382.8394 L241.3746 382.4846 L241.8831 382.3615 L242.9546 382.0909 L243.8569 381.8629 L244.5247 381.6872 L245.8306 381.3435 L246.0851 381.2738 L247.0148 381.0194 L247.6333 380.8483 L247.8044 380.801 L249.168 380.4093 L249.7781 380.2341 L250.6938 379.9613 L251.7519 379.6461 L252.2108 379.5045 L253.6984 379.0456 L253.7191 379.0392 L253.7256 379.0371 L255.2115 378.5578 L255.6994 378.4005 L256.6958 378.0683 L257.6731 377.7425 L258.1721 377.5708 L259.6222 377.0719 L259.6405 377.0655 L259.6469 377.0633 L261.0932 376.5445 L261.6206 376.3553 L262.5386 376.0161 L263.5944 375.6259 L263.9767 375.4804 L264.9816 375.0981 L265.4052 374.9352 L265.5681 374.8726 L266.8208 374.377 L267.5419 374.0917 L268.2296 373.8121 L269.5156 373.2892 L269.6319 373.2407 L269.9103 373.1244 L271.0206 372.6556 L271.4894 372.4577 L272.4013 372.0625 L273.4631 371.6024 L273.7759 371.4634 L274.4796 371.1506 L275.14 370.8538 L275.4369 370.7204 L276.4936 370.2336 L277.4106 369.8111 L277.8415 369.6078 L278.7546 369.1769 L279.1809 368.9734 L279.3844 368.8763 L280.5083 368.3271 L281.3581 367.9119 L281.8306 367.6756 L282.7756 367.2031 L283.1451 367.0163 L283.3319 366.9218 L284.4473 366.3448 L285.3056 365.9009 L285.7449 365.6686 L286.5757 365.2294 L287.0341 364.9842 L287.2794 364.853 L288.3123 364.2885 L289.2531 363.7743 L289.586 363.5885 L290.1824 363.2556 L290.8499 362.8787 L291.2269 362.6658 L292.1047 362.1598 L293.2006 361.528 L293.3556 361.4369 L293.619 361.2819 L294.594 360.7015 L295.1744 360.3561 L295.8264 359.9602 L296.9004 359.3081 L297.0538 359.2139 L297.1481 359.1559 L298.268 358.4543 L299.1219 357.9194 L299.4789 357.6914 L300.038 357.3344 L300.6804 356.9192 L301.0956 356.6508 L301.8735 356.1385 L303.0547 355.3606 L303.0635 355.3548 L303.0694 355.3509 L304.2391 354.5566 L305.0432 354.0107 L305.4119 353.7557 L305.9454 353.3869 L306.5757 352.9457 L307.0169 352.6368 L307.7315 352.1277 L308.7344 351.4131 L308.8832 351.3057 L308.9906 351.2282 L310.0222 350.4709 L310.9644 349.7791 L311.1589 349.6339 L311.4193 349.4394 L312.2841 348.7853 L312.9381 348.2905 L313.4044 347.9319 L314.0105 347.4656 L314.5171 347.0709 L314.9119 346.7633 L315.6213 346.2013 L316.5167 345.4919 L316.7214 345.3276 L316.8856 345.1958 L317.8096 344.4421 L318.8594 343.5856 L318.8963 343.5551 L318.9408 343.5181 L319.9692 342.6542 L320.8331 341.9286 L321.0404 341.7517 L321.2834 341.5444 L322.1003 340.8378 L322.8069 340.2267 L323.1562 339.9199 L323.5539 339.5706 L324.2028 338.9928 L324.7806 338.4783 L325.2435 338.0598 L325.7555 337.5969 L326.2767 337.1192 L326.7544 336.6813 L327.3025 336.1712 L327.8915 335.6231 L328.3219 335.2169 L328.7281 334.8336 L329.333 334.2543 L329.9646 333.6494 L330.3386 333.2861 L330.7019 332.9332 L331.3352 332.3089 L331.9776 331.6756 L332.3267 331.3266 L332.6756 330.9777 L333.3089 330.3352 L333.9332 329.7019 L334.2861 329.3386 L334.6494 328.9646 L335.2543 328.333 L335.8336 327.7281 L336.2169 327.3219 L336.6231 326.8915 L337.1712 326.3025 L337.6812 325.7544 L338.1192 325.2767 L338.5969 324.7555 L339.0598 324.2435 L339.4783 323.7806 L339.9928 323.2028 L340.5706 322.5538 L340.9199 322.1562 L341.2267 321.8069 L341.8378 321.1003 L342.5444 320.2834 L342.7517 320.0404 L342.9286 319.8331 L343.6542 318.9692 L344.5181 317.9408 L344.5551 317.8963 L344.5856 317.8594 L345.442 316.8096 L346.1958 315.8856 L346.3276 315.7214 L346.4919 315.5167 L347.2013 314.6213 L347.7633 313.9119 L348.0709 313.5171 L348.4656 313.0105 L348.9319 312.4044 L349.2905 311.9381 L349.7853 311.2841 L350.4394 310.4193 L350.6339 310.1589 L350.7791 309.9644 L351.4709 309.0222 L352.2282 307.9906 L352.3057 307.8832 L352.4131 307.7344 L353.1277 306.7314 L353.6368 306.0169 L353.9457 305.5757 L354.3869 304.9454 L354.7557 304.4119 L355.0107 304.0431 L355.5566 303.2391 L356.3509 302.0694 L356.3548 302.0635 L356.3606 302.0547 L357.1385 300.8735 L357.6508 300.0956 L357.9192 299.6804 L358.3344 299.038 L358.6914 298.4789 L358.9194 298.1219 L359.4543 297.268 L360.1559 296.1481 L360.2139 296.0539 L360.3081 295.9004 L360.9602 294.8264 L361.3561 294.1744 L361.7015 293.594 L362.2819 292.619 L362.4369 292.3556 L362.528 292.2006 L363.1598 291.1047 L363.6658 290.2269 L363.8787 289.8499 L364.2556 289.1824 L364.5885 288.586 L364.7743 288.2531 L365.2885 287.3123 L365.853 286.2794 L365.9841 286.0341 L366.2294 285.5757 L366.6686 284.7449 L366.9009 284.3056 L367.3448 283.4473 L367.9218 282.3319 L368.0163 282.1451 L368.2032 281.7756 L368.6756 280.8306 L368.9119 280.3581 L369.3271 279.5084 L369.8763 278.3844 L369.9734 278.1809 L370.1769 277.7546 L370.6078 276.8415 L370.8111 276.4106 L371.2336 275.4936 L371.7204 274.4369 L371.8538 274.14 L372.1506 273.4796 L372.4634 272.7759 L372.6024 272.4631 L373.0625 271.4013 L373.4577 270.4894 L373.6556 270.0206 L374.1244 268.9103 L374.2407 268.6319 L374.2892 268.5156 L374.8121 267.2296 L375.0917 266.5419 L375.377 265.8207 L375.8726 264.5681 L375.9352 264.4052 L376.0981 263.9816 L376.4804 262.9767 L376.6259 262.5944 L377.0161 261.5386 L377.3553 260.6206 L377.5445 260.0932 L378.0633 258.6469 L378.0655 258.6405 L378.0719 258.6222 L378.5708 257.1721 L378.7425 256.6731 L379.0683 255.6958 L379.4005 254.6994 L379.5578 254.2115 L380.0371 252.7256 L380.0392 252.7191 L380.0457 252.6984 L380.5046 251.2108 L380.6461 250.7519 L380.9613 249.6938 L381.2341 248.7781 L381.4093 248.168 L381.801 246.8044 L381.8483 246.6333 L382.0194 246.0148 L382.2738 245.0851 L382.3435 244.8306 L382.6872 243.5246 L382.8629 242.8569 L383.0908 241.9546 L383.3615 240.8831 L383.4846 240.3746 L383.8394 238.9094 L383.8683 238.7845 L383.9931 238.2454 L384.2373 237.1798 L384.2933 236.9356 L384.5937 235.5624 L384.7251 234.9619 L384.9392 233.9342 L385.1363 232.9881 L385.2735 232.2947 L385.5269 231.0144 L385.5964 230.6438 L385.897 229.0406 L385.9075 228.9812 L385.9669 228.6458 L386.2023 227.3023 L386.2436 227.0669 L386.4839 225.6101 L386.5692 225.0931 L386.7528 223.9053 L386.8744 223.1194 L387.0089 222.1876 L387.1592 221.1456 L387.2516 220.4566 L387.4238 219.1719 L387.4807 218.7119 L387.6679 217.1981 L387.6957 216.9532 L387.8918 215.2244 L387.8964 215.1801 L387.9406 214.7505 L388.0795 213.3895 L388.0937 213.2506 L388.2468 211.5831 L388.275 211.2769 L388.3987 209.7612 L388.4361 209.3031 L388.5346 207.9234 L388.5771 207.3294 L388.6542 206.0692 L388.6979 205.3556 L388.757 204.1982 L388.7986 203.3819 L388.8423 202.3098 L388.8792 201.4081 L388.9099 200.4037 L388.9396 199.4344 L388.9591 198.4791 L388.9799 197.4606 L388.9893 196.5355 L389 195.4869 L389 194.5725 L389 193.5131 L388.9906 192.5893 L388.9799 191.5394 L388.9604 190.5854 L388.9396 189.5656 L388.9088 188.56 L388.8792 187.5919 L388.8351 186.5126 L388.7986 185.6181 L388.7386 184.4424 L388.6979 183.6444 L388.6186 182.3486 L388.5771 181.6706 L388.4742 180.2304 L388.4361 179.6969 L388.3047 178.0872 L388.275 177.7231 L388.1092 175.9179 L388.0937 175.7494 L387.9406 174.2495 L387.8918 173.7756 L387.8855 173.7205 L387.6679 171.8019 L387.6295 171.4907 L387.4238 169.8281 L387.3438 169.2313 L387.1592 167.8544 L387.0275 166.9412 L386.8744 165.8806 L386.6794 164.6193 L386.5692 163.9069 L386.2982 162.2645 L386.2436 161.9331 L385.9669 160.3542 L385.897 159.9594 L385.8808 159.8733 L385.5269 157.9856 L385.4183 157.4371 L385.1363 156.0119 L384.9177 154.9627 L384.7251 154.0381 L384.3773 152.4486 L384.2933 152.0644 L383.9931 150.7546 L383.8394 150.0906 L383.7903 149.8877 L383.3615 148.1169 L383.148 147.2718 L382.8629 146.1431 L382.4592 144.6092 L382.3435 144.1694 L382.0194 142.9852 L381.801 142.1956 L381.713 141.8892 L381.2341 140.2219 L380.9009 139.1034 L380.6461 138.2481 L380.0457 136.3016 L380.0371 136.2744 L380.0331 136.2618 L379.4005 134.3006 L379.0779 133.3328 L378.7425 132.3269 L378.0719 130.3778 L378.0633 130.3531 L378.0585 130.3397 L377.3553 128.3794 L376.9352 127.2427 L376.6259 126.4056 L376.0981 125.0184 L375.8726 124.4319 L375.7249 124.0586 L375.0917 122.4581 L374.4021 120.7621 L374.2892 120.4844 L374.1244 120.0897 L373.4577 118.5106 L372.9478 117.3341 L372.6024 116.5369 L372.1506 115.5204 L371.7204 114.5631 L371.3529 113.7654 L370.8111 112.5894 L370.1769 111.2454 L369.8763 110.6156 L369.5891 110.0279 L368.9119 108.6419 L368.2032 107.2244 L367.9218 106.6681 L367.6204 106.0854 L366.9009 104.6944 L366.2294 103.4243 L365.853 102.7206 L365.3994 101.8906 L364.7743 100.7469 L364.2556 99.8176 L363.6658 98.7731 L362.863 97.3805 L362.528 96.7994 L362.2819 96.381 L361.3561 94.8256 L360.3081 93.0996 L360.1559 92.8519 L359.9006 92.4443 L358.9194 90.8781 L358.3344 89.962 L357.6508 88.9044 L356.3606 86.9453 L356.3509 86.9306 L356.3302 86.9002 L355.0107 84.9568 L354.3869 84.0546 L353.6368 82.9831 L352.4131 81.2656 L352.2282 81.0094 L351.7176 80.3138 L350.7791 79.0356 L350.4394 78.5807 L349.2905 77.0619 L348.4656 75.9895 L347.7633 75.0881 L346.4919 73.4833 L346.1958 73.1144 L344.8846 71.5071 L344.5856 71.1406 L344.5181 71.0592 L342.9286 69.1669 L342.5444 68.7166 L341.2267 67.1931 L340.5706 66.4461 L339.4783 65.2194 L338.5969 64.2445 L337.6812 63.2456 L336.6231 62.1085 L335.8336 61.2719 L334.6494 60.0354 L333.9332 59.2981 L332.6756 58.0224 L331.9776 57.3244 L330.7019 56.0668 L329.9646 55.3506 L328.7281 54.1664 L327.8915 53.3769 L326.7544 52.3188 L325.7555 51.4031 L324.7806 50.5217 L323.5539 49.4294 L322.8069 48.7733 L321.2834 47.4556 L320.8331 47.0714 L318.9408 45.4819 L318.8594 45.4144 L318.4929 45.1154 L316.8856 43.8042 L316.5167 43.5081 L314.9119 42.2367 L314.0105 41.5344 L312.9381 40.7095 L311.4193 39.5606 L310.9644 39.2209 L309.6862 38.2824 L308.9906 37.7718 L308.7344 37.5869 L307.0169 36.3632 L305.9454 35.6131 L305.0432 34.9893 L303.0998 33.6698 L303.0694 33.6491 L303.0547 33.6394 L301.0956 32.3492 L300.038 31.6656 L299.1219 31.0806 L297.5557 30.0994 L297.1481 29.8441 L296.9004 29.6919 L295.1744 28.6439 L293.619 27.7181 L293.2006 27.472 L292.6195 27.137 L291.2269 26.3342 L290.1824 25.7444 L289.2531 25.2257 L288.1094 24.6006 L287.2794 24.147 L286.5757 23.7706 L285.3056 23.0991 L283.9146 22.3796 L283.3319 22.0782 L282.7756 21.7968 L281.3581 21.0881 L279.9721 20.4109 L279.3844 20.1237 L278.7546 19.8231 L277.4106 19.1889 L276.2346 18.6471 L275.4369 18.2796 L274.4796 17.8494 L273.4631 17.3976 L272.6659 17.0522 L271.4894 16.5423 L269.9103 15.8756 L269.5156 15.7108 L269.2379 15.5979 L267.5419 14.9083 L265.9414 14.2751 L265.5681 14.1274 L264.9816 13.9019 L263.5944 13.3741 L262.7573 13.0648 L261.6206 12.6447 L259.6603 11.9415 L259.6469 11.9367 L259.6222 11.9281 L257.6731 11.2575 L256.6672 10.9221 L255.6994 10.5995 L253.7382 9.9669 L253.7256 9.9629 L253.6984 9.9543 L251.7519 9.3539 L250.8966 9.0991 L249.7781 8.7659 L248.1108 8.287 L247.8044 8.199 L247.0148 7.9806 L245.8306 7.6565 L245.3908 7.5408 L243.8569 7.1371 L242.7282 6.852 L241.8831 6.6385 L240.1123 6.2097 L239.9094 6.1606 L239.2454 6.0069 L237.9356 5.7067 L237.5514 5.6227 L235.9619 5.2749 L235.0373 5.0823 L233.9881 4.8637 L232.5629 4.5817 L232.0144 4.4731 L230.1267 4.1192 L230.0406 4.103 L229.6458 4.0331 L228.0669 3.7564 L227.7355 3.7018 L226.0931 3.4308 L225.3807 3.3206 L224.1194 3.1256 L223.0588 2.9725 L222.1456 2.8408 L220.7687 2.6562 L220.1719 2.5762 L218.5093 2.3705 L218.1981 2.3321 L216.2795 2.1145 L216.2244 2.1082 L215.7505 2.0594 L214.2506 1.9063 L214.0821 1.8908 L212.2769 1.725 L211.9128 1.6953 L210.3031 1.5639 L209.7696 1.5258 L208.3294 1.4229 L207.6514 1.3814 L206.3556 1.3021 L205.5576 1.2614 L204.3819 1.2014 L203.4874 1.1649 L202.4081 1.1208 L201.44 1.0912 L200.4344 1.0604 L199.4146 1.0396 L198.4606 1.0201 L197.4107 1.0094 L196.4869 1 L195.4275 1 L194.5131 1 L193.4645 1.0107 L192.5394 1.0201 L191.5209 1.0409 L190.5656 1.0604 L189.5963 1.0901 L188.5919 1.1208 L187.6902 1.1577 L186.6181 1.2014 L185.8018 1.243 L184.6444 1.3021 L183.9308 1.3458 L182.6706 1.4229 L182.0766 1.4654 L180.6969 1.5639 L180.2388 1.6013 L178.7231 1.725 L178.4169 1.7532 L176.7494 1.9063 L176.6105 1.9205 L175.2495 2.0594 L174.8199 2.1036 L174.7756 2.1082 L173.0468 2.3043 L172.8019 2.3321 L171.2881 2.5193 L170.8281 2.5762 L169.5434 2.7484 L168.8544 2.8408 L167.8124 2.9911 L166.8806 3.1256 L166.0947 3.2472 L164.9069 3.4308 L164.3899 3.5161 L162.9331 3.7564 L162.6977 3.7977 L161.3542 4.0331 L161.0188 4.0925 L160.9594 4.103 L159.3562 4.4036 L158.9856 4.4731 L157.7053 4.7265 L157.0119 4.8637 L156.0658 5.0608 L155.0381 5.2749 L154.4376 5.4063 L153.0644 5.7067 L152.8202 5.7627 L151.7546 6.0069 L151.2155 6.1317 L151.0906 6.1606 L149.6254 6.5154 L149.1169 6.6385 L148.0454 6.9092 L147.1431 7.1371 L146.4754 7.3128 L145.1694 7.6565 L144.9149 7.7262 L143.9852 7.9806 L143.3667 8.1517 L143.1956 8.199 L141.832 8.5907 L141.2219 8.7659 L140.3062 9.0387 L139.2481 9.3539 L138.7892 9.4954 L137.3016 9.9543 L137.2809 9.9608 L137.2744 9.9629 L135.7885 10.4422 L135.3006 10.5995 L134.3042 10.9317 L133.3269 11.2575 L132.8279 11.4292 L131.3778 11.9281 L131.3595 11.9345 L131.3531 11.9367 L129.9068 12.4555 L129.3794 12.6447 L128.4614 12.9839 L127.4056 13.3741 L127.0233 13.5196 L126.0184 13.9019 L125.5948 14.0648 L125.4319 14.1274 L124.1793 14.623 L123.4581 14.9083 L122.7704 15.1879 L121.4844 15.7108 L121.3681 15.7593 L121.0897 15.8756 L119.9794 16.3444 L119.5106 16.5423 L118.5987 16.9375 L117.5369 17.3976 L117.2241 17.5366 L116.5204 17.8494 L115.86 18.1462 L115.5631 18.2796 L114.5064 18.7664 L113.5894 19.1889 L113.1585 19.3922 L112.2454 19.8231 L111.8191 20.0266 L111.6156 20.1237 L110.4916 20.6729 L109.6419 21.0881 L109.1694 21.3244 L108.2244 21.7968 L107.855 21.9837 L107.6681 22.0782 L106.5527 22.6552 L105.6944 23.0991 L105.2551 23.3314 L104.4243 23.7706 L103.9659 24.0159 L103.7206 24.147 L102.6878 24.7115 L101.7469 25.2257 L101.414 25.4115 L100.8176 25.7444 L100.1501 26.1213 L99.7731 26.3342 L98.8953 26.8402 L97.7994 27.472 L97.6444 27.5631 L97.381 27.7181 L96.406 28.2985 L95.8256 28.6439 L95.1736 29.0398 L94.0996 29.6919 L93.9461 29.7861 L93.8519 29.8441 L92.732 30.5457 L91.8781 31.0806 L91.5211 31.3086 L90.962 31.6656 L90.3196 32.0808 L89.9044 32.3492 L89.1265 32.8615 L87.9453 33.6394 L87.9365 33.6452 L87.9306 33.6491 L86.7609 34.4434 L85.9569 34.9893 L85.5881 35.2443 L85.0546 35.6131 L84.4243 36.0543 L83.9831 36.3632 L83.2685 36.8723 L82.2656 37.5869 L82.1168 37.6943 L82.0094 37.7718 L80.9778 38.5291 L80.0356 39.2209 L79.8411 39.3661 L79.5807 39.5606 L78.716 40.2147 L78.0619 40.7095 L77.5956 41.0681 L76.9895 41.5344 L76.4829 41.9291 L76.0881 42.2367 L75.3787 42.7987 L74.4833 43.5081 L74.2786 43.6724 L74.1144 43.8042 L73.1904 44.558 L72.1406 45.4144 L72.1037 45.4449 L72.0592 45.4819 L71.0308 46.3458 L70.1669 47.0714 L69.9596 47.2483 L69.7166 47.4556 L68.8997 48.1622 L68.1931 48.7733 L67.8438 49.0801 L67.4462 49.4294 L66.7972 50.0072 L66.2194 50.5217 L65.7565 50.9402 L65.2445 51.4031 L64.7233 51.8808 L64.2456 52.3188 L63.6975 52.8288 L63.1085 53.3769 L62.6781 53.7831 L62.2719 54.1664 L61.667 54.7457 L61.0354 55.3506 L60.6614 55.7139 L60.2981 56.0668 L59.6648 56.6911 L59.0224 57.3244 L58.6734 57.6733 L58.3244 58.0224 L57.6911 58.6648 L57.0668 59.2981 L56.7139 59.6614 L56.3506 60.0354 L55.7457 60.667 L55.1664 61.2719 L54.7831 61.6781 L54.3769 62.1085 L53.8288 62.6975 L53.3187 63.2456 L52.8808 63.7233 L52.4031 64.2445 L51.9402 64.7565 L51.5217 65.2194 L51.0072 65.7972 L50.4294 66.4461 L50.0801 66.8438 L49.7732 67.1931 L49.1622 67.8997 L48.4556 68.7166 L48.2483 68.9596 L48.0714 69.1669 L47.3458 70.0308 L46.4819 71.0592 L46.445 71.1037 L46.4144 71.1406 L45.5579 72.1904 L44.8042 73.1144 L44.6724 73.2786 L44.5081 73.4833 L43.7987 74.3787 L43.2367 75.0881 L42.9291 75.4829 L42.5344 75.9895 L42.0681 76.5956 L41.7095 77.0619 L41.2147 77.7159 L40.5606 78.5807 L40.3661 78.8411 L40.2209 79.0356 L39.5291 79.9778 L38.7718 81.0094 L38.6943 81.1168 L38.5869 81.2656 L37.8723 82.2685 L37.3632 82.9831 L37.0543 83.4243 L36.6131 84.0546 L36.2443 84.5881 L35.9893 84.9568 L35.4434 85.7609 L34.6491 86.9306 L34.6452 86.9365 L34.6394 86.9453 L33.8615 88.1265 L33.3492 88.9044 L33.0808 89.3196 L32.6656 89.962 L32.3086 90.5211 L32.0806 90.8781 L31.5457 91.732 L30.8441 92.8519 L30.7861 92.9462 L30.6919 93.0996 L30.0398 94.1736 L29.6439 94.8256 L29.2985 95.406 L28.7181 96.381 L28.5632 96.6444 L28.472 96.7994 L27.8403 97.8953 L27.3342 98.7731 L27.1213 99.1501 L26.7444 99.8176 L26.4115 100.414 L26.2257 100.7469 L25.7115 101.6877 L25.147 102.7206 L25.0159 102.9659 L24.7706 103.4243 L24.3314 104.2551 L24.0991 104.6944 L23.6552 105.5527 L23.0782 106.6681 L22.9837 106.8549 L22.7969 107.2244 L22.3244 108.1694 L22.0881 108.6419 L21.6729 109.4917 L21.1237 110.6156 L21.0266 110.8191 L20.8231 111.2454 L20.3922 112.1585 L20.1889 112.5894 L19.7664 113.5064 L19.2796 114.5631 L19.1462 114.86 L18.8494 115.5204 L18.5366 116.2241 L18.3976 116.5369 L17.9375 117.5987 L17.5423 118.5106 L17.3444 118.9794 L16.8756 120.0897 L16.7593 120.3681 L16.7108 120.4844 L16.1879 121.7704 L15.9083 122.4581 L15.623 123.1792 L15.1275 124.4319 L15.0648 124.5948 L14.9019 125.0184 L14.5196 126.0233 L14.3741 126.4056 L13.9839 127.4614 L13.6447 128.3794 L13.4555 128.9068 L12.9367 130.3531 L12.9345 130.3595 L12.9281 130.3778 L12.4292 131.8279 L12.2575 132.3269 L11.9317 133.3042 L11.5996 134.3006 L11.4422 134.7885 L10.9629 136.2744 L10.9608 136.2809 L10.9544 136.3016 L10.4954 137.7892 L10.3539 138.2481 L10.0387 139.3062 L9.7659 140.2219 L9.5907 140.832 L9.199 142.1956 L9.1517 142.3667 L8.9806 142.9852 L8.7262 143.9149 L8.6565 144.1694 L8.3128 145.4753 L8.1371 146.1431 L7.9092 147.0454 L7.6385 148.1169 L7.5154 148.6254 L7.1606 150.0906 L7.1317 150.2155 L7.0069 150.7546 L6.7627 151.8202 L6.7067 152.0644 L6.4063 153.4376 L6.2749 154.0381 L6.0608 155.0658 L5.8638 156.0119 L5.7265 156.7053 L5.4731 157.9856 L5.4036 158.3561 L5.103 159.9594 L5.0925 160.0188 L5.0331 160.3542 L4.7977 161.6977 L4.7564 161.9331 L4.5161 163.3899 L4.4308 163.9069 L4.2472 165.0947 L4.1256 165.8806 L3.9911 166.8124 L3.8407 167.8544 L3.7484 168.5434 L3.5762 169.8281 L3.5193 170.2881 L3.332 171.8019 L3.3043 172.0468 L3.1082 173.7756 L3.1037 173.8199 L3.0594 174.2495 L2.9205 175.6105 L2.9063 175.7494 L2.7532 177.4169 L2.7251 177.7231 L2.6013 179.2388 L2.5639 179.6969 L2.4654 181.0766 L2.4229 181.6706 L2.3458 182.9308 L2.3021 183.6444 L2.2431 184.8018 L2.2014 185.6181 L2.1576 186.6902 L2.1208 187.5919 L2.0901 188.5963 L2.0604 189.5656 L2.0409 190.521 L2.0201 191.5394 L2.0107 192.4644 L2 193.5131 L2 194.4275 L2 195.4869 L2.0094 196.4107 L2.0201 197.4606 L2.0396 198.4146 L2.0604 199.4344 L2.0912 200.44 L2.1208 201.4081 L2.1649 202.4874 L2.2014 203.3819 L2.2614 204.5576 L2.3021 205.3556 L2.3814 206.6515 L2.4229 207.3294 L2.5258 208.7696 L2.5639 209.3031 L2.6953 210.9128 L2.7251 211.2769 L2.8908 213.0821 L2.9063 213.2506 L3.0594 214.7505"
                  style="fill:none; clip-path:url(#clipPath2);"/>
        </g>
        <g transform="translate(6,5)"
           style="stroke-linecap:butt; text-rendering:optimizeLegibility; color-rendering:optimizeQuality; image-rendering:optimizeQuality; font-family:'Lucida Bright'; stroke-linejoin:round; color-interpolation:linearRGB;">
            <path d="M2 194.5 L389 194.5"
                  style="fill:none; clip-path:url(#clipPath1);"/>
        </g>
        <g transform="translate(6,5)"
           style="stroke-linecap:butt; text-rendering:optimizeLegibility; color-rendering:optimizeQuality; image-rendering:optimizeQuality; font-family:'Lucida Bright'; stroke-linejoin:round; color-interpolation:linearRGB;">
            <path d="M292.8906 228.9688 L292 226.9531 L291.625 226.2031 Q291.4375 225.7812 291.3047 225.6719 Q291.1719 225.5625 290.8281 225.5312 L290.3906 225.5 L290.25 225.5 L290.3281 225.0469 L292.7188 225.0469 L294.1562 228.1719 L294.5 227.9062 Q295.9219 226.7344 295.9219 225.9688 Q295.9219 225.5625 295.6094 225.0469 L297.0469 225.0469 Q297.125 225.3125 297.125 225.5 Q297.125 226.125 296.6797 226.6406 Q296.2344 227.1562 294.6875 228.3125 L294.3438 228.5781 L295.5469 231.1094 L295.9844 231.9219 Q296.2656 232.4844 296.7344 232.5156 L297.2031 232.5312 L297.3281 232.5469 L297.25 233 L294.8438 233 L293.125 229.375 L292.5 229.9375 Q291 231.2812 291 232.25 Q291 232.6406 291.25 233 L289.7031 233 Q289.6562 232.7969 289.6562 232.6875 Q289.6562 231.75 291.0312 230.5469 L292.1719 229.5938 L292.8906 228.9688 Z"
                  style="stroke:none; clip-path:url(#clipPath3);"/>
        </g>
        <g transform="translate(6,5)"
           style="text-rendering:optimizeLegibility; font-family:'Lucida Bright'; color-interpolation:linearRGB; color-rendering:optimizeQuality; image-rendering:optimizeQuality;">
            <path d="M47.7648 194.5 L47.7648 198.5"
                  style="fill:none; clip-path:url(#clipPath1);"/>
        </g>
        <g style="text-rendering:optimizeLegibility; font-family:'Lucida Bright'; color-interpolation:linearRGB; color-rendering:optimizeQuality; image-rendering:optimizeQuality;">
            <path d="M49.4531 215.8906 L39.5469 215.8906 L39.5469 215.1094 L49.4531 215.1094 L49.4531 215.8906 Z"
                  style="stroke:none; clip-path:url(#clipPath5);"/>
        </g>
        <g style="text-rendering:optimizeLegibility; font-family:'Lucida Bright'; color-interpolation:linearRGB; color-rendering:optimizeQuality; image-rendering:optimizeQuality;">
            <path d="M52.2812 209.0625 L52.2812 218.1094 L52.3281 218.8281 Q52.3594 219.2656 52.5859 219.3984 Q52.8125 219.5312 53.5156 219.5312 L54.375 219.5469 L54.375 220 L48.7656 220 L48.7656 219.5469 L49.625 219.5312 Q50.3125 219.5312 50.5391 219.3984 Q50.7656 219.2656 50.7969 218.8281 L50.8438 218.1094 L50.8438 211.375 L50.7969 210.6406 Q50.7969 210.125 50.5 210.125 Q50.2812 210.125 49.4844 210.2656 L48.7656 210.3906 L48.7656 209.9375 L52.2812 209.0625 ZM57.2041 220 L57.2041 218.1875 L59.0166 218.1875 L59.0166 220 L57.2041 220 ZM61.8218 220.0156 L61.8218 218.1875 L62.5405 218.1875 L62.5562 218.3594 L62.5718 218.9219 Q62.6187 219.8125 63.978 219.8125 Q64.9937 219.8125 65.5874 219.0234 Q66.1812 218.2344 66.1812 216.875 Q66.1812 215.3281 65.2593 214.6641 Q64.3374 214 62.2593 214 L61.9937 214 L61.9937 209.1562 L67.4624 209.1562 L67.4624 210.4219 L62.4468 210.4219 L62.4468 213.4531 L63.1187 213.4531 Q67.6968 213.4531 67.6968 216.9375 Q67.6968 218.5 66.6421 219.3828 Q65.5874 220.2656 63.728 220.2656 Q62.8062 220.2656 61.8218 220.0156 Z"
                  style="stroke:none; clip-path:url(#clipPath4);"/>
        </g>
        <g transform="translate(6,5)"
           style="text-rendering:optimizeLegibility; font-family:'Lucida Bright'; color-interpolation:linearRGB; color-rendering:optimizeQuality; image-rendering:optimizeQuality;">
            <path d="M97.0099 194.5 L97.0099 198.5"
                  style="fill:none; clip-path:url(#clipPath1);"/>
        </g>
        <g style="text-rendering:optimizeLegibility; font-family:'Lucida Bright'; color-interpolation:linearRGB; color-rendering:optimizeQuality; image-rendering:optimizeQuality;">
            <path d="M106.4531 215.8906 L96.5469 215.8906 L96.5469 215.1094 L106.4531 215.1094 L106.4531 215.8906 Z"
                  style="stroke:none; clip-path:url(#clipPath6);"/>
        </g>
        <g style="text-rendering:optimizeLegibility; font-family:'Lucida Bright'; color-interpolation:linearRGB; color-rendering:optimizeQuality; image-rendering:optimizeQuality;">
            <path d="M109.2812 209.0625 L109.2812 218.1094 L109.3281 218.8281 Q109.3594 219.2656 109.5859 219.3984 Q109.8125 219.5312 110.5156 219.5312 L111.375 219.5469 L111.375 220 L105.7656 220 L105.7656 219.5469 L106.625 219.5312 Q107.3125 219.5312 107.5391 219.3984 Q107.7656 219.2656 107.7969 218.8281 L107.8438 218.1094 L107.8438 211.375 L107.7969 210.6406 Q107.7969 210.125 107.5 210.125 Q107.2812 210.125 106.4844 210.2656 L105.7656 210.3906 L105.7656 209.9375 L109.2812 209.0625 Z"
                  style="stroke:none; clip-path:url(#clipPath4);"/>
        </g>
        <g transform="translate(6,5)"
           style="text-rendering:optimizeLegibility; font-family:'Lucida Bright'; color-interpolation:linearRGB; color-rendering:optimizeQuality; image-rendering:optimizeQuality;">
            <path d="M146.2549 194.5 L146.2549 198.5"
                  style="fill:none; clip-path:url(#clipPath1);"/>
        </g>
        <g style="text-rendering:optimizeLegibility; font-family:'Lucida Bright'; color-interpolation:linearRGB; color-rendering:optimizeQuality; image-rendering:optimizeQuality;">
            <path d="M148.4531 215.8906 L138.5469 215.8906 L138.5469 215.1094 L148.4531 215.1094 L148.4531 215.8906 Z"
                  style="stroke:none; clip-path:url(#clipPath7);"/>
        </g>
        <g style="text-rendering:optimizeLegibility; font-family:'Lucida Bright'; color-interpolation:linearRGB; color-rendering:optimizeQuality; image-rendering:optimizeQuality;">
            <path d="M150.5 220.2656 Q148.8281 220.2656 147.7969 218.7109 Q146.7656 217.1562 146.7656 214.6094 Q146.7656 212 147.7969 210.4453 Q148.8281 208.8906 150.5625 208.8906 Q152.2969 208.8906 153.3281 210.4375 Q154.3594 211.9844 154.3594 214.5938 Q154.3594 217.2031 153.3203 218.7344 Q152.2812 220.2656 150.5 220.2656 ZM150.5312 219.8125 Q152.8281 219.9219 152.8281 214.5 Q152.8281 209.3281 150.5625 209.3281 Q148.3125 209.3281 148.3125 214.5781 Q148.3125 219.7188 150.5312 219.8125 ZM156.2041 220 L156.2041 218.1875 L158.0166 218.1875 L158.0166 220 L156.2041 220 ZM160.8218 220.0156 L160.8218 218.1875 L161.5405 218.1875 L161.5562 218.3594 L161.5718 218.9219 Q161.6187 219.8125 162.978 219.8125 Q163.9937 219.8125 164.5874 219.0234 Q165.1812 218.2344 165.1812 216.875 Q165.1812 215.3281 164.2593 214.6641 Q163.3374 214 161.2593 214 L160.9937 214 L160.9937 209.1562 L166.4624 209.1562 L166.4624 210.4219 L161.4468 210.4219 L161.4468 213.4531 L162.1187 213.4531 Q166.6968 213.4531 166.6968 216.9375 Q166.6968 218.5 165.6421 219.3828 Q164.5874 220.2656 162.728 220.2656 Q161.8062 220.2656 160.8218 220.0156 Z"
                  style="stroke:none; clip-path:url(#clipPath4);"/>
        </g>
        <g transform="translate(6,5)"
           style="text-rendering:optimizeLegibility; font-family:'Lucida Bright'; color-interpolation:linearRGB; color-rendering:optimizeQuality; image-rendering:optimizeQuality;">
            <path d="M195.5 194.5 L195.5 198.5"
                  style="fill:none; clip-path:url(#clipPath1);"/>
            <path d="M192.5 218.2656 Q190.8281 218.2656 189.7969 216.7109 Q188.7656 215.1562 188.7656 212.6094 Q188.7656 210 189.7969 208.4453 Q190.8281 206.8906 192.5625 206.8906 Q194.2969 206.8906 195.3281 208.4375 Q196.3594 209.9844 196.3594 212.5938 Q196.3594 215.2031 195.3203 216.7344 Q194.2812 218.2656 192.5 218.2656 ZM192.5312 217.8125 Q194.8281 217.9219 194.8281 212.5 Q194.8281 207.3281 192.5625 207.3281 Q190.3125 207.3281 190.3125 212.5781 Q190.3125 217.7188 192.5312 217.8125 Z"
                  style="clip-path:url(#clipPath4); stroke:none;"
                  transform="translate(-6,-5)"/>
        </g>
        <g transform="translate(6,5)"
           style="text-rendering:optimizeLegibility; font-family:'Lucida Bright'; color-interpolation:linearRGB; color-rendering:optimizeQuality; image-rendering:optimizeQuality;">
            <path d="M244.7451 194.5 L244.7451 198.5"
                  style="fill:none; clip-path:url(#clipPath1);"/>
            <path d="M243.5 220.2656 Q241.8281 220.2656 240.7969 218.7109 Q239.7656 217.1562 239.7656 214.6094 Q239.7656 212 240.7969 210.4453 Q241.8281 208.8906 243.5625 208.8906 Q245.2969 208.8906 246.3281 210.4375 Q247.3594 211.9844 247.3594 214.5938 Q247.3594 217.2031 246.3203 218.7344 Q245.2812 220.2656 243.5 220.2656 ZM243.5312 219.8125 Q245.8281 219.9219 245.8281 214.5 Q245.8281 209.3281 243.5625 209.3281 Q241.3125 209.3281 241.3125 214.5781 Q241.3125 219.7188 243.5312 219.8125 ZM249.2041 220 L249.2041 218.1875 L251.0166 218.1875 L251.0166 220 L249.2041 220 ZM253.8218 220.0156 L253.8218 218.1875 L254.5405 218.1875 L254.5562 218.3594 L254.5718 218.9219 Q254.6187 219.8125 255.978 219.8125 Q256.9937 219.8125 257.5874 219.0234 Q258.1812 218.2344 258.1812 216.875 Q258.1812 215.3281 257.2593 214.6641 Q256.3374 214 254.2593 214 L253.9937 214 L253.9937 209.1562 L259.4624 209.1562 L259.4624 210.4219 L254.4468 210.4219 L254.4468 213.4531 L255.1187 213.4531 Q259.6968 213.4531 259.6968 216.9375 Q259.6968 218.5 258.6421 219.3828 Q257.5874 220.2656 255.728 220.2656 Q254.8062 220.2656 253.8218 220.0156 Z"
                  style="clip-path:url(#clipPath4); stroke:none;"
                  transform="translate(-6,-5)"/>
        </g>
        <g transform="translate(6,5)"
           style="text-rendering:optimizeLegibility; font-family:'Lucida Bright'; color-interpolation:linearRGB; color-rendering:optimizeQuality; image-rendering:optimizeQuality;">
            <path d="M293.9901 194.5 L293.9901 198.5"
                  style="fill:none; clip-path:url(#clipPath1);"/>
            <path d="M300.2812 209.0625 L300.2812 218.1094 L300.3281 218.8281 Q300.3594 219.2656 300.5859 219.3984 Q300.8125 219.5312 301.5156 219.5312 L302.375 219.5469 L302.375 220 L296.7656 220 L296.7656 219.5469 L297.625 219.5312 Q298.3125 219.5312 298.5391 219.3984 Q298.7656 219.2656 298.7969 218.8281 L298.8438 218.1094 L298.8438 211.375 L298.7969 210.6406 Q298.7969 210.125 298.5 210.125 Q298.2812 210.125 297.4844 210.2656 L296.7656 210.3906 L296.7656 209.9375 L300.2812 209.0625 Z"
                  style="clip-path:url(#clipPath4); stroke:none;"
                  transform="translate(-6,-5)"/>
        </g>
        <g transform="translate(6,5)"
           style="text-rendering:optimizeLegibility; font-family:'Lucida Bright'; color-interpolation:linearRGB; color-rendering:optimizeQuality; image-rendering:optimizeQuality;">
            <path d="M343.2352 194.5 L343.2352 198.5"
                  style="fill:none; clip-path:url(#clipPath1);"/>
            <path d="M343.2812 209.0625 L343.2812 218.1094 L343.3281 218.8281 Q343.3594 219.2656 343.5859 219.3984 Q343.8125 219.5312 344.5156 219.5312 L345.375 219.5469 L345.375 220 L339.7656 220 L339.7656 219.5469 L340.625 219.5312 Q341.3125 219.5312 341.5391 219.3984 Q341.7656 219.2656 341.7969 218.8281 L341.8438 218.1094 L341.8438 211.375 L341.7969 210.6406 Q341.7969 210.125 341.5 210.125 Q341.2812 210.125 340.4844 210.2656 L339.7656 210.3906 L339.7656 209.9375 L343.2812 209.0625 ZM348.2041 220 L348.2041 218.1875 L350.0166 218.1875 L350.0166 220 L348.2041 220 ZM352.8218 220.0156 L352.8218 218.1875 L353.5405 218.1875 L353.5562 218.3594 L353.5718 218.9219 Q353.6187 219.8125 354.978 219.8125 Q355.9937 219.8125 356.5874 219.0234 Q357.1812 218.2344 357.1812 216.875 Q357.1812 215.3281 356.2593 214.6641 Q355.3374 214 353.2593 214 L352.9937 214 L352.9937 209.1562 L358.4624 209.1562 L358.4624 210.4219 L353.4468 210.4219 L353.4468 213.4531 L354.1187 213.4531 Q358.6968 213.4531 358.6968 216.9375 Q358.6968 218.5 357.6421 219.3828 Q356.5874 220.2656 354.728 220.2656 Q353.8062 220.2656 352.8218 220.0156 Z"
                  style="clip-path:url(#clipPath4); stroke:none;"
                  transform="translate(-6,-5)"/>
        </g>
        <g transform="translate(6,5)"
           style="text-rendering:optimizeLegibility; font-family:'Lucida Bright'; color-interpolation:linearRGB; color-rendering:optimizeQuality; image-rendering:optimizeQuality;">
            <path d="M8.3688 194.5 L8.3688 196.5"
                  style="fill:none; clip-path:url(#clipPath1);"/>
        </g>
        <g transform="translate(6,5)"
           style="text-rendering:optimizeLegibility; font-family:'Lucida Bright'; color-interpolation:linearRGB; color-rendering:optimizeQuality; image-rendering:optimizeQuality;">
            <path d="M18.2178 194.5 L18.2178 196.5"
                  style="fill:none; clip-path:url(#clipPath1);"/>
        </g>
        <g transform="translate(6,5)"
           style="text-rendering:optimizeLegibility; font-family:'Lucida Bright'; color-interpolation:linearRGB; color-rendering:optimizeQuality; image-rendering:optimizeQuality;">
            <path d="M28.0668 194.5 L28.0668 196.5"
                  style="fill:none; clip-path:url(#clipPath1);"/>
        </g>
        <g transform="translate(6,5)"
           style="text-rendering:optimizeLegibility; font-family:'Lucida Bright'; color-interpolation:linearRGB; color-rendering:optimizeQuality; image-rendering:optimizeQuality;">
            <path d="M37.9158 194.5 L37.9158 196.5"
                  style="fill:none; clip-path:url(#clipPath1);"/>
        </g>
        <g transform="translate(6,5)"
           style="text-rendering:optimizeLegibility; font-family:'Lucida Bright'; color-interpolation:linearRGB; color-rendering:optimizeQuality; image-rendering:optimizeQuality;">
            <path d="M57.6138 194.5 L57.6138 196.5"
                  style="fill:none; clip-path:url(#clipPath1);"/>
        </g>
        <g transform="translate(6,5)"
           style="text-rendering:optimizeLegibility; font-family:'Lucida Bright'; color-interpolation:linearRGB; color-rendering:optimizeQuality; image-rendering:optimizeQuality;">
            <path d="M67.4628 194.5 L67.4628 196.5"
                  style="fill:none; clip-path:url(#clipPath1);"/>
        </g>
        <g transform="translate(6,5)"
           style="text-rendering:optimizeLegibility; font-family:'Lucida Bright'; color-interpolation:linearRGB; color-rendering:optimizeQuality; image-rendering:optimizeQuality;">
            <path d="M77.3118 194.5 L77.3118 196.5"
                  style="fill:none; clip-path:url(#clipPath1);"/>
        </g>
        <g transform="translate(6,5)"
           style="text-rendering:optimizeLegibility; font-family:'Lucida Bright'; color-interpolation:linearRGB; color-rendering:optimizeQuality; image-rendering:optimizeQuality;">
            <path d="M87.1609 194.5 L87.1609 196.5"
                  style="fill:none; clip-path:url(#clipPath1);"/>
        </g>
        <g transform="translate(6,5)"
           style="text-rendering:optimizeLegibility; font-family:'Lucida Bright'; color-interpolation:linearRGB; color-rendering:optimizeQuality; image-rendering:optimizeQuality;">
            <path d="M106.8589 194.5 L106.8589 196.5"
                  style="fill:none; clip-path:url(#clipPath1);"/>
        </g>
        <g transform="translate(6,5)"
           style="text-rendering:optimizeLegibility; font-family:'Lucida Bright'; color-interpolation:linearRGB; color-rendering:optimizeQuality; image-rendering:optimizeQuality;">
            <path d="M116.7079 194.5 L116.7079 196.5"
                  style="fill:none; clip-path:url(#clipPath1);"/>
        </g>
        <g transform="translate(6,5)"
           style="text-rendering:optimizeLegibility; font-family:'Lucida Bright'; color-interpolation:linearRGB; color-rendering:optimizeQuality; image-rendering:optimizeQuality;">
            <path d="M126.5569 194.5 L126.5569 196.5"
                  style="fill:none; clip-path:url(#clipPath1);"/>
        </g>
        <g transform="translate(6,5)"
           style="text-rendering:optimizeLegibility; font-family:'Lucida Bright'; color-interpolation:linearRGB; color-rendering:optimizeQuality; image-rendering:optimizeQuality;">
            <path d="M136.4059 194.5 L136.4059 196.5"
                  style="fill:none; clip-path:url(#clipPath1);"/>
        </g>
        <g transform="translate(6,5)"
           style="text-rendering:optimizeLegibility; font-family:'Lucida Bright'; color-interpolation:linearRGB; color-rendering:optimizeQuality; image-rendering:optimizeQuality;">
            <path d="M156.1039 194.5 L156.1039 196.5"
                  style="fill:none; clip-path:url(#clipPath1);"/>
        </g>
        <g transform="translate(6,5)"
           style="text-rendering:optimizeLegibility; font-family:'Lucida Bright'; color-interpolation:linearRGB; color-rendering:optimizeQuality; image-rendering:optimizeQuality;">
            <path d="M165.953 194.5 L165.953 196.5"
                  style="fill:none; clip-path:url(#clipPath1);"/>
        </g>
        <g transform="translate(6,5)"
           style="text-rendering:optimizeLegibility; font-family:'Lucida Bright'; color-interpolation:linearRGB; color-rendering:optimizeQuality; image-rendering:optimizeQuality;">
            <path d="M175.802 194.5 L175.802 196.5"
                  style="fill:none; clip-path:url(#clipPath1);"/>
        </g>
        <g transform="translate(6,5)"
           style="text-rendering:optimizeLegibility; font-family:'Lucida Bright'; color-interpolation:linearRGB; color-rendering:optimizeQuality; image-rendering:optimizeQuality;">
            <path d="M185.651 194.5 L185.651 196.5"
                  style="fill:none; clip-path:url(#clipPath1);"/>
        </g>
        <g transform="translate(6,5)"
           style="text-rendering:optimizeLegibility; font-family:'Lucida Bright'; color-interpolation:linearRGB; color-rendering:optimizeQuality; image-rendering:optimizeQuality;">
            <path d="M205.349 194.5 L205.349 196.5"
                  style="fill:none; clip-path:url(#clipPath1);"/>
        </g>
        <g transform="translate(6,5)"
           style="text-rendering:optimizeLegibility; font-family:'Lucida Bright'; color-interpolation:linearRGB; color-rendering:optimizeQuality; image-rendering:optimizeQuality;">
            <path d="M215.198 194.5 L215.198 196.5"
                  style="fill:none; clip-path:url(#clipPath1);"/>
        </g>
        <g transform="translate(6,5)"
           style="text-rendering:optimizeLegibility; font-family:'Lucida Bright'; color-interpolation:linearRGB; color-rendering:optimizeQuality; image-rendering:optimizeQuality;">
            <path d="M225.047 194.5 L225.047 196.5"
                  style="fill:none; clip-path:url(#clipPath1);"/>
        </g>
        <g transform="translate(6,5)"
           style="text-rendering:optimizeLegibility; font-family:'Lucida Bright'; color-interpolation:linearRGB; color-rendering:optimizeQuality; image-rendering:optimizeQuality;">
            <path d="M234.8961 194.5 L234.8961 196.5"
                  style="fill:none; clip-path:url(#clipPath1);"/>
        </g>
        <g transform="translate(6,5)"
           style="text-rendering:optimizeLegibility; font-family:'Lucida Bright'; color-interpolation:linearRGB; color-rendering:optimizeQuality; image-rendering:optimizeQuality;">
            <path d="M254.5941 194.5 L254.5941 196.5"
                  style="fill:none; clip-path:url(#clipPath1);"/>
        </g>
        <g transform="translate(6,5)"
           style="text-rendering:optimizeLegibility; font-family:'Lucida Bright'; color-interpolation:linearRGB; color-rendering:optimizeQuality; image-rendering:optimizeQuality;">
            <path d="M264.4431 194.5 L264.4431 196.5"
                  style="fill:none; clip-path:url(#clipPath1);"/>
        </g>
        <g transform="translate(6,5)"
           style="text-rendering:optimizeLegibility; font-family:'Lucida Bright'; color-interpolation:linearRGB; color-rendering:optimizeQuality; image-rendering:optimizeQuality;">
            <path d="M274.2921 194.5 L274.2921 196.5"
                  style="fill:none; clip-path:url(#clipPath1);"/>
        </g>
        <g transform="translate(6,5)"
           style="text-rendering:optimizeLegibility; font-family:'Lucida Bright'; color-interpolation:linearRGB; color-rendering:optimizeQuality; image-rendering:optimizeQuality;">
            <path d="M284.1411 194.5 L284.1411 196.5"
                  style="fill:none; clip-path:url(#clipPath1);"/>
        </g>
        <g transform="translate(6,5)"
           style="text-rendering:optimizeLegibility; font-family:'Lucida Bright'; color-interpolation:linearRGB; color-rendering:optimizeQuality; image-rendering:optimizeQuality;">
            <path d="M303.8391 194.5 L303.8391 196.5"
                  style="fill:none; clip-path:url(#clipPath1);"/>
        </g>
        <g transform="translate(6,5)"
           style="text-rendering:optimizeLegibility; font-family:'Lucida Bright'; color-interpolation:linearRGB; color-rendering:optimizeQuality; image-rendering:optimizeQuality;">
            <path d="M313.6881 194.5 L313.6881 196.5"
                  style="fill:none; clip-path:url(#clipPath1);"/>
        </g>
        <g transform="translate(6,5)"
           style="text-rendering:optimizeLegibility; font-family:'Lucida Bright'; color-interpolation:linearRGB; color-rendering:optimizeQuality; image-rendering:optimizeQuality;">
            <path d="M323.5372 194.5 L323.5372 196.5"
                  style="fill:none; clip-path:url(#clipPath1);"/>
        </g>
        <g transform="translate(6,5)"
           style="text-rendering:optimizeLegibility; font-family:'Lucida Bright'; color-interpolation:linearRGB; color-rendering:optimizeQuality; image-rendering:optimizeQuality;">
            <path d="M333.3862 194.5 L333.3862 196.5"
                  style="fill:none; clip-path:url(#clipPath1);"/>
        </g>
        <g transform="translate(6,5)"
           style="text-rendering:optimizeLegibility; font-family:'Lucida Bright'; color-interpolation:linearRGB; color-rendering:optimizeQuality; image-rendering:optimizeQuality;">
            <path d="M353.0842 194.5 L353.0842 196.5"
                  style="fill:none; clip-path:url(#clipPath1);"/>
        </g>
        <g transform="translate(6,5)"
           style="text-rendering:optimizeLegibility; font-family:'Lucida Bright'; color-interpolation:linearRGB; color-rendering:optimizeQuality; image-rendering:optimizeQuality;">
            <path d="M362.9332 194.5 L362.9332 196.5"
                  style="fill:none; clip-path:url(#clipPath1);"/>
        </g>
        <g transform="translate(6,5)"
           style="text-rendering:optimizeLegibility; font-family:'Lucida Bright'; color-interpolation:linearRGB; color-rendering:optimizeQuality; image-rendering:optimizeQuality;">
            <path d="M372.7822 194.5 L372.7822 196.5"
                  style="fill:none; clip-path:url(#clipPath1);"/>
        </g>
        <g transform="translate(6,5)"
           style="text-rendering:optimizeLegibility; font-family:'Lucida Bright'; color-interpolation:linearRGB; color-rendering:optimizeQuality; image-rendering:optimizeQuality;">
            <path d="M382.6313 194.5 L382.6313 196.5"
                  style="fill:none; clip-path:url(#clipPath1);"/>
        </g>
        <g transform="translate(6,5)"
           style="stroke-linecap:butt; text-rendering:optimizeLegibility; color-rendering:optimizeQuality; image-rendering:optimizeQuality; font-family:'Lucida Bright'; stroke-linejoin:round; color-interpolation:linearRGB;">
            <path d="M195.5 388 L195.5 1"
                  style="fill:none; clip-path:url(#clipPath1);"/>
        </g>
        <g transform="translate(6,5)"
           style="stroke-linecap:butt; text-rendering:optimizeLegibility; color-rendering:optimizeQuality; image-rendering:optimizeQuality; font-family:'Lucida Bright'; stroke-linejoin:round; color-interpolation:linearRGB;">
            <path d="M135.9688 105.8906 Q137.3125 104.9531 139.3438 103.0781 L139.625 102.8125 Q139.5312 101.1094 139.1875 99.2266 Q138.8438 97.3438 138.4688 96.5 Q138.1406 95.7969 137.9531 95.6719 Q137.7656 95.5469 136.9375 95.5 L136.7656 95.5 L136.8438 95.0469 L139.5156 95.0469 Q140.6562 97.7344 140.8125 101.3594 L141.7188 100.1875 Q143.0469 98.5 143.4922 97.7109 Q143.9375 96.9219 143.9375 96.25 Q143.9375 95.5625 143.3594 95.0469 L145.1719 95.0469 Q145.3281 95.375 145.3281 95.6719 Q145.3281 96.2969 144.9219 96.9766 Q144.5156 97.6562 143.2188 99.2031 L140.4531 102.5312 Q138.7969 104.5156 137.9688 105.8906 L135.9688 105.8906 Z"
                  style="stroke:none; clip-path:url(#clipPath8);"/>
        </g>
        <g transform="translate(6,5)"
           style="text-rendering:optimizeLegibility; font-family:'Lucida Bright'; color-interpolation:linearRGB; color-rendering:optimizeQuality; image-rendering:optimizeQuality;">
            <path d="M195.5 342.2352 L191.5 342.2352"
                  style="fill:none; clip-path:url(#clipPath1);"/>
        </g>
        <g style="text-rendering:optimizeLegibility; font-family:'Lucida Bright'; color-interpolation:linearRGB; color-rendering:optimizeQuality; image-rendering:optimizeQuality;">
            <path d="M173.4531 348.8906 L163.5469 348.8906 L163.5469 348.1094 L173.4531 348.1094 L173.4531 348.8906 Z"
                  style="stroke:none; clip-path:url(#clipPath9);"/>
        </g>
        <g style="text-rendering:optimizeLegibility; font-family:'Lucida Bright'; color-interpolation:linearRGB; color-rendering:optimizeQuality; image-rendering:optimizeQuality;">
            <path d="M176.2812 342.0625 L176.2812 351.1094 L176.3281 351.8281 Q176.3594 352.2656 176.5859 352.3984 Q176.8125 352.5312 177.5156 352.5312 L178.375 352.5469 L178.375 353 L172.7656 353 L172.7656 352.5469 L173.625 352.5312 Q174.3125 352.5312 174.5391 352.3984 Q174.7656 352.2656 174.7969 351.8281 L174.8438 351.1094 L174.8438 344.375 L174.7969 343.6406 Q174.7969 343.125 174.5 343.125 Q174.2812 343.125 173.4844 343.2656 L172.7656 343.3906 L172.7656 342.9375 L176.2812 342.0625 ZM181.2041 353 L181.2041 351.1875 L183.0166 351.1875 L183.0166 353 L181.2041 353 ZM185.8218 353.0156 L185.8218 351.1875 L186.5405 351.1875 L186.5562 351.3594 L186.5718 351.9219 Q186.6187 352.8125 187.978 352.8125 Q188.9937 352.8125 189.5874 352.0234 Q190.1812 351.2344 190.1812 349.875 Q190.1812 348.3281 189.2593 347.6641 Q188.3374 347 186.2593 347 L185.9937 347 L185.9937 342.1562 L191.4624 342.1562 L191.4624 343.4219 L186.4468 343.4219 L186.4468 346.4531 L187.1187 346.4531 Q191.6968 346.4531 191.6968 349.9375 Q191.6968 351.5 190.6421 352.3828 Q189.5874 353.2656 187.728 353.2656 Q186.8062 353.2656 185.8218 353.0156 Z"
                  style="stroke:none; clip-path:url(#clipPath4);"/>
        </g>
        <g transform="translate(6,5)"
           style="text-rendering:optimizeLegibility; font-family:'Lucida Bright'; color-interpolation:linearRGB; color-rendering:optimizeQuality; image-rendering:optimizeQuality;">
            <path d="M195.5 292.9901 L191.5 292.9901"
                  style="fill:none; clip-path:url(#clipPath1);"/>
        </g>
        <g style="text-rendering:optimizeLegibility; font-family:'Lucida Bright'; color-interpolation:linearRGB; color-rendering:optimizeQuality; image-rendering:optimizeQuality;">
            <path d="M187.4531 298.8906 L177.5469 298.8906 L177.5469 298.1094 L187.4531 298.1094 L187.4531 298.8906 Z"
                  style="stroke:none; clip-path:url(#clipPath10);"/>
        </g>
        <g style="text-rendering:optimizeLegibility; font-family:'Lucida Bright'; color-interpolation:linearRGB; color-rendering:optimizeQuality; image-rendering:optimizeQuality;">
            <path d="M190.2812 292.0625 L190.2812 301.1094 L190.3281 301.8281 Q190.3594 302.2656 190.5859 302.3984 Q190.8125 302.5312 191.5156 302.5312 L192.375 302.5469 L192.375 303 L186.7656 303 L186.7656 302.5469 L187.625 302.5312 Q188.3125 302.5312 188.5391 302.3984 Q188.7656 302.2656 188.7969 301.8281 L188.8438 301.1094 L188.8438 294.375 L188.7969 293.6406 Q188.7969 293.125 188.5 293.125 Q188.2812 293.125 187.4844 293.2656 L186.7656 293.3906 L186.7656 292.9375 L190.2812 292.0625 Z"
                  style="stroke:none; clip-path:url(#clipPath4);"/>
        </g>
        <g transform="translate(6,5)"
           style="text-rendering:optimizeLegibility; font-family:'Lucida Bright'; color-interpolation:linearRGB; color-rendering:optimizeQuality; image-rendering:optimizeQuality;">
            <path d="M195.5 243.7451 L191.5 243.7451"
                  style="fill:none; clip-path:url(#clipPath1);"/>
        </g>
        <g style="text-rendering:optimizeLegibility; font-family:'Lucida Bright'; color-interpolation:linearRGB; color-rendering:optimizeQuality; image-rendering:optimizeQuality;">
            <path d="M173.4531 249.8906 L163.5469 249.8906 L163.5469 249.1094 L173.4531 249.1094 L173.4531 249.8906 Z"
                  style="stroke:none; clip-path:url(#clipPath11);"/>
        </g>
        <g style="text-rendering:optimizeLegibility; font-family:'Lucida Bright'; color-interpolation:linearRGB; color-rendering:optimizeQuality; image-rendering:optimizeQuality;">
            <path d="M175.5 254.2656 Q173.8281 254.2656 172.7969 252.7109 Q171.7656 251.1562 171.7656 248.6094 Q171.7656 246 172.7969 244.4453 Q173.8281 242.8906 175.5625 242.8906 Q177.2969 242.8906 178.3281 244.4375 Q179.3594 245.9844 179.3594 248.5938 Q179.3594 251.2031 178.3203 252.7344 Q177.2812 254.2656 175.5 254.2656 ZM175.5312 253.8125 Q177.8281 253.9219 177.8281 248.5 Q177.8281 243.3281 175.5625 243.3281 Q173.3125 243.3281 173.3125 248.5781 Q173.3125 253.7188 175.5312 253.8125 ZM181.2041 254 L181.2041 252.1875 L183.0166 252.1875 L183.0166 254 L181.2041 254 ZM185.8218 254.0156 L185.8218 252.1875 L186.5405 252.1875 L186.5562 252.3594 L186.5718 252.9219 Q186.6187 253.8125 187.978 253.8125 Q188.9937 253.8125 189.5874 253.0234 Q190.1812 252.2344 190.1812 250.875 Q190.1812 249.3281 189.2593 248.6641 Q188.3374 248 186.2593 248 L185.9937 248 L185.9937 243.1562 L191.4624 243.1562 L191.4624 244.4219 L186.4468 244.4219 L186.4468 247.4531 L187.1187 247.4531 Q191.6968 247.4531 191.6968 250.9375 Q191.6968 252.5 190.6421 253.3828 Q189.5874 254.2656 187.728 254.2656 Q186.8062 254.2656 185.8218 254.0156 Z"
                  style="stroke:none; clip-path:url(#clipPath4);"/>
        </g>
        <g transform="translate(6,5)"
           style="text-rendering:optimizeLegibility; font-family:'Lucida Bright'; color-interpolation:linearRGB; color-rendering:optimizeQuality; image-rendering:optimizeQuality;">
            <path d="M195.5 194.5 L191.5 194.5"
                  style="fill:none; clip-path:url(#clipPath1);"/>
        </g>
        <g transform="translate(6,5)"
           style="text-rendering:optimizeLegibility; font-family:'Lucida Bright'; color-interpolation:linearRGB; color-rendering:optimizeQuality; image-rendering:optimizeQuality;">
            <path d="M195.5 145.2549 L191.5 145.2549"
                  style="fill:none; clip-path:url(#clipPath1);"/>
            <path d="M175.5 156.2656 Q173.8281 156.2656 172.7969 154.7109 Q171.7656 153.1562 171.7656 150.6094 Q171.7656 148 172.7969 146.4453 Q173.8281 144.8906 175.5625 144.8906 Q177.2969 144.8906 178.3281 146.4375 Q179.3594 147.9844 179.3594 150.5938 Q179.3594 153.2031 178.3203 154.7344 Q177.2812 156.2656 175.5 156.2656 ZM175.5312 155.8125 Q177.8281 155.9219 177.8281 150.5 Q177.8281 145.3281 175.5625 145.3281 Q173.3125 145.3281 173.3125 150.5781 Q173.3125 155.7188 175.5312 155.8125 ZM181.2041 156 L181.2041 154.1875 L183.0166 154.1875 L183.0166 156 L181.2041 156 ZM185.8218 156.0156 L185.8218 154.1875 L186.5405 154.1875 L186.5562 154.3594 L186.5718 154.9219 Q186.6187 155.8125 187.978 155.8125 Q188.9937 155.8125 189.5874 155.0234 Q190.1812 154.2344 190.1812 152.875 Q190.1812 151.3281 189.2593 150.6641 Q188.3374 150 186.2593 150 L185.9937 150 L185.9937 145.1562 L191.4624 145.1562 L191.4624 146.4219 L186.4468 146.4219 L186.4468 149.4531 L187.1187 149.4531 Q191.6968 149.4531 191.6968 152.9375 Q191.6968 154.5 190.6421 155.3828 Q189.5874 156.2656 187.728 156.2656 Q186.8062 156.2656 185.8218 156.0156 Z"
                  style="clip-path:url(#clipPath4); stroke:none;"
                  transform="translate(-6,-5)"/>
        </g>
        <g transform="translate(6,5)"
           style="text-rendering:optimizeLegibility; font-family:'Lucida Bright'; color-interpolation:linearRGB; color-rendering:optimizeQuality; image-rendering:optimizeQuality;">
            <path d="M195.5 96.0099 L191.5 96.0099"
                  style="fill:none; clip-path:url(#clipPath1);"/>
            <path d="M190.2812 96.0625 L190.2812 105.1094 L190.3281 105.8281 Q190.3594 106.2656 190.5859 106.3984 Q190.8125 106.5312 191.5156 106.5312 L192.375 106.5469 L192.375 107 L186.7656 107 L186.7656 106.5469 L187.625 106.5312 Q188.3125 106.5312 188.5391 106.3984 Q188.7656 106.2656 188.7969 105.8281 L188.8438 105.1094 L188.8438 98.375 L188.7969 97.6406 Q188.7969 97.125 188.5 97.125 Q188.2812 97.125 187.4844 97.2656 L186.7656 97.3906 L186.7656 96.9375 L190.2812 96.0625 Z"
                  style="clip-path:url(#clipPath4); stroke:none;"
                  transform="translate(-6,-5)"/>
        </g>
        <g transform="translate(6,5)"
           style="text-rendering:optimizeLegibility; font-family:'Lucida Bright'; color-interpolation:linearRGB; color-rendering:optimizeQuality; image-rendering:optimizeQuality;">
            <path d="M195.5 46.7648 L191.5 46.7648"
                  style="fill:none; clip-path:url(#clipPath1);"/>
            <path d="M176.2812 46.0625 L176.2812 55.1094 L176.3281 55.8281 Q176.3594 56.2656 176.5859 56.3984 Q176.8125 56.5312 177.5156 56.5312 L178.375 56.5469 L178.375 57 L172.7656 57 L172.7656 56.5469 L173.625 56.5312 Q174.3125 56.5312 174.5391 56.3984 Q174.7656 56.2656 174.7969 55.8281 L174.8438 55.1094 L174.8438 48.375 L174.7969 47.6406 Q174.7969 47.125 174.5 47.125 Q174.2812 47.125 173.4844 47.2656 L172.7656 47.3906 L172.7656 46.9375 L176.2812 46.0625 ZM181.2041 57 L181.2041 55.1875 L183.0166 55.1875 L183.0166 57 L181.2041 57 ZM185.8218 57.0156 L185.8218 55.1875 L186.5405 55.1875 L186.5562 55.3594 L186.5718 55.9219 Q186.6187 56.8125 187.978 56.8125 Q188.9937 56.8125 189.5874 56.0234 Q190.1812 55.2344 190.1812 53.875 Q190.1812 52.3281 189.2593 51.6641 Q188.3374 51 186.2593 51 L185.9937 51 L185.9937 46.1562 L191.4624 46.1562 L191.4624 47.4219 L186.4468 47.4219 L186.4468 50.4531 L187.1187 50.4531 Q191.6968 50.4531 191.6968 53.9375 Q191.6968 55.5 190.6421 56.3828 Q189.5874 57.2656 187.728 57.2656 Q186.8062 57.2656 185.8218 57.0156 Z"
                  style="clip-path:url(#clipPath4); stroke:none;"
                  transform="translate(-6,-5)"/>
        </g>
        <g transform="translate(6,5)"
           style="text-rendering:optimizeLegibility; font-family:'Lucida Bright'; color-interpolation:linearRGB; color-rendering:optimizeQuality; image-rendering:optimizeQuality;">
            <path d="M195.5 381.6313 L193.5 381.6313"
                  style="fill:none; clip-path:url(#clipPath1);"/>
        </g>
        <g transform="translate(6,5)"
           style="text-rendering:optimizeLegibility; font-family:'Lucida Bright'; color-interpolation:linearRGB; color-rendering:optimizeQuality; image-rendering:optimizeQuality;">
            <path d="M195.5 371.7822 L193.5 371.7822"
                  style="fill:none; clip-path:url(#clipPath1);"/>
        </g>
        <g transform="translate(6,5)"
           style="text-rendering:optimizeLegibility; font-family:'Lucida Bright'; color-interpolation:linearRGB; color-rendering:optimizeQuality; image-rendering:optimizeQuality;">
            <path d="M195.5 361.9332 L193.5 361.9332"
                  style="fill:none; clip-path:url(#clipPath1);"/>
        </g>
        <g transform="translate(6,5)"
           style="text-rendering:optimizeLegibility; font-family:'Lucida Bright'; color-interpolation:linearRGB; color-rendering:optimizeQuality; image-rendering:optimizeQuality;">
            <path d="M195.5 352.0842 L193.5 352.0842"
                  style="fill:none; clip-path:url(#clipPath1);"/>
        </g>
        <g transform="translate(6,5)"
           style="text-rendering:optimizeLegibility; font-family:'Lucida Bright'; color-interpolation:linearRGB; color-rendering:optimizeQuality; image-rendering:optimizeQuality;">
            <path d="M195.5 332.3862 L193.5 332.3862"
                  style="fill:none; clip-path:url(#clipPath1);"/>
        </g>
        <g transform="translate(6,5)"
           style="text-rendering:optimizeLegibility; font-family:'Lucida Bright'; color-interpolation:linearRGB; color-rendering:optimizeQuality; image-rendering:optimizeQuality;">
            <path d="M195.5 322.5372 L193.5 322.5372"
                  style="fill:none; clip-path:url(#clipPath1);"/>
        </g>
        <g transform="translate(6,5)"
           style="text-rendering:optimizeLegibility; font-family:'Lucida Bright'; color-interpolation:linearRGB; color-rendering:optimizeQuality; image-rendering:optimizeQuality;">
            <path d="M195.5 312.6882 L193.5 312.6882"
                  style="fill:none; clip-path:url(#clipPath1);"/>
        </g>
        <g transform="translate(6,5)"
           style="text-rendering:optimizeLegibility; font-family:'Lucida Bright'; color-interpolation:linearRGB; color-rendering:optimizeQuality; image-rendering:optimizeQuality;">
            <path d="M195.5 302.8391 L193.5 302.8391"
                  style="fill:none; clip-path:url(#clipPath1);"/>
        </g>
        <g transform="translate(6,5)"
           style="text-rendering:optimizeLegibility; font-family:'Lucida Bright'; color-interpolation:linearRGB; color-rendering:optimizeQuality; image-rendering:optimizeQuality;">
            <path d="M195.5 283.1411 L193.5 283.1411"
                  style="fill:none; clip-path:url(#clipPath1);"/>
        </g>
        <g transform="translate(6,5)"
           style="text-rendering:optimizeLegibility; font-family:'Lucida Bright'; color-interpolation:linearRGB; color-rendering:optimizeQuality; image-rendering:optimizeQuality;">
            <path d="M195.5 273.2921 L193.5 273.2921"
                  style="fill:none; clip-path:url(#clipPath1);"/>
        </g>
        <g transform="translate(6,5)"
           style="text-rendering:optimizeLegibility; font-family:'Lucida Bright'; color-interpolation:linearRGB; color-rendering:optimizeQuality; image-rendering:optimizeQuality;">
            <path d="M195.5 263.4431 L193.5 263.4431"
                  style="fill:none; clip-path:url(#clipPath1);"/>
        </g>
        <g transform="translate(6,5)"
           style="text-rendering:optimizeLegibility; font-family:'Lucida Bright'; color-interpolation:linearRGB; color-rendering:optimizeQuality; image-rendering:optimizeQuality;">
            <path d="M195.5 253.5941 L193.5 253.5941"
                  style="fill:none; clip-path:url(#clipPath1);"/>
        </g>
        <g transform="translate(6,5)"
           style="text-rendering:optimizeLegibility; font-family:'Lucida Bright'; color-interpolation:linearRGB; color-rendering:optimizeQuality; image-rendering:optimizeQuality;">
            <path d="M195.5 233.8961 L193.5 233.8961"
                  style="fill:none; clip-path:url(#clipPath1);"/>
        </g>
        <g transform="translate(6,5)"
           style="text-rendering:optimizeLegibility; font-family:'Lucida Bright'; color-interpolation:linearRGB; color-rendering:optimizeQuality; image-rendering:optimizeQuality;">
            <path d="M195.5 224.047 L193.5 224.047"
                  style="fill:none; clip-path:url(#clipPath1);"/>
        </g>
        <g transform="translate(6,5)"
           style="text-rendering:optimizeLegibility; font-family:'Lucida Bright'; color-interpolation:linearRGB; color-rendering:optimizeQuality; image-rendering:optimizeQuality;">
            <path d="M195.5 214.198 L193.5 214.198"
                  style="fill:none; clip-path:url(#clipPath1);"/>
        </g>
        <g transform="translate(6,5)"
           style="text-rendering:optimizeLegibility; font-family:'Lucida Bright'; color-interpolation:linearRGB; color-rendering:optimizeQuality; image-rendering:optimizeQuality;">
            <path d="M195.5 204.349 L193.5 204.349"
                  style="fill:none; clip-path:url(#clipPath1);"/>
        </g>
        <g transform="translate(6,5)"
           style="text-rendering:optimizeLegibility; font-family:'Lucida Bright'; color-interpolation:linearRGB; color-rendering:optimizeQuality; image-rendering:optimizeQuality;">
            <path d="M195.5 184.651 L193.5 184.651"
                  style="fill:none; clip-path:url(#clipPath1);"/>
        </g>
        <g transform="translate(6,5)"
           style="text-rendering:optimizeLegibility; font-family:'Lucida Bright'; color-interpolation:linearRGB; color-rendering:optimizeQuality; image-rendering:optimizeQuality;">
            <path d="M195.5 174.802 L193.5 174.802"
                  style="fill:none; clip-path:url(#clipPath1);"/>
        </g>
        <g transform="translate(6,5)"
           style="text-rendering:optimizeLegibility; font-family:'Lucida Bright'; color-interpolation:linearRGB; color-rendering:optimizeQuality; image-rendering:optimizeQuality;">
            <path d="M195.5 164.953 L193.5 164.953"
                  style="fill:none; clip-path:url(#clipPath1);"/>
        </g>
        <g transform="translate(6,5)"
           style="text-rendering:optimizeLegibility; font-family:'Lucida Bright'; color-interpolation:linearRGB; color-rendering:optimizeQuality; image-rendering:optimizeQuality;">
            <path d="M195.5 155.1039 L193.5 155.1039"
                  style="fill:none; clip-path:url(#clipPath1);"/>
        </g>
        <g transform="translate(6,5)"
           style="text-rendering:optimizeLegibility; font-family:'Lucida Bright'; color-interpolation:linearRGB; color-rendering:optimizeQuality; image-rendering:optimizeQuality;">
            <path d="M195.5 135.4059 L193.5 135.4059"
                  style="fill:none; clip-path:url(#clipPath1);"/>
        </g>
        <g transform="translate(6,5)"
           style="text-rendering:optimizeLegibility; font-family:'Lucida Bright'; color-interpolation:linearRGB; color-rendering:optimizeQuality; image-rendering:optimizeQuality;">
            <path d="M195.5 125.5569 L193.5 125.5569"
                  style="fill:none; clip-path:url(#clipPath1);"/>
        </g>
        <g transform="translate(6,5)"
           style="text-rendering:optimizeLegibility; font-family:'Lucida Bright'; color-interpolation:linearRGB; color-rendering:optimizeQuality; image-rendering:optimizeQuality;">
            <path d="M195.5 115.7079 L193.5 115.7079"
                  style="fill:none; clip-path:url(#clipPath1);"/>
        </g>
        <g transform="translate(6,5)"
           style="text-rendering:optimizeLegibility; font-family:'Lucida Bright'; color-interpolation:linearRGB; color-rendering:optimizeQuality; image-rendering:optimizeQuality;">
            <path d="M195.5 105.8589 L193.5 105.8589"
                  style="fill:none; clip-path:url(#clipPath1);"/>
        </g>
        <g transform="translate(6,5)"
           style="text-rendering:optimizeLegibility; font-family:'Lucida Bright'; color-interpolation:linearRGB; color-rendering:optimizeQuality; image-rendering:optimizeQuality;">
            <path d="M195.5 86.1609 L193.5 86.1609"
                  style="fill:none; clip-path:url(#clipPath1);"/>
        </g>
        <g transform="translate(6,5)"
           style="text-rendering:optimizeLegibility; font-family:'Lucida Bright'; color-interpolation:linearRGB; color-rendering:optimizeQuality; image-rendering:optimizeQuality;">
            <path d="M195.5 76.3119 L193.5 76.3119"
                  style="fill:none; clip-path:url(#clipPath1);"/>
        </g>
        <g transform="translate(6,5)"
           style="text-rendering:optimizeLegibility; font-family:'Lucida Bright'; color-interpolation:linearRGB; color-rendering:optimizeQuality; image-rendering:optimizeQuality;">
            <path d="M195.5 66.4628 L193.5 66.4628"
                  style="fill:none; clip-path:url(#clipPath1);"/>
        </g>
        <g transform="translate(6,5)"
           style="text-rendering:optimizeLegibility; font-family:'Lucida Bright'; color-interpolation:linearRGB; color-rendering:optimizeQuality; image-rendering:optimizeQuality;">
            <path d="M195.5 56.6138 L193.5 56.6138"
                  style="fill:none; clip-path:url(#clipPath1);"/>
        </g>
        <g transform="translate(6,5)"
           style="text-rendering:optimizeLegibility; font-family:'Lucida Bright'; color-interpolation:linearRGB; color-rendering:optimizeQuality; image-rendering:optimizeQuality;">
            <path d="M195.5 36.9158 L193.5 36.9158"
                  style="fill:none; clip-path:url(#clipPath1);"/>
        </g>
        <g transform="translate(6,5)"
           style="text-rendering:optimizeLegibility; font-family:'Lucida Bright'; color-interpolation:linearRGB; color-rendering:optimizeQuality; image-rendering:optimizeQuality;">
            <path d="M195.5 27.0668 L193.5 27.0668"
                  style="fill:none; clip-path:url(#clipPath1);"/>
        </g>
        <g transform="translate(6,5)"
           style="text-rendering:optimizeLegibility; font-family:'Lucida Bright'; color-interpolation:linearRGB; color-rendering:optimizeQuality; image-rendering:optimizeQuality;">
            <path d="M195.5 17.2178 L193.5 17.2178"
                  style="fill:none; clip-path:url(#clipPath1);"/>
        </g>
        <g transform="translate(6,5)"
           style="text-rendering:optimizeLegibility; font-family:'Lucida Bright'; color-interpolation:linearRGB; color-rendering:optimizeQuality; image-rendering:optimizeQuality;">
            <path d="M195.5 7.3687 L193.5 7.3687"
                  style="fill:none; clip-path:url(#clipPath1);"/>
        </g>
    </g>
</svg>
