<?xml version="1.0" encoding="UTF-8"?>
<!DOCTYPE svg PUBLIC '-//W3C//DTD SVG 1.0//EN'
    'http://www.w3.org/TR/2001/REC-SVG-20010904/DTD/svg10.dtd' >

<svg style="stroke-dasharray:none; shape-rendering:auto; font-family:'Dialog'; text-rendering:auto; fill-opacity:1; color-interpolation:auto; color-rendering:auto; font-size:12px; fill:black; stroke:black; image-rendering:auto; stroke-miterlimit:10; stroke-linecap:square; stroke-linejoin:miter; font-style:normal; stroke-width:1; stroke-dashoffset:0; font-weight:normal; stroke-opacity:1;"
     xmlns="http://www.w3.org/2000/svg" contentScriptType="text/ecmascript"
     preserveAspectRatio="xMidYMid meet"
     xmlns:xlink="http://www.w3.org/1999/xlink" zoomAndPan="magnify"
     version="1.0" contentStyleType="text/css">
    <!--Generated by the Batik Graphics2D SVG Generator-->
    <defs id="genericDefs"/>
    <g>
        <defs id="defs1">
            <clipPath clipPathUnits="userSpaceOnUse" id="clipPath1">
                <path d="M0 0 L390 0 L390 390 L0 390 L0 0 Z"/>
            </clipPath>
            <clipPath clipPathUnits="userSpaceOnUse" id="clipPath2">
                <path d="M1 0 L1 389 L390 389 L390 0 Z"/>
            </clipPath>
            <clipPath clipPathUnits="userSpaceOnUse" id="clipPath3">
                <path d="M283 218 L283 236 L302 236 L302 218 Z"/>
            </clipPath>
            <clipPath clipPathUnits="userSpaceOnUse" id="clipPath4">
                <path d="M6 5 L396 5 L396 395 L6 395 L6 5 Z"/>
            </clipPath>
            <clipPath clipPathUnits="userSpaceOnUse" id="clipPath5">
                <path d="M10 207 L10 223 L18 223 L18 207 Z"/>
            </clipPath>
            <clipPath clipPathUnits="userSpaceOnUse" id="clipPath6">
                <path d="M75 207 L75 223 L83 223 L83 207 Z"/>
            </clipPath>
            <clipPath clipPathUnits="userSpaceOnUse" id="clipPath7">
                <path d="M127 207 L127 223 L135 223 L135 207 Z"/>
            </clipPath>
            <clipPath clipPathUnits="userSpaceOnUse" id="clipPath8">
                <path d="M130 88 L130 106 L150 106 L150 88 Z"/>
            </clipPath>
            <clipPath clipPathUnits="userSpaceOnUse" id="clipPath9">
                <path d="M175 330 L175 346 L183 346 L183 330 Z"/>
            </clipPath>
            <clipPath clipPathUnits="userSpaceOnUse" id="clipPath10">
                <path d="M161 261 L161 277 L169 277 L169 261 Z"/>
            </clipPath>
        </defs>
        <g transform="translate(6,5)"
           style="stroke-linecap:butt; fill:rgb(165,165,165); text-rendering:optimizeLegibility; image-rendering:optimizeQuality; color-rendering:optimizeQuality; font-family:'Lucida Bright'; stroke-linejoin:round; stroke:rgb(165,165,165); color-interpolation:linearRGB;">
            <path d="M20.226 388 L20.226 1"
                  style="fill:none; clip-path:url(#clipPath1);"/>
            <path d="M78.6507 388 L78.6507 1"
                  style="fill:none; clip-path:url(#clipPath1);"/>
            <path d="M137.0753 388 L137.0753 1"
                  style="fill:none; clip-path:url(#clipPath1);"/>
            <path d="M195.5 388 L195.5 1"
                  style="fill:none; clip-path:url(#clipPath1);"/>
            <path d="M253.9247 388 L253.9247 1"
                  style="fill:none; clip-path:url(#clipPath1);"/>
            <path d="M312.3493 388 L312.3493 1"
                  style="fill:none; clip-path:url(#clipPath1);"/>
            <path d="M370.774 388 L370.774 1"
                  style="fill:none; clip-path:url(#clipPath1);"/>
            <path d="M8.5411 388 L8.5411 1"
                  style="fill:none; clip-path:url(#clipPath1); stroke:rgb(233,233,233);"/>
            <path d="M31.9109 388 L31.9109 1"
                  style="fill:none; clip-path:url(#clipPath1); stroke:rgb(233,233,233);"/>
            <path d="M43.5959 388 L43.5959 1"
                  style="fill:none; clip-path:url(#clipPath1); stroke:rgb(233,233,233);"/>
            <path d="M55.2808 388 L55.2808 1"
                  style="fill:none; clip-path:url(#clipPath1); stroke:rgb(233,233,233);"/>
            <path d="M66.9657 388 L66.9657 1"
                  style="fill:none; clip-path:url(#clipPath1); stroke:rgb(233,233,233);"/>
            <path d="M90.3356 388 L90.3356 1"
                  style="fill:none; clip-path:url(#clipPath1); stroke:rgb(233,233,233);"/>
            <path d="M102.0205 388 L102.0205 1"
                  style="fill:none; clip-path:url(#clipPath1); stroke:rgb(233,233,233);"/>
            <path d="M113.7055 388 L113.7055 1"
                  style="fill:none; clip-path:url(#clipPath1); stroke:rgb(233,233,233);"/>
            <path d="M125.3904 388 L125.3904 1"
                  style="fill:none; clip-path:url(#clipPath1); stroke:rgb(233,233,233);"/>
            <path d="M148.7603 388 L148.7603 1"
                  style="fill:none; clip-path:url(#clipPath1); stroke:rgb(233,233,233);"/>
            <path d="M160.4452 388 L160.4452 1"
                  style="fill:none; clip-path:url(#clipPath1); stroke:rgb(233,233,233);"/>
            <path d="M172.1301 388 L172.1301 1"
                  style="fill:none; clip-path:url(#clipPath1); stroke:rgb(233,233,233);"/>
            <path d="M183.8151 388 L183.8151 1"
                  style="fill:none; clip-path:url(#clipPath1); stroke:rgb(233,233,233);"/>
            <path d="M207.1849 388 L207.1849 1"
                  style="fill:none; clip-path:url(#clipPath1); stroke:rgb(233,233,233);"/>
            <path d="M218.8699 388 L218.8699 1"
                  style="fill:none; clip-path:url(#clipPath1); stroke:rgb(233,233,233);"/>
            <path d="M230.5548 388 L230.5548 1"
                  style="fill:none; clip-path:url(#clipPath1); stroke:rgb(233,233,233);"/>
            <path d="M242.2397 388 L242.2397 1"
                  style="fill:none; clip-path:url(#clipPath1); stroke:rgb(233,233,233);"/>
            <path d="M265.6096 388 L265.6096 1"
                  style="fill:none; clip-path:url(#clipPath1); stroke:rgb(233,233,233);"/>
            <path d="M277.2945 388 L277.2945 1"
                  style="fill:none; clip-path:url(#clipPath1); stroke:rgb(233,233,233);"/>
            <path d="M288.9795 388 L288.9795 1"
                  style="fill:none; clip-path:url(#clipPath1); stroke:rgb(233,233,233);"/>
            <path d="M300.6644 388 L300.6644 1"
                  style="fill:none; clip-path:url(#clipPath1); stroke:rgb(233,233,233);"/>
            <path d="M324.0343 388 L324.0343 1"
                  style="fill:none; clip-path:url(#clipPath1); stroke:rgb(233,233,233);"/>
            <path d="M335.7192 388 L335.7192 1"
                  style="fill:none; clip-path:url(#clipPath1); stroke:rgb(233,233,233);"/>
            <path d="M347.4041 388 L347.4041 1"
                  style="fill:none; clip-path:url(#clipPath1); stroke:rgb(233,233,233);"/>
            <path d="M359.0891 388 L359.0891 1"
                  style="fill:none; clip-path:url(#clipPath1); stroke:rgb(233,233,233);"/>
            <path d="M382.4589 388 L382.4589 1"
                  style="fill:none; clip-path:url(#clipPath1); stroke:rgb(233,233,233);"/>
        </g>
        <g transform="translate(6,5)"
           style="stroke-linecap:butt; fill:rgb(165,165,165); text-rendering:optimizeLegibility; image-rendering:optimizeQuality; color-rendering:optimizeQuality; font-family:'Lucida Bright'; stroke-linejoin:round; stroke:rgb(165,165,165); color-interpolation:linearRGB;">
            <path d="M2 332.5554 L389 332.5554"
                  style="fill:none; clip-path:url(#clipPath1);"/>
            <path d="M2 263.5277 L389 263.5277"
                  style="fill:none; clip-path:url(#clipPath1);"/>
            <path d="M2 194.5 L389 194.5"
                  style="fill:none; clip-path:url(#clipPath1);"/>
            <path d="M2 125.4723 L389 125.4723"
                  style="fill:none; clip-path:url(#clipPath1);"/>
            <path d="M2 56.4446 L389 56.4446"
                  style="fill:none; clip-path:url(#clipPath1);"/>
            <path d="M2 387.7775 L389 387.7775"
                  style="fill:none; clip-path:url(#clipPath1); stroke:rgb(233,233,233);"/>
            <path d="M2 373.972 L389 373.972"
                  style="fill:none; clip-path:url(#clipPath1); stroke:rgb(233,233,233);"/>
            <path d="M2 360.1664 L389 360.1664"
                  style="fill:none; clip-path:url(#clipPath1); stroke:rgb(233,233,233);"/>
            <path d="M2 346.3609 L389 346.3609"
                  style="fill:none; clip-path:url(#clipPath1); stroke:rgb(233,233,233);"/>
            <path d="M2 318.7498 L389 318.7498"
                  style="fill:none; clip-path:url(#clipPath1); stroke:rgb(233,233,233);"/>
            <path d="M2 304.9443 L389 304.9443"
                  style="fill:none; clip-path:url(#clipPath1); stroke:rgb(233,233,233);"/>
            <path d="M2 291.1387 L389 291.1387"
                  style="fill:none; clip-path:url(#clipPath1); stroke:rgb(233,233,233);"/>
            <path d="M2 277.3332 L389 277.3332"
                  style="fill:none; clip-path:url(#clipPath1); stroke:rgb(233,233,233);"/>
            <path d="M2 249.7221 L389 249.7221"
                  style="fill:none; clip-path:url(#clipPath1); stroke:rgb(233,233,233);"/>
            <path d="M2 235.9166 L389 235.9166"
                  style="fill:none; clip-path:url(#clipPath1); stroke:rgb(233,233,233);"/>
            <path d="M2 222.1111 L389 222.1111"
                  style="fill:none; clip-path:url(#clipPath1); stroke:rgb(233,233,233);"/>
            <path d="M2 208.3055 L389 208.3055"
                  style="fill:none; clip-path:url(#clipPath1); stroke:rgb(233,233,233);"/>
            <path d="M2 180.6945 L389 180.6945"
                  style="fill:none; clip-path:url(#clipPath1); stroke:rgb(233,233,233);"/>
            <path d="M2 166.8889 L389 166.8889"
                  style="fill:none; clip-path:url(#clipPath1); stroke:rgb(233,233,233);"/>
            <path d="M2 153.0834 L389 153.0834"
                  style="fill:none; clip-path:url(#clipPath1); stroke:rgb(233,233,233);"/>
            <path d="M2 139.2779 L389 139.2779"
                  style="fill:none; clip-path:url(#clipPath1); stroke:rgb(233,233,233);"/>
            <path d="M2 111.6668 L389 111.6668"
                  style="fill:none; clip-path:url(#clipPath1); stroke:rgb(233,233,233);"/>
            <path d="M2 97.8613 L389 97.8613"
                  style="fill:none; clip-path:url(#clipPath1); stroke:rgb(233,233,233);"/>
            <path d="M2 84.0557 L389 84.0557"
                  style="fill:none; clip-path:url(#clipPath1); stroke:rgb(233,233,233);"/>
            <path d="M2 70.2502 L389 70.2502"
                  style="fill:none; clip-path:url(#clipPath1); stroke:rgb(233,233,233);"/>
            <path d="M2 42.6391 L389 42.6391"
                  style="fill:none; clip-path:url(#clipPath1); stroke:rgb(233,233,233);"/>
            <path d="M2 28.8336 L389 28.8336"
                  style="fill:none; clip-path:url(#clipPath1); stroke:rgb(233,233,233);"/>
            <path d="M2 15.028 L389 15.028"
                  style="fill:none; clip-path:url(#clipPath1); stroke:rgb(233,233,233);"/>
            <path d="M2 1.2225 L389 1.2225"
                  style="fill:none; clip-path:url(#clipPath1); stroke:rgb(233,233,233);"/>
        </g>
        <g transform="translate(6,5)"
           style="stroke-linecap:butt; fill:blue; text-rendering:optimizeLegibility; image-rendering:optimizeQuality; color-rendering:optimizeQuality; font-family:'Lucida Bright'; stroke-linejoin:round; stroke:blue; color-interpolation:linearRGB; stroke-width:1.5;">
            <path d="M32.7539 216.2284 L32.9294 218.0164 L32.9557 218.2548 L33.2348 220.7831 L33.3163 221.4476 L33.5742 223.5497 L33.7298 224.7027 L33.9475 226.3164 L34.1988 228.0234 L34.3548 229.083 L34.7264 231.4134 L34.7959 231.8496 L35.0956 233.5946 L35.2736 234.6163 L35.324 234.8862 L35.7902 237.3829 L36.0039 238.4561 L36.3412 240.1496 L36.7564 242.1117 L36.9266 242.9162 L37.4373 245.1956 L37.5481 245.6828 L37.5919 245.8656 L38.2121 248.4495 L38.5419 249.7545 L38.9111 251.2161 L39.584 253.7524 L39.6451 253.9828 L39.7789 254.4644 L40.4236 256.7494 L40.7684 257.9185 L41.2397 259.5161 L42.0743 262.228 L42.0912 262.2827 L42.1206 262.3745 L42.9914 265.0493 L43.5719 266.7639 L43.928 267.816 L44.4623 269.3355 L44.9076 270.5826 L45.2539 271.5179 L45.9321 273.3492 L46.804 275.6227 L46.9961 276.1159 L47.1708 276.5493 L48.1112 278.8825 L49.1456 281.3662 L49.2654 281.6492 L49.3931 281.9415 L50.474 284.4158 L51.4873 286.6652 L51.7242 287.1824 L52.0224 287.8147 L53.0293 289.9491 L53.829 291.5956 L54.382 292.7157 L55.2115 294.3492 L55.787 295.4824 L56.1706 296.2174 L57.249 298.249 L58.5123 300.5664 L58.7614 301.0157 L59.2728 301.9141 L60.336 303.7823 L60.854 304.6697 L61.9702 306.549 L63.1956 308.5618 L63.6627 309.3156 L65.064 311.523 L65.419 312.0822 L65.5373 312.2643 L67.2476 314.8488 L67.879 315.7813 L69.1439 317.6155 L70.2206 319.1421 L71.1118 320.3821 L72.5623 322.3567 L73.1554 323.1488 L74.904 325.4345 L75.2791 325.9154 L77.2457 328.3841 L77.4878 328.6821 L79.5873 331.2132 L79.7866 331.4487 L81.929 333.9293 L82.1812 334.2153 L84.2707 336.5388 L84.6777 336.982 L86.6123 339.0479 L87.2828 339.7486 L88.954 341.4623 L90.0036 342.5153 L91.2957 343.7874 L92.8481 345.2819 L93.6374 346.0279 L95.8249 348.0485 L95.979 348.1884 L96.4523 348.6078 L98.3207 350.2633 L98.9587 350.8152 L100.6624 352.263 L102.253 353.5818 L103.004 354.1938 L104.5853 355.45 L105.3457 356.0541 L105.7259 356.3484 L107.6874 357.841 L109.4069 359.1151 L110.029 359.5684 L110.9881 360.2482 L112.3707 361.2283 L113.3188 361.8817 L114.7124 362.8265 L116.5189 364.0161 L117.0541 364.3685 L117.4919 364.6484 L119.3957 365.8456 L121.4899 367.1227 L121.7374 367.2736 L121.9769 367.415 L124.0791 368.6371 L126.0539 369.7482 L126.4207 369.9546 L126.8382 370.1817 L128.7624 371.2118 L130.3124 372.013 L131.1041 372.4222 L132.1596 372.9483 L133.4457 373.5795 L134.3362 374.0003 L135.7874 374.6862 L138.0514 375.7149 L138.1291 375.7497 L138.1754 375.7696 L140.4708 376.7558 L141.8229 377.3125 L142.8124 377.7199 L144.7464 378.4816 L145.1541 378.6397 L145.349 378.7119 L147.4958 379.5069 L148.7328 379.9432 L149.8374 380.3327 L152.0244 381.0655 L152.1791 381.1173 L152.5915 381.2482 L154.5208 381.8516 L155.2017 382.0527 L156.8624 382.5432 L158.2958 382.9417 L159.2041 383.1942 L161.3174 383.745 L161.5458 383.8045 L162.4106 384.0149 L163.8875 384.3689 L164.2567 384.4511 L166.2291 384.8902 L167.1259 385.0744 L168.5708 385.3713 L169.9366 385.6286 L170.9125 385.8124 L172.6917 386.117 L173.2541 386.2133 L175.394 386.5431 L175.5958 386.5742 L177.1092 386.7815 L177.9375 386.8933 L178.0426 386.9058 L180.2791 387.17 L180.6388 387.2064 L182.6208 387.4071 L183.1911 387.4553 L184.9625 387.6048 L185.7015 387.6547 L187.3042 387.7628 L188.172 387.8068 L189.6458 387.8814 L190.6042 387.9138 L191.9875 387.9605 L192.9998 387.9776 L194.3292 388 L195.3605 388 L196.6708 388 L197.6877 387.9828 L199.0125 387.9605 L199.9827 387.9277 L201.3542 387.8814 L202.2469 387.8362 L203.6958 387.7628 L204.4816 387.7098 L206.0375 387.6048 L206.6879 387.5499 L208.3792 387.4071 L208.8669 387.3578 L210.7209 387.17 L211.0198 387.1347 L213.0625 386.8933 L213.1475 386.8819 L213.8908 386.7815 L215.247 386.5957 L215.4042 386.5742 L217.3204 386.2789 L217.7459 386.2133 L219.3711 385.935 L220.0875 385.8124 L221.3997 385.5652 L222.4292 385.3713 L223.4072 385.1703 L224.7709 384.8902 L225.3943 384.7514 L227.1125 384.3689 L227.3617 384.3092 L228.5894 384.0149 L229.3066 383.8404 L229.4542 383.8045 L231.2268 383.3425 L231.7959 383.1942 L233.1292 382.8235 L234.1376 382.5432 L235.0144 382.2842 L236.4792 381.8516 L236.883 381.7253 L238.4085 381.2482 L238.7336 381.145 L238.8209 381.1173 L240.5589 380.535 L241.1626 380.3327 L242.3692 379.9072 L243.5042 379.5069 L244.1649 379.2622 L245.8459 378.6397 L245.9467 378.6006 L246.2536 378.4816 L247.7041 377.9103 L248.1876 377.7199 L249.446 377.2018 L250.5293 376.7558 L251.1753 376.4782 L252.8709 375.7497 L252.8923 375.7402 L252.9486 375.7149 L254.5837 374.9719 L255.2126 374.6862 L256.2632 374.1896 L257.5543 373.5795 L257.9317 373.3943 L258.8404 372.9483 L259.5828 372.5783 L259.8959 372.4222 L261.2151 371.7403 L262.2376 371.2118 L262.8376 370.8906 L264.1618 370.1817 L264.4477 370.0262 L264.5793 369.9546 L266.0354 369.1354 L266.9209 368.6371 L267.6142 368.2341 L269.0231 367.415 L269.1828 367.3207 L269.2626 367.2736 L270.7281 366.3799 L271.6043 365.8456 L272.2656 365.4297 L273.5081 364.6484 L273.7922 364.4668 L273.946 364.3685 L275.2975 363.4785 L276.2876 362.8265 L276.7957 362.482 L277.6812 361.8817 L278.28 361.4691 L278.6293 361.2283 L279.7472 360.4359 L280.9709 359.5684 L281.2083 359.3955 L281.5931 359.1151 L282.6499 358.3321 L283.3126 357.841 L284.081 357.2563 L285.2741 356.3484 L285.5038 356.1706 L285.6543 356.0541 L286.9055 355.0601 L287.996 354.1938 L288.3025 353.944 L288.747 353.5818 L289.6817 352.8069 L290.3376 352.263 L291.0504 351.6573 L292.0413 350.8152 L292.4096 350.4966 L292.6793 350.2633 L293.7505 349.3141 L295.021 348.1884 L295.0879 348.1276 L295.1751 348.0485 L296.4028 346.9145 L297.3626 346.0279 L297.7134 345.6963 L298.1519 345.2819 L299.0073 344.4584 L299.7043 343.7874 L300.2916 343.2091 L300.9964 342.5153 L301.564 341.9458 L302.046 341.4623 L302.8225 340.6661 L303.7172 339.7486 L304.073 339.3768 L304.3876 339.0479 L305.3061 338.0671 L306.3223 336.982 L306.5341 336.7513 L306.7293 336.5388 L307.7424 335.4123 L308.8188 334.2153 L308.9474 334.0694 L309.071 333.9293 L310.1314 332.7015 L311.2134 331.4487 L311.313 331.331 L311.4127 331.2132 L312.4731 329.9349 L313.5122 328.6821 L313.6308 328.5361 L313.7543 328.3841 L314.7674 327.1123 L315.7209 325.9154 L315.9008 325.6848 L316.096 325.4345 L317.0145 324.2339 L317.8446 323.1488 L318.123 322.777 L318.4377 322.3567 L319.2142 321.2996 L319.8882 320.3821 L320.2974 319.8127 L320.7794 319.1421 L321.3666 318.3094 L321.8561 317.6155 L322.424 316.792 L323.121 315.7813 L323.4718 315.2633 L323.7524 314.8488 L324.5028 313.7148 L325.4627 312.2643 L325.5296 312.1613 L325.581 312.0822 L326.5339 310.5812 L327.3373 309.3156 L327.5347 308.997 L327.8044 308.5618 L328.5171 307.3911 L329.0298 306.549 L329.4901 305.774 L330.146 304.6697 L330.4526 304.1445 L330.664 303.7823 L331.3972 302.494 L332.2386 301.0157 L332.3372 300.8378 L332.4877 300.5664 L333.2561 299.1569 L333.751 298.249 L334.1666 297.466 L334.8294 296.2174 L335.0667 295.7627 L335.213 295.4824 L335.9473 294.0365 L336.618 292.7157 L336.8217 292.3031 L337.1711 291.5956 L337.6791 290.5494 L337.9707 289.9491 L338.5225 288.7792 L339.2758 287.1824 L339.359 287.0009 L339.5127 286.6652 L340.174 285.1971 L340.526 284.4158 L340.9782 283.3807 L341.7346 281.6492 L341.7745 281.5549 L341.8544 281.3662 L342.5477 279.7016 L342.8888 278.8825 L343.3105 277.8362 L344.0039 276.1159 L344.0645 275.9604 L344.196 275.6227 L344.7961 274.0582 L345.0679 273.3492 L345.5153 272.1412 L346.0924 270.5826 L346.2245 270.2126 L346.5377 269.3355 L346.9152 268.2619 L347.072 267.816 L347.5884 266.2906 L348.0086 265.0493 L348.2505 264.3063 L348.8794 262.3745 L348.9008 262.3079 L348.9088 262.2827 L349.5254 260.2793 L349.7603 259.5161 L350.1378 258.2362 L350.5764 256.7494 L350.7375 256.1782 L351.2211 254.4644 L351.3218 254.1018 L351.3549 253.9828 L351.8818 251.9967 L352.0889 251.2161 L352.4277 249.8751 L352.7879 248.4495 L352.9591 247.7363 L353.4519 245.6828 L353.4754 245.5797 L353.5627 245.1956 L353.9665 243.3933 L354.0734 242.9162 L354.4396 241.1856 L354.6588 240.1496 L354.8961 238.9583 L355.2098 237.3829 L355.3353 236.7106 L355.7263 234.6163 L355.7567 234.4418 L355.9044 233.5946 L356.1535 232.144 L356.2041 231.8496 L356.5278 229.8195 L356.6452 229.083 L356.8824 227.4718 L357.0525 226.3164 L357.2166 225.1001 L357.4258 223.5497 L357.5296 222.7033 L357.7652 220.7831 L357.8206 220.2805 L358.0706 218.0164 L358.0888 217.8307 L358.2461 216.2284 L358.331 215.3502 L358.3407 215.2498 L358.545 212.8363 L358.5749 212.4832 L358.7338 210.2928 L358.7756 209.7165 L358.8964 207.7183 L358.9429 206.9499 L359.0318 205.1116 L359.0767 204.1832 L359.1388 202.4713 L359.1771 201.4166 L359.2162 199.7962 L359.244 198.65 L359.2629 197.0847 L359.2774 195.8833 L359.2774 194.3352 L359.2774 193.1167 L359.2584 191.5461 L359.244 190.35 L359.2044 188.7157 L359.1771 187.5834 L359.1139 185.8421 L359.0767 184.8168 L358.9851 182.9233 L358.9429 182.0501 L358.8163 179.9572 L358.7756 179.2835 L358.6057 176.9418 L358.5749 176.5168 L358.3513 173.8745 L358.3407 173.7502 L358.2461 172.7716 L358.0706 170.9836 L358.0443 170.7452 L357.7652 168.2169 L357.6837 167.5524 L357.4258 165.4503 L357.2702 164.2973 L357.0525 162.6836 L356.8012 160.9766 L356.6452 159.917 L356.2736 157.5866 L356.2041 157.1504 L355.9044 155.4054 L355.7263 154.3837 L355.676 154.1138 L355.2098 151.6171 L354.9961 150.5439 L354.6588 148.8504 L354.2437 146.8883 L354.0734 146.0838 L353.5627 143.8044 L353.4519 143.3172 L353.4081 143.1344 L352.7879 140.5505 L352.4581 139.2455 L352.0889 137.7839 L351.416 135.2476 L351.3549 135.0172 L351.2211 134.5356 L350.5764 132.2506 L350.2315 131.0815 L349.7603 129.4839 L348.9257 126.772 L348.9088 126.7173 L348.8794 126.6255 L348.0086 123.9507 L347.4282 122.2361 L347.072 121.1841 L346.5377 119.6645 L346.0924 118.4174 L345.7461 117.4821 L345.0679 115.6508 L344.196 113.3773 L344.0039 112.8841 L343.8292 112.4507 L342.8888 110.1175 L341.8544 107.6338 L341.7346 107.3508 L341.6069 107.0585 L340.526 104.5842 L339.5127 102.3348 L339.2758 101.8175 L338.9776 101.1853 L337.9707 99.0509 L337.1711 97.4044 L336.618 96.2843 L335.7885 94.6508 L335.213 93.5176 L334.8294 92.7826 L333.751 90.751 L332.4877 88.4336 L332.2386 87.9843 L331.7273 87.0859 L330.664 85.2177 L330.146 84.3303 L329.0298 82.4511 L327.8044 80.4382 L327.3373 79.6844 L325.936 77.477 L325.581 76.9178 L325.4627 76.7357 L323.7524 74.1512 L323.121 73.2187 L321.8561 71.3845 L320.7794 69.8579 L319.8882 68.6179 L318.4377 66.6433 L317.8446 65.8512 L316.096 63.5655 L315.7209 63.0846 L313.7543 60.6159 L313.5122 60.3179 L311.4127 57.7868 L311.2134 57.5513 L309.071 55.0707 L308.8188 54.7847 L306.7293 52.4612 L306.3223 52.018 L304.3876 49.9521 L303.7172 49.2514 L302.046 47.5377 L300.9964 46.4847 L299.7043 45.2126 L298.1519 43.7181 L297.3626 42.9721 L295.1751 40.9515 L295.021 40.8116 L294.5477 40.3922 L292.6793 38.7367 L292.0413 38.1848 L290.3376 36.737 L288.747 35.4182 L287.996 34.8062 L286.4147 33.55 L285.6543 32.9459 L285.2741 32.6516 L283.3126 31.159 L281.5931 29.8849 L280.9709 29.4316 L280.0119 28.7518 L278.6293 27.7716 L277.6812 27.1183 L276.2876 26.1735 L274.4811 24.9839 L273.946 24.6315 L273.5081 24.3516 L271.6043 23.1544 L269.5101 21.8773 L269.2626 21.7264 L269.0231 21.585 L266.9209 20.3628 L264.9461 19.2518 L264.5793 19.0454 L264.1618 18.8183 L262.2376 17.7882 L260.6875 16.987 L259.8959 16.5778 L258.8404 16.0517 L257.5543 15.4205 L256.6638 14.9997 L255.2126 14.3138 L252.9486 13.2851 L252.8709 13.2503 L252.8246 13.2304 L250.5293 12.2442 L249.1771 11.6875 L248.1876 11.2801 L246.2536 10.5184 L245.8459 10.3603 L245.651 10.2881 L243.5042 9.4931 L242.2671 9.0568 L241.1626 8.6673 L238.9755 7.9345 L238.8209 7.8827 L238.4085 7.7518 L236.4792 7.1484 L235.7983 6.9473 L234.1376 6.4568 L232.7042 6.0583 L231.7959 5.8058 L229.6826 5.255 L229.4542 5.1955 L228.5894 4.9851 L227.1125 4.6311 L226.7433 4.5489 L224.7709 4.1098 L223.8741 3.9256 L222.4292 3.6287 L221.0634 3.3714 L220.0875 3.1876 L218.3083 2.883 L217.7459 2.7867 L215.606 2.4569 L215.4042 2.4258 L213.8908 2.2185 L213.0625 2.1067 L212.9573 2.0942 L210.7209 1.83 L210.3612 1.7936 L208.3792 1.5928 L207.8089 1.5447 L206.0375 1.3952 L205.2985 1.3453 L203.6958 1.2372 L202.828 1.1932 L201.3542 1.1186 L200.3958 1.0862 L199.0125 1.0395 L198.0002 1.0224 L196.6708 1 L195.6395 1 L194.3292 1 L193.3124 1.0172 L191.9875 1.0395 L191.0173 1.0723 L189.6458 1.1186 L188.7531 1.1638 L187.3042 1.2372 L186.5184 1.2902 L184.9625 1.3952 L184.3121 1.4501 L182.6208 1.5928 L182.1331 1.6422 L180.2791 1.83 L179.9802 1.8653 L177.9375 2.1067 L177.8525 2.1181 L177.1092 2.2185 L175.753 2.4043 L175.5958 2.4258 L173.6796 2.7211 L173.2541 2.7867 L171.6289 3.065 L170.9125 3.1876 L169.6003 3.4348 L168.5708 3.6287 L167.5928 3.8297 L166.2291 4.1098 L165.6057 4.2486 L163.8875 4.6311 L163.6383 4.6908 L162.4106 4.9851 L161.6934 5.1596 L161.5458 5.1955 L159.7732 5.6575 L159.2041 5.8058 L157.8708 6.1765 L156.8624 6.4568 L155.9856 6.7158 L154.5208 7.1484 L154.117 7.2747 L152.5915 7.7518 L152.2664 7.8549 L152.1791 7.8827 L150.4411 8.465 L149.8374 8.6673 L148.6308 9.0928 L147.4958 9.4931 L146.8351 9.7378 L145.1541 10.3603 L145.0533 10.3994 L144.7464 10.5184 L143.2959 11.0897 L142.8124 11.2801 L141.554 11.7982 L140.4708 12.2442 L139.8247 12.5218 L138.1291 13.2503 L138.1077 13.2598 L138.0514 13.2851 L136.4163 14.028 L135.7874 14.3138 L134.7368 14.8104 L133.4457 15.4205 L133.0683 15.6057 L132.1596 16.0517 L131.4173 16.4217 L131.1041 16.5778 L129.7849 17.2597 L128.7624 17.7882 L128.1624 18.1094 L126.8382 18.8183 L126.5523 18.9738 L126.4207 19.0454 L124.9646 19.8646 L124.0791 20.3628 L123.3858 20.7659 L121.9769 21.585 L121.8172 21.6793 L121.7374 21.7264 L120.2719 22.6201 L119.3957 23.1544 L118.7344 23.5703 L117.4919 24.3516 L117.2078 24.5332 L117.0541 24.6315 L115.7025 25.5215 L114.7124 26.1735 L114.2043 26.5179 L113.3188 27.1183 L112.72 27.5309 L112.3707 27.7716 L111.2528 28.5641 L110.029 29.4316 L109.7917 29.6045 L109.4069 29.8849 L108.3501 30.6679 L107.6874 31.159 L106.919 31.7437 L105.7259 32.6516 L105.4962 32.8294 L105.3457 32.9459 L104.0945 33.9399 L103.004 34.8062 L102.6975 35.056 L102.253 35.4182 L101.3183 36.1931 L100.6624 36.737 L99.9496 37.3427 L98.9587 38.1848 L98.5904 38.5034 L98.3207 38.7367 L97.2495 39.6859 L95.979 40.8116 L95.9121 40.8724 L95.8249 40.9515 L94.5972 42.0855 L93.6374 42.9721 L93.2866 43.3037 L92.8481 43.7181 L91.9927 44.5416 L91.2957 45.2126 L90.7084 45.7909 L90.0036 46.4847 L89.436 47.0542 L88.954 47.5377 L88.1775 48.3339 L87.2828 49.2514 L86.927 49.6232 L86.6123 49.9521 L85.6939 50.9329 L84.6777 52.018 L84.4659 52.2487 L84.2707 52.4612 L83.2576 53.5877 L82.1812 54.7847 L82.0525 54.9306 L81.929 55.0707 L80.8686 56.2985 L79.7866 57.5513 L79.687 57.669 L79.5873 57.7868 L78.527 59.0652 L77.4878 60.3179 L77.3692 60.4639 L77.2457 60.6159 L76.2326 61.8877 L75.2791 63.0846 L75.0992 63.3152 L74.904 63.5655 L73.9855 64.7661 L73.1554 65.8512 L72.877 66.2231 L72.5623 66.6433 L71.7858 67.7004 L71.1118 68.6179 L70.7026 69.1873 L70.2206 69.8579 L69.6333 70.6906 L69.1439 71.3845 L68.576 72.208 L67.879 73.2187 L67.5282 73.7367 L67.2476 74.1512 L66.4972 75.2852 L65.5373 76.7357 L65.4704 76.8387 L65.419 76.9178 L64.4661 78.4189 L63.6627 79.6844 L63.4653 80.003 L63.1956 80.4382 L62.4829 81.6089 L61.9702 82.4511 L61.5099 83.226 L60.854 84.3303 L60.5474 84.8555 L60.336 85.2177 L59.6028 86.5061 L58.7614 87.9843 L58.6628 88.1622 L58.5123 88.4336 L57.7439 89.8431 L57.249 90.751 L56.8334 91.534 L56.1706 92.7826 L55.9333 93.2373 L55.787 93.5176 L55.0527 94.9635 L54.382 96.2843 L54.1782 96.697 L53.829 97.4044 L53.3209 98.4506 L53.0293 99.0509 L52.4775 100.2208 L51.7242 101.8175 L51.641 101.9991 L51.4873 102.3348 L50.826 103.8029 L50.474 104.5842 L50.0218 105.6193 L49.2654 107.3508 L49.2254 107.4452 L49.1456 107.6338 L48.4523 109.2984 L48.1112 110.1175 L47.6895 111.1637 L46.9961 112.8841 L46.9356 113.0396 L46.804 113.3773 L46.2039 114.9418 L45.9321 115.6508 L45.4847 116.8587 L44.9076 118.4174 L44.7755 118.7874 L44.4623 119.6645 L44.0848 120.7381 L43.928 121.1841 L43.4116 122.7094 L42.9914 123.9507 L42.7495 124.6937 L42.1206 126.6255 L42.0993 126.6921 L42.0912 126.7173 L41.4746 128.7207 L41.2397 129.4839 L40.8622 130.7638 L40.4236 132.2506 L40.2625 132.8219 L39.7789 134.5356 L39.6782 134.8982 L39.6451 135.0172 L39.1182 137.0033 L38.9111 137.7839 L38.5723 139.1249 L38.2121 140.5505 L38.0409 141.2637 L37.5481 143.3172 L37.5246 143.4203 L37.4373 143.8044 L37.0335 145.6067 L36.9266 146.0838 L36.5604 147.8144 L36.3412 148.8504 L36.1039 150.0417 L35.7902 151.6171 L35.6647 152.2894 L35.2736 154.3837 L35.2432 154.5582 L35.0956 155.4054 L34.8465 156.856 L34.7959 157.1504 L34.4722 159.1805 L34.3548 159.917 L34.1176 161.5282 L33.9475 162.6836 L33.7834 163.8999 L33.5742 165.4503 L33.4704 166.2967 L33.2348 168.2169 L33.1793 168.7195 L32.9294 170.9836 L32.9112 171.1693 L32.7539 172.7716 L32.669 173.6498 L32.6593 173.7502 L32.455 176.1637 L32.4251 176.5168 L32.2662 178.7072 L32.2244 179.2835 L32.1036 181.2817 L32.0571 182.0501 L31.9682 183.8884 L31.9233 184.8168 L31.8612 186.5287 L31.823 187.5834 L31.7838 189.2038 L31.7561 190.35 L31.7371 191.9153 L31.7226 193.1167 L31.7226 194.6648 L31.7226 195.8833 L31.7416 197.4539 L31.7561 198.65 L31.7956 200.2843 L31.823 201.4166 L31.8861 203.1579 L31.9233 204.1832 L32.0149 206.0767 L32.0571 206.9499 L32.1837 209.0428 L32.2244 209.7165 L32.3943 212.0582 L32.4251 212.4832 L32.6488 215.1255 L32.6593 215.2498 L32.7539 216.2284"
                  style="fill:none; clip-path:url(#clipPath2);"/>
        </g>
        <g transform="translate(6,5)"
           style="stroke-linecap:butt; fill:rgb(120,0,14); text-rendering:optimizeLegibility; image-rendering:optimizeQuality; color-rendering:optimizeQuality; font-family:'Lucida Bright'; stroke-linejoin:round; stroke:rgb(120,0,14); color-interpolation:linearRGB; stroke-width:1.5;">
            <path d="M388.6878 331.6331 L389 331.8176 L389 331.4487 L388.6878 331.172 L387.7511 330.342 L388.3755 331.4487 L388.6878 331.6331"
                  style="fill:none; clip-path:url(#clipPath2);"/>
            <path d="M2.3122 57.828 L3.2489 58.658 L2.6244 57.5513 L2.3122 57.3669 L2 57.1824 L2 57.5513 L2.3122 57.828"
                  style="fill:none; clip-path:url(#clipPath2);"/>
            <path d="M6.9956 60.8713 L8.2445 63.0846 L9.3372 64.0529 L11.3667 65.8512 L11.6789 66.1279 L12.6156 66.9579 L14.0206 68.2029 L14.4889 68.6179 L16.3622 70.2779 L17.6111 71.3845 L18.7039 72.3528 L20.7334 74.1512 L21.0456 74.4278 L21.9823 75.2578 L23.3873 76.5028 L23.8556 76.9178 L25.7289 78.5778 L26.9778 79.6844 L28.0706 80.6527 L30.1 82.4511 L30.4123 82.7277 L31.3489 83.5577 L32.7539 84.8027 L33.2223 85.2177 L35.0956 86.8777 L36.3445 87.9843 L37.4373 88.9527 L39.4667 90.751 L39.7789 91.0276 L40.7156 91.8577 L42.1206 93.1026 L42.5889 93.5176 L44.4623 95.1776 L45.7112 96.2843 L46.804 97.2526 L48.8334 99.0509 L49.1456 99.3276 L50.0823 100.1576 L51.4873 101.4026 L51.9556 101.8175 L53.829 103.4775 L55.0779 104.5842 L56.1706 105.5525 L58.2001 107.3508 L58.5123 107.6275 L59.449 108.4575 L60.854 109.7025 L61.3223 110.1175 L63.1956 111.7775 L64.4445 112.8841 L65.5373 113.8524 L67.5668 115.6508 L67.879 115.9274 L68.8157 116.7574 L70.2206 118.0024 L70.689 118.4174 L72.5623 120.0774 L73.8112 121.1841 L74.904 122.1523 L76.9334 123.9507 L77.2457 124.2273 L78.1823 125.0573 L79.5873 126.3023 L80.0557 126.7173 L81.929 128.3773 L83.1779 129.4839 L84.2707 130.4523 L86.3001 132.2506 L86.6123 132.5273 L87.549 133.3573 L88.954 134.6022 L89.4223 135.0172 L91.2957 136.6772 L92.5446 137.7839 L93.6374 138.7522 L95.6668 140.5505 L95.979 140.8272 L96.9157 141.6572 L98.3207 142.9021 L98.789 143.3172 L100.6624 144.9771 L101.9113 146.0838 L103.004 147.0521 L105.0335 148.8504 L105.3457 149.1271 L106.2824 149.9571 L107.6874 151.2021 L108.1557 151.6171 L110.029 153.2771 L111.2779 154.3837 L112.3707 155.352 L114.4002 157.1504 L114.7124 157.427 L115.6491 158.257 L117.0541 159.502 L117.5224 159.917 L119.3957 161.577 L120.6446 162.6836 L121.7374 163.6519 L123.7668 165.4503 L124.0791 165.7269 L125.0157 166.5569 L126.4207 167.8019 L126.8891 168.2169 L128.7624 169.8769 L130.0113 170.9836 L131.1041 171.9519 L133.1335 173.7502 L133.4457 174.0269 L134.3824 174.8569 L135.7874 176.1018 L136.2558 176.5168 L138.1291 178.1768 L139.378 179.2835 L140.4708 180.2518 L142.5002 182.0501 L142.8124 182.3268 L143.7491 183.1568 L145.1541 184.4017 L145.6224 184.8168 L147.4958 186.4767 L148.7447 187.5834 L149.8374 188.5517 L151.8669 190.35 L152.1791 190.6267 L153.1158 191.4567 L154.5208 192.7017 L154.9891 193.1167 L156.8624 194.4447 L158.8919 195.8833 L159.2041 196.0678 L159.5163 196.2522 L161.5458 197.4511 L163.5752 198.65 L163.8875 198.8344 L164.1997 199.0188 L166.2291 200.2177 L168.2586 201.4166 L168.5708 201.601 L168.883 201.7855 L170.9125 202.9844 L172.9419 204.1832 L173.2541 204.3677 L173.5664 204.5521 L175.5958 205.751 L177.6253 206.9499 L177.9375 207.1343 L178.2497 207.3188 L180.2791 208.5176 L182.3086 209.7165 L182.6208 209.901 L182.933 210.0854 L184.9625 211.2843 L186.9919 212.4832 L187.3042 212.6676 L187.6164 212.8521 L189.6458 214.0509 L191.6753 215.2498 L191.9875 215.4342 L192.2997 215.6187 L194.3292 216.8176 L196.3586 218.0164 L196.6708 218.2009 L196.983 218.3853 L199.0125 219.5842 L201.042 220.7831 L201.3542 220.9675 L201.6664 221.152 L203.6958 222.3508 L205.7253 223.5497 L206.0375 223.7342 L206.3497 223.9186 L208.3792 225.1175 L210.4086 226.3164 L210.7209 226.5008 L211.0331 226.6852 L213.0625 227.8841 L215.092 229.083 L215.4042 229.2674 L215.7164 229.4519 L217.7459 230.6508 L219.7753 231.8496 L220.0875 232.0341 L220.3998 232.2185 L222.4292 233.4174 L224.4586 234.6163 L224.7709 234.8007 L225.0831 234.9852 L227.1125 236.1841 L229.142 237.3829 L229.4542 237.5674 L229.7664 237.7518 L231.7959 238.9507 L233.8253 240.1496 L234.1376 240.334 L234.4498 240.5184 L236.4792 241.7173 L238.5087 242.9162 L238.8209 243.1006 L239.1331 243.2851 L241.1626 244.484 L243.192 245.6828 L243.5042 245.8673 L243.8165 246.0517 L245.8459 247.2506 L247.8754 248.4495 L248.1876 248.6339 L248.4998 248.8184 L250.5293 250.0172 L252.5587 251.2161 L252.8709 251.4006 L253.1831 251.585 L255.2126 252.7839 L257.242 253.9828 L257.5543 254.1672 L257.8665 254.3517 L259.8959 255.5505 L261.9254 256.7494 L262.2376 256.9338 L262.5498 257.1183 L264.5793 258.3172 L266.6087 259.5161 L266.9209 259.7005 L267.2332 259.8849 L269.2626 261.0838 L271.2921 262.2827 L271.6043 262.4671 L271.9165 262.6516 L273.946 263.8505 L275.9754 265.0493 L276.2876 265.2338 L276.5999 265.4182 L278.6293 266.6171 L280.6588 267.816 L280.9709 268.0004 L281.2832 268.1848 L283.3126 269.3837 L285.3421 270.5826 L285.6543 270.7671 L285.9665 270.9515 L287.996 272.1504 L290.0254 273.3492 L290.3376 273.5337 L290.6499 273.7181 L292.6793 274.917 L294.7088 276.1159 L295.021 276.3004 L295.3332 276.4848 L297.3626 277.6837 L299.3921 278.8825 L299.7043 279.067 L300.0165 279.2514 L302.046 280.4503 L304.0754 281.6492 L304.3876 281.8336 L304.6999 282.0181 L306.7293 283.2169 L308.7588 284.4158 L309.071 284.6003 L309.3832 284.7847 L311.4127 285.9836 L313.4421 287.1824 L313.7543 287.3669 L314.0666 287.5513 L316.096 288.7502 L318.1255 289.9491 L318.4377 290.1335 L318.7499 290.318 L320.7794 291.5168 L322.8088 292.7157 L323.121 292.9002 L323.4332 293.0846 L325.4627 294.2835 L327.4921 295.4824 L327.8044 295.6668 L328.1166 295.8513 L330.146 297.0501 L332.1755 298.249 L332.4877 298.4335 L332.7999 298.6179 L334.8294 299.8168 L336.8588 301.0157 L337.1711 301.2001 L337.4832 301.3845 L339.5127 302.5834 L341.5421 303.7823 L341.8544 303.9667 L342.1666 304.1512 L344.196 305.35 L346.2255 306.549 L346.5377 306.7334 L346.8499 306.9178 L348.8794 308.1167 L350.9088 309.3156 L351.2211 309.5 L351.5333 309.6844 L353.5627 310.8833 L355.5922 312.0822 L355.9044 312.2667 L356.2166 312.4511 L358.2461 313.65 L360.2755 314.8488 L360.5877 315.0333 L360.9 315.2177 L362.9294 316.4166 L364.9589 317.6155 L365.2711 317.7999 L365.5833 317.9844 L367.6127 319.1833 L369.6422 320.3821 L369.9544 320.5666 L370.2666 320.751 L372.2961 321.9499 L374.3255 323.1488 L374.6378 323.3332 L374.95 323.5177 L376.9794 324.7165 L379.0089 325.9154 L379.3211 326.0999 L379.6333 326.2843 L381.6628 326.8837 L383.6922 328.6821 L384.0044 328.8665 L384.3167 329.0509 L384.9411 328.6821 L384.0044 328.1287 L382.7556 325.9154 L381.6628 324.9471 L379.6333 323.1488 L379.3211 322.8721 L378.3844 322.0421 L376.9794 320.7971 L376.5111 320.3821 L374.6378 318.7221 L373.3889 317.6155 L372.2961 316.6472 L370.2666 314.8488 L369.9544 314.5722 L369.0178 313.7422 L367.6127 312.4972 L367.1444 312.0822 L365.2711 310.4222 L364.0222 309.3156 L362.9294 308.3472 L360.9 306.549 L360.5877 306.2723 L359.6511 305.4423 L358.2461 304.1973 L357.7777 303.7823 L355.9044 302.1223 L354.6555 301.0157 L353.5627 300.0473 L351.5333 298.249 L351.2211 297.9724 L350.2844 297.1424 L348.8794 295.8974 L348.4111 295.4824 L346.5377 293.8224 L345.2888 292.7157 L344.196 291.7474 L342.1666 289.9491 L341.8544 289.6724 L340.9177 288.8424 L339.5127 287.5974 L339.0444 287.1824 L337.1711 285.5225 L335.9221 284.4158 L334.8294 283.4475 L332.7999 281.6492 L332.4877 281.3725 L331.551 280.5425 L330.146 279.2975 L329.6777 278.8825 L327.8044 277.2225 L326.5555 276.1159 L325.4627 275.1476 L323.4332 273.3492 L323.121 273.0726 L322.1844 272.2426 L320.7794 270.9976 L320.311 270.5826 L318.4377 268.9226 L317.1888 267.816 L316.096 266.8477 L314.0666 265.0493 L313.7543 264.7726 L312.8177 263.9427 L311.4127 262.6977 L310.9443 262.2827 L309.071 260.6227 L307.8221 259.5161 L306.7293 258.5477 L304.6999 256.7494 L304.3876 256.4727 L303.451 255.6427 L302.046 254.3978 L301.5776 253.9828 L299.7043 252.3228 L298.4554 251.2161 L297.3626 250.2478 L295.3332 248.4495 L295.021 248.1728 L294.0843 247.3428 L292.6793 246.0978 L292.211 245.6828 L290.3376 244.0229 L289.0887 242.9162 L287.996 241.9479 L285.9665 240.1496 L285.6543 239.8729 L284.7176 239.0429 L283.3126 237.7979 L282.8443 237.3829 L280.9709 235.7229 L279.722 234.6163 L278.6293 233.648 L276.5999 231.8496 L276.2876 231.573 L275.351 230.743 L273.946 229.498 L273.4776 229.083 L271.6043 227.423 L270.3554 226.3164 L269.2626 225.348 L267.2332 223.5497 L266.9209 223.2731 L265.9843 222.4431 L264.5793 221.1981 L264.1109 220.7831 L262.2376 219.1231 L260.9887 218.0164 L259.8959 217.0481 L257.8665 215.2498 L257.5543 214.9731 L256.6176 214.1432 L255.2126 212.8982 L254.7443 212.4832 L252.8709 210.8232 L251.622 209.7165 L250.5293 208.7482 L248.4998 206.9499 L248.1876 206.6732 L247.2509 205.8432 L245.8459 204.5982 L245.3776 204.1832 L243.5042 202.5233 L242.2554 201.4166 L241.1626 200.4483 L239.1331 198.65 L238.8209 198.3733 L237.8842 197.5433 L236.4792 196.2983 L236.0109 195.8833 L234.1376 194.5553 L232.1081 193.1167 L231.7959 192.9322 L231.4837 192.7478 L229.4542 191.5489 L227.4248 190.35 L227.1125 190.1656 L226.8003 189.9812 L224.7709 188.7823 L222.7414 187.5834 L222.4292 187.399 L222.117 187.2145 L220.0875 186.0156 L218.0581 184.8168 L217.7459 184.6323 L217.4336 184.4479 L215.4042 183.249 L213.3748 182.0501 L213.0625 181.8657 L212.7503 181.6812 L210.7209 180.4823 L208.6914 179.2835 L208.3792 179.099 L208.067 178.9146 L206.0375 177.7157 L204.0081 176.5168 L203.6958 176.3324 L203.3836 176.1479 L201.3542 174.9491 L199.3247 173.7502 L199.0125 173.5658 L198.7003 173.3813 L196.6708 172.1824 L194.6414 170.9836 L194.3292 170.7991 L194.0169 170.6147 L191.9875 169.4158 L189.9581 168.2169 L189.6458 168.0325 L189.3336 167.848 L187.3042 166.6492 L185.2747 165.4503 L184.9625 165.2658 L184.6503 165.0814 L182.6208 163.8825 L180.5914 162.6836 L180.2791 162.4992 L179.9669 162.3148 L177.9375 161.1159 L175.908 159.917 L175.5958 159.7325 L175.2836 159.5481 L173.2541 158.3492 L171.2247 157.1504 L170.9125 156.9659 L170.6002 156.7815 L168.5708 155.5826 L166.5414 154.3837 L166.2291 154.1993 L165.9169 154.0148 L163.8875 152.8159 L161.858 151.6171 L161.5458 151.4326 L161.2336 151.2482 L159.2041 150.0493 L157.1747 148.8504 L156.8624 148.666 L156.5502 148.4816 L154.5208 147.2827 L152.4913 146.0838 L152.1791 145.8994 L151.8669 145.7149 L149.8374 144.516 L147.808 143.3172 L147.4958 143.1327 L147.1835 142.9483 L145.1541 141.7494 L143.1246 140.5505 L142.8124 140.3661 L142.5002 140.1816 L140.4708 138.9827 L138.4413 137.7839 L138.1291 137.5994 L137.8169 137.415 L135.7874 136.2161 L133.758 135.0172 L133.4457 134.8328 L133.1335 134.6483 L131.1041 133.4495 L129.0746 132.2506 L128.7624 132.0661 L128.4502 131.8817 L126.4207 130.6828 L124.3913 129.4839 L124.0791 129.2995 L123.7668 129.1151 L121.7374 127.9162 L119.7079 126.7173 L119.3957 126.5329 L119.0835 126.3484 L117.0541 125.1496 L115.0246 123.9507 L114.7124 123.7662 L114.4002 123.5818 L112.3707 122.3829 L110.3413 121.1841 L110.029 120.9996 L109.7168 120.8152 L107.6874 119.6163 L105.6579 118.4174 L105.3457 118.2329 L105.0335 118.0485 L103.004 116.8496 L100.9746 115.6508 L100.6624 115.4663 L100.3501 115.2819 L98.3207 114.083 L96.2913 112.8841 L95.979 112.6997 L95.6668 112.5152 L93.6374 111.3163 L91.6079 110.1175 L91.2957 109.933 L90.9835 109.7486 L88.954 108.5497 L86.9246 107.3508 L86.6123 107.1664 L86.3001 106.9819 L84.2707 105.7831 L82.2412 104.5842 L81.929 104.3997 L81.6168 104.2153 L79.5873 103.0164 L77.5579 101.8175 L77.2457 101.6331 L76.9334 101.4487 L74.904 100.2498 L72.8745 99.0509 L72.5623 98.8665 L72.2501 98.682 L70.2206 97.4831 L68.1912 96.2843 L67.879 96.0998 L67.5668 95.9154 L65.5373 94.7165 L63.5079 93.5176 L63.1956 93.3332 L62.8834 93.1487 L60.854 91.9499 L58.8245 90.751 L58.5123 90.5666 L58.2001 90.3821 L56.1706 89.1832 L54.1412 87.9843 L53.829 87.7999 L53.5167 87.6155 L51.4873 86.4166 L49.4578 85.2177 L49.1456 85.0333 L48.8334 84.8488 L46.804 83.65 L44.7745 82.4511 L44.4623 82.2666 L44.1501 82.0822 L42.1206 80.8833 L40.0912 79.6844 L39.7789 79.5 L39.4667 79.3156 L37.4373 78.1167 L35.4078 76.9178 L35.0956 76.7333 L34.7834 76.5489 L32.7539 75.35 L30.7245 74.1512 L30.4123 73.9667 L30.1 73.7823 L28.0706 72.5834 L26.0411 71.3845 L25.7289 71.2001 L25.4167 71.0156 L23.3873 69.8167 L21.3578 68.6179 L21.0456 68.4334 L20.7334 68.249 L18.7039 67.0501 L16.6745 65.8512 L16.3622 65.6668 L16.05 65.4823 L14.0206 64.2834 L11.9911 63.0846 L11.6789 62.9001 L11.3667 62.7157 L9.3372 62.1163 L7.3078 60.3179 L6.9956 60.1335 L6.6833 59.949 L6.0589 60.3179 L6.9956 60.8713"
                  style="fill:none; clip-path:url(#clipPath2);"/>
        </g>
        <g transform="translate(6,5)"
           style="stroke-linecap:butt; text-rendering:optimizeLegibility; color-rendering:optimizeQuality; image-rendering:optimizeQuality; font-family:'Lucida Bright'; stroke-linejoin:round; color-interpolation:linearRGB;">
            <path d="M2 194.5 L389 194.5"
                  style="fill:none; clip-path:url(#clipPath1);"/>
        </g>
        <g transform="translate(6,5)"
           style="stroke-linecap:butt; text-rendering:optimizeLegibility; color-rendering:optimizeQuality; image-rendering:optimizeQuality; font-family:'Lucida Bright'; stroke-linejoin:round; color-interpolation:linearRGB;">
            <path d="M292.8906 228.9688 L292 226.9531 L291.625 226.2031 Q291.4375 225.7812 291.3047 225.6719 Q291.1719 225.5625 290.8281 225.5312 L290.3906 225.5 L290.25 225.5 L290.3281 225.0469 L292.7188 225.0469 L294.1562 228.1719 L294.5 227.9062 Q295.9219 226.7344 295.9219 225.9688 Q295.9219 225.5625 295.6094 225.0469 L297.0469 225.0469 Q297.125 225.3125 297.125 225.5 Q297.125 226.125 296.6797 226.6406 Q296.2344 227.1562 294.6875 228.3125 L294.3438 228.5781 L295.5469 231.1094 L295.9844 231.9219 Q296.2656 232.4844 296.7344 232.5156 L297.2031 232.5312 L297.3281 232.5469 L297.25 233 L294.8438 233 L293.125 229.375 L292.5 229.9375 Q291 231.2812 291 232.25 Q291 232.6406 291.25 233 L289.7031 233 Q289.6562 232.7969 289.6562 232.6875 Q289.6562 231.75 291.0312 230.5469 L292.1719 229.5938 L292.8906 228.9688 Z"
                  style="stroke:none; clip-path:url(#clipPath3);"/>
        </g>
        <g transform="translate(6,5)"
           style="text-rendering:optimizeLegibility; font-family:'Lucida Bright'; color-interpolation:linearRGB; color-rendering:optimizeQuality; image-rendering:optimizeQuality;">
            <path d="M20.226 194.5 L20.226 198.5"
                  style="fill:none; clip-path:url(#clipPath1);"/>
        </g>
        <g style="text-rendering:optimizeLegibility; font-family:'Lucida Bright'; color-interpolation:linearRGB; color-rendering:optimizeQuality; image-rendering:optimizeQuality;">
            <path d="M22.4531 215.8906 L12.5469 215.8906 L12.5469 215.1094 L22.4531 215.1094 L22.4531 215.8906 Z"
                  style="stroke:none; clip-path:url(#clipPath5);"/>
        </g>
        <g style="text-rendering:optimizeLegibility; font-family:'Lucida Bright'; color-interpolation:linearRGB; color-rendering:optimizeQuality; image-rendering:optimizeQuality;">
            <path d="M25.2812 209.0625 L25.2812 218.1094 L25.3281 218.8281 Q25.3594 219.2656 25.5859 219.3984 Q25.8125 219.5312 26.5156 219.5312 L27.375 219.5469 L27.375 220 L21.7656 220 L21.7656 219.5469 L22.625 219.5312 Q23.3125 219.5312 23.5391 219.3984 Q23.7656 219.2656 23.7969 218.8281 L23.8438 218.1094 L23.8438 211.375 L23.7969 210.6406 Q23.7969 210.125 23.5 210.125 Q23.2812 210.125 22.4844 210.2656 L21.7656 210.3906 L21.7656 209.9375 L25.2812 209.0625 ZM30.2041 220 L30.2041 218.1875 L32.0166 218.1875 L32.0166 220 L30.2041 220 ZM34.8218 220.0156 L34.8218 218.1875 L35.5405 218.1875 L35.5562 218.3594 L35.5718 218.9219 Q35.6187 219.8125 36.978 219.8125 Q37.9937 219.8125 38.5874 219.0234 Q39.1812 218.2344 39.1812 216.875 Q39.1812 215.3281 38.2593 214.6641 Q37.3374 214 35.2593 214 L34.9937 214 L34.9937 209.1562 L40.4624 209.1562 L40.4624 210.4219 L35.4468 210.4219 L35.4468 213.4531 L36.1187 213.4531 Q40.6968 213.4531 40.6968 216.9375 Q40.6968 218.5 39.6421 219.3828 Q38.5874 220.2656 36.728 220.2656 Q35.8062 220.2656 34.8218 220.0156 Z"
                  style="stroke:none; clip-path:url(#clipPath4);"/>
        </g>
        <g transform="translate(6,5)"
           style="text-rendering:optimizeLegibility; font-family:'Lucida Bright'; color-interpolation:linearRGB; color-rendering:optimizeQuality; image-rendering:optimizeQuality;">
            <path d="M78.6507 194.5 L78.6507 198.5"
                  style="fill:none; clip-path:url(#clipPath1);"/>
        </g>
        <g style="text-rendering:optimizeLegibility; font-family:'Lucida Bright'; color-interpolation:linearRGB; color-rendering:optimizeQuality; image-rendering:optimizeQuality;">
            <path d="M87.4531 215.8906 L77.5469 215.8906 L77.5469 215.1094 L87.4531 215.1094 L87.4531 215.8906 Z"
                  style="stroke:none; clip-path:url(#clipPath6);"/>
        </g>
        <g style="text-rendering:optimizeLegibility; font-family:'Lucida Bright'; color-interpolation:linearRGB; color-rendering:optimizeQuality; image-rendering:optimizeQuality;">
            <path d="M90.2812 209.0625 L90.2812 218.1094 L90.3281 218.8281 Q90.3594 219.2656 90.5859 219.3984 Q90.8125 219.5312 91.5156 219.5312 L92.375 219.5469 L92.375 220 L86.7656 220 L86.7656 219.5469 L87.625 219.5312 Q88.3125 219.5312 88.5391 219.3984 Q88.7656 219.2656 88.7969 218.8281 L88.8438 218.1094 L88.8438 211.375 L88.7969 210.6406 Q88.7969 210.125 88.5 210.125 Q88.2812 210.125 87.4844 210.2656 L86.7656 210.3906 L86.7656 209.9375 L90.2812 209.0625 Z"
                  style="stroke:none; clip-path:url(#clipPath4);"/>
        </g>
        <g transform="translate(6,5)"
           style="text-rendering:optimizeLegibility; font-family:'Lucida Bright'; color-interpolation:linearRGB; color-rendering:optimizeQuality; image-rendering:optimizeQuality;">
            <path d="M137.0753 194.5 L137.0753 198.5"
                  style="fill:none; clip-path:url(#clipPath1);"/>
        </g>
        <g style="text-rendering:optimizeLegibility; font-family:'Lucida Bright'; color-interpolation:linearRGB; color-rendering:optimizeQuality; image-rendering:optimizeQuality;">
            <path d="M139.4531 215.8906 L129.5469 215.8906 L129.5469 215.1094 L139.4531 215.1094 L139.4531 215.8906 Z"
                  style="stroke:none; clip-path:url(#clipPath7);"/>
        </g>
        <g style="text-rendering:optimizeLegibility; font-family:'Lucida Bright'; color-interpolation:linearRGB; color-rendering:optimizeQuality; image-rendering:optimizeQuality;">
            <path d="M141.5 220.2656 Q139.8281 220.2656 138.7969 218.7109 Q137.7656 217.1562 137.7656 214.6094 Q137.7656 212 138.7969 210.4453 Q139.8281 208.8906 141.5625 208.8906 Q143.2969 208.8906 144.3281 210.4375 Q145.3594 211.9844 145.3594 214.5938 Q145.3594 217.2031 144.3203 218.7344 Q143.2812 220.2656 141.5 220.2656 ZM141.5312 219.8125 Q143.8281 219.9219 143.8281 214.5 Q143.8281 209.3281 141.5625 209.3281 Q139.3125 209.3281 139.3125 214.5781 Q139.3125 219.7188 141.5312 219.8125 ZM147.2041 220 L147.2041 218.1875 L149.0166 218.1875 L149.0166 220 L147.2041 220 ZM151.8218 220.0156 L151.8218 218.1875 L152.5405 218.1875 L152.5562 218.3594 L152.5718 218.9219 Q152.6187 219.8125 153.978 219.8125 Q154.9937 219.8125 155.5874 219.0234 Q156.1812 218.2344 156.1812 216.875 Q156.1812 215.3281 155.2593 214.6641 Q154.3374 214 152.2593 214 L151.9937 214 L151.9937 209.1562 L157.4624 209.1562 L157.4624 210.4219 L152.4468 210.4219 L152.4468 213.4531 L153.1187 213.4531 Q157.6968 213.4531 157.6968 216.9375 Q157.6968 218.5 156.6421 219.3828 Q155.5874 220.2656 153.728 220.2656 Q152.8062 220.2656 151.8218 220.0156 Z"
                  style="stroke:none; clip-path:url(#clipPath4);"/>
        </g>
        <g transform="translate(6,5)"
           style="text-rendering:optimizeLegibility; font-family:'Lucida Bright'; color-interpolation:linearRGB; color-rendering:optimizeQuality; image-rendering:optimizeQuality;">
            <path d="M195.5 194.5 L195.5 198.5"
                  style="fill:none; clip-path:url(#clipPath1);"/>
            <path d="M192.5 218.2656 Q190.8281 218.2656 189.7969 216.7109 Q188.7656 215.1562 188.7656 212.6094 Q188.7656 210 189.7969 208.4453 Q190.8281 206.8906 192.5625 206.8906 Q194.2969 206.8906 195.3281 208.4375 Q196.3594 209.9844 196.3594 212.5938 Q196.3594 215.2031 195.3203 216.7344 Q194.2812 218.2656 192.5 218.2656 ZM192.5312 217.8125 Q194.8281 217.9219 194.8281 212.5 Q194.8281 207.3281 192.5625 207.3281 Q190.3125 207.3281 190.3125 212.5781 Q190.3125 217.7188 192.5312 217.8125 Z"
                  style="clip-path:url(#clipPath4); stroke:none;"
                  transform="translate(-6,-5)"/>
        </g>
        <g transform="translate(6,5)"
           style="text-rendering:optimizeLegibility; font-family:'Lucida Bright'; color-interpolation:linearRGB; color-rendering:optimizeQuality; image-rendering:optimizeQuality;">
            <path d="M253.9247 194.5 L253.9247 198.5"
                  style="fill:none; clip-path:url(#clipPath1);"/>
            <path d="M252.5 220.2656 Q250.8281 220.2656 249.7969 218.7109 Q248.7656 217.1562 248.7656 214.6094 Q248.7656 212 249.7969 210.4453 Q250.8281 208.8906 252.5625 208.8906 Q254.2969 208.8906 255.3281 210.4375 Q256.3594 211.9844 256.3594 214.5938 Q256.3594 217.2031 255.3203 218.7344 Q254.2812 220.2656 252.5 220.2656 ZM252.5312 219.8125 Q254.8281 219.9219 254.8281 214.5 Q254.8281 209.3281 252.5625 209.3281 Q250.3125 209.3281 250.3125 214.5781 Q250.3125 219.7188 252.5312 219.8125 ZM258.2041 220 L258.2041 218.1875 L260.0166 218.1875 L260.0166 220 L258.2041 220 ZM262.8218 220.0156 L262.8218 218.1875 L263.5405 218.1875 L263.5562 218.3594 L263.5718 218.9219 Q263.6187 219.8125 264.978 219.8125 Q265.9937 219.8125 266.5874 219.0234 Q267.1812 218.2344 267.1812 216.875 Q267.1812 215.3281 266.2593 214.6641 Q265.3374 214 263.2593 214 L262.9937 214 L262.9937 209.1562 L268.4624 209.1562 L268.4624 210.4219 L263.4468 210.4219 L263.4468 213.4531 L264.1187 213.4531 Q268.6968 213.4531 268.6968 216.9375 Q268.6968 218.5 267.6421 219.3828 Q266.5874 220.2656 264.728 220.2656 Q263.8062 220.2656 262.8218 220.0156 Z"
                  style="clip-path:url(#clipPath4); stroke:none;"
                  transform="translate(-6,-5)"/>
        </g>
        <g transform="translate(6,5)"
           style="text-rendering:optimizeLegibility; font-family:'Lucida Bright'; color-interpolation:linearRGB; color-rendering:optimizeQuality; image-rendering:optimizeQuality;">
            <path d="M312.3493 194.5 L312.3493 198.5"
                  style="fill:none; clip-path:url(#clipPath1);"/>
            <path d="M319.2812 209.0625 L319.2812 218.1094 L319.3281 218.8281 Q319.3594 219.2656 319.5859 219.3984 Q319.8125 219.5312 320.5156 219.5312 L321.375 219.5469 L321.375 220 L315.7656 220 L315.7656 219.5469 L316.625 219.5312 Q317.3125 219.5312 317.5391 219.3984 Q317.7656 219.2656 317.7969 218.8281 L317.8438 218.1094 L317.8438 211.375 L317.7969 210.6406 Q317.7969 210.125 317.5 210.125 Q317.2812 210.125 316.4844 210.2656 L315.7656 210.3906 L315.7656 209.9375 L319.2812 209.0625 Z"
                  style="clip-path:url(#clipPath4); stroke:none;"
                  transform="translate(-6,-5)"/>
        </g>
        <g transform="translate(6,5)"
           style="text-rendering:optimizeLegibility; font-family:'Lucida Bright'; color-interpolation:linearRGB; color-rendering:optimizeQuality; image-rendering:optimizeQuality;">
            <path d="M370.774 194.5 L370.774 198.5"
                  style="fill:none; clip-path:url(#clipPath1);"/>
            <path d="M370.2812 209.0625 L370.2812 218.1094 L370.3281 218.8281 Q370.3594 219.2656 370.5859 219.3984 Q370.8125 219.5312 371.5156 219.5312 L372.375 219.5469 L372.375 220 L366.7656 220 L366.7656 219.5469 L367.625 219.5312 Q368.3125 219.5312 368.5391 219.3984 Q368.7656 219.2656 368.7969 218.8281 L368.8438 218.1094 L368.8438 211.375 L368.7969 210.6406 Q368.7969 210.125 368.5 210.125 Q368.2812 210.125 367.4844 210.2656 L366.7656 210.3906 L366.7656 209.9375 L370.2812 209.0625 ZM375.2041 220 L375.2041 218.1875 L377.0166 218.1875 L377.0166 220 L375.2041 220 ZM379.8218 220.0156 L379.8218 218.1875 L380.5405 218.1875 L380.5562 218.3594 L380.5718 218.9219 Q380.6187 219.8125 381.978 219.8125 Q382.9937 219.8125 383.5874 219.0234 Q384.1812 218.2344 384.1812 216.875 Q384.1812 215.3281 383.2593 214.6641 Q382.3374 214 380.2593 214 L379.9937 214 L379.9937 209.1562 L385.4624 209.1562 L385.4624 210.4219 L380.4468 210.4219 L380.4468 213.4531 L381.1187 213.4531 Q385.6968 213.4531 385.6968 216.9375 Q385.6968 218.5 384.6421 219.3828 Q383.5874 220.2656 381.728 220.2656 Q380.8062 220.2656 379.8218 220.0156 Z"
                  style="clip-path:url(#clipPath4); stroke:none;"
                  transform="translate(-6,-5)"/>
        </g>
        <g transform="translate(6,5)"
           style="text-rendering:optimizeLegibility; font-family:'Lucida Bright'; color-interpolation:linearRGB; color-rendering:optimizeQuality; image-rendering:optimizeQuality;">
            <path d="M8.5411 194.5 L8.5411 196.5"
                  style="fill:none; clip-path:url(#clipPath1);"/>
        </g>
        <g transform="translate(6,5)"
           style="text-rendering:optimizeLegibility; font-family:'Lucida Bright'; color-interpolation:linearRGB; color-rendering:optimizeQuality; image-rendering:optimizeQuality;">
            <path d="M31.9109 194.5 L31.9109 196.5"
                  style="fill:none; clip-path:url(#clipPath1);"/>
        </g>
        <g transform="translate(6,5)"
           style="text-rendering:optimizeLegibility; font-family:'Lucida Bright'; color-interpolation:linearRGB; color-rendering:optimizeQuality; image-rendering:optimizeQuality;">
            <path d="M43.5959 194.5 L43.5959 196.5"
                  style="fill:none; clip-path:url(#clipPath1);"/>
        </g>
        <g transform="translate(6,5)"
           style="text-rendering:optimizeLegibility; font-family:'Lucida Bright'; color-interpolation:linearRGB; color-rendering:optimizeQuality; image-rendering:optimizeQuality;">
            <path d="M55.2808 194.5 L55.2808 196.5"
                  style="fill:none; clip-path:url(#clipPath1);"/>
        </g>
        <g transform="translate(6,5)"
           style="text-rendering:optimizeLegibility; font-family:'Lucida Bright'; color-interpolation:linearRGB; color-rendering:optimizeQuality; image-rendering:optimizeQuality;">
            <path d="M66.9657 194.5 L66.9657 196.5"
                  style="fill:none; clip-path:url(#clipPath1);"/>
        </g>
        <g transform="translate(6,5)"
           style="text-rendering:optimizeLegibility; font-family:'Lucida Bright'; color-interpolation:linearRGB; color-rendering:optimizeQuality; image-rendering:optimizeQuality;">
            <path d="M90.3356 194.5 L90.3356 196.5"
                  style="fill:none; clip-path:url(#clipPath1);"/>
        </g>
        <g transform="translate(6,5)"
           style="text-rendering:optimizeLegibility; font-family:'Lucida Bright'; color-interpolation:linearRGB; color-rendering:optimizeQuality; image-rendering:optimizeQuality;">
            <path d="M102.0205 194.5 L102.0205 196.5"
                  style="fill:none; clip-path:url(#clipPath1);"/>
        </g>
        <g transform="translate(6,5)"
           style="text-rendering:optimizeLegibility; font-family:'Lucida Bright'; color-interpolation:linearRGB; color-rendering:optimizeQuality; image-rendering:optimizeQuality;">
            <path d="M113.7055 194.5 L113.7055 196.5"
                  style="fill:none; clip-path:url(#clipPath1);"/>
        </g>
        <g transform="translate(6,5)"
           style="text-rendering:optimizeLegibility; font-family:'Lucida Bright'; color-interpolation:linearRGB; color-rendering:optimizeQuality; image-rendering:optimizeQuality;">
            <path d="M125.3904 194.5 L125.3904 196.5"
                  style="fill:none; clip-path:url(#clipPath1);"/>
        </g>
        <g transform="translate(6,5)"
           style="text-rendering:optimizeLegibility; font-family:'Lucida Bright'; color-interpolation:linearRGB; color-rendering:optimizeQuality; image-rendering:optimizeQuality;">
            <path d="M148.7603 194.5 L148.7603 196.5"
                  style="fill:none; clip-path:url(#clipPath1);"/>
        </g>
        <g transform="translate(6,5)"
           style="text-rendering:optimizeLegibility; font-family:'Lucida Bright'; color-interpolation:linearRGB; color-rendering:optimizeQuality; image-rendering:optimizeQuality;">
            <path d="M160.4452 194.5 L160.4452 196.5"
                  style="fill:none; clip-path:url(#clipPath1);"/>
        </g>
        <g transform="translate(6,5)"
           style="text-rendering:optimizeLegibility; font-family:'Lucida Bright'; color-interpolation:linearRGB; color-rendering:optimizeQuality; image-rendering:optimizeQuality;">
            <path d="M172.1301 194.5 L172.1301 196.5"
                  style="fill:none; clip-path:url(#clipPath1);"/>
        </g>
        <g transform="translate(6,5)"
           style="text-rendering:optimizeLegibility; font-family:'Lucida Bright'; color-interpolation:linearRGB; color-rendering:optimizeQuality; image-rendering:optimizeQuality;">
            <path d="M183.8151 194.5 L183.8151 196.5"
                  style="fill:none; clip-path:url(#clipPath1);"/>
        </g>
        <g transform="translate(6,5)"
           style="text-rendering:optimizeLegibility; font-family:'Lucida Bright'; color-interpolation:linearRGB; color-rendering:optimizeQuality; image-rendering:optimizeQuality;">
            <path d="M207.1849 194.5 L207.1849 196.5"
                  style="fill:none; clip-path:url(#clipPath1);"/>
        </g>
        <g transform="translate(6,5)"
           style="text-rendering:optimizeLegibility; font-family:'Lucida Bright'; color-interpolation:linearRGB; color-rendering:optimizeQuality; image-rendering:optimizeQuality;">
            <path d="M218.8699 194.5 L218.8699 196.5"
                  style="fill:none; clip-path:url(#clipPath1);"/>
        </g>
        <g transform="translate(6,5)"
           style="text-rendering:optimizeLegibility; font-family:'Lucida Bright'; color-interpolation:linearRGB; color-rendering:optimizeQuality; image-rendering:optimizeQuality;">
            <path d="M230.5548 194.5 L230.5548 196.5"
                  style="fill:none; clip-path:url(#clipPath1);"/>
        </g>
        <g transform="translate(6,5)"
           style="text-rendering:optimizeLegibility; font-family:'Lucida Bright'; color-interpolation:linearRGB; color-rendering:optimizeQuality; image-rendering:optimizeQuality;">
            <path d="M242.2397 194.5 L242.2397 196.5"
                  style="fill:none; clip-path:url(#clipPath1);"/>
        </g>
        <g transform="translate(6,5)"
           style="text-rendering:optimizeLegibility; font-family:'Lucida Bright'; color-interpolation:linearRGB; color-rendering:optimizeQuality; image-rendering:optimizeQuality;">
            <path d="M265.6096 194.5 L265.6096 196.5"
                  style="fill:none; clip-path:url(#clipPath1);"/>
        </g>
        <g transform="translate(6,5)"
           style="text-rendering:optimizeLegibility; font-family:'Lucida Bright'; color-interpolation:linearRGB; color-rendering:optimizeQuality; image-rendering:optimizeQuality;">
            <path d="M277.2945 194.5 L277.2945 196.5"
                  style="fill:none; clip-path:url(#clipPath1);"/>
        </g>
        <g transform="translate(6,5)"
           style="text-rendering:optimizeLegibility; font-family:'Lucida Bright'; color-interpolation:linearRGB; color-rendering:optimizeQuality; image-rendering:optimizeQuality;">
            <path d="M288.9795 194.5 L288.9795 196.5"
                  style="fill:none; clip-path:url(#clipPath1);"/>
        </g>
        <g transform="translate(6,5)"
           style="text-rendering:optimizeLegibility; font-family:'Lucida Bright'; color-interpolation:linearRGB; color-rendering:optimizeQuality; image-rendering:optimizeQuality;">
            <path d="M300.6644 194.5 L300.6644 196.5"
                  style="fill:none; clip-path:url(#clipPath1);"/>
        </g>
        <g transform="translate(6,5)"
           style="text-rendering:optimizeLegibility; font-family:'Lucida Bright'; color-interpolation:linearRGB; color-rendering:optimizeQuality; image-rendering:optimizeQuality;">
            <path d="M324.0343 194.5 L324.0343 196.5"
                  style="fill:none; clip-path:url(#clipPath1);"/>
        </g>
        <g transform="translate(6,5)"
           style="text-rendering:optimizeLegibility; font-family:'Lucida Bright'; color-interpolation:linearRGB; color-rendering:optimizeQuality; image-rendering:optimizeQuality;">
            <path d="M335.7192 194.5 L335.7192 196.5"
                  style="fill:none; clip-path:url(#clipPath1);"/>
        </g>
        <g transform="translate(6,5)"
           style="text-rendering:optimizeLegibility; font-family:'Lucida Bright'; color-interpolation:linearRGB; color-rendering:optimizeQuality; image-rendering:optimizeQuality;">
            <path d="M347.4041 194.5 L347.4041 196.5"
                  style="fill:none; clip-path:url(#clipPath1);"/>
        </g>
        <g transform="translate(6,5)"
           style="text-rendering:optimizeLegibility; font-family:'Lucida Bright'; color-interpolation:linearRGB; color-rendering:optimizeQuality; image-rendering:optimizeQuality;">
            <path d="M359.0891 194.5 L359.0891 196.5"
                  style="fill:none; clip-path:url(#clipPath1);"/>
        </g>
        <g transform="translate(6,5)"
           style="text-rendering:optimizeLegibility; font-family:'Lucida Bright'; color-interpolation:linearRGB; color-rendering:optimizeQuality; image-rendering:optimizeQuality;">
            <path d="M382.4589 194.5 L382.4589 196.5"
                  style="fill:none; clip-path:url(#clipPath1);"/>
        </g>
        <g transform="translate(6,5)"
           style="stroke-linecap:butt; text-rendering:optimizeLegibility; color-rendering:optimizeQuality; image-rendering:optimizeQuality; font-family:'Lucida Bright'; stroke-linejoin:round; color-interpolation:linearRGB;">
            <path d="M195.5 388 L195.5 1"
                  style="fill:none; clip-path:url(#clipPath1);"/>
        </g>
        <g transform="translate(6,5)"
           style="stroke-linecap:butt; text-rendering:optimizeLegibility; color-rendering:optimizeQuality; image-rendering:optimizeQuality; font-family:'Lucida Bright'; stroke-linejoin:round; color-interpolation:linearRGB;">
            <path d="M135.9688 105.8906 Q137.3125 104.9531 139.3438 103.0781 L139.625 102.8125 Q139.5312 101.1094 139.1875 99.2266 Q138.8438 97.3438 138.4688 96.5 Q138.1406 95.7969 137.9531 95.6719 Q137.7656 95.5469 136.9375 95.5 L136.7656 95.5 L136.8438 95.0469 L139.5156 95.0469 Q140.6562 97.7344 140.8125 101.3594 L141.7188 100.1875 Q143.0469 98.5 143.4922 97.7109 Q143.9375 96.9219 143.9375 96.25 Q143.9375 95.5625 143.3594 95.0469 L145.1719 95.0469 Q145.3281 95.375 145.3281 95.6719 Q145.3281 96.2969 144.9219 96.9766 Q144.5156 97.6562 143.2188 99.2031 L140.4531 102.5312 Q138.7969 104.5156 137.9688 105.8906 L135.9688 105.8906 Z"
                  style="stroke:none; clip-path:url(#clipPath8);"/>
        </g>
        <g transform="translate(6,5)"
           style="text-rendering:optimizeLegibility; font-family:'Lucida Bright'; color-interpolation:linearRGB; color-rendering:optimizeQuality; image-rendering:optimizeQuality;">
            <path d="M195.5 332.5554 L191.5 332.5554"
                  style="fill:none; clip-path:url(#clipPath1);"/>
        </g>
        <g style="text-rendering:optimizeLegibility; font-family:'Lucida Bright'; color-interpolation:linearRGB; color-rendering:optimizeQuality; image-rendering:optimizeQuality;">
            <path d="M187.4531 338.8906 L177.5469 338.8906 L177.5469 338.1094 L187.4531 338.1094 L187.4531 338.8906 Z"
                  style="stroke:none; clip-path:url(#clipPath9);"/>
        </g>
        <g style="text-rendering:optimizeLegibility; font-family:'Lucida Bright'; color-interpolation:linearRGB; color-rendering:optimizeQuality; image-rendering:optimizeQuality;">
            <path d="M190.2812 332.0625 L190.2812 341.1094 L190.3281 341.8281 Q190.3594 342.2656 190.5859 342.3984 Q190.8125 342.5312 191.5156 342.5312 L192.375 342.5469 L192.375 343 L186.7656 343 L186.7656 342.5469 L187.625 342.5312 Q188.3125 342.5312 188.5391 342.3984 Q188.7656 342.2656 188.7969 341.8281 L188.8438 341.1094 L188.8438 334.375 L188.7969 333.6406 Q188.7969 333.125 188.5 333.125 Q188.2812 333.125 187.4844 333.2656 L186.7656 333.3906 L186.7656 332.9375 L190.2812 332.0625 Z"
                  style="stroke:none; clip-path:url(#clipPath4);"/>
        </g>
        <g transform="translate(6,5)"
           style="text-rendering:optimizeLegibility; font-family:'Lucida Bright'; color-interpolation:linearRGB; color-rendering:optimizeQuality; image-rendering:optimizeQuality;">
            <path d="M195.5 263.5277 L191.5 263.5277"
                  style="fill:none; clip-path:url(#clipPath1);"/>
        </g>
        <g style="text-rendering:optimizeLegibility; font-family:'Lucida Bright'; color-interpolation:linearRGB; color-rendering:optimizeQuality; image-rendering:optimizeQuality;">
            <path d="M173.4531 269.8906 L163.5469 269.8906 L163.5469 269.1094 L173.4531 269.1094 L173.4531 269.8906 Z"
                  style="stroke:none; clip-path:url(#clipPath10);"/>
        </g>
        <g style="text-rendering:optimizeLegibility; font-family:'Lucida Bright'; color-interpolation:linearRGB; color-rendering:optimizeQuality; image-rendering:optimizeQuality;">
            <path d="M175.5 274.2656 Q173.8281 274.2656 172.7969 272.7109 Q171.7656 271.1562 171.7656 268.6094 Q171.7656 266 172.7969 264.4453 Q173.8281 262.8906 175.5625 262.8906 Q177.2969 262.8906 178.3281 264.4375 Q179.3594 265.9844 179.3594 268.5938 Q179.3594 271.2031 178.3203 272.7344 Q177.2812 274.2656 175.5 274.2656 ZM175.5312 273.8125 Q177.8281 273.9219 177.8281 268.5 Q177.8281 263.3281 175.5625 263.3281 Q173.3125 263.3281 173.3125 268.5781 Q173.3125 273.7188 175.5312 273.8125 ZM181.2041 274 L181.2041 272.1875 L183.0166 272.1875 L183.0166 274 L181.2041 274 ZM185.8218 274.0156 L185.8218 272.1875 L186.5405 272.1875 L186.5562 272.3594 L186.5718 272.9219 Q186.6187 273.8125 187.978 273.8125 Q188.9937 273.8125 189.5874 273.0234 Q190.1812 272.2344 190.1812 270.875 Q190.1812 269.3281 189.2593 268.6641 Q188.3374 268 186.2593 268 L185.9937 268 L185.9937 263.1562 L191.4624 263.1562 L191.4624 264.4219 L186.4468 264.4219 L186.4468 267.4531 L187.1187 267.4531 Q191.6968 267.4531 191.6968 270.9375 Q191.6968 272.5 190.6421 273.3828 Q189.5874 274.2656 187.728 274.2656 Q186.8062 274.2656 185.8218 274.0156 Z"
                  style="stroke:none; clip-path:url(#clipPath4);"/>
        </g>
        <g transform="translate(6,5)"
           style="text-rendering:optimizeLegibility; font-family:'Lucida Bright'; color-interpolation:linearRGB; color-rendering:optimizeQuality; image-rendering:optimizeQuality;">
            <path d="M195.5 194.5 L191.5 194.5"
                  style="fill:none; clip-path:url(#clipPath1);"/>
        </g>
        <g transform="translate(6,5)"
           style="text-rendering:optimizeLegibility; font-family:'Lucida Bright'; color-interpolation:linearRGB; color-rendering:optimizeQuality; image-rendering:optimizeQuality;">
            <path d="M195.5 125.4723 L191.5 125.4723"
                  style="fill:none; clip-path:url(#clipPath1);"/>
            <path d="M175.5 136.2656 Q173.8281 136.2656 172.7969 134.7109 Q171.7656 133.1562 171.7656 130.6094 Q171.7656 128 172.7969 126.4453 Q173.8281 124.8906 175.5625 124.8906 Q177.2969 124.8906 178.3281 126.4375 Q179.3594 127.9844 179.3594 130.5938 Q179.3594 133.2031 178.3203 134.7344 Q177.2812 136.2656 175.5 136.2656 ZM175.5312 135.8125 Q177.8281 135.9219 177.8281 130.5 Q177.8281 125.3281 175.5625 125.3281 Q173.3125 125.3281 173.3125 130.5781 Q173.3125 135.7188 175.5312 135.8125 ZM181.2041 136 L181.2041 134.1875 L183.0166 134.1875 L183.0166 136 L181.2041 136 ZM185.8218 136.0156 L185.8218 134.1875 L186.5405 134.1875 L186.5562 134.3594 L186.5718 134.9219 Q186.6187 135.8125 187.978 135.8125 Q188.9937 135.8125 189.5874 135.0234 Q190.1812 134.2344 190.1812 132.875 Q190.1812 131.3281 189.2593 130.6641 Q188.3374 130 186.2593 130 L185.9937 130 L185.9937 125.1562 L191.4624 125.1562 L191.4624 126.4219 L186.4468 126.4219 L186.4468 129.4531 L187.1187 129.4531 Q191.6968 129.4531 191.6968 132.9375 Q191.6968 134.5 190.6421 135.3828 Q189.5874 136.2656 187.728 136.2656 Q186.8062 136.2656 185.8218 136.0156 Z"
                  style="clip-path:url(#clipPath4); stroke:none;"
                  transform="translate(-6,-5)"/>
        </g>
        <g transform="translate(6,5)"
           style="text-rendering:optimizeLegibility; font-family:'Lucida Bright'; color-interpolation:linearRGB; color-rendering:optimizeQuality; image-rendering:optimizeQuality;">
            <path d="M195.5 56.4446 L191.5 56.4446"
                  style="fill:none; clip-path:url(#clipPath1);"/>
            <path d="M190.2812 56.0625 L190.2812 65.1094 L190.3281 65.8281 Q190.3594 66.2656 190.5859 66.3984 Q190.8125 66.5312 191.5156 66.5312 L192.375 66.5469 L192.375 67 L186.7656 67 L186.7656 66.5469 L187.625 66.5312 Q188.3125 66.5312 188.5391 66.3984 Q188.7656 66.2656 188.7969 65.8281 L188.8438 65.1094 L188.8438 58.375 L188.7969 57.6406 Q188.7969 57.125 188.5 57.125 Q188.2812 57.125 187.4844 57.2656 L186.7656 57.3906 L186.7656 56.9375 L190.2812 56.0625 Z"
                  style="clip-path:url(#clipPath4); stroke:none;"
                  transform="translate(-6,-5)"/>
        </g>
        <g transform="translate(6,5)"
           style="text-rendering:optimizeLegibility; font-family:'Lucida Bright'; color-interpolation:linearRGB; color-rendering:optimizeQuality; image-rendering:optimizeQuality;">
            <path d="M195.5 387.7775 L193.5 387.7775"
                  style="fill:none; clip-path:url(#clipPath1);"/>
        </g>
        <g transform="translate(6,5)"
           style="text-rendering:optimizeLegibility; font-family:'Lucida Bright'; color-interpolation:linearRGB; color-rendering:optimizeQuality; image-rendering:optimizeQuality;">
            <path d="M195.5 373.972 L193.5 373.972"
                  style="fill:none; clip-path:url(#clipPath1);"/>
        </g>
        <g transform="translate(6,5)"
           style="text-rendering:optimizeLegibility; font-family:'Lucida Bright'; color-interpolation:linearRGB; color-rendering:optimizeQuality; image-rendering:optimizeQuality;">
            <path d="M195.5 360.1664 L193.5 360.1664"
                  style="fill:none; clip-path:url(#clipPath1);"/>
        </g>
        <g transform="translate(6,5)"
           style="text-rendering:optimizeLegibility; font-family:'Lucida Bright'; color-interpolation:linearRGB; color-rendering:optimizeQuality; image-rendering:optimizeQuality;">
            <path d="M195.5 346.3609 L193.5 346.3609"
                  style="fill:none; clip-path:url(#clipPath1);"/>
        </g>
        <g transform="translate(6,5)"
           style="text-rendering:optimizeLegibility; font-family:'Lucida Bright'; color-interpolation:linearRGB; color-rendering:optimizeQuality; image-rendering:optimizeQuality;">
            <path d="M195.5 318.7498 L193.5 318.7498"
                  style="fill:none; clip-path:url(#clipPath1);"/>
        </g>
        <g transform="translate(6,5)"
           style="text-rendering:optimizeLegibility; font-family:'Lucida Bright'; color-interpolation:linearRGB; color-rendering:optimizeQuality; image-rendering:optimizeQuality;">
            <path d="M195.5 304.9443 L193.5 304.9443"
                  style="fill:none; clip-path:url(#clipPath1);"/>
        </g>
        <g transform="translate(6,5)"
           style="text-rendering:optimizeLegibility; font-family:'Lucida Bright'; color-interpolation:linearRGB; color-rendering:optimizeQuality; image-rendering:optimizeQuality;">
            <path d="M195.5 291.1387 L193.5 291.1387"
                  style="fill:none; clip-path:url(#clipPath1);"/>
        </g>
        <g transform="translate(6,5)"
           style="text-rendering:optimizeLegibility; font-family:'Lucida Bright'; color-interpolation:linearRGB; color-rendering:optimizeQuality; image-rendering:optimizeQuality;">
            <path d="M195.5 277.3332 L193.5 277.3332"
                  style="fill:none; clip-path:url(#clipPath1);"/>
        </g>
        <g transform="translate(6,5)"
           style="text-rendering:optimizeLegibility; font-family:'Lucida Bright'; color-interpolation:linearRGB; color-rendering:optimizeQuality; image-rendering:optimizeQuality;">
            <path d="M195.5 249.7221 L193.5 249.7221"
                  style="fill:none; clip-path:url(#clipPath1);"/>
        </g>
        <g transform="translate(6,5)"
           style="text-rendering:optimizeLegibility; font-family:'Lucida Bright'; color-interpolation:linearRGB; color-rendering:optimizeQuality; image-rendering:optimizeQuality;">
            <path d="M195.5 235.9166 L193.5 235.9166"
                  style="fill:none; clip-path:url(#clipPath1);"/>
        </g>
        <g transform="translate(6,5)"
           style="text-rendering:optimizeLegibility; font-family:'Lucida Bright'; color-interpolation:linearRGB; color-rendering:optimizeQuality; image-rendering:optimizeQuality;">
            <path d="M195.5 222.1111 L193.5 222.1111"
                  style="fill:none; clip-path:url(#clipPath1);"/>
        </g>
        <g transform="translate(6,5)"
           style="text-rendering:optimizeLegibility; font-family:'Lucida Bright'; color-interpolation:linearRGB; color-rendering:optimizeQuality; image-rendering:optimizeQuality;">
            <path d="M195.5 208.3055 L193.5 208.3055"
                  style="fill:none; clip-path:url(#clipPath1);"/>
        </g>
        <g transform="translate(6,5)"
           style="text-rendering:optimizeLegibility; font-family:'Lucida Bright'; color-interpolation:linearRGB; color-rendering:optimizeQuality; image-rendering:optimizeQuality;">
            <path d="M195.5 180.6945 L193.5 180.6945"
                  style="fill:none; clip-path:url(#clipPath1);"/>
        </g>
        <g transform="translate(6,5)"
           style="text-rendering:optimizeLegibility; font-family:'Lucida Bright'; color-interpolation:linearRGB; color-rendering:optimizeQuality; image-rendering:optimizeQuality;">
            <path d="M195.5 166.8889 L193.5 166.8889"
                  style="fill:none; clip-path:url(#clipPath1);"/>
        </g>
        <g transform="translate(6,5)"
           style="text-rendering:optimizeLegibility; font-family:'Lucida Bright'; color-interpolation:linearRGB; color-rendering:optimizeQuality; image-rendering:optimizeQuality;">
            <path d="M195.5 153.0834 L193.5 153.0834"
                  style="fill:none; clip-path:url(#clipPath1);"/>
        </g>
        <g transform="translate(6,5)"
           style="text-rendering:optimizeLegibility; font-family:'Lucida Bright'; color-interpolation:linearRGB; color-rendering:optimizeQuality; image-rendering:optimizeQuality;">
            <path d="M195.5 139.2779 L193.5 139.2779"
                  style="fill:none; clip-path:url(#clipPath1);"/>
        </g>
        <g transform="translate(6,5)"
           style="text-rendering:optimizeLegibility; font-family:'Lucida Bright'; color-interpolation:linearRGB; color-rendering:optimizeQuality; image-rendering:optimizeQuality;">
            <path d="M195.5 111.6668 L193.5 111.6668"
                  style="fill:none; clip-path:url(#clipPath1);"/>
        </g>
        <g transform="translate(6,5)"
           style="text-rendering:optimizeLegibility; font-family:'Lucida Bright'; color-interpolation:linearRGB; color-rendering:optimizeQuality; image-rendering:optimizeQuality;">
            <path d="M195.5 97.8613 L193.5 97.8613"
                  style="fill:none; clip-path:url(#clipPath1);"/>
        </g>
        <g transform="translate(6,5)"
           style="text-rendering:optimizeLegibility; font-family:'Lucida Bright'; color-interpolation:linearRGB; color-rendering:optimizeQuality; image-rendering:optimizeQuality;">
            <path d="M195.5 84.0557 L193.5 84.0557"
                  style="fill:none; clip-path:url(#clipPath1);"/>
        </g>
        <g transform="translate(6,5)"
           style="text-rendering:optimizeLegibility; font-family:'Lucida Bright'; color-interpolation:linearRGB; color-rendering:optimizeQuality; image-rendering:optimizeQuality;">
            <path d="M195.5 70.2502 L193.5 70.2502"
                  style="fill:none; clip-path:url(#clipPath1);"/>
        </g>
        <g transform="translate(6,5)"
           style="text-rendering:optimizeLegibility; font-family:'Lucida Bright'; color-interpolation:linearRGB; color-rendering:optimizeQuality; image-rendering:optimizeQuality;">
            <path d="M195.5 42.6391 L193.5 42.6391"
                  style="fill:none; clip-path:url(#clipPath1);"/>
        </g>
        <g transform="translate(6,5)"
           style="text-rendering:optimizeLegibility; font-family:'Lucida Bright'; color-interpolation:linearRGB; color-rendering:optimizeQuality; image-rendering:optimizeQuality;">
            <path d="M195.5 28.8336 L193.5 28.8336"
                  style="fill:none; clip-path:url(#clipPath1);"/>
        </g>
        <g transform="translate(6,5)"
           style="text-rendering:optimizeLegibility; font-family:'Lucida Bright'; color-interpolation:linearRGB; color-rendering:optimizeQuality; image-rendering:optimizeQuality;">
            <path d="M195.5 15.028 L193.5 15.028"
                  style="fill:none; clip-path:url(#clipPath1);"/>
        </g>
        <g transform="translate(6,5)"
           style="text-rendering:optimizeLegibility; font-family:'Lucida Bright'; color-interpolation:linearRGB; color-rendering:optimizeQuality; image-rendering:optimizeQuality;">
            <path d="M195.5 1.2225 L193.5 1.2225"
                  style="fill:none; clip-path:url(#clipPath1);"/>
        </g>
    </g>
</svg>
