<?xml version="1.0" encoding="UTF-8"?>
<!DOCTYPE svg PUBLIC '-//W3C//DTD SVG 1.0//EN'
    'http://www.w3.org/TR/2001/REC-SVG-20010904/DTD/svg10.dtd' >

<svg style="stroke-dasharray:none; shape-rendering:auto; font-family:'Dialog'; text-rendering:auto; fill-opacity:1; color-interpolation:auto; color-rendering:auto; font-size:12px; fill:black; stroke:black; image-rendering:auto; stroke-miterlimit:10; stroke-linecap:square; stroke-linejoin:miter; font-style:normal; stroke-width:1; stroke-dashoffset:0; font-weight:normal; stroke-opacity:1;"
     xmlns="http://www.w3.org/2000/svg" contentScriptType="text/ecmascript"
     preserveAspectRatio="xMidYMid meet"
     xmlns:xlink="http://www.w3.org/1999/xlink" zoomAndPan="magnify"
     version="1.0" contentStyleType="text/css">
    <!--Generated by the Batik Graphics2D SVG Generator-->
    <defs id="genericDefs"/>
    <g>
        <defs id="defs1">
            <clipPath clipPathUnits="userSpaceOnUse" id="clipPath1">
                <path d="M0 0 L390 0 L390 390 L0 390 L0 0 Z"/>
            </clipPath>
            <clipPath clipPathUnits="userSpaceOnUse" id="clipPath2">
                <path d="M1 0 L1 389 L390 389 L390 0 Z"/>
            </clipPath>
            <clipPath clipPathUnits="userSpaceOnUse" id="clipPath3">
                <path d="M274 208 L274 226 L293 226 L293 208 Z"/>
            </clipPath>
            <clipPath clipPathUnits="userSpaceOnUse" id="clipPath4">
                <path d="M6 5 L396 5 L396 395 L6 395 L6 5 Z"/>
            </clipPath>
            <clipPath clipPathUnits="userSpaceOnUse" id="clipPath5">
                <path d="M83 197 L83 213 L91 213 L91 197 Z"/>
            </clipPath>
            <clipPath clipPathUnits="userSpaceOnUse" id="clipPath6">
                <path d="M113 83 L113 101 L133 101 L133 83 Z"/>
            </clipPath>
            <clipPath clipPathUnits="userSpaceOnUse" id="clipPath7">
                <path d="M158 335 L158 351 L166 351 L166 335 Z"/>
            </clipPath>
            <clipPath clipPathUnits="userSpaceOnUse" id="clipPath8">
                <path d="M144 258 L144 274 L152 274 L152 258 Z"/>
            </clipPath>
        </defs>
        <g transform="translate(6,5)"
           style="stroke-linecap:butt; fill:rgb(165,165,165); text-rendering:optimizeLegibility; image-rendering:optimizeQuality; color-rendering:optimizeQuality; font-family:'Lucida Bright'; stroke-linejoin:round; stroke:rgb(165,165,165); color-interpolation:linearRGB;">
            <path d="M86.5243 388 L86.5243 1"
                  style="fill:none; clip-path:url(#clipPath1);"/>
            <path d="M178.8097 388 L178.8097 1"
                  style="fill:none; clip-path:url(#clipPath1);"/>
            <path d="M271.0951 388 L271.0951 1"
                  style="fill:none; clip-path:url(#clipPath1);"/>
            <path d="M363.3805 388 L363.3805 1"
                  style="fill:none; clip-path:url(#clipPath1);"/>
            <path d="M40.3816 388 L40.3816 1"
                  style="fill:none; clip-path:url(#clipPath1); stroke:rgb(233,233,233);"/>
            <path d="M132.667 388 L132.667 1"
                  style="fill:none; clip-path:url(#clipPath1); stroke:rgb(233,233,233);"/>
            <path d="M224.9524 388 L224.9524 1"
                  style="fill:none; clip-path:url(#clipPath1); stroke:rgb(233,233,233);"/>
            <path d="M317.2378 388 L317.2378 1"
                  style="fill:none; clip-path:url(#clipPath1); stroke:rgb(233,233,233);"/>
        </g>
        <g transform="translate(6,5)"
           style="stroke-linecap:butt; fill:rgb(165,165,165); text-rendering:optimizeLegibility; image-rendering:optimizeQuality; color-rendering:optimizeQuality; font-family:'Lucida Bright'; stroke-linejoin:round; stroke:rgb(165,165,165); color-interpolation:linearRGB;">
            <path d="M2 337.3658 L389 337.3658"
                  style="fill:none; clip-path:url(#clipPath1);"/>
            <path d="M2 260.7226 L389 260.7226"
                  style="fill:none; clip-path:url(#clipPath1);"/>
            <path d="M2 184.0794 L389 184.0794"
                  style="fill:none; clip-path:url(#clipPath1);"/>
            <path d="M2 107.4362 L389 107.4362"
                  style="fill:none; clip-path:url(#clipPath1);"/>
            <path d="M2 30.7931 L389 30.7931"
                  style="fill:none; clip-path:url(#clipPath1);"/>
            <path d="M2 383.3517 L389 383.3517"
                  style="fill:none; clip-path:url(#clipPath1); stroke:rgb(233,233,233);"/>
            <path d="M2 368.0231 L389 368.0231"
                  style="fill:none; clip-path:url(#clipPath1); stroke:rgb(233,233,233);"/>
            <path d="M2 352.6944 L389 352.6944"
                  style="fill:none; clip-path:url(#clipPath1); stroke:rgb(233,233,233);"/>
            <path d="M2 322.0372 L389 322.0372"
                  style="fill:none; clip-path:url(#clipPath1); stroke:rgb(233,233,233);"/>
            <path d="M2 306.7085 L389 306.7085"
                  style="fill:none; clip-path:url(#clipPath1); stroke:rgb(233,233,233);"/>
            <path d="M2 291.3799 L389 291.3799"
                  style="fill:none; clip-path:url(#clipPath1); stroke:rgb(233,233,233);"/>
            <path d="M2 276.0512 L389 276.0512"
                  style="fill:none; clip-path:url(#clipPath1); stroke:rgb(233,233,233);"/>
            <path d="M2 245.394 L389 245.394"
                  style="fill:none; clip-path:url(#clipPath1); stroke:rgb(233,233,233);"/>
            <path d="M2 230.0653 L389 230.0653"
                  style="fill:none; clip-path:url(#clipPath1); stroke:rgb(233,233,233);"/>
            <path d="M2 214.7367 L389 214.7367"
                  style="fill:none; clip-path:url(#clipPath1); stroke:rgb(233,233,233);"/>
            <path d="M2 199.4081 L389 199.4081"
                  style="fill:none; clip-path:url(#clipPath1); stroke:rgb(233,233,233);"/>
            <path d="M2 168.7508 L389 168.7508"
                  style="fill:none; clip-path:url(#clipPath1); stroke:rgb(233,233,233);"/>
            <path d="M2 153.4221 L389 153.4221"
                  style="fill:none; clip-path:url(#clipPath1); stroke:rgb(233,233,233);"/>
            <path d="M2 138.0935 L389 138.0935"
                  style="fill:none; clip-path:url(#clipPath1); stroke:rgb(233,233,233);"/>
            <path d="M2 122.7649 L389 122.7649"
                  style="fill:none; clip-path:url(#clipPath1); stroke:rgb(233,233,233);"/>
            <path d="M2 92.1076 L389 92.1076"
                  style="fill:none; clip-path:url(#clipPath1); stroke:rgb(233,233,233);"/>
            <path d="M2 76.779 L389 76.779"
                  style="fill:none; clip-path:url(#clipPath1); stroke:rgb(233,233,233);"/>
            <path d="M2 61.4503 L389 61.4503"
                  style="fill:none; clip-path:url(#clipPath1); stroke:rgb(233,233,233);"/>
            <path d="M2 46.1217 L389 46.1217"
                  style="fill:none; clip-path:url(#clipPath1); stroke:rgb(233,233,233);"/>
            <path d="M2 15.4644 L389 15.4644"
                  style="fill:none; clip-path:url(#clipPath1); stroke:rgb(233,233,233);"/>
        </g>
        <g transform="translate(6,5)"
           style="stroke-linecap:butt; fill:blue; text-rendering:optimizeLegibility; image-rendering:optimizeQuality; color-rendering:optimizeQuality; font-family:'Lucida Bright'; stroke-linejoin:round; stroke:blue; color-interpolation:linearRGB; stroke-width:1.5;">
            <path d="M2.1913 8.0017 L2.7843 10.5187 L3.5252 12.7344 L3.855 13.5906 L4.0407 13.9899 L5.1999 16.6624 L5.8901 18.0201 L6.7065 19.7343 L7.7395 21.6257 L8.3459 22.8062 L9.5889 24.9514 L10.0957 25.8781 L11.4383 28.0828 L11.9383 28.9499 L13.2878 31.0738 L13.8596 32.0218 L15.1372 33.9602 L15.8483 35.0937 L16.9866 36.7664 L17.895 38.1656 L18.836 39.5098 L19.9922 41.2374 L20.6854 42.2032 L22.1334 44.3093 L22.5348 44.8561 L24.3134 47.3812 L24.3842 47.4756 L24.7316 47.9582 L26.2336 50.0067 L26.5473 50.453 L28.083 52.5046 L28.8164 53.5249 L29.9324 54.9881 L31.1125 56.5968 L31.7818 57.4596 L33.4325 59.6686 L33.6312 59.9209 L34.3623 60.883 L35.4806 62.3241 L35.7917 62.7405 L37.33 64.6918 L38.1815 65.8124 L39.1795 67.06 L40.5875 68.8842 L41.0289 69.4287 L42.4464 71.2389 L42.8783 71.7782 L43.0156 71.9561 L44.7277 74.0657 L45.4816 75.028 L46.5771 76.3612 L47.958 78.0999 L48.4265 78.6635 L49.776 80.3415 L50.2759 80.9489 L50.453 81.1717 L52.1253 83.1805 L52.9812 84.2436 L53.9747 85.4243 L55.5153 87.3155 L55.8241 87.6788 L56.6372 88.6661 L57.6735 89.8953 L58.0749 90.3874 L59.5229 92.0878 L60.654 93.4592 L61.3723 94.295 L63.1855 96.4709 L63.2217 96.5134 L63.2364 96.5311 L65.0712 98.661 L65.8573 99.603 L66.9206 100.8266 L68.4782 102.6748 L68.77 103.0079 L69.4565 103.8152 L70.6194 105.1503 L71.1229 105.7467 L72.4688 107.2793 L73.7802 108.8186 L74.3182 109.4265 L75.5406 110.8491 L76.1676 111.5612 L76.4486 111.8904 L78.017 113.6583 L79.1398 114.9623 L79.8664 115.7755 L81.4641 117.6162 L81.7158 117.8991 L81.8324 118.0342 L83.5652 119.9683 L84.5549 121.1061 L85.4146 122.0591 L87.2471 124.1498 L87.264 124.1686 L87.2721 124.1779 L89.1134 126.2136 L90.0237 127.2498 L90.9628 128.2814 L92.7681 130.3217 L92.8123 130.3699 L92.9019 130.4706 L94.6617 132.3982 L95.5444 133.3935 L96.5111 134.4461 L98.3142 136.4654 L98.3605 136.5155 L98.4518 136.6172 L100.2099 138.5258 L101.1153 139.5373 L102.0593 140.5564 L103.9087 142.6091 L103.9087 142.6092 L103.9088 142.6093 L105.7581 144.5997 L106.7348 145.681 L107.6075 146.6154 L109.2745 148.4499 L109.4569 148.6456 L109.5541 148.7529 L111.3063 150.623 L112.4013 151.8248 L113.1557 152.6261 L114.5623 154.1611 L115.0051 154.6322 L115.2467 154.8966 L116.8545 156.5987 L118.1132 157.9685 L118.704 158.591 L119.78 159.7559 L120.5534 160.5718 L120.9851 161.0404 L122.4028 162.5293 L123.8692 164.1123 L124.2522 164.5128 L124.9345 165.2455 L126.1016 166.4672 L126.7677 167.1841 L127.951 168.4174 L129.6679 170.256 L129.8004 170.3936 L130.0315 170.6399 L131.6498 172.3207 L132.5931 173.3279 L133.4992 174.2652 L135.0657 175.9298 L135.3486 176.2226 L135.515 176.3997 L137.198 178.1347 L138.46 179.4716 L139.0474 180.0749 L140.0424 181.1242 L140.8968 182.0019 L141.4097 182.5435 L142.7462 183.9112 L144.3671 185.6154 L144.5956 185.8484 L144.9752 186.2457 L146.4451 187.7444 L147.3447 188.6872 L148.2945 189.6523 L149.8576 191.2836 L150.1439 191.5744 L150.3207 191.7591 L151.9933 193.4523 L153.3187 194.831 L153.8427 195.3597 L154.6889 196.2366 L155.6921 197.2482 L156.3236 197.9028 L157.5415 199.1272 L159.3305 200.9747 L159.3909 201.0352 L159.4867 201.1338 L161.2403 202.8899 L162.3643 204.0466 L163.0897 204.771 L164.2295 205.9397 L164.9391 206.6475 L165.3984 207.1185 L166.7885 208.5011 L168.4416 210.1903 L168.6379 210.3851 L168.941 210.6937 L170.4874 212.2255 L171.5056 213.2622 L172.3368 214.0835 L173.6077 215.3732 L174.1862 215.9438 L174.5708 216.3341 L176.0356 217.7753 L177.6482 219.4059 L177.885 219.6384 L178.2409 219.9971 L179.7344 221.4605 L180.7443 222.4778 L181.5838 223.2985 L182.8336 224.5537 L183.4332 225.1387 L183.8428 225.5497 L185.2826 226.9513 L186.9521 228.6216 L187.132 228.7964 L187.3956 229.0594 L188.9814 230.5964 L190.0823 231.6934 L190.8308 232.4176 L191.9163 233.4963 L192.6802 234.2335 L193.2161 234.7653 L194.5296 236.0303 L196.3548 237.8372 L196.379 237.8605 L196.4136 237.8946 L198.2285 239.6345 L199.5212 240.909 L200.0779 241.4418 L200.8643 242.2152 L201.9273 243.2296 L202.6926 243.9809 L203.7767 245.0138 L205.2923 246.4983 L205.6261 246.8153 L205.869 247.0528 L207.4755 248.5761 L209.0632 250.1246 L209.3249 250.3725 L209.6853 250.7233 L211.1743 252.1284 L212.2742 253.1965 L213.0237 253.9029 L214.0447 254.8925 L214.8731 255.6703 L215.4918 256.2684 L216.7225 257.4227 L218.3807 259.0226 L218.5719 259.2012 L218.7164 259.3403 L220.4213 260.9313 L221.963 262.4121 L222.2708 262.699 L222.6794 263.0909 L224.1201 264.4285 L225.2242 265.484 L225.9696 266.1754 L226.9482 267.1096 L227.819 267.9136 L228.494 268.5559 L229.6684 269.6396 L231.1928 271.0879 L231.5178 271.3864 L231.7728 271.6277 L233.3672 273.0913 L235.0683 274.6996 L235.2166 274.8357 L235.4064 275.0149 L237.066 276.5298 L238.3859 277.7715 L238.9154 278.2547 L239.5853 278.8842 L240.7648 279.9548 L241.7143 280.8434 L242.6142 281.6601 L243.7391 282.7118 L244.4636 283.3655 L245.0541 283.9152 L246.313 285.0512 L247.8673 286.4969 L248.1624 286.7615 L248.4061 286.9871 L250.0119 288.4276 L251.7753 290.059 L251.8613 290.1361 L251.966 290.233 L253.7106 291.7885 L255.1696 293.1309 L255.5601 293.4791 L256.0298 293.9111 L257.4095 295.1334 L258.5783 296.2027 L259.2589 296.8061 L260.0672 297.5453 L261.1083 298.4617 L262.0021 299.2746 L262.9577 300.1165 L264.0777 301.1349 L264.8071 301.7726 L265.4419 302.3465 L266.6565 303.4095 L268.0608 304.679 L268.5059 305.0654 L268.8988 305.4183 L270.3553 306.6846 L272.016 308.1767 L272.2047 308.3394 L272.3737 308.4902 L274.0541 309.9409 L275.8698 311.5621 L275.9035 311.5912 L275.9415 311.6252 L277.753 313.1778 L279.3946 314.6339 L279.6024 314.8124 L279.8331 315.0172 L281.4518 316.3942 L282.9404 317.7058 L283.3012 318.0134 L283.696 318.3615 L285.1506 319.5895 L286.5086 320.7777 L287 321.1935 L287.5296 321.6573 L288.8494 322.7625 L290.1008 323.8495 L290.6988 324.3517 L291.3334 324.9037 L292.5482 325.9124 L293.7186 326.9214 L294.3976 327.4871 L295.1069 328.0996 L296.247 329.0382 L297.3636 329.9933 L298.0964 330.5987 L298.8495 331.2442 L299.9458 332.1386 L301.0378 333.0652 L301.7952 333.6855 L302.5605 334.3364 L303.6447 335.2126 L304.7434 336.137 L305.494 336.7463 L306.2395 337.3752 L307.3435 338.2588 L308.4826 339.2089 L309.1929 339.78 L309.8857 340.3596 L311.0423 341.2759 L312.2581 342.2808 L312.8917 342.7853 L313.4984 343.2885 L314.7411 344.2626 L316.0726 345.3527 L316.5905 345.761 L317.0771 346.1608 L318.4399 347.2173 L319.9292 348.4245 L320.2893 348.7054 L320.621 348.9755 L322.1387 350.1384 L323.8315 351.4964 L323.9881 351.6172 L324.1295 351.7312 L325.8375 353.0242 L327.5988 354.4219 L327.687 354.4872 L327.791 354.5683 L329.5363 355.8728 L331.0249 357.0408 L331.3857 357.3043 L331.8221 357.6401 L333.2352 358.6823 L334.4119 359.5947 L335.0846 360.0786 L335.9185 360.712 L336.934 361.4505 L337.7589 362.0822 L338.7834 362.8076 L340.0867 363.7839 L340.6328 364.1752 L341.0652 364.502 L342.4822 365.4887 L344.3296 366.8524 L344.3316 366.8537 L344.3344 366.8557 L346.181 368.119 L347.5333 369.1019 L348.0304 369.4298 L348.7362 369.9276 L349.8798 370.6955 L350.6915 371.2758 L351.7292 371.9456 L353.2517 372.9995 L353.5786 373.2147 L353.8032 373.3724 L355.428 374.3972 L356.8506 375.3623 L357.2775 375.6179 L357.9748 376.0714 L359.1269 376.7801 L359.8378 377.2522 L360.9763 377.9138 L362.7704 379.0513 L362.8257 379.0813 L362.9292 379.1432 L364.6751 380.1255 L365.616 380.7061 L366.5245 381.178 L368.3159 382.2151 L368.3739 382.2466 L368.4035 382.2644 L370.2233 383.1689 L371.0881 383.6515 L372.0727 384.0857 L373.6958 384.9111 L373.9221 384.9952 L374.5745 385.287 L375.7715 385.781 L376.1907 385.9833 L377.6209 386.4658 L378.5676 386.8593 L379.4703 387.0767 L380.8152 387.5207 L381.3198 387.5776 L382.9056 387.9212 L383.1692 387.904 L384.8025 388 L385.0186 387.9287 L386.4569 387.676 L386.868 387.3618 L387.8019 386.8383 L388.7173 385.3661 L388.744 385.3312 L388.7552 385.287 L389 382.6846 L388.9551 382.2151 L388.7173 381.0879 L388.3459 379.1432 L387.9882 377.9321 L387.3256 376.0714 L386.868 375.0308 L386.0375 372.9995 L385.0186 370.9058 L384.5739 369.9276 L383.1692 367.2639 L382.9672 366.8557 L381.3198 363.9296 L381.2425 363.7839 L379.4703 360.8031 L379.4192 360.712 L377.6209 357.8236 L377.5127 357.6401 L375.7715 354.9519 L375.5354 354.5683 L373.9221 352.1616 L373.4973 351.4964 L372.0727 349.4343 L371.4066 348.4245 L370.2233 346.7567 L369.2701 345.3527 L368.3739 344.119 L367.0936 342.2808 L366.5245 341.5139 L364.8817 339.2089 L364.6751 338.9358 L363.7225 337.6266 L362.8257 336.4173 L362.6263 336.137 L360.9763 333.9554 L360.3293 333.0652 L359.1269 331.5035 L358.0078 329.9933 L357.2775 329.06 L355.6646 326.9214 L355.428 326.6236 L354.5921 325.533 L353.5786 324.2386 L353.2854 323.8495 L351.7292 321.8919 L350.8752 320.7777 L349.8798 319.5427 L348.4505 317.7058 L348.0304 317.1913 L346.7233 315.5347 L346.181 314.8626 L346.003 314.6339 L344.3316 312.5892 L343.5207 311.5621 L342.4822 310.3067 L341.0291 308.4902 L340.6328 308.0163 L339.5201 306.6421 L338.7834 305.7528 L338.5155 305.4183 L336.934 303.5305 L335.9742 302.3465 L335.0846 301.2955 L333.4278 299.2746 L333.2352 299.0492 L332.7387 298.45 L331.3857 296.8548 L330.8505 296.2027 L329.5363 294.6682 L328.2608 293.1309 L327.687 292.4668 L326.2672 290.7726 L325.8375 290.272 L325.6605 290.059 L323.9881 288.1279 L323.0305 286.9871 L322.1387 285.966 L320.4011 283.9152 L320.2893 283.7883 L320.0308 283.4858 L318.4399 281.6686 L317.7394 280.8434 L316.5905 279.5414 L315.0748 277.7715 L314.7411 277.3961 L313.9948 276.5319 L312.8917 275.2849 L312.3894 274.6996 L311.0423 273.1881 L309.6922 271.6277 L309.1929 271.0714 L308.1111 269.8309 L307.3435 268.9719 L306.9827 268.5559 L305.494 266.9016 L304.2552 265.484 L303.6447 264.81 L302.3612 263.3522 L301.7952 262.725 L301.5212 262.4121 L299.9458 260.6778 L298.7656 259.3403 L298.0964 258.6081 L296.7294 257.0697 L296.247 256.5401 L296.0067 256.2684 L294.3976 254.5128 L293.2252 253.1965 L292.5482 252.4622 L291.2025 250.9613 L290.6988 250.4134 L290.441 250.1246 L288.8494 248.4033 L287.6355 247.0528 L287 246.3692 L285.769 245.008 L285.1506 244.3413 L284.8258 243.9809 L283.3012 242.3459 L281.9983 240.909 L281.4518 240.326 L280.4191 239.1937 L279.6024 238.3207 L279.1628 237.8372 L277.753 236.3377 L276.3149 234.7653 L275.9035 234.3298 L275.1444 233.5043 L274.0541 232.3485 L273.4534 231.6934 L272.2047 230.3759 L270.5869 228.6216 L270.3553 228.3783 L269.9375 227.9276 L268.5059 226.4221 L267.6992 225.5497 L266.6565 224.4581 L264.8157 222.4778 L264.8071 222.4689 L264.792 222.4527 L262.9577 220.5388 L261.9015 219.4059 L261.1083 218.5817 L259.7199 217.0998 L259.2589 216.6204 L258.9911 216.3341 L257.4095 214.6963 L256.0618 213.2622 L255.5601 212.7446 L254.7 211.8335 L253.7106 210.8127 L253.1239 210.1903 L251.8613 208.8924 L250.1814 207.1185 L250.0119 206.9448 L249.727 206.6453 L248.1624 205.0429 L247.2159 204.0466 L246.313 203.1251 L244.8094 201.5491 L244.4636 201.1963 L244.2525 200.9747 L242.6142 199.3089 L241.2684 197.9028 L240.7648 197.3925 L239.9422 196.5365 L238.9154 195.4964 L238.2764 194.831 L237.066 193.6089 L235.2825 191.7591 L235.2166 191.6928 L235.1109 191.5836 L233.3672 189.8297 L232.2619 188.6872 L231.5178 187.941 L230.3356 186.7236 L229.6684 186.0552 L229.2414 185.6154 L227.819 184.1945 L226.2102 182.5435 L225.9696 182.3038 L225.594 181.9196 L224.1201 180.4533 L223.1602 179.4716 L222.2708 178.5891 L220.8958 177.1878 L220.4213 176.7177 L220.1093 176.3997 L218.5719 174.8805 L217.0429 173.3279 L216.7225 173.012 L216.2356 172.5192 L214.8731 171.1783 L213.9615 170.256 L213.0237 169.3353 L211.6125 167.912 L211.1743 167.4826 L210.8782 167.1841 L209.3249 165.6656 L207.779 164.1123 L207.4755 163.8162 L207.0263 163.3662 L205.6261 162.0031 L204.6642 161.0404 L203.7767 160.1782 L202.4762 158.8803 L201.9273 158.3483 L201.5463 157.9685 L200.0779 156.5483 L198.4165 154.8966 L198.2285 154.7151 L197.9572 154.4461 L196.379 152.9266 L195.2663 151.8248 L194.5296 151.1167 L193.4781 150.0781 L192.6802 149.3135 L192.1117 148.7529 L190.8308 147.5273 L189.0214 145.7474 L188.9814 145.7093 L188.9526 145.681 L187.132 143.9472 L185.7661 142.6091 L185.2826 142.1494 L184.6101 141.4921 L183.4332 140.3766 L182.5726 139.5373 L181.5838 138.6013 L180.2229 137.2769 L179.7344 136.8161 L179.3732 136.4654 L177.885 135.0636 L176.1616 133.3935 L176.0356 133.275 L175.8647 133.1097 L174.1862 131.5365 L172.9269 130.3217 L172.3368 129.7691 L171.5452 129.0069 L170.4874 128.0205 L169.6848 127.2498 L168.6379 126.2745 L167.2494 124.9435 L166.7885 124.516 L166.4348 124.1779 L164.9391 122.7916 L163.1726 121.1061 L163.0897 121.0293 L162.9814 120.9261 L161.2403 119.3209 L159.8853 118.0342 L159.3909 117.5786 L158.7517 116.9725 L157.5415 115.8629 L156.5885 114.9623 L155.6921 114.1407 L154.5467 113.0598 L153.8427 112.418 L153.2816 111.8904 L151.9933 110.7161 L150.3667 109.1887 L150.1439 108.9868 L149.9641 108.8186 L148.2945 107.3053 L146.6262 105.7467 L146.4451 105.5826 L146.2195 105.372 L144.5956 103.9088 L143.2678 102.6748 L142.7462 102.2048 L142.1045 101.6088 L140.8968 100.5272 L139.8968 99.603 L139.0474 98.8419 L138.0153 97.8886 L137.198 97.1611 L136.5125 96.5311 L135.3486 95.4946 L133.9525 94.2121 L133.4992 93.8112 L133.1139 93.4592 L131.6498 92.1635 L129.9165 90.5801 L129.8004 90.4782 L129.7004 90.3874 L127.951 88.8491 L126.2623 87.3155 L126.1016 87.1741 L125.9138 87.0035 L124.2522 85.5522 L122.8025 84.2436 L122.4028 83.8941 L121.9418 83.4779 L120.5534 82.2736 L119.3251 81.1717 L118.704 80.6322 L117.9974 79.9982 L116.8545 79.0139 L115.8291 78.0999 L115.0051 77.3891 L114.0812 76.5652 L113.1557 75.774 L112.3131 75.028 L111.3063 74.1656 L110.1936 73.1797 L109.4569 72.5548 L108.7761 71.9561 L107.6075 70.9626 L106.3352 69.8428 L105.7581 69.3571 L105.2165 68.8842 L103.9087 67.7809 L102.5066 66.5553 L102.0593 66.1819 L101.6328 65.8124 L100.2099 64.6213 L98.7082 63.3181 L98.3605 63.0304 L98.0234 62.7405 L96.5111 61.485 L94.9409 60.1324 L94.6617 59.9034 L94.3864 59.6686 L92.8123 58.3729 L91.205 56.999 L90.9628 56.8022 L90.72 56.5968 L89.1134 55.2861 L87.5012 53.9189 L87.264 53.728 L87.0218 53.5249 L85.4146 52.2257 L83.8303 50.8933 L83.5652 50.6821 L83.2895 50.453 L81.7158 49.1931 L80.1927 47.9232 L79.8664 47.666 L79.5205 47.3812 L78.017 46.1894 L76.5893 45.0097 L76.1676 44.6809 L75.7117 44.3093 L74.3182 43.2162 L73.0206 42.1539 L72.4688 41.7287 L71.86 41.2374 L70.6194 40.2748 L69.4874 39.3571 L68.77 38.8108 L67.9616 38.1656 L66.9206 37.3669 L65.9903 36.6204 L65.0712 35.9293 L64.0126 35.0937 L63.2217 34.4941 L62.5303 33.9451 L61.3723 33.0858 L60.0085 32.0218 L59.5229 31.6583 L59.1079 31.3324 L57.6735 30.2827 L55.944 28.9499 L55.8241 28.8613 L55.724 28.7836 L53.9747 27.522 L52.3887 26.3156 L52.1253 26.1309 L51.7851 25.8781 L50.2759 24.8063 L49.0989 23.923 L48.4265 23.4598 L47.5334 22.8062 L46.5771 22.1379 L45.8517 21.6014 L44.7277 20.8412 L43.1905 19.7343 L42.8783 19.5199 L42.6483 19.3523 L41.0289 18.2785 L39.5016 17.1975 L39.1795 16.9927 L38.6964 16.6624 L37.33 15.7753 L36.4117 15.137 L35.4806 14.5596 L34.0332 13.5906 L33.6312 13.3353 L33.3706 13.1577 L31.7818 12.198 L30.3983 11.2926 L29.9324 11.028 L29.1143 10.5187 L28.083 9.9133 L27.4908 9.535 L26.2336 8.8456 L24.6499 7.8881 L24.3842 7.7547 L23.8383 7.4468 L22.5348 6.7587 L21.8949 6.3839 L20.6854 5.8053 L19.2186 5.0106 L18.836 4.8507 L17.8618 4.375 L16.9866 3.9784 L16.6395 3.7985 L15.1372 3.2162 L14.172 2.7719 L13.2878 2.5021 L11.8172 1.9324 L11.4383 1.8573 L9.5983 1.3187 L9.5889 1.3182 L9.4973 1.3031 L7.7395 1.0448 L7.5571 1 L5.8901 1.0245 L5.7114 1.0062 L4.5199 1.3031 L4.1132 1.4235 L4.0407 1.497 L2.8617 2.4166 L2.1913 3.8856 L2.0509 4.1417 L2.0155 4.375 L2 7.1291 L2.0477 7.4468 L2.1913 8.0017"
                  style="fill:none; clip-path:url(#clipPath2);"/>
        </g>
        <g transform="translate(6,5)"
           style="stroke-linecap:butt; fill:rgb(120,0,14); text-rendering:optimizeLegibility; image-rendering:optimizeQuality; color-rendering:optimizeQuality; font-family:'Lucida Bright'; stroke-linejoin:round; stroke:rgb(120,0,14); color-interpolation:linearRGB; stroke-width:1.5;">
            <path d="M331.3857 336.3418 L331.6323 336.5466 L331.6323 336.137 L331.3857 335.8299 L330.646 334.9083 L331.1392 336.137 L331.3857 336.3418"
                  style="fill:none; clip-path:url(#clipPath2);"/>
            <path d="M26.2336 32.329 L26.9734 33.2505 L26.4802 32.0218 L26.2336 31.817 L25.987 31.6122 L25.987 32.0218 L26.2336 32.329"
                  style="fill:none; clip-path:url(#clipPath2);"/>
            <path d="M29.9324 35.708 L30.9188 38.1656 L31.7818 39.2407 L33.3846 41.2374 L33.6312 41.5446 L34.371 42.4662 L35.4806 43.8485 L35.8505 44.3093 L37.33 46.1524 L38.3164 47.3812 L39.1795 48.4563 L40.7823 50.453 L41.0289 50.7602 L41.7686 51.6818 L42.8783 53.0641 L43.2481 53.5249 L44.7277 55.368 L45.714 56.5968 L46.5771 57.6719 L48.1799 59.6686 L48.4265 59.9758 L49.1663 60.8974 L50.2759 62.2798 L50.6458 62.7405 L52.1253 64.5836 L53.1117 65.8124 L53.9747 66.8875 L55.5775 68.8842 L55.8241 69.1914 L56.5639 70.113 L57.6735 71.4954 L58.0434 71.9561 L59.5229 73.7992 L60.5093 75.028 L61.3723 76.1031 L62.9752 78.0999 L63.2217 78.407 L63.9615 79.3286 L65.0712 80.711 L65.441 81.1717 L66.9206 83.0149 L67.9069 84.2436 L68.77 85.3188 L70.3728 87.3155 L70.6194 87.6227 L71.3591 88.5443 L72.4688 89.9266 L72.8387 90.3874 L74.3182 92.2305 L75.3045 93.4592 L76.1676 94.5344 L77.7704 96.5311 L78.017 96.8383 L78.7568 97.7599 L79.8664 99.1422 L80.2363 99.603 L81.7158 101.4461 L82.7022 102.6748 L83.5652 103.75 L85.168 105.7467 L85.4146 106.0539 L86.1544 106.9755 L87.264 108.3578 L87.6339 108.8186 L89.1134 110.6617 L90.0998 111.8904 L90.9628 112.9656 L92.5657 114.9623 L92.8123 115.2695 L93.552 116.1911 L94.6617 117.5734 L95.0315 118.0342 L96.5111 119.8773 L97.4974 121.1061 L98.3605 122.1812 L99.9633 124.1779 L100.2099 124.4851 L100.9496 125.4067 L102.0593 126.789 L102.4292 127.2498 L103.9087 129.0929 L104.8951 130.3217 L105.7581 131.3969 L107.3609 133.3935 L107.6075 133.7007 L108.3473 134.6223 L109.4569 136.0046 L109.8268 136.4654 L111.3063 138.3085 L112.2927 139.5373 L113.1557 140.6124 L114.7586 142.6091 L115.0051 142.9164 L115.7449 143.8379 L116.8545 145.2202 L117.2244 145.681 L118.704 147.5242 L119.6903 148.7529 L120.5534 149.8281 L122.1562 151.8248 L122.4028 152.132 L123.1425 153.0535 L124.2522 154.4359 L124.6221 154.8966 L126.1016 156.7398 L127.0879 157.9685 L127.951 159.0437 L129.5538 161.0404 L129.8004 161.3476 L130.5402 162.2691 L131.6498 163.6515 L132.0197 164.1123 L133.4992 165.9554 L134.4855 167.1841 L135.3486 168.2593 L136.9514 170.256 L137.198 170.5632 L137.9378 171.4847 L139.0474 172.8671 L139.4173 173.3279 L140.8968 175.171 L141.8832 176.3997 L142.7462 177.4749 L144.3491 179.4716 L144.5956 179.7788 L145.3354 180.7003 L146.4451 182.0827 L146.8149 182.5435 L148.2945 184.018 L149.8973 185.6154 L150.1439 185.8201 L150.3905 186.0249 L151.9933 187.3561 L153.5961 188.6872 L153.8427 188.892 L154.0893 189.0968 L155.6921 190.428 L157.2949 191.7591 L157.5415 191.9639 L157.7881 192.1687 L159.3909 193.4998 L160.9937 194.831 L161.2403 195.0358 L161.4869 195.2406 L163.0897 196.5717 L164.6925 197.9028 L164.9391 198.1076 L165.1857 198.3124 L166.7885 199.6436 L168.3914 200.9747 L168.6379 201.1795 L168.8845 201.3843 L170.4874 202.7154 L172.0902 204.0466 L172.3368 204.2514 L172.5833 204.4562 L174.1862 205.7873 L175.789 207.1185 L176.0356 207.3232 L176.2822 207.528 L177.885 208.8592 L179.4878 210.1903 L179.7344 210.3951 L179.981 210.5999 L181.5838 211.931 L183.1866 213.2622 L183.4332 213.467 L183.6798 213.6718 L185.2826 215.0029 L186.8854 216.3341 L187.132 216.5388 L187.3786 216.7437 L188.9814 218.0748 L190.5842 219.4059 L190.8308 219.6107 L191.0774 219.8155 L192.6802 221.1467 L194.2831 222.4778 L194.5296 222.6826 L194.7762 222.8874 L196.379 224.2185 L197.9819 225.5497 L198.2285 225.7545 L198.475 225.9593 L200.0779 227.2904 L201.6807 228.6216 L201.9273 228.8263 L202.1739 229.0311 L203.7767 230.3623 L205.3795 231.6934 L205.6261 231.8982 L205.8727 232.103 L207.4755 233.4342 L209.0783 234.7653 L209.3249 234.9701 L209.5715 235.1749 L211.1743 236.506 L212.7771 237.8372 L213.0237 238.042 L213.2703 238.2467 L214.8731 239.5779 L216.4759 240.909 L216.7225 241.1138 L216.9691 241.3186 L218.5719 242.6498 L220.1747 243.9809 L220.4213 244.1857 L220.6679 244.3905 L222.2708 245.7216 L223.8736 247.0528 L224.1201 247.2576 L224.3667 247.4624 L225.9696 248.7935 L227.5724 250.1246 L227.819 250.3295 L228.0656 250.5342 L229.6684 251.8654 L231.2712 253.1965 L231.5178 253.4013 L231.7644 253.6061 L233.3672 254.9373 L234.97 256.2684 L235.2166 256.4732 L235.4632 256.678 L237.066 258.0091 L238.6688 259.3403 L238.9154 259.545 L239.162 259.7498 L240.7648 261.081 L242.3676 262.4121 L242.6142 262.6169 L242.8608 262.8217 L244.4636 264.1529 L246.0665 265.484 L246.313 265.6888 L246.5596 265.8936 L248.1624 267.2247 L249.7652 268.5559 L250.0119 268.7607 L250.2584 268.9655 L251.8613 270.2966 L253.4641 271.6277 L253.7106 271.8325 L253.9572 272.0374 L255.5601 273.3685 L257.1629 274.6996 L257.4095 274.9044 L257.6561 275.1092 L259.2589 276.4403 L260.8617 277.7715 L261.1083 277.9763 L261.3549 278.1811 L262.9577 279.5122 L264.5605 280.8434 L264.8071 281.0482 L265.0537 281.2529 L266.6565 282.5841 L268.2593 283.9152 L268.5059 284.12 L268.7525 284.3248 L270.3553 285.656 L271.9582 286.9871 L272.2047 287.1919 L272.4513 287.3967 L274.0541 288.7278 L275.657 290.059 L275.9035 290.2638 L276.1501 290.4686 L277.753 291.7997 L279.3558 293.1309 L279.6024 293.3356 L279.8489 293.5404 L281.4518 294.8716 L283.0546 296.2027 L283.3012 296.4075 L283.5478 296.6123 L285.1506 297.9435 L286.7534 299.2746 L287 299.4794 L287.2466 299.6842 L288.8494 301.0153 L290.4522 302.3465 L290.6988 302.5512 L290.9454 302.756 L292.5482 304.0872 L294.151 305.4183 L294.3976 305.6231 L294.6442 305.8279 L296.247 307.1591 L297.8498 308.4902 L298.0964 308.695 L298.343 308.8998 L299.9458 310.2309 L301.5486 311.5621 L301.7952 311.7669 L302.0418 311.9716 L303.6447 313.3028 L305.2475 314.6339 L305.494 314.8387 L305.7406 315.0435 L307.3435 316.3747 L308.9463 317.7058 L309.1929 317.9106 L309.4395 318.1154 L311.0423 319.4465 L312.6451 320.7777 L312.8917 320.9825 L313.1383 321.1873 L314.7411 322.5184 L316.3439 323.8495 L316.5905 324.0544 L316.8371 324.2592 L318.4399 325.5903 L320.0427 326.9214 L320.2893 327.1262 L320.5359 327.331 L322.1387 328.6622 L323.7415 329.9933 L323.9881 330.1981 L324.2347 330.4029 L325.8375 331.0685 L327.4403 333.0652 L327.687 333.27 L327.9335 333.4748 L328.4267 333.0652 L327.687 332.4508 L326.7006 329.9933 L325.8375 328.9182 L324.2347 326.9214 L323.9881 326.6142 L323.2484 325.6927 L322.1387 324.3103 L321.7688 323.8495 L320.2893 322.0064 L319.3029 320.7777 L318.4399 319.7025 L316.8371 317.7058 L316.5905 317.3986 L315.8507 316.4771 L314.7411 315.0947 L314.3712 314.6339 L312.8917 312.7908 L311.9053 311.5621 L311.0423 310.4869 L309.4395 308.4902 L309.1929 308.183 L308.4531 307.2614 L307.3435 305.8791 L306.9736 305.4183 L305.494 303.5752 L304.5077 302.3465 L303.6447 301.2713 L302.0418 299.2746 L301.7952 298.9674 L301.0555 298.0458 L299.9458 296.6635 L299.576 296.2027 L298.0964 294.3596 L297.1101 293.1309 L296.247 292.0557 L294.6442 290.059 L294.3976 289.7518 L293.6578 288.8302 L292.5482 287.4479 L292.1783 286.9871 L290.6988 285.144 L289.7124 283.9152 L288.8494 282.8401 L287.2466 280.8434 L287 280.5362 L286.2602 279.6146 L285.1506 278.2323 L284.7807 277.7715 L283.3012 275.9284 L282.3148 274.6996 L281.4518 273.6245 L279.8489 271.6277 L279.6024 271.3206 L278.8626 270.399 L277.753 269.0167 L277.3831 268.5559 L275.9035 266.7128 L274.9172 265.484 L274.0541 264.4088 L272.4513 262.4121 L272.2047 262.1049 L271.465 261.1834 L270.3553 259.801 L269.9854 259.3403 L268.5059 257.4971 L267.5196 256.2684 L266.6565 255.1932 L265.0537 253.1965 L264.8071 252.8893 L264.0674 251.9678 L262.9577 250.5854 L262.5878 250.1246 L261.1083 248.2815 L260.1219 247.0528 L259.2589 245.9776 L257.6561 243.9809 L257.4095 243.6737 L256.6697 242.7522 L255.5601 241.3698 L255.1902 240.909 L253.7106 239.0659 L252.7243 237.8372 L251.8613 236.762 L250.2584 234.7653 L250.0119 234.4581 L249.2721 233.5365 L248.1624 232.1542 L247.7926 231.6934 L246.313 229.8503 L245.3267 228.6216 L244.4636 227.5464 L242.8608 225.5497 L242.6142 225.2425 L241.8745 224.3209 L240.7648 222.9386 L240.3949 222.4778 L238.9154 220.6347 L237.9291 219.4059 L237.066 218.3308 L235.4632 216.3341 L235.2166 216.0269 L234.4768 215.1053 L233.3672 213.723 L232.9973 213.2622 L231.5178 211.4191 L230.5314 210.1903 L229.6684 209.1152 L228.0656 207.1185 L227.819 206.8113 L227.0792 205.8897 L225.9696 204.5074 L225.5997 204.0466 L224.1201 202.2035 L223.1338 200.9747 L222.2708 199.8996 L220.6679 197.9028 L220.4213 197.5956 L219.6816 196.6741 L218.5719 195.2917 L218.2021 194.831 L216.7225 192.9878 L215.7362 191.7591 L214.8731 190.6839 L213.2703 188.6872 L213.0237 188.3801 L212.2839 187.4585 L211.1743 186.0761 L210.8044 185.6154 L209.3249 184.1409 L207.7221 182.5435 L207.4755 182.3387 L207.2289 182.1339 L205.6261 180.8027 L204.0233 179.4716 L203.7767 179.2668 L203.5301 179.062 L201.9273 177.7309 L200.3244 176.3997 L200.0779 176.1949 L199.8313 175.9902 L198.2285 174.659 L196.6256 173.3279 L196.379 173.1231 L196.1324 172.9183 L194.5296 171.5871 L192.9268 170.256 L192.6802 170.0512 L192.4336 169.8464 L190.8308 168.5153 L189.228 167.1841 L188.9814 166.9793 L188.7348 166.7746 L187.132 165.4434 L185.5292 164.1123 L185.2826 163.9075 L185.036 163.7027 L183.4332 162.3715 L181.8304 161.0404 L181.5838 160.8356 L181.3372 160.6308 L179.7344 159.2997 L178.1316 157.9685 L177.885 157.7637 L177.6384 157.5589 L176.0356 156.2278 L174.4328 154.8966 L174.1862 154.6918 L173.9396 154.4871 L172.3368 153.1559 L170.7339 151.8248 L170.4874 151.62 L170.2408 151.4152 L168.6379 150.084 L167.0351 148.7529 L166.7885 148.5481 L166.5419 148.3433 L164.9391 147.0122 L163.3363 145.681 L163.0897 145.4762 L162.8431 145.2715 L161.2403 143.9403 L159.6375 142.6091 L159.3909 142.4044 L159.1443 142.1996 L157.5415 140.8684 L155.9387 139.5373 L155.6921 139.3325 L155.4455 139.1277 L153.8427 137.7966 L152.2399 136.4654 L151.9933 136.2606 L151.7467 136.0558 L150.1439 134.7247 L148.541 133.3935 L148.2945 133.1888 L148.0479 132.984 L146.4451 131.6528 L144.8422 130.3217 L144.5956 130.1169 L144.3491 129.9121 L142.7462 128.581 L141.1434 127.2498 L140.8968 127.045 L140.6502 126.8402 L139.0474 125.5091 L137.4446 124.1779 L137.198 123.9731 L136.9514 123.7683 L135.3486 122.4372 L133.7458 121.1061 L133.4992 120.9013 L133.2526 120.6965 L131.6498 119.3654 L130.047 118.0342 L129.8004 117.8294 L129.5538 117.6246 L127.951 116.2935 L126.3482 114.9623 L126.1016 114.7575 L125.855 114.5527 L124.2522 113.2216 L122.6494 111.8904 L122.4028 111.6856 L122.1562 111.4809 L120.5534 110.1497 L118.9505 108.8186 L118.704 108.6138 L118.4574 108.409 L116.8545 107.0779 L115.2517 105.7467 L115.0051 105.5419 L114.7586 105.3371 L113.1557 104.006 L111.5529 102.6748 L111.3063 102.47 L111.0597 102.2653 L109.4569 100.9341 L107.8541 99.603 L107.6075 99.3982 L107.3609 99.1934 L105.7581 97.8622 L104.1553 96.5311 L103.9087 96.3263 L103.6621 96.1215 L102.0593 94.7904 L100.4565 93.4592 L100.2099 93.2544 L99.9633 93.0497 L98.3605 91.7185 L96.7577 90.3874 L96.5111 90.1826 L96.2645 89.9778 L94.6617 88.6466 L93.0588 87.3155 L92.8123 87.1107 L92.5657 86.9059 L90.9628 85.5748 L89.36 84.2436 L89.1134 84.0388 L88.8669 83.834 L87.264 82.5029 L85.6612 81.1717 L85.4146 80.9669 L85.168 80.7621 L83.5652 79.431 L81.9624 78.0999 L81.7158 77.8951 L81.4692 77.6903 L79.8664 76.3591 L78.2636 75.028 L78.017 74.8232 L77.7704 74.6184 L76.1676 73.2873 L74.5648 71.9561 L74.3182 71.7513 L74.0716 71.5465 L72.4688 70.2154 L70.866 68.8842 L70.6194 68.6795 L70.3728 68.4747 L68.77 67.1435 L67.1671 65.8124 L66.9206 65.6076 L66.674 65.4028 L65.0712 64.0717 L63.4683 62.7405 L63.2217 62.5357 L62.9752 62.3309 L61.3723 60.9998 L59.7695 59.6686 L59.5229 59.4639 L59.2763 59.259 L57.6735 57.9279 L56.0707 56.5968 L55.8241 56.392 L55.5775 56.1872 L53.9747 54.856 L52.3719 53.5249 L52.1253 53.3201 L51.8787 53.1153 L50.2759 51.7841 L48.6731 50.453 L48.4265 50.2482 L48.1799 50.0434 L46.5771 48.7123 L44.9743 47.3812 L44.7277 47.1764 L44.4811 46.9716 L42.8783 45.6404 L41.2754 44.3093 L41.0289 44.1045 L40.7823 43.8997 L39.1795 42.5685 L37.5766 41.2374 L37.33 41.0326 L37.0835 40.8278 L35.4806 39.4967 L33.8778 38.1656 L33.6312 37.9608 L33.3846 37.756 L31.7818 37.0904 L30.179 35.0937 L29.9324 34.8889 L29.6858 34.6841 L29.1927 35.0937 L29.9324 35.708"
                  style="fill:none; clip-path:url(#clipPath2);"/>
        </g>
        <g transform="translate(6,5)"
           style="stroke-linecap:butt; text-rendering:optimizeLegibility; color-rendering:optimizeQuality; image-rendering:optimizeQuality; font-family:'Lucida Bright'; stroke-linejoin:round; color-interpolation:linearRGB;">
            <path d="M2 184.0794 L389 184.0794"
                  style="fill:none; clip-path:url(#clipPath1);"/>
        </g>
        <g transform="translate(6,5)"
           style="stroke-linecap:butt; text-rendering:optimizeLegibility; color-rendering:optimizeQuality; image-rendering:optimizeQuality; font-family:'Lucida Bright'; stroke-linejoin:round; color-interpolation:linearRGB;">
            <path d="M283.8906 218.9688 L283 216.9531 L282.625 216.2031 Q282.4375 215.7812 282.3047 215.6719 Q282.1719 215.5625 281.8281 215.5312 L281.3906 215.5 L281.25 215.5 L281.3281 215.0469 L283.7188 215.0469 L285.1562 218.1719 L285.5 217.9062 Q286.9219 216.7344 286.9219 215.9688 Q286.9219 215.5625 286.6094 215.0469 L288.0469 215.0469 Q288.125 215.3125 288.125 215.5 Q288.125 216.125 287.6797 216.6406 Q287.2344 217.1562 285.6875 218.3125 L285.3438 218.5781 L286.5469 221.1094 L286.9844 221.9219 Q287.2656 222.4844 287.7344 222.5156 L288.2031 222.5312 L288.3281 222.5469 L288.25 223 L285.8438 223 L284.125 219.375 L283.5 219.9375 Q282 221.2812 282 222.25 Q282 222.6406 282.25 223 L280.7031 223 Q280.6562 222.7969 280.6562 222.6875 Q280.6562 221.75 282.0312 220.5469 L283.1719 219.5938 L283.8906 218.9688 Z"
                  style="stroke:none; clip-path:url(#clipPath3);"/>
        </g>
        <g transform="translate(6,5)"
           style="text-rendering:optimizeLegibility; font-family:'Lucida Bright'; color-interpolation:linearRGB; color-rendering:optimizeQuality; image-rendering:optimizeQuality;">
            <path d="M86.5243 184.0794 L86.5243 188.0794"
                  style="fill:none; clip-path:url(#clipPath1);"/>
        </g>
        <g style="text-rendering:optimizeLegibility; font-family:'Lucida Bright'; color-interpolation:linearRGB; color-rendering:optimizeQuality; image-rendering:optimizeQuality;">
            <path d="M95.4531 205.8906 L85.5469 205.8906 L85.5469 205.1094 L95.4531 205.1094 L95.4531 205.8906 Z"
                  style="stroke:none; clip-path:url(#clipPath5);"/>
        </g>
        <g style="text-rendering:optimizeLegibility; font-family:'Lucida Bright'; color-interpolation:linearRGB; color-rendering:optimizeQuality; image-rendering:optimizeQuality;">
            <path d="M98.2812 199.0625 L98.2812 208.1094 L98.3281 208.8281 Q98.3594 209.2656 98.5859 209.3984 Q98.8125 209.5312 99.5156 209.5312 L100.375 209.5469 L100.375 210 L94.7656 210 L94.7656 209.5469 L95.625 209.5312 Q96.3125 209.5312 96.5391 209.3984 Q96.7656 209.2656 96.7969 208.8281 L96.8438 208.1094 L96.8438 201.375 L96.7969 200.6406 Q96.7969 200.125 96.5 200.125 Q96.2812 200.125 95.4844 200.2656 L94.7656 200.3906 L94.7656 199.9375 L98.2812 199.0625 Z"
                  style="stroke:none; clip-path:url(#clipPath4);"/>
        </g>
        <g transform="translate(6,5)"
           style="text-rendering:optimizeLegibility; font-family:'Lucida Bright'; color-interpolation:linearRGB; color-rendering:optimizeQuality; image-rendering:optimizeQuality;">
            <path d="M178.8097 184.0794 L178.8097 188.0794"
                  style="fill:none; clip-path:url(#clipPath1);"/>
            <path d="M175.5 208.2656 Q173.8281 208.2656 172.7969 206.7109 Q171.7656 205.1562 171.7656 202.6094 Q171.7656 200 172.7969 198.4453 Q173.8281 196.8906 175.5625 196.8906 Q177.2969 196.8906 178.3281 198.4375 Q179.3594 199.9844 179.3594 202.5938 Q179.3594 205.2031 178.3203 206.7344 Q177.2812 208.2656 175.5 208.2656 ZM175.5312 207.8125 Q177.8281 207.9219 177.8281 202.5 Q177.8281 197.3281 175.5625 197.3281 Q173.3125 197.3281 173.3125 202.5781 Q173.3125 207.7188 175.5312 207.8125 Z"
                  style="clip-path:url(#clipPath4); stroke:none;"
                  transform="translate(-6,-5)"/>
        </g>
        <g transform="translate(6,5)"
           style="text-rendering:optimizeLegibility; font-family:'Lucida Bright'; color-interpolation:linearRGB; color-rendering:optimizeQuality; image-rendering:optimizeQuality;">
            <path d="M271.0951 184.0794 L271.0951 188.0794"
                  style="fill:none; clip-path:url(#clipPath1);"/>
            <path d="M278.2812 199.0625 L278.2812 208.1094 L278.3281 208.8281 Q278.3594 209.2656 278.5859 209.3984 Q278.8125 209.5312 279.5156 209.5312 L280.375 209.5469 L280.375 210 L274.7656 210 L274.7656 209.5469 L275.625 209.5312 Q276.3125 209.5312 276.5391 209.3984 Q276.7656 209.2656 276.7969 208.8281 L276.8438 208.1094 L276.8438 201.375 L276.7969 200.6406 Q276.7969 200.125 276.5 200.125 Q276.2812 200.125 275.4844 200.2656 L274.7656 200.3906 L274.7656 199.9375 L278.2812 199.0625 Z"
                  style="clip-path:url(#clipPath4); stroke:none;"
                  transform="translate(-6,-5)"/>
        </g>
        <g transform="translate(6,5)"
           style="text-rendering:optimizeLegibility; font-family:'Lucida Bright'; color-interpolation:linearRGB; color-rendering:optimizeQuality; image-rendering:optimizeQuality;">
            <path d="M363.3805 184.0794 L363.3805 188.0794"
                  style="fill:none; clip-path:url(#clipPath1);"/>
            <path d="M366.1719 210 L366.1719 209.2812 Q366.7969 207.4531 368.125 206.2188 L368.9062 205.5 Q370.25 204.2344 370.6953 203.4922 Q371.1406 202.75 371.1406 201.7969 Q371.1406 200.6875 370.5938 200.0156 Q370.0469 199.3438 369.1562 199.3438 Q368.1562 199.3438 367.4688 199.8906 Q367.2188 200.0938 367.1406 201.3438 L367.1406 201.5156 L366.4062 201.5156 L366.4062 199.5469 Q367.9844 198.875 369.3281 198.875 Q370.7969 198.875 371.7344 199.7031 Q372.6719 200.5312 372.6719 201.7969 Q372.6719 203.5156 370.5469 204.9688 L369.6719 205.5781 Q367.5625 207.0312 367.3594 208.7344 L372.625 208.7344 L372.625 210 L366.1719 210 Z"
                  style="clip-path:url(#clipPath4); stroke:none;"
                  transform="translate(-6,-5)"/>
        </g>
        <g transform="translate(6,5)"
           style="text-rendering:optimizeLegibility; font-family:'Lucida Bright'; color-interpolation:linearRGB; color-rendering:optimizeQuality; image-rendering:optimizeQuality;">
            <path d="M40.3816 184.0794 L40.3816 186.0794"
                  style="fill:none; clip-path:url(#clipPath1);"/>
        </g>
        <g transform="translate(6,5)"
           style="text-rendering:optimizeLegibility; font-family:'Lucida Bright'; color-interpolation:linearRGB; color-rendering:optimizeQuality; image-rendering:optimizeQuality;">
            <path d="M132.667 184.0794 L132.667 186.0794"
                  style="fill:none; clip-path:url(#clipPath1);"/>
        </g>
        <g transform="translate(6,5)"
           style="text-rendering:optimizeLegibility; font-family:'Lucida Bright'; color-interpolation:linearRGB; color-rendering:optimizeQuality; image-rendering:optimizeQuality;">
            <path d="M224.9524 184.0794 L224.9524 186.0794"
                  style="fill:none; clip-path:url(#clipPath1);"/>
        </g>
        <g transform="translate(6,5)"
           style="text-rendering:optimizeLegibility; font-family:'Lucida Bright'; color-interpolation:linearRGB; color-rendering:optimizeQuality; image-rendering:optimizeQuality;">
            <path d="M317.2378 184.0794 L317.2378 186.0794"
                  style="fill:none; clip-path:url(#clipPath1);"/>
        </g>
        <g transform="translate(6,5)"
           style="stroke-linecap:butt; text-rendering:optimizeLegibility; color-rendering:optimizeQuality; image-rendering:optimizeQuality; font-family:'Lucida Bright'; stroke-linejoin:round; color-interpolation:linearRGB;">
            <path d="M178.8097 388 L178.8097 1"
                  style="fill:none; clip-path:url(#clipPath1);"/>
        </g>
        <g transform="translate(6,5)"
           style="stroke-linecap:butt; text-rendering:optimizeLegibility; color-rendering:optimizeQuality; image-rendering:optimizeQuality; font-family:'Lucida Bright'; stroke-linejoin:round; color-interpolation:linearRGB;">
            <path d="M118.9688 100.8906 Q120.3125 99.9531 122.3438 98.0781 L122.625 97.8125 Q122.5312 96.1094 122.1875 94.2266 Q121.8438 92.3438 121.4688 91.5 Q121.1406 90.7969 120.9531 90.6719 Q120.7656 90.5469 119.9375 90.5 L119.7656 90.5 L119.8438 90.0469 L122.5156 90.0469 Q123.6562 92.7344 123.8125 96.3594 L124.7188 95.1875 Q126.0469 93.5 126.4922 92.7109 Q126.9375 91.9219 126.9375 91.25 Q126.9375 90.5625 126.3594 90.0469 L128.1719 90.0469 Q128.3281 90.375 128.3281 90.6719 Q128.3281 91.2969 127.9219 91.9766 Q127.5156 92.6562 126.2188 94.2031 L123.4531 97.5312 Q121.7969 99.5156 120.9688 100.8906 L118.9688 100.8906 Z"
                  style="stroke:none; clip-path:url(#clipPath6);"/>
        </g>
        <g transform="translate(6,5)"
           style="text-rendering:optimizeLegibility; font-family:'Lucida Bright'; color-interpolation:linearRGB; color-rendering:optimizeQuality; image-rendering:optimizeQuality;">
            <path d="M178.8097 337.3658 L174.8097 337.3658"
                  style="fill:none; clip-path:url(#clipPath1);"/>
        </g>
        <g style="text-rendering:optimizeLegibility; font-family:'Lucida Bright'; color-interpolation:linearRGB; color-rendering:optimizeQuality; image-rendering:optimizeQuality;">
            <path d="M170.4531 343.8906 L160.5469 343.8906 L160.5469 343.1094 L170.4531 343.1094 L170.4531 343.8906 Z"
                  style="stroke:none; clip-path:url(#clipPath7);"/>
        </g>
        <g style="text-rendering:optimizeLegibility; font-family:'Lucida Bright'; color-interpolation:linearRGB; color-rendering:optimizeQuality; image-rendering:optimizeQuality;">
            <path d="M173.2812 337.0625 L173.2812 346.1094 L173.3281 346.8281 Q173.3594 347.2656 173.5859 347.3984 Q173.8125 347.5312 174.5156 347.5312 L175.375 347.5469 L175.375 348 L169.7656 348 L169.7656 347.5469 L170.625 347.5312 Q171.3125 347.5312 171.5391 347.3984 Q171.7656 347.2656 171.7969 346.8281 L171.8438 346.1094 L171.8438 339.375 L171.7969 338.6406 Q171.7969 338.125 171.5 338.125 Q171.2812 338.125 170.4844 338.2656 L169.7656 338.3906 L169.7656 337.9375 L173.2812 337.0625 Z"
                  style="stroke:none; clip-path:url(#clipPath4);"/>
        </g>
        <g transform="translate(6,5)"
           style="text-rendering:optimizeLegibility; font-family:'Lucida Bright'; color-interpolation:linearRGB; color-rendering:optimizeQuality; image-rendering:optimizeQuality;">
            <path d="M178.8097 260.7226 L174.8097 260.7226"
                  style="fill:none; clip-path:url(#clipPath1);"/>
        </g>
        <g style="text-rendering:optimizeLegibility; font-family:'Lucida Bright'; color-interpolation:linearRGB; color-rendering:optimizeQuality; image-rendering:optimizeQuality;">
            <path d="M156.4531 266.8906 L146.5469 266.8906 L146.5469 266.1094 L156.4531 266.1094 L156.4531 266.8906 Z"
                  style="stroke:none; clip-path:url(#clipPath8);"/>
        </g>
        <g style="text-rendering:optimizeLegibility; font-family:'Lucida Bright'; color-interpolation:linearRGB; color-rendering:optimizeQuality; image-rendering:optimizeQuality;">
            <path d="M158.5 271.2656 Q156.8281 271.2656 155.7969 269.7109 Q154.7656 268.1562 154.7656 265.6094 Q154.7656 263 155.7969 261.4453 Q156.8281 259.8906 158.5625 259.8906 Q160.2969 259.8906 161.3281 261.4375 Q162.3594 262.9844 162.3594 265.5938 Q162.3594 268.2031 161.3203 269.7344 Q160.2812 271.2656 158.5 271.2656 ZM158.5312 270.8125 Q160.8281 270.9219 160.8281 265.5 Q160.8281 260.3281 158.5625 260.3281 Q156.3125 260.3281 156.3125 265.5781 Q156.3125 270.7188 158.5312 270.8125 ZM164.2041 271 L164.2041 269.1875 L166.0166 269.1875 L166.0166 271 L164.2041 271 ZM168.8218 271.0156 L168.8218 269.1875 L169.5405 269.1875 L169.5562 269.3594 L169.5718 269.9219 Q169.6187 270.8125 170.978 270.8125 Q171.9937 270.8125 172.5874 270.0234 Q173.1812 269.2344 173.1812 267.875 Q173.1812 266.3281 172.2593 265.6641 Q171.3374 265 169.2593 265 L168.9937 265 L168.9937 260.1562 L174.4624 260.1562 L174.4624 261.4219 L169.4468 261.4219 L169.4468 264.4531 L170.1187 264.4531 Q174.6968 264.4531 174.6968 267.9375 Q174.6968 269.5 173.6421 270.3828 Q172.5874 271.2656 170.728 271.2656 Q169.8062 271.2656 168.8218 271.0156 Z"
                  style="stroke:none; clip-path:url(#clipPath4);"/>
        </g>
        <g transform="translate(6,5)"
           style="text-rendering:optimizeLegibility; font-family:'Lucida Bright'; color-interpolation:linearRGB; color-rendering:optimizeQuality; image-rendering:optimizeQuality;">
            <path d="M178.8097 184.0794 L174.8097 184.0794"
                  style="fill:none; clip-path:url(#clipPath1);"/>
        </g>
        <g transform="translate(6,5)"
           style="text-rendering:optimizeLegibility; font-family:'Lucida Bright'; color-interpolation:linearRGB; color-rendering:optimizeQuality; image-rendering:optimizeQuality;">
            <path d="M178.8097 107.4362 L174.8097 107.4362"
                  style="fill:none; clip-path:url(#clipPath1);"/>
            <path d="M158.5 118.2656 Q156.8281 118.2656 155.7969 116.7109 Q154.7656 115.1562 154.7656 112.6094 Q154.7656 110 155.7969 108.4453 Q156.8281 106.8906 158.5625 106.8906 Q160.2969 106.8906 161.3281 108.4375 Q162.3594 109.9844 162.3594 112.5938 Q162.3594 115.2031 161.3203 116.7344 Q160.2812 118.2656 158.5 118.2656 ZM158.5312 117.8125 Q160.8281 117.9219 160.8281 112.5 Q160.8281 107.3281 158.5625 107.3281 Q156.3125 107.3281 156.3125 112.5781 Q156.3125 117.7188 158.5312 117.8125 ZM164.2041 118 L164.2041 116.1875 L166.0166 116.1875 L166.0166 118 L164.2041 118 ZM168.8218 118.0156 L168.8218 116.1875 L169.5405 116.1875 L169.5562 116.3594 L169.5718 116.9219 Q169.6187 117.8125 170.978 117.8125 Q171.9937 117.8125 172.5874 117.0234 Q173.1812 116.2344 173.1812 114.875 Q173.1812 113.3281 172.2593 112.6641 Q171.3374 112 169.2593 112 L168.9937 112 L168.9937 107.1562 L174.4624 107.1562 L174.4624 108.4219 L169.4468 108.4219 L169.4468 111.4531 L170.1187 111.4531 Q174.6968 111.4531 174.6968 114.9375 Q174.6968 116.5 173.6421 117.3828 Q172.5874 118.2656 170.728 118.2656 Q169.8062 118.2656 168.8218 118.0156 Z"
                  style="clip-path:url(#clipPath4); stroke:none;"
                  transform="translate(-6,-5)"/>
        </g>
        <g transform="translate(6,5)"
           style="text-rendering:optimizeLegibility; font-family:'Lucida Bright'; color-interpolation:linearRGB; color-rendering:optimizeQuality; image-rendering:optimizeQuality;">
            <path d="M178.8097 30.7931 L174.8097 30.7931"
                  style="fill:none; clip-path:url(#clipPath1);"/>
            <path d="M173.2812 30.0625 L173.2812 39.1094 L173.3281 39.8281 Q173.3594 40.2656 173.5859 40.3984 Q173.8125 40.5312 174.5156 40.5312 L175.375 40.5469 L175.375 41 L169.7656 41 L169.7656 40.5469 L170.625 40.5312 Q171.3125 40.5312 171.5391 40.3984 Q171.7656 40.2656 171.7969 39.8281 L171.8438 39.1094 L171.8438 32.375 L171.7969 31.6406 Q171.7969 31.125 171.5 31.125 Q171.2812 31.125 170.4844 31.2656 L169.7656 31.3906 L169.7656 30.9375 L173.2812 30.0625 Z"
                  style="clip-path:url(#clipPath4); stroke:none;"
                  transform="translate(-6,-5)"/>
        </g>
        <g transform="translate(6,5)"
           style="text-rendering:optimizeLegibility; font-family:'Lucida Bright'; color-interpolation:linearRGB; color-rendering:optimizeQuality; image-rendering:optimizeQuality;">
            <path d="M178.8097 383.3517 L176.8097 383.3517"
                  style="fill:none; clip-path:url(#clipPath1);"/>
        </g>
        <g transform="translate(6,5)"
           style="text-rendering:optimizeLegibility; font-family:'Lucida Bright'; color-interpolation:linearRGB; color-rendering:optimizeQuality; image-rendering:optimizeQuality;">
            <path d="M178.8097 368.0231 L176.8097 368.0231"
                  style="fill:none; clip-path:url(#clipPath1);"/>
        </g>
        <g transform="translate(6,5)"
           style="text-rendering:optimizeLegibility; font-family:'Lucida Bright'; color-interpolation:linearRGB; color-rendering:optimizeQuality; image-rendering:optimizeQuality;">
            <path d="M178.8097 352.6944 L176.8097 352.6944"
                  style="fill:none; clip-path:url(#clipPath1);"/>
        </g>
        <g transform="translate(6,5)"
           style="text-rendering:optimizeLegibility; font-family:'Lucida Bright'; color-interpolation:linearRGB; color-rendering:optimizeQuality; image-rendering:optimizeQuality;">
            <path d="M178.8097 322.0372 L176.8097 322.0372"
                  style="fill:none; clip-path:url(#clipPath1);"/>
        </g>
        <g transform="translate(6,5)"
           style="text-rendering:optimizeLegibility; font-family:'Lucida Bright'; color-interpolation:linearRGB; color-rendering:optimizeQuality; image-rendering:optimizeQuality;">
            <path d="M178.8097 306.7085 L176.8097 306.7085"
                  style="fill:none; clip-path:url(#clipPath1);"/>
        </g>
        <g transform="translate(6,5)"
           style="text-rendering:optimizeLegibility; font-family:'Lucida Bright'; color-interpolation:linearRGB; color-rendering:optimizeQuality; image-rendering:optimizeQuality;">
            <path d="M178.8097 291.3799 L176.8097 291.3799"
                  style="fill:none; clip-path:url(#clipPath1);"/>
        </g>
        <g transform="translate(6,5)"
           style="text-rendering:optimizeLegibility; font-family:'Lucida Bright'; color-interpolation:linearRGB; color-rendering:optimizeQuality; image-rendering:optimizeQuality;">
            <path d="M178.8097 276.0512 L176.8097 276.0512"
                  style="fill:none; clip-path:url(#clipPath1);"/>
        </g>
        <g transform="translate(6,5)"
           style="text-rendering:optimizeLegibility; font-family:'Lucida Bright'; color-interpolation:linearRGB; color-rendering:optimizeQuality; image-rendering:optimizeQuality;">
            <path d="M178.8097 245.394 L176.8097 245.394"
                  style="fill:none; clip-path:url(#clipPath1);"/>
        </g>
        <g transform="translate(6,5)"
           style="text-rendering:optimizeLegibility; font-family:'Lucida Bright'; color-interpolation:linearRGB; color-rendering:optimizeQuality; image-rendering:optimizeQuality;">
            <path d="M178.8097 230.0653 L176.8097 230.0653"
                  style="fill:none; clip-path:url(#clipPath1);"/>
        </g>
        <g transform="translate(6,5)"
           style="text-rendering:optimizeLegibility; font-family:'Lucida Bright'; color-interpolation:linearRGB; color-rendering:optimizeQuality; image-rendering:optimizeQuality;">
            <path d="M178.8097 214.7367 L176.8097 214.7367"
                  style="fill:none; clip-path:url(#clipPath1);"/>
        </g>
        <g transform="translate(6,5)"
           style="text-rendering:optimizeLegibility; font-family:'Lucida Bright'; color-interpolation:linearRGB; color-rendering:optimizeQuality; image-rendering:optimizeQuality;">
            <path d="M178.8097 199.4081 L176.8097 199.4081"
                  style="fill:none; clip-path:url(#clipPath1);"/>
        </g>
        <g transform="translate(6,5)"
           style="text-rendering:optimizeLegibility; font-family:'Lucida Bright'; color-interpolation:linearRGB; color-rendering:optimizeQuality; image-rendering:optimizeQuality;">
            <path d="M178.8097 168.7508 L176.8097 168.7508"
                  style="fill:none; clip-path:url(#clipPath1);"/>
        </g>
        <g transform="translate(6,5)"
           style="text-rendering:optimizeLegibility; font-family:'Lucida Bright'; color-interpolation:linearRGB; color-rendering:optimizeQuality; image-rendering:optimizeQuality;">
            <path d="M178.8097 153.4221 L176.8097 153.4221"
                  style="fill:none; clip-path:url(#clipPath1);"/>
        </g>
        <g transform="translate(6,5)"
           style="text-rendering:optimizeLegibility; font-family:'Lucida Bright'; color-interpolation:linearRGB; color-rendering:optimizeQuality; image-rendering:optimizeQuality;">
            <path d="M178.8097 138.0935 L176.8097 138.0935"
                  style="fill:none; clip-path:url(#clipPath1);"/>
        </g>
        <g transform="translate(6,5)"
           style="text-rendering:optimizeLegibility; font-family:'Lucida Bright'; color-interpolation:linearRGB; color-rendering:optimizeQuality; image-rendering:optimizeQuality;">
            <path d="M178.8097 122.7649 L176.8097 122.7649"
                  style="fill:none; clip-path:url(#clipPath1);"/>
        </g>
        <g transform="translate(6,5)"
           style="text-rendering:optimizeLegibility; font-family:'Lucida Bright'; color-interpolation:linearRGB; color-rendering:optimizeQuality; image-rendering:optimizeQuality;">
            <path d="M178.8097 92.1076 L176.8097 92.1076"
                  style="fill:none; clip-path:url(#clipPath1);"/>
        </g>
        <g transform="translate(6,5)"
           style="text-rendering:optimizeLegibility; font-family:'Lucida Bright'; color-interpolation:linearRGB; color-rendering:optimizeQuality; image-rendering:optimizeQuality;">
            <path d="M178.8097 76.779 L176.8097 76.779"
                  style="fill:none; clip-path:url(#clipPath1);"/>
        </g>
        <g transform="translate(6,5)"
           style="text-rendering:optimizeLegibility; font-family:'Lucida Bright'; color-interpolation:linearRGB; color-rendering:optimizeQuality; image-rendering:optimizeQuality;">
            <path d="M178.8097 61.4503 L176.8097 61.4503"
                  style="fill:none; clip-path:url(#clipPath1);"/>
        </g>
        <g transform="translate(6,5)"
           style="text-rendering:optimizeLegibility; font-family:'Lucida Bright'; color-interpolation:linearRGB; color-rendering:optimizeQuality; image-rendering:optimizeQuality;">
            <path d="M178.8097 46.1217 L176.8097 46.1217"
                  style="fill:none; clip-path:url(#clipPath1);"/>
        </g>
        <g transform="translate(6,5)"
           style="text-rendering:optimizeLegibility; font-family:'Lucida Bright'; color-interpolation:linearRGB; color-rendering:optimizeQuality; image-rendering:optimizeQuality;">
            <path d="M178.8097 15.4644 L176.8097 15.4644"
                  style="fill:none; clip-path:url(#clipPath1);"/>
        </g>
    </g>
</svg>
