<?xml version="1.0" encoding="UTF-8"?>
<!DOCTYPE svg PUBLIC '-//W3C//DTD SVG 1.0//EN'
    'http://www.w3.org/TR/2001/REC-SVG-20010904/DTD/svg10.dtd' >

<svg style="stroke-dasharray:none; shape-rendering:auto; font-family:'Dialog'; text-rendering:auto; fill-opacity:1; color-interpolation:auto; color-rendering:auto; font-size:12px; fill:black; stroke:black; image-rendering:auto; stroke-miterlimit:10; stroke-linecap:square; stroke-linejoin:miter; font-style:normal; stroke-width:1; stroke-dashoffset:0; font-weight:normal; stroke-opacity:1;"
     xmlns="http://www.w3.org/2000/svg" contentScriptType="text/ecmascript"
     preserveAspectRatio="xMidYMid meet"
     xmlns:xlink="http://www.w3.org/1999/xlink" zoomAndPan="magnify"
     version="1.0" contentStyleType="text/css">
    <!--Generated by the Batik Graphics2D SVG Generator-->
    <defs id="genericDefs"/>
    <g>
        <defs id="defs1">
            <clipPath clipPathUnits="userSpaceOnUse" id="clipPath1">
                <path d="M0 0 L390 0 L390 390 L0 390 L0 0 Z"/>
            </clipPath>
            <clipPath clipPathUnits="userSpaceOnUse" id="clipPath2">
                <path d="M1 2.7373 L1 389 L390 389 L390 2.7373 Z"/>
            </clipPath>
            <clipPath clipPathUnits="userSpaceOnUse" id="clipPath3">
                <path d="M283 217 L283 235 L302 235 L302 217 Z"/>
            </clipPath>
            <clipPath clipPathUnits="userSpaceOnUse" id="clipPath4">
                <path d="M6 5 L396 5 L396 395 L6 395 L6 5 Z"/>
            </clipPath>
            <clipPath clipPathUnits="userSpaceOnUse" id="clipPath5">
                <path d="M29 206 L29 222 L37 222 L37 206 Z"/>
            </clipPath>
            <clipPath clipPathUnits="userSpaceOnUse" id="clipPath6">
                <path d="M88 206 L88 222 L96 222 L96 206 Z"/>
            </clipPath>
            <clipPath clipPathUnits="userSpaceOnUse" id="clipPath7">
                <path d="M133 206 L133 222 L141 222 L141 206 Z"/>
            </clipPath>
            <clipPath clipPathUnits="userSpaceOnUse" id="clipPath8">
                <path d="M131 90 L131 108 L151 108 L151 90 Z"/>
            </clipPath>
            <clipPath clipPathUnits="userSpaceOnUse" id="clipPath9">
                <path d="M176 375 L176 391 L184 391 L184 375 Z"/>
            </clipPath>
            <clipPath clipPathUnits="userSpaceOnUse" id="clipPath10">
                <path d="M162 283 L162 299 L170 299 L170 283 Z"/>
            </clipPath>
        </defs>
        <g transform="translate(6,5)"
           style="stroke-linecap:butt; fill:rgb(165,165,165); text-rendering:optimizeLegibility; image-rendering:optimizeQuality; color-rendering:optimizeQuality; font-family:'Lucida Bright'; stroke-linejoin:round; stroke:rgb(165,165,165); color-interpolation:linearRGB;">
            <path d="M39.3032 388 L39.3032 4.7373"
                  style="fill:none; clip-path:url(#clipPath1);"/>
            <path d="M91.6236 388 L91.6236 4.7373"
                  style="fill:none; clip-path:url(#clipPath1);"/>
            <path d="M143.9439 388 L143.9439 4.7373"
                  style="fill:none; clip-path:url(#clipPath1);"/>
            <path d="M196.2643 388 L196.2643 4.7373"
                  style="fill:none; clip-path:url(#clipPath1);"/>
            <path d="M248.5846 388 L248.5846 4.7373"
                  style="fill:none; clip-path:url(#clipPath1);"/>
            <path d="M300.905 388 L300.905 4.7373"
                  style="fill:none; clip-path:url(#clipPath1);"/>
            <path d="M353.2253 388 L353.2253 4.7373"
                  style="fill:none; clip-path:url(#clipPath1);"/>
            <path d="M7.911 388 L7.911 4.7373"
                  style="fill:none; clip-path:url(#clipPath1); stroke:rgb(233,233,233);"/>
            <path d="M18.3751 388 L18.3751 4.7373"
                  style="fill:none; clip-path:url(#clipPath1); stroke:rgb(233,233,233);"/>
            <path d="M28.8391 388 L28.8391 4.7373"
                  style="fill:none; clip-path:url(#clipPath1); stroke:rgb(233,233,233);"/>
            <path d="M49.7673 388 L49.7673 4.7373"
                  style="fill:none; clip-path:url(#clipPath1); stroke:rgb(233,233,233);"/>
            <path d="M60.2314 388 L60.2314 4.7373"
                  style="fill:none; clip-path:url(#clipPath1); stroke:rgb(233,233,233);"/>
            <path d="M70.6954 388 L70.6954 4.7373"
                  style="fill:none; clip-path:url(#clipPath1); stroke:rgb(233,233,233);"/>
            <path d="M81.1595 388 L81.1595 4.7373"
                  style="fill:none; clip-path:url(#clipPath1); stroke:rgb(233,233,233);"/>
            <path d="M102.0876 388 L102.0876 4.7373"
                  style="fill:none; clip-path:url(#clipPath1); stroke:rgb(233,233,233);"/>
            <path d="M112.5517 388 L112.5517 4.7373"
                  style="fill:none; clip-path:url(#clipPath1); stroke:rgb(233,233,233);"/>
            <path d="M123.0158 388 L123.0158 4.7373"
                  style="fill:none; clip-path:url(#clipPath1); stroke:rgb(233,233,233);"/>
            <path d="M133.4799 388 L133.4799 4.7373"
                  style="fill:none; clip-path:url(#clipPath1); stroke:rgb(233,233,233);"/>
            <path d="M154.408 388 L154.408 4.7373"
                  style="fill:none; clip-path:url(#clipPath1); stroke:rgb(233,233,233);"/>
            <path d="M164.8721 388 L164.8721 4.7373"
                  style="fill:none; clip-path:url(#clipPath1); stroke:rgb(233,233,233);"/>
            <path d="M175.3361 388 L175.3361 4.7373"
                  style="fill:none; clip-path:url(#clipPath1); stroke:rgb(233,233,233);"/>
            <path d="M185.8002 388 L185.8002 4.7373"
                  style="fill:none; clip-path:url(#clipPath1); stroke:rgb(233,233,233);"/>
            <path d="M206.7283 388 L206.7283 4.7373"
                  style="fill:none; clip-path:url(#clipPath1); stroke:rgb(233,233,233);"/>
            <path d="M217.1924 388 L217.1924 4.7373"
                  style="fill:none; clip-path:url(#clipPath1); stroke:rgb(233,233,233);"/>
            <path d="M227.6565 388 L227.6565 4.7373"
                  style="fill:none; clip-path:url(#clipPath1); stroke:rgb(233,233,233);"/>
            <path d="M238.1206 388 L238.1206 4.7373"
                  style="fill:none; clip-path:url(#clipPath1); stroke:rgb(233,233,233);"/>
            <path d="M259.0487 388 L259.0487 4.7373"
                  style="fill:none; clip-path:url(#clipPath1); stroke:rgb(233,233,233);"/>
            <path d="M269.5128 388 L269.5128 4.7373"
                  style="fill:none; clip-path:url(#clipPath1); stroke:rgb(233,233,233);"/>
            <path d="M279.9769 388 L279.9769 4.7373"
                  style="fill:none; clip-path:url(#clipPath1); stroke:rgb(233,233,233);"/>
            <path d="M290.4409 388 L290.4409 4.7373"
                  style="fill:none; clip-path:url(#clipPath1); stroke:rgb(233,233,233);"/>
            <path d="M311.369 388 L311.369 4.7373"
                  style="fill:none; clip-path:url(#clipPath1); stroke:rgb(233,233,233);"/>
            <path d="M321.8331 388 L321.8331 4.7373"
                  style="fill:none; clip-path:url(#clipPath1); stroke:rgb(233,233,233);"/>
            <path d="M332.2972 388 L332.2972 4.7373"
                  style="fill:none; clip-path:url(#clipPath1); stroke:rgb(233,233,233);"/>
            <path d="M342.7613 388 L342.7613 4.7373"
                  style="fill:none; clip-path:url(#clipPath1); stroke:rgb(233,233,233);"/>
            <path d="M363.6894 388 L363.6894 4.7373"
                  style="fill:none; clip-path:url(#clipPath1); stroke:rgb(233,233,233);"/>
            <path d="M374.1535 388 L374.1535 4.7373"
                  style="fill:none; clip-path:url(#clipPath1); stroke:rgb(233,233,233);"/>
            <path d="M384.6176 388 L384.6176 4.7373"
                  style="fill:none; clip-path:url(#clipPath1); stroke:rgb(233,233,233);"/>
        </g>
        <g transform="translate(6,5)"
           style="stroke-linecap:butt; fill:rgb(165,165,165); text-rendering:optimizeLegibility; image-rendering:optimizeQuality; color-rendering:optimizeQuality; font-family:'Lucida Bright'; stroke-linejoin:round; stroke:rgb(165,165,165); color-interpolation:linearRGB;">
            <path d="M2 377.3976 L389 377.3976"
                  style="fill:none; clip-path:url(#clipPath1);"/>
            <path d="M2 285.5397 L389 285.5397"
                  style="fill:none; clip-path:url(#clipPath1);"/>
            <path d="M2 193.6818 L389 193.6818"
                  style="fill:none; clip-path:url(#clipPath1);"/>
            <path d="M2 101.8239 L389 101.8239"
                  style="fill:none; clip-path:url(#clipPath1);"/>
            <path d="M2 9.966 L389 9.966"
                  style="fill:none; clip-path:url(#clipPath1);"/>
            <path d="M2 359.026 L389 359.026"
                  style="fill:none; clip-path:url(#clipPath1); stroke:rgb(233,233,233);"/>
            <path d="M2 340.6544 L389 340.6544"
                  style="fill:none; clip-path:url(#clipPath1); stroke:rgb(233,233,233);"/>
            <path d="M2 322.2828 L389 322.2828"
                  style="fill:none; clip-path:url(#clipPath1); stroke:rgb(233,233,233);"/>
            <path d="M2 303.9113 L389 303.9113"
                  style="fill:none; clip-path:url(#clipPath1); stroke:rgb(233,233,233);"/>
            <path d="M2 267.1681 L389 267.1681"
                  style="fill:none; clip-path:url(#clipPath1); stroke:rgb(233,233,233);"/>
            <path d="M2 248.7965 L389 248.7965"
                  style="fill:none; clip-path:url(#clipPath1); stroke:rgb(233,233,233);"/>
            <path d="M2 230.425 L389 230.425"
                  style="fill:none; clip-path:url(#clipPath1); stroke:rgb(233,233,233);"/>
            <path d="M2 212.0534 L389 212.0534"
                  style="fill:none; clip-path:url(#clipPath1); stroke:rgb(233,233,233);"/>
            <path d="M2 175.3102 L389 175.3102"
                  style="fill:none; clip-path:url(#clipPath1); stroke:rgb(233,233,233);"/>
            <path d="M2 156.9386 L389 156.9386"
                  style="fill:none; clip-path:url(#clipPath1); stroke:rgb(233,233,233);"/>
            <path d="M2 138.5671 L389 138.5671"
                  style="fill:none; clip-path:url(#clipPath1); stroke:rgb(233,233,233);"/>
            <path d="M2 120.1955 L389 120.1955"
                  style="fill:none; clip-path:url(#clipPath1); stroke:rgb(233,233,233);"/>
            <path d="M2 83.4523 L389 83.4523"
                  style="fill:none; clip-path:url(#clipPath1); stroke:rgb(233,233,233);"/>
            <path d="M2 65.0807 L389 65.0807"
                  style="fill:none; clip-path:url(#clipPath1); stroke:rgb(233,233,233);"/>
            <path d="M2 46.7092 L389 46.7092"
                  style="fill:none; clip-path:url(#clipPath1); stroke:rgb(233,233,233);"/>
            <path d="M2 28.3376 L389 28.3376"
                  style="fill:none; clip-path:url(#clipPath1); stroke:rgb(233,233,233);"/>
        </g>
        <g transform="translate(6,5)"
           style="stroke-linecap:butt; fill:blue; text-rendering:optimizeLegibility; image-rendering:optimizeQuality; color-rendering:optimizeQuality; font-family:'Lucida Bright'; stroke-linejoin:round; stroke:blue; color-interpolation:linearRGB; stroke-width:1.5;">
            <path d="M2.291 48.4721 L2.6657 51.9372 L2.7828 52.8005 L3.212 55.6188 L3.6331 57.975 L3.8892 59.3005 L4.388 61.5826 L4.6906 62.9822 L4.9131 63.904 L5.6112 66.6639 L6.485 69.8167 L6.6301 70.3456 L6.7895 70.8801 L7.757 74.0272 L8.582 76.523 L8.9701 77.7089 L9.5895 79.4776 L10.273 81.3906 L10.6791 82.4607 L11.6605 85.0723 L12.7761 87.8767 L13.1217 88.754 L14.0557 91.0006 L14.6591 92.4356 L14.8731 92.9201 L16.2719 96.1173 L16.9701 97.6403 L17.9507 99.799 L19.0671 102.1496 L19.6936 103.4807 L21.1641 106.4744 L21.499 107.1624 L23.2611 110.637 L23.3652 110.844 L24.5286 113.0693 L25.2919 114.5257 L25.3581 114.6474 L27.2773 118.2074 L27.4551 118.5258 L29.3176 121.8891 L29.5521 122.2983 L31.4116 125.5707 L31.6491 125.9752 L33.5579 129.2524 L33.7461 129.5654 L35.7553 132.9341 L35.8432 133.077 L37.0672 135.0831 L37.9402 136.5112 L38.0036 136.6158 L40.0372 139.8687 L40.303 140.2975 L42.1342 143.1639 L42.6507 143.9791 L44.2312 146.4022 L45.0454 147.6608 L46.3282 149.5884 L47.4861 151.3425 L48.4252 152.7266 L49.9716 155.0242 L50.5222 155.8208 L52.5008 158.7058 L52.6192 158.8741 L53.1391 159.6187 L54.7162 161.8659 L55.0794 162.3875 L56.8132 164.8145 L57.7025 166.0692 L58.9102 167.7307 L60.367 169.7509 L61.0073 170.6171 L63.0719 173.4326 L63.1043 173.4756 L63.2082 173.6151 L65.2013 176.2725 L65.8276 177.1143 L67.2983 179.0441 L68.6229 180.7959 L69.3953 181.7939 L71.4563 184.4776 L71.4923 184.5234 L71.5891 184.6475 L73.5893 187.1949 L74.3405 188.1593 L75.6863 189.8479 L77.2622 191.841 L77.7833 192.4855 L79.049 194.0632 L79.8803 195.0914 L80.2262 195.5226 L81.9773 197.6582 L83.2353 199.2043 L84.0743 200.2135 L85.931 202.464 L86.1713 202.753 L86.2811 202.886 L88.2684 205.2428 L89.3768 206.5677 L90.3654 207.7246 L92.3733 210.0929 L92.4624 210.1971 L92.5067 210.2494 L94.5594 212.6182 L95.688 213.931 L96.6564 215.0344 L98.4732 217.1207 L98.7534 217.4396 L98.9043 217.6127 L100.8504 219.7994 L102.1704 221.2944 L102.9474 222.1568 L104.3014 223.6716 L105.0444 224.4948 L105.4753 224.9761 L107.1414 226.7999 L108.8253 228.6578 L109.2384 229.1047 L109.9103 229.8374 L111.3354 231.3757 L112.2211 232.3394 L113.4325 233.6319 L115.3326 235.6755 L115.5295 235.885 L115.6563 236.0211 L117.6265 238.0941 L119.1431 239.7028 L119.7235 240.3067 L120.5779 241.2029 L121.8205 242.4921 L122.6737 243.3845 L123.9175 244.6608 L125.6873 246.4916 L126.0145 246.8264 L126.247 247.0661 L128.1115 248.9528 L129.8711 250.7478 L130.2085 251.0857 L130.6612 251.5427 L132.3055 253.1831 L133.5445 254.4295 L134.4025 255.2767 L135.5169 256.3859 L136.4995 257.3525 L137.2645 258.1112 L138.5966 259.408 L140.2718 261.0524 L140.6936 261.4613 L141.0326 261.7929 L142.7906 263.4801 L144.8512 265.4745 L144.8876 265.5091 L144.931 265.5507 L146.9846 267.4938 L148.7268 269.1562 L149.0816 269.4886 L149.4916 269.8761 L151.1786 271.4494 L152.6548 272.8379 L153.2756 273.4114 L153.9715 274.0597 L155.3726 275.3475 L156.6369 276.5196 L157.4696 277.2778 L158.3752 278.1094 L159.5666 279.1886 L160.675 280.2013 L161.6637 281.0885 L162.7068 282.0328 L163.7607 282.9732 L164.7711 283.8829 L165.8577 284.8438 L166.9704 285.8366 L167.9547 286.7019 L168.9272 287.5646 L170.0517 288.5444 L171.1695 289.5272 L172.1487 290.3751 L173.1456 291.2463 L174.2457 292.1907 L175.3075 293.1104 L176.3427 293.9934 L177.4284 294.928 L178.4397 295.7831 L179.3875 296.5919 L180.5367 297.5572 L181.7782 298.6096 L182.6337 299.3222 L183.4124 299.9768 L184.7307 301.067 L186.1973 302.2913 L186.8277 302.8084 L187.3851 303.2698 L188.9248 304.5234 L190.6884 305.973 L191.0218 306.2422 L191.308 306.4756 L193.1188 307.9266 L195.1828 309.5967 L195.2158 309.623 L195.2553 309.6547 L197.3128 311.2774 L199.0044 312.6246 L199.4098 312.9417 L199.9094 313.3364 L201.5068 314.576 L202.7823 315.5757 L203.6038 316.2077 L204.6465 317.0181 L205.7008 317.8231 L206.5185 318.4536 L207.7978 319.4216 L209.4699 320.6997 L209.8949 321.0189 L210.2149 321.2617 L211.9918 322.5836 L213.8684 323.9943 L214.0888 324.1567 L214.3906 324.3814 L216.1859 325.6945 L217.4775 326.6492 L218.2829 327.2322 L219.4182 328.0631 L220.3799 328.7544 L221.0517 329.2426 L222.4769 330.2563 L224.5467 331.7448 L224.5739 331.764 L224.5923 331.7771 L226.6709 333.2294 L228.086 334.2292 L228.7679 334.7002 L229.8074 335.4265 L230.8649 336.1521 L231.5484 336.6264 L232.9619 337.5848 L234.9796 338.9688 L235.0589 339.0219 L235.1861 339.1081 L237.1559 340.4189 L238.3669 341.2342 L239.2529 341.8162 L240.7174 342.7898 L241.3499 343.2028 L241.7271 343.452 L243.447 344.5598 L245.0509 345.6058 L245.544 345.9189 L246.403 346.4715 L247.641 347.2533 L248.3414 347.7012 L249.738 348.5703 L251.6032 349.7462 L251.835 349.8883 L252.2615 350.1532 L253.932 351.1715 L254.8269 351.7243 L256.029 352.4456 L258.0267 353.6605 L258.126 353.7191 L258.3194 353.8348 L260.223 354.9526 L261.1863 355.5261 L262.32 356.1803 L264.3242 357.3535 L264.417 357.4061 L264.6091 357.5165 L266.5141 358.5913 L267.4224 359.1113 L268.6111 359.7693 L270.4982 360.8298 L270.7081 360.9436 L271.17 361.1982 L272.8051 362.0821 L273.5376 362.4843 L274.9021 363.2067 L276.5515 364.094 L276.9991 364.3258 L278.0512 364.8799 L279.0961 365.4194 L279.5345 365.6495 L281.1931 366.4866 L282.4864 367.1505 L283.2901 367.5464 L285.3148 368.5616 L285.3871 368.5971 L285.4155 368.6113 L287.4841 369.6028 L288.3055 370.0037 L289.5811 370.5989 L291.1726 371.3557 L291.6781 371.5849 L293.1013 372.2432 L293.7752 372.5486 L294.0112 372.6577 L295.8722 373.4763 L296.8158 373.8999 L297.9692 374.3914 L299.5962 375.0997 L300.0662 375.2933 L301.5656 375.9249 L302.1632 376.1714 L302.3479 376.2493 L304.2602 377.0103 L305.0652 377.3382 L306.3572 377.8331 L307.7571 378.3826 L308.4542 378.6388 L310.423 379.3814 L310.5512 379.4265 L311.0498 379.6066 L312.6482 380.1714 L313.0538 380.3186 L314.7452 380.8887 L315.6553 381.2044 L316.8423 381.5844 L318.2296 382.0424 L318.9392 382.2571 L320.7762 382.8316 L321.0363 382.9055 L322.335 383.2883 L323.1333 383.5181 L323.2909 383.5651 L325.2303 384.0876 L325.7718 384.239 L327.3273 384.6282 L328.2236 384.8619 L329.4243 385.1383 L330.6456 385.4325 L331.5213 385.6158 L333.0373 385.9499 L333.6183 386.0589 L335.3979 386.4128 L335.7153 386.4651 L337.7269 386.8199 L337.8123 386.832 L338.7139 386.97 L339.9093 387.1481 L340.021 387.166 L342.0063 387.4143 L342.2808 387.4518 L344.1034 387.6342 L344.5075 387.6795 L346.2003 387.8045 L346.7003 387.8476 L348.2974 387.9218 L348.8584 387.9549 L350.3944 387.9821 L350.9811 388 L352.4914 387.9812 L353.0676 387.9816 L354.5884 387.9143 L355.117 387.8981 L356.6854 387.7764 L357.1287 387.7482 L358.7824 387.5616 L359.1015 387.5302 L360.8794 387.2637 L361.0348 387.2426 L362.4764 386.97 L362.9262 386.8819 L362.9764 386.869 L364.7715 386.4398 L365.0734 386.3488 L366.5731 385.9212 L367.1704 385.7115 L368.33 385.3242 L369.2675 384.9456 L370.0412 384.6467 L371.3645 384.0376 L371.7054 383.8868 L372.8548 383.2883 L373.3179 383.0362 L373.4615 382.9453 L374.8709 382.0812 L375.5585 381.5938 L376.3718 381.0346 L377.6555 380.0198 L377.8192 379.894 L378.146 379.6066 L379.1968 378.631 L379.7525 378.0425 L380.5117 377.2579 L381.6449 375.9249 L381.7643 375.7753 L381.8495 375.6537 L382.9314 374.1428 L383.9465 372.5293 L384.0328 372.3948 L384.1183 372.2432 L385.0369 370.4759 L385.9054 368.5616 L385.9634 368.4208 L386.0435 368.1957 L386.7777 366.1689 L387.1787 364.8799 L387.4907 363.7389 L388.0738 361.1982 L388.0907 361.1107 L388.1405 360.7915 L388.5464 358.2291 L388.6345 357.5165 L388.8549 355.0891 L388.931 353.8348 L388.9951 351.6536 L389 350.1532 L388.9393 347.8739 L388.8701 346.4715 L388.6532 343.6899 L388.5652 342.7898 L388.1405 339.3976 L388.1047 339.1081 L388.0918 339.0226 L387.4919 335.4265 L387.1595 333.7042 L386.7544 331.7448 L386.0435 328.68 L385.902 328.0631 L385.7879 327.6143 L384.9301 324.3814 L383.9465 320.9821 L383.8657 320.6997 L383.7691 320.3882 L382.6948 317.0181 L381.8495 314.5446 L381.4407 313.3364 L380.7331 311.3763 L380.1 309.6547 L379.7525 308.7632 L378.6755 305.973 L377.6555 303.4717 L377.1787 302.2913 L375.7706 298.9821 L375.6105 298.6096 L375.5585 298.4943 L373.9654 294.928 L373.4615 293.85 L372.2554 291.2463 L371.3645 289.4047 L370.4823 287.5646 L369.2675 285.134 L368.6477 283.8829 L367.1704 281.0174 L366.7534 280.2013 L365.0734 277.0375 L364.8008 276.5196 L362.9764 273.1795 L362.7914 272.8379 L360.8794 269.4305 L360.7268 269.1562 L358.7824 265.7795 L358.6083 265.4745 L356.6854 262.2169 L356.4372 261.7929 L354.5884 258.7342 L354.2149 258.1112 L352.4914 255.3241 L351.9427 254.4295 L350.3944 251.9801 L349.6218 250.7478 L348.2974 248.6964 L347.2534 247.0661 L346.2003 245.468 L344.8386 243.3845 L344.1034 242.2904 L342.3785 239.7028 L342.0063 239.1594 L340.0916 236.341 L339.9093 236.074 L339.8735 236.0211 L337.8123 233.0566 L337.3177 232.3394 L335.7153 230.0762 L334.7191 228.6578 L333.6183 227.1299 L332.0787 224.9761 L331.5213 224.2154 L329.5209 221.4641 L329.4243 221.3319 L329.3971 221.2944 L327.3273 218.511 L326.6646 217.6127 L325.2303 215.715 L323.8926 213.931 L323.1333 212.942 L321.0822 210.2494 L321.0363 210.1905 L320.9091 210.026 L318.9392 207.497 L318.2211 206.5677 L316.8423 204.8238 L315.322 202.886 L314.7452 202.1671 L313.3062 200.3596 L312.6482 199.5392 L312.3817 199.2043 L310.5512 196.9549 L309.3948 195.5226 L308.4542 194.3829 L306.3728 191.841 L306.3572 191.8223 L306.3233 191.7814 L304.2602 189.3165 L303.2993 188.1593 L302.1632 186.82 L300.1917 184.4776 L300.0662 184.3316 L299.8158 184.038 L297.9692 181.8915 L297.0341 180.7959 L295.8722 179.4626 L293.8417 177.1143 L293.7752 177.0389 L293.6523 176.8986 L291.6781 174.6647 L290.5979 173.4326 L289.5811 172.2962 L287.7751 170.2618 L287.4841 169.9371 L287.3186 169.7509 L285.3871 167.6221 L283.9893 166.0692 L283.2901 165.3076 L282.1326 164.0369 L281.1931 163.0159 L280.6196 162.3875 L279.0961 160.7511 L277.2071 158.7058 L276.9991 158.485 L276.6768 158.14 L274.9021 156.2602 L273.7445 155.0242 L272.8051 154.0403 L271.3994 152.5563 L270.7081 151.8342 L270.241 151.3425 L268.6111 149.659 L266.6919 147.6608 L266.5141 147.4791 L266.2636 147.2212 L264.417 145.3405 L263.0911 143.9791 L262.32 143.2022 L261.27 142.1355 L260.223 141.0843 L259.4458 140.2975 L258.126 138.9861 L256.3867 137.2437 L256.029 136.8897 L255.7546 136.6158 L253.932 134.8303 L252.0124 132.9341 L251.835 132.7621 L251.6138 132.5458 L249.738 130.7341 L248.2166 129.2524 L247.641 128.702 L246.9455 128.0314 L245.544 126.6971 L244.3708 125.5707 L243.447 124.6997 L242.365 123.6711 L241.3499 122.7187 L240.4734 121.8891 L239.2529 120.7548 L237.867 119.4558 L237.1559 118.7982 L236.5225 118.2074 L235.0589 116.8667 L233.4471 115.3774 L232.9619 114.9354 L232.5163 114.5257 L230.8649 113.0349 L229.1007 111.4282 L228.7679 111.1295 L228.4528 110.844 L226.6709 109.2588 L224.8238 107.6011 L224.5739 107.3801 L224.3299 107.1624 L222.4769 105.5381 L220.6127 103.8895 L220.3799 103.6866 L220.1456 103.4807 L218.2829 101.8721 L216.464 100.2873 L216.1859 100.0486 L215.8976 99.799 L214.0888 98.2605 L212.3743 96.7887 L211.9918 96.4656 L211.5834 96.1173 L209.8949 94.7027 L208.3406 93.3886 L207.7978 92.937 L207.2007 92.4356 L205.7008 91.1982 L204.3602 90.0819 L203.6038 89.4625 L202.7469 88.754 L201.5068 87.7467 L200.4303 86.864 L199.4098 86.0414 L198.2191 85.0723 L197.3128 84.3476 L196.5486 83.7306 L195.2158 82.6733 L193.6145 81.3906 L193.1188 81.0004 L192.7127 80.6777 L191.0218 79.3578 L188.9301 77.7089 L188.9248 77.7047 L188.9205 77.7014 L186.8277 76.0944 L185.1803 74.8166 L184.7307 74.4744 L184.1491 74.0272 L182.6337 72.8826 L181.4806 72.0027 L180.5367 71.2964 L179.2791 70.3456 L178.4397 69.722 L177.8193 69.2564 L176.3427 68.1702 L174.3166 66.6639 L174.2457 66.6121 L174.1948 66.5746 L172.1487 65.0952 L170.618 63.9765 L170.0517 63.5714 L169.2371 62.9822 L167.9547 62.071 L167.0763 61.4401 L165.8577 60.5837 L164.0519 59.3005 L163.7607 59.0972 L163.567 58.9605 L161.6637 57.647 L160.1003 56.5558 L159.5666 56.1919 L158.7361 55.6188 L157.4696 54.7607 L156.6678 54.2111 L155.3726 53.3443 L153.2948 51.9372 L153.2756 51.9244 L153.2639 51.9165 L151.1786 50.5473 L149.9048 49.7007 L149.0816 49.1674 L147.6913 48.2555 L146.9846 47.8003 L146.5722 47.5314 L144.8876 46.4615 L143.2749 45.4242 L142.7906 45.121 L141.9276 44.5738 L140.6936 43.8056 L140.0108 43.3751 L138.5966 42.5079 L136.7754 41.3765 L136.4995 41.21 L135.9799 40.8921 L134.4025 39.945 L133.5769 39.4426 L132.3055 38.6917 L130.4035 37.5527 L130.2085 37.4395 L129.8194 37.2104 L128.1115 36.2237 L127.2679 35.7293 L126.0145 35.018 L124.1563 33.9481 L123.9175 33.8151 L123.4109 33.5287 L121.8205 32.6467 L121.081 32.2305 L119.7235 31.4924 L118.0314 30.558 L117.6265 30.3424 L116.7112 29.8471 L115.5295 29.2199 L115.0139 28.9419 L113.4325 28.1205 L112.0261 27.378 L111.3354 27.0274 L109.6661 26.1654 L109.2384 25.9489 L109.0639 25.859 L107.1414 24.9085 L106.138 24.4037 L105.0444 23.8765 L103.2346 22.988 L102.9474 22.8532 L102.175 22.4837 L100.8504 21.8628 L100.3646 21.6308 L98.7534 20.8964 L97.5237 20.3248 L96.6564 19.941 L94.7066 19.0605 L94.5594 18.9974 L94.1132 18.802 L92.4624 18.0941 L91.9251 17.8588 L90.3654 17.2117 L89.1711 16.7052 L88.2684 16.3439 L86.442 15.5956 L86.1713 15.4913 L85.2319 15.1204 L84.0743 14.673 L83.7454 14.5428 L81.9773 13.8866 L81.08 13.545 L79.8803 13.1186 L78.4408 12.5931 L77.7833 12.3702 L75.8285 11.6882 L75.6863 11.6425 L75.0725 11.4387 L73.5893 10.9573 L73.2506 10.844 L71.4923 10.3036 L70.7031 10.0532 L69.3953 9.6746 L68.1837 9.3116 L67.2983 9.0718 L65.693 8.6203 L65.2013 8.4967 L63.2315 7.9804 L63.1043 7.951 L62.3032 7.757 L61.0073 7.4508 L60.8043 7.4007 L58.9102 6.9918 L58.4097 6.8783 L56.8132 6.5675 L56.0458 6.4097 L54.7162 6.1804 L53.7132 5.996 L52.6192 5.8326 L51.4126 5.6385 L50.5222 5.527 L49.1446 5.3383 L48.4252 5.2665 L46.91 5.0968 L46.3282 5.0541 L44.7096 4.9153 L44.2312 4.8934 L42.5441 4.7949 L42.1342 4.7881 L40.4142 4.7373 L40.0372 4.7425 L38.3208 4.7437 L37.9402 4.7612 L36.2648 4.8156 L35.8432 4.8493 L34.247 4.9546 L33.7461 5.0125 L32.2682 5.1621 L31.6491 5.2571 L30.3294 5.4399 L29.5521 5.5901 L28.4315 5.7896 L27.4551 6.0194 L26.5756 6.2128 L25.3581 6.554 L24.7625 6.7113 L23.2611 7.2036 L22.9934 7.287 L21.7521 7.757 L21.2719 7.9463 L21.1641 7.9969 L19.6044 8.7004 L19.0671 8.986 L17.9856 9.54 L16.9701 10.1472 L16.4167 10.4671 L14.9659 11.4387 L14.8996 11.4853 L14.8731 11.5067 L13.4512 12.6241 L12.7761 13.2316 L12.0584 13.8604 L10.7985 15.1204 L10.724 15.1993 L10.6791 15.2536 L9.4703 16.6798 L8.582 17.872 L8.279 18.27 L7.9226 18.802 L7.1718 20.0077 L6.485 21.2657 L6.1422 21.8817 L5.8489 22.4837 L5.2081 23.9235 L4.388 26.0474 L4.3606 26.1172 L4.3442 26.1654 L3.6342 28.5236 L3.2967 29.8471 L3.0175 31.1225 L2.586 33.5287 L2.5261 33.9415 L2.291 36.0628 L2.1833 37.0212 L2.1679 37.2104 L2.0108 40.4001 L2 40.8921 L2.0268 44.1098 L2.0416 44.5738 L2.2633 48.2069 L2.2673 48.2555 L2.291 48.4721"
                  style="fill:none; clip-path:url(#clipPath2);"/>
        </g>
        <g transform="translate(6,5)"
           style="stroke-linecap:butt; fill:rgb(120,0,14); text-rendering:optimizeLegibility; image-rendering:optimizeQuality; color-rendering:optimizeQuality; font-family:'Lucida Bright'; stroke-linejoin:round; stroke:rgb(120,0,14); color-interpolation:linearRGB; stroke-width:1.5;">
            <path d="M369.2675 376.1704 L369.5471 376.4158 L369.5471 375.9249 L369.2675 375.5568 L368.4286 374.4522 L368.9879 375.9249 L369.2675 376.1704"
                  style="fill:none; clip-path:url(#clipPath2);"/>
            <path d="M23.2611 11.8069 L24.0999 12.9113 L23.5407 11.4387 L23.2611 11.1932 L22.9815 10.9478 L22.9815 11.4387 L23.2611 11.8069"
                  style="fill:none; clip-path:url(#clipPath2);"/>
            <path d="M27.4551 15.8567 L28.5735 18.802 L29.5521 20.0906 L31.3695 22.4837 L31.6491 22.8519 L32.4879 23.9564 L33.7461 25.6131 L34.1655 26.1654 L35.8432 28.3744 L36.9616 29.8471 L37.9402 31.1357 L39.7576 33.5287 L40.0372 33.8969 L40.876 35.0014 L42.1342 36.6582 L42.5536 37.2104 L44.2312 39.4194 L45.3496 40.8921 L46.3282 42.1807 L48.1456 44.5738 L48.4252 44.942 L49.264 46.0465 L50.5222 47.7032 L50.9416 48.2555 L52.6192 50.4645 L53.7376 51.9372 L54.7162 53.2257 L56.5336 55.6188 L56.8132 55.987 L57.652 57.0915 L58.9102 58.7483 L59.3296 59.3005 L61.0073 61.5095 L62.1257 62.9822 L63.1043 64.2708 L64.9217 66.6639 L65.2013 67.032 L66.0401 68.1365 L67.2983 69.7933 L67.7177 70.3456 L69.3953 72.5546 L70.5137 74.0272 L71.4923 75.3158 L73.3097 77.7089 L73.5893 78.0771 L74.4281 79.1816 L75.6863 80.8383 L76.1057 81.3906 L77.7833 83.5996 L78.9017 85.0723 L79.8803 86.3609 L81.6977 88.754 L81.9773 89.1221 L82.8161 90.2266 L84.0743 91.8834 L84.4937 92.4356 L86.1713 94.6446 L87.2898 96.1173 L88.2684 97.4059 L90.0858 99.799 L90.3654 100.1672 L91.2042 101.2717 L92.4624 102.9284 L92.8818 103.4807 L94.5594 105.6897 L95.6778 107.1624 L96.6564 108.4509 L98.4738 110.844 L98.7534 111.2122 L99.5922 112.3167 L100.8504 113.9734 L101.2698 114.5257 L102.9474 116.7347 L104.0658 118.2074 L105.0444 119.496 L106.8618 121.8891 L107.1414 122.2572 L107.9802 123.3617 L109.2384 125.0185 L109.6578 125.5707 L111.3354 127.7798 L112.4538 129.2524 L113.4325 130.541 L115.2499 132.9341 L115.5295 133.3023 L116.3683 134.4068 L117.6265 136.0635 L118.0459 136.6158 L119.7235 138.8248 L120.8419 140.2975 L121.8205 141.586 L123.6379 143.9791 L123.9175 144.3473 L124.7563 145.4518 L126.0145 147.1086 L126.4339 147.6608 L128.1115 149.8698 L129.2299 151.3425 L130.2085 152.6311 L132.0259 155.0242 L132.3055 155.3923 L133.1443 156.4969 L134.4025 158.1536 L134.8219 158.7058 L136.4995 160.9149 L137.618 162.3875 L138.5966 163.6761 L140.414 166.0692 L140.6936 166.4374 L141.5324 167.5419 L142.7906 169.1986 L143.21 169.7509 L144.8876 171.9599 L146.006 173.4326 L146.9846 174.7212 L148.802 177.1143 L149.0816 177.4824 L149.9204 178.5869 L151.1786 180.2437 L151.598 180.7959 L153.2756 183.0049 L154.394 184.4776 L155.3726 185.7662 L157.19 188.1593 L157.4696 188.5275 L158.3084 189.632 L159.5666 191.2887 L159.986 191.841 L161.6637 193.6082 L163.481 195.5226 L163.7607 195.7681 L164.0403 196.0135 L165.8577 197.6089 L167.6751 199.2043 L167.9547 199.4498 L168.2343 199.6952 L170.0517 201.2906 L171.8691 202.886 L172.1487 203.1314 L172.4283 203.3769 L174.2457 204.9723 L176.0631 206.5677 L176.3427 206.8131 L176.6223 207.0586 L178.4397 208.654 L180.2571 210.2494 L180.5367 210.4948 L180.8163 210.7402 L182.6337 212.3356 L184.4511 213.931 L184.7307 214.1765 L185.0103 214.4219 L186.8277 216.0173 L188.6451 217.6127 L188.9248 217.8582 L189.2043 218.1036 L191.0218 219.699 L192.8392 221.2944 L193.1188 221.5398 L193.3984 221.7853 L195.2158 223.3807 L197.0332 224.9761 L197.3128 225.2215 L197.5924 225.467 L199.4098 227.0624 L201.2272 228.6578 L201.5068 228.9032 L201.7864 229.1487 L203.6038 230.744 L205.4212 232.3394 L205.7008 232.5849 L205.9804 232.8303 L207.7978 234.4257 L209.6152 236.0211 L209.8949 236.2666 L210.1744 236.512 L211.9918 238.1074 L213.8092 239.7028 L214.0888 239.9482 L214.3685 240.1937 L216.1859 241.7891 L218.0033 243.3845 L218.2829 243.6299 L218.5625 243.8754 L220.3799 245.4707 L222.1973 247.0661 L222.4769 247.3116 L222.7565 247.557 L224.5739 249.1524 L226.3913 250.7478 L226.6709 250.9933 L226.9505 251.2387 L228.7679 252.8341 L230.5853 254.4295 L230.8649 254.675 L231.1445 254.9204 L232.9619 256.5158 L234.7793 258.1112 L235.0589 258.3566 L235.3385 258.6021 L237.1559 260.1975 L238.9734 261.7929 L239.2529 262.0383 L239.5325 262.2838 L241.3499 263.8792 L243.1674 265.4745 L243.447 265.72 L243.7266 265.9655 L245.544 267.5609 L247.3614 269.1562 L247.641 269.4017 L247.9206 269.6471 L249.738 271.2425 L251.5554 272.8379 L251.835 273.0833 L252.1146 273.3288 L253.932 274.9242 L255.7494 276.5196 L256.029 276.765 L256.3086 277.0105 L258.126 278.6059 L259.9434 280.2013 L260.223 280.4467 L260.5026 280.6921 L262.32 282.2875 L264.1375 283.8829 L264.417 284.1284 L264.6967 284.3738 L266.5141 285.9692 L268.3315 287.5646 L268.6111 287.8101 L268.8907 288.0555 L270.7081 289.6509 L272.5255 291.2463 L272.8051 291.4918 L273.0847 291.7372 L274.9021 293.3326 L276.7195 294.928 L276.9991 295.1734 L277.2787 295.4189 L279.0961 297.0143 L280.9135 298.6096 L281.1931 298.8551 L281.4727 299.1006 L283.2901 300.696 L285.1075 302.2913 L285.3871 302.5368 L285.6667 302.7822 L287.4841 304.3776 L289.3015 305.973 L289.5811 306.2184 L289.8607 306.4639 L291.6781 308.0593 L293.4955 309.6547 L293.7752 309.9001 L294.0547 310.1456 L295.8722 311.741 L297.6896 313.3364 L297.9692 313.5818 L298.2488 313.8273 L300.0662 315.4227 L301.8836 317.0181 L302.1632 317.2635 L302.4428 317.5089 L304.2602 319.1043 L306.0776 320.6997 L306.3572 320.9452 L306.6368 321.1906 L308.4542 322.786 L310.2716 324.3814 L310.5512 324.6269 L310.8308 324.8723 L312.6482 326.4677 L314.4656 328.0631 L314.7452 328.3085 L315.0248 328.554 L316.8423 330.1494 L318.6597 331.7448 L318.9392 331.9902 L319.2188 332.2357 L321.0363 333.8311 L322.8537 335.4265 L323.1333 335.6719 L323.4129 335.9173 L325.2303 337.5127 L327.0477 339.1081 L327.3273 339.3536 L327.6069 339.599 L329.4243 341.1944 L331.2417 342.7898 L331.5213 343.0352 L331.8009 343.2807 L333.6183 344.8761 L335.4357 346.4715 L335.7153 346.7169 L335.9949 346.9624 L337.8123 348.5578 L339.6298 350.1532 L339.9093 350.3986 L340.1889 350.644 L342.0063 352.2394 L343.8238 353.8348 L344.1034 354.0803 L344.383 354.3257 L346.2003 355.9211 L348.0178 357.5165 L348.2974 357.762 L348.577 358.0074 L350.3944 359.6028 L352.2118 361.1982 L352.4914 361.4437 L352.771 361.6891 L354.5884 363.2845 L356.4058 364.8799 L356.6854 365.1253 L356.965 365.3708 L358.7824 366.9662 L360.5998 368.5616 L360.8794 368.807 L361.159 369.0525 L362.9764 369.8502 L364.7939 372.2432 L365.0734 372.4887 L365.3531 372.7341 L365.9122 372.2432 L365.0734 371.5069 L363.955 368.5616 L362.9764 367.273 L361.159 364.8799 L360.8794 364.5117 L360.0406 363.4072 L358.7824 361.7505 L358.363 361.1982 L356.6854 358.9892 L355.567 357.5165 L354.5884 356.2279 L352.771 353.8348 L352.4914 353.4667 L351.6526 352.3622 L350.3944 350.7054 L349.975 350.1532 L348.2974 347.9442 L347.179 346.4715 L346.2003 345.1829 L344.383 342.7898 L344.1034 342.4216 L343.2646 341.3171 L342.0063 339.6604 L341.5869 339.1081 L339.9093 336.8991 L338.791 335.4265 L337.8123 334.1378 L335.9949 331.7448 L335.7153 331.3766 L334.8765 330.2721 L333.6183 328.6154 L333.1989 328.0631 L331.5213 325.8541 L330.4029 324.3814 L329.4243 323.0928 L327.6069 320.6997 L327.3273 320.3316 L326.4885 319.2271 L325.2303 317.5703 L324.8109 317.0181 L323.1333 314.8091 L322.0149 313.3364 L321.0363 312.0478 L319.2188 309.6547 L318.9392 309.2865 L318.1004 308.182 L316.8423 306.5253 L316.4229 305.973 L314.7452 303.764 L313.6268 302.2913 L312.6482 301.0027 L310.8308 298.6096 L310.5512 298.2415 L309.7124 297.137 L308.4542 295.4802 L308.0348 294.928 L306.3572 292.719 L305.2388 291.2463 L304.2602 289.9577 L302.4428 287.5646 L302.1632 287.1964 L301.3244 286.0919 L300.0662 284.4352 L299.6468 283.8829 L297.9692 281.674 L296.8508 280.2013 L295.8722 278.9127 L294.0547 276.5196 L293.7752 276.1514 L292.9364 275.0469 L291.6781 273.3902 L291.2587 272.8379 L289.5811 270.6289 L288.4627 269.1562 L287.4841 267.8676 L285.6667 265.4745 L285.3871 265.1064 L284.5483 264.0019 L283.2901 262.3451 L282.8707 261.7929 L281.1931 259.5839 L280.0747 258.1112 L279.0961 256.8226 L277.2787 254.4295 L276.9991 254.0613 L276.1603 252.9568 L274.9021 251.3001 L274.4827 250.7478 L272.8051 248.5388 L271.6867 247.0661 L270.7081 245.7776 L268.8907 243.3845 L268.6111 243.0163 L267.7722 241.9118 L266.5141 240.2551 L266.0947 239.7028 L264.417 237.4938 L263.2986 236.0211 L262.32 234.7325 L260.5026 232.3394 L260.223 231.9713 L259.3842 230.8668 L258.126 229.21 L257.7066 228.6578 L256.029 226.4487 L254.9106 224.9761 L253.932 223.6875 L252.1146 221.2944 L251.835 220.9262 L250.9962 219.8217 L249.738 218.165 L249.3186 217.6127 L247.641 215.4037 L246.5226 213.931 L245.544 212.6425 L243.7266 210.2494 L243.447 209.8812 L242.6082 208.7767 L241.3499 207.1199 L240.9305 206.5677 L239.2529 204.3587 L238.1346 202.886 L237.1559 201.5974 L235.3385 199.2043 L235.0589 198.8362 L234.2201 197.7316 L232.9619 196.0749 L232.5425 195.5226 L230.8649 193.7554 L229.0475 191.841 L228.7679 191.5955 L228.4883 191.3501 L226.6709 189.7547 L224.8535 188.1593 L224.5739 187.9138 L224.2943 187.6684 L222.4769 186.073 L220.6595 184.4776 L220.3799 184.2322 L220.1003 183.9867 L218.2829 182.3913 L216.4655 180.7959 L216.1859 180.5505 L215.9063 180.305 L214.0888 178.7096 L212.2714 177.1143 L211.9918 176.8688 L211.7122 176.6234 L209.8949 175.028 L208.0774 173.4326 L207.7978 173.1871 L207.5182 172.9417 L205.7008 171.3463 L203.8834 169.7509 L203.6038 169.5054 L203.3242 169.26 L201.5068 167.6646 L199.6894 166.0692 L199.4098 165.8238 L199.1302 165.5783 L197.3128 163.9829 L195.4954 162.3875 L195.2158 162.1421 L194.9362 161.8966 L193.1188 160.3012 L191.3014 158.7058 L191.0218 158.4604 L190.7422 158.215 L188.9248 156.6196 L187.1073 155.0242 L186.8277 154.7787 L186.5481 154.5333 L184.7307 152.9379 L182.9133 151.3425 L182.6337 151.097 L182.3541 150.8516 L180.5367 149.2562 L178.7193 147.6608 L178.4397 147.4154 L178.1601 147.1699 L176.3427 145.5745 L174.5253 143.9791 L174.2457 143.7337 L173.9661 143.4883 L172.1487 141.8929 L170.3313 140.2975 L170.0517 140.052 L169.7721 139.8065 L167.9547 138.2112 L166.1373 136.6158 L165.8577 136.3703 L165.578 136.1249 L163.7607 134.5295 L161.9433 132.9341 L161.6637 132.6887 L161.384 132.4432 L159.5666 130.8478 L157.7492 129.2524 L157.4696 129.007 L157.19 128.7615 L155.3726 127.1661 L153.5552 125.5707 L153.2756 125.3253 L152.996 125.0799 L151.1786 123.4845 L149.3612 121.8891 L149.0816 121.6436 L148.802 121.3982 L146.9846 119.8028 L145.1672 118.2074 L144.8876 117.9619 L144.608 117.7165 L142.7906 116.1211 L140.9732 114.5257 L140.6936 114.2803 L140.414 114.0348 L138.5966 112.4394 L136.7791 110.844 L136.4995 110.5986 L136.22 110.3531 L134.4025 108.7578 L132.5851 107.1624 L132.3055 106.9169 L132.0259 106.6714 L130.2085 105.076 L128.3911 103.4807 L128.1115 103.2352 L127.8319 102.9898 L126.0145 101.3944 L124.1971 99.799 L123.9175 99.5535 L123.6379 99.3081 L121.8205 97.7127 L120.0031 96.1173 L119.7235 95.8719 L119.4439 95.6264 L117.6265 94.031 L115.8091 92.4356 L115.5295 92.1902 L115.2499 91.9447 L113.4325 90.3493 L111.6151 88.754 L111.3354 88.5085 L111.0559 88.2631 L109.2384 86.6677 L107.421 85.0723 L107.1414 84.8268 L106.8618 84.5814 L105.0444 82.986 L103.227 81.3906 L102.9474 81.1451 L102.6678 80.8997 L100.8504 79.3043 L99.033 77.7089 L98.7534 77.4635 L98.4738 77.218 L96.6564 75.6226 L94.839 74.0272 L94.5594 73.7818 L94.2798 73.5363 L92.4624 71.9409 L90.645 70.3456 L90.3654 70.1001 L90.0858 69.8547 L88.2684 68.2593 L86.451 66.6639 L86.1713 66.4184 L85.8917 66.173 L84.0743 64.5776 L82.2569 62.9822 L81.9773 62.7367 L81.6977 62.4913 L79.8803 60.8959 L78.0629 59.3005 L77.7833 59.0551 L77.5037 58.8096 L75.6863 57.2142 L73.8689 55.6188 L73.5893 55.3734 L73.3097 55.1279 L71.4923 53.5325 L69.6749 51.9372 L69.3953 51.6917 L69.1157 51.4463 L67.2983 49.8509 L65.4809 48.2555 L65.2013 48.01 L64.9217 47.7646 L63.1043 46.1692 L61.2869 44.5738 L61.0073 44.3283 L60.7277 44.0829 L58.9102 42.4875 L57.0928 40.8921 L56.8132 40.6467 L56.5336 40.4012 L54.7162 38.8058 L52.8988 37.2104 L52.6192 36.965 L52.3396 36.7195 L50.5222 35.1241 L48.7048 33.5287 L48.4252 33.2833 L48.1456 33.0379 L46.3282 31.4425 L44.5108 29.8471 L44.2312 29.6016 L43.9516 29.3562 L42.1342 27.7608 L40.3168 26.1654 L40.0372 25.92 L39.7576 25.6745 L37.9402 24.0791 L36.1228 22.4837 L35.8432 22.2383 L35.5636 21.9928 L33.7461 20.3974 L31.9287 18.802 L31.6491 18.5566 L31.3695 18.3112 L29.5521 17.5135 L27.7347 15.1204 L27.4551 14.8749 L27.1755 14.6295 L26.6163 15.1204 L27.4551 15.8567"
                  style="fill:none; clip-path:url(#clipPath2);"/>
        </g>
        <g transform="translate(6,5)"
           style="stroke-linecap:butt; text-rendering:optimizeLegibility; color-rendering:optimizeQuality; image-rendering:optimizeQuality; font-family:'Lucida Bright'; stroke-linejoin:round; color-interpolation:linearRGB;">
            <path d="M2 193.6818 L389 193.6818"
                  style="fill:none; clip-path:url(#clipPath1);"/>
        </g>
        <g transform="translate(6,5)"
           style="stroke-linecap:butt; text-rendering:optimizeLegibility; color-rendering:optimizeQuality; image-rendering:optimizeQuality; font-family:'Lucida Bright'; stroke-linejoin:round; color-interpolation:linearRGB;">
            <path d="M292.8906 227.9688 L292 225.9531 L291.625 225.2031 Q291.4375 224.7812 291.3047 224.6719 Q291.1719 224.5625 290.8281 224.5312 L290.3906 224.5 L290.25 224.5 L290.3281 224.0469 L292.7188 224.0469 L294.1562 227.1719 L294.5 226.9062 Q295.9219 225.7344 295.9219 224.9688 Q295.9219 224.5625 295.6094 224.0469 L297.0469 224.0469 Q297.125 224.3125 297.125 224.5 Q297.125 225.125 296.6797 225.6406 Q296.2344 226.1562 294.6875 227.3125 L294.3438 227.5781 L295.5469 230.1094 L295.9844 230.9219 Q296.2656 231.4844 296.7344 231.5156 L297.2031 231.5312 L297.3281 231.5469 L297.25 232 L294.8438 232 L293.125 228.375 L292.5 228.9375 Q291 230.2812 291 231.25 Q291 231.6406 291.25 232 L289.7031 232 Q289.6562 231.7969 289.6562 231.6875 Q289.6562 230.75 291.0312 229.5469 L292.1719 228.5938 L292.8906 227.9688 Z"
                  style="stroke:none; clip-path:url(#clipPath3);"/>
        </g>
        <g transform="translate(6,5)"
           style="text-rendering:optimizeLegibility; font-family:'Lucida Bright'; color-interpolation:linearRGB; color-rendering:optimizeQuality; image-rendering:optimizeQuality;">
            <path d="M39.3032 193.6818 L39.3032 197.6818"
                  style="fill:none; clip-path:url(#clipPath1);"/>
        </g>
        <g style="text-rendering:optimizeLegibility; font-family:'Lucida Bright'; color-interpolation:linearRGB; color-rendering:optimizeQuality; image-rendering:optimizeQuality;">
            <path d="M41.4531 214.8906 L31.5469 214.8906 L31.5469 214.1094 L41.4531 214.1094 L41.4531 214.8906 Z"
                  style="stroke:none; clip-path:url(#clipPath5);"/>
        </g>
        <g style="text-rendering:optimizeLegibility; font-family:'Lucida Bright'; color-interpolation:linearRGB; color-rendering:optimizeQuality; image-rendering:optimizeQuality;">
            <path d="M44.2812 208.0625 L44.2812 217.1094 L44.3281 217.8281 Q44.3594 218.2656 44.5859 218.3984 Q44.8125 218.5312 45.5156 218.5312 L46.375 218.5469 L46.375 219 L40.7656 219 L40.7656 218.5469 L41.625 218.5312 Q42.3125 218.5312 42.5391 218.3984 Q42.7656 218.2656 42.7969 217.8281 L42.8438 217.1094 L42.8438 210.375 L42.7969 209.6406 Q42.7969 209.125 42.5 209.125 Q42.2812 209.125 41.4844 209.2656 L40.7656 209.3906 L40.7656 208.9375 L44.2812 208.0625 ZM49.2041 219 L49.2041 217.1875 L51.0166 217.1875 L51.0166 219 L49.2041 219 ZM53.8218 219.0156 L53.8218 217.1875 L54.5405 217.1875 L54.5562 217.3594 L54.5718 217.9219 Q54.6187 218.8125 55.978 218.8125 Q56.9937 218.8125 57.5874 218.0234 Q58.1812 217.2344 58.1812 215.875 Q58.1812 214.3281 57.2593 213.6641 Q56.3374 213 54.2593 213 L53.9937 213 L53.9937 208.1562 L59.4624 208.1562 L59.4624 209.4219 L54.4468 209.4219 L54.4468 212.4531 L55.1187 212.4531 Q59.6968 212.4531 59.6968 215.9375 Q59.6968 217.5 58.6421 218.3828 Q57.5874 219.2656 55.728 219.2656 Q54.8062 219.2656 53.8218 219.0156 Z"
                  style="stroke:none; clip-path:url(#clipPath4);"/>
        </g>
        <g transform="translate(6,5)"
           style="text-rendering:optimizeLegibility; font-family:'Lucida Bright'; color-interpolation:linearRGB; color-rendering:optimizeQuality; image-rendering:optimizeQuality;">
            <path d="M91.6236 193.6818 L91.6236 197.6818"
                  style="fill:none; clip-path:url(#clipPath1);"/>
        </g>
        <g style="text-rendering:optimizeLegibility; font-family:'Lucida Bright'; color-interpolation:linearRGB; color-rendering:optimizeQuality; image-rendering:optimizeQuality;">
            <path d="M100.4531 214.8906 L90.5469 214.8906 L90.5469 214.1094 L100.4531 214.1094 L100.4531 214.8906 Z"
                  style="stroke:none; clip-path:url(#clipPath6);"/>
        </g>
        <g style="text-rendering:optimizeLegibility; font-family:'Lucida Bright'; color-interpolation:linearRGB; color-rendering:optimizeQuality; image-rendering:optimizeQuality;">
            <path d="M103.2812 208.0625 L103.2812 217.1094 L103.3281 217.8281 Q103.3594 218.2656 103.5859 218.3984 Q103.8125 218.5312 104.5156 218.5312 L105.375 218.5469 L105.375 219 L99.7656 219 L99.7656 218.5469 L100.625 218.5312 Q101.3125 218.5312 101.5391 218.3984 Q101.7656 218.2656 101.7969 217.8281 L101.8438 217.1094 L101.8438 210.375 L101.7969 209.6406 Q101.7969 209.125 101.5 209.125 Q101.2812 209.125 100.4844 209.2656 L99.7656 209.3906 L99.7656 208.9375 L103.2812 208.0625 Z"
                  style="stroke:none; clip-path:url(#clipPath4);"/>
        </g>
        <g transform="translate(6,5)"
           style="text-rendering:optimizeLegibility; font-family:'Lucida Bright'; color-interpolation:linearRGB; color-rendering:optimizeQuality; image-rendering:optimizeQuality;">
            <path d="M143.9439 193.6818 L143.9439 197.6818"
                  style="fill:none; clip-path:url(#clipPath1);"/>
        </g>
        <g style="text-rendering:optimizeLegibility; font-family:'Lucida Bright'; color-interpolation:linearRGB; color-rendering:optimizeQuality; image-rendering:optimizeQuality;">
            <path d="M145.4531 214.8906 L135.5469 214.8906 L135.5469 214.1094 L145.4531 214.1094 L145.4531 214.8906 Z"
                  style="stroke:none; clip-path:url(#clipPath7);"/>
        </g>
        <g style="text-rendering:optimizeLegibility; font-family:'Lucida Bright'; color-interpolation:linearRGB; color-rendering:optimizeQuality; image-rendering:optimizeQuality;">
            <path d="M147.5 219.2656 Q145.8281 219.2656 144.7969 217.7109 Q143.7656 216.1562 143.7656 213.6094 Q143.7656 211 144.7969 209.4453 Q145.8281 207.8906 147.5625 207.8906 Q149.2969 207.8906 150.3281 209.4375 Q151.3594 210.9844 151.3594 213.5938 Q151.3594 216.2031 150.3203 217.7344 Q149.2812 219.2656 147.5 219.2656 ZM147.5312 218.8125 Q149.8281 218.9219 149.8281 213.5 Q149.8281 208.3281 147.5625 208.3281 Q145.3125 208.3281 145.3125 213.5781 Q145.3125 218.7188 147.5312 218.8125 ZM153.2041 219 L153.2041 217.1875 L155.0166 217.1875 L155.0166 219 L153.2041 219 ZM157.8218 219.0156 L157.8218 217.1875 L158.5405 217.1875 L158.5562 217.3594 L158.5718 217.9219 Q158.6187 218.8125 159.978 218.8125 Q160.9937 218.8125 161.5874 218.0234 Q162.1812 217.2344 162.1812 215.875 Q162.1812 214.3281 161.2593 213.6641 Q160.3374 213 158.2593 213 L157.9937 213 L157.9937 208.1562 L163.4624 208.1562 L163.4624 209.4219 L158.4468 209.4219 L158.4468 212.4531 L159.1187 212.4531 Q163.6968 212.4531 163.6968 215.9375 Q163.6968 217.5 162.6421 218.3828 Q161.5874 219.2656 159.728 219.2656 Q158.8062 219.2656 157.8218 219.0156 Z"
                  style="stroke:none; clip-path:url(#clipPath4);"/>
        </g>
        <g transform="translate(6,5)"
           style="text-rendering:optimizeLegibility; font-family:'Lucida Bright'; color-interpolation:linearRGB; color-rendering:optimizeQuality; image-rendering:optimizeQuality;">
            <path d="M196.2643 193.6818 L196.2643 197.6818"
                  style="fill:none; clip-path:url(#clipPath1);"/>
            <path d="M193.5 217.2656 Q191.8281 217.2656 190.7969 215.7109 Q189.7656 214.1562 189.7656 211.6094 Q189.7656 209 190.7969 207.4453 Q191.8281 205.8906 193.5625 205.8906 Q195.2969 205.8906 196.3281 207.4375 Q197.3594 208.9844 197.3594 211.5938 Q197.3594 214.2031 196.3203 215.7344 Q195.2812 217.2656 193.5 217.2656 ZM193.5312 216.8125 Q195.8281 216.9219 195.8281 211.5 Q195.8281 206.3281 193.5625 206.3281 Q191.3125 206.3281 191.3125 211.5781 Q191.3125 216.7188 193.5312 216.8125 Z"
                  style="clip-path:url(#clipPath4); stroke:none;"
                  transform="translate(-6,-5)"/>
        </g>
        <g transform="translate(6,5)"
           style="text-rendering:optimizeLegibility; font-family:'Lucida Bright'; color-interpolation:linearRGB; color-rendering:optimizeQuality; image-rendering:optimizeQuality;">
            <path d="M248.5846 193.6818 L248.5846 197.6818"
                  style="fill:none; clip-path:url(#clipPath1);"/>
            <path d="M247.5 219.2656 Q245.8281 219.2656 244.7969 217.7109 Q243.7656 216.1562 243.7656 213.6094 Q243.7656 211 244.7969 209.4453 Q245.8281 207.8906 247.5625 207.8906 Q249.2969 207.8906 250.3281 209.4375 Q251.3594 210.9844 251.3594 213.5938 Q251.3594 216.2031 250.3203 217.7344 Q249.2812 219.2656 247.5 219.2656 ZM247.5312 218.8125 Q249.8281 218.9219 249.8281 213.5 Q249.8281 208.3281 247.5625 208.3281 Q245.3125 208.3281 245.3125 213.5781 Q245.3125 218.7188 247.5312 218.8125 ZM253.2041 219 L253.2041 217.1875 L255.0166 217.1875 L255.0166 219 L253.2041 219 ZM257.8218 219.0156 L257.8218 217.1875 L258.5405 217.1875 L258.5562 217.3594 L258.5718 217.9219 Q258.6187 218.8125 259.978 218.8125 Q260.9937 218.8125 261.5874 218.0234 Q262.1812 217.2344 262.1812 215.875 Q262.1812 214.3281 261.2593 213.6641 Q260.3374 213 258.2593 213 L257.9937 213 L257.9937 208.1562 L263.4624 208.1562 L263.4624 209.4219 L258.4468 209.4219 L258.4468 212.4531 L259.1187 212.4531 Q263.6968 212.4531 263.6968 215.9375 Q263.6968 217.5 262.6421 218.3828 Q261.5874 219.2656 259.728 219.2656 Q258.8062 219.2656 257.8218 219.0156 Z"
                  style="clip-path:url(#clipPath4); stroke:none;"
                  transform="translate(-6,-5)"/>
        </g>
        <g transform="translate(6,5)"
           style="text-rendering:optimizeLegibility; font-family:'Lucida Bright'; color-interpolation:linearRGB; color-rendering:optimizeQuality; image-rendering:optimizeQuality;">
            <path d="M300.905 193.6818 L300.905 197.6818"
                  style="fill:none; clip-path:url(#clipPath1);"/>
            <path d="M307.2812 208.0625 L307.2812 217.1094 L307.3281 217.8281 Q307.3594 218.2656 307.5859 218.3984 Q307.8125 218.5312 308.5156 218.5312 L309.375 218.5469 L309.375 219 L303.7656 219 L303.7656 218.5469 L304.625 218.5312 Q305.3125 218.5312 305.5391 218.3984 Q305.7656 218.2656 305.7969 217.8281 L305.8438 217.1094 L305.8438 210.375 L305.7969 209.6406 Q305.7969 209.125 305.5 209.125 Q305.2812 209.125 304.4844 209.2656 L303.7656 209.3906 L303.7656 208.9375 L307.2812 208.0625 Z"
                  style="clip-path:url(#clipPath4); stroke:none;"
                  transform="translate(-6,-5)"/>
        </g>
        <g transform="translate(6,5)"
           style="text-rendering:optimizeLegibility; font-family:'Lucida Bright'; color-interpolation:linearRGB; color-rendering:optimizeQuality; image-rendering:optimizeQuality;">
            <path d="M353.2253 193.6818 L353.2253 197.6818"
                  style="fill:none; clip-path:url(#clipPath1);"/>
            <path d="M353.2812 208.0625 L353.2812 217.1094 L353.3281 217.8281 Q353.3594 218.2656 353.5859 218.3984 Q353.8125 218.5312 354.5156 218.5312 L355.375 218.5469 L355.375 219 L349.7656 219 L349.7656 218.5469 L350.625 218.5312 Q351.3125 218.5312 351.5391 218.3984 Q351.7656 218.2656 351.7969 217.8281 L351.8438 217.1094 L351.8438 210.375 L351.7969 209.6406 Q351.7969 209.125 351.5 209.125 Q351.2812 209.125 350.4844 209.2656 L349.7656 209.3906 L349.7656 208.9375 L353.2812 208.0625 ZM358.2041 219 L358.2041 217.1875 L360.0166 217.1875 L360.0166 219 L358.2041 219 ZM362.8218 219.0156 L362.8218 217.1875 L363.5405 217.1875 L363.5562 217.3594 L363.5718 217.9219 Q363.6187 218.8125 364.978 218.8125 Q365.9937 218.8125 366.5874 218.0234 Q367.1812 217.2344 367.1812 215.875 Q367.1812 214.3281 366.2593 213.6641 Q365.3374 213 363.2593 213 L362.9937 213 L362.9937 208.1562 L368.4624 208.1562 L368.4624 209.4219 L363.4468 209.4219 L363.4468 212.4531 L364.1187 212.4531 Q368.6968 212.4531 368.6968 215.9375 Q368.6968 217.5 367.6421 218.3828 Q366.5874 219.2656 364.728 219.2656 Q363.8062 219.2656 362.8218 219.0156 Z"
                  style="clip-path:url(#clipPath4); stroke:none;"
                  transform="translate(-6,-5)"/>
        </g>
        <g transform="translate(6,5)"
           style="text-rendering:optimizeLegibility; font-family:'Lucida Bright'; color-interpolation:linearRGB; color-rendering:optimizeQuality; image-rendering:optimizeQuality;">
            <path d="M7.911 193.6818 L7.911 195.6818"
                  style="fill:none; clip-path:url(#clipPath1);"/>
        </g>
        <g transform="translate(6,5)"
           style="text-rendering:optimizeLegibility; font-family:'Lucida Bright'; color-interpolation:linearRGB; color-rendering:optimizeQuality; image-rendering:optimizeQuality;">
            <path d="M18.3751 193.6818 L18.3751 195.6818"
                  style="fill:none; clip-path:url(#clipPath1);"/>
        </g>
        <g transform="translate(6,5)"
           style="text-rendering:optimizeLegibility; font-family:'Lucida Bright'; color-interpolation:linearRGB; color-rendering:optimizeQuality; image-rendering:optimizeQuality;">
            <path d="M28.8391 193.6818 L28.8391 195.6818"
                  style="fill:none; clip-path:url(#clipPath1);"/>
        </g>
        <g transform="translate(6,5)"
           style="text-rendering:optimizeLegibility; font-family:'Lucida Bright'; color-interpolation:linearRGB; color-rendering:optimizeQuality; image-rendering:optimizeQuality;">
            <path d="M49.7673 193.6818 L49.7673 195.6818"
                  style="fill:none; clip-path:url(#clipPath1);"/>
        </g>
        <g transform="translate(6,5)"
           style="text-rendering:optimizeLegibility; font-family:'Lucida Bright'; color-interpolation:linearRGB; color-rendering:optimizeQuality; image-rendering:optimizeQuality;">
            <path d="M60.2314 193.6818 L60.2314 195.6818"
                  style="fill:none; clip-path:url(#clipPath1);"/>
        </g>
        <g transform="translate(6,5)"
           style="text-rendering:optimizeLegibility; font-family:'Lucida Bright'; color-interpolation:linearRGB; color-rendering:optimizeQuality; image-rendering:optimizeQuality;">
            <path d="M70.6954 193.6818 L70.6954 195.6818"
                  style="fill:none; clip-path:url(#clipPath1);"/>
        </g>
        <g transform="translate(6,5)"
           style="text-rendering:optimizeLegibility; font-family:'Lucida Bright'; color-interpolation:linearRGB; color-rendering:optimizeQuality; image-rendering:optimizeQuality;">
            <path d="M81.1595 193.6818 L81.1595 195.6818"
                  style="fill:none; clip-path:url(#clipPath1);"/>
        </g>
        <g transform="translate(6,5)"
           style="text-rendering:optimizeLegibility; font-family:'Lucida Bright'; color-interpolation:linearRGB; color-rendering:optimizeQuality; image-rendering:optimizeQuality;">
            <path d="M102.0876 193.6818 L102.0876 195.6818"
                  style="fill:none; clip-path:url(#clipPath1);"/>
        </g>
        <g transform="translate(6,5)"
           style="text-rendering:optimizeLegibility; font-family:'Lucida Bright'; color-interpolation:linearRGB; color-rendering:optimizeQuality; image-rendering:optimizeQuality;">
            <path d="M112.5517 193.6818 L112.5517 195.6818"
                  style="fill:none; clip-path:url(#clipPath1);"/>
        </g>
        <g transform="translate(6,5)"
           style="text-rendering:optimizeLegibility; font-family:'Lucida Bright'; color-interpolation:linearRGB; color-rendering:optimizeQuality; image-rendering:optimizeQuality;">
            <path d="M123.0158 193.6818 L123.0158 195.6818"
                  style="fill:none; clip-path:url(#clipPath1);"/>
        </g>
        <g transform="translate(6,5)"
           style="text-rendering:optimizeLegibility; font-family:'Lucida Bright'; color-interpolation:linearRGB; color-rendering:optimizeQuality; image-rendering:optimizeQuality;">
            <path d="M133.4799 193.6818 L133.4799 195.6818"
                  style="fill:none; clip-path:url(#clipPath1);"/>
        </g>
        <g transform="translate(6,5)"
           style="text-rendering:optimizeLegibility; font-family:'Lucida Bright'; color-interpolation:linearRGB; color-rendering:optimizeQuality; image-rendering:optimizeQuality;">
            <path d="M154.408 193.6818 L154.408 195.6818"
                  style="fill:none; clip-path:url(#clipPath1);"/>
        </g>
        <g transform="translate(6,5)"
           style="text-rendering:optimizeLegibility; font-family:'Lucida Bright'; color-interpolation:linearRGB; color-rendering:optimizeQuality; image-rendering:optimizeQuality;">
            <path d="M164.8721 193.6818 L164.8721 195.6818"
                  style="fill:none; clip-path:url(#clipPath1);"/>
        </g>
        <g transform="translate(6,5)"
           style="text-rendering:optimizeLegibility; font-family:'Lucida Bright'; color-interpolation:linearRGB; color-rendering:optimizeQuality; image-rendering:optimizeQuality;">
            <path d="M175.3361 193.6818 L175.3361 195.6818"
                  style="fill:none; clip-path:url(#clipPath1);"/>
        </g>
        <g transform="translate(6,5)"
           style="text-rendering:optimizeLegibility; font-family:'Lucida Bright'; color-interpolation:linearRGB; color-rendering:optimizeQuality; image-rendering:optimizeQuality;">
            <path d="M185.8002 193.6818 L185.8002 195.6818"
                  style="fill:none; clip-path:url(#clipPath1);"/>
        </g>
        <g transform="translate(6,5)"
           style="text-rendering:optimizeLegibility; font-family:'Lucida Bright'; color-interpolation:linearRGB; color-rendering:optimizeQuality; image-rendering:optimizeQuality;">
            <path d="M206.7283 193.6818 L206.7283 195.6818"
                  style="fill:none; clip-path:url(#clipPath1);"/>
        </g>
        <g transform="translate(6,5)"
           style="text-rendering:optimizeLegibility; font-family:'Lucida Bright'; color-interpolation:linearRGB; color-rendering:optimizeQuality; image-rendering:optimizeQuality;">
            <path d="M217.1924 193.6818 L217.1924 195.6818"
                  style="fill:none; clip-path:url(#clipPath1);"/>
        </g>
        <g transform="translate(6,5)"
           style="text-rendering:optimizeLegibility; font-family:'Lucida Bright'; color-interpolation:linearRGB; color-rendering:optimizeQuality; image-rendering:optimizeQuality;">
            <path d="M227.6565 193.6818 L227.6565 195.6818"
                  style="fill:none; clip-path:url(#clipPath1);"/>
        </g>
        <g transform="translate(6,5)"
           style="text-rendering:optimizeLegibility; font-family:'Lucida Bright'; color-interpolation:linearRGB; color-rendering:optimizeQuality; image-rendering:optimizeQuality;">
            <path d="M238.1206 193.6818 L238.1206 195.6818"
                  style="fill:none; clip-path:url(#clipPath1);"/>
        </g>
        <g transform="translate(6,5)"
           style="text-rendering:optimizeLegibility; font-family:'Lucida Bright'; color-interpolation:linearRGB; color-rendering:optimizeQuality; image-rendering:optimizeQuality;">
            <path d="M259.0487 193.6818 L259.0487 195.6818"
                  style="fill:none; clip-path:url(#clipPath1);"/>
        </g>
        <g transform="translate(6,5)"
           style="text-rendering:optimizeLegibility; font-family:'Lucida Bright'; color-interpolation:linearRGB; color-rendering:optimizeQuality; image-rendering:optimizeQuality;">
            <path d="M269.5128 193.6818 L269.5128 195.6818"
                  style="fill:none; clip-path:url(#clipPath1);"/>
        </g>
        <g transform="translate(6,5)"
           style="text-rendering:optimizeLegibility; font-family:'Lucida Bright'; color-interpolation:linearRGB; color-rendering:optimizeQuality; image-rendering:optimizeQuality;">
            <path d="M279.9769 193.6818 L279.9769 195.6818"
                  style="fill:none; clip-path:url(#clipPath1);"/>
        </g>
        <g transform="translate(6,5)"
           style="text-rendering:optimizeLegibility; font-family:'Lucida Bright'; color-interpolation:linearRGB; color-rendering:optimizeQuality; image-rendering:optimizeQuality;">
            <path d="M290.4409 193.6818 L290.4409 195.6818"
                  style="fill:none; clip-path:url(#clipPath1);"/>
        </g>
        <g transform="translate(6,5)"
           style="text-rendering:optimizeLegibility; font-family:'Lucida Bright'; color-interpolation:linearRGB; color-rendering:optimizeQuality; image-rendering:optimizeQuality;">
            <path d="M311.369 193.6818 L311.369 195.6818"
                  style="fill:none; clip-path:url(#clipPath1);"/>
        </g>
        <g transform="translate(6,5)"
           style="text-rendering:optimizeLegibility; font-family:'Lucida Bright'; color-interpolation:linearRGB; color-rendering:optimizeQuality; image-rendering:optimizeQuality;">
            <path d="M321.8331 193.6818 L321.8331 195.6818"
                  style="fill:none; clip-path:url(#clipPath1);"/>
        </g>
        <g transform="translate(6,5)"
           style="text-rendering:optimizeLegibility; font-family:'Lucida Bright'; color-interpolation:linearRGB; color-rendering:optimizeQuality; image-rendering:optimizeQuality;">
            <path d="M332.2972 193.6818 L332.2972 195.6818"
                  style="fill:none; clip-path:url(#clipPath1);"/>
        </g>
        <g transform="translate(6,5)"
           style="text-rendering:optimizeLegibility; font-family:'Lucida Bright'; color-interpolation:linearRGB; color-rendering:optimizeQuality; image-rendering:optimizeQuality;">
            <path d="M342.7613 193.6818 L342.7613 195.6818"
                  style="fill:none; clip-path:url(#clipPath1);"/>
        </g>
        <g transform="translate(6,5)"
           style="text-rendering:optimizeLegibility; font-family:'Lucida Bright'; color-interpolation:linearRGB; color-rendering:optimizeQuality; image-rendering:optimizeQuality;">
            <path d="M363.6894 193.6818 L363.6894 195.6818"
                  style="fill:none; clip-path:url(#clipPath1);"/>
        </g>
        <g transform="translate(6,5)"
           style="text-rendering:optimizeLegibility; font-family:'Lucida Bright'; color-interpolation:linearRGB; color-rendering:optimizeQuality; image-rendering:optimizeQuality;">
            <path d="M374.1535 193.6818 L374.1535 195.6818"
                  style="fill:none; clip-path:url(#clipPath1);"/>
        </g>
        <g transform="translate(6,5)"
           style="text-rendering:optimizeLegibility; font-family:'Lucida Bright'; color-interpolation:linearRGB; color-rendering:optimizeQuality; image-rendering:optimizeQuality;">
            <path d="M384.6176 193.6818 L384.6176 195.6818"
                  style="fill:none; clip-path:url(#clipPath1);"/>
        </g>
        <g transform="translate(6,5)"
           style="stroke-linecap:butt; text-rendering:optimizeLegibility; color-rendering:optimizeQuality; image-rendering:optimizeQuality; font-family:'Lucida Bright'; stroke-linejoin:round; color-interpolation:linearRGB;">
            <path d="M196.2643 388 L196.2643 4.7373"
                  style="fill:none; clip-path:url(#clipPath1);"/>
        </g>
        <g transform="translate(6,5)"
           style="stroke-linecap:butt; text-rendering:optimizeLegibility; color-rendering:optimizeQuality; image-rendering:optimizeQuality; font-family:'Lucida Bright'; stroke-linejoin:round; color-interpolation:linearRGB;">
            <path d="M136.9688 107.8906 Q138.3125 106.9531 140.3438 105.0781 L140.625 104.8125 Q140.5312 103.1094 140.1875 101.2266 Q139.8438 99.3438 139.4688 98.5 Q139.1406 97.7969 138.9531 97.6719 Q138.7656 97.5469 137.9375 97.5 L137.7656 97.5 L137.8438 97.0469 L140.5156 97.0469 Q141.6562 99.7344 141.8125 103.3594 L142.7188 102.1875 Q144.0469 100.5 144.4922 99.7109 Q144.9375 98.9219 144.9375 98.25 Q144.9375 97.5625 144.3594 97.0469 L146.1719 97.0469 Q146.3281 97.375 146.3281 97.6719 Q146.3281 98.2969 145.9219 98.9766 Q145.5156 99.6562 144.2188 101.2031 L141.4531 104.5312 Q139.7969 106.5156 138.9688 107.8906 L136.9688 107.8906 Z"
                  style="stroke:none; clip-path:url(#clipPath8);"/>
        </g>
        <g transform="translate(6,5)"
           style="text-rendering:optimizeLegibility; font-family:'Lucida Bright'; color-interpolation:linearRGB; color-rendering:optimizeQuality; image-rendering:optimizeQuality;">
            <path d="M196.2643 377.3976 L192.2643 377.3976"
                  style="fill:none; clip-path:url(#clipPath1);"/>
        </g>
        <g style="text-rendering:optimizeLegibility; font-family:'Lucida Bright'; color-interpolation:linearRGB; color-rendering:optimizeQuality; image-rendering:optimizeQuality;">
            <path d="M188.4531 383.8906 L178.5469 383.8906 L178.5469 383.1094 L188.4531 383.1094 L188.4531 383.8906 Z"
                  style="stroke:none; clip-path:url(#clipPath9);"/>
        </g>
        <g style="text-rendering:optimizeLegibility; font-family:'Lucida Bright'; color-interpolation:linearRGB; color-rendering:optimizeQuality; image-rendering:optimizeQuality;">
            <path d="M191.2812 377.0625 L191.2812 386.1094 L191.3281 386.8281 Q191.3594 387.2656 191.5859 387.3984 Q191.8125 387.5312 192.5156 387.5312 L193.375 387.5469 L193.375 388 L187.7656 388 L187.7656 387.5469 L188.625 387.5312 Q189.3125 387.5312 189.5391 387.3984 Q189.7656 387.2656 189.7969 386.8281 L189.8438 386.1094 L189.8438 379.375 L189.7969 378.6406 Q189.7969 378.125 189.5 378.125 Q189.2812 378.125 188.4844 378.2656 L187.7656 378.3906 L187.7656 377.9375 L191.2812 377.0625 Z"
                  style="stroke:none; clip-path:url(#clipPath4);"/>
        </g>
        <g transform="translate(6,5)"
           style="text-rendering:optimizeLegibility; font-family:'Lucida Bright'; color-interpolation:linearRGB; color-rendering:optimizeQuality; image-rendering:optimizeQuality;">
            <path d="M196.2643 285.5397 L192.2643 285.5397"
                  style="fill:none; clip-path:url(#clipPath1);"/>
        </g>
        <g style="text-rendering:optimizeLegibility; font-family:'Lucida Bright'; color-interpolation:linearRGB; color-rendering:optimizeQuality; image-rendering:optimizeQuality;">
            <path d="M174.4531 291.8906 L164.5469 291.8906 L164.5469 291.1094 L174.4531 291.1094 L174.4531 291.8906 Z"
                  style="stroke:none; clip-path:url(#clipPath10);"/>
        </g>
        <g style="text-rendering:optimizeLegibility; font-family:'Lucida Bright'; color-interpolation:linearRGB; color-rendering:optimizeQuality; image-rendering:optimizeQuality;">
            <path d="M176.5 296.2656 Q174.8281 296.2656 173.7969 294.7109 Q172.7656 293.1562 172.7656 290.6094 Q172.7656 288 173.7969 286.4453 Q174.8281 284.8906 176.5625 284.8906 Q178.2969 284.8906 179.3281 286.4375 Q180.3594 287.9844 180.3594 290.5938 Q180.3594 293.2031 179.3203 294.7344 Q178.2812 296.2656 176.5 296.2656 ZM176.5312 295.8125 Q178.8281 295.9219 178.8281 290.5 Q178.8281 285.3281 176.5625 285.3281 Q174.3125 285.3281 174.3125 290.5781 Q174.3125 295.7188 176.5312 295.8125 ZM182.2041 296 L182.2041 294.1875 L184.0166 294.1875 L184.0166 296 L182.2041 296 ZM186.8218 296.0156 L186.8218 294.1875 L187.5405 294.1875 L187.5562 294.3594 L187.5718 294.9219 Q187.6187 295.8125 188.978 295.8125 Q189.9937 295.8125 190.5874 295.0234 Q191.1812 294.2344 191.1812 292.875 Q191.1812 291.3281 190.2593 290.6641 Q189.3374 290 187.2593 290 L186.9937 290 L186.9937 285.1562 L192.4624 285.1562 L192.4624 286.4219 L187.4468 286.4219 L187.4468 289.4531 L188.1187 289.4531 Q192.6968 289.4531 192.6968 292.9375 Q192.6968 294.5 191.6421 295.3828 Q190.5874 296.2656 188.728 296.2656 Q187.8062 296.2656 186.8218 296.0156 Z"
                  style="stroke:none; clip-path:url(#clipPath4);"/>
        </g>
        <g transform="translate(6,5)"
           style="text-rendering:optimizeLegibility; font-family:'Lucida Bright'; color-interpolation:linearRGB; color-rendering:optimizeQuality; image-rendering:optimizeQuality;">
            <path d="M196.2643 193.6818 L192.2643 193.6818"
                  style="fill:none; clip-path:url(#clipPath1);"/>
        </g>
        <g transform="translate(6,5)"
           style="text-rendering:optimizeLegibility; font-family:'Lucida Bright'; color-interpolation:linearRGB; color-rendering:optimizeQuality; image-rendering:optimizeQuality;">
            <path d="M196.2643 101.8239 L192.2643 101.8239"
                  style="fill:none; clip-path:url(#clipPath1);"/>
            <path d="M176.5 112.2656 Q174.8281 112.2656 173.7969 110.7109 Q172.7656 109.1562 172.7656 106.6094 Q172.7656 104 173.7969 102.4453 Q174.8281 100.8906 176.5625 100.8906 Q178.2969 100.8906 179.3281 102.4375 Q180.3594 103.9844 180.3594 106.5938 Q180.3594 109.2031 179.3203 110.7344 Q178.2812 112.2656 176.5 112.2656 ZM176.5312 111.8125 Q178.8281 111.9219 178.8281 106.5 Q178.8281 101.3281 176.5625 101.3281 Q174.3125 101.3281 174.3125 106.5781 Q174.3125 111.7188 176.5312 111.8125 ZM182.2041 112 L182.2041 110.1875 L184.0166 110.1875 L184.0166 112 L182.2041 112 ZM186.8218 112.0156 L186.8218 110.1875 L187.5405 110.1875 L187.5562 110.3594 L187.5718 110.9219 Q187.6187 111.8125 188.978 111.8125 Q189.9937 111.8125 190.5874 111.0234 Q191.1812 110.2344 191.1812 108.875 Q191.1812 107.3281 190.2593 106.6641 Q189.3374 106 187.2593 106 L186.9937 106 L186.9937 101.1562 L192.4624 101.1562 L192.4624 102.4219 L187.4468 102.4219 L187.4468 105.4531 L188.1187 105.4531 Q192.6968 105.4531 192.6968 108.9375 Q192.6968 110.5 191.6421 111.3828 Q190.5874 112.2656 188.728 112.2656 Q187.8062 112.2656 186.8218 112.0156 Z"
                  style="clip-path:url(#clipPath4); stroke:none;"
                  transform="translate(-6,-5)"/>
        </g>
        <g transform="translate(6,5)"
           style="text-rendering:optimizeLegibility; font-family:'Lucida Bright'; color-interpolation:linearRGB; color-rendering:optimizeQuality; image-rendering:optimizeQuality;">
            <path d="M196.2643 9.966 L192.2643 9.966"
                  style="fill:none; clip-path:url(#clipPath1);"/>
            <path d="M191.2812 9.0625 L191.2812 18.1094 L191.3281 18.8281 Q191.3594 19.2656 191.5859 19.3984 Q191.8125 19.5312 192.5156 19.5312 L193.375 19.5469 L193.375 20 L187.7656 20 L187.7656 19.5469 L188.625 19.5312 Q189.3125 19.5312 189.5391 19.3984 Q189.7656 19.2656 189.7969 18.8281 L189.8438 18.1094 L189.8438 11.375 L189.7969 10.6406 Q189.7969 10.125 189.5 10.125 Q189.2812 10.125 188.4844 10.2656 L187.7656 10.3906 L187.7656 9.9375 L191.2812 9.0625 Z"
                  style="clip-path:url(#clipPath4); stroke:none;"
                  transform="translate(-6,-5)"/>
        </g>
        <g transform="translate(6,5)"
           style="text-rendering:optimizeLegibility; font-family:'Lucida Bright'; color-interpolation:linearRGB; color-rendering:optimizeQuality; image-rendering:optimizeQuality;">
            <path d="M196.2643 359.026 L194.2643 359.026"
                  style="fill:none; clip-path:url(#clipPath1);"/>
        </g>
        <g transform="translate(6,5)"
           style="text-rendering:optimizeLegibility; font-family:'Lucida Bright'; color-interpolation:linearRGB; color-rendering:optimizeQuality; image-rendering:optimizeQuality;">
            <path d="M196.2643 340.6544 L194.2643 340.6544"
                  style="fill:none; clip-path:url(#clipPath1);"/>
        </g>
        <g transform="translate(6,5)"
           style="text-rendering:optimizeLegibility; font-family:'Lucida Bright'; color-interpolation:linearRGB; color-rendering:optimizeQuality; image-rendering:optimizeQuality;">
            <path d="M196.2643 322.2828 L194.2643 322.2828"
                  style="fill:none; clip-path:url(#clipPath1);"/>
        </g>
        <g transform="translate(6,5)"
           style="text-rendering:optimizeLegibility; font-family:'Lucida Bright'; color-interpolation:linearRGB; color-rendering:optimizeQuality; image-rendering:optimizeQuality;">
            <path d="M196.2643 303.9113 L194.2643 303.9113"
                  style="fill:none; clip-path:url(#clipPath1);"/>
        </g>
        <g transform="translate(6,5)"
           style="text-rendering:optimizeLegibility; font-family:'Lucida Bright'; color-interpolation:linearRGB; color-rendering:optimizeQuality; image-rendering:optimizeQuality;">
            <path d="M196.2643 267.1681 L194.2643 267.1681"
                  style="fill:none; clip-path:url(#clipPath1);"/>
        </g>
        <g transform="translate(6,5)"
           style="text-rendering:optimizeLegibility; font-family:'Lucida Bright'; color-interpolation:linearRGB; color-rendering:optimizeQuality; image-rendering:optimizeQuality;">
            <path d="M196.2643 248.7965 L194.2643 248.7965"
                  style="fill:none; clip-path:url(#clipPath1);"/>
        </g>
        <g transform="translate(6,5)"
           style="text-rendering:optimizeLegibility; font-family:'Lucida Bright'; color-interpolation:linearRGB; color-rendering:optimizeQuality; image-rendering:optimizeQuality;">
            <path d="M196.2643 230.425 L194.2643 230.425"
                  style="fill:none; clip-path:url(#clipPath1);"/>
        </g>
        <g transform="translate(6,5)"
           style="text-rendering:optimizeLegibility; font-family:'Lucida Bright'; color-interpolation:linearRGB; color-rendering:optimizeQuality; image-rendering:optimizeQuality;">
            <path d="M196.2643 212.0534 L194.2643 212.0534"
                  style="fill:none; clip-path:url(#clipPath1);"/>
        </g>
        <g transform="translate(6,5)"
           style="text-rendering:optimizeLegibility; font-family:'Lucida Bright'; color-interpolation:linearRGB; color-rendering:optimizeQuality; image-rendering:optimizeQuality;">
            <path d="M196.2643 175.3102 L194.2643 175.3102"
                  style="fill:none; clip-path:url(#clipPath1);"/>
        </g>
        <g transform="translate(6,5)"
           style="text-rendering:optimizeLegibility; font-family:'Lucida Bright'; color-interpolation:linearRGB; color-rendering:optimizeQuality; image-rendering:optimizeQuality;">
            <path d="M196.2643 156.9386 L194.2643 156.9386"
                  style="fill:none; clip-path:url(#clipPath1);"/>
        </g>
        <g transform="translate(6,5)"
           style="text-rendering:optimizeLegibility; font-family:'Lucida Bright'; color-interpolation:linearRGB; color-rendering:optimizeQuality; image-rendering:optimizeQuality;">
            <path d="M196.2643 138.5671 L194.2643 138.5671"
                  style="fill:none; clip-path:url(#clipPath1);"/>
        </g>
        <g transform="translate(6,5)"
           style="text-rendering:optimizeLegibility; font-family:'Lucida Bright'; color-interpolation:linearRGB; color-rendering:optimizeQuality; image-rendering:optimizeQuality;">
            <path d="M196.2643 120.1955 L194.2643 120.1955"
                  style="fill:none; clip-path:url(#clipPath1);"/>
        </g>
        <g transform="translate(6,5)"
           style="text-rendering:optimizeLegibility; font-family:'Lucida Bright'; color-interpolation:linearRGB; color-rendering:optimizeQuality; image-rendering:optimizeQuality;">
            <path d="M196.2643 83.4523 L194.2643 83.4523"
                  style="fill:none; clip-path:url(#clipPath1);"/>
        </g>
        <g transform="translate(6,5)"
           style="text-rendering:optimizeLegibility; font-family:'Lucida Bright'; color-interpolation:linearRGB; color-rendering:optimizeQuality; image-rendering:optimizeQuality;">
            <path d="M196.2643 65.0807 L194.2643 65.0807"
                  style="fill:none; clip-path:url(#clipPath1);"/>
        </g>
        <g transform="translate(6,5)"
           style="text-rendering:optimizeLegibility; font-family:'Lucida Bright'; color-interpolation:linearRGB; color-rendering:optimizeQuality; image-rendering:optimizeQuality;">
            <path d="M196.2643 46.7092 L194.2643 46.7092"
                  style="fill:none; clip-path:url(#clipPath1);"/>
        </g>
        <g transform="translate(6,5)"
           style="text-rendering:optimizeLegibility; font-family:'Lucida Bright'; color-interpolation:linearRGB; color-rendering:optimizeQuality; image-rendering:optimizeQuality;">
            <path d="M196.2643 28.3376 L194.2643 28.3376"
                  style="fill:none; clip-path:url(#clipPath1);"/>
        </g>
    </g>
</svg>
