<?xml version="1.0" encoding="UTF-8"?>
<!DOCTYPE svg PUBLIC '-//W3C//DTD SVG 1.0//EN'
    'http://www.w3.org/TR/2001/REC-SVG-20010904/DTD/svg10.dtd' >

<svg style="stroke-dasharray:none; shape-rendering:auto; font-family:'Dialog'; text-rendering:auto; fill-opacity:1; color-interpolation:auto; color-rendering:auto; font-size:12px; fill:black; stroke:black; image-rendering:auto; stroke-miterlimit:10; stroke-linecap:square; stroke-linejoin:miter; font-style:normal; stroke-width:1; stroke-dashoffset:0; font-weight:normal; stroke-opacity:1;"
     xmlns="http://www.w3.org/2000/svg" contentScriptType="text/ecmascript"
     preserveAspectRatio="xMidYMid meet"
     xmlns:xlink="http://www.w3.org/1999/xlink" zoomAndPan="magnify"
     version="1.0" contentStyleType="text/css">
    <!--Generated by the Batik Graphics2D SVG Generator-->
    <defs id="genericDefs"/>
    <g>
        <defs id="defs1">
            <clipPath clipPathUnits="userSpaceOnUse" id="clipPath1">
                <path d="M0 0 L390 0 L390 390 L0 390 L0 0 Z"/>
            </clipPath>
            <clipPath clipPathUnits="userSpaceOnUse" id="clipPath2">
                <path d="M9.9495 0 L9.9495 389 L389.8609 389 L389.8609 0 Z"/>
            </clipPath>
            <clipPath clipPathUnits="userSpaceOnUse" id="clipPath3">
                <path d="M283 225 L283 243 L302 243 L302 225 Z"/>
            </clipPath>
            <clipPath clipPathUnits="userSpaceOnUse" id="clipPath4">
                <path d="M6 5 L396 5 L396 395 L6 395 L6 5 Z"/>
            </clipPath>
            <clipPath clipPathUnits="userSpaceOnUse" id="clipPath5">
                <path d="M7 214 L7 230 L15 230 L15 214 Z"/>
            </clipPath>
            <clipPath clipPathUnits="userSpaceOnUse" id="clipPath6">
                <path d="M101 214 L101 230 L109 230 L109 214 Z"/>
            </clipPath>
            <clipPath clipPathUnits="userSpaceOnUse" id="clipPath7">
                <path d="M132 92 L132 110 L152 110 L152 92 Z"/>
            </clipPath>
            <clipPath clipPathUnits="userSpaceOnUse" id="clipPath8">
                <path d="M177 375 L177 391 L185 391 L185 375 Z"/>
            </clipPath>
            <clipPath clipPathUnits="userSpaceOnUse" id="clipPath9">
                <path d="M163 287 L163 303 L171 303 L171 287 Z"/>
            </clipPath>
        </defs>
        <g transform="translate(6,5)"
           style="stroke-linecap:butt; fill:rgb(165,165,165); text-rendering:optimizeLegibility; image-rendering:optimizeQuality; color-rendering:optimizeQuality; font-family:'Lucida Bright'; stroke-linejoin:round; stroke:rgb(165,165,165); color-interpolation:linearRGB;">
            <path d="M10.9997 388 L10.9997 1"
                  style="fill:none; clip-path:url(#clipPath1);"/>
            <path d="M104.2523 388 L104.2523 1"
                  style="fill:none; clip-path:url(#clipPath1);"/>
            <path d="M197.5048 388 L197.5048 1"
                  style="fill:none; clip-path:url(#clipPath1);"/>
            <path d="M290.7573 388 L290.7573 1"
                  style="fill:none; clip-path:url(#clipPath1);"/>
            <path d="M384.0099 388 L384.0099 1"
                  style="fill:none; clip-path:url(#clipPath1);"/>
            <path d="M57.626 388 L57.626 1"
                  style="fill:none; clip-path:url(#clipPath1); stroke:rgb(233,233,233);"/>
            <path d="M150.8785 388 L150.8785 1"
                  style="fill:none; clip-path:url(#clipPath1); stroke:rgb(233,233,233);"/>
            <path d="M244.1311 388 L244.1311 1"
                  style="fill:none; clip-path:url(#clipPath1); stroke:rgb(233,233,233);"/>
            <path d="M337.3836 388 L337.3836 1"
                  style="fill:none; clip-path:url(#clipPath1); stroke:rgb(233,233,233);"/>
        </g>
        <g transform="translate(6,5)"
           style="stroke-linecap:butt; fill:rgb(165,165,165); text-rendering:optimizeLegibility; image-rendering:optimizeQuality; color-rendering:optimizeQuality; font-family:'Lucida Bright'; stroke-linejoin:round; stroke:rgb(165,165,165); color-interpolation:linearRGB;">
            <path d="M10.9495 377.7523 L387.8609 377.7523"
                  style="fill:none; clip-path:url(#clipPath1);"/>
            <path d="M10.9495 289.7175 L387.8609 289.7175"
                  style="fill:none; clip-path:url(#clipPath1);"/>
            <path d="M10.9495 201.6826 L387.8609 201.6826"
                  style="fill:none; clip-path:url(#clipPath1);"/>
            <path d="M10.9495 113.6478 L387.8609 113.6478"
                  style="fill:none; clip-path:url(#clipPath1);"/>
            <path d="M10.9495 25.6129 L387.8609 25.6129"
                  style="fill:none; clip-path:url(#clipPath1);"/>
            <path d="M10.9495 360.1454 L387.8609 360.1454"
                  style="fill:none; clip-path:url(#clipPath1); stroke:rgb(233,233,233);"/>
            <path d="M10.9495 342.5384 L387.8609 342.5384"
                  style="fill:none; clip-path:url(#clipPath1); stroke:rgb(233,233,233);"/>
            <path d="M10.9495 324.9314 L387.8609 324.9314"
                  style="fill:none; clip-path:url(#clipPath1); stroke:rgb(233,233,233);"/>
            <path d="M10.9495 307.3245 L387.8609 307.3245"
                  style="fill:none; clip-path:url(#clipPath1); stroke:rgb(233,233,233);"/>
            <path d="M10.9495 272.1105 L387.8609 272.1105"
                  style="fill:none; clip-path:url(#clipPath1); stroke:rgb(233,233,233);"/>
            <path d="M10.9495 254.5036 L387.8609 254.5036"
                  style="fill:none; clip-path:url(#clipPath1); stroke:rgb(233,233,233);"/>
            <path d="M10.9495 236.8966 L387.8609 236.8966"
                  style="fill:none; clip-path:url(#clipPath1); stroke:rgb(233,233,233);"/>
            <path d="M10.9495 219.2896 L387.8609 219.2896"
                  style="fill:none; clip-path:url(#clipPath1); stroke:rgb(233,233,233);"/>
            <path d="M10.9495 184.0757 L387.8609 184.0757"
                  style="fill:none; clip-path:url(#clipPath1); stroke:rgb(233,233,233);"/>
            <path d="M10.9495 166.4687 L387.8609 166.4687"
                  style="fill:none; clip-path:url(#clipPath1); stroke:rgb(233,233,233);"/>
            <path d="M10.9495 148.8617 L387.8609 148.8617"
                  style="fill:none; clip-path:url(#clipPath1); stroke:rgb(233,233,233);"/>
            <path d="M10.9495 131.2548 L387.8609 131.2548"
                  style="fill:none; clip-path:url(#clipPath1); stroke:rgb(233,233,233);"/>
            <path d="M10.9495 96.0408 L387.8609 96.0408"
                  style="fill:none; clip-path:url(#clipPath1); stroke:rgb(233,233,233);"/>
            <path d="M10.9495 78.4339 L387.8609 78.4339"
                  style="fill:none; clip-path:url(#clipPath1); stroke:rgb(233,233,233);"/>
            <path d="M10.9495 60.8269 L387.8609 60.8269"
                  style="fill:none; clip-path:url(#clipPath1); stroke:rgb(233,233,233);"/>
            <path d="M10.9495 43.2199 L387.8609 43.2199"
                  style="fill:none; clip-path:url(#clipPath1); stroke:rgb(233,233,233);"/>
            <path d="M10.9495 8.006 L387.8609 8.006"
                  style="fill:none; clip-path:url(#clipPath1); stroke:rgb(233,233,233);"/>
        </g>
        <g transform="translate(6,5)"
           style="stroke-linecap:butt; fill:blue; text-rendering:optimizeLegibility; image-rendering:optimizeQuality; color-rendering:optimizeQuality; font-family:'Lucida Bright'; stroke-linejoin:round; stroke:blue; color-interpolation:linearRGB; stroke-width:1.5;">
            <path d="M11.5603 35.6965 L11.82 37.6097 L11.9406 38.3277 L12.4648 41.1382 L13.0934 44.0327 L13.2407 44.6666 L13.4291 45.3871 L14.1505 48.195 L14.9941 51.1498 L15.1643 51.7235 L15.2979 52.136 L16.2906 55.252 L17.1667 57.7879 L17.504 58.7804 L18.2599 60.8445 L18.8064 62.3088 L19.0355 62.8839 L20.1942 65.8373 L20.9043 67.5393 L21.6548 69.3657 L22.7731 71.9339 L23.185 72.8942 L24.6419 76.1094 L24.7817 76.4226 L25.889 78.7773 L26.4436 79.9511 L26.5107 80.0864 L28.1682 83.4796 L28.3794 83.8928 L29.9497 87.008 L30.2482 87.5752 L31.7856 90.5364 L32.117 91.1488 L33.6739 94.0649 L33.9858 94.6263 L35.6124 97.5934 L35.8546 98.0186 L37.5992 101.1218 L37.7234 101.3347 L39.131 103.7795 L39.5922 104.5782 L39.6332 104.6503 L41.461 107.7422 L41.7157 108.1787 L43.3298 110.849 L43.8418 111.7072 L45.1985 113.9044 L46.0101 115.2356 L47.0673 116.9133 L48.2189 118.7641 L48.9361 119.8803 L50.4668 122.2925 L50.8049 122.8091 L52.3181 125.1496 L52.6737 125.6962 L52.7538 125.821 L54.5425 128.5204 L55.085 129.3494 L56.4113 131.3163 L57.4515 132.8779 L58.2801 134.086 L59.8522 136.4063 L60.1488 136.8319 L61.1247 138.2488 L62.0176 139.5355 L62.2914 139.9348 L63.8864 142.1967 L64.7689 143.4632 L65.7552 144.8406 L67.2774 146.9917 L67.624 147.4687 L68.586 148.808 L69.4928 150.0597 L69.8223 150.5201 L71.3616 152.6142 L72.4035 154.0486 L73.2304 155.1577 L75.0128 157.577 L75.0992 157.6912 L75.3071 157.9697 L76.9679 160.1726 L77.6629 161.1055 L78.8367 162.6418 L80.3411 164.6339 L80.7055 165.1047 L81.5158 166.1638 L82.5743 167.5339 L83.0542 168.1624 L84.4431 169.9373 L85.7993 171.6908 L86.3119 172.3379 L87.3708 173.6902 L88.1807 174.7138 L88.5759 175.2193 L90.0495 177.0593 L91.3859 178.7477 L91.9182 179.4047 L92.9454 180.6871 L93.787 181.7267 L94.2267 182.2762 L95.6558 184.0211 L97.0997 185.8046 L97.5246 186.3177 L98.2941 187.2574 L99.3934 188.5853 L100.0053 189.3331 L101.2622 190.8346 L102.9394 192.8615 L103.131 193.0879 L103.4579 193.4788 L104.9998 195.3011 L105.9104 196.39 L106.8686 197.5106 L108.4581 199.3913 L108.7373 199.7177 L108.907 199.9184 L110.6061 201.8846 L111.9406 203.4469 L112.4749 204.0591 L113.3144 205.032 L114.3437 206.2104 L115.0041 206.9753 L116.2125 208.3452 L118.0606 210.4647 L118.0813 210.4881 L118.0949 210.5038 L119.9501 212.5847 L121.2256 214.0322 L121.8189 214.6915 L122.6817 215.6614 L123.6876 216.7778 L124.3849 217.5607 L125.5564 218.8489 L127.2172 220.6964 L127.4252 220.9248 L127.5732 221.0891 L129.294 222.9614 L130.7985 224.6176 L131.1628 225.0105 L131.6557 225.5483 L133.0316 227.0294 L134.0568 228.146 L134.9004 229.0463 L136.0141 230.2489 L136.7692 231.053 L137.3458 231.6745 L138.638 233.0389 L140.3027 234.8177 L140.5067 235.0326 L140.6665 235.2029 L142.3755 236.9886 L144.0239 238.7314 L144.2443 238.9598 L144.5164 239.2451 L146.1131 240.8956 L147.4172 242.2598 L147.9819 242.8389 L148.6629 243.5455 L149.8507 244.7602 L150.844 245.7883 L151.7195 246.6767 L152.7509 247.7358 L153.5883 248.5828 L154.305 249.3167 L155.4571 250.4733 L156.7832 251.8206 L157.3259 252.3636 L157.8013 252.8452 L159.1946 254.229 L160.7621 255.8047 L161.0634 256.1029 L161.3336 256.3736 L162.9322 257.9442 L164.6898 259.6922 L164.801 259.801 L164.903 259.9021 L166.6698 261.6191 L168.511 263.4305 L168.5386 263.4572 L168.5678 263.4858 L170.4074 265.254 L172.1593 266.959 L172.2762 267.0706 L172.3972 267.1876 L174.1449 268.8491 L175.8469 270.4874 L176.0137 270.645 L176.1828 270.8067 L177.8825 272.4047 L179.5748 274.0159 L179.7513 274.1808 L179.9263 274.3463 L181.6201 275.9211 L183.344 277.5443 L183.4889 277.6782 L183.6294 277.8097 L185.3577 279.3985 L187.1557 281.0728 L187.2265 281.1375 L187.2936 281.1996 L189.0952 282.8372 L190.9193 284.5168 L190.964 284.5572 L191.0121 284.6013 L192.8328 286.2374 L194.5064 287.7612 L194.7016 287.9356 L194.916 288.1297 L196.5704 289.5994 L198.0581 290.9386 L198.4392 291.2752 L198.867 291.6581 L200.308 292.9235 L201.5756 294.0516 L202.1768 294.5763 L202.8666 295.1866 L204.0455 296.2099 L205.0603 297.1026 L205.9143 297.8391 L206.9161 298.715 L207.7831 299.4588 L208.5133 300.0937 L209.6519 301.064 L211.017 302.2435 L211.5207 302.6705 L211.9358 303.0272 L213.3895 304.251 L215.1708 305.7719 L215.2583 305.8452 L215.3288 305.9051 L217.1271 307.4007 L218.6864 308.716 L218.9959 308.9715 L219.3885 309.3004 L220.8647 310.513 L222.0144 311.4712 L222.7334 312.0573 L223.6661 312.8289 L224.6022 313.5884 L225.3155 314.1756 L226.471 315.1057 L228.0032 316.3573 L228.3398 316.627 L228.5907 316.8311 L230.2086 318.1167 L231.8355 319.429 L232.0774 319.6196 L232.4101 319.8857 L233.9462 321.0907 L235.05 321.9698 L235.815 322.5645 L236.8911 323.4142 L237.6838 324.028 L238.2408 324.466 L239.5525 325.4722 L241.4085 326.9185 L241.4213 326.9282 L241.44 326.9427 L243.2901 328.3428 L244.5412 329.3049 L245.1589 329.7676 L246.0826 330.4711 L247.0277 331.1767 L247.6525 331.6507 L248.8965 332.5698 L250.7424 333.9563 L250.7653 333.9731 L250.8009 333.9995 L252.634 335.335 L253.798 336.1972 L254.5028 336.7048 L255.6263 337.528 L256.3716 338.0633 L256.834 338.4011 L258.2404 339.3993 L259.8456 340.5587 L260.1092 340.7435 L260.5477 341.0565 L261.978 342.0568 L262.8284 342.6622 L263.8468 343.3653 L265.5812 344.5849 L265.7155 344.6775 L265.7936 344.7322 L267.5844 345.9499 L268.7262 346.7407 L269.4532 347.2282 L270.7482 348.1133 L271.3219 348.4975 L271.6404 348.7148 L273.1907 349.7378 L274.5274 350.6371 L275.0595 350.983 L276.053 351.6418 L276.9283 352.2102 L277.3919 352.5172 L278.7971 353.4154 L280.2323 354.3517 L280.6659 354.6243 L281.5162 355.1703 L282.5347 355.8104 L283.0482 356.1399 L284.4034 356.9772 L285.8411 357.8846 L286.2722 358.1462 L287.1628 358.6987 L288.141 359.2925 L288.6094 359.5831 L290.0098 360.4174 L291.3538 361.2363 L291.8786 361.5428 L293.0232 362.2272 L293.7474 362.6507 L294.0757 362.8471 L295.6162 363.7297 L296.7707 364.4071 L297.485 364.8074 L299.1351 365.7556 L299.3537 365.8784 L299.4473 365.9323 L301.2225 366.9074 L302.0919 367.3972 L303.0913 367.933 L304.7192 368.8292 L304.9601 368.9551 L305.5725 369.2841 L306.8289 369.9434 L307.3176 370.2068 L308.6977 370.912 L309.8925 371.5399 L310.5665 371.8747 L312.4003 372.8125 L312.4353 372.83 L312.448 372.8365 L314.304 373.7364 L314.9695 374.0689 L316.1729 374.634 L317.4708 375.2631 L318.0416 375.5221 L319.7871 376.341 L319.9104 376.3974 L319.9503 376.4163 L321.7792 377.2238 L322.3961 377.5058 L323.648 378.0374 L324.8199 378.5536 L325.5168 378.8373 L327.2209 379.5584 L327.3856 379.6225 L327.9952 379.8694 L329.2544 380.3662 L329.5906 380.5043 L331.1231 381.0804 L331.9327 381.3979 L332.9919 381.7753 L334.25 382.2447 L334.8607 382.4497 L336.5415 383.0429 L336.7295 383.102 L337.6215 383.3979 L338.5983 383.7129 L338.8018 383.782 L340.4671 384.2827 L341.0308 384.4621 L342.3359 384.8244 L343.2318 385.0894 L344.2047 385.3359 L345.4038 385.662 L346.0735 385.8145 L347.546 386.1781 L347.9422 386.2577 L349.6571 386.6357 L349.811 386.6622 L351.1833 386.9263 L351.6798 387.0188 L351.7348 387.0302 L353.5486 387.3158 L353.7763 387.3563 L355.4174 387.5645 L355.7841 387.6187 L357.2862 387.7605 L357.7569 387.815 L359.155 387.8988 L359.6934 387.943 L361.0237 387.9739 L361.5924 388 L362.8925 387.9792 L363.4524 387.9834 L364.7614 387.9076 L365.2719 387.8904 L366.6301 387.7506 L367.0494 387.718 L368.4989 387.4988 L368.7833 387.4633 L370.3677 387.1411 L370.4718 387.1228 L371.2285 386.9263 L372.1095 386.6866 L372.2365 386.64 L373.6938 386.1493 L374.1053 385.9684 L375.2251 385.5122 L375.9741 385.1238 L376.7014 384.7712 L377.8429 384.0797 L378.1202 383.9215 L378.8658 383.3979 L379.4717 382.9449 L379.7116 382.7271 L380.7495 381.829 L381.5804 380.9623 L381.9591 380.5844 L382.5562 379.8694 L383.0853 379.1823 L383.4492 378.6157 L384.1205 377.6085 L384.8252 376.341 L385.0647 375.8626 L385.318 375.2496 L385.8939 373.8999 L386.2744 372.8125 L386.6055 371.7149 L387.1868 369.2914 L387.188 369.2864 L387.1885 369.2841 L387.5983 366.5326 L387.6791 365.7556 L387.8279 363.4377 L387.8609 362.2272 L387.838 359.9282 L387.7883 358.6987 L387.5777 355.9083 L387.5034 355.1703 L387.1868 352.8023 L387.0347 351.6418 L386.9668 351.2265 L386.3992 348.1133 L385.869 345.6252 L385.6312 344.5849 L385.318 343.3705 L384.7319 341.0565 L384.0643 338.6893 L383.7236 337.528 L383.4492 336.6729 L382.6059 333.9995 L381.5804 331.0052 L381.4005 330.4711 L381.0073 329.389 L380.1011 326.9427 L379.7116 325.9587 L378.72 323.4142 L377.8429 321.2992 L377.2656 319.8857 L375.9741 316.9034 L375.7411 316.3573 L374.4089 313.4022 L374.1487 312.8289 L374.1053 312.7379 L372.4882 309.3004 L372.2365 308.7902 L370.7682 305.7719 L370.3677 304.9855 L368.9909 302.2435 L368.4989 301.3054 L367.1589 298.715 L366.6301 297.7347 L365.2742 295.1866 L364.7614 294.2606 L363.3391 291.6581 L362.8925 290.8719 L361.3554 288.1297 L361.0237 287.5595 L359.3251 284.6013 L359.155 284.3153 L357.6172 281.6978 L357.2862 281.1363 L357.2492 281.0728 L355.4174 278.0348 L355.1255 277.5443 L353.5486 274.9846 L352.9594 274.0159 L351.6798 271.9808 L350.7527 270.4874 L349.811 269.0188 L348.5067 266.959 L347.9422 266.0949 L346.223 263.4305 L346.0735 263.2057 L345.4592 262.2707 L344.2047 260.3738 L343.8966 259.9021 L342.3359 257.5835 L341.5314 256.3736 L340.4671 254.8191 L339.132 252.8452 L338.5983 252.0784 L336.8304 249.5073 L336.7295 249.3616 L336.6988 249.3167 L334.8607 246.7062 L334.2222 245.7883 L332.9919 244.0678 L331.7145 242.2598 L331.1231 241.445 L329.4734 239.1449 L329.2544 238.8421 L329.1752 238.7314 L327.3856 236.2935 L326.5945 235.2029 L325.5168 233.7554 L323.9855 231.6745 L323.648 231.2272 L322.8313 230.1324 L321.7792 228.7352 L321.3408 228.146 L319.9104 226.2718 L318.6627 224.6176 L318.0416 223.8142 L316.6555 222.0004 L316.1729 221.375 L315.9548 221.0891 L314.304 218.9773 L313.2096 217.5607 L312.4353 216.5822 L310.8307 214.5311 L310.5665 214.1968 L310.4379 214.0322 L308.6977 211.857 L307.6276 210.5038 L306.8289 209.5172 L305.2836 207.5861 L304.9601 207.1862 L304.7916 206.9753 L303.0913 204.8975 L301.9179 203.4469 L301.2225 202.6065 L299.9601 201.0633 L299.3537 200.3303 L299.017 199.9184 L297.485 198.0867 L296.0821 196.39 L295.6162 195.8389 L294.8193 194.8854 L293.7474 193.6176 L293.1156 192.8615 L291.8786 191.4138 L290.1212 189.3331 L290.0098 189.204 L289.8296 188.9928 L288.141 187.0375 L287.0886 185.8046 L286.2722 184.8687 L284.9873 183.3786 L284.4034 182.7097 L284.0294 182.2762 L282.5347 180.5806 L280.9374 178.7477 L280.6659 178.4426 L280.2599 177.9812 L278.7971 176.3394 L277.8106 175.2193 L276.9283 174.2383 L275.6433 172.793 L275.0595 172.1448 L274.6554 171.6908 L273.1907 170.0795 L271.4683 168.1624 L271.3219 168.0028 L271.1187 167.7787 L269.4532 165.9657 L268.2439 164.6339 L267.5844 163.9223 L266.691 162.9472 L265.7155 161.8967 L264.9895 161.1055 L263.8468 159.8855 L262.3367 158.2544 L261.978 157.8722 L261.7043 157.577 L260.1092 155.8921 L258.3845 154.0486 L258.2404 153.8976 L258.0581 153.7044 L256.3716 151.9418 L255.0275 150.5201 L254.5028 149.9762 L253.8547 149.2964 L252.634 148.0342 L251.6377 146.9917 L250.7653 146.0967 L249.7125 145.0039 L248.8965 144.1692 L248.2145 143.4632 L247.0277 142.2587 L245.6287 140.8218 L245.1589 140.3464 L244.757 139.9348 L243.2901 138.4619 L241.6008 136.7451 L241.4213 136.5655 L241.2642 136.4063 L239.5525 134.7061 L237.7342 132.8779 L237.6838 132.8281 L237.6279 132.7724 L235.815 130.991 L234.1646 129.3494 L233.9462 129.1364 L233.7096 128.9027 L232.0774 127.3164 L230.5576 125.821 L230.2086 125.4841 L229.8389 125.1229 L228.3398 123.6819 L226.9123 122.2925 L226.471 121.8712 L226.0138 121.4292 L224.6022 120.0873 L223.2278 118.7641 L222.7334 118.2972 L222.2325 117.8183 L220.8647 116.5323 L219.5028 115.2356 L218.9959 114.7621 L218.4933 114.2868 L217.1271 113.0166 L215.7364 111.7072 L215.2583 111.2655 L214.7946 110.8317 L213.3895 109.5401 L211.9275 108.1787 L211.5207 107.8071 L211.1348 107.45 L209.6519 106.1024 L208.0748 104.6503 L207.7831 104.3868 L207.5124 104.139 L205.9143 102.7032 L204.1772 101.1218 L204.0455 101.0042 L203.926 100.896 L202.1768 99.3424 L200.3759 97.7216 L200.308 97.6616 L200.2317 97.5934 L198.4392 96.0197 L196.8629 94.6172 L196.5704 94.3619 L196.2346 94.0649 L194.7016 92.7347 L193.3828 91.5748 L192.8328 91.1006 L192.1874 90.5364 L190.964 89.4874 L189.9343 88.5922 L189.0952 87.8775 L188.0887 87.008 L187.2265 86.2773 L186.5164 85.6673 L185.3577 84.6922 L183.937 83.4796 L183.4889 83.1044 L183.1278 82.7978 L181.6201 81.5444 L179.7681 79.9827 L179.7513 79.9689 L179.7301 79.9511 L177.8825 78.4341 L176.4447 77.2363 L176.0137 76.8852 L175.4543 76.4226 L174.1449 75.3608 L173.1481 74.5406 L172.2762 73.8391 L171.1189 72.8942 L170.4074 72.3244 L169.8775 71.8938 L168.5386 70.8304 L166.7218 69.3657 L166.6698 69.3246 L166.6319 69.2942 L164.801 67.8589 L163.4212 66.7607 L162.9322 66.3807 L162.2435 65.8373 L161.0634 64.9242 L160.2351 64.2733 L159.1946 63.4758 L157.6961 62.3088 L157.3259 62.0261 L157.0717 61.829 L155.4571 60.608 L153.938 59.4408 L153.5883 59.179 L153.0645 58.7804 L151.7195 57.7771 L150.8316 57.1039 L149.8507 56.3799 L148.3477 55.252 L147.9819 54.9828 L147.7458 54.8062 L146.1131 53.618 L144.6898 52.5646 L144.2443 52.2441 L143.5332 51.7235 L142.3755 50.8929 L141.6585 50.3697 L140.5067 49.5531 L138.6462 48.2107 L138.638 48.2049 L138.6242 48.195 L136.7692 46.8992 L135.6682 46.1164 L134.9004 45.5869 L133.5901 44.6666 L133.0316 44.2822 L132.7079 44.0554 L131.1628 43.0062 L129.7749 42.0461 L129.294 41.7241 L128.4356 41.1382 L127.4252 40.4626 L126.8655 40.0813 L125.5564 39.2187 L123.9782 38.1584 L123.6876 37.9698 L123.1438 37.6097 L121.8189 36.7507 L121.1187 36.2877 L119.9501 35.542 L118.2782 34.4531 L118.0813 34.3295 L117.694 34.0812 L116.2125 33.1517 L115.4674 32.6744 L114.3437 31.9814 L112.6746 30.9298 L112.4749 30.8089 L112.0613 30.5528 L110.6061 29.6712 L109.9114 29.241 L108.7373 28.543 L107.1672 27.5883 L106.8686 27.4142 L106.2151 27.0244 L104.9998 26.3152 L104.4505 25.9872 L103.131 25.233 L101.7559 24.4281 L101.2622 24.1521 L100.1174 23.4959 L99.3934 23.0901 L99.0846 22.9128 L97.5246 22.0582 L96.4406 21.4492 L95.6558 21.0296 L93.8141 20.0185 L93.787 20.0044 L93.718 19.9674 L91.9182 19.0258 L91.221 18.651 L90.0495 18.0543 L88.6471 17.3196 L88.1807 17.0888 L86.9057 16.439 L86.3119 16.1434 L86.0971 16.0334 L84.4431 15.2345 L83.5767 14.8032 L82.5743 14.3344 L81.0766 13.6112 L80.7055 13.4436 L79.5645 12.9105 L78.8367 12.5789 L78.6027 12.4687 L76.9679 11.7502 L76.1583 11.3819 L75.0992 10.9344 L73.7361 10.3369 L73.2304 10.1322 L71.4483 9.3821 L71.3616 9.3465 L71.3372 9.3362 L69.4928 8.6127 L68.9729 8.4005 L67.624 7.8968 L66.6327 7.5103 L65.7552 7.2001 L64.3174 6.6673 L63.8864 6.5239 L62.0279 5.873 L62.0176 5.8698 L61.9683 5.8536 L60.1488 5.272 L59.7739 5.1457 L58.2801 4.7011 L57.5473 4.4701 L56.4113 4.1584 L55.3488 3.8476 L54.5425 3.646 L53.1793 3.2799 L52.6737 3.1665 L51.04 2.769 L50.8049 2.7227 L48.9696 2.3252 L48.9361 2.3181 L48.9319 2.3172 L47.0673 1.9771 L46.8609 1.9354 L45.1985 1.6807 L44.8227 1.6155 L43.3298 1.4328 L42.8184 1.3596 L41.461 1.238 L40.8492 1.1701 L39.5922 1.1013 L38.9165 1.0494 L37.7234 1.0284 L37.0215 1 L35.8546 1.0258 L35.1658 1.0247 L33.9858 1.1008 L33.3508 1.1262 L32.117 1.2619 L31.578 1.3075 L30.2482 1.5189 L29.8492 1.5718 L28.3794 1.883 L28.1661 1.9223 L26.6673 2.3252 L26.531 2.3636 L26.5107 2.3713 L24.9529 2.9124 L24.6419 3.0529 L23.428 3.5616 L22.7731 3.9101 L21.9585 4.3156 L20.9043 4.97 L20.547 5.179 L19.6086 5.8536 L19.2009 6.166 L19.0355 6.3196 L17.9315 7.2977 L17.1667 8.1141 L16.731 8.5594 L16.0596 9.3821 L15.6128 9.9765 L15.2979 10.4788 L14.5881 11.5704 L13.8617 12.9105 L13.6544 13.3359 L13.4291 13.8967 L12.8379 15.3226 L12.4591 16.439 L12.14 17.5334 L11.5779 19.9674 L11.5734 19.992 L11.5603 20.0867 L11.1808 22.7792 L11.1114 23.4959 L10.9728 25.915 L10.9495 27.0244 L10.9888 29.4737 L11.0384 30.5528 L11.281 33.5538 L11.3367 34.0812 L11.5603 35.6965"
                  style="fill:none; clip-path:url(#clipPath2);"/>
        </g>
        <g transform="translate(6,5)"
           style="stroke-linecap:butt; fill:rgb(120,0,14); text-rendering:optimizeLegibility; image-rendering:optimizeQuality; color-rendering:optimizeQuality; font-family:'Lucida Bright'; stroke-linejoin:round; stroke:rgb(120,0,14); color-interpolation:linearRGB; stroke-width:1.5;">
            <path d="M351.6798 376.5762 L351.929 376.8114 L351.929 376.341 L351.6798 375.9881 L350.9323 374.9296 L351.4306 376.341 L351.6798 376.5762"
                  style="fill:none; clip-path:url(#clipPath2);"/>
            <path d="M43.3298 27.3772 L44.0773 28.4357 L43.5789 27.0244 L43.3298 26.7891 L43.0806 26.5539 L43.0806 27.0244 L43.3298 27.3772"
                  style="fill:none; clip-path:url(#clipPath2);"/>
            <path d="M47.0673 31.2585 L48.064 34.0812 L48.9361 35.3162 L50.5557 37.6097 L50.8049 37.9625 L51.5524 39.0211 L52.6737 40.6089 L53.0474 41.1382 L54.5425 43.2552 L55.5392 44.6666 L56.4113 45.9016 L58.0309 48.195 L58.2801 48.5479 L59.0276 49.6064 L60.1488 51.1942 L60.5226 51.7235 L62.0176 53.8406 L63.0143 55.252 L63.8864 56.4869 L65.506 58.7804 L65.7552 59.1332 L66.5027 60.1918 L67.624 61.7796 L67.9978 62.3088 L69.4928 64.4259 L70.4895 65.8373 L71.3616 67.0723 L72.9812 69.3657 L73.2304 69.7186 L73.9779 70.7771 L75.0992 72.3649 L75.4729 72.8942 L76.9679 75.0113 L77.9646 76.4226 L78.8367 77.6576 L80.4563 79.9511 L80.7055 80.304 L81.453 81.3625 L82.5743 82.9503 L82.9481 83.4796 L84.4431 85.5966 L85.4398 87.008 L86.3119 88.243 L87.9315 90.5364 L88.1807 90.8893 L88.9282 91.9478 L90.0495 93.5356 L90.4232 94.0649 L91.9182 96.182 L92.9149 97.5934 L93.787 98.8283 L95.4067 101.1218 L95.6558 101.4746 L96.4033 102.5332 L97.5246 104.121 L97.8984 104.6503 L99.3934 106.7673 L100.3901 108.1787 L101.2622 109.4137 L102.8818 111.7072 L103.131 112.06 L103.8785 113.1185 L104.9998 114.7063 L105.3735 115.2356 L106.8686 117.3527 L107.8652 118.7641 L108.7373 119.999 L110.357 122.2925 L110.6061 122.6454 L111.3536 123.7039 L112.4749 125.2917 L112.8487 125.821 L114.3437 127.938 L115.3404 129.3494 L116.2125 130.5844 L117.8321 132.8779 L118.0813 133.2307 L118.8288 134.2892 L119.9501 135.877 L120.3238 136.4063 L121.8189 138.5234 L122.8156 139.9348 L123.6876 141.1697 L125.3073 143.4632 L125.5564 143.8161 L126.304 144.8746 L127.4252 146.4624 L127.799 146.9917 L129.294 149.1087 L130.2907 150.5201 L131.1628 151.7551 L132.7824 154.0486 L133.0316 154.4014 L133.7791 155.4599 L134.9004 157.0478 L135.2741 157.577 L136.7692 159.6941 L137.7659 161.1055 L138.638 162.3404 L140.2576 164.6339 L140.5067 164.9868 L141.2543 166.0453 L142.3755 167.6331 L142.7493 168.1624 L144.2443 170.2794 L145.241 171.6908 L146.1131 172.9258 L147.7327 175.2193 L147.9819 175.5721 L148.7294 176.6306 L149.8507 178.2185 L150.2245 178.7477 L151.7195 180.8648 L152.7162 182.2762 L153.5883 183.5111 L155.2079 185.8046 L155.4571 186.1575 L156.2046 187.216 L157.3259 188.8038 L157.6996 189.3331 L159.1946 191.4501 L160.1913 192.8615 L161.0634 194.0965 L162.683 196.39 L162.9322 196.7428 L163.6797 197.8014 L164.801 199.3892 L165.1748 199.9184 L166.6698 201.6121 L168.2894 203.4469 L168.5386 203.6821 L168.7878 203.9173 L170.4074 205.4463 L172.027 206.9753 L172.2762 207.2106 L172.5253 207.4458 L174.1449 208.9748 L175.7646 210.5038 L176.0137 210.739 L176.2629 210.9742 L177.8825 212.5032 L179.5021 214.0322 L179.7513 214.2675 L180.0005 214.5027 L181.6201 216.0317 L183.2397 217.5607 L183.4889 217.7959 L183.7381 218.0311 L185.3577 219.5601 L186.9773 221.0891 L187.2265 221.3244 L187.4756 221.5596 L189.0952 223.0886 L190.7149 224.6176 L190.964 224.8528 L191.2132 225.088 L192.8328 226.617 L194.4524 228.146 L194.7016 228.3813 L194.9508 228.6165 L196.5704 230.1455 L198.19 231.6745 L198.4392 231.9097 L198.6884 232.1449 L200.308 233.674 L201.9276 235.2029 L202.1768 235.4382 L202.4259 235.6734 L204.0455 237.2024 L205.6652 238.7314 L205.9143 238.9666 L206.1635 239.2018 L207.7831 240.7308 L209.4028 242.2598 L209.6519 242.4951 L209.9011 242.7303 L211.5207 244.2593 L213.1403 245.7883 L213.3895 246.0235 L213.6387 246.2587 L215.2583 247.7877 L216.8779 249.3167 L217.1271 249.552 L217.3763 249.7872 L218.9959 251.3162 L220.6155 252.8452 L220.8647 253.0804 L221.1138 253.3156 L222.7334 254.8446 L224.3531 256.3736 L224.6022 256.6089 L224.8514 256.8441 L226.471 258.3731 L228.0906 259.9021 L228.3398 260.1373 L228.589 260.3726 L230.2086 261.9016 L231.8282 263.4305 L232.0774 263.6658 L232.3266 263.901 L233.9462 265.43 L235.5658 266.959 L235.815 267.1942 L236.0641 267.4294 L237.6838 268.9584 L239.3034 270.4874 L239.5525 270.7227 L239.8017 270.9579 L241.4213 272.4869 L243.0409 274.0159 L243.2901 274.2511 L243.5393 274.4864 L245.1589 276.0154 L246.7785 277.5443 L247.0277 277.7796 L247.2769 278.0148 L248.8965 279.5438 L250.5161 281.0728 L250.7653 281.308 L251.0144 281.5433 L252.634 283.0723 L254.2537 284.6013 L254.5028 284.8365 L254.752 285.0717 L256.3716 286.6007 L257.9912 288.1297 L258.2404 288.3649 L258.4896 288.6002 L260.1092 290.1292 L261.7288 291.6581 L261.978 291.8934 L262.2272 292.1286 L263.8468 293.6576 L265.4664 295.1866 L265.7155 295.4218 L265.9647 295.657 L267.5844 297.186 L269.2039 298.715 L269.4532 298.9503 L269.7023 299.1855 L271.3219 300.7145 L272.9416 302.2435 L273.1907 302.4787 L273.4399 302.714 L275.0595 304.243 L276.6791 305.7719 L276.9283 306.0072 L277.1775 306.2424 L278.7971 307.7714 L280.4167 309.3004 L280.6659 309.5356 L280.915 309.7709 L282.5347 311.2999 L284.1543 312.8289 L284.4034 313.0641 L284.6526 313.2993 L286.2722 314.8283 L287.8918 316.3573 L288.141 316.5925 L288.3902 316.8278 L290.0098 318.3568 L291.6294 319.8857 L291.8786 320.121 L292.1278 320.3562 L293.7474 321.8852 L295.367 323.4142 L295.6162 323.6494 L295.8653 323.8847 L297.485 325.4137 L299.1046 326.9427 L299.3537 327.1779 L299.6029 327.4131 L301.2225 328.9421 L302.8422 330.4711 L303.0913 330.7063 L303.3405 330.9416 L304.9601 332.4706 L306.5797 333.9995 L306.8289 334.2348 L307.0781 334.47 L308.6977 335.999 L310.3173 337.528 L310.5665 337.7632 L310.8156 337.9985 L312.4353 339.5275 L314.0549 341.0565 L314.304 341.2917 L314.5532 341.5269 L316.1729 343.0559 L317.7924 344.5849 L318.0416 344.8201 L318.2908 345.0554 L319.9104 346.5844 L321.53 348.1133 L321.7792 348.3486 L322.0284 348.5838 L323.648 350.1128 L325.2676 351.6418 L325.5168 351.877 L325.766 352.1123 L327.3856 353.6413 L329.0052 355.1703 L329.2544 355.4055 L329.5035 355.6407 L331.1231 357.1697 L332.7428 358.6987 L332.9919 358.9339 L333.2411 359.1692 L334.8607 360.6982 L336.4803 362.2272 L336.7295 362.4624 L336.9787 362.6976 L338.5983 364.2266 L340.2179 365.7556 L340.4671 365.9908 L340.7163 366.2261 L342.3359 367.7551 L343.9555 369.2841 L344.2047 369.5193 L344.4538 369.7545 L346.0735 370.519 L347.6931 372.8125 L347.9422 373.0477 L348.1914 373.283 L348.6898 372.8125 L347.9422 372.1068 L346.9456 369.2841 L346.0735 368.0491 L344.4538 365.7556 L344.2047 365.4028 L343.4572 364.3442 L342.3359 362.7564 L341.9621 362.2272 L340.4671 360.1101 L339.4704 358.6987 L338.5983 357.4637 L336.9787 355.1703 L336.7295 354.8174 L335.982 353.7589 L334.8607 352.1711 L334.487 351.6418 L332.9919 349.5247 L331.9953 348.1133 L331.1231 346.8784 L329.5035 344.5849 L329.2544 344.2321 L328.5069 343.1735 L327.3856 341.5857 L327.0118 341.0565 L325.5168 338.9394 L324.5201 337.528 L323.648 336.2931 L322.0284 333.9995 L321.7792 333.6467 L321.0317 332.5882 L319.9104 331.0004 L319.5367 330.4711 L318.0416 328.354 L317.0449 326.9427 L316.1729 325.7077 L314.5532 323.4142 L314.304 323.0613 L313.5565 322.0028 L312.4353 320.415 L312.0615 319.8857 L310.5665 317.7687 L309.5698 316.3573 L308.6977 315.1223 L307.0781 312.8289 L306.8289 312.476 L306.0814 311.4175 L304.9601 309.8297 L304.5864 309.3004 L303.0913 307.1833 L302.0946 305.7719 L301.2225 304.537 L299.6029 302.2435 L299.3537 301.8907 L298.6062 300.8321 L297.485 299.2443 L297.1112 298.715 L295.6162 296.598 L294.6195 295.1866 L293.7474 293.9517 L292.1278 291.6581 L291.8786 291.3053 L291.1311 290.2468 L290.0098 288.659 L289.636 288.1297 L288.141 286.0126 L287.1443 284.6013 L286.2722 283.3663 L284.6526 281.0728 L284.4034 280.7199 L283.6559 279.6614 L282.5347 278.0736 L282.1609 277.5443 L280.6659 275.4273 L279.6692 274.0159 L278.7971 272.7809 L277.1775 270.4874 L276.9283 270.1346 L276.1808 269.076 L275.0595 267.4883 L274.6857 266.959 L273.1907 264.8419 L272.194 263.4305 L271.3219 262.1956 L269.7023 259.9021 L269.4532 259.5493 L268.7056 258.4907 L267.5844 256.9029 L267.2106 256.3736 L265.7155 254.2566 L264.7189 252.8452 L263.8468 251.6102 L262.2272 249.3167 L261.978 248.9639 L261.2305 247.9054 L260.1092 246.3176 L259.7354 245.7883 L258.2404 243.6712 L257.2437 242.2598 L256.3716 241.0249 L254.752 238.7314 L254.5028 238.3785 L253.7553 237.32 L252.634 235.7322 L252.2603 235.2029 L250.7653 233.0859 L249.7686 231.6745 L248.8965 230.4395 L247.2769 228.146 L247.0277 227.7932 L246.2802 226.7346 L245.1589 225.1469 L244.7851 224.6176 L243.2901 222.5005 L242.2934 221.0891 L241.4213 219.8542 L239.8017 217.5607 L239.5525 217.2078 L238.805 216.1493 L237.6838 214.5615 L237.31 214.0322 L235.815 211.9152 L234.8183 210.5038 L233.9462 209.2688 L232.3266 206.9753 L232.0774 206.6225 L231.3299 205.5639 L230.2086 203.9761 L229.8348 203.4469 L228.3398 201.7532 L226.7202 199.9184 L226.471 199.6832 L226.2218 199.448 L224.6022 197.919 L222.9826 196.39 L222.7334 196.1547 L222.4843 195.9195 L220.8647 194.3905 L219.245 192.8615 L218.9959 192.6263 L218.7467 192.3911 L217.1271 190.8621 L215.5075 189.3331 L215.2583 189.0979 L215.0091 188.8626 L213.3895 187.3336 L211.7699 185.8046 L211.5207 185.5694 L211.2715 185.3342 L209.6519 183.8052 L208.0323 182.2762 L207.7831 182.0409 L207.534 181.8057 L205.9143 180.2767 L204.2947 178.7477 L204.0455 178.5125 L203.7964 178.2773 L202.1768 176.7483 L200.5571 175.2193 L200.308 174.9841 L200.0588 174.7488 L198.4392 173.2198 L196.8196 171.6908 L196.5704 171.4556 L196.3212 171.2204 L194.7016 169.6914 L193.082 168.1624 L192.8328 167.9271 L192.5836 167.6919 L190.964 166.1629 L189.3444 164.6339 L189.0952 164.3987 L188.8461 164.1635 L187.2265 162.6345 L185.6068 161.1055 L185.3577 160.8702 L185.1085 160.635 L183.4889 159.106 L181.8693 157.577 L181.6201 157.3418 L181.3709 157.1066 L179.7513 155.5776 L178.1317 154.0486 L177.8825 153.8133 L177.6333 153.5781 L176.0137 152.0491 L174.3941 150.5201 L174.1449 150.2849 L173.8958 150.0497 L172.2762 148.5207 L170.6565 146.9917 L170.4074 146.7564 L170.1582 146.5212 L168.5386 144.9922 L166.919 143.4632 L166.6698 143.228 L166.4206 142.9928 L164.801 141.4638 L163.1814 139.9348 L162.9322 139.6995 L162.683 139.4643 L161.0634 137.9353 L159.4438 136.4063 L159.1946 136.1711 L158.9455 135.9359 L157.3259 134.4068 L155.7062 132.8779 L155.4571 132.6426 L155.2079 132.4074 L153.5883 130.8784 L151.9687 129.3494 L151.7195 129.1142 L151.4703 128.879 L149.8507 127.35 L148.2311 125.821 L147.9819 125.5857 L147.7327 125.3505 L146.1131 123.8215 L144.4935 122.2925 L144.2443 122.0573 L143.9952 121.8221 L142.3755 120.2931 L140.7559 118.7641 L140.5067 118.5288 L140.2576 118.2936 L138.638 116.7646 L137.0183 115.2356 L136.7692 115.0004 L136.52 114.7651 L134.9004 113.2361 L133.2808 111.7072 L133.0316 111.4719 L132.7824 111.2367 L131.1628 109.7077 L129.5432 108.1787 L129.294 107.9435 L129.0448 107.7083 L127.4252 106.1793 L125.8056 104.6503 L125.5564 104.415 L125.3073 104.1798 L123.6876 102.6508 L122.068 101.1218 L121.8189 100.8866 L121.5697 100.6513 L119.9501 99.1223 L118.3305 97.5934 L118.0813 97.3581 L117.8321 97.1229 L116.2125 95.5939 L114.5929 94.0649 L114.3437 93.8297 L114.0945 93.5944 L112.4749 92.0654 L110.8553 90.5364 L110.6061 90.3012 L110.357 90.066 L108.7373 88.537 L107.1177 87.008 L106.8686 86.7728 L106.6194 86.5375 L104.9998 85.0085 L103.3801 83.4796 L103.131 83.2443 L102.8818 83.0091 L101.2622 81.4801 L99.6426 79.9511 L99.3934 79.7159 L99.1442 79.4807 L97.5246 77.9516 L95.905 76.4226 L95.6558 76.1874 L95.4067 75.9522 L93.787 74.4232 L92.1674 72.8942 L91.9182 72.659 L91.6691 72.4237 L90.0495 70.8947 L88.4298 69.3657 L88.1807 69.1305 L87.9315 68.8953 L86.3119 67.3663 L84.6923 65.8373 L84.4431 65.6021 L84.1939 65.3669 L82.5743 63.8379 L80.9547 62.3088 L80.7055 62.0736 L80.4563 61.8384 L78.8367 60.3094 L77.2171 58.7804 L76.9679 58.5452 L76.7188 58.3099 L75.0992 56.7809 L73.4795 55.252 L73.2304 55.0167 L72.9812 54.7815 L71.3616 53.2525 L69.742 51.7235 L69.4928 51.4883 L69.2436 51.253 L67.624 49.724 L66.0044 48.195 L65.7552 47.9598 L65.506 47.7246 L63.8864 46.1956 L62.2668 44.6666 L62.0176 44.4313 L61.7685 44.1961 L60.1488 42.6671 L58.5292 41.1382 L58.2801 40.9029 L58.0309 40.6677 L56.4113 39.1387 L54.7917 37.6097 L54.5425 37.3745 L54.2933 37.1392 L52.6737 35.6102 L51.0541 34.0812 L50.8049 33.846 L50.5557 33.6108 L48.9361 32.8463 L47.3165 30.5528 L47.0673 30.3176 L46.8182 30.0823 L46.3198 30.5528 L47.0673 31.2585"
                  style="fill:none; clip-path:url(#clipPath2);"/>
        </g>
        <g transform="translate(6,5)"
           style="stroke-linecap:butt; text-rendering:optimizeLegibility; color-rendering:optimizeQuality; image-rendering:optimizeQuality; font-family:'Lucida Bright'; stroke-linejoin:round; color-interpolation:linearRGB;">
            <path d="M10.9495 201.6826 L387.8609 201.6826"
                  style="fill:none; clip-path:url(#clipPath1);"/>
        </g>
        <g transform="translate(6,5)"
           style="stroke-linecap:butt; text-rendering:optimizeLegibility; color-rendering:optimizeQuality; image-rendering:optimizeQuality; font-family:'Lucida Bright'; stroke-linejoin:round; color-interpolation:linearRGB;">
            <path d="M292.8906 235.9688 L292 233.9531 L291.625 233.2031 Q291.4375 232.7812 291.3047 232.6719 Q291.1719 232.5625 290.8281 232.5312 L290.3906 232.5 L290.25 232.5 L290.3281 232.0469 L292.7188 232.0469 L294.1562 235.1719 L294.5 234.9062 Q295.9219 233.7344 295.9219 232.9688 Q295.9219 232.5625 295.6094 232.0469 L297.0469 232.0469 Q297.125 232.3125 297.125 232.5 Q297.125 233.125 296.6797 233.6406 Q296.2344 234.1562 294.6875 235.3125 L294.3438 235.5781 L295.5469 238.1094 L295.9844 238.9219 Q296.2656 239.4844 296.7344 239.5156 L297.2031 239.5312 L297.3281 239.5469 L297.25 240 L294.8438 240 L293.125 236.375 L292.5 236.9375 Q291 238.2812 291 239.25 Q291 239.6406 291.25 240 L289.7031 240 Q289.6562 239.7969 289.6562 239.6875 Q289.6562 238.75 291.0312 237.5469 L292.1719 236.5938 L292.8906 235.9688 Z"
                  style="stroke:none; clip-path:url(#clipPath3);"/>
        </g>
        <g transform="translate(6,5)"
           style="text-rendering:optimizeLegibility; font-family:'Lucida Bright'; color-interpolation:linearRGB; color-rendering:optimizeQuality; image-rendering:optimizeQuality;">
            <path d="M10.9997 201.6826 L10.9997 205.6826"
                  style="fill:none; clip-path:url(#clipPath1);"/>
        </g>
        <g style="text-rendering:optimizeLegibility; font-family:'Lucida Bright'; color-interpolation:linearRGB; color-rendering:optimizeQuality; image-rendering:optimizeQuality;">
            <path d="M19.4531 222.8906 L9.5469 222.8906 L9.5469 222.1094 L19.4531 222.1094 L19.4531 222.8906 Z"
                  style="stroke:none; clip-path:url(#clipPath5);"/>
        </g>
        <g style="text-rendering:optimizeLegibility; font-family:'Lucida Bright'; color-interpolation:linearRGB; color-rendering:optimizeQuality; image-rendering:optimizeQuality;">
            <path d="M18.1719 227 L18.1719 226.2812 Q18.7969 224.4531 20.125 223.2188 L20.9062 222.5 Q22.25 221.2344 22.6953 220.4922 Q23.1406 219.75 23.1406 218.7969 Q23.1406 217.6875 22.5938 217.0156 Q22.0469 216.3438 21.1562 216.3438 Q20.1562 216.3438 19.4688 216.8906 Q19.2188 217.0938 19.1406 218.3438 L19.1406 218.5156 L18.4062 218.5156 L18.4062 216.5469 Q19.9844 215.875 21.3281 215.875 Q22.7969 215.875 23.7344 216.7031 Q24.6719 217.5312 24.6719 218.7969 Q24.6719 220.5156 22.5469 221.9688 L21.6719 222.5781 Q19.5625 224.0312 19.3594 225.7344 L24.625 225.7344 L24.625 227 L18.1719 227 Z"
                  style="stroke:none; clip-path:url(#clipPath4);"/>
        </g>
        <g transform="translate(6,5)"
           style="text-rendering:optimizeLegibility; font-family:'Lucida Bright'; color-interpolation:linearRGB; color-rendering:optimizeQuality; image-rendering:optimizeQuality;">
            <path d="M104.2523 201.6826 L104.2523 205.6826"
                  style="fill:none; clip-path:url(#clipPath1);"/>
        </g>
        <g style="text-rendering:optimizeLegibility; font-family:'Lucida Bright'; color-interpolation:linearRGB; color-rendering:optimizeQuality; image-rendering:optimizeQuality;">
            <path d="M113.4531 222.8906 L103.5469 222.8906 L103.5469 222.1094 L113.4531 222.1094 L113.4531 222.8906 Z"
                  style="stroke:none; clip-path:url(#clipPath6);"/>
        </g>
        <g style="text-rendering:optimizeLegibility; font-family:'Lucida Bright'; color-interpolation:linearRGB; color-rendering:optimizeQuality; image-rendering:optimizeQuality;">
            <path d="M116.2812 216.0625 L116.2812 225.1094 L116.3281 225.8281 Q116.3594 226.2656 116.5859 226.3984 Q116.8125 226.5312 117.5156 226.5312 L118.375 226.5469 L118.375 227 L112.7656 227 L112.7656 226.5469 L113.625 226.5312 Q114.3125 226.5312 114.5391 226.3984 Q114.7656 226.2656 114.7969 225.8281 L114.8438 225.1094 L114.8438 218.375 L114.7969 217.6406 Q114.7969 217.125 114.5 217.125 Q114.2812 217.125 113.4844 217.2656 L112.7656 217.3906 L112.7656 216.9375 L116.2812 216.0625 Z"
                  style="stroke:none; clip-path:url(#clipPath4);"/>
        </g>
        <g transform="translate(6,5)"
           style="text-rendering:optimizeLegibility; font-family:'Lucida Bright'; color-interpolation:linearRGB; color-rendering:optimizeQuality; image-rendering:optimizeQuality;">
            <path d="M197.5048 201.6826 L197.5048 205.6826"
                  style="fill:none; clip-path:url(#clipPath1);"/>
            <path d="M194.5 225.2656 Q192.8281 225.2656 191.7969 223.7109 Q190.7656 222.1562 190.7656 219.6094 Q190.7656 217 191.7969 215.4453 Q192.8281 213.8906 194.5625 213.8906 Q196.2969 213.8906 197.3281 215.4375 Q198.3594 216.9844 198.3594 219.5938 Q198.3594 222.2031 197.3203 223.7344 Q196.2812 225.2656 194.5 225.2656 ZM194.5312 224.8125 Q196.8281 224.9219 196.8281 219.5 Q196.8281 214.3281 194.5625 214.3281 Q192.3125 214.3281 192.3125 219.5781 Q192.3125 224.7188 194.5312 224.8125 Z"
                  style="clip-path:url(#clipPath4); stroke:none;"
                  transform="translate(-6,-5)"/>
        </g>
        <g transform="translate(6,5)"
           style="text-rendering:optimizeLegibility; font-family:'Lucida Bright'; color-interpolation:linearRGB; color-rendering:optimizeQuality; image-rendering:optimizeQuality;">
            <path d="M290.7573 201.6826 L290.7573 205.6826"
                  style="fill:none; clip-path:url(#clipPath1);"/>
            <path d="M297.2812 216.0625 L297.2812 225.1094 L297.3281 225.8281 Q297.3594 226.2656 297.5859 226.3984 Q297.8125 226.5312 298.5156 226.5312 L299.375 226.5469 L299.375 227 L293.7656 227 L293.7656 226.5469 L294.625 226.5312 Q295.3125 226.5312 295.5391 226.3984 Q295.7656 226.2656 295.7969 225.8281 L295.8438 225.1094 L295.8438 218.375 L295.7969 217.6406 Q295.7969 217.125 295.5 217.125 Q295.2812 217.125 294.4844 217.2656 L293.7656 217.3906 L293.7656 216.9375 L297.2812 216.0625 Z"
                  style="clip-path:url(#clipPath4); stroke:none;"
                  transform="translate(-6,-5)"/>
        </g>
        <g transform="translate(6,5)"
           style="text-rendering:optimizeLegibility; font-family:'Lucida Bright'; color-interpolation:linearRGB; color-rendering:optimizeQuality; image-rendering:optimizeQuality;">
            <path d="M384.0099 201.6826 L384.0099 205.6826"
                  style="fill:none; clip-path:url(#clipPath1);"/>
            <path d="M387.1719 227 L387.1719 226.2812 Q387.7969 224.4531 389.125 223.2188 L389.9062 222.5 Q391.25 221.2344 391.6953 220.4922 Q392.1406 219.75 392.1406 218.7969 Q392.1406 217.6875 391.5938 217.0156 Q391.0469 216.3438 390.1562 216.3438 Q389.1562 216.3438 388.4688 216.8906 Q388.2188 217.0938 388.1406 218.3438 L388.1406 218.5156 L387.4062 218.5156 L387.4062 216.5469 Q388.9844 215.875 390.3281 215.875 Q391.7969 215.875 392.7344 216.7031 Q393.6719 217.5312 393.6719 218.7969 Q393.6719 220.5156 391.5469 221.9688 L390.6719 222.5781 Q388.5625 224.0312 388.3594 225.7344 L393.625 225.7344 L393.625 227 L387.1719 227 Z"
                  style="clip-path:url(#clipPath4); stroke:none;"
                  transform="translate(-6,-5)"/>
        </g>
        <g transform="translate(6,5)"
           style="text-rendering:optimizeLegibility; font-family:'Lucida Bright'; color-interpolation:linearRGB; color-rendering:optimizeQuality; image-rendering:optimizeQuality;">
            <path d="M57.626 201.6826 L57.626 203.6826"
                  style="fill:none; clip-path:url(#clipPath1);"/>
        </g>
        <g transform="translate(6,5)"
           style="text-rendering:optimizeLegibility; font-family:'Lucida Bright'; color-interpolation:linearRGB; color-rendering:optimizeQuality; image-rendering:optimizeQuality;">
            <path d="M150.8785 201.6826 L150.8785 203.6826"
                  style="fill:none; clip-path:url(#clipPath1);"/>
        </g>
        <g transform="translate(6,5)"
           style="text-rendering:optimizeLegibility; font-family:'Lucida Bright'; color-interpolation:linearRGB; color-rendering:optimizeQuality; image-rendering:optimizeQuality;">
            <path d="M244.1311 201.6826 L244.1311 203.6826"
                  style="fill:none; clip-path:url(#clipPath1);"/>
        </g>
        <g transform="translate(6,5)"
           style="text-rendering:optimizeLegibility; font-family:'Lucida Bright'; color-interpolation:linearRGB; color-rendering:optimizeQuality; image-rendering:optimizeQuality;">
            <path d="M337.3836 201.6826 L337.3836 203.6826"
                  style="fill:none; clip-path:url(#clipPath1);"/>
        </g>
        <g transform="translate(6,5)"
           style="stroke-linecap:butt; text-rendering:optimizeLegibility; color-rendering:optimizeQuality; image-rendering:optimizeQuality; font-family:'Lucida Bright'; stroke-linejoin:round; color-interpolation:linearRGB;">
            <path d="M197.5048 388 L197.5048 1"
                  style="fill:none; clip-path:url(#clipPath1);"/>
        </g>
        <g transform="translate(6,5)"
           style="stroke-linecap:butt; text-rendering:optimizeLegibility; color-rendering:optimizeQuality; image-rendering:optimizeQuality; font-family:'Lucida Bright'; stroke-linejoin:round; color-interpolation:linearRGB;">
            <path d="M137.9688 109.8906 Q139.3125 108.9531 141.3438 107.0781 L141.625 106.8125 Q141.5312 105.1094 141.1875 103.2266 Q140.8438 101.3438 140.4688 100.5 Q140.1406 99.7969 139.9531 99.6719 Q139.7656 99.5469 138.9375 99.5 L138.7656 99.5 L138.8438 99.0469 L141.5156 99.0469 Q142.6562 101.7344 142.8125 105.3594 L143.7188 104.1875 Q145.0469 102.5 145.4922 101.7109 Q145.9375 100.9219 145.9375 100.25 Q145.9375 99.5625 145.3594 99.0469 L147.1719 99.0469 Q147.3281 99.375 147.3281 99.6719 Q147.3281 100.2969 146.9219 100.9766 Q146.5156 101.6562 145.2188 103.2031 L142.4531 106.5312 Q140.7969 108.5156 139.9688 109.8906 L137.9688 109.8906 Z"
                  style="stroke:none; clip-path:url(#clipPath7);"/>
        </g>
        <g transform="translate(6,5)"
           style="text-rendering:optimizeLegibility; font-family:'Lucida Bright'; color-interpolation:linearRGB; color-rendering:optimizeQuality; image-rendering:optimizeQuality;">
            <path d="M197.5048 377.7523 L193.5048 377.7523"
                  style="fill:none; clip-path:url(#clipPath1);"/>
        </g>
        <g style="text-rendering:optimizeLegibility; font-family:'Lucida Bright'; color-interpolation:linearRGB; color-rendering:optimizeQuality; image-rendering:optimizeQuality;">
            <path d="M189.4531 383.8906 L179.5469 383.8906 L179.5469 383.1094 L189.4531 383.1094 L189.4531 383.8906 Z"
                  style="stroke:none; clip-path:url(#clipPath8);"/>
        </g>
        <g style="text-rendering:optimizeLegibility; font-family:'Lucida Bright'; color-interpolation:linearRGB; color-rendering:optimizeQuality; image-rendering:optimizeQuality;">
            <path d="M192.2812 377.0625 L192.2812 386.1094 L192.3281 386.8281 Q192.3594 387.2656 192.5859 387.3984 Q192.8125 387.5312 193.5156 387.5312 L194.375 387.5469 L194.375 388 L188.7656 388 L188.7656 387.5469 L189.625 387.5312 Q190.3125 387.5312 190.5391 387.3984 Q190.7656 387.2656 190.7969 386.8281 L190.8438 386.1094 L190.8438 379.375 L190.7969 378.6406 Q190.7969 378.125 190.5 378.125 Q190.2812 378.125 189.4844 378.2656 L188.7656 378.3906 L188.7656 377.9375 L192.2812 377.0625 Z"
                  style="stroke:none; clip-path:url(#clipPath4);"/>
        </g>
        <g transform="translate(6,5)"
           style="text-rendering:optimizeLegibility; font-family:'Lucida Bright'; color-interpolation:linearRGB; color-rendering:optimizeQuality; image-rendering:optimizeQuality;">
            <path d="M197.5048 289.7175 L193.5048 289.7175"
                  style="fill:none; clip-path:url(#clipPath1);"/>
        </g>
        <g style="text-rendering:optimizeLegibility; font-family:'Lucida Bright'; color-interpolation:linearRGB; color-rendering:optimizeQuality; image-rendering:optimizeQuality;">
            <path d="M175.4531 295.8906 L165.5469 295.8906 L165.5469 295.1094 L175.4531 295.1094 L175.4531 295.8906 Z"
                  style="stroke:none; clip-path:url(#clipPath9);"/>
        </g>
        <g style="text-rendering:optimizeLegibility; font-family:'Lucida Bright'; color-interpolation:linearRGB; color-rendering:optimizeQuality; image-rendering:optimizeQuality;">
            <path d="M177.5 300.2656 Q175.8281 300.2656 174.7969 298.7109 Q173.7656 297.1562 173.7656 294.6094 Q173.7656 292 174.7969 290.4453 Q175.8281 288.8906 177.5625 288.8906 Q179.2969 288.8906 180.3281 290.4375 Q181.3594 291.9844 181.3594 294.5938 Q181.3594 297.2031 180.3203 298.7344 Q179.2812 300.2656 177.5 300.2656 ZM177.5312 299.8125 Q179.8281 299.9219 179.8281 294.5 Q179.8281 289.3281 177.5625 289.3281 Q175.3125 289.3281 175.3125 294.5781 Q175.3125 299.7188 177.5312 299.8125 ZM183.2041 300 L183.2041 298.1875 L185.0166 298.1875 L185.0166 300 L183.2041 300 ZM187.8218 300.0156 L187.8218 298.1875 L188.5405 298.1875 L188.5562 298.3594 L188.5718 298.9219 Q188.6187 299.8125 189.978 299.8125 Q190.9937 299.8125 191.5874 299.0234 Q192.1812 298.2344 192.1812 296.875 Q192.1812 295.3281 191.2593 294.6641 Q190.3374 294 188.2593 294 L187.9937 294 L187.9937 289.1562 L193.4624 289.1562 L193.4624 290.4219 L188.4468 290.4219 L188.4468 293.4531 L189.1187 293.4531 Q193.6968 293.4531 193.6968 296.9375 Q193.6968 298.5 192.6421 299.3828 Q191.5874 300.2656 189.728 300.2656 Q188.8062 300.2656 187.8218 300.0156 Z"
                  style="stroke:none; clip-path:url(#clipPath4);"/>
        </g>
        <g transform="translate(6,5)"
           style="text-rendering:optimizeLegibility; font-family:'Lucida Bright'; color-interpolation:linearRGB; color-rendering:optimizeQuality; image-rendering:optimizeQuality;">
            <path d="M197.5048 201.6826 L193.5048 201.6826"
                  style="fill:none; clip-path:url(#clipPath1);"/>
        </g>
        <g transform="translate(6,5)"
           style="text-rendering:optimizeLegibility; font-family:'Lucida Bright'; color-interpolation:linearRGB; color-rendering:optimizeQuality; image-rendering:optimizeQuality;">
            <path d="M197.5048 113.6478 L193.5048 113.6478"
                  style="fill:none; clip-path:url(#clipPath1);"/>
            <path d="M177.5 124.2656 Q175.8281 124.2656 174.7969 122.7109 Q173.7656 121.1562 173.7656 118.6094 Q173.7656 116 174.7969 114.4453 Q175.8281 112.8906 177.5625 112.8906 Q179.2969 112.8906 180.3281 114.4375 Q181.3594 115.9844 181.3594 118.5938 Q181.3594 121.2031 180.3203 122.7344 Q179.2812 124.2656 177.5 124.2656 ZM177.5312 123.8125 Q179.8281 123.9219 179.8281 118.5 Q179.8281 113.3281 177.5625 113.3281 Q175.3125 113.3281 175.3125 118.5781 Q175.3125 123.7188 177.5312 123.8125 ZM183.2041 124 L183.2041 122.1875 L185.0166 122.1875 L185.0166 124 L183.2041 124 ZM187.8218 124.0156 L187.8218 122.1875 L188.5405 122.1875 L188.5562 122.3594 L188.5718 122.9219 Q188.6187 123.8125 189.978 123.8125 Q190.9937 123.8125 191.5874 123.0234 Q192.1812 122.2344 192.1812 120.875 Q192.1812 119.3281 191.2593 118.6641 Q190.3374 118 188.2593 118 L187.9937 118 L187.9937 113.1562 L193.4624 113.1562 L193.4624 114.4219 L188.4468 114.4219 L188.4468 117.4531 L189.1187 117.4531 Q193.6968 117.4531 193.6968 120.9375 Q193.6968 122.5 192.6421 123.3828 Q191.5874 124.2656 189.728 124.2656 Q188.8062 124.2656 187.8218 124.0156 Z"
                  style="clip-path:url(#clipPath4); stroke:none;"
                  transform="translate(-6,-5)"/>
        </g>
        <g transform="translate(6,5)"
           style="text-rendering:optimizeLegibility; font-family:'Lucida Bright'; color-interpolation:linearRGB; color-rendering:optimizeQuality; image-rendering:optimizeQuality;">
            <path d="M197.5048 25.6129 L193.5048 25.6129"
                  style="fill:none; clip-path:url(#clipPath1);"/>
            <path d="M192.2812 25.0625 L192.2812 34.1094 L192.3281 34.8281 Q192.3594 35.2656 192.5859 35.3984 Q192.8125 35.5312 193.5156 35.5312 L194.375 35.5469 L194.375 36 L188.7656 36 L188.7656 35.5469 L189.625 35.5312 Q190.3125 35.5312 190.5391 35.3984 Q190.7656 35.2656 190.7969 34.8281 L190.8438 34.1094 L190.8438 27.375 L190.7969 26.6406 Q190.7969 26.125 190.5 26.125 Q190.2812 26.125 189.4844 26.2656 L188.7656 26.3906 L188.7656 25.9375 L192.2812 25.0625 Z"
                  style="clip-path:url(#clipPath4); stroke:none;"
                  transform="translate(-6,-5)"/>
        </g>
        <g transform="translate(6,5)"
           style="text-rendering:optimizeLegibility; font-family:'Lucida Bright'; color-interpolation:linearRGB; color-rendering:optimizeQuality; image-rendering:optimizeQuality;">
            <path d="M197.5048 360.1454 L195.5048 360.1454"
                  style="fill:none; clip-path:url(#clipPath1);"/>
        </g>
        <g transform="translate(6,5)"
           style="text-rendering:optimizeLegibility; font-family:'Lucida Bright'; color-interpolation:linearRGB; color-rendering:optimizeQuality; image-rendering:optimizeQuality;">
            <path d="M197.5048 342.5384 L195.5048 342.5384"
                  style="fill:none; clip-path:url(#clipPath1);"/>
        </g>
        <g transform="translate(6,5)"
           style="text-rendering:optimizeLegibility; font-family:'Lucida Bright'; color-interpolation:linearRGB; color-rendering:optimizeQuality; image-rendering:optimizeQuality;">
            <path d="M197.5048 324.9314 L195.5048 324.9314"
                  style="fill:none; clip-path:url(#clipPath1);"/>
        </g>
        <g transform="translate(6,5)"
           style="text-rendering:optimizeLegibility; font-family:'Lucida Bright'; color-interpolation:linearRGB; color-rendering:optimizeQuality; image-rendering:optimizeQuality;">
            <path d="M197.5048 307.3245 L195.5048 307.3245"
                  style="fill:none; clip-path:url(#clipPath1);"/>
        </g>
        <g transform="translate(6,5)"
           style="text-rendering:optimizeLegibility; font-family:'Lucida Bright'; color-interpolation:linearRGB; color-rendering:optimizeQuality; image-rendering:optimizeQuality;">
            <path d="M197.5048 272.1105 L195.5048 272.1105"
                  style="fill:none; clip-path:url(#clipPath1);"/>
        </g>
        <g transform="translate(6,5)"
           style="text-rendering:optimizeLegibility; font-family:'Lucida Bright'; color-interpolation:linearRGB; color-rendering:optimizeQuality; image-rendering:optimizeQuality;">
            <path d="M197.5048 254.5036 L195.5048 254.5036"
                  style="fill:none; clip-path:url(#clipPath1);"/>
        </g>
        <g transform="translate(6,5)"
           style="text-rendering:optimizeLegibility; font-family:'Lucida Bright'; color-interpolation:linearRGB; color-rendering:optimizeQuality; image-rendering:optimizeQuality;">
            <path d="M197.5048 236.8966 L195.5048 236.8966"
                  style="fill:none; clip-path:url(#clipPath1);"/>
        </g>
        <g transform="translate(6,5)"
           style="text-rendering:optimizeLegibility; font-family:'Lucida Bright'; color-interpolation:linearRGB; color-rendering:optimizeQuality; image-rendering:optimizeQuality;">
            <path d="M197.5048 219.2896 L195.5048 219.2896"
                  style="fill:none; clip-path:url(#clipPath1);"/>
        </g>
        <g transform="translate(6,5)"
           style="text-rendering:optimizeLegibility; font-family:'Lucida Bright'; color-interpolation:linearRGB; color-rendering:optimizeQuality; image-rendering:optimizeQuality;">
            <path d="M197.5048 184.0757 L195.5048 184.0757"
                  style="fill:none; clip-path:url(#clipPath1);"/>
        </g>
        <g transform="translate(6,5)"
           style="text-rendering:optimizeLegibility; font-family:'Lucida Bright'; color-interpolation:linearRGB; color-rendering:optimizeQuality; image-rendering:optimizeQuality;">
            <path d="M197.5048 166.4687 L195.5048 166.4687"
                  style="fill:none; clip-path:url(#clipPath1);"/>
        </g>
        <g transform="translate(6,5)"
           style="text-rendering:optimizeLegibility; font-family:'Lucida Bright'; color-interpolation:linearRGB; color-rendering:optimizeQuality; image-rendering:optimizeQuality;">
            <path d="M197.5048 148.8617 L195.5048 148.8617"
                  style="fill:none; clip-path:url(#clipPath1);"/>
        </g>
        <g transform="translate(6,5)"
           style="text-rendering:optimizeLegibility; font-family:'Lucida Bright'; color-interpolation:linearRGB; color-rendering:optimizeQuality; image-rendering:optimizeQuality;">
            <path d="M197.5048 131.2548 L195.5048 131.2548"
                  style="fill:none; clip-path:url(#clipPath1);"/>
        </g>
        <g transform="translate(6,5)"
           style="text-rendering:optimizeLegibility; font-family:'Lucida Bright'; color-interpolation:linearRGB; color-rendering:optimizeQuality; image-rendering:optimizeQuality;">
            <path d="M197.5048 96.0408 L195.5048 96.0408"
                  style="fill:none; clip-path:url(#clipPath1);"/>
        </g>
        <g transform="translate(6,5)"
           style="text-rendering:optimizeLegibility; font-family:'Lucida Bright'; color-interpolation:linearRGB; color-rendering:optimizeQuality; image-rendering:optimizeQuality;">
            <path d="M197.5048 78.4339 L195.5048 78.4339"
                  style="fill:none; clip-path:url(#clipPath1);"/>
        </g>
        <g transform="translate(6,5)"
           style="text-rendering:optimizeLegibility; font-family:'Lucida Bright'; color-interpolation:linearRGB; color-rendering:optimizeQuality; image-rendering:optimizeQuality;">
            <path d="M197.5048 60.8269 L195.5048 60.8269"
                  style="fill:none; clip-path:url(#clipPath1);"/>
        </g>
        <g transform="translate(6,5)"
           style="text-rendering:optimizeLegibility; font-family:'Lucida Bright'; color-interpolation:linearRGB; color-rendering:optimizeQuality; image-rendering:optimizeQuality;">
            <path d="M197.5048 43.2199 L195.5048 43.2199"
                  style="fill:none; clip-path:url(#clipPath1);"/>
        </g>
        <g transform="translate(6,5)"
           style="text-rendering:optimizeLegibility; font-family:'Lucida Bright'; color-interpolation:linearRGB; color-rendering:optimizeQuality; image-rendering:optimizeQuality;">
            <path d="M197.5048 8.006 L195.5048 8.006"
                  style="fill:none; clip-path:url(#clipPath1);"/>
        </g>
    </g>
</svg>
