<?xml version="1.0" encoding="UTF-8"?>
<!DOCTYPE svg PUBLIC '-//W3C//DTD SVG 1.0//EN'
    'http://www.w3.org/TR/2001/REC-SVG-20010904/DTD/svg10.dtd' >

<svg style="stroke-dasharray:none; shape-rendering:auto; font-family:'Dialog'; text-rendering:auto; fill-opacity:1; color-interpolation:auto; color-rendering:auto; font-size:12px; fill:black; stroke:black; image-rendering:auto; stroke-miterlimit:10; stroke-linecap:square; stroke-linejoin:miter; font-style:normal; stroke-width:1; stroke-dashoffset:0; font-weight:normal; stroke-opacity:1;"
     xmlns="http://www.w3.org/2000/svg" contentScriptType="text/ecmascript"
     preserveAspectRatio="xMidYMid meet"
     xmlns:xlink="http://www.w3.org/1999/xlink" zoomAndPan="magnify"
     version="1.0" contentStyleType="text/css">
    <!--Generated by the Batik Graphics2D SVG Generator-->
    <defs id="genericDefs"/>
    <g>
        <defs id="defs1">
            <clipPath clipPathUnits="userSpaceOnUse" id="clipPath1">
                <path d="M0 0 L390 0 L390 390 L0 390 L0 0 Z"/>
            </clipPath>
            <clipPath clipPathUnits="userSpaceOnUse" id="clipPath2">
                <path d="M1 0 L1 389 L390 389 L390 0 Z"/>
            </clipPath>
            <clipPath clipPathUnits="userSpaceOnUse" id="clipPath3">
                <path d="M281 233 L281 251 L300 251 L300 233 Z"/>
            </clipPath>
            <clipPath clipPathUnits="userSpaceOnUse" id="clipPath4">
                <path d="M6 5 L396 5 L396 395 L6 395 L6 5 Z"/>
            </clipPath>
            <clipPath clipPathUnits="userSpaceOnUse" id="clipPath5">
                <path d="M13 222 L13 238 L21 238 L21 222 Z"/>
            </clipPath>
            <clipPath clipPathUnits="userSpaceOnUse" id="clipPath6">
                <path d="M101 222 L101 238 L109 238 L109 222 Z"/>
            </clipPath>
            <clipPath clipPathUnits="userSpaceOnUse" id="clipPath7">
                <path d="M126 96 L126 114 L146 114 L146 96 Z"/>
            </clipPath>
            <clipPath clipPathUnits="userSpaceOnUse" id="clipPath8">
                <path d="M171 372 L171 388 L179 388 L179 372 Z"/>
            </clipPath>
            <clipPath clipPathUnits="userSpaceOnUse" id="clipPath9">
                <path d="M157 290 L157 306 L165 306 L165 290 Z"/>
            </clipPath>
        </defs>
        <g transform="translate(6,5)"
           style="stroke-linecap:butt; fill:rgb(165,165,165); text-rendering:optimizeLegibility; image-rendering:optimizeQuality; color-rendering:optimizeQuality; font-family:'Lucida Bright'; stroke-linejoin:round; stroke:rgb(165,165,165); color-interpolation:linearRGB;">
            <path d="M16.4952 388 L16.4952 1"
                  style="fill:none; clip-path:url(#clipPath1);"/>
            <path d="M104.0181 388 L104.0181 1"
                  style="fill:none; clip-path:url(#clipPath1);"/>
            <path d="M191.5409 388 L191.5409 1"
                  style="fill:none; clip-path:url(#clipPath1);"/>
            <path d="M279.0637 388 L279.0637 1"
                  style="fill:none; clip-path:url(#clipPath1);"/>
            <path d="M366.5865 388 L366.5865 1"
                  style="fill:none; clip-path:url(#clipPath1);"/>
            <path d="M60.2566 388 L60.2566 1"
                  style="fill:none; clip-path:url(#clipPath1); stroke:rgb(233,233,233);"/>
            <path d="M147.7795 388 L147.7795 1"
                  style="fill:none; clip-path:url(#clipPath1); stroke:rgb(233,233,233);"/>
            <path d="M235.3023 388 L235.3023 1"
                  style="fill:none; clip-path:url(#clipPath1); stroke:rgb(233,233,233);"/>
            <path d="M322.8251 388 L322.8251 1"
                  style="fill:none; clip-path:url(#clipPath1); stroke:rgb(233,233,233);"/>
        </g>
        <g transform="translate(6,5)"
           style="stroke-linecap:butt; fill:rgb(165,165,165); text-rendering:optimizeLegibility; image-rendering:optimizeQuality; color-rendering:optimizeQuality; font-family:'Lucida Bright'; stroke-linejoin:round; stroke:rgb(165,165,165); color-interpolation:linearRGB;">
            <path d="M2 374.6617 L389 374.6617"
                  style="fill:none; clip-path:url(#clipPath1);"/>
            <path d="M2 292.0475 L389 292.0475"
                  style="fill:none; clip-path:url(#clipPath1);"/>
            <path d="M2 209.4333 L389 209.4333"
                  style="fill:none; clip-path:url(#clipPath1);"/>
            <path d="M2 126.8192 L389 126.8192"
                  style="fill:none; clip-path:url(#clipPath1);"/>
            <path d="M2 44.205 L389 44.205"
                  style="fill:none; clip-path:url(#clipPath1);"/>
            <path d="M2 358.1389 L389 358.1389"
                  style="fill:none; clip-path:url(#clipPath1); stroke:rgb(233,233,233);"/>
            <path d="M2 341.6161 L389 341.6161"
                  style="fill:none; clip-path:url(#clipPath1); stroke:rgb(233,233,233);"/>
            <path d="M2 325.0932 L389 325.0932"
                  style="fill:none; clip-path:url(#clipPath1); stroke:rgb(233,233,233);"/>
            <path d="M2 308.5704 L389 308.5704"
                  style="fill:none; clip-path:url(#clipPath1); stroke:rgb(233,233,233);"/>
            <path d="M2 275.5247 L389 275.5247"
                  style="fill:none; clip-path:url(#clipPath1); stroke:rgb(233,233,233);"/>
            <path d="M2 259.0018 L389 259.0018"
                  style="fill:none; clip-path:url(#clipPath1); stroke:rgb(233,233,233);"/>
            <path d="M2 242.479 L389 242.479"
                  style="fill:none; clip-path:url(#clipPath1); stroke:rgb(233,233,233);"/>
            <path d="M2 225.9562 L389 225.9562"
                  style="fill:none; clip-path:url(#clipPath1); stroke:rgb(233,233,233);"/>
            <path d="M2 192.9105 L389 192.9105"
                  style="fill:none; clip-path:url(#clipPath1); stroke:rgb(233,233,233);"/>
            <path d="M2 176.3876 L389 176.3876"
                  style="fill:none; clip-path:url(#clipPath1); stroke:rgb(233,233,233);"/>
            <path d="M2 159.8648 L389 159.8648"
                  style="fill:none; clip-path:url(#clipPath1); stroke:rgb(233,233,233);"/>
            <path d="M2 143.342 L389 143.342"
                  style="fill:none; clip-path:url(#clipPath1); stroke:rgb(233,233,233);"/>
            <path d="M2 110.2963 L389 110.2963"
                  style="fill:none; clip-path:url(#clipPath1); stroke:rgb(233,233,233);"/>
            <path d="M2 93.7735 L389 93.7735"
                  style="fill:none; clip-path:url(#clipPath1); stroke:rgb(233,233,233);"/>
            <path d="M2 77.2506 L389 77.2506"
                  style="fill:none; clip-path:url(#clipPath1); stroke:rgb(233,233,233);"/>
            <path d="M2 60.7278 L389 60.7278"
                  style="fill:none; clip-path:url(#clipPath1); stroke:rgb(233,233,233);"/>
            <path d="M2 27.6821 L389 27.6821"
                  style="fill:none; clip-path:url(#clipPath1); stroke:rgb(233,233,233);"/>
            <path d="M2 11.1593 L389 11.1593"
                  style="fill:none; clip-path:url(#clipPath1); stroke:rgb(233,233,233);"/>
        </g>
        <g transform="translate(6,5)"
           style="stroke-linecap:butt; fill:blue; text-rendering:optimizeLegibility; image-rendering:optimizeQuality; color-rendering:optimizeQuality; font-family:'Lucida Bright'; stroke-linejoin:round; stroke:blue; color-interpolation:linearRGB; stroke-width:1.5;">
            <path d="M2.9897 28.4702 L3.0754 28.9735 L3.1323 29.2427 L3.8405 32.2847 L4.7335 35.5767 L4.739 35.5959 L4.7437 35.6102 L5.7833 38.907 L6.4976 40.9449 L6.9329 42.2182 L7.9987 45.052 L8.1824 45.5294 L8.2516 45.6953 L9.5336 48.8406 L10.0055 49.9152 L10.966 52.1518 L11.7595 53.8757 L12.4742 55.463 L13.5135 57.6258 L14.0535 58.7742 L15.2674 61.2029 L15.6993 62.0854 L17.0214 64.636 L17.4076 65.3966 L18.7754 67.9479 L19.1746 68.7078 L20.5293 71.1569 L20.9968 72.019 L22.2833 74.2778 L22.8711 75.3301 L24.0373 77.3227 L24.7944 78.6413 L25.7912 80.3015 L26.7641 81.9525 L27.5452 83.2225 L28.7776 85.2637 L29.2992 86.0927 L30.8326 88.5749 L31.0531 88.918 L32.1826 90.7072 L32.8071 91.6894 L32.9299 91.8861 L34.5611 94.3981 L35.0708 95.1973 L36.315 97.0757 L37.2475 98.5085 L38.069 99.7255 L39.4583 101.8197 L39.8229 102.3504 L41.125 104.2778 L41.5769 104.9406 L41.7044 105.1308 L43.3309 107.4749 L43.9905 108.442 L45.0848 109.993 L46.3062 111.7532 L46.8388 112.4962 L48.4205 114.7392 L48.5928 114.981 L48.6512 115.0644 L50.3467 117.4074 L51.0359 118.3756 L52.1007 119.8252 L53.4461 121.6868 L53.8547 122.2351 L54.901 123.6621 L55.6086 124.6165 L55.8868 124.998 L57.3626 126.9606 L58.3603 128.3092 L59.1166 129.3015 L60.8559 131.6204 L60.8705 131.6393 L60.9036 131.6829 L62.6245 133.9208 L63.3893 134.9315 L64.3785 136.2017 L65.943 138.2428 L66.1324 138.483 L66.5333 138.9995 L67.8864 140.7218 L68.5298 141.5539 L69.6404 142.9507 L71.1389 144.8651 L71.3943 145.1827 L71.9023 145.8241 L73.1483 147.3777 L73.7788 148.1763 L74.9022 149.5614 L76.4405 151.4875 L76.6562 151.7505 L77.0612 152.2521 L78.4102 153.901 L79.1332 154.7987 L80.1641 156.0455 L81.845 158.1099 L81.9181 158.1974 L82.0482 158.3554 L83.6721 160.3029 L84.5901 161.4211 L85.426 162.4134 L86.8802 164.1664 L87.18 164.5228 L87.3534 164.7323 L88.934 166.5932 L90.147 168.0435 L90.6879 168.6743 L91.5841 169.7354 L92.4419 170.7369 L92.9629 171.3546 L94.1959 172.7808 L95.801 174.6658 L95.9498 174.8364 L96.1854 175.1105 L97.7038 176.8524 L98.6692 177.977 L99.4577 178.8737 L100.6801 180.2846 L101.2117 180.8895 L101.5568 181.2882 L102.9657 182.8772 L104.4697 184.5994 L104.7196 184.8789 L105.091 185.3004 L106.4736 186.8472 L107.4098 187.9106 L108.2276 188.8178 L109.4188 190.1594 L109.9815 190.7838 L110.3703 191.2218 L111.7355 192.7243 L113.3543 194.533 L113.4895 194.6806 L113.6789 194.8905 L115.2434 196.5986 L116.3672 197.8442 L116.9974 198.5269 L117.8636 199.4794 L118.7514 200.4407 L119.4013 201.1554 L120.5053 202.3418 L121.9944 203.9664 L122.2593 204.251 L122.4569 204.4666 L124.0133 206.1257 L125.5395 207.7777 L125.7672 208.0188 L126.0636 208.3372 L127.5212 209.8787 L128.6482 211.0889 L129.2751 211.7473 L130.0763 212.6014 L131.0291 213.6009 L131.7794 214.4001 L132.7831 215.4458 L134.0428 216.7782 L134.537 217.2925 L134.9334 217.7113 L136.291 219.1145 L137.9645 220.8707 L138.045 220.9537 L138.1106 221.0225 L139.7989 222.7534 L141.3168 224.3337 L141.5529 224.5742 L141.8347 224.8656 L143.3069 226.3629 L144.5481 227.6449 L145.0608 228.1631 L145.6622 228.7802 L146.8148 229.9429 L147.8036 230.9561 L148.5688 231.7232 L149.4508 232.6213 L150.3227 233.4937 L151.0838 234.2673 L152.0767 235.2549 L153.2018 236.3913 L153.8306 237.0154 L154.3891 237.5784 L155.5846 238.7581 L156.9164 240.0926 L157.3386 240.5082 L157.72 240.8896 L159.0925 242.233 L160.5957 243.7273 L160.8465 243.9722 L161.077 244.2008 L162.6005 245.6799 L164.2408 247.2975 L164.3544 247.4075 L164.4607 247.512 L166.1084 249.0987 L167.8528 250.8052 L167.8624 250.8143 L167.8715 250.8232 L169.6163 252.4897 L171.3113 254.1344 L171.3703 254.1905 L171.4311 254.2492 L173.1243 255.853 L174.7789 257.4456 L174.8782 257.5392 L174.9789 257.6356 L176.6322 259.1888 L178.2747 260.7568 L178.3862 260.861 L178.4973 260.9665 L180.1401 262.4971 L181.7992 264.068 L181.8941 264.1559 L181.9871 264.2436 L183.6481 265.7781 L185.353 267.3792 L185.402 267.4242 L185.4493 267.4684 L187.156 269.032 L188.8839 270.6411 L188.9099 270.6649 L188.9374 270.6904 L190.6639 272.2588 L192.2904 273.761 L192.4179 273.8762 L192.5541 274.0016 L194.1718 275.4587 L195.671 276.8317 L195.9258 277.0602 L196.2027 277.3127 L197.6798 278.6319 L199.0263 279.8548 L199.4337 280.2169 L199.8838 280.6239 L201.1877 281.7784 L202.357 282.8315 L202.9417 283.3466 L203.5982 283.9351 L204.6956 284.8985 L205.6639 285.763 L206.4496 286.4493 L207.3465 287.2463 L208.2036 287.9922 L208.9475 288.6508 L209.9575 289.5251 L211.1294 290.5575 L211.7115 291.0597 L212.2086 291.4959 L213.4655 292.5743 L214.9478 293.8687 L215.2194 294.101 L215.4477 294.2996 L216.9734 295.5969 L218.6639 297.0601 L218.7273 297.1137 L218.8042 297.1799 L220.4813 298.5931 L221.8534 299.7701 L222.2353 300.0899 L222.7056 300.4911 L223.9892 301.5629 L225.0222 302.4412 L225.7432 303.0394 L226.6458 303.8022 L227.4972 304.5067 L228.1711 305.0745 L229.2511 305.9622 L230.6259 307.1134 L231.0051 307.4243 L231.3004 307.6709 L232.7591 308.8586 L234.4083 310.2269 L234.513 310.3116 L234.6503 310.4246 L236.267 311.7286 L237.4904 312.7341 L238.021 313.1589 L238.7277 313.7358 L239.7749 314.5724 L240.5542 315.2069 L241.5289 315.9796 L242.8492 317.047 L243.2829 317.3901 L243.6002 317.6461 L245.0368 318.7737 L246.625 320.0453 L246.7908 320.1743 L247.0222 320.3582 L248.5448 321.5415 L249.6254 322.3983 L250.2987 322.9171 L251.2552 323.6694 L252.0527 324.283 L252.6091 324.7199 L253.8066 325.6332 L255.5372 326.9806 L255.5606 326.9984 L255.5767 327.0109 L257.3146 328.3227 L258.516 329.2486 L259.0685 329.6617 L259.8934 330.2918 L260.8225 330.9858 L261.4394 331.4564 L262.5764 332.2973 L264.304 333.603 L264.3304 333.6225 L264.3477 333.6356 L266.0844 334.9062 L267.2276 335.7612 L267.8383 336.2032 L268.7987 336.9142 L269.5923 337.4885 L270.0927 337.8587 L271.3463 338.756 L272.94 339.9229 L273.1003 340.0362 L273.3614 340.2253 L274.8542 341.2818 L275.7621 341.9392 L276.6082 342.5308 L278.013 343.5365 L278.3622 343.7809 L278.5706 343.9302 L280.1161 344.998 L281.3546 345.8746 L281.8701 346.2261 L282.7592 346.8477 L283.624 347.4383 L284.1211 347.786 L285.378 348.6327 L286.8691 349.6627 L287.132 349.8372 L287.604 350.1589 L288.8859 351.0119 L289.5936 351.4948 L290.6399 352.1808 L292.3043 353.301 L292.3939 353.3588 L292.5617 353.4701 L294.1478 354.4966 L294.987 355.0543 L295.9018 355.6368 L297.6502 356.7813 L297.6558 356.7849 L297.6586 356.7867 L299.4097 357.8868 L300.3 358.4619 L301.1637 358.9949 L302.8911 360.0925 L302.9177 360.1089 L302.9308 360.1173 L304.6716 361.1765 L305.5311 361.7151 L306.4256 362.2488 L308.1201 363.2914 L308.1795 363.3261 L308.3081 363.4037 L309.9335 364.3592 L310.6791 364.8113 L311.6875 365.3914 L313.2242 366.3047 L313.4414 366.4268 L313.9367 366.7149 L315.1954 367.4276 L315.7426 367.748 L316.9494 368.4152 L318.2419 369.1551 L318.7033 369.4037 L319.8171 370.0261 L320.4573 370.3742 L320.7202 370.5222 L322.2113 371.3119 L323.172 371.8397 L323.9652 372.2479 L325.6075 373.1265 L325.7192 373.1821 L326.0176 373.3372 L327.4731 374.0723 L328.0127 374.3558 L329.2271 374.9497 L330.3973 375.5464 L330.9811 375.822 L332.6554 376.6484 L332.735 376.6866 L332.7626 376.7004 L334.489 377.4984 L335.0943 377.7911 L336.243 378.3012 L337.4055 378.8432 L337.9969 379.0945 L339.6954 379.8548 L339.7509 379.8773 L339.9433 379.9596 L341.5049 380.6071 L341.9512 380.8023 L343.2589 381.3176 L344.1823 381.703 L345.0128 382.0122 L346.3889 382.5576 L346.7668 382.6895 L348.3217 383.2708 L348.5207 383.3428 L348.5686 383.3612 L350.2747 383.9379 L350.7121 384.0966 L352.0287 384.5086 L352.8276 384.7791 L353.7826 385.0526 L354.9138 385.4063 L355.5366 385.5669 L356.9692 385.9753 L357.2906 386.0483 L358.9921 386.4831 L359.0445 386.4933 L359.4413 386.582 L360.7985 386.8737 L360.9758 386.9168 L362.5524 387.2032 L362.9229 387.2813 L364.3064 387.4831 L364.8329 387.5759 L366.0604 387.7073 L366.7038 387.7966 L367.8144 387.8689 L368.5334 387.9395 L369.5683 387.9596 L370.3194 388 L371.3223 387.9695 L372.0594 387.9736 L373.0762 387.887 L373.7506 387.855 L374.8302 387.6981 L375.39 387.6389 L376.5842 387.3858 L376.9747 387.3193 L378.3381 386.9291 L378.5011 386.8897 L379.3346 386.582 L379.9611 386.3347 L380.0921 386.2626 L381.3467 385.6392 L381.846 385.304 L382.6587 384.805 L383.6 384.041 L383.892 383.8221 L384.4571 383.2708 L385.0284 382.6562 L385.354 382.2054 L386.0578 381.2882 L386.851 379.9596 L386.9785 379.7152 L387.1079 379.3913 L387.7503 377.8611 L388.1343 376.6484 L388.3702 375.7202 L388.7928 373.3372 L388.8056 373.231 L388.8619 372.3361 L388.9962 370.2796 L389 370.0261 L388.8894 366.7668 L388.8856 366.7149 L388.8619 366.5132 L388.5076 363.4037 L388.3577 362.4517 L387.9243 360.0925 L387.2363 357.0236 L387.1771 356.7813 L387.1079 356.5362 L386.2661 353.4701 L385.354 350.5411 L385.238 350.1589 L385.0316 349.5504 L384.0847 346.8477 L383.6 345.5859 L382.8315 343.5365 L381.846 341.1208 L381.4893 340.2253 L380.0921 336.981 L380.064 336.9142 L379.8997 336.5509 L378.5544 333.603 L378.3381 333.158 L376.9741 330.2918 L376.5842 329.5198 L375.3281 326.9806 L374.8302 326.0291 L373.6205 323.6694 L373.0762 322.6628 L371.8548 320.3582 L371.3223 319.4028 L370.0346 317.047 L369.5683 316.234 L368.1629 313.7358 L367.8144 313.144 L366.2426 310.4246 L366.0604 310.1229 L364.5587 307.5898 L364.3064 307.1662 L364.2756 307.1134 L362.5524 304.2915 L362.2592 303.8022 L360.7985 301.4648 L360.201 300.4911 L359.0445 298.6805 L358.1031 297.1799 L357.2906 295.9338 L355.9675 293.8687 L355.5366 293.2206 L353.7963 290.5575 L353.7826 290.5373 L353.7303 290.4586 L352.0287 287.9252 L351.5806 287.2463 L350.2747 285.3373 L349.3319 283.9351 L348.5207 282.7697 L347.0523 280.6239 L346.7668 280.2203 L345.8716 278.9339 L345.0128 277.712 L344.737 277.3127 L343.2589 275.2434 L342.3865 274.0016 L341.5049 272.7863 L340.0092 270.6904 L339.7509 270.3394 L339.0593 269.3846 L337.9969 267.9338 L337.5974 267.3792 L336.243 265.5561 L335.1552 264.068 L334.489 263.1837 L332.8483 260.9706 L332.735 260.8196 L332.6887 260.7568 L330.9811 258.5104 L330.1846 257.4456 L329.2271 256.2023 L327.6595 254.1344 L327.4731 253.8954 L327.0649 253.3637 L325.7192 251.6318 L325.1008 250.8232 L323.9652 249.3797 L322.5189 247.512 L322.2113 247.1255 L321.5798 246.3199 L320.4573 244.9054 L319.9069 244.2008 L318.7033 242.7018 L317.2709 240.8896 L316.9494 240.4936 L316.3277 239.7161 L315.1954 238.3179 L314.606 237.5784 L313.4414 236.1562 L311.9185 234.2673 L311.6875 233.9881 L311.265 233.4696 L309.9335 231.8572 L309.2008 230.9561 L308.1795 229.7321 L306.4644 227.6449 L306.4256 227.5988 L306.3581 227.5174 L304.6716 225.5131 L303.6944 224.3337 L302.9177 223.4196 L301.5985 221.8434 L301.1637 221.3309 L300.906 221.0225 L299.4097 219.2761 L298.0894 217.7113 L297.6558 217.2099 L296.9534 216.3855 L295.9018 215.1681 L295.2484 214.4001 L294.1478 213.1378 L292.4027 211.1056 L292.3939 211.0955 L292.3882 211.0889 L290.6399 209.1 L289.4952 207.7777 L288.8859 207.0906 L287.9611 206.0317 L287.132 205.0963 L286.5824 204.4666 L285.378 203.1192 L283.6489 201.1554 L283.624 201.1278 L283.5878 201.087 L281.8701 199.1808 L280.6837 197.8442 L280.1161 197.2193 L279.3051 196.3132 L278.3622 195.2752 L277.698 194.533 L276.6082 193.3429 L275.081 191.6498 L274.8542 191.4023 L274.6914 191.2218 L273.1003 189.4982 L271.6567 187.9106 L271.3463 187.5769 L270.9273 187.1196 L269.5923 185.6851 L268.5972 184.5994 L267.8383 183.79 L266.8329 182.7014 L266.0844 181.9035 L265.5159 181.2882 L264.3304 180.0338 L262.7885 178.3774 L262.5764 178.1532 L262.4124 177.977 L260.8225 176.3081 L259.2816 174.6658 L259.0685 174.4437 L258.8007 174.1603 L257.3146 172.6127 L256.1247 171.3546 L255.5606 170.7712 L254.8641 170.0398 L253.8066 168.9475 L252.9447 168.0435 L252.0527 167.1281 L250.9707 166.0008 L250.2987 165.3124 L249.7412 164.7323 L248.5448 163.5143 L247.1189 162.0405 L246.7908 161.7071 L246.5137 161.4211 L245.0368 159.9297 L243.3073 158.1561 L243.2829 158.1314 L243.2618 158.1099 L241.5289 156.374 L239.9804 154.7987 L239.7749 154.5941 L239.5415 154.3581 L238.021 152.8472 L236.6737 151.4875 L236.267 151.0857 L235.8129 150.6302 L234.513 149.3491 L233.3416 148.1763 L232.7591 147.6054 L232.1195 146.9689 L231.0051 145.8795 L229.9836 144.8651 L229.2511 144.153 L228.4603 143.3722 L227.4972 142.4384 L226.5993 141.5539 L225.7432 140.7284 L224.8343 139.8382 L223.9892 139.0255 L223.188 138.2428 L222.2353 137.3314 L221.2405 136.3647 L220.4813 135.6408 L219.7494 134.9315 L218.7273 133.9618 L217.6778 132.9502 L216.9734 132.284 L216.2829 131.6204 L215.2194 130.6196 L214.1454 129.5927 L213.4655 128.9551 L212.7878 128.3092 L211.7115 127.3047 L210.6423 126.2906 L209.9575 125.6539 L209.2636 124.998 L208.2036 124.0168 L207.1677 123.0424 L206.4496 122.3802 L205.7098 121.6868 L204.6956 120.7559 L203.7207 119.8463 L202.9417 119.1341 L202.1258 118.3756 L201.1877 117.5217 L200.3006 116.7009 L199.4337 115.9151 L198.5108 115.0644 L197.6798 114.3143 L196.9066 113.6048 L195.9258 112.7233 L194.8644 111.7532 L194.1718 111.1334 L193.5379 110.5565 L192.4179 109.5586 L191.1857 108.442 L190.6639 107.9789 L190.194 107.5548 L188.9099 106.4207 L187.4743 105.1308 L187.156 104.8508 L186.8739 104.5984 L185.402 103.3096 L183.7293 101.8197 L183.6481 101.7488 L183.5772 101.6859 L181.8941 100.2251 L180.3071 98.8238 L180.1401 98.6796 L179.9454 98.5085 L178.3862 97.1671 L177.0613 96.0074 L176.6322 95.6403 L176.1235 95.1973 L174.8782 94.1355 L173.8374 93.2323 L173.1243 92.6278 L172.2649 91.8861 L171.3703 91.1301 L170.6347 90.4974 L169.6163 89.642 L168.3688 88.5749 L167.8624 88.1508 L167.4527 87.8015 L166.1084 86.6827 L164.4342 85.2637 L164.3544 85.1975 L164.2909 85.1438 L162.6005 83.7499 L161.1559 82.5366 L160.8465 82.2832 L160.4503 81.9525 L159.0925 80.8434 L158.0418 79.9688 L157.3386 79.3984 L156.4229 78.6413 L155.5846 77.9629 L154.9466 77.4368 L153.8306 76.5403 L152.3531 75.3301 L152.0767 75.1086 L151.8698 74.9395 L150.3227 73.7086 L148.8165 72.4867 L148.5688 72.2911 L148.2308 72.019 L146.8148 70.9032 L145.7858 70.0764 L145.0608 69.5098 L144.055 68.7078 L143.3069 68.124 L142.7723 67.6986 L141.5529 66.7551 L139.8322 65.3966 L139.7989 65.3709 L139.7756 65.3525 L138.045 64.027 L136.8068 63.0591 L136.291 62.6677 L135.5397 62.0854 L134.537 61.3252 L133.8546 60.7971 L132.7831 59.9923 L131.1951 58.7742 L131.0291 58.6497 L130.9181 58.5646 L129.2751 57.3438 L128.0078 56.3816 L127.5212 56.0237 L126.7755 55.463 L125.7672 54.7216 L125.115 54.2316 L124.0133 53.4301 L122.2948 52.1518 L122.2593 52.126 L122.2367 52.1092 L120.5053 50.8634 L119.3869 50.0405 L118.7514 49.5884 L117.7242 48.8406 L116.9974 48.3235 L116.5516 47.999 L115.2434 47.0791 L113.7353 45.9935 L113.4895 45.8228 L113.0772 45.5294 L111.7355 44.5969 L110.9426 44.0325 L109.9815 43.373 L108.3393 42.2182 L108.2276 42.1415 L108.1627 42.0958 L106.4736 40.9506 L105.411 40.2122 L104.7196 39.75 L103.4906 38.907 L102.9657 38.5554 L102.6729 38.3544 L101.2117 37.3897 L99.9581 36.5404 L99.4577 36.2151 L98.5305 35.5959 L97.7038 35.057 L97.2616 34.7611 L95.9498 33.9194 L94.5852 33.0197 L94.1959 32.774 L93.4419 32.2847 L92.4419 31.6515 L91.93 31.3183 L90.6879 30.5453 L89.2936 29.6524 L88.934 29.4327 L88.2044 28.9735 L87.18 28.3448 L86.6795 28.0286 L85.426 27.2737 L84.0847 26.4413 L83.6721 26.1978 L82.7927 25.6623 L81.9181 25.1433 L81.5114 24.8944 L80.1641 24.1115 L78.9599 23.3889 L78.4102 23.0765 L77.1755 22.3511 L76.6562 22.0539 L76.427 21.9185 L74.9022 21.0658 L73.9206 20.498 L73.1483 20.0767 L71.4287 19.1049 L71.3943 19.0866 L71.3096 19.0399 L69.6404 18.1448 L68.9683 17.7713 L67.8864 17.207 L66.5247 16.4693 L66.1324 16.2708 L65.1036 15.7287 L64.3785 15.3574 L64.1045 15.2115 L62.6245 14.4767 L61.7111 14.0043 L60.8705 13.6009 L59.3359 12.8317 L59.1166 12.7302 L58.4711 12.4175 L57.3626 11.8963 L56.9894 11.713 L55.6086 11.0881 L54.6681 10.642 L53.8547 10.2891 L52.3678 9.6106 L52.1007 9.5 L51.2003 9.1064 L50.3467 8.7447 L50.0959 8.6329 L48.5928 8.0261 L47.8535 7.7107 L46.8388 7.3227 L45.635 6.8337 L45.0848 6.6357 L43.4416 6.0042 L43.3309 5.967 L42.8549 5.7951 L41.5769 5.3492 L41.2825 5.2393 L39.8229 4.7655 L39.1535 4.5313 L38.069 4.2073 L37.0532 3.8774 L36.315 3.6774 L34.983 3.2805 L34.5611 3.1786 L32.9445 2.7433 L32.8071 2.7145 L31.8403 2.4839 L31.0531 2.3034 L30.9424 2.275 L29.2992 1.9511 L28.9785 1.8786 L27.5452 1.6458 L27.0508 1.5507 L25.7912 1.3931 L25.1613 1.2947 L24.0373 1.1996 L23.312 1.1147 L22.2833 1.0729 L21.5052 1.015 L20.5293 1.022 L19.7433 1 L18.7754 1.0578 L18.0289 1.0748 L17.0214 1.193 L16.3649 1.2445 L15.2674 1.4431 L14.7542 1.5151 L13.5135 1.8272 L13.2002 1.8925 L11.7595 2.3686 L11.7064 2.3837 L11.4672 2.4839 L10.2864 3.0142 L10.0055 3.1868 L8.9396 3.7828 L8.2516 4.2959 L7.6691 4.6954 L6.4976 5.7479 L6.4803 5.7624 L6.4499 5.7951 L5.4051 7.0439 L4.7437 8.0602 L4.4302 8.5146 L4.1131 9.1064 L3.5887 10.2372 L2.9897 11.9367 L2.885 12.2199 L2.8306 12.4175 L2.3705 14.5597 L2.202 15.7287 L2.0625 17.2895 L2 19.0399 L2.0211 20.5225 L2.1223 22.3511 L2.3319 24.4204 L2.497 25.6623 L2.9897 28.4702"
                  style="fill:none; clip-path:url(#clipPath2);"/>
        </g>
        <g transform="translate(6,5)"
           style="stroke-linecap:butt; fill:rgb(120,0,14); text-rendering:optimizeLegibility; image-rendering:optimizeQuality; color-rendering:optimizeQuality; font-family:'Lucida Bright'; stroke-linejoin:round; stroke:rgb(120,0,14); color-interpolation:linearRGB; stroke-width:1.5;">
            <path d="M336.243 373.558 L336.4768 373.7787 L336.4768 373.3372 L336.243 373.0061 L335.5414 372.0128 L336.0091 373.3372 L336.243 373.558"
                  style="fill:none; clip-path:url(#clipPath2);"/>
            <path d="M46.8388 45.8605 L47.5404 46.8539 L47.0727 45.5294 L46.8388 45.3087 L46.6049 45.0879 L46.6049 45.5294 L46.8388 45.8605"
                  style="fill:none; clip-path:url(#clipPath2);"/>
            <path d="M50.3467 49.5029 L51.2822 52.1518 L52.1007 53.3107 L53.6208 55.463 L53.8547 55.7941 L54.5563 56.7875 L55.6086 58.2775 L55.9594 58.7742 L57.3626 60.7609 L58.298 62.0854 L59.1166 63.2443 L60.6367 65.3966 L60.8705 65.7277 L61.5721 66.721 L62.6245 68.2111 L62.9753 68.7078 L64.3785 70.6945 L65.3139 72.019 L66.1324 73.1779 L67.6525 75.3301 L67.8864 75.6613 L68.588 76.6546 L69.6404 78.1447 L69.9911 78.6413 L71.3943 80.6281 L72.3298 81.9525 L73.1483 83.1114 L74.6684 85.2637 L74.9022 85.5948 L75.6038 86.5882 L76.6562 88.0782 L77.007 88.5749 L78.4102 90.5616 L79.3456 91.8861 L80.1641 93.045 L81.6842 95.1973 L81.9181 95.5284 L82.6197 96.5218 L83.6721 98.0118 L84.0229 98.5085 L85.426 100.4952 L86.3615 101.8197 L87.18 102.9786 L88.7001 105.1308 L88.934 105.462 L89.6355 106.4553 L90.6879 107.9454 L91.0387 108.442 L92.4419 110.4287 L93.3773 111.7532 L94.1959 112.9121 L95.716 115.0644 L95.9498 115.3955 L96.6514 116.3889 L97.7038 117.8789 L98.0546 118.3756 L99.4577 120.3623 L100.3932 121.6868 L101.2117 122.8457 L102.7318 124.998 L102.9657 125.3291 L103.6673 126.3225 L104.7196 127.8125 L105.0704 128.3092 L106.4736 130.2959 L107.409 131.6204 L108.2276 132.7793 L109.7477 134.9315 L109.9815 135.2627 L110.6831 136.256 L111.7355 137.7461 L112.0863 138.2428 L113.4895 140.2295 L114.4249 141.5539 L115.2434 142.7129 L116.7635 144.8651 L116.9974 145.1963 L117.699 146.1896 L118.7514 147.6796 L119.1021 148.1763 L120.5053 150.163 L121.4408 151.4875 L122.2593 152.6464 L123.7794 154.7987 L124.0133 155.1298 L124.7148 156.1232 L125.7672 157.6132 L126.118 158.1099 L127.5212 160.0966 L128.4566 161.4211 L129.2751 162.58 L130.7952 164.7323 L131.0291 165.0634 L131.7307 166.0567 L132.7831 167.5468 L133.1339 168.0435 L134.537 170.0302 L135.4725 171.3546 L136.291 172.5136 L137.8111 174.6658 L138.045 174.997 L138.7466 175.9903 L139.7989 177.4804 L140.1497 177.977 L141.5529 179.9638 L142.4883 181.2882 L143.3069 182.4471 L144.827 184.5994 L145.0608 184.9305 L145.7624 185.9239 L146.8148 187.4139 L147.1656 187.9106 L148.5688 189.8973 L149.5042 191.2218 L150.3227 192.3807 L151.8428 194.533 L152.0767 194.8641 L152.7783 195.8575 L153.8306 197.3475 L154.1814 197.8442 L155.5846 199.8309 L156.5201 201.1554 L157.3386 202.3143 L158.8587 204.4666 L159.0925 204.7977 L159.7941 205.791 L160.8465 207.2811 L161.1973 207.7777 L162.6005 209.3671 L164.1206 211.0889 L164.3544 211.3097 L164.5883 211.5304 L166.1084 212.9653 L167.6285 214.4001 L167.8624 214.6209 L168.0962 214.8416 L169.6163 216.2765 L171.1364 217.7113 L171.3703 217.9321 L171.6042 218.1528 L173.1243 219.5877 L174.6444 221.0225 L174.8782 221.2432 L175.1121 221.464 L176.6322 222.8988 L178.1523 224.3337 L178.3862 224.5544 L178.62 224.7752 L180.1401 226.21 L181.6602 227.6449 L181.8941 227.8656 L182.1279 228.0864 L183.6481 229.5212 L185.1682 230.9561 L185.402 231.1768 L185.6359 231.3976 L187.156 232.8324 L188.6761 234.2673 L188.9099 234.488 L189.1438 234.7088 L190.6639 236.1436 L192.184 237.5784 L192.4179 237.7992 L192.6517 238.0199 L194.1718 239.4548 L195.6919 240.8896 L195.9258 241.1104 L196.1597 241.3311 L197.6798 242.766 L199.1999 244.2008 L199.4337 244.4216 L199.6676 244.6423 L201.1877 246.0772 L202.7078 247.512 L202.9417 247.7328 L203.1755 247.9535 L204.6956 249.3884 L206.2157 250.8232 L206.4496 251.044 L206.6835 251.2647 L208.2036 252.6996 L209.7237 254.1344 L209.9575 254.3551 L210.1914 254.5759 L211.7115 256.0107 L213.2316 257.4456 L213.4655 257.6663 L213.6993 257.8871 L215.2194 259.3219 L216.7395 260.7568 L216.9734 260.9775 L217.2072 261.1983 L218.7273 262.6331 L220.2475 264.068 L220.4813 264.2887 L220.7152 264.5095 L222.2353 265.9443 L223.7554 267.3792 L223.9892 267.5999 L224.2231 267.8206 L225.7432 269.2555 L227.2633 270.6904 L227.4972 270.9111 L227.731 271.1318 L229.2511 272.5667 L230.7712 274.0016 L231.0051 274.2223 L231.239 274.4431 L232.7591 275.8779 L234.2792 277.3127 L234.513 277.5335 L234.7469 277.7542 L236.267 279.1891 L237.7871 280.6239 L238.021 280.8447 L238.2548 281.0654 L239.7749 282.5002 L241.295 283.9351 L241.5289 284.1559 L241.7628 284.3766 L243.2829 285.8115 L244.803 287.2463 L245.0368 287.467 L245.2707 287.6878 L246.7908 289.1227 L248.3109 290.5575 L248.5448 290.7783 L248.7786 290.999 L250.2987 292.4338 L251.8188 293.8687 L252.0527 294.0894 L252.2865 294.3102 L253.8066 295.745 L255.3268 297.1799 L255.5606 297.4006 L255.7944 297.6214 L257.3146 299.0562 L258.8347 300.4911 L259.0685 300.7118 L259.3024 300.9326 L260.8225 302.3674 L262.3426 303.8022 L262.5764 304.023 L262.8103 304.2437 L264.3304 305.6786 L265.8505 307.1134 L266.0844 307.3342 L266.3182 307.5549 L267.8383 308.9898 L269.3585 310.4246 L269.5923 310.6454 L269.8262 310.8661 L271.3463 312.301 L272.8664 313.7358 L273.1003 313.9566 L273.3341 314.1773 L274.8542 315.6122 L276.3743 317.047 L276.6082 317.2678 L276.842 317.4885 L278.3622 318.9233 L279.8822 320.3582 L280.1161 320.5789 L280.35 320.7997 L281.8701 322.2346 L283.3902 323.6694 L283.624 323.8901 L283.8579 324.1109 L285.378 325.5457 L286.8981 326.9806 L287.132 327.2013 L287.3658 327.4221 L288.8859 328.8569 L290.406 330.2918 L290.6399 330.5125 L290.8737 330.7333 L292.3939 332.1681 L293.914 333.603 L294.1478 333.8237 L294.3817 334.0445 L295.9018 335.4793 L297.4219 336.9142 L297.6558 337.1349 L297.8896 337.3557 L299.4097 338.7905 L300.9298 340.2253 L301.1637 340.4461 L301.3976 340.6668 L302.9177 342.1017 L304.4377 343.5365 L304.6716 343.7573 L304.9055 343.978 L306.4256 345.4129 L307.9457 346.8477 L308.1795 347.0685 L308.4134 347.2892 L309.9335 348.7241 L311.4536 350.1589 L311.6875 350.3797 L311.9213 350.6004 L313.4414 352.0352 L314.9615 353.4701 L315.1954 353.6909 L315.4293 353.9116 L316.9494 355.3464 L318.4695 356.7813 L318.7033 357.002 L318.9372 357.2228 L320.4573 358.6576 L321.9774 360.0925 L322.2113 360.3132 L322.4451 360.534 L323.9652 361.9688 L325.4853 363.4037 L325.7192 363.6244 L325.9531 363.8452 L327.4731 365.28 L328.9933 366.7149 L329.2271 366.9356 L329.461 367.1564 L330.9811 367.8738 L332.5012 370.0261 L332.735 370.2468 L332.9689 370.4676 L333.4366 370.0261 L332.735 369.3638 L331.7996 366.7149 L330.9811 365.5559 L329.461 363.4037 L329.2271 363.0726 L328.5255 362.0792 L327.4731 360.5892 L327.1224 360.0925 L325.7192 358.1058 L324.7838 356.7813 L323.9652 355.6224 L322.4451 353.4701 L322.2113 353.139 L321.5097 352.1456 L320.4573 350.6556 L320.1065 350.1589 L318.7033 348.1722 L317.7679 346.8477 L316.9494 345.6888 L315.4293 343.5365 L315.1954 343.2054 L314.4938 342.2121 L313.4414 340.722 L313.0906 340.2253 L311.6875 338.2386 L310.752 336.9142 L309.9335 335.7552 L308.4134 333.603 L308.1795 333.2719 L307.478 332.2785 L306.4256 330.7885 L306.0748 330.2918 L304.6716 328.3051 L303.7362 326.9806 L302.9177 325.8217 L301.3976 323.6694 L301.1637 323.3383 L300.4621 322.3449 L299.4097 320.8549 L299.0589 320.3582 L297.6558 318.3715 L296.7203 317.047 L295.9018 315.8881 L294.3817 313.7358 L294.1478 313.4047 L293.4462 312.4113 L292.3939 310.9213 L292.0431 310.4246 L290.6399 308.4379 L289.7044 307.1134 L288.8859 305.9545 L287.3658 303.8022 L287.132 303.4711 L286.4304 302.4778 L285.378 300.9877 L285.0272 300.4911 L283.624 298.5043 L282.6886 297.1799 L281.8701 296.021 L280.35 293.8687 L280.1161 293.5376 L279.4145 292.5442 L278.3622 291.0542 L278.0114 290.5575 L276.6082 288.5708 L275.6727 287.2463 L274.8542 286.0874 L273.3341 283.9351 L273.1003 283.604 L272.3987 282.6106 L271.3463 281.1206 L270.9955 280.6239 L269.5923 278.6372 L268.6569 277.3127 L267.8383 276.1538 L266.3182 274.0016 L266.0844 273.6704 L265.3828 272.6771 L264.3304 271.187 L263.9796 270.6904 L262.5764 268.7036 L261.641 267.3792 L260.8225 266.2202 L259.3024 264.068 L259.0685 263.7368 L258.3669 262.7435 L257.3146 261.2534 L256.9638 260.7568 L255.5606 258.7701 L254.6251 257.4456 L253.8066 256.2867 L252.2865 254.1344 L252.0527 253.8033 L251.3511 252.8099 L250.2987 251.3199 L249.9479 250.8232 L248.5448 248.8365 L247.6093 247.512 L246.7908 246.3531 L245.2707 244.2008 L245.0368 243.8697 L244.3352 242.8764 L243.2829 241.3863 L242.9321 240.8896 L241.5289 238.9029 L240.5934 237.5784 L239.7749 236.4195 L238.2548 234.2673 L238.021 233.9361 L237.3194 232.9428 L236.267 231.4528 L235.9162 230.9561 L234.513 228.9694 L233.5776 227.6449 L232.7591 226.486 L231.239 224.3337 L231.0051 224.0026 L230.3035 223.0092 L229.2511 221.5192 L228.9003 221.0225 L227.4972 219.0358 L226.5617 217.7113 L225.7432 216.5524 L224.2231 214.4001 L223.9892 214.069 L223.2877 213.0757 L222.2353 211.5856 L221.8845 211.0889 L220.4813 209.4996 L218.9612 207.7777 L218.7273 207.557 L218.4935 207.3363 L216.9734 205.9014 L215.4533 204.4666 L215.2194 204.2458 L214.9855 204.0251 L213.4655 202.5902 L211.9453 201.1554 L211.7115 200.9346 L211.4776 200.7139 L209.9575 199.279 L208.4374 197.8442 L208.2036 197.6234 L207.9697 197.4027 L206.4496 195.9678 L204.9295 194.533 L204.6956 194.3122 L204.4618 194.0915 L202.9417 192.6566 L201.4216 191.2218 L201.1877 191.001 L200.9538 190.7803 L199.4337 189.3454 L197.9136 187.9106 L197.6798 187.6899 L197.4459 187.4691 L195.9258 186.0343 L194.4057 184.5994 L194.1718 184.3787 L193.938 184.1579 L192.4179 182.7231 L190.8978 181.2882 L190.6639 181.0675 L190.4301 180.8467 L188.9099 179.4119 L187.3898 177.977 L187.156 177.7563 L186.9221 177.5355 L185.402 176.1007 L183.8819 174.6658 L183.6481 174.4451 L183.4142 174.2243 L181.8941 172.7895 L180.374 171.3546 L180.1401 171.1339 L179.9063 170.9132 L178.3862 169.4783 L176.8661 168.0435 L176.6322 167.8227 L176.3983 167.602 L174.8782 166.1671 L173.3581 164.7323 L173.1243 164.5115 L172.8904 164.2908 L171.3703 162.8559 L169.8502 161.4211 L169.6163 161.2003 L169.3825 160.9796 L167.8624 159.5447 L166.3423 158.1099 L166.1084 157.8891 L165.8745 157.6684 L164.3544 156.2336 L162.8343 154.7987 L162.6005 154.5779 L162.3666 154.3572 L160.8465 152.9224 L159.3264 151.4875 L159.0925 151.2668 L158.8587 151.046 L157.3386 149.6112 L155.8185 148.1763 L155.5846 147.9556 L155.3508 147.7348 L153.8306 146.3 L152.3105 144.8651 L152.0767 144.6444 L151.8428 144.4236 L150.3227 142.9888 L148.8026 141.5539 L148.5688 141.3332 L148.3349 141.1124 L146.8148 139.6776 L145.2947 138.2428 L145.0608 138.022 L144.827 137.8013 L143.3069 136.3664 L141.7868 134.9315 L141.5529 134.7108 L141.319 134.4901 L139.7989 133.0552 L138.2788 131.6204 L138.045 131.3996 L137.8111 131.1789 L136.291 129.744 L134.7709 128.3092 L134.537 128.0884 L134.3032 127.8677 L132.7831 126.4328 L131.263 124.998 L131.0291 124.7772 L130.7952 124.5565 L129.2751 123.1216 L127.755 121.6868 L127.5212 121.4661 L127.2873 121.2453 L125.7672 119.8105 L124.2471 118.3756 L124.0133 118.1548 L123.7794 117.9341 L122.2593 116.4993 L120.7392 115.0644 L120.5053 114.8437 L120.2715 114.6229 L118.7514 113.1881 L117.2313 111.7532 L116.9974 111.5325 L116.7635 111.3117 L115.2434 109.8769 L113.7233 108.442 L113.4895 108.2213 L113.2556 108.0005 L111.7355 106.5657 L110.2154 105.1308 L109.9815 104.9101 L109.7477 104.6894 L108.2276 103.2545 L106.7075 101.8197 L106.4736 101.5989 L106.2397 101.3782 L104.7196 99.9433 L103.1995 98.5085 L102.9657 98.2877 L102.7318 98.067 L101.2117 96.6321 L99.6916 95.1973 L99.4577 94.9765 L99.2239 94.7558 L97.7038 93.3209 L96.1837 91.8861 L95.9498 91.6653 L95.716 91.4446 L94.1959 90.0098 L92.6758 88.5749 L92.4419 88.3542 L92.208 88.1334 L90.6879 86.6985 L89.1678 85.2637 L88.934 85.043 L88.7001 84.8222 L87.18 83.3874 L85.6599 81.9525 L85.426 81.7318 L85.1922 81.511 L83.6721 80.0762 L82.152 78.6413 L81.9181 78.4206 L81.6842 78.1998 L80.1641 76.765 L78.644 75.3301 L78.4102 75.1094 L78.1763 74.8886 L76.6562 73.4538 L75.1361 72.019 L74.9022 71.7982 L74.6684 71.5775 L73.1483 70.1426 L71.6282 68.7078 L71.3943 68.487 L71.1605 68.2663 L69.6404 66.8314 L68.1202 65.3966 L67.8864 65.1758 L67.6525 64.9551 L66.1324 63.5202 L64.6123 62.0854 L64.3785 61.8646 L64.1446 61.6439 L62.6245 60.209 L61.1044 58.7742 L60.8705 58.5534 L60.6367 58.3327 L59.1166 56.8978 L57.5965 55.463 L57.3626 55.2422 L57.1287 55.0215 L55.6086 53.5867 L54.0885 52.1518 L53.8547 51.9311 L53.6208 51.7103 L52.1007 50.9929 L50.5806 48.8406 L50.3467 48.6199 L50.1129 48.3991 L49.6451 48.8406 L50.3467 49.5029"
                  style="fill:none; clip-path:url(#clipPath2);"/>
        </g>
        <g transform="translate(6,5)"
           style="stroke-linecap:butt; text-rendering:optimizeLegibility; color-rendering:optimizeQuality; image-rendering:optimizeQuality; font-family:'Lucida Bright'; stroke-linejoin:round; color-interpolation:linearRGB;">
            <path d="M2 209.4333 L389 209.4333"
                  style="fill:none; clip-path:url(#clipPath1);"/>
        </g>
        <g transform="translate(6,5)"
           style="stroke-linecap:butt; text-rendering:optimizeLegibility; color-rendering:optimizeQuality; image-rendering:optimizeQuality; font-family:'Lucida Bright'; stroke-linejoin:round; color-interpolation:linearRGB;">
            <path d="M290.8906 243.9688 L290 241.9531 L289.625 241.2031 Q289.4375 240.7812 289.3047 240.6719 Q289.1719 240.5625 288.8281 240.5312 L288.3906 240.5 L288.25 240.5 L288.3281 240.0469 L290.7188 240.0469 L292.1562 243.1719 L292.5 242.9062 Q293.9219 241.7344 293.9219 240.9688 Q293.9219 240.5625 293.6094 240.0469 L295.0469 240.0469 Q295.125 240.3125 295.125 240.5 Q295.125 241.125 294.6797 241.6406 Q294.2344 242.1562 292.6875 243.3125 L292.3438 243.5781 L293.5469 246.1094 L293.9844 246.9219 Q294.2656 247.4844 294.7344 247.5156 L295.2031 247.5312 L295.3281 247.5469 L295.25 248 L292.8438 248 L291.125 244.375 L290.5 244.9375 Q289 246.2812 289 247.25 Q289 247.6406 289.25 248 L287.7031 248 Q287.6562 247.7969 287.6562 247.6875 Q287.6562 246.75 289.0312 245.5469 L290.1719 244.5938 L290.8906 243.9688 Z"
                  style="stroke:none; clip-path:url(#clipPath3);"/>
        </g>
        <g transform="translate(6,5)"
           style="text-rendering:optimizeLegibility; font-family:'Lucida Bright'; color-interpolation:linearRGB; color-rendering:optimizeQuality; image-rendering:optimizeQuality;">
            <path d="M16.4952 209.4333 L16.4952 213.4333"
                  style="fill:none; clip-path:url(#clipPath1);"/>
        </g>
        <g style="text-rendering:optimizeLegibility; font-family:'Lucida Bright'; color-interpolation:linearRGB; color-rendering:optimizeQuality; image-rendering:optimizeQuality;">
            <path d="M25.4531 230.8906 L15.5469 230.8906 L15.5469 230.1094 L25.4531 230.1094 L25.4531 230.8906 Z"
                  style="stroke:none; clip-path:url(#clipPath5);"/>
        </g>
        <g style="text-rendering:optimizeLegibility; font-family:'Lucida Bright'; color-interpolation:linearRGB; color-rendering:optimizeQuality; image-rendering:optimizeQuality;">
            <path d="M24.1719 235 L24.1719 234.2812 Q24.7969 232.4531 26.125 231.2188 L26.9062 230.5 Q28.25 229.2344 28.6953 228.4922 Q29.1406 227.75 29.1406 226.7969 Q29.1406 225.6875 28.5938 225.0156 Q28.0469 224.3438 27.1562 224.3438 Q26.1562 224.3438 25.4688 224.8906 Q25.2188 225.0938 25.1406 226.3438 L25.1406 226.5156 L24.4062 226.5156 L24.4062 224.5469 Q25.9844 223.875 27.3281 223.875 Q28.7969 223.875 29.7344 224.7031 Q30.6719 225.5312 30.6719 226.7969 Q30.6719 228.5156 28.5469 229.9688 L27.6719 230.5781 Q25.5625 232.0312 25.3594 233.7344 L30.625 233.7344 L30.625 235 L24.1719 235 Z"
                  style="stroke:none; clip-path:url(#clipPath4);"/>
        </g>
        <g transform="translate(6,5)"
           style="text-rendering:optimizeLegibility; font-family:'Lucida Bright'; color-interpolation:linearRGB; color-rendering:optimizeQuality; image-rendering:optimizeQuality;">
            <path d="M104.0181 209.4333 L104.0181 213.4333"
                  style="fill:none; clip-path:url(#clipPath1);"/>
        </g>
        <g style="text-rendering:optimizeLegibility; font-family:'Lucida Bright'; color-interpolation:linearRGB; color-rendering:optimizeQuality; image-rendering:optimizeQuality;">
            <path d="M113.4531 230.8906 L103.5469 230.8906 L103.5469 230.1094 L113.4531 230.1094 L113.4531 230.8906 Z"
                  style="stroke:none; clip-path:url(#clipPath6);"/>
        </g>
        <g style="text-rendering:optimizeLegibility; font-family:'Lucida Bright'; color-interpolation:linearRGB; color-rendering:optimizeQuality; image-rendering:optimizeQuality;">
            <path d="M116.2812 224.0625 L116.2812 233.1094 L116.3281 233.8281 Q116.3594 234.2656 116.5859 234.3984 Q116.8125 234.5312 117.5156 234.5312 L118.375 234.5469 L118.375 235 L112.7656 235 L112.7656 234.5469 L113.625 234.5312 Q114.3125 234.5312 114.5391 234.3984 Q114.7656 234.2656 114.7969 233.8281 L114.8438 233.1094 L114.8438 226.375 L114.7969 225.6406 Q114.7969 225.125 114.5 225.125 Q114.2812 225.125 113.4844 225.2656 L112.7656 225.3906 L112.7656 224.9375 L116.2812 224.0625 Z"
                  style="stroke:none; clip-path:url(#clipPath4);"/>
        </g>
        <g transform="translate(6,5)"
           style="text-rendering:optimizeLegibility; font-family:'Lucida Bright'; color-interpolation:linearRGB; color-rendering:optimizeQuality; image-rendering:optimizeQuality;">
            <path d="M191.5409 209.4333 L191.5409 213.4333"
                  style="fill:none; clip-path:url(#clipPath1);"/>
            <path d="M188.5 233.2656 Q186.8281 233.2656 185.7969 231.7109 Q184.7656 230.1562 184.7656 227.6094 Q184.7656 225 185.7969 223.4453 Q186.8281 221.8906 188.5625 221.8906 Q190.2969 221.8906 191.3281 223.4375 Q192.3594 224.9844 192.3594 227.5938 Q192.3594 230.2031 191.3203 231.7344 Q190.2812 233.2656 188.5 233.2656 ZM188.5312 232.8125 Q190.8281 232.9219 190.8281 227.5 Q190.8281 222.3281 188.5625 222.3281 Q186.3125 222.3281 186.3125 227.5781 Q186.3125 232.7188 188.5312 232.8125 Z"
                  style="clip-path:url(#clipPath4); stroke:none;"
                  transform="translate(-6,-5)"/>
        </g>
        <g transform="translate(6,5)"
           style="text-rendering:optimizeLegibility; font-family:'Lucida Bright'; color-interpolation:linearRGB; color-rendering:optimizeQuality; image-rendering:optimizeQuality;">
            <path d="M279.0637 209.4333 L279.0637 213.4333"
                  style="fill:none; clip-path:url(#clipPath1);"/>
            <path d="M286.2812 224.0625 L286.2812 233.1094 L286.3281 233.8281 Q286.3594 234.2656 286.5859 234.3984 Q286.8125 234.5312 287.5156 234.5312 L288.375 234.5469 L288.375 235 L282.7656 235 L282.7656 234.5469 L283.625 234.5312 Q284.3125 234.5312 284.5391 234.3984 Q284.7656 234.2656 284.7969 233.8281 L284.8438 233.1094 L284.8438 226.375 L284.7969 225.6406 Q284.7969 225.125 284.5 225.125 Q284.2812 225.125 283.4844 225.2656 L282.7656 225.3906 L282.7656 224.9375 L286.2812 224.0625 Z"
                  style="clip-path:url(#clipPath4); stroke:none;"
                  transform="translate(-6,-5)"/>
        </g>
        <g transform="translate(6,5)"
           style="text-rendering:optimizeLegibility; font-family:'Lucida Bright'; color-interpolation:linearRGB; color-rendering:optimizeQuality; image-rendering:optimizeQuality;">
            <path d="M366.5865 209.4333 L366.5865 213.4333"
                  style="fill:none; clip-path:url(#clipPath1);"/>
            <path d="M369.1719 235 L369.1719 234.2812 Q369.7969 232.4531 371.125 231.2188 L371.9062 230.5 Q373.25 229.2344 373.6953 228.4922 Q374.1406 227.75 374.1406 226.7969 Q374.1406 225.6875 373.5938 225.0156 Q373.0469 224.3438 372.1562 224.3438 Q371.1562 224.3438 370.4688 224.8906 Q370.2188 225.0938 370.1406 226.3438 L370.1406 226.5156 L369.4062 226.5156 L369.4062 224.5469 Q370.9844 223.875 372.3281 223.875 Q373.7969 223.875 374.7344 224.7031 Q375.6719 225.5312 375.6719 226.7969 Q375.6719 228.5156 373.5469 229.9688 L372.6719 230.5781 Q370.5625 232.0312 370.3594 233.7344 L375.625 233.7344 L375.625 235 L369.1719 235 Z"
                  style="clip-path:url(#clipPath4); stroke:none;"
                  transform="translate(-6,-5)"/>
        </g>
        <g transform="translate(6,5)"
           style="text-rendering:optimizeLegibility; font-family:'Lucida Bright'; color-interpolation:linearRGB; color-rendering:optimizeQuality; image-rendering:optimizeQuality;">
            <path d="M60.2566 209.4333 L60.2566 211.4333"
                  style="fill:none; clip-path:url(#clipPath1);"/>
        </g>
        <g transform="translate(6,5)"
           style="text-rendering:optimizeLegibility; font-family:'Lucida Bright'; color-interpolation:linearRGB; color-rendering:optimizeQuality; image-rendering:optimizeQuality;">
            <path d="M147.7795 209.4333 L147.7795 211.4333"
                  style="fill:none; clip-path:url(#clipPath1);"/>
        </g>
        <g transform="translate(6,5)"
           style="text-rendering:optimizeLegibility; font-family:'Lucida Bright'; color-interpolation:linearRGB; color-rendering:optimizeQuality; image-rendering:optimizeQuality;">
            <path d="M235.3023 209.4333 L235.3023 211.4333"
                  style="fill:none; clip-path:url(#clipPath1);"/>
        </g>
        <g transform="translate(6,5)"
           style="text-rendering:optimizeLegibility; font-family:'Lucida Bright'; color-interpolation:linearRGB; color-rendering:optimizeQuality; image-rendering:optimizeQuality;">
            <path d="M322.8251 209.4333 L322.8251 211.4333"
                  style="fill:none; clip-path:url(#clipPath1);"/>
        </g>
        <g transform="translate(6,5)"
           style="stroke-linecap:butt; text-rendering:optimizeLegibility; color-rendering:optimizeQuality; image-rendering:optimizeQuality; font-family:'Lucida Bright'; stroke-linejoin:round; color-interpolation:linearRGB;">
            <path d="M191.5409 388 L191.5409 1"
                  style="fill:none; clip-path:url(#clipPath1);"/>
        </g>
        <g transform="translate(6,5)"
           style="stroke-linecap:butt; text-rendering:optimizeLegibility; color-rendering:optimizeQuality; image-rendering:optimizeQuality; font-family:'Lucida Bright'; stroke-linejoin:round; color-interpolation:linearRGB;">
            <path d="M131.9688 113.8906 Q133.3125 112.9531 135.3438 111.0781 L135.625 110.8125 Q135.5312 109.1094 135.1875 107.2266 Q134.8438 105.3438 134.4688 104.5 Q134.1406 103.7969 133.9531 103.6719 Q133.7656 103.5469 132.9375 103.5 L132.7656 103.5 L132.8438 103.0469 L135.5156 103.0469 Q136.6562 105.7344 136.8125 109.3594 L137.7188 108.1875 Q139.0469 106.5 139.4922 105.7109 Q139.9375 104.9219 139.9375 104.25 Q139.9375 103.5625 139.3594 103.0469 L141.1719 103.0469 Q141.3281 103.375 141.3281 103.6719 Q141.3281 104.2969 140.9219 104.9766 Q140.5156 105.6562 139.2188 107.2031 L136.4531 110.5312 Q134.7969 112.5156 133.9688 113.8906 L131.9688 113.8906 Z"
                  style="stroke:none; clip-path:url(#clipPath7);"/>
        </g>
        <g transform="translate(6,5)"
           style="text-rendering:optimizeLegibility; font-family:'Lucida Bright'; color-interpolation:linearRGB; color-rendering:optimizeQuality; image-rendering:optimizeQuality;">
            <path d="M191.5409 374.6617 L187.5409 374.6617"
                  style="fill:none; clip-path:url(#clipPath1);"/>
        </g>
        <g style="text-rendering:optimizeLegibility; font-family:'Lucida Bright'; color-interpolation:linearRGB; color-rendering:optimizeQuality; image-rendering:optimizeQuality;">
            <path d="M183.4531 380.8906 L173.5469 380.8906 L173.5469 380.1094 L183.4531 380.1094 L183.4531 380.8906 Z"
                  style="stroke:none; clip-path:url(#clipPath8);"/>
        </g>
        <g style="text-rendering:optimizeLegibility; font-family:'Lucida Bright'; color-interpolation:linearRGB; color-rendering:optimizeQuality; image-rendering:optimizeQuality;">
            <path d="M186.2812 374.0625 L186.2812 383.1094 L186.3281 383.8281 Q186.3594 384.2656 186.5859 384.3984 Q186.8125 384.5312 187.5156 384.5312 L188.375 384.5469 L188.375 385 L182.7656 385 L182.7656 384.5469 L183.625 384.5312 Q184.3125 384.5312 184.5391 384.3984 Q184.7656 384.2656 184.7969 383.8281 L184.8438 383.1094 L184.8438 376.375 L184.7969 375.6406 Q184.7969 375.125 184.5 375.125 Q184.2812 375.125 183.4844 375.2656 L182.7656 375.3906 L182.7656 374.9375 L186.2812 374.0625 Z"
                  style="stroke:none; clip-path:url(#clipPath4);"/>
        </g>
        <g transform="translate(6,5)"
           style="text-rendering:optimizeLegibility; font-family:'Lucida Bright'; color-interpolation:linearRGB; color-rendering:optimizeQuality; image-rendering:optimizeQuality;">
            <path d="M191.5409 292.0475 L187.5409 292.0475"
                  style="fill:none; clip-path:url(#clipPath1);"/>
        </g>
        <g style="text-rendering:optimizeLegibility; font-family:'Lucida Bright'; color-interpolation:linearRGB; color-rendering:optimizeQuality; image-rendering:optimizeQuality;">
            <path d="M169.4531 298.8906 L159.5469 298.8906 L159.5469 298.1094 L169.4531 298.1094 L169.4531 298.8906 Z"
                  style="stroke:none; clip-path:url(#clipPath9);"/>
        </g>
        <g style="text-rendering:optimizeLegibility; font-family:'Lucida Bright'; color-interpolation:linearRGB; color-rendering:optimizeQuality; image-rendering:optimizeQuality;">
            <path d="M171.5 303.2656 Q169.8281 303.2656 168.7969 301.7109 Q167.7656 300.1562 167.7656 297.6094 Q167.7656 295 168.7969 293.4453 Q169.8281 291.8906 171.5625 291.8906 Q173.2969 291.8906 174.3281 293.4375 Q175.3594 294.9844 175.3594 297.5938 Q175.3594 300.2031 174.3203 301.7344 Q173.2812 303.2656 171.5 303.2656 ZM171.5312 302.8125 Q173.8281 302.9219 173.8281 297.5 Q173.8281 292.3281 171.5625 292.3281 Q169.3125 292.3281 169.3125 297.5781 Q169.3125 302.7188 171.5312 302.8125 ZM177.2041 303 L177.2041 301.1875 L179.0166 301.1875 L179.0166 303 L177.2041 303 ZM181.8218 303.0156 L181.8218 301.1875 L182.5405 301.1875 L182.5562 301.3594 L182.5718 301.9219 Q182.6187 302.8125 183.978 302.8125 Q184.9937 302.8125 185.5874 302.0234 Q186.1812 301.2344 186.1812 299.875 Q186.1812 298.3281 185.2593 297.6641 Q184.3374 297 182.2593 297 L181.9937 297 L181.9937 292.1562 L187.4624 292.1562 L187.4624 293.4219 L182.4468 293.4219 L182.4468 296.4531 L183.1187 296.4531 Q187.6968 296.4531 187.6968 299.9375 Q187.6968 301.5 186.6421 302.3828 Q185.5874 303.2656 183.728 303.2656 Q182.8062 303.2656 181.8218 303.0156 Z"
                  style="stroke:none; clip-path:url(#clipPath4);"/>
        </g>
        <g transform="translate(6,5)"
           style="text-rendering:optimizeLegibility; font-family:'Lucida Bright'; color-interpolation:linearRGB; color-rendering:optimizeQuality; image-rendering:optimizeQuality;">
            <path d="M191.5409 209.4333 L187.5409 209.4333"
                  style="fill:none; clip-path:url(#clipPath1);"/>
        </g>
        <g transform="translate(6,5)"
           style="text-rendering:optimizeLegibility; font-family:'Lucida Bright'; color-interpolation:linearRGB; color-rendering:optimizeQuality; image-rendering:optimizeQuality;">
            <path d="M191.5409 126.8192 L187.5409 126.8192"
                  style="fill:none; clip-path:url(#clipPath1);"/>
            <path d="M171.5 137.2656 Q169.8281 137.2656 168.7969 135.7109 Q167.7656 134.1562 167.7656 131.6094 Q167.7656 129 168.7969 127.4453 Q169.8281 125.8906 171.5625 125.8906 Q173.2969 125.8906 174.3281 127.4375 Q175.3594 128.9844 175.3594 131.5938 Q175.3594 134.2031 174.3203 135.7344 Q173.2812 137.2656 171.5 137.2656 ZM171.5312 136.8125 Q173.8281 136.9219 173.8281 131.5 Q173.8281 126.3281 171.5625 126.3281 Q169.3125 126.3281 169.3125 131.5781 Q169.3125 136.7188 171.5312 136.8125 ZM177.2041 137 L177.2041 135.1875 L179.0166 135.1875 L179.0166 137 L177.2041 137 ZM181.8218 137.0156 L181.8218 135.1875 L182.5405 135.1875 L182.5562 135.3594 L182.5718 135.9219 Q182.6187 136.8125 183.978 136.8125 Q184.9937 136.8125 185.5874 136.0234 Q186.1812 135.2344 186.1812 133.875 Q186.1812 132.3281 185.2593 131.6641 Q184.3374 131 182.2593 131 L181.9937 131 L181.9937 126.1562 L187.4624 126.1562 L187.4624 127.4219 L182.4468 127.4219 L182.4468 130.4531 L183.1187 130.4531 Q187.6968 130.4531 187.6968 133.9375 Q187.6968 135.5 186.6421 136.3828 Q185.5874 137.2656 183.728 137.2656 Q182.8062 137.2656 181.8218 137.0156 Z"
                  style="clip-path:url(#clipPath4); stroke:none;"
                  transform="translate(-6,-5)"/>
        </g>
        <g transform="translate(6,5)"
           style="text-rendering:optimizeLegibility; font-family:'Lucida Bright'; color-interpolation:linearRGB; color-rendering:optimizeQuality; image-rendering:optimizeQuality;">
            <path d="M191.5409 44.205 L187.5409 44.205"
                  style="fill:none; clip-path:url(#clipPath1);"/>
            <path d="M186.2812 44.0625 L186.2812 53.1094 L186.3281 53.8281 Q186.3594 54.2656 186.5859 54.3984 Q186.8125 54.5312 187.5156 54.5312 L188.375 54.5469 L188.375 55 L182.7656 55 L182.7656 54.5469 L183.625 54.5312 Q184.3125 54.5312 184.5391 54.3984 Q184.7656 54.2656 184.7969 53.8281 L184.8438 53.1094 L184.8438 46.375 L184.7969 45.6406 Q184.7969 45.125 184.5 45.125 Q184.2812 45.125 183.4844 45.2656 L182.7656 45.3906 L182.7656 44.9375 L186.2812 44.0625 Z"
                  style="clip-path:url(#clipPath4); stroke:none;"
                  transform="translate(-6,-5)"/>
        </g>
        <g transform="translate(6,5)"
           style="text-rendering:optimizeLegibility; font-family:'Lucida Bright'; color-interpolation:linearRGB; color-rendering:optimizeQuality; image-rendering:optimizeQuality;">
            <path d="M191.5409 358.1389 L189.5409 358.1389"
                  style="fill:none; clip-path:url(#clipPath1);"/>
        </g>
        <g transform="translate(6,5)"
           style="text-rendering:optimizeLegibility; font-family:'Lucida Bright'; color-interpolation:linearRGB; color-rendering:optimizeQuality; image-rendering:optimizeQuality;">
            <path d="M191.5409 341.6161 L189.5409 341.6161"
                  style="fill:none; clip-path:url(#clipPath1);"/>
        </g>
        <g transform="translate(6,5)"
           style="text-rendering:optimizeLegibility; font-family:'Lucida Bright'; color-interpolation:linearRGB; color-rendering:optimizeQuality; image-rendering:optimizeQuality;">
            <path d="M191.5409 325.0932 L189.5409 325.0932"
                  style="fill:none; clip-path:url(#clipPath1);"/>
        </g>
        <g transform="translate(6,5)"
           style="text-rendering:optimizeLegibility; font-family:'Lucida Bright'; color-interpolation:linearRGB; color-rendering:optimizeQuality; image-rendering:optimizeQuality;">
            <path d="M191.5409 308.5704 L189.5409 308.5704"
                  style="fill:none; clip-path:url(#clipPath1);"/>
        </g>
        <g transform="translate(6,5)"
           style="text-rendering:optimizeLegibility; font-family:'Lucida Bright'; color-interpolation:linearRGB; color-rendering:optimizeQuality; image-rendering:optimizeQuality;">
            <path d="M191.5409 275.5247 L189.5409 275.5247"
                  style="fill:none; clip-path:url(#clipPath1);"/>
        </g>
        <g transform="translate(6,5)"
           style="text-rendering:optimizeLegibility; font-family:'Lucida Bright'; color-interpolation:linearRGB; color-rendering:optimizeQuality; image-rendering:optimizeQuality;">
            <path d="M191.5409 259.0018 L189.5409 259.0018"
                  style="fill:none; clip-path:url(#clipPath1);"/>
        </g>
        <g transform="translate(6,5)"
           style="text-rendering:optimizeLegibility; font-family:'Lucida Bright'; color-interpolation:linearRGB; color-rendering:optimizeQuality; image-rendering:optimizeQuality;">
            <path d="M191.5409 242.479 L189.5409 242.479"
                  style="fill:none; clip-path:url(#clipPath1);"/>
        </g>
        <g transform="translate(6,5)"
           style="text-rendering:optimizeLegibility; font-family:'Lucida Bright'; color-interpolation:linearRGB; color-rendering:optimizeQuality; image-rendering:optimizeQuality;">
            <path d="M191.5409 225.9562 L189.5409 225.9562"
                  style="fill:none; clip-path:url(#clipPath1);"/>
        </g>
        <g transform="translate(6,5)"
           style="text-rendering:optimizeLegibility; font-family:'Lucida Bright'; color-interpolation:linearRGB; color-rendering:optimizeQuality; image-rendering:optimizeQuality;">
            <path d="M191.5409 192.9105 L189.5409 192.9105"
                  style="fill:none; clip-path:url(#clipPath1);"/>
        </g>
        <g transform="translate(6,5)"
           style="text-rendering:optimizeLegibility; font-family:'Lucida Bright'; color-interpolation:linearRGB; color-rendering:optimizeQuality; image-rendering:optimizeQuality;">
            <path d="M191.5409 176.3876 L189.5409 176.3876"
                  style="fill:none; clip-path:url(#clipPath1);"/>
        </g>
        <g transform="translate(6,5)"
           style="text-rendering:optimizeLegibility; font-family:'Lucida Bright'; color-interpolation:linearRGB; color-rendering:optimizeQuality; image-rendering:optimizeQuality;">
            <path d="M191.5409 159.8648 L189.5409 159.8648"
                  style="fill:none; clip-path:url(#clipPath1);"/>
        </g>
        <g transform="translate(6,5)"
           style="text-rendering:optimizeLegibility; font-family:'Lucida Bright'; color-interpolation:linearRGB; color-rendering:optimizeQuality; image-rendering:optimizeQuality;">
            <path d="M191.5409 143.342 L189.5409 143.342"
                  style="fill:none; clip-path:url(#clipPath1);"/>
        </g>
        <g transform="translate(6,5)"
           style="text-rendering:optimizeLegibility; font-family:'Lucida Bright'; color-interpolation:linearRGB; color-rendering:optimizeQuality; image-rendering:optimizeQuality;">
            <path d="M191.5409 110.2963 L189.5409 110.2963"
                  style="fill:none; clip-path:url(#clipPath1);"/>
        </g>
        <g transform="translate(6,5)"
           style="text-rendering:optimizeLegibility; font-family:'Lucida Bright'; color-interpolation:linearRGB; color-rendering:optimizeQuality; image-rendering:optimizeQuality;">
            <path d="M191.5409 93.7735 L189.5409 93.7735"
                  style="fill:none; clip-path:url(#clipPath1);"/>
        </g>
        <g transform="translate(6,5)"
           style="text-rendering:optimizeLegibility; font-family:'Lucida Bright'; color-interpolation:linearRGB; color-rendering:optimizeQuality; image-rendering:optimizeQuality;">
            <path d="M191.5409 77.2506 L189.5409 77.2506"
                  style="fill:none; clip-path:url(#clipPath1);"/>
        </g>
        <g transform="translate(6,5)"
           style="text-rendering:optimizeLegibility; font-family:'Lucida Bright'; color-interpolation:linearRGB; color-rendering:optimizeQuality; image-rendering:optimizeQuality;">
            <path d="M191.5409 60.7278 L189.5409 60.7278"
                  style="fill:none; clip-path:url(#clipPath1);"/>
        </g>
        <g transform="translate(6,5)"
           style="text-rendering:optimizeLegibility; font-family:'Lucida Bright'; color-interpolation:linearRGB; color-rendering:optimizeQuality; image-rendering:optimizeQuality;">
            <path d="M191.5409 27.6821 L189.5409 27.6821"
                  style="fill:none; clip-path:url(#clipPath1);"/>
        </g>
        <g transform="translate(6,5)"
           style="text-rendering:optimizeLegibility; font-family:'Lucida Bright'; color-interpolation:linearRGB; color-rendering:optimizeQuality; image-rendering:optimizeQuality;">
            <path d="M191.5409 11.1593 L189.5409 11.1593"
                  style="fill:none; clip-path:url(#clipPath1);"/>
        </g>
    </g>
</svg>
