<?xml version="1.0" encoding="UTF-8"?>
<!DOCTYPE svg PUBLIC '-//W3C//DTD SVG 1.0//EN'
    'http://www.w3.org/TR/2001/REC-SVG-20010904/DTD/svg10.dtd' >

<svg style="stroke-dasharray:none; shape-rendering:auto; font-family:'Dialog'; text-rendering:auto; fill-opacity:1; color-interpolation:auto; color-rendering:auto; font-size:12px; fill:black; stroke:black; image-rendering:auto; stroke-miterlimit:10; stroke-linecap:square; stroke-linejoin:miter; font-style:normal; stroke-width:1; stroke-dashoffset:0; font-weight:normal; stroke-opacity:1;"
     xmlns="http://www.w3.org/2000/svg" contentScriptType="text/ecmascript"
     preserveAspectRatio="xMidYMid meet"
     xmlns:xlink="http://www.w3.org/1999/xlink" zoomAndPan="magnify"
     version="1.0" contentStyleType="text/css">
    <!--Generated by the Batik Graphics2D SVG Generator-->
    <defs id="genericDefs"/>
    <g>
        <defs id="defs1">
            <clipPath clipPathUnits="userSpaceOnUse" id="clipPath1">
                <path d="M0 0 L390 0 L390 390 L0 390 L0 0 Z"/>
            </clipPath>
            <clipPath clipPathUnits="userSpaceOnUse" id="clipPath2">
                <path d="M1 0 L1 389 L390 389 L390 0 Z"/>
            </clipPath>
            <clipPath clipPathUnits="userSpaceOnUse" id="clipPath3">
                <path d="M282 220 L282 238 L301 238 L301 220 Z"/>
            </clipPath>
            <clipPath clipPathUnits="userSpaceOnUse" id="clipPath4">
                <path d="M6 5 L396 5 L396 395 L6 395 L6 5 Z"/>
            </clipPath>
            <clipPath clipPathUnits="userSpaceOnUse" id="clipPath5">
                <path d="M53 209 L53 225 L61 225 L61 209 Z"/>
            </clipPath>
            <clipPath clipPathUnits="userSpaceOnUse" id="clipPath6">
                <path d="M122 209 L122 225 L130 225 L130 209 Z"/>
            </clipPath>
            <clipPath clipPathUnits="userSpaceOnUse" id="clipPath7">
                <path d="M129 89 L129 107 L149 107 L149 89 Z"/>
            </clipPath>
            <clipPath clipPathUnits="userSpaceOnUse" id="clipPath8">
                <path d="M174 331 L174 347 L182 347 L182 331 Z"/>
            </clipPath>
            <clipPath clipPathUnits="userSpaceOnUse" id="clipPath9">
                <path d="M160 263 L160 279 L168 279 L168 263 Z"/>
            </clipPath>
        </defs>
        <g transform="translate(6,5)"
           style="stroke-linecap:butt; fill:rgb(165,165,165); text-rendering:optimizeLegibility; image-rendering:optimizeQuality; color-rendering:optimizeQuality; font-family:'Lucida Bright'; stroke-linejoin:round; stroke:rgb(165,165,165); color-interpolation:linearRGB;">
            <path d="M56.2186 388 L56.2186 1"
                  style="fill:none; clip-path:url(#clipPath1);"/>
            <path d="M125.5959 388 L125.5959 1"
                  style="fill:none; clip-path:url(#clipPath1);"/>
            <path d="M194.9732 388 L194.9732 1"
                  style="fill:none; clip-path:url(#clipPath1);"/>
            <path d="M264.3505 388 L264.3505 1"
                  style="fill:none; clip-path:url(#clipPath1);"/>
            <path d="M333.7278 388 L333.7278 1"
                  style="fill:none; clip-path:url(#clipPath1);"/>
            <path d="M21.5299 388 L21.5299 1"
                  style="fill:none; clip-path:url(#clipPath1); stroke:rgb(233,233,233);"/>
            <path d="M90.9072 388 L90.9072 1"
                  style="fill:none; clip-path:url(#clipPath1); stroke:rgb(233,233,233);"/>
            <path d="M160.2845 388 L160.2845 1"
                  style="fill:none; clip-path:url(#clipPath1); stroke:rgb(233,233,233);"/>
            <path d="M229.6618 388 L229.6618 1"
                  style="fill:none; clip-path:url(#clipPath1); stroke:rgb(233,233,233);"/>
            <path d="M299.0391 388 L299.0391 1"
                  style="fill:none; clip-path:url(#clipPath1); stroke:rgb(233,233,233);"/>
            <path d="M368.4164 388 L368.4164 1"
                  style="fill:none; clip-path:url(#clipPath1); stroke:rgb(233,233,233);"/>
        </g>
        <g transform="translate(6,5)"
           style="stroke-linecap:butt; fill:rgb(165,165,165); text-rendering:optimizeLegibility; image-rendering:optimizeQuality; color-rendering:optimizeQuality; font-family:'Lucida Bright'; stroke-linejoin:round; stroke:rgb(165,165,165); color-interpolation:linearRGB;">
            <path d="M2 333.5218 L389 333.5218"
                  style="fill:none; clip-path:url(#clipPath1);"/>
            <path d="M2 265.0779 L389 265.0779"
                  style="fill:none; clip-path:url(#clipPath1);"/>
            <path d="M2 196.634 L389 196.634"
                  style="fill:none; clip-path:url(#clipPath1);"/>
            <path d="M2 128.1901 L389 128.1901"
                  style="fill:none; clip-path:url(#clipPath1);"/>
            <path d="M2 59.7462 L389 59.7462"
                  style="fill:none; clip-path:url(#clipPath1);"/>
            <path d="M2 374.5881 L389 374.5881"
                  style="fill:none; clip-path:url(#clipPath1); stroke:rgb(233,233,233);"/>
            <path d="M2 360.8993 L389 360.8993"
                  style="fill:none; clip-path:url(#clipPath1); stroke:rgb(233,233,233);"/>
            <path d="M2 347.2105 L389 347.2105"
                  style="fill:none; clip-path:url(#clipPath1); stroke:rgb(233,233,233);"/>
            <path d="M2 319.833 L389 319.833"
                  style="fill:none; clip-path:url(#clipPath1); stroke:rgb(233,233,233);"/>
            <path d="M2 306.1442 L389 306.1442"
                  style="fill:none; clip-path:url(#clipPath1); stroke:rgb(233,233,233);"/>
            <path d="M2 292.4554 L389 292.4554"
                  style="fill:none; clip-path:url(#clipPath1); stroke:rgb(233,233,233);"/>
            <path d="M2 278.7667 L389 278.7667"
                  style="fill:none; clip-path:url(#clipPath1); stroke:rgb(233,233,233);"/>
            <path d="M2 251.3891 L389 251.3891"
                  style="fill:none; clip-path:url(#clipPath1); stroke:rgb(233,233,233);"/>
            <path d="M2 237.7003 L389 237.7003"
                  style="fill:none; clip-path:url(#clipPath1); stroke:rgb(233,233,233);"/>
            <path d="M2 224.0115 L389 224.0115"
                  style="fill:none; clip-path:url(#clipPath1); stroke:rgb(233,233,233);"/>
            <path d="M2 210.3228 L389 210.3228"
                  style="fill:none; clip-path:url(#clipPath1); stroke:rgb(233,233,233);"/>
            <path d="M2 182.9452 L389 182.9452"
                  style="fill:none; clip-path:url(#clipPath1); stroke:rgb(233,233,233);"/>
            <path d="M2 169.2564 L389 169.2564"
                  style="fill:none; clip-path:url(#clipPath1); stroke:rgb(233,233,233);"/>
            <path d="M2 155.5676 L389 155.5676"
                  style="fill:none; clip-path:url(#clipPath1); stroke:rgb(233,233,233);"/>
            <path d="M2 141.8788 L389 141.8788"
                  style="fill:none; clip-path:url(#clipPath1); stroke:rgb(233,233,233);"/>
            <path d="M2 114.5013 L389 114.5013"
                  style="fill:none; clip-path:url(#clipPath1); stroke:rgb(233,233,233);"/>
            <path d="M2 100.8125 L389 100.8125"
                  style="fill:none; clip-path:url(#clipPath1); stroke:rgb(233,233,233);"/>
            <path d="M2 87.1237 L389 87.1237"
                  style="fill:none; clip-path:url(#clipPath1); stroke:rgb(233,233,233);"/>
            <path d="M2 73.435 L389 73.435"
                  style="fill:none; clip-path:url(#clipPath1); stroke:rgb(233,233,233);"/>
            <path d="M2 46.0574 L389 46.0574"
                  style="fill:none; clip-path:url(#clipPath1); stroke:rgb(233,233,233);"/>
            <path d="M2 32.3686 L389 32.3686"
                  style="fill:none; clip-path:url(#clipPath1); stroke:rgb(233,233,233);"/>
            <path d="M2 18.6798 L389 18.6798"
                  style="fill:none; clip-path:url(#clipPath1); stroke:rgb(233,233,233);"/>
            <path d="M2 4.9911 L389 4.9911"
                  style="fill:none; clip-path:url(#clipPath1); stroke:rgb(233,233,233);"/>
        </g>
        <g transform="translate(6,5)"
           style="stroke-linecap:butt; fill:blue; text-rendering:optimizeLegibility; image-rendering:optimizeQuality; color-rendering:optimizeQuality; font-family:'Lucida Bright'; stroke-linejoin:round; stroke:blue; color-interpolation:linearRGB; stroke-width:1.5;">
            <path d="M2.4129 8.2923 L2.4772 8.7219 L2.5552 9.0027 L3.3519 11.4651 L3.8032 12.5239 L4.4585 14.2083 L5.1936 15.7309 L5.7355 16.9516 L6.5839 18.5518 L7.1447 19.6948 L7.9742 21.1487 L8.6588 22.4381 L9.3645 23.604 L10.2573 25.1813 L10.7549 25.9642 L11.9248 27.9246 L12.1452 28.2574 L13.0431 29.6962 L13.5355 30.4657 L13.6569 30.6678 L14.9258 32.5721 L15.4527 33.411 L16.3162 34.663 L17.2887 36.1543 L17.7065 36.7423 L18.909 38.527 L19.0968 38.7976 L19.1623 38.8975 L20.4872 40.7515 L21.0896 41.6408 L21.8775 42.7155 L23.0404 44.384 L23.2678 44.6873 L23.7966 45.4273 L24.6581 46.5963 L25.0301 47.1273 L26.0485 48.4785 L27.048 49.8705 L27.4388 50.379 L28.2714 51.5134 L28.8291 52.2497 L29.0918 52.6137 L30.2194 54.0738 L31.1657 55.357 L31.6098 55.9221 L32.4885 57.0907 L33.0001 57.75 L33.2596 58.1002 L34.3904 59.5327 L35.3803 60.8435 L35.7807 61.3429 L36.5243 62.3106 L37.1711 63.1261 L37.5205 63.5867 L38.5614 64.8794 L39.6807 66.33 L39.9517 66.6619 L40.428 67.2697 L41.342 68.3998 L41.8638 69.0732 L42.7324 70.1327 L44.0572 71.8164 L44.1227 71.8953 L44.2323 72.0327 L45.513 73.5884 L46.2804 74.5597 L46.9034 75.3073 L47.9352 76.5955 L48.2937 77.0292 L48.5108 77.3029 L49.684 78.7052 L50.7623 80.0462 L51.0743 80.4152 L51.5698 81.0237 L52.4647 82.0891 L53.03 82.7894 L53.855 83.7611 L55.1517 85.3478 L55.2453 85.4589 L55.3051 85.5327 L56.6356 87.0938 L57.6053 88.2759 L58.026 88.7647 L58.663 89.5327 L59.4163 90.4132 L59.9152 91.0191 L60.8066 92.0511 L62.1438 93.6576 L62.197 93.7194 L62.2325 93.7624 L63.5873 95.325 L64.5736 96.5056 L64.9776 96.9676 L65.5639 97.6625 L66.3679 98.5864 L66.9234 99.2489 L67.7583 100.2001 L68.9593 101.6185 L69.1486 101.8353 L69.2806 101.9921 L70.5389 103.4207 L71.6559 104.7354 L71.9292 105.0433 L72.311 105.4887 L73.3196 106.6295 L74.0435 107.4786 L74.7099 108.2267 L75.6329 109.2999 L76.1002 109.8265 L76.4385 110.2218 L77.4905 111.399 L78.8423 112.9651 L78.8809 113.008 L78.933 113.0678 L80.2712 114.5599 L81.2658 115.7083 L81.6615 116.1466 L82.1912 116.7535 L83.0518 117.7097 L83.6966 118.4516 L84.4422 119.2746 L85.4323 120.4052 L85.8325 120.8482 L86.1347 121.1948 L87.2228 122.3918 L88.5814 123.938 L88.6132 123.9727 L88.6543 124.0193 L90.0035 125.4984 L91.0463 126.6813 L91.3938 127.0601 L91.8412 127.5641 L92.7841 128.5943 L93.5185 129.4245 L94.1745 130.1372 L95.0127 131.0784 L95.5648 131.6796 L95.998 132.1678 L96.9551 133.2041 L98.169 134.5628 L98.3455 134.7543 L98.485 134.911 L99.7358 136.2609 L100.9846 137.6543 L101.1261 137.8062 L101.3019 138.0011 L102.5164 139.3076 L103.4965 140.3975 L103.9068 140.8367 L104.4129 141.3961 L105.2971 142.3441 L106.0157 143.1407 L106.6874 143.8574 L107.5101 144.764 L108.0777 145.3706 L108.5424 145.884 L109.4681 146.8685 L110.5938 148.1051 L110.8584 148.3869 L111.0765 148.6272 L112.2487 149.8699 L113.619 151.3705 L113.639 151.3916 L113.663 151.4177 L115.0294 152.8616 L116.1763 154.1137 L116.4197 154.3698 L116.7084 154.6833 L117.81 155.8437 L118.7411 156.8569 L119.2003 157.3387 L119.7414 157.9245 L120.5907 158.8162 L121.3134 159.6002 L121.981 160.2984 L122.7622 161.1416 L123.3713 161.7791 L123.8932 162.3434 L124.7617 163.2488 L125.771 164.3349 L126.152 164.7324 L126.4806 165.0867 L127.5423 166.19 L128.7679 167.5048 L128.9326 167.6761 L129.0757 167.8299 L130.323 169.122 L131.6797 170.5732 L131.7133 170.6078 L131.7514 170.6484 L133.1036 172.0448 L134.2961 173.3164 L134.494 173.52 L134.7173 173.7572 L135.8843 174.9585 L136.9201 176.0596 L137.2746 176.4234 L137.6723 176.8444 L138.6649 177.863 L139.5518 178.8029 L140.0553 179.318 L140.6165 179.9103 L141.4456 180.7584 L142.1911 181.5461 L142.8359 182.2038 L143.55 182.9552 L144.2262 183.6447 L144.8383 184.2894 L145.6166 185.0807 L146.473 185.9792 L147.0069 186.522 L147.4932 187.0326 L148.3972 187.949 L149.3856 188.9828 L149.7875 189.3901 L150.1561 189.7758 L151.1779 190.8085 L152.2879 191.966 L152.5682 192.2492 L152.8269 192.5191 L153.9585 193.6592 L155.18 194.9292 L155.3488 195.0992 L155.5056 195.2624 L156.7392 196.5013 L158.0621 197.8726 L158.1295 197.9403 L158.1925 198.0056 L159.5198 199.3346 L160.8882 200.7488 L160.9102 200.7707 L160.9334 200.7947 L162.3005 202.1593 L163.594 203.4921 L163.6908 203.5885 L163.7927 203.6932 L165.0811 204.9753 L166.3077 206.2353 L166.4715 206.3979 L166.6428 206.5734 L167.8618 207.7826 L169.0295 208.9786 L169.2521 209.1989 L169.4836 209.4353 L170.6424 210.5813 L171.7594 211.7218 L172.0328 211.9917 L172.3154 212.2794 L173.4231 213.3714 L174.4974 214.4651 L174.8134 214.776 L175.1381 215.1056 L176.2038 216.1529 L177.2436 217.2083 L177.5941 217.5521 L177.9519 217.9143 L178.9844 218.9259 L179.9981 219.9515 L180.3747 220.3199 L180.7569 220.7056 L181.7651 221.6902 L182.7609 222.6948 L183.1554 223.0794 L183.5532 223.4798 L184.5457 224.446 L185.5321 225.438 L185.936 225.8307 L186.3409 226.2369 L187.3264 227.1933 L188.3118 228.1813 L188.7167 228.5737 L189.1201 228.9772 L190.107 229.932 L191.1 230.9245 L191.4973 231.3085 L191.8908 231.7009 L192.8877 232.6623 L193.8967 233.6677 L194.278 234.035 L194.6533 234.4082 L195.6683 235.384 L196.7021 236.411 L197.0587 236.7534 L197.4074 237.0992 L198.449 238.0973 L199.5162 239.1542 L199.8393 239.4635 L200.1534 239.7741 L201.2296 240.8021 L202.3391 241.8975 L202.6199 242.1656 L202.8914 242.433 L204.0103 243.4985 L205.1708 244.6407 L205.4006 244.8594 L205.6214 245.0763 L206.7909 246.1865 L208.0114 247.384 L208.1813 247.5451 L208.3434 247.7039 L209.5716 248.866 L210.861 250.1272 L210.9619 250.2226 L211.0577 250.3162 L212.3522 251.5372 L213.7196 252.8704 L213.7426 252.8921 L213.7642 252.9132 L215.1329 254.2 L216.461 255.4909 L216.5232 255.5492 L216.5897 255.6137 L217.9136 256.8544 L219.1492 258.0517 L219.3039 258.1962 L219.4701 258.3569 L220.6942 259.5004 L221.8296 260.5972 L222.0845 260.8345 L222.3601 261.1002 L223.4749 262.1382 L224.5024 263.1277 L224.8652 263.4643 L225.2598 263.8434 L226.2555 264.7676 L227.1677 265.6432 L227.6458 266.0854 L228.1692 266.5867 L229.0362 267.3887 L229.8254 268.144 L230.4265 268.698 L231.0885 269.3299 L231.8168 270.0016 L232.4758 270.6301 L233.2071 271.302 L234.0176 272.0731 L234.5975 272.6061 L235.1188 273.1019 L235.9878 273.8975 L236.9568 274.8164 L237.3781 275.2024 L237.7547 275.5593 L238.7684 276.4844 L239.906 277.5596 L240.1588 277.7905 L240.3833 278.0026 L241.5491 279.0628 L242.8653 280.3029 L242.9394 280.3703 L243.0048 280.4319 L244.3298 281.6327 L245.6158 282.8404 L245.7201 282.9344 L245.8394 283.0461 L247.1104 284.1942 L248.2173 285.2302 L248.5007 285.4849 L248.8271 285.7894 L249.8911 286.7471 L250.8118 287.606 L251.2814 288.0267 L251.8256 288.5326 L252.6717 289.2917 L253.3992 289.9681 L254.0621 290.5597 L254.835 291.2758 L255.4524 291.8278 L255.9798 292.3165 L256.8427 293.084 L257.8555 294.0191 L258.233 294.3554 L258.5535 294.6514 L259.6234 295.5996 L260.8871 296.7623 L261.0137 296.8747 L261.1205 296.973 L262.404 298.1065 L263.6767 299.2734 L263.7943 299.3767 L263.9355 299.5056 L265.1847 300.6048 L266.2222 301.5528 L266.575 301.8613 L267.0009 302.2488 L267.9653 303.0944 L268.7611 303.8189 L269.3556 304.337 L270.0783 304.9921 L270.746 305.5753 L271.2933 306.0719 L272.1363 306.8038 L273.1678 307.7353 L273.5266 308.0477 L273.8189 308.3119 L274.917 309.2617 L276.2693 310.4785 L276.3073 310.5114 L276.338 310.5391 L277.6976 311.7106 L278.842 312.7366 L279.0879 312.947 L279.3961 313.2218 L280.4783 314.1507 L281.3385 314.9191 L281.8686 315.3708 L282.5375 315.965 L283.2589 316.5819 L283.8285 317.0888 L284.6492 317.7855 L285.692 318.7083 L286.0396 319.0043 L286.3121 319.2459 L287.4299 320.1909 L288.7882 321.3884 L288.8202 321.4152 L288.8617 321.4515 L290.2105 322.5873 L291.2479 323.4982 L291.6009 323.793 L292.0614 324.1948 L292.9912 324.9745 L293.7012 325.5956 L294.3815 326.1613 L295.2754 326.938 L295.7719 327.3527 L296.1483 327.6807 L297.1622 328.5202 L298.5038 329.6812 L298.5525 329.7218 L298.5892 329.7536 L299.9428 330.8697 L301.0124 331.7915 L301.3332 332.0534 L301.767 332.4245 L302.7235 333.2097 L303.428 333.8145 L304.1138 334.3719 L305.0482 335.1677 L305.5042 335.5405 L305.8375 335.8255 L306.8945 336.6807 L308.2393 337.8213 L308.2848 337.8576 L308.3482 337.9109 L309.6751 338.9798 L310.6222 339.7796 L311.0655 340.1325 L311.6888 340.6542 L312.4558 341.2693 L312.999 341.726 L313.8461 342.3974 L315.0465 343.3974 L315.2364 343.549 L315.3699 343.6608 L316.6267 344.6522 L317.7238 345.562 L318.0171 345.7903 L318.444 346.1407 L319.4074 346.8971 L320.0665 347.4412 L320.7977 348.0075 L321.8707 348.8839 L322.188 349.1319 L322.4034 349.3089 L323.5784 350.2144 L324.7251 351.1465 L324.9687 351.3314 L325.337 351.6272 L326.359 352.4109 L327.0323 352.9555 L327.7494 353.4968 L328.8426 354.3704 L329.1397 354.597 L329.3337 354.7533 L330.53 355.6515 L331.6174 356.516 L331.9203 356.7394 L332.3978 357.1136 L333.3107 357.7954 L333.8874 358.2516 L334.701 358.8483 L335.9947 359.8569 L336.0913 359.9287 L336.1519 359.9763 L337.4817 360.946 L338.391 361.6512 L338.872 361.9947 L339.6658 362.6001 L340.2623 363.0326 L340.6221 363.3101 L341.6526 364.0416 L342.8392 364.9414 L343.0429 365.0826 L343.3934 365.3434 L344.4333 366.0769 L345.0349 366.5305 L345.8236 367.0734 L347.1938 368.0866 L347.214 368.1007 L347.2255 368.1093 L348.6043 369.0522 L349.384 369.6251 L349.9946 370.0309 L351.1067 370.8299 L351.3849 371.0188 L351.537 371.1299 L352.7752 371.9468 L353.662 372.5796 L354.1656 372.9008 L355.133 373.5731 L355.5559 373.8501 L355.775 374.0053 L356.9462 374.7465 L357.8607 375.3773 L358.3365 375.6667 L359.3083 376.3163 L359.7269 376.5791 L359.9308 376.7188 L361.1172 377.4336 L361.9701 377.9993 L362.5075 378.3077 L363.6849 379.0596 L363.8979 379.1868 L363.9945 379.2504 L365.2882 379.9855 L365.979 380.4227 L366.6785 380.7969 L367.9479 381.5642 L368.0688 381.6242 L368.3814 381.8028 L369.4592 382.373 L369.8739 382.6211 L370.8495 383.0993 L371.7702 383.6194 L372.2398 383.8282 L373.605 384.5461 L373.6302 384.5582 L373.6387 384.563 L375.0205 385.1679 L375.4481 385.3897 L376.4108 385.7587 L377.2185 386.1397 L377.8011 386.3247 L378.9428 386.7986 L379.1914 386.8575 L380.4412 387.2893 L380.5818 387.3328 L380.6096 387.3441 L381.9721 387.6546 L382.1953 387.7297 L383.3624 387.8759 L383.7025 387.9602 L384.7528 387.9521 L385.1129 388 L386.1431 387.8073 L386.4027 387.8017 L387.5334 387.3021 L387.5392 387.3007 L387.5528 387.2893 L388.4208 386.2969 L388.9237 384.8157 L388.9855 384.6679 L389 384.5461 L388.9237 382.93 L388.8777 381.8028 L388.8513 381.6598 L388.1877 379.0596 L387.5334 377.281 L387.2123 376.3163 L386.1431 373.8572 L386.0303 373.5731 L384.7528 370.9666 L384.6911 370.8299 L383.3624 368.3538 L383.2296 368.0866 L381.9721 365.9042 L381.6712 365.3434 L380.5818 363.5584 L380.0346 362.6001 L379.1914 361.283 L378.3339 359.8569 L377.8011 359.0573 L376.5801 357.1136 L376.4108 356.868 L375.8521 356.0114 L375.0205 354.7711 L374.7672 354.3704 L373.6302 352.7309 L372.9062 351.6272 L372.2398 350.6939 L371.0139 348.8839 L370.8495 348.6595 L370.432 348.0602 L369.4592 346.7054 L369.0746 346.1407 L368.0688 344.7748 L367.1044 343.3974 L366.6785 342.8317 L365.7024 341.4714 L365.2882 340.9119 L365.1068 340.6542 L363.8979 339.0564 L363.0719 337.9109 L362.5075 337.1794 L361.3197 335.5672 L361.1172 335.301 L361.0207 335.1677 L359.7269 333.4986 L358.9318 332.4245 L358.3365 331.6696 L357.1711 330.125 L356.9462 329.8362 L356.831 329.6812 L355.5559 328.0715 L354.6969 326.938 L354.1656 326.2773 L353.188 325.0092 L352.7752 324.4904 L352.5501 324.1948 L351.3849 322.7521 L350.3781 321.4515 L349.9946 320.983 L349.3261 320.1326 L348.6043 319.2427 L348.1888 318.7083 L347.214 317.5225 L345.9848 315.965 L345.8236 315.7713 L345.5557 315.4365 L344.4333 314.0768 L343.7558 313.2218 L343.0429 312.3685 L341.871 310.9094 L341.6526 310.646 L341.5194 310.4785 L340.2623 308.9798 L339.2588 307.7353 L338.872 307.279 L338.2619 306.5315 L337.4817 305.605 L336.9855 304.9921 L336.0913 303.9415 L334.7046 302.2488 L334.701 302.2446 L334.6955 302.238 L333.3107 300.6171 L332.3966 299.5056 L331.9203 298.9534 L331.2035 298.0911 L330.53 297.3059 L330.0813 296.7623 L329.1397 295.6747 L327.7583 294.0191 L327.7494 294.0088 L327.7363 293.9933 L326.359 292.4083 L325.4107 291.2758 L324.9687 290.7715 L324.3307 290.017 L323.5784 289.1544 L323.0558 288.5326 L322.188 287.546 L320.9465 286.0828 L320.7977 285.9129 L320.6935 285.7894 L319.4074 284.3323 L318.3122 283.0461 L318.0171 282.7143 L317.6069 282.2368 L316.6267 281.1303 L315.9197 280.3029 L315.2364 279.5373 L314.2946 278.4446 L313.8461 277.9401 L313.5198 277.5596 L312.4558 276.3714 L311.1109 274.8164 L311.0655 274.766 L311.0045 274.696 L309.6751 273.2168 L308.6827 272.0731 L308.2848 271.6333 L307.7546 271.0271 L306.8945 270.0732 L306.2472 269.3299 L305.5042 268.5112 L304.5219 267.3917 L304.1138 266.9409 L303.8044 266.5867 L302.7235 265.3998 L301.3533 263.8434 L301.3332 263.8214 L301.3071 263.792 L299.9428 262.299 L298.884 261.1002 L298.5525 260.7395 L298.1275 260.2616 L297.1622 259.2088 L296.4073 258.3569 L295.7719 257.6678 L294.9632 256.7613 L294.3815 256.1291 L293.9233 255.6137 L292.9912 254.6061 L291.8139 253.2907 L291.6009 253.06 L291.4318 252.8704 L290.2105 251.5546 L288.9289 250.1272 L288.8202 250.0107 L288.6857 249.8618 L287.4299 248.5132 L286.4127 247.384 L286.0396 246.9852 L285.581 246.4791 L284.6492 245.4818 L283.8892 244.6407 L283.2589 243.9693 L282.4898 243.1233 L281.8686 242.4605 L281.3582 241.8975 L280.4783 240.9631 L279.4121 239.7939 L279.0879 239.4492 L278.8197 239.1542 L277.6976 237.9666 L276.3477 236.4907 L276.3073 236.4479 L276.2737 236.411 L274.917 234.9796 L273.7133 233.6677 L273.5266 233.4716 L273.3059 233.2323 L272.1363 232.0022 L271.1444 230.9245 L270.746 230.5072 L270.2782 230.0015 L269.3556 229.0344 L268.568 228.1813 L267.9653 227.552 L267.2625 226.7945 L266.575 226.0761 L265.984 225.438 L265.1847 224.6059 L264.2587 223.6111 L263.7943 223.1273 L263.3924 222.6948 L262.404 221.6691 L261.2668 220.4509 L261.0137 220.1881 L260.7932 219.9515 L259.6234 218.7414 L258.2864 217.3136 L258.233 217.2584 L258.1862 217.2083 L256.8427 215.8228 L255.5674 214.4651 L255.4524 214.3468 L255.3228 214.2095 L254.0621 212.9134 L252.9395 211.7218 L252.6717 211.4474 L252.3722 211.1309 L251.2814 210.013 L250.3038 208.9786 L249.8911 208.5569 L249.4323 208.0734 L248.5007 207.1217 L247.6605 206.2353 L247.1104 205.675 L246.503 205.0368 L245.7201 204.2395 L245.0094 203.4921 L244.3298 202.802 L243.5841 202.0207 L242.9394 201.3663 L242.3505 200.7488 L241.5491 199.9376 L240.6755 199.0251 L240.1588 198.5022 L239.6837 198.0056 L238.7684 197.0819 L237.7771 196.0495 L237.3781 195.6471 L237.0089 195.2624 L235.9878 194.235 L234.8888 193.0939 L234.5975 192.8009 L234.3262 192.5191 L233.2071 191.3967 L232.0104 190.1578 L231.8168 189.9638 L231.6353 189.7758 L230.4265 188.567 L229.1419 187.2412 L229.0362 187.1356 L228.9364 187.0326 L227.6458 185.746 L226.2831 184.3438 L226.2555 184.3163 L226.2293 184.2894 L224.8652 182.9337 L223.5127 181.5461 L223.4749 181.5086 L223.4354 181.4682 L222.0845 180.1299 L220.7871 178.8029 L220.6942 178.711 L220.5978 178.6127 L219.3039 177.3347 L218.0535 176.0596 L217.9136 175.9217 L217.7693 175.7751 L216.5232 174.5481 L215.3116 173.3164 L215.1329 173.1407 L214.9497 172.955 L213.7426 171.7701 L212.5616 170.5732 L212.3522 170.368 L212.139 170.1524 L210.9619 169.0006 L209.8034 167.8299 L209.5716 167.6035 L209.337 167.367 L208.1813 166.2397 L207.0368 165.0867 L206.7909 164.8472 L206.5436 164.5986 L205.4006 163.4872 L204.2618 162.3434 L204.0103 162.0992 L203.7588 161.8472 L202.6199 160.7433 L201.4784 159.6002 L201.2296 159.3594 L200.9824 159.1124 L199.8393 158.0078 L198.6864 156.8569 L198.449 156.6277 L198.2144 156.3941 L197.0587 155.2808 L195.8859 154.1137 L195.6683 153.9043 L195.4547 153.6921 L194.278 152.5622 L193.0768 151.3705 L192.8877 151.1891 L192.7031 151.0063 L191.4973 149.8521 L190.2589 148.6272 L190.107 148.4819 L189.9596 148.3365 L188.7167 147.1504 L187.4323 145.884 L187.3264 145.783 L187.2242 145.6824 L185.936 144.4571 L184.5969 143.1407 L184.5457 143.0921 L184.4967 143.044 L183.1554 141.7722 L181.7774 140.4218 L181.7651 140.4102 L181.7521 140.3975 L180.3747 139.0957 L179.0679 137.819 L178.9844 137.7403 L178.8962 137.6543 L177.5941 136.4275 L176.3663 135.2318 L176.2038 135.0791 L176.0309 134.911 L174.8134 133.7676 L173.6726 132.6601 L173.4231 132.4265 L173.1561 132.1678 L172.0328 131.1161 L170.9866 130.1036 L170.6424 129.7825 L170.2719 129.4245 L169.2521 128.4729 L168.3083 127.5623 L167.8618 127.147 L167.378 126.6813 L166.4715 125.838 L165.6376 125.036 L165.0811 124.5202 L164.4745 123.938 L163.6908 123.2114 L162.9744 122.5245 L162.3005 121.9019 L161.5613 121.1948 L160.9102 120.593 L160.3186 120.0277 L159.5198 119.2921 L158.6382 118.4516 L158.1295 117.9829 L157.6702 117.5453 L156.7392 116.6909 L155.7053 115.7083 L155.3488 115.381 L155.029 115.0773 L153.9585 114.0982 L152.7623 112.9651 L152.5682 112.7874 L152.3951 112.6235 L151.1779 111.514 L149.8094 110.2218 L149.7875 110.2019 L149.7682 110.1837 L148.3972 108.9382 L147.1534 107.7676 L147.0069 107.6352 L146.84 107.4786 L145.6166 106.3709 L144.5464 105.3671 L144.2262 105.0786 L143.8592 104.7354 L142.8359 103.812 L141.9465 102.9806 L141.4456 102.5307 L140.8676 101.9921 L140.0553 101.2616 L139.3537 100.6078 L138.6649 99.9915 L137.8652 99.2489 L137.2746 98.7196 L136.7678 98.2488 L135.8843 97.461 L134.8519 96.5056 L134.494 96.1859 L134.1887 95.9034 L133.1036 94.9392 L131.8275 93.7624 L131.7133 93.6607 L131.6165 93.5714 L130.323 92.4261 L129.0552 91.2609 L128.9326 91.153 L128.7863 91.0191 L127.5423 89.9216 L126.5041 88.9707 L126.152 88.6619 L125.7288 88.2759 L124.7617 87.4257 L123.9599 86.6939 L123.3713 86.1796 L122.6594 85.5327 L121.981 84.9384 L121.4223 84.4302 L120.5907 83.7063 L119.578 82.7894 L119.2003 82.4598 L118.8913 82.1796 L117.81 81.2418 L116.4847 80.0462 L116.4197 79.9897 L116.3669 79.942 L115.0294 78.7862 L113.8565 77.732 L113.639 77.5454 L113.3679 77.3029 L112.2487 76.3395 L111.3546 75.5387 L110.8584 75.1146 L110.2354 74.5597 L109.4681 73.9016 L108.8591 73.3582 L108.0777 72.693 L107.09 71.8164 L106.6874 71.4725 L106.3701 71.1904 L105.2971 70.2805 L103.9314 69.0732 L103.9068 69.0522 L103.8875 69.0351 L102.5164 67.8771 L101.4215 66.9129 L101.1261 66.6654 L100.7428 66.33 L99.7358 65.4828 L98.9627 64.8045 L98.3455 64.2897 L97.5389 63.5867 L96.9551 63.0975 L96.5101 62.7086 L95.5648 61.9233 L94.3208 60.8435 L94.1745 60.7213 L94.0637 60.6249 L92.7841 59.5664 L91.6321 58.5703 L91.3938 58.3752 L91.0734 58.1002 L90.0035 57.2188 L89.2108 56.5363 L88.6132 56.0487 L87.8036 55.357 L87.2228 54.8805 L86.7957 54.5142 L85.8325 53.732 L84.5182 52.6137 L84.4422 52.5516 L84.3867 52.5042 L83.0518 51.425 L81.9959 50.5303 L81.6615 50.263 L81.1942 49.8705 L80.2712 49.1276 L79.6134 48.5726 L78.8809 47.9897 L77.8493 47.1273 L77.4905 46.8398 L77.2368 46.6266 L76.1002 45.7265 L74.8723 44.7045 L74.7099 44.5775 L74.475 44.384 L73.3196 43.4732 L72.5237 42.8138 L71.9292 42.3513 L71.0627 41.6408 L70.5389 41.2298 L70.181 40.9346 L69.1486 40.1355 L67.8476 39.0738 L67.7583 39.0056 L67.6242 38.8975 L66.3679 37.93 L65.5345 37.2531 L64.9776 36.8307 L64.1347 36.1543 L63.5873 35.7348 L63.2271 35.4436 L62.197 34.6664 L60.9303 33.6551 L60.8066 33.5634 L60.6132 33.411 L59.4163 32.5128 L58.6543 31.9075 L58.026 31.4442 L57.0347 30.6678 L56.6356 30.3699 L56.3838 30.1708 L55.2453 29.3362 L54.1301 28.4673 L53.855 28.2697 L53.4048 27.9246 L52.4647 27.2393 L51.8927 26.7961 L51.0743 26.2118 L49.7225 25.1813 L49.684 25.1534 L49.6608 25.1355 L48.2937 24.1653 L47.4576 23.5317 L46.9034 23.1477 L45.9492 22.4381 L45.513 22.1304 L45.2608 21.9403 L44.1227 21.157 L43.0845 20.3897 L42.7324 20.1539 L42.0975 19.6948 L41.342 19.1783 L40.925 18.872 L39.9517 18.2251 L38.7805 17.3839 L38.5614 17.243 L38.1452 16.9516 L37.1711 16.3088 L36.6608 15.9448 L35.7807 15.3831 L34.5536 14.5304 L34.3904 14.4302 L34.0613 14.2083 L33.0001 13.5364 L32.4765 13.1752 L31.6098 12.6479 L30.4134 11.8479 L30.2194 11.7353 L29.8004 11.4651 L28.8291 10.8792 L28.3818 10.5826 L27.4388 10.0405 L26.3709 9.3582 L26.0485 9.1833 L25.2935 8.7219 L24.6581 8.3602 L24.3882 8.1893 L23.2678 7.5884 L22.4392 7.087 L21.8775 6.8071 L20.5104 6.0244 L20.4872 6.0139 L20.4212 5.9786 L19.0968 5.3271 L18.6338 5.065 L17.7065 4.6505 L16.7878 4.1659 L16.3162 3.9801 L14.9762 3.3347 L14.9258 3.3181 L14.7318 3.2354 L13.5355 2.7729 L13.227 2.6266 L12.1452 2.2784 L11.5296 2.0208 L10.7549 1.8328 L9.8907 1.5302 L9.3645 1.4548 L8.3225 1.1793 L7.9742 1.1741 L6.8413 1 L6.5839 1.0405 L5.4686 1.0349 L5.1936 1.1451 L4.2338 1.3417 L3.8032 1.6734 L3.1777 2.0011 L2.4129 3.0717 L2.359 3.1291 L2.3198 3.2354 L2 5.1639 L2.0197 5.9786 L2.4129 8.2923"
                  style="fill:none; clip-path:url(#clipPath2);"/>
        </g>
        <g transform="translate(6,5)"
           style="stroke-linecap:butt; fill:rgb(120,0,14); text-rendering:optimizeLegibility; image-rendering:optimizeQuality; color-rendering:optimizeQuality; font-family:'Lucida Bright'; stroke-linejoin:round; stroke:rgb(120,0,14); color-interpolation:linearRGB; stroke-width:1.5;">
            <path d="M309.6751 332.6074 L309.8605 332.7902 L309.8605 332.4245 L309.6751 332.1501 L309.119 331.3272 L309.4897 332.4245 L309.6751 332.6074"
                  style="fill:none; clip-path:url(#clipPath2);"/>
            <path d="M80.2712 61.1178 L80.8273 61.9408 L80.4566 60.8435 L80.2712 60.6606 L80.0858 60.4777 L80.0858 60.8435 L80.2712 61.1178"
                  style="fill:none; clip-path:url(#clipPath2);"/>
            <path d="M83.0518 64.1354 L83.7934 66.33 L84.4422 67.2901 L85.6471 69.0732 L85.8325 69.3475 L86.3886 70.1705 L87.2228 71.4049 L87.5009 71.8164 L88.6132 73.4624 L89.3547 74.5597 L90.0035 75.5198 L91.2084 77.3029 L91.3938 77.5772 L91.9499 78.4002 L92.7841 79.6347 L93.0622 80.0462 L94.1745 81.6921 L94.916 82.7894 L95.5648 83.7495 L96.7697 85.5327 L96.9551 85.807 L97.5113 86.6299 L98.3455 87.8644 L98.6235 88.2759 L99.7358 89.9218 L100.4773 91.0191 L101.1261 91.9792 L102.331 93.7624 L102.5164 94.0367 L103.0726 94.8597 L103.9068 96.0941 L104.1848 96.5056 L105.2971 98.1516 L106.0386 99.2489 L106.6874 100.209 L107.8924 101.9921 L108.0777 102.2664 L108.6339 103.0894 L109.4681 104.3239 L109.7461 104.7354 L110.8584 106.3813 L111.5999 107.4786 L112.2487 108.4387 L113.4537 110.2218 L113.639 110.4962 L114.1952 111.3192 L115.0294 112.5536 L115.3074 112.9651 L116.4197 114.611 L117.1612 115.7083 L117.81 116.6685 L119.015 118.4516 L119.2003 118.7259 L119.7565 119.5489 L120.5907 120.7833 L120.8688 121.1948 L121.981 122.8408 L122.7225 123.938 L123.3713 124.8982 L124.5763 126.6813 L124.7617 126.9556 L125.3178 127.7786 L126.152 129.0131 L126.4301 129.4245 L127.5423 131.0705 L128.2838 132.1678 L128.9326 133.1279 L130.1376 134.911 L130.323 135.1853 L130.8791 136.0083 L131.7133 137.2428 L131.9913 137.6543 L133.1036 139.3002 L133.8451 140.3975 L134.494 141.3576 L135.6989 143.1407 L135.8843 143.4151 L136.4404 144.2381 L137.2746 145.4725 L137.5527 145.884 L138.6649 147.5299 L139.4064 148.6272 L140.0553 149.5874 L141.2602 151.3705 L141.4456 151.6448 L142.0017 152.4678 L142.8359 153.7022 L143.114 154.1137 L144.2262 155.7596 L144.9677 156.8569 L145.6166 157.8171 L146.8215 159.6002 L147.0069 159.8745 L147.563 160.6975 L148.3972 161.932 L148.6753 162.3434 L149.7875 163.9894 L150.529 165.0867 L151.1779 166.0468 L152.3828 167.8299 L152.5682 168.1042 L153.1243 168.9272 L153.9585 170.1617 L154.2366 170.5732 L155.3488 172.2191 L156.0904 173.3164 L156.7392 174.2765 L157.9441 176.0596 L158.1295 176.334 L158.6856 177.1569 L159.5198 178.3914 L159.7979 178.8029 L160.9102 180.4488 L161.6517 181.5461 L162.3005 182.5063 L163.5054 184.2894 L163.6908 184.5637 L164.2469 185.3867 L165.0811 186.6211 L165.3592 187.0326 L166.4715 188.6786 L167.213 189.7758 L167.8618 190.736 L169.0667 192.5191 L169.2521 192.7934 L169.8082 193.6164 L170.6424 194.8509 L170.9205 195.2624 L172.0328 196.5791 L173.2377 198.0056 L173.4231 198.1885 L173.6085 198.3714 L174.8134 199.5601 L176.0184 200.7488 L176.2038 200.9317 L176.3891 201.1146 L177.5941 202.3033 L178.799 203.4921 L178.9844 203.675 L179.1698 203.8578 L180.3747 205.0466 L181.5797 206.2353 L181.7651 206.4182 L181.9504 206.6011 L183.1554 207.7898 L184.3603 208.9786 L184.5457 209.1614 L184.7311 209.3443 L185.936 210.5331 L187.141 211.7218 L187.3264 211.9047 L187.5117 212.0876 L188.7167 213.2763 L189.9216 214.4651 L190.107 214.6479 L190.2924 214.8308 L191.4973 216.0195 L192.7023 217.2083 L192.8877 217.3912 L193.0731 217.5741 L194.278 218.7628 L195.4829 219.9515 L195.6683 220.1344 L195.8537 220.3173 L197.0587 221.506 L198.2636 222.6948 L198.449 222.8777 L198.6343 223.0605 L199.8393 224.2493 L201.0443 225.438 L201.2296 225.6209 L201.415 225.8038 L202.6199 226.9925 L203.8249 228.1813 L204.0103 228.3641 L204.1957 228.547 L205.4006 229.7358 L206.6056 230.9245 L206.7909 231.1074 L206.9763 231.2903 L208.1813 232.479 L209.3862 233.6677 L209.5716 233.8506 L209.757 234.0335 L210.9619 235.2222 L212.1669 236.411 L212.3522 236.5939 L212.5376 236.7767 L213.7426 237.9655 L214.9475 239.1542 L215.1329 239.3371 L215.3183 239.52 L216.5232 240.7087 L217.7282 241.8975 L217.9136 242.0804 L218.0989 242.2632 L219.3039 243.452 L220.5088 244.6407 L220.6942 244.8236 L220.8796 245.0065 L222.0845 246.1952 L223.2895 247.384 L223.4749 247.5668 L223.6602 247.7497 L224.8652 248.9385 L226.0701 250.1272 L226.2555 250.3101 L226.4409 250.493 L227.6458 251.6817 L228.8508 252.8704 L229.0362 253.0533 L229.2216 253.2362 L230.4265 254.4249 L231.6315 255.6137 L231.8168 255.7966 L232.0022 255.9794 L233.2071 257.1682 L234.4121 258.3569 L234.5975 258.5398 L234.7828 258.7227 L235.9878 259.9114 L237.1927 261.1002 L237.3781 261.2831 L237.5635 261.4659 L238.7684 262.6547 L239.9734 263.8434 L240.1588 264.0263 L240.3442 264.2092 L241.5491 265.3979 L242.7541 266.5867 L242.9394 266.7695 L243.1248 266.9524 L244.3298 268.1412 L245.5347 269.3299 L245.7201 269.5128 L245.9055 269.6957 L247.1104 270.8844 L248.3154 272.0731 L248.5007 272.256 L248.6861 272.4389 L249.8911 273.6277 L251.096 274.8164 L251.2814 274.9993 L251.4668 275.1821 L252.6717 276.3709 L253.8767 277.5596 L254.0621 277.7425 L254.2474 277.9254 L255.4524 279.1141 L256.6573 280.3029 L256.8427 280.4857 L257.0281 280.6686 L258.233 281.8574 L259.438 283.0461 L259.6234 283.229 L259.8087 283.4119 L261.0137 284.6006 L262.2186 285.7894 L262.404 285.9722 L262.5894 286.1551 L263.7943 287.3439 L264.9993 288.5326 L265.1847 288.7155 L265.37 288.8983 L266.575 290.0871 L267.7799 291.2758 L267.9653 291.4587 L268.1507 291.6416 L269.3556 292.8303 L270.5606 294.0191 L270.746 294.202 L270.9313 294.3848 L272.1363 295.5736 L273.3412 296.7623 L273.5266 296.9452 L273.712 297.1281 L274.917 298.3168 L276.1219 299.5056 L276.3073 299.6884 L276.4926 299.8713 L277.6976 301.0601 L278.9026 302.2488 L279.0879 302.4317 L279.2733 302.6146 L280.4783 303.8033 L281.6832 304.9921 L281.8686 305.1749 L282.054 305.3578 L283.2589 306.5465 L284.4638 307.7353 L284.6492 307.9182 L284.8346 308.101 L286.0396 309.2898 L287.2445 310.4785 L287.4299 310.6614 L287.6153 310.8443 L288.8202 312.033 L290.0252 313.2218 L290.2105 313.4047 L290.3959 313.5875 L291.6009 314.7763 L292.8058 315.965 L292.9912 316.1479 L293.1766 316.3308 L294.3815 317.5195 L295.5865 318.7083 L295.7719 318.8911 L295.9572 319.074 L297.1622 320.2628 L298.3671 321.4515 L298.5525 321.6344 L298.7379 321.8173 L299.9428 323.006 L301.1478 324.1948 L301.3332 324.3776 L301.5185 324.5605 L302.7235 325.7492 L303.9284 326.938 L304.1138 327.1209 L304.2992 327.3037 L305.5042 327.8981 L306.7091 329.6812 L306.8945 329.8641 L307.0798 330.047 L307.4506 329.6812 L306.8945 329.1326 L306.153 326.938 L305.5042 325.9778 L304.2992 324.1948 L304.1138 323.9204 L303.5577 323.0974 L302.7235 321.863 L302.4454 321.4515 L301.3332 319.8055 L300.5916 318.7083 L299.9428 317.7481 L298.7379 315.965 L298.5525 315.6907 L297.9964 314.8677 L297.1622 313.6333 L296.8841 313.2218 L295.7719 311.5758 L295.0303 310.4785 L294.3815 309.5184 L293.1766 307.7353 L292.9912 307.461 L292.4351 306.638 L291.6009 305.4035 L291.3228 304.9921 L290.2105 303.3461 L289.4691 302.2488 L288.8202 301.2887 L287.6153 299.5056 L287.4299 299.2312 L286.8737 298.4083 L286.0396 297.1738 L285.7615 296.7623 L284.6492 295.1164 L283.9077 294.0191 L283.2589 293.059 L282.054 291.2758 L281.8686 291.0015 L281.3125 290.1785 L280.4783 288.9441 L280.2002 288.5326 L279.0879 286.8867 L278.3464 285.7894 L277.6976 284.8292 L276.4926 283.0461 L276.3073 282.7718 L275.7512 281.9488 L274.917 280.7144 L274.6389 280.3029 L273.5266 278.6569 L272.7851 277.5596 L272.1363 276.5995 L270.9313 274.8164 L270.746 274.5421 L270.1898 273.7191 L269.3556 272.4846 L269.0776 272.0731 L267.9653 270.4272 L267.2238 269.3299 L266.575 268.3698 L265.37 266.5867 L265.1847 266.3123 L264.6285 265.4893 L263.7943 264.2549 L263.5163 263.8434 L262.404 262.1974 L261.6625 261.1002 L261.0137 260.14 L259.8087 258.3569 L259.6234 258.0826 L259.0672 257.2596 L258.233 256.0252 L257.955 255.6137 L256.8427 253.9677 L256.1012 252.8704 L255.4524 251.9103 L254.2474 250.1272 L254.0621 249.8529 L253.5059 249.0299 L252.6717 247.7954 L252.3937 247.384 L251.2814 245.738 L250.5399 244.6407 L249.8911 243.6806 L248.6861 241.8975 L248.5007 241.6231 L247.9446 240.8002 L247.1104 239.5657 L246.8324 239.1542 L245.7201 237.5083 L244.9786 236.411 L244.3298 235.4509 L243.1248 233.6677 L242.9394 233.3934 L242.3833 232.5704 L241.5491 231.336 L241.271 230.9245 L240.1588 229.2785 L239.4173 228.1813 L238.7684 227.2211 L237.5635 225.438 L237.3781 225.1637 L236.822 224.3407 L235.9878 223.1063 L235.7097 222.6948 L234.5975 221.0488 L233.856 219.9515 L233.2071 218.9914 L232.0022 217.2083 L231.8168 216.934 L231.2607 216.111 L230.4265 214.8765 L230.1484 214.4651 L229.0362 212.8191 L228.2946 211.7218 L227.6458 210.7617 L226.4409 208.9786 L226.2555 208.7042 L225.6994 207.8813 L224.8652 206.6468 L224.5871 206.2353 L223.4749 204.5894 L222.7334 203.4921 L222.0845 202.5319 L220.8796 200.7488 L220.6942 200.4745 L220.1381 199.6515 L219.3039 198.4171 L219.0258 198.0056 L217.9136 196.6888 L216.7086 195.2624 L216.5232 195.0795 L216.3378 194.8966 L215.1329 193.7079 L213.9279 192.5191 L213.7426 192.3362 L213.5572 192.1534 L212.3522 190.9646 L211.1473 189.7758 L210.9619 189.593 L210.7765 189.4101 L209.5716 188.2214 L208.3666 187.0326 L208.1813 186.8497 L207.9959 186.6669 L206.7909 185.4781 L205.586 184.2894 L205.4006 184.1065 L205.2152 183.9236 L204.0103 182.7349 L202.8053 181.5461 L202.6199 181.3633 L202.4346 181.1804 L201.2296 179.9916 L200.0247 178.8029 L199.8393 178.62 L199.6539 178.4371 L198.449 177.2484 L197.244 176.0596 L197.0587 175.8768 L196.8733 175.6939 L195.6683 174.5052 L194.4634 173.3164 L194.278 173.1335 L194.0926 172.9507 L192.8877 171.7619 L191.6827 170.5732 L191.4973 170.3903 L191.312 170.2074 L190.107 169.0187 L188.9021 167.8299 L188.7167 167.647 L188.5313 167.4642 L187.3264 166.2754 L186.1214 165.0867 L185.936 164.9038 L185.7507 164.7209 L184.5457 163.5322 L183.3408 162.3434 L183.1554 162.1606 L182.97 161.9777 L181.7651 160.7889 L180.5601 159.6002 L180.3747 159.4173 L180.1893 159.2344 L178.9844 158.0457 L177.7794 156.8569 L177.5941 156.6741 L177.4087 156.4912 L176.2038 155.3025 L174.9988 154.1137 L174.8134 153.9308 L174.6281 153.748 L173.4231 152.5592 L172.2181 151.3705 L172.0328 151.1876 L171.8474 151.0047 L170.6424 149.816 L169.4375 148.6272 L169.2521 148.4443 L169.0667 148.2615 L167.8618 147.0727 L166.6568 145.884 L166.4715 145.7011 L166.2861 145.5182 L165.0811 144.3295 L163.8762 143.1407 L163.6908 142.9579 L163.5054 142.775 L162.3005 141.5862 L161.0955 140.3975 L160.9102 140.2146 L160.7248 140.0317 L159.5198 138.843 L158.3149 137.6543 L158.1295 137.4714 L157.9441 137.2885 L156.7392 136.0998 L155.5342 134.911 L155.3488 134.7281 L155.1635 134.5453 L153.9585 133.3565 L152.7536 132.1678 L152.5682 131.9849 L152.3828 131.802 L151.1779 130.6133 L149.9729 129.4245 L149.7875 129.2416 L149.6022 129.0588 L148.3972 127.87 L147.1923 126.6813 L147.0069 126.4984 L146.8215 126.3155 L145.6166 125.1268 L144.4116 123.938 L144.2262 123.7552 L144.0408 123.5723 L142.8359 122.3835 L141.631 121.1948 L141.4456 121.0119 L141.2602 120.829 L140.0553 119.6403 L138.8503 118.4516 L138.6649 118.2687 L138.4796 118.0858 L137.2746 116.8971 L136.0696 115.7083 L135.8843 115.5254 L135.6989 115.3426 L134.494 114.1538 L133.289 112.9651 L133.1036 112.7822 L132.9182 112.5993 L131.7133 111.4106 L130.5083 110.2218 L130.323 110.0389 L130.1376 109.8561 L128.9326 108.6673 L127.7277 107.4786 L127.5423 107.2957 L127.3569 107.1128 L126.152 105.9241 L124.947 104.7354 L124.7617 104.5525 L124.5763 104.3696 L123.3713 103.1808 L122.1664 101.9921 L121.981 101.8092 L121.7956 101.6263 L120.5907 100.4376 L119.3857 99.2489 L119.2003 99.066 L119.015 98.8831 L117.81 97.6944 L116.6051 96.5056 L116.4197 96.3227 L116.2343 96.1399 L115.0294 94.9511 L113.8244 93.7624 L113.639 93.5795 L113.4537 93.3966 L112.2487 92.2079 L111.0438 91.0191 L110.8584 90.8362 L110.673 90.6534 L109.4681 89.4646 L108.2631 88.2759 L108.0777 88.093 L107.8924 87.9101 L106.6874 86.7214 L105.4825 85.5327 L105.2971 85.3498 L105.1117 85.1669 L103.9068 83.9781 L102.7018 82.7894 L102.5164 82.6065 L102.331 82.4236 L101.1261 81.2349 L99.9212 80.0462 L99.7358 79.8633 L99.5504 79.6804 L98.3455 78.4917 L97.1405 77.3029 L96.9551 77.12 L96.7697 76.9372 L95.5648 75.7484 L94.3598 74.5597 L94.1745 74.3768 L93.9891 74.1939 L92.7841 73.0052 L91.5792 71.8164 L91.3938 71.6335 L91.2084 71.4507 L90.0035 70.2619 L88.7985 69.0732 L88.6132 68.8903 L88.4278 68.7074 L87.2228 67.5187 L86.0179 66.33 L85.8325 66.1471 L85.6471 65.9642 L84.4422 65.3698 L83.2372 63.5867 L83.0518 63.4038 L82.8665 63.2209 L82.4957 63.5867 L83.0518 64.1354"
                  style="fill:none; clip-path:url(#clipPath2);"/>
        </g>
        <g transform="translate(6,5)"
           style="stroke-linecap:butt; text-rendering:optimizeLegibility; color-rendering:optimizeQuality; image-rendering:optimizeQuality; font-family:'Lucida Bright'; stroke-linejoin:round; color-interpolation:linearRGB;">
            <path d="M2 196.634 L389 196.634"
                  style="fill:none; clip-path:url(#clipPath1);"/>
        </g>
        <g transform="translate(6,5)"
           style="stroke-linecap:butt; text-rendering:optimizeLegibility; color-rendering:optimizeQuality; image-rendering:optimizeQuality; font-family:'Lucida Bright'; stroke-linejoin:round; color-interpolation:linearRGB;">
            <path d="M291.8906 230.9688 L291 228.9531 L290.625 228.2031 Q290.4375 227.7812 290.3047 227.6719 Q290.1719 227.5625 289.8281 227.5312 L289.3906 227.5 L289.25 227.5 L289.3281 227.0469 L291.7188 227.0469 L293.1562 230.1719 L293.5 229.9062 Q294.9219 228.7344 294.9219 227.9688 Q294.9219 227.5625 294.6094 227.0469 L296.0469 227.0469 Q296.125 227.3125 296.125 227.5 Q296.125 228.125 295.6797 228.6406 Q295.2344 229.1562 293.6875 230.3125 L293.3438 230.5781 L294.5469 233.1094 L294.9844 233.9219 Q295.2656 234.4844 295.7344 234.5156 L296.2031 234.5312 L296.3281 234.5469 L296.25 235 L293.8438 235 L292.125 231.375 L291.5 231.9375 Q290 233.2812 290 234.25 Q290 234.6406 290.25 235 L288.7031 235 Q288.6562 234.7969 288.6562 234.6875 Q288.6562 233.75 290.0312 232.5469 L291.1719 231.5938 L291.8906 230.9688 Z"
                  style="stroke:none; clip-path:url(#clipPath3);"/>
        </g>
        <g transform="translate(6,5)"
           style="text-rendering:optimizeLegibility; font-family:'Lucida Bright'; color-interpolation:linearRGB; color-rendering:optimizeQuality; image-rendering:optimizeQuality;">
            <path d="M56.2186 196.634 L56.2186 200.634"
                  style="fill:none; clip-path:url(#clipPath1);"/>
        </g>
        <g style="text-rendering:optimizeLegibility; font-family:'Lucida Bright'; color-interpolation:linearRGB; color-rendering:optimizeQuality; image-rendering:optimizeQuality;">
            <path d="M65.4531 217.8906 L55.5469 217.8906 L55.5469 217.1094 L65.4531 217.1094 L65.4531 217.8906 Z"
                  style="stroke:none; clip-path:url(#clipPath5);"/>
        </g>
        <g style="text-rendering:optimizeLegibility; font-family:'Lucida Bright'; color-interpolation:linearRGB; color-rendering:optimizeQuality; image-rendering:optimizeQuality;">
            <path d="M64.1719 222 L64.1719 221.2812 Q64.7969 219.4531 66.125 218.2188 L66.9062 217.5 Q68.25 216.2344 68.6953 215.4922 Q69.1406 214.75 69.1406 213.7969 Q69.1406 212.6875 68.5938 212.0156 Q68.0469 211.3438 67.1562 211.3438 Q66.1562 211.3438 65.4688 211.8906 Q65.2188 212.0938 65.1406 213.3438 L65.1406 213.5156 L64.4062 213.5156 L64.4062 211.5469 Q65.9844 210.875 67.3281 210.875 Q68.7969 210.875 69.7344 211.7031 Q70.6719 212.5312 70.6719 213.7969 Q70.6719 215.5156 68.5469 216.9688 L67.6719 217.5781 Q65.5625 219.0312 65.3594 220.7344 L70.625 220.7344 L70.625 222 L64.1719 222 Z"
                  style="stroke:none; clip-path:url(#clipPath4);"/>
        </g>
        <g transform="translate(6,5)"
           style="text-rendering:optimizeLegibility; font-family:'Lucida Bright'; color-interpolation:linearRGB; color-rendering:optimizeQuality; image-rendering:optimizeQuality;">
            <path d="M125.5959 196.634 L125.5959 200.634"
                  style="fill:none; clip-path:url(#clipPath1);"/>
        </g>
        <g style="text-rendering:optimizeLegibility; font-family:'Lucida Bright'; color-interpolation:linearRGB; color-rendering:optimizeQuality; image-rendering:optimizeQuality;">
            <path d="M134.4531 217.8906 L124.5469 217.8906 L124.5469 217.1094 L134.4531 217.1094 L134.4531 217.8906 Z"
                  style="stroke:none; clip-path:url(#clipPath6);"/>
        </g>
        <g style="text-rendering:optimizeLegibility; font-family:'Lucida Bright'; color-interpolation:linearRGB; color-rendering:optimizeQuality; image-rendering:optimizeQuality;">
            <path d="M137.2812 211.0625 L137.2812 220.1094 L137.3281 220.8281 Q137.3594 221.2656 137.5859 221.3984 Q137.8125 221.5312 138.5156 221.5312 L139.375 221.5469 L139.375 222 L133.7656 222 L133.7656 221.5469 L134.625 221.5312 Q135.3125 221.5312 135.5391 221.3984 Q135.7656 221.2656 135.7969 220.8281 L135.8438 220.1094 L135.8438 213.375 L135.7969 212.6406 Q135.7969 212.125 135.5 212.125 Q135.2812 212.125 134.4844 212.2656 L133.7656 212.3906 L133.7656 211.9375 L137.2812 211.0625 Z"
                  style="stroke:none; clip-path:url(#clipPath4);"/>
        </g>
        <g transform="translate(6,5)"
           style="text-rendering:optimizeLegibility; font-family:'Lucida Bright'; color-interpolation:linearRGB; color-rendering:optimizeQuality; image-rendering:optimizeQuality;">
            <path d="M194.9732 196.634 L194.9732 200.634"
                  style="fill:none; clip-path:url(#clipPath1);"/>
            <path d="M191.5 220.2656 Q189.8281 220.2656 188.7969 218.7109 Q187.7656 217.1562 187.7656 214.6094 Q187.7656 212 188.7969 210.4453 Q189.8281 208.8906 191.5625 208.8906 Q193.2969 208.8906 194.3281 210.4375 Q195.3594 211.9844 195.3594 214.5938 Q195.3594 217.2031 194.3203 218.7344 Q193.2812 220.2656 191.5 220.2656 ZM191.5312 219.8125 Q193.8281 219.9219 193.8281 214.5 Q193.8281 209.3281 191.5625 209.3281 Q189.3125 209.3281 189.3125 214.5781 Q189.3125 219.7188 191.5312 219.8125 Z"
                  style="clip-path:url(#clipPath4); stroke:none;"
                  transform="translate(-6,-5)"/>
        </g>
        <g transform="translate(6,5)"
           style="text-rendering:optimizeLegibility; font-family:'Lucida Bright'; color-interpolation:linearRGB; color-rendering:optimizeQuality; image-rendering:optimizeQuality;">
            <path d="M264.3505 196.634 L264.3505 200.634"
                  style="fill:none; clip-path:url(#clipPath1);"/>
            <path d="M271.2812 211.0625 L271.2812 220.1094 L271.3281 220.8281 Q271.3594 221.2656 271.5859 221.3984 Q271.8125 221.5312 272.5156 221.5312 L273.375 221.5469 L273.375 222 L267.7656 222 L267.7656 221.5469 L268.625 221.5312 Q269.3125 221.5312 269.5391 221.3984 Q269.7656 221.2656 269.7969 220.8281 L269.8438 220.1094 L269.8438 213.375 L269.7969 212.6406 Q269.7969 212.125 269.5 212.125 Q269.2812 212.125 268.4844 212.2656 L267.7656 212.3906 L267.7656 211.9375 L271.2812 211.0625 Z"
                  style="clip-path:url(#clipPath4); stroke:none;"
                  transform="translate(-6,-5)"/>
        </g>
        <g transform="translate(6,5)"
           style="text-rendering:optimizeLegibility; font-family:'Lucida Bright'; color-interpolation:linearRGB; color-rendering:optimizeQuality; image-rendering:optimizeQuality;">
            <path d="M333.7278 196.634 L333.7278 200.634"
                  style="fill:none; clip-path:url(#clipPath1);"/>
            <path d="M336.1719 222 L336.1719 221.2812 Q336.7969 219.4531 338.125 218.2188 L338.9062 217.5 Q340.25 216.2344 340.6953 215.4922 Q341.1406 214.75 341.1406 213.7969 Q341.1406 212.6875 340.5938 212.0156 Q340.0469 211.3438 339.1562 211.3438 Q338.1562 211.3438 337.4688 211.8906 Q337.2188 212.0938 337.1406 213.3438 L337.1406 213.5156 L336.4062 213.5156 L336.4062 211.5469 Q337.9844 210.875 339.3281 210.875 Q340.7969 210.875 341.7344 211.7031 Q342.6719 212.5312 342.6719 213.7969 Q342.6719 215.5156 340.5469 216.9688 L339.6719 217.5781 Q337.5625 219.0312 337.3594 220.7344 L342.625 220.7344 L342.625 222 L336.1719 222 Z"
                  style="clip-path:url(#clipPath4); stroke:none;"
                  transform="translate(-6,-5)"/>
        </g>
        <g transform="translate(6,5)"
           style="text-rendering:optimizeLegibility; font-family:'Lucida Bright'; color-interpolation:linearRGB; color-rendering:optimizeQuality; image-rendering:optimizeQuality;">
            <path d="M21.5299 196.634 L21.5299 198.634"
                  style="fill:none; clip-path:url(#clipPath1);"/>
        </g>
        <g transform="translate(6,5)"
           style="text-rendering:optimizeLegibility; font-family:'Lucida Bright'; color-interpolation:linearRGB; color-rendering:optimizeQuality; image-rendering:optimizeQuality;">
            <path d="M90.9072 196.634 L90.9072 198.634"
                  style="fill:none; clip-path:url(#clipPath1);"/>
        </g>
        <g transform="translate(6,5)"
           style="text-rendering:optimizeLegibility; font-family:'Lucida Bright'; color-interpolation:linearRGB; color-rendering:optimizeQuality; image-rendering:optimizeQuality;">
            <path d="M160.2845 196.634 L160.2845 198.634"
                  style="fill:none; clip-path:url(#clipPath1);"/>
        </g>
        <g transform="translate(6,5)"
           style="text-rendering:optimizeLegibility; font-family:'Lucida Bright'; color-interpolation:linearRGB; color-rendering:optimizeQuality; image-rendering:optimizeQuality;">
            <path d="M229.6618 196.634 L229.6618 198.634"
                  style="fill:none; clip-path:url(#clipPath1);"/>
        </g>
        <g transform="translate(6,5)"
           style="text-rendering:optimizeLegibility; font-family:'Lucida Bright'; color-interpolation:linearRGB; color-rendering:optimizeQuality; image-rendering:optimizeQuality;">
            <path d="M299.0391 196.634 L299.0391 198.634"
                  style="fill:none; clip-path:url(#clipPath1);"/>
        </g>
        <g transform="translate(6,5)"
           style="text-rendering:optimizeLegibility; font-family:'Lucida Bright'; color-interpolation:linearRGB; color-rendering:optimizeQuality; image-rendering:optimizeQuality;">
            <path d="M368.4164 196.634 L368.4164 198.634"
                  style="fill:none; clip-path:url(#clipPath1);"/>
        </g>
        <g transform="translate(6,5)"
           style="stroke-linecap:butt; text-rendering:optimizeLegibility; color-rendering:optimizeQuality; image-rendering:optimizeQuality; font-family:'Lucida Bright'; stroke-linejoin:round; color-interpolation:linearRGB;">
            <path d="M194.9732 388 L194.9732 1"
                  style="fill:none; clip-path:url(#clipPath1);"/>
        </g>
        <g transform="translate(6,5)"
           style="stroke-linecap:butt; text-rendering:optimizeLegibility; color-rendering:optimizeQuality; image-rendering:optimizeQuality; font-family:'Lucida Bright'; stroke-linejoin:round; color-interpolation:linearRGB;">
            <path d="M134.9688 106.8906 Q136.3125 105.9531 138.3438 104.0781 L138.625 103.8125 Q138.5312 102.1094 138.1875 100.2266 Q137.8438 98.3438 137.4688 97.5 Q137.1406 96.7969 136.9531 96.6719 Q136.7656 96.5469 135.9375 96.5 L135.7656 96.5 L135.8438 96.0469 L138.5156 96.0469 Q139.6562 98.7344 139.8125 102.3594 L140.7188 101.1875 Q142.0469 99.5 142.4922 98.7109 Q142.9375 97.9219 142.9375 97.25 Q142.9375 96.5625 142.3594 96.0469 L144.1719 96.0469 Q144.3281 96.375 144.3281 96.6719 Q144.3281 97.2969 143.9219 97.9766 Q143.5156 98.6562 142.2188 100.2031 L139.4531 103.5312 Q137.7969 105.5156 136.9688 106.8906 L134.9688 106.8906 Z"
                  style="stroke:none; clip-path:url(#clipPath7);"/>
        </g>
        <g transform="translate(6,5)"
           style="text-rendering:optimizeLegibility; font-family:'Lucida Bright'; color-interpolation:linearRGB; color-rendering:optimizeQuality; image-rendering:optimizeQuality;">
            <path d="M194.9732 333.5218 L190.9732 333.5218"
                  style="fill:none; clip-path:url(#clipPath1);"/>
        </g>
        <g style="text-rendering:optimizeLegibility; font-family:'Lucida Bright'; color-interpolation:linearRGB; color-rendering:optimizeQuality; image-rendering:optimizeQuality;">
            <path d="M186.4531 339.8906 L176.5469 339.8906 L176.5469 339.1094 L186.4531 339.1094 L186.4531 339.8906 Z"
                  style="stroke:none; clip-path:url(#clipPath8);"/>
        </g>
        <g style="text-rendering:optimizeLegibility; font-family:'Lucida Bright'; color-interpolation:linearRGB; color-rendering:optimizeQuality; image-rendering:optimizeQuality;">
            <path d="M189.2812 333.0625 L189.2812 342.1094 L189.3281 342.8281 Q189.3594 343.2656 189.5859 343.3984 Q189.8125 343.5312 190.5156 343.5312 L191.375 343.5469 L191.375 344 L185.7656 344 L185.7656 343.5469 L186.625 343.5312 Q187.3125 343.5312 187.5391 343.3984 Q187.7656 343.2656 187.7969 342.8281 L187.8438 342.1094 L187.8438 335.375 L187.7969 334.6406 Q187.7969 334.125 187.5 334.125 Q187.2812 334.125 186.4844 334.2656 L185.7656 334.3906 L185.7656 333.9375 L189.2812 333.0625 Z"
                  style="stroke:none; clip-path:url(#clipPath4);"/>
        </g>
        <g transform="translate(6,5)"
           style="text-rendering:optimizeLegibility; font-family:'Lucida Bright'; color-interpolation:linearRGB; color-rendering:optimizeQuality; image-rendering:optimizeQuality;">
            <path d="M194.9732 265.0779 L190.9732 265.0779"
                  style="fill:none; clip-path:url(#clipPath1);"/>
        </g>
        <g style="text-rendering:optimizeLegibility; font-family:'Lucida Bright'; color-interpolation:linearRGB; color-rendering:optimizeQuality; image-rendering:optimizeQuality;">
            <path d="M172.4531 271.8906 L162.5469 271.8906 L162.5469 271.1094 L172.4531 271.1094 L172.4531 271.8906 Z"
                  style="stroke:none; clip-path:url(#clipPath9);"/>
        </g>
        <g style="text-rendering:optimizeLegibility; font-family:'Lucida Bright'; color-interpolation:linearRGB; color-rendering:optimizeQuality; image-rendering:optimizeQuality;">
            <path d="M174.5 276.2656 Q172.8281 276.2656 171.7969 274.7109 Q170.7656 273.1562 170.7656 270.6094 Q170.7656 268 171.7969 266.4453 Q172.8281 264.8906 174.5625 264.8906 Q176.2969 264.8906 177.3281 266.4375 Q178.3594 267.9844 178.3594 270.5938 Q178.3594 273.2031 177.3203 274.7344 Q176.2812 276.2656 174.5 276.2656 ZM174.5312 275.8125 Q176.8281 275.9219 176.8281 270.5 Q176.8281 265.3281 174.5625 265.3281 Q172.3125 265.3281 172.3125 270.5781 Q172.3125 275.7188 174.5312 275.8125 ZM180.2041 276 L180.2041 274.1875 L182.0166 274.1875 L182.0166 276 L180.2041 276 ZM184.8218 276.0156 L184.8218 274.1875 L185.5405 274.1875 L185.5562 274.3594 L185.5718 274.9219 Q185.6187 275.8125 186.978 275.8125 Q187.9937 275.8125 188.5874 275.0234 Q189.1812 274.2344 189.1812 272.875 Q189.1812 271.3281 188.2593 270.6641 Q187.3374 270 185.2593 270 L184.9937 270 L184.9937 265.1562 L190.4624 265.1562 L190.4624 266.4219 L185.4468 266.4219 L185.4468 269.4531 L186.1187 269.4531 Q190.6968 269.4531 190.6968 272.9375 Q190.6968 274.5 189.6421 275.3828 Q188.5874 276.2656 186.728 276.2656 Q185.8062 276.2656 184.8218 276.0156 Z"
                  style="stroke:none; clip-path:url(#clipPath4);"/>
        </g>
        <g transform="translate(6,5)"
           style="text-rendering:optimizeLegibility; font-family:'Lucida Bright'; color-interpolation:linearRGB; color-rendering:optimizeQuality; image-rendering:optimizeQuality;">
            <path d="M194.9732 196.634 L190.9732 196.634"
                  style="fill:none; clip-path:url(#clipPath1);"/>
        </g>
        <g transform="translate(6,5)"
           style="text-rendering:optimizeLegibility; font-family:'Lucida Bright'; color-interpolation:linearRGB; color-rendering:optimizeQuality; image-rendering:optimizeQuality;">
            <path d="M194.9732 128.1901 L190.9732 128.1901"
                  style="fill:none; clip-path:url(#clipPath1);"/>
            <path d="M174.5 139.2656 Q172.8281 139.2656 171.7969 137.7109 Q170.7656 136.1562 170.7656 133.6094 Q170.7656 131 171.7969 129.4453 Q172.8281 127.8906 174.5625 127.8906 Q176.2969 127.8906 177.3281 129.4375 Q178.3594 130.9844 178.3594 133.5938 Q178.3594 136.2031 177.3203 137.7344 Q176.2812 139.2656 174.5 139.2656 ZM174.5312 138.8125 Q176.8281 138.9219 176.8281 133.5 Q176.8281 128.3281 174.5625 128.3281 Q172.3125 128.3281 172.3125 133.5781 Q172.3125 138.7188 174.5312 138.8125 ZM180.2041 139 L180.2041 137.1875 L182.0166 137.1875 L182.0166 139 L180.2041 139 ZM184.8218 139.0156 L184.8218 137.1875 L185.5405 137.1875 L185.5562 137.3594 L185.5718 137.9219 Q185.6187 138.8125 186.978 138.8125 Q187.9937 138.8125 188.5874 138.0234 Q189.1812 137.2344 189.1812 135.875 Q189.1812 134.3281 188.2593 133.6641 Q187.3374 133 185.2593 133 L184.9937 133 L184.9937 128.1562 L190.4624 128.1562 L190.4624 129.4219 L185.4468 129.4219 L185.4468 132.4531 L186.1187 132.4531 Q190.6968 132.4531 190.6968 135.9375 Q190.6968 137.5 189.6421 138.3828 Q188.5874 139.2656 186.728 139.2656 Q185.8062 139.2656 184.8218 139.0156 Z"
                  style="clip-path:url(#clipPath4); stroke:none;"
                  transform="translate(-6,-5)"/>
        </g>
        <g transform="translate(6,5)"
           style="text-rendering:optimizeLegibility; font-family:'Lucida Bright'; color-interpolation:linearRGB; color-rendering:optimizeQuality; image-rendering:optimizeQuality;">
            <path d="M194.9732 59.7462 L190.9732 59.7462"
                  style="fill:none; clip-path:url(#clipPath1);"/>
            <path d="M189.2812 59.0625 L189.2812 68.1094 L189.3281 68.8281 Q189.3594 69.2656 189.5859 69.3984 Q189.8125 69.5312 190.5156 69.5312 L191.375 69.5469 L191.375 70 L185.7656 70 L185.7656 69.5469 L186.625 69.5312 Q187.3125 69.5312 187.5391 69.3984 Q187.7656 69.2656 187.7969 68.8281 L187.8438 68.1094 L187.8438 61.375 L187.7969 60.6406 Q187.7969 60.125 187.5 60.125 Q187.2812 60.125 186.4844 60.2656 L185.7656 60.3906 L185.7656 59.9375 L189.2812 59.0625 Z"
                  style="clip-path:url(#clipPath4); stroke:none;"
                  transform="translate(-6,-5)"/>
        </g>
        <g transform="translate(6,5)"
           style="text-rendering:optimizeLegibility; font-family:'Lucida Bright'; color-interpolation:linearRGB; color-rendering:optimizeQuality; image-rendering:optimizeQuality;">
            <path d="M194.9732 374.5881 L192.9732 374.5881"
                  style="fill:none; clip-path:url(#clipPath1);"/>
        </g>
        <g transform="translate(6,5)"
           style="text-rendering:optimizeLegibility; font-family:'Lucida Bright'; color-interpolation:linearRGB; color-rendering:optimizeQuality; image-rendering:optimizeQuality;">
            <path d="M194.9732 360.8993 L192.9732 360.8993"
                  style="fill:none; clip-path:url(#clipPath1);"/>
        </g>
        <g transform="translate(6,5)"
           style="text-rendering:optimizeLegibility; font-family:'Lucida Bright'; color-interpolation:linearRGB; color-rendering:optimizeQuality; image-rendering:optimizeQuality;">
            <path d="M194.9732 347.2105 L192.9732 347.2105"
                  style="fill:none; clip-path:url(#clipPath1);"/>
        </g>
        <g transform="translate(6,5)"
           style="text-rendering:optimizeLegibility; font-family:'Lucida Bright'; color-interpolation:linearRGB; color-rendering:optimizeQuality; image-rendering:optimizeQuality;">
            <path d="M194.9732 319.833 L192.9732 319.833"
                  style="fill:none; clip-path:url(#clipPath1);"/>
        </g>
        <g transform="translate(6,5)"
           style="text-rendering:optimizeLegibility; font-family:'Lucida Bright'; color-interpolation:linearRGB; color-rendering:optimizeQuality; image-rendering:optimizeQuality;">
            <path d="M194.9732 306.1442 L192.9732 306.1442"
                  style="fill:none; clip-path:url(#clipPath1);"/>
        </g>
        <g transform="translate(6,5)"
           style="text-rendering:optimizeLegibility; font-family:'Lucida Bright'; color-interpolation:linearRGB; color-rendering:optimizeQuality; image-rendering:optimizeQuality;">
            <path d="M194.9732 292.4554 L192.9732 292.4554"
                  style="fill:none; clip-path:url(#clipPath1);"/>
        </g>
        <g transform="translate(6,5)"
           style="text-rendering:optimizeLegibility; font-family:'Lucida Bright'; color-interpolation:linearRGB; color-rendering:optimizeQuality; image-rendering:optimizeQuality;">
            <path d="M194.9732 278.7667 L192.9732 278.7667"
                  style="fill:none; clip-path:url(#clipPath1);"/>
        </g>
        <g transform="translate(6,5)"
           style="text-rendering:optimizeLegibility; font-family:'Lucida Bright'; color-interpolation:linearRGB; color-rendering:optimizeQuality; image-rendering:optimizeQuality;">
            <path d="M194.9732 251.3891 L192.9732 251.3891"
                  style="fill:none; clip-path:url(#clipPath1);"/>
        </g>
        <g transform="translate(6,5)"
           style="text-rendering:optimizeLegibility; font-family:'Lucida Bright'; color-interpolation:linearRGB; color-rendering:optimizeQuality; image-rendering:optimizeQuality;">
            <path d="M194.9732 237.7003 L192.9732 237.7003"
                  style="fill:none; clip-path:url(#clipPath1);"/>
        </g>
        <g transform="translate(6,5)"
           style="text-rendering:optimizeLegibility; font-family:'Lucida Bright'; color-interpolation:linearRGB; color-rendering:optimizeQuality; image-rendering:optimizeQuality;">
            <path d="M194.9732 224.0115 L192.9732 224.0115"
                  style="fill:none; clip-path:url(#clipPath1);"/>
        </g>
        <g transform="translate(6,5)"
           style="text-rendering:optimizeLegibility; font-family:'Lucida Bright'; color-interpolation:linearRGB; color-rendering:optimizeQuality; image-rendering:optimizeQuality;">
            <path d="M194.9732 210.3228 L192.9732 210.3228"
                  style="fill:none; clip-path:url(#clipPath1);"/>
        </g>
        <g transform="translate(6,5)"
           style="text-rendering:optimizeLegibility; font-family:'Lucida Bright'; color-interpolation:linearRGB; color-rendering:optimizeQuality; image-rendering:optimizeQuality;">
            <path d="M194.9732 182.9452 L192.9732 182.9452"
                  style="fill:none; clip-path:url(#clipPath1);"/>
        </g>
        <g transform="translate(6,5)"
           style="text-rendering:optimizeLegibility; font-family:'Lucida Bright'; color-interpolation:linearRGB; color-rendering:optimizeQuality; image-rendering:optimizeQuality;">
            <path d="M194.9732 169.2564 L192.9732 169.2564"
                  style="fill:none; clip-path:url(#clipPath1);"/>
        </g>
        <g transform="translate(6,5)"
           style="text-rendering:optimizeLegibility; font-family:'Lucida Bright'; color-interpolation:linearRGB; color-rendering:optimizeQuality; image-rendering:optimizeQuality;">
            <path d="M194.9732 155.5676 L192.9732 155.5676"
                  style="fill:none; clip-path:url(#clipPath1);"/>
        </g>
        <g transform="translate(6,5)"
           style="text-rendering:optimizeLegibility; font-family:'Lucida Bright'; color-interpolation:linearRGB; color-rendering:optimizeQuality; image-rendering:optimizeQuality;">
            <path d="M194.9732 141.8788 L192.9732 141.8788"
                  style="fill:none; clip-path:url(#clipPath1);"/>
        </g>
        <g transform="translate(6,5)"
           style="text-rendering:optimizeLegibility; font-family:'Lucida Bright'; color-interpolation:linearRGB; color-rendering:optimizeQuality; image-rendering:optimizeQuality;">
            <path d="M194.9732 114.5013 L192.9732 114.5013"
                  style="fill:none; clip-path:url(#clipPath1);"/>
        </g>
        <g transform="translate(6,5)"
           style="text-rendering:optimizeLegibility; font-family:'Lucida Bright'; color-interpolation:linearRGB; color-rendering:optimizeQuality; image-rendering:optimizeQuality;">
            <path d="M194.9732 100.8125 L192.9732 100.8125"
                  style="fill:none; clip-path:url(#clipPath1);"/>
        </g>
        <g transform="translate(6,5)"
           style="text-rendering:optimizeLegibility; font-family:'Lucida Bright'; color-interpolation:linearRGB; color-rendering:optimizeQuality; image-rendering:optimizeQuality;">
            <path d="M194.9732 87.1237 L192.9732 87.1237"
                  style="fill:none; clip-path:url(#clipPath1);"/>
        </g>
        <g transform="translate(6,5)"
           style="text-rendering:optimizeLegibility; font-family:'Lucida Bright'; color-interpolation:linearRGB; color-rendering:optimizeQuality; image-rendering:optimizeQuality;">
            <path d="M194.9732 73.435 L192.9732 73.435"
                  style="fill:none; clip-path:url(#clipPath1);"/>
        </g>
        <g transform="translate(6,5)"
           style="text-rendering:optimizeLegibility; font-family:'Lucida Bright'; color-interpolation:linearRGB; color-rendering:optimizeQuality; image-rendering:optimizeQuality;">
            <path d="M194.9732 46.0574 L192.9732 46.0574"
                  style="fill:none; clip-path:url(#clipPath1);"/>
        </g>
        <g transform="translate(6,5)"
           style="text-rendering:optimizeLegibility; font-family:'Lucida Bright'; color-interpolation:linearRGB; color-rendering:optimizeQuality; image-rendering:optimizeQuality;">
            <path d="M194.9732 32.3686 L192.9732 32.3686"
                  style="fill:none; clip-path:url(#clipPath1);"/>
        </g>
        <g transform="translate(6,5)"
           style="text-rendering:optimizeLegibility; font-family:'Lucida Bright'; color-interpolation:linearRGB; color-rendering:optimizeQuality; image-rendering:optimizeQuality;">
            <path d="M194.9732 18.6798 L192.9732 18.6798"
                  style="fill:none; clip-path:url(#clipPath1);"/>
        </g>
        <g transform="translate(6,5)"
           style="text-rendering:optimizeLegibility; font-family:'Lucida Bright'; color-interpolation:linearRGB; color-rendering:optimizeQuality; image-rendering:optimizeQuality;">
            <path d="M194.9732 4.9911 L192.9732 4.9911"
                  style="fill:none; clip-path:url(#clipPath1);"/>
        </g>
    </g>
</svg>
