<?xml version="1.0" encoding="UTF-8"?>
<!DOCTYPE svg PUBLIC '-//W3C//DTD SVG 1.0//EN'
    'http://www.w3.org/TR/2001/REC-SVG-20010904/DTD/svg10.dtd' >

<svg style="stroke-dasharray:none; shape-rendering:auto; font-family:'Dialog'; text-rendering:auto; fill-opacity:1; color-interpolation:auto; color-rendering:auto; font-size:12px; fill:black; stroke:black; image-rendering:auto; stroke-miterlimit:10; stroke-linecap:square; stroke-linejoin:miter; font-style:normal; stroke-width:1; stroke-dashoffset:0; font-weight:normal; stroke-opacity:1;"
     xmlns="http://www.w3.org/2000/svg" contentScriptType="text/ecmascript"
     preserveAspectRatio="xMidYMid meet"
     xmlns:xlink="http://www.w3.org/1999/xlink" zoomAndPan="magnify"
     version="1.0" contentStyleType="text/css">
    <!--Generated by the Batik Graphics2D SVG Generator-->
    <defs id="genericDefs"/>
    <g>
        <defs id="defs1">
            <clipPath clipPathUnits="userSpaceOnUse" id="clipPath1">
                <path d="M0 0 L390 0 L390 390 L0 390 L0 0 Z"/>
            </clipPath>
            <clipPath clipPathUnits="userSpaceOnUse" id="clipPath2">
                <path d="M1 0 L1 389 L390 389 L390 0 Z"/>
            </clipPath>
            <clipPath clipPathUnits="userSpaceOnUse" id="clipPath3">
                <path d="M272 202 L272 220 L291 220 L291 202 Z"/>
            </clipPath>
            <clipPath clipPathUnits="userSpaceOnUse" id="clipPath4">
                <path d="M6 5 L396 5 L396 395 L6 395 L6 5 Z"/>
            </clipPath>
            <clipPath clipPathUnits="userSpaceOnUse" id="clipPath5">
                <path d="M21 191 L21 207 L29 207 L29 191 Z"/>
            </clipPath>
            <clipPath clipPathUnits="userSpaceOnUse" id="clipPath6">
                <path d="M95 191 L95 207 L103 207 L103 191 Z"/>
            </clipPath>
            <clipPath clipPathUnits="userSpaceOnUse" id="clipPath7">
                <path d="M108 80 L108 98 L128 98 L128 80 Z"/>
            </clipPath>
            <clipPath clipPathUnits="userSpaceOnUse" id="clipPath8">
                <path d="M153 318 L153 334 L161 334 L161 318 Z"/>
            </clipPath>
            <clipPath clipPathUnits="userSpaceOnUse" id="clipPath9">
                <path d="M139 247 L139 263 L147 263 L147 247 Z"/>
            </clipPath>
        </defs>
        <g transform="translate(6,5)"
           style="stroke-linecap:butt; fill:rgb(165,165,165); text-rendering:optimizeLegibility; image-rendering:optimizeQuality; color-rendering:optimizeQuality; font-family:'Lucida Bright'; stroke-linejoin:round; stroke:rgb(165,165,165); color-interpolation:linearRGB;">
            <path d="M24.0363 388 L24.0363 1"
                  style="fill:none; clip-path:url(#clipPath1);"/>
            <path d="M98.7965 388 L98.7965 1"
                  style="fill:none; clip-path:url(#clipPath1);"/>
            <path d="M173.5567 388 L173.5567 1"
                  style="fill:none; clip-path:url(#clipPath1);"/>
            <path d="M248.3169 388 L248.3169 1"
                  style="fill:none; clip-path:url(#clipPath1);"/>
            <path d="M323.077 388 L323.077 1"
                  style="fill:none; clip-path:url(#clipPath1);"/>
            <path d="M61.4164 388 L61.4164 1"
                  style="fill:none; clip-path:url(#clipPath1); stroke:rgb(233,233,233);"/>
            <path d="M136.1766 388 L136.1766 1"
                  style="fill:none; clip-path:url(#clipPath1); stroke:rgb(233,233,233);"/>
            <path d="M210.9368 388 L210.9368 1"
                  style="fill:none; clip-path:url(#clipPath1); stroke:rgb(233,233,233);"/>
            <path d="M285.6969 388 L285.6969 1"
                  style="fill:none; clip-path:url(#clipPath1); stroke:rgb(233,233,233);"/>
            <path d="M360.4571 388 L360.4571 1"
                  style="fill:none; clip-path:url(#clipPath1); stroke:rgb(233,233,233);"/>
        </g>
        <g transform="translate(6,5)"
           style="stroke-linecap:butt; fill:rgb(165,165,165); text-rendering:optimizeLegibility; image-rendering:optimizeQuality; color-rendering:optimizeQuality; font-family:'Lucida Bright'; stroke-linejoin:round; stroke:rgb(165,165,165); color-interpolation:linearRGB;">
            <path d="M2 320.2275 L389 320.2275"
                  style="fill:none; clip-path:url(#clipPath1);"/>
            <path d="M2 249.3393 L389 249.3393"
                  style="fill:none; clip-path:url(#clipPath1);"/>
            <path d="M2 178.451 L389 178.451"
                  style="fill:none; clip-path:url(#clipPath1);"/>
            <path d="M2 107.5627 L389 107.5627"
                  style="fill:none; clip-path:url(#clipPath1);"/>
            <path d="M2 36.6744 L389 36.6744"
                  style="fill:none; clip-path:url(#clipPath1);"/>
            <path d="M2 376.9381 L389 376.9381"
                  style="fill:none; clip-path:url(#clipPath1); stroke:rgb(233,233,233);"/>
            <path d="M2 362.7605 L389 362.7605"
                  style="fill:none; clip-path:url(#clipPath1); stroke:rgb(233,233,233);"/>
            <path d="M2 348.5829 L389 348.5829"
                  style="fill:none; clip-path:url(#clipPath1); stroke:rgb(233,233,233);"/>
            <path d="M2 334.4052 L389 334.4052"
                  style="fill:none; clip-path:url(#clipPath1); stroke:rgb(233,233,233);"/>
            <path d="M2 306.0499 L389 306.0499"
                  style="fill:none; clip-path:url(#clipPath1); stroke:rgb(233,233,233);"/>
            <path d="M2 291.8722 L389 291.8722"
                  style="fill:none; clip-path:url(#clipPath1); stroke:rgb(233,233,233);"/>
            <path d="M2 277.6946 L389 277.6946"
                  style="fill:none; clip-path:url(#clipPath1); stroke:rgb(233,233,233);"/>
            <path d="M2 263.5169 L389 263.5169"
                  style="fill:none; clip-path:url(#clipPath1); stroke:rgb(233,233,233);"/>
            <path d="M2 235.1616 L389 235.1616"
                  style="fill:none; clip-path:url(#clipPath1); stroke:rgb(233,233,233);"/>
            <path d="M2 220.984 L389 220.984"
                  style="fill:none; clip-path:url(#clipPath1); stroke:rgb(233,233,233);"/>
            <path d="M2 206.8063 L389 206.8063"
                  style="fill:none; clip-path:url(#clipPath1); stroke:rgb(233,233,233);"/>
            <path d="M2 192.6286 L389 192.6286"
                  style="fill:none; clip-path:url(#clipPath1); stroke:rgb(233,233,233);"/>
            <path d="M2 164.2733 L389 164.2733"
                  style="fill:none; clip-path:url(#clipPath1); stroke:rgb(233,233,233);"/>
            <path d="M2 150.0957 L389 150.0957"
                  style="fill:none; clip-path:url(#clipPath1); stroke:rgb(233,233,233);"/>
            <path d="M2 135.918 L389 135.918"
                  style="fill:none; clip-path:url(#clipPath1); stroke:rgb(233,233,233);"/>
            <path d="M2 121.7404 L389 121.7404"
                  style="fill:none; clip-path:url(#clipPath1); stroke:rgb(233,233,233);"/>
            <path d="M2 93.3851 L389 93.3851"
                  style="fill:none; clip-path:url(#clipPath1); stroke:rgb(233,233,233);"/>
            <path d="M2 79.2074 L389 79.2074"
                  style="fill:none; clip-path:url(#clipPath1); stroke:rgb(233,233,233);"/>
            <path d="M2 65.0298 L389 65.0298"
                  style="fill:none; clip-path:url(#clipPath1); stroke:rgb(233,233,233);"/>
            <path d="M2 50.8521 L389 50.8521"
                  style="fill:none; clip-path:url(#clipPath1); stroke:rgb(233,233,233);"/>
            <path d="M2 22.4968 L389 22.4968"
                  style="fill:none; clip-path:url(#clipPath1); stroke:rgb(233,233,233);"/>
            <path d="M2 8.3192 L389 8.3192"
                  style="fill:none; clip-path:url(#clipPath1); stroke:rgb(233,233,233);"/>
        </g>
        <g transform="translate(6,5)"
           style="stroke-linecap:butt; fill:blue; text-rendering:optimizeLegibility; image-rendering:optimizeQuality; color-rendering:optimizeQuality; font-family:'Lucida Bright'; stroke-linejoin:round; stroke:blue; color-interpolation:linearRGB; stroke-width:1.5;">
            <path d="M2.0128 6.6347 L2.3993 9.3988 L2.7456 10.7885 L3.1797 12.24 L3.511 13.0919 L4.2258 15.0812 L5.0092 16.8526 L5.449 17.9225 L6.5074 20.0908 L6.8142 20.7637 L8.0056 23.0202 L8.2952 23.6049 L9.5038 25.7522 L9.8716 26.4461 L11.002 28.35 L11.5278 29.2873 L12.5002 30.8527 L13.2513 32.1285 L13.9984 33.2856 L15.032 34.9697 L15.4966 35.6654 L16.8618 37.8109 L16.9948 38.0042 L17.5115 38.7909 L18.493 40.2535 L18.7478 40.6522 L19.9912 42.4514 L20.6786 43.4934 L21.4894 44.6364 L22.6416 46.3346 L22.9876 46.8112 L24.0257 48.3033 L24.4858 48.9489 L24.6404 49.1758 L25.984 51.0182 L26.6818 52.017 L27.4822 53.0921 L28.7441 54.8582 L28.9804 55.1698 L29.574 55.9838 L30.4786 57.1936 L30.8415 57.6994 L31.9768 59.1898 L32.9657 60.5406 L33.475 61.1981 L34.6592 62.7863 L34.9732 63.1968 L35.1092 63.3819 L36.4714 65.1328 L37.2875 66.2231 L37.9696 67.0867 L39.4524 69.0351 L39.4678 69.0548 L39.4749 69.0643 L40.966 70.9443 L41.7003 71.9055 L42.4642 72.8555 L43.9311 74.7467 L43.9624 74.7852 L44.024 74.8636 L45.4606 76.6429 L46.1963 77.5879 L46.9588 78.5206 L48.4402 80.3973 L48.457 80.418 L48.4657 80.4291 L49.9552 82.244 L50.7685 83.2704 L51.4534 84.0954 L52.7225 85.6771 L52.9516 85.9551 L53.076 86.1116 L54.4498 87.7599 L55.4104 88.9528 L55.948 89.5912 L56.9023 90.7625 L57.4462 91.4126 L57.7545 91.794 L58.9444 93.2016 L60.1166 94.6352 L60.4426 95.0172 L60.9992 95.6908 L61.9408 96.8003 L62.4956 97.4764 L63.439 98.5777 L64.882 100.3176 L64.9372 100.3816 L65.0282 100.4902 L66.4354 102.1267 L67.2945 103.1588 L67.9336 103.8958 L68.9766 105.1369 L69.4318 105.6642 L69.7123 106.0001 L70.93 107.3987 L72.1466 108.8413 L72.4282 109.1622 L72.8732 109.6852 L73.9264 110.8904 L74.5968 111.6825 L75.4246 112.6224 L76.7206 114.1403 L76.9228 114.3708 L77.0527 114.5237 L78.421 116.0716 L79.5292 117.3649 L79.9192 117.803 L80.5121 118.4894 L81.4174 119.5097 L82.0162 120.2061 L82.9156 121.2126 L84.2706 122.7758 L84.4138 122.9366 L84.5094 123.0473 L85.912 124.6113 L87.0229 125.8885 L87.4102 126.3175 L87.9782 126.9657 L88.9084 127.9991 L89.5461 128.7298 L90.4066 129.6796 L91.6577 131.1024 L91.9048 131.3759 L92.0757 131.571 L93.403 133.0309 L94.6217 134.4122 L94.9012 134.7178 L95.2977 135.164 L96.3994 136.3715 L97.1802 137.2534 L97.8976 138.035 L98.9068 139.1672 L99.3958 139.7012 L99.7453 140.0946 L100.894 141.3417 L102.3197 142.9358 L102.3922 143.0141 L102.4919 143.1249 L103.8904 144.6378 L104.9127 145.777 L105.3886 146.2891 L106.0377 147.008 L106.8868 147.9233 L107.5126 148.6183 L108.385 149.5538 L109.5652 150.8565 L109.8832 151.198 L110.1195 151.4595 L111.3814 152.808 L112.7383 154.3007 L112.8796 154.4509 L113.0668 154.6557 L114.3778 156.0517 L115.3722 157.1419 L115.876 157.6758 L116.5383 158.398 L117.3742 159.2848 L118.0133 159.9831 L118.8724 160.8904 L119.9929 162.1081 L120.3706 162.5074 L120.6617 162.8243 L121.8688 164.0947 L123.3191 165.6655 L123.367 165.7157 L123.4282 165.7817 L124.8652 167.2887 L125.9937 168.5067 L126.3634 168.8929 L126.8329 169.3972 L127.8616 170.4722 L128.6758 171.348 L129.3598 172.0599 L130.2218 172.9827 L130.858 173.6452 L131.3655 174.1892 L132.3562 175.2167 L133.595 176.5384 L133.8544 176.8076 L134.0629 177.0304 L135.3526 178.3633 L136.771 179.8716 L136.8508 179.9538 L136.9488 180.0575 L138.349 181.4995 L139.4939 182.7128 L139.8472 183.0754 L140.2783 183.5303 L141.3454 184.6254 L142.2246 185.554 L142.8436 186.187 L143.593 186.9751 L144.3418 187.7409 L144.9635 188.3952 L145.84 189.2885 L146.8931 190.3923 L147.3382 190.8458 L147.7106 191.2365 L148.8364 192.3797 L150.1786 193.782 L150.3346 193.9403 L150.4661 194.0777 L151.8328 195.4608 L153.2333 196.9189 L153.331 197.0174 L153.4457 197.1364 L154.8292 198.5315 L156.0134 199.7601 L156.3274 200.0759 L156.6935 200.4543 L157.8256 201.5918 L158.8019 202.6013 L159.3238 203.1243 L159.9276 203.7464 L160.822 204.6418 L161.5991 205.4425 L162.3202 206.1625 L163.1482 207.0127 L163.8184 207.6813 L164.4052 208.2837 L165.3166 209.1906 L166.3553 210.2536 L166.8148 210.7102 L167.2201 211.125 L168.313 212.2084 L169.5491 213.469 L169.8112 213.7286 L170.0442 213.9662 L171.3094 215.216 L172.7296 216.6594 L172.8076 216.7364 L172.8775 216.8074 L174.3058 218.2132 L175.723 219.6486 L175.804 219.7282 L175.8938 219.8188 L177.3022 221.2001 L178.58 222.4898 L178.8004 222.7055 L179.0427 222.9494 L180.2986 224.1765 L181.4465 225.331 L181.7968 225.6726 L182.1791 226.0561 L183.295 227.1424 L184.3226 228.1722 L184.7932 228.6296 L185.3031 229.1393 L186.2914 230.0978 L187.2083 231.0134 L187.7896 231.5762 L188.4147 232.1989 L189.2878 233.0425 L190.1039 233.8546 L190.786 234.5126 L191.514 235.2353 L192.2842 235.9767 L193.0096 236.6959 L193.7824 237.4387 L194.6011 238.2485 L195.2806 238.9001 L195.9254 239.5371 L196.7788 240.3543 L197.6761 241.2387 L198.277 241.8127 L198.8516 242.3783 L199.7752 243.2595 L200.739 244.206 L201.2734 244.7146 L201.7883 245.2195 L202.7716 246.1541 L203.7899 247.1507 L204.2698 247.6055 L204.7357 248.0607 L205.768 249.0382 L206.8289 250.0727 L207.2662 250.4856 L207.694 250.9019 L208.7644 251.9117 L209.8562 252.9724 L210.2626 253.3546 L210.6633 253.7431 L211.7608 254.7745 L212.8717 255.8498 L213.259 256.2126 L213.6438 256.5844 L214.7572 257.6266 L215.8755 258.7051 L216.2554 259.0596 L216.6357 259.4256 L217.7536 260.468 L218.8677 261.5384 L219.2518 261.8953 L219.6393 262.2668 L220.75 263.2984 L221.8484 264.3499 L222.2482 264.7199 L222.6546 265.108 L223.7464 266.118 L224.8177 267.1397 L225.2446 267.5331 L225.682 267.9492 L226.7428 268.9267 L227.7757 269.908 L228.241 270.3351 L228.7216 270.7904 L229.7392 271.7244 L230.7223 272.6548 L231.2374 273.1256 L231.7736 273.6317 L232.7356 274.511 L233.6577 275.3804 L234.2338 275.9048 L234.8383 276.4728 L235.732 277.2866 L236.582 278.0848 L237.2302 278.6724 L237.9157 279.3141 L238.7284 280.0509 L239.4951 280.7682 L240.2266 281.4284 L241.0063 282.1553 L241.7248 282.8041 L242.3974 283.4307 L243.223 284.1728 L244.1102 284.9965 L244.7212 285.546 L245.2886 286.0726 L246.2194 286.9055 L247.2276 287.8377 L247.7176 288.2765 L248.169 288.6938 L249.2158 289.6264 L250.3588 290.6789 L250.714 290.9957 L251.0386 291.2945 L252.2122 292.3356 L253.504 293.5201 L253.7104 293.7034 L253.8974 293.8749 L255.2086 295.0328 L256.6635 296.3613 L256.7068 296.3996 L256.7457 296.4351 L258.205 297.7182 L259.5794 298.9678 L259.7032 299.076 L259.8431 299.2026 L261.2014 300.3915 L262.401 301.4775 L262.6996 301.7372 L263.0399 302.0438 L264.1978 303.0527 L265.2118 303.9668 L265.696 304.3859 L266.2524 304.885 L267.1942 305.7018 L268.0119 306.4358 L268.6924 307.022 L269.4811 307.7262 L270.1906 308.3387 L270.8014 308.8846 L271.6888 309.6454 L272.7262 310.5674 L273.187 310.9634 L273.5803 311.3133 L274.6852 312.2561 L275.988 313.4086 L276.1834 313.5757 L276.3487 313.7222 L277.6816 314.854 L279.1043 316.1067 L279.1798 316.1703 L279.2707 316.2498 L280.678 317.4389 L281.8437 318.4605 L282.1762 318.7392 L282.5803 319.0911 L283.6744 320.0109 L284.5725 320.7943 L285.1726 321.2946 L285.9086 321.9323 L286.6708 322.5698 L287.2908 323.108 L288.169 323.8363 L289.2561 324.7735 L289.6672 325.1156 L289.9986 325.4019 L291.1654 326.3644 L292.623 327.6147 L292.6636 327.6483 L292.696 327.6761 L294.1618 328.8788 L295.3737 329.913 L295.66 330.1456 L296.0266 330.4559 L297.1582 331.3793 L298.0398 332.1278 L298.6564 332.6258 L299.4537 333.2971 L300.1546 333.8659 L300.6954 334.3227 L301.6528 335.0915 L302.9029 336.1383 L303.151 336.3385 L303.3405 336.4978 L304.6492 337.5426 L305.9694 338.642 L306.1474 338.7824 L306.3864 338.9796 L307.6456 339.9789 L308.5811 340.7537 L309.1438 341.1948 L309.9072 341.8208 L310.642 342.4005 L311.1823 342.8454 L312.1402 343.5917 L313.4533 344.662 L313.6384 344.8071 L313.773 344.9174 L315.1366 345.973 L316.3435 346.9507 L316.6348 347.1731 L317.047 347.5032 L318.133 348.3385 L318.8985 348.955 L319.6312 349.5103 L320.6795 350.3444 L321.1294 350.6882 L321.443 350.9392 L322.6276 351.8309 L323.9717 352.8934 L324.1258 353.0075 L324.3542 353.1856 L325.624 354.1347 L326.4782 354.8056 L327.1222 355.2787 L328.0884 356.0268 L328.6204 356.4217 L328.9741 356.6977 L330.1186 357.5322 L331.4536 358.5586 L331.6168 358.6753 L331.8716 358.868 L333.115 359.7678 L333.9091 360.3739 L334.6132 360.8732 L335.7269 361.7093 L336.1114 361.9853 L336.3538 362.169 L337.6096 363.052 L338.7756 363.9205 L339.1078 364.1487 L339.6577 364.5505 L340.606 365.2116 L341.1772 365.6337 L342.1042 366.2645 L343.5667 367.324 L343.6024 367.3477 L343.6646 367.3917 L345.1006 368.3598 L345.9223 368.95 L346.5988 369.3933 L347.7953 370.2329 L348.097 370.4344 L348.2671 370.5555 L349.5952 371.4168 L350.5807 372.1018 L351.0934 372.4233 L352.0558 373.0741 L352.5916 373.418 L352.8762 373.614 L354.0898 374.3661 L355.1426 375.0706 L355.588 375.3358 L356.4829 375.9153 L357.0862 376.2849 L357.3856 376.4831 L358.5844 377.1874 L359.5968 377.8354 L360.0826 378.107 L361.1387 378.7565 L361.5808 379.0128 L361.7835 379.141 L363.079 379.8545 L363.9304 380.3712 L364.5772 380.7061 L366.0557 381.5604 L366.0754 381.5699 L366.1266 381.5977 L367.5736 382.3338 L368.128 382.6492 L369.0718 383.0929 L370.1698 383.68 L370.57 383.8503 L371.759 384.439 L372.0682 384.5812 L372.1719 384.6356 L373.5664 385.2133 L374.1147 385.4789 L375.0646 385.8213 L376.0115 386.2348 L376.5628 386.3981 L377.8546 386.8888 L378.061 386.9339 L379.1748 387.2802 L379.5592 387.3887 L379.6301 387.4147 L381.0574 387.704 L381.3221 387.7822 L382.5556 387.9104 L382.9288 387.988 L384.0538 387.9634 L384.4333 388 L385.552 387.7907 L385.8142 387.7775 L387.0151 387.2802 L387.0428 387.2662 L387.0502 387.2574 L388.0391 386.3144 L388.5484 385.2245 L388.7621 384.8443 L388.8542 384.439 L389 382.4542 L388.9419 381.5977 L388.5484 379.4761 L388.4279 378.7565 L388.2979 378.2815 L387.5453 375.9153 L387.0502 374.695 L386.4414 373.0741 L385.552 371.1264 L385.1721 370.2329 L384.0538 367.9989 L383.7694 367.3917 L382.5556 365.139 L382.2577 364.5505 L381.0574 362.4538 L380.6555 361.7093 L379.5592 359.8887 L378.9778 358.868 L378.061 357.4099 L377.236 356.0268 L376.5628 354.9952 L375.4396 353.1856 L375.0646 352.6292 L373.5962 350.3444 L373.5664 350.3014 L373.4554 350.1339 L372.0682 348.0856 L371.6923 347.5032 L370.57 345.8924 L369.7512 344.662 L369.0718 343.7111 L367.7791 341.8208 L367.5736 341.5394 L366.9739 340.6835 L366.0754 339.4317 L365.7649 338.9796 L364.5772 337.3613 L363.7168 336.1383 L363.079 335.2865 L361.6486 333.2971 L361.5808 333.2082 L361.4138 332.9805 L360.0826 331.2104 L359.5378 330.4559 L358.5844 329.2108 L357.4093 327.6147 L357.0862 327.1995 L356.3475 326.2139 L355.588 325.2262 L355.2533 324.7735 L354.0898 323.2848 L353.0722 321.9323 L352.5916 321.3264 L351.5622 319.9802 L351.0934 319.3828 L350.873 319.0911 L349.5952 317.4868 L348.6458 316.2498 L348.097 315.57 L346.9872 314.1453 L346.5988 313.6596 L346.4054 313.4086 L345.1006 311.7986 L344.1379 310.5674 L343.6024 309.9147 L342.5737 308.6166 L342.1042 308.0396 L341.8582 307.7262 L340.606 306.2059 L339.5553 304.885 L339.1078 304.3476 L338.2868 303.3282 L337.6096 302.5091 L337.238 302.0438 L336.1114 300.6962 L334.9042 299.2026 L334.6132 298.858 L334.1012 298.2316 L333.115 297.0566 L332.551 296.3613 L331.6168 295.2595 L330.1899 293.5201 L330.1186 293.4367 L329.9977 293.2909 L328.6204 291.6726 L327.8023 290.6789 L327.1222 289.8871 L325.9816 288.5159 L325.624 288.0973 L325.4095 287.8377 L324.1258 286.3488 L322.9969 284.9965 L322.6276 284.5717 L322.0292 283.8617 L321.1294 282.822 L320.5708 282.1553 L319.6312 281.0786 L318.139 279.3141 L318.133 279.3073 L318.1235 279.2962 L316.6348 277.5966 L315.6811 276.4728 L315.1366 275.856 L314.2895 274.8663 L313.6384 274.1259 L313.2175 273.6317 L312.1402 272.4156 L310.7441 270.7904 L310.642 270.6759 L310.4876 270.4976 L309.1438 268.9863 L308.2498 267.9492 L307.6456 267.2744 L306.7404 266.2325 L306.1474 265.5681 L305.7493 265.108 L304.6492 263.8837 L303.2395 262.2668 L303.151 262.1689 L303.0218 262.0218 L301.6528 260.5038 L300.7094 259.4256 L300.1546 258.8142 L299.3518 257.9032 L298.6564 257.1349 L298.1731 256.5844 L297.1582 255.4701 L295.7025 253.8237 L295.66 253.777 L295.6302 253.7431 L294.1618 252.1368 L293.0662 250.9019 L292.6636 250.464 L292.0997 249.8325 L291.1654 248.8141 L290.4947 248.0607 L289.6672 247.1638 L288.518 245.8813 L288.169 245.5023 L287.9163 245.2195 L286.6708 243.8742 L285.3258 242.3783 L285.1726 242.2137 L284.9644 241.9836 L283.6744 240.5952 L282.7198 239.5371 L282.1762 238.955 L281.4436 238.1478 L280.678 237.3268 L280.1068 236.6959 L279.1798 235.7067 L277.9406 234.3458 L277.6816 234.0691 L277.4868 233.8546 L276.1834 232.4688 L274.8537 231.0134 L274.6852 230.8351 L274.4644 230.5948 L273.187 229.2413 L272.2068 228.1722 L271.6888 227.6258 L271.0154 226.8952 L270.1906 226.0244 L269.5527 225.331 L268.6924 224.4267 L267.5829 223.227 L267.1942 222.8181 L266.8911 222.4898 L265.696 221.238 L264.2213 219.6486 L264.1978 219.6241 L264.1681 219.5923 L262.6996 218.0596 L261.5338 216.8074 L261.2014 216.4618 L260.7837 216.0153 L259.7032 214.8916 L258.8387 213.9662 L258.205 213.3096 L257.4149 212.4678 L256.7068 211.734 L256.1359 211.125 L255.2086 210.1676 L254.0614 208.9495 L253.7104 208.587 L253.4251 208.2837 L252.2122 207.0359 L250.7232 205.4601 L250.714 205.4505 L250.7064 205.4425 L249.2158 203.9144 L247.9709 202.6013 L247.7176 202.3425 L247.4117 202.0213 L246.2194 200.8033 L245.227 199.7601 L244.7212 199.2451 L244.115 198.6104 L243.223 197.7025 L242.4749 196.9189 L241.7248 196.1578 L240.8326 195.2268 L240.2266 194.6123 L239.7145 194.0777 L238.7284 193.0807 L237.5643 191.8701 L237.2302 191.5325 L236.9456 191.2365 L235.732 190.0137 L234.3103 188.5403 L234.2338 188.4633 L234.1682 188.3952 L232.7356 186.9571 L231.3772 185.554 L231.2374 185.4141 L231.076 185.248 L229.7392 183.9108 L228.5753 182.7128 L228.241 182.3792 L227.8578 181.9861 L226.7428 180.8748 L225.7648 179.8716 L225.2446 179.3544 L224.6529 178.7495 L223.7464 177.8493 L222.9453 177.0304 L222.2482 176.3398 L221.4612 175.538 L220.75 174.8342 L220.1167 174.1892 L219.2518 173.3354 L218.2827 172.3513 L217.7536 171.8297 L217.2789 171.348 L216.2554 170.3412 L215.1171 169.1893 L214.7572 168.8358 L214.4318 168.5067 L213.259 167.3573 L211.9646 166.052 L211.7608 165.8526 L211.5752 165.6655 L210.2626 164.3838 L208.8248 162.9389 L208.7644 162.88 L208.7089 162.8243 L207.2662 161.4206 L205.8306 159.9831 L205.768 159.9222 L205.7002 159.8545 L204.2698 158.4679 L202.9409 157.1419 L202.7716 156.9781 L202.5898 156.7971 L201.2734 155.5258 L200.0413 154.3007 L199.7752 154.0441 L199.4915 153.7628 L198.277 152.5942 L197.1317 151.4595 L196.7788 151.1204 L196.4054 150.7513 L195.2806 149.6732 L194.2119 148.6183 L193.7824 148.2071 L193.3312 147.7627 L192.2842 146.7628 L191.2819 145.777 L190.786 145.3041 L190.269 144.7967 L189.2878 143.8633 L188.3414 142.9358 L187.7896 142.4115 L187.2187 141.8531 L186.2914 140.9744 L185.3903 140.0946 L184.7932 139.5294 L184.1801 138.9319 L183.295 138.0964 L182.4283 137.2534 L181.7968 136.6578 L181.1532 136.0329 L180.2986 135.2294 L179.4554 134.4122 L178.8004 133.7968 L178.1379 133.1559 L177.3022 132.3732 L176.4713 131.571 L175.804 130.9464 L175.1342 130.3008 L174.3058 129.528 L173.4758 128.7298 L172.8076 128.1068 L172.142 127.4675 L171.3094 126.6939 L170.4688 125.8885 L169.8112 125.2778 L169.1612 124.6558 L168.313 123.8709 L167.4501 123.0473 L166.8148 122.4596 L166.1917 121.8656 L165.3166 121.0591 L164.4194 120.2061 L163.8184 119.6523 L163.2334 119.0967 L162.3202 118.2585 L161.3766 117.3649 L160.822 116.8559 L160.2863 116.3491 L159.3238 115.4692 L158.3215 114.5237 L157.8256 114.0704 L157.3504 113.6225 L156.3274 112.6913 L155.2538 111.6825 L154.8292 111.2959 L154.4255 110.9169 L153.331 109.9247 L152.1733 108.8413 L151.8328 108.5325 L151.5116 108.2321 L150.3346 107.1696 L149.0798 106.0001 L148.8364 105.7802 L148.6085 105.5679 L147.3382 104.426 L145.9731 103.1588 L145.84 103.0391 L145.7163 102.9243 L144.3418 101.694 L142.853 100.3176 L142.8436 100.3092 L142.8349 100.3012 L141.3454 98.9737 L139.968 97.7054 L139.8472 97.5984 L139.7142 97.4764 L138.349 96.265 L137.1123 95.1311 L136.8508 94.9004 L136.5604 94.6352 L135.3526 93.5681 L134.2675 92.5773 L133.8544 92.2145 L133.3918 91.794 L132.3562 90.8831 L131.4335 90.0441 L130.858 89.541 L130.2081 88.9528 L129.3598 88.21 L128.6102 87.5313 L127.8616 86.8798 L127.009 86.1116 L126.3634 85.5487 L125.7977 85.0387 L124.8652 84.231 L123.7943 83.2704 L123.367 82.8995 L122.9957 82.5663 L121.8688 81.5947 L120.5636 80.4291 L120.3706 80.2624 L120.2043 80.1138 L118.8724 78.9709 L117.425 77.6842 L117.3742 77.641 L117.3142 77.5879 L115.876 76.3599 L114.6619 75.2854 L114.3778 75.0447 L114.039 74.7467 L112.8796 73.7614 L111.9094 72.9068 L111.3814 72.4616 L110.7461 71.9055 L109.8832 71.1758 L109.1675 70.5483 L108.385 69.8918 L107.435 69.0643 L106.8868 68.603 L106.4362 68.2097 L105.3886 67.3354 L104.1054 66.2231 L103.8904 66.043 L103.7152 65.8909 L102.3922 64.7925 L101.0084 63.5988 L100.894 63.5047 L100.7505 63.3819 L99.3958 62.2631 L98.3181 61.338 L97.8976 60.9941 L97.3652 60.5406 L96.3994 59.7472 L95.6383 59.0972 L94.9012 58.4977 L93.959 57.6994 L93.403 57.2451 L92.9689 56.8763 L91.9048 56.0155 L90.5315 54.8582 L90.4066 54.7567 L90.31 54.6751 L88.9084 53.5478 L87.6701 52.5098 L87.4102 52.3032 L87.0656 52.017 L85.912 51.0945 L85.044 50.3709 L84.4138 49.8728 L83.5697 49.1758 L82.9156 48.6558 L82.4284 48.2518 L81.4174 47.4577 L80.0494 46.3346 L79.9192 46.2317 L79.8232 46.1525 L78.421 45.0579 L77.2391 44.0933 L76.9228 43.8496 L76.4814 43.4934 L75.4246 42.6735 L74.669 42.0605 L73.9264 41.4924 L72.8789 40.6522 L72.4282 40.3047 L72.1094 40.0475 L70.93 39.1514 L69.5648 38.0632 L69.4318 37.9637 L69.2376 37.8109 L67.9336 36.8268 L67.0425 36.1211 L66.4354 35.6703 L65.5388 34.9697 L64.9372 34.5188 L64.5308 34.199 L63.439 33.3943 L62.0328 32.3031 L61.9408 32.2365 L61.7995 32.1285 L60.4426 31.1359 L59.5608 30.4563 L58.9444 30.014 L57.9864 29.2873 L57.4462 28.8951 L57.0994 28.6297 L55.948 27.8101 L54.6563 26.8376 L54.4498 26.6939 L54.1146 26.4461 L52.9516 25.6251 L52.2372 25.0913 L51.4534 24.5505 L50.1636 23.6049 L49.9552 23.459 L49.8289 23.3653 L48.457 22.4273 L47.4499 21.695 L46.9588 21.3681 L46.1091 20.7637 L45.4606 20.3242 L45.0868 20.0547 L43.9624 19.3136 L42.7455 18.4559 L42.4642 18.2762 L41.9492 17.9225 L40.966 17.2809 L40.4305 16.907 L39.4678 16.2989 L38.1331 15.3914 L37.9696 15.2919 L37.6502 15.0812 L36.4714 14.3451 L35.8697 13.9401 L34.9732 13.4017 L33.6235 12.5216 L33.475 12.4364 L33.1625 12.24 L31.9768 11.5369 L31.4151 11.1749 L30.4786 10.6452 L29.2288 9.8699 L28.9804 9.7372 L28.4098 9.3988 L27.4822 8.8819 L27.0796 8.6354 L25.984 8.0597 L24.9635 7.4634 L24.4858 7.2298 L23.2681 6.5576 L22.9876 6.4128 L22.8779 6.3496 L21.4894 5.6841 L20.8443 5.3341 L19.9912 4.962 L18.845 4.3839 L18.493 4.2481 L17.3367 3.7164 L16.9948 3.5709 L16.8911 3.5197 L15.4966 2.9984 L15.0008 2.7761 L13.9984 2.4627 L13.164 2.134 L12.5002 1.9755 L11.3898 1.6107 L11.002 1.5533 L9.6898 1.2278 L9.5038 1.2216 L8.0781 1.0127 L8.0056 1.0211 L6.5732 1 L6.5074 1.0208 L5.1988 1.2348 L5.0092 1.3492 L3.9863 1.7766 L3.511 2.2737 L2.978 2.7055 L2.422 3.7164 L2.2572 4.1798 L2.0128 6.4305 L2 6.5333 L2.0008 6.5576 L2.0128 6.6347"
                  style="fill:none; clip-path:url(#clipPath2);"/>
        </g>
        <g transform="translate(6,5)"
           style="stroke-linecap:butt; fill:rgb(120,0,14); text-rendering:optimizeLegibility; image-rendering:optimizeQuality; color-rendering:optimizeQuality; font-family:'Lucida Bright'; stroke-linejoin:round; stroke:rgb(120,0,14); color-interpolation:linearRGB; stroke-width:1.5;">
            <path d="M297.1582 319.2805 L297.3579 319.4699 L297.3579 319.0911 L297.1582 318.8069 L296.5589 317.9546 L296.9584 319.0911 L297.1582 319.2805"
                  style="fill:none; clip-path:url(#clipPath2);"/>
            <path d="M49.9552 38.0951 L50.5545 38.9474 L50.155 37.8109 L49.9552 37.6215 L49.7554 37.4321 L49.7554 37.8109 L49.9552 38.0951"
                  style="fill:none; clip-path:url(#clipPath2);"/>
            <path d="M52.9516 41.2204 L53.7506 43.4934 L54.4498 44.4878 L55.7482 46.3346 L55.948 46.6187 L56.5473 47.4711 L57.4462 48.7496 L57.7458 49.1758 L58.9444 50.8805 L59.7434 52.017 L60.4426 53.0114 L61.741 54.8582 L61.9408 55.1423 L62.5401 55.9947 L63.439 57.2733 L63.7386 57.6994 L64.9372 59.4042 L65.7362 60.5406 L66.4354 61.5351 L67.7338 63.3819 L67.9336 63.666 L68.5329 64.5183 L69.4318 65.7969 L69.7314 66.2231 L70.93 67.9278 L71.729 69.0643 L72.4282 70.0587 L73.7266 71.9055 L73.9264 72.1896 L74.5257 73.042 L75.4246 74.3205 L75.7242 74.7467 L76.9228 76.4514 L77.7218 77.5879 L78.421 78.5824 L79.7194 80.4291 L79.9192 80.7133 L80.5185 81.5656 L81.4174 82.8442 L81.717 83.2704 L82.9156 84.9751 L83.7146 86.1116 L84.4138 87.106 L85.7122 88.9528 L85.912 89.2369 L86.5113 90.0893 L87.4102 91.3678 L87.7098 91.794 L88.9084 93.4987 L89.7074 94.6352 L90.4066 95.6296 L91.705 97.4764 L91.9048 97.7605 L92.5041 98.6129 L93.403 99.8914 L93.7026 100.3176 L94.9012 102.0223 L95.7002 103.1588 L96.3994 104.1533 L97.6978 106.0001 L97.8976 106.2842 L98.4969 107.1365 L99.3958 108.4151 L99.6954 108.8413 L100.894 110.546 L101.693 111.6825 L102.3922 112.6769 L103.6906 114.5237 L103.8904 114.8078 L104.4897 115.6602 L105.3886 116.9387 L105.6882 117.3649 L106.8868 119.0696 L107.6858 120.2061 L108.385 121.2006 L109.6834 123.0473 L109.8832 123.3315 L110.4825 124.1838 L111.3814 125.4624 L111.681 125.8885 L112.8796 127.5933 L113.6786 128.7298 L114.3778 129.7242 L115.6762 131.571 L115.876 131.8551 L116.4753 132.7075 L117.3742 133.986 L117.6738 134.4122 L118.8724 136.1169 L119.6714 137.2534 L120.3706 138.2478 L121.669 140.0946 L121.8688 140.3787 L122.4681 141.2311 L123.367 142.5096 L123.6666 142.9358 L124.8652 144.6406 L125.6642 145.777 L126.3634 146.7715 L127.6618 148.6183 L127.8616 148.9024 L128.4609 149.7548 L129.3598 151.0333 L129.6594 151.4595 L130.858 153.1642 L131.657 154.3007 L132.3562 155.2951 L133.6546 157.1419 L133.8544 157.426 L134.4537 158.2784 L135.3526 159.5569 L135.6522 159.9831 L136.8508 161.6878 L137.6498 162.8243 L138.349 163.8187 L139.6474 165.6655 L139.8472 165.9497 L140.4465 166.802 L141.3454 168.0806 L141.645 168.5067 L142.8436 170.2115 L143.6426 171.348 L144.3418 172.3424 L145.6402 174.1892 L145.84 174.4733 L146.4393 175.3257 L147.3382 176.6042 L147.6378 177.0304 L148.8364 178.3942 L150.1348 179.8716 L150.3346 180.061 L150.5343 180.2504 L151.8328 181.4816 L153.1312 182.7128 L153.331 182.9022 L153.5307 183.0916 L154.8292 184.3228 L156.1276 185.554 L156.3274 185.7434 L156.5272 185.9328 L157.8256 187.164 L159.124 188.3952 L159.3238 188.5847 L159.5235 188.7741 L160.822 190.0053 L162.1204 191.2365 L162.3202 191.4259 L162.5199 191.6153 L163.8184 192.8465 L165.1168 194.0777 L165.3166 194.2671 L165.5164 194.4565 L166.8148 195.6877 L168.1132 196.9189 L168.313 197.1083 L168.5128 197.2977 L169.8112 198.5289 L171.1096 199.7601 L171.3094 199.9495 L171.5091 200.1389 L172.8076 201.3701 L174.106 202.6013 L174.3058 202.7907 L174.5056 202.9801 L175.804 204.2113 L177.1024 205.4425 L177.3022 205.6319 L177.502 205.8214 L178.8004 207.0525 L180.0988 208.2837 L180.2986 208.4731 L180.4984 208.6626 L181.7968 209.8938 L183.0952 211.125 L183.295 211.3144 L183.4948 211.5038 L184.7932 212.735 L186.0916 213.9662 L186.2914 214.1556 L186.4911 214.345 L187.7896 215.5762 L189.088 216.8074 L189.2878 216.9968 L189.4875 217.1862 L190.786 218.4174 L192.0844 219.6486 L192.2842 219.838 L192.4839 220.0274 L193.7824 221.2586 L195.0808 222.4898 L195.2806 222.6792 L195.4803 222.8686 L196.7788 224.0998 L198.0772 225.331 L198.277 225.5204 L198.4767 225.7098 L199.7752 226.941 L201.0736 228.1722 L201.2734 228.3616 L201.4732 228.5511 L202.7716 229.7823 L204.07 231.0134 L204.2698 231.2029 L204.4696 231.3923 L205.768 232.6235 L207.0664 233.8546 L207.2662 234.0441 L207.466 234.2335 L208.7644 235.4647 L210.0628 236.6959 L210.2626 236.8853 L210.4623 237.0747 L211.7608 238.3059 L213.0592 239.5371 L213.259 239.7265 L213.4587 239.9159 L214.7572 241.1471 L216.0556 242.3783 L216.2554 242.5677 L216.4551 242.7571 L217.7536 243.9883 L219.052 245.2195 L219.2518 245.4089 L219.4516 245.5983 L220.75 246.8295 L222.0484 248.0607 L222.2482 248.2501 L222.448 248.4395 L223.7464 249.6707 L225.0448 250.9019 L225.2446 251.0914 L225.4444 251.2808 L226.7428 252.5119 L228.0412 253.7431 L228.241 253.9326 L228.4408 254.122 L229.7392 255.3532 L231.0376 256.5844 L231.2374 256.7738 L231.4371 256.9632 L232.7356 258.1944 L234.034 259.4256 L234.2338 259.615 L234.4335 259.8044 L235.732 261.0356 L237.0304 262.2668 L237.2302 262.4562 L237.4299 262.6456 L238.7284 263.8768 L240.0268 265.108 L240.2266 265.2974 L240.4263 265.4868 L241.7248 266.718 L243.0232 267.9492 L243.223 268.1386 L243.4227 268.3281 L244.7212 269.5592 L246.0196 270.7904 L246.2194 270.9799 L246.4192 271.1693 L247.7176 272.4005 L249.016 273.6317 L249.2158 273.821 L249.4156 274.0105 L250.714 275.2417 L252.0124 276.4728 L252.2122 276.6623 L252.4119 276.8517 L253.7104 278.0829 L255.0088 279.3141 L255.2086 279.5035 L255.4083 279.6929 L256.7068 280.9241 L258.0052 282.1553 L258.205 282.3447 L258.4048 282.5341 L259.7032 283.7653 L261.0016 284.9965 L261.2014 285.1859 L261.4012 285.3753 L262.6996 286.6065 L263.998 287.8377 L264.1978 288.0271 L264.3976 288.2166 L265.696 289.4477 L266.9944 290.6789 L267.1942 290.8683 L267.394 291.0577 L268.6924 292.2889 L269.9908 293.5201 L270.1906 293.7095 L270.3904 293.899 L271.6888 295.1302 L272.9872 296.3613 L273.187 296.5508 L273.3867 296.7402 L274.6852 297.9714 L275.9836 299.2026 L276.1834 299.392 L276.3831 299.5814 L277.6816 300.8126 L278.98 302.0438 L279.1798 302.2332 L279.3795 302.4226 L280.678 303.6538 L281.9764 304.885 L282.1762 305.0744 L282.3759 305.2638 L283.6744 306.495 L284.9728 307.7262 L285.1726 307.9156 L285.3723 308.105 L286.6708 309.3362 L287.9692 310.5674 L288.169 310.7568 L288.3687 310.9462 L289.6672 312.1774 L290.9656 313.4086 L291.1654 313.598 L291.3651 313.7874 L292.6636 314.403 L293.962 316.2498 L294.1618 316.4393 L294.3615 316.6287 L294.761 316.2498 L294.1618 315.6816 L293.3628 313.4086 L292.6636 312.4142 L291.3651 310.5674 L291.1654 310.2833 L290.5661 309.4309 L289.6672 308.1524 L289.3676 307.7262 L288.169 306.0215 L287.3699 304.885 L286.6708 303.8906 L285.3723 302.0438 L285.1726 301.7596 L284.5733 300.9073 L283.6744 299.6287 L283.3748 299.2026 L282.1762 297.4978 L281.3771 296.3613 L280.678 295.3669 L279.3795 293.5201 L279.1798 293.236 L278.5805 292.3836 L277.6816 291.1051 L277.3819 290.6789 L276.1834 288.9742 L275.3843 287.8377 L274.6852 286.8433 L273.3867 284.9965 L273.187 284.7124 L272.5877 283.86 L271.6888 282.5815 L271.3892 282.1553 L270.1906 280.4506 L269.3915 279.3141 L268.6924 278.3196 L267.394 276.4728 L267.1942 276.1887 L266.5949 275.3364 L265.696 274.0578 L265.3964 273.6317 L264.1978 271.9269 L263.3987 270.7904 L262.6996 269.796 L261.4012 267.9492 L261.2014 267.6651 L260.6021 266.8127 L259.7032 265.5342 L259.4035 265.108 L258.205 263.4033 L257.4059 262.2668 L256.7068 261.2724 L255.4083 259.4256 L255.2086 259.1414 L254.6093 258.2891 L253.7104 257.0106 L253.4107 256.5844 L252.2122 254.8796 L251.4131 253.7431 L250.714 252.7487 L249.4156 250.9019 L249.2158 250.6178 L248.6165 249.7654 L247.7176 248.4869 L247.418 248.0607 L246.2194 246.356 L245.4203 245.2195 L244.7212 244.2251 L243.4227 242.3783 L243.223 242.0942 L242.6237 241.2418 L241.7248 239.9633 L241.4251 239.5371 L240.2266 237.8324 L239.4276 236.6959 L238.7284 235.7014 L237.4299 233.8546 L237.2302 233.5705 L236.6309 232.7182 L235.732 231.4396 L235.4323 231.0134 L234.2338 229.3087 L233.4347 228.1722 L232.7356 227.1778 L231.4371 225.331 L231.2374 225.0469 L230.6381 224.1945 L229.7392 222.916 L229.4395 222.4898 L228.241 220.7851 L227.442 219.6486 L226.7428 218.6542 L225.4444 216.8074 L225.2446 216.5233 L224.6453 215.6709 L223.7464 214.3923 L223.4467 213.9662 L222.2482 212.2614 L221.4491 211.125 L220.75 210.1305 L219.4516 208.2837 L219.2518 207.9996 L218.6525 207.1472 L217.7536 205.8687 L217.4539 205.4425 L216.2554 203.7378 L215.4563 202.6013 L214.7572 201.6069 L213.4587 199.7601 L213.259 199.476 L212.6597 198.6236 L211.7608 197.3451 L211.4611 196.9189 L210.2626 195.2142 L209.4635 194.0777 L208.7644 193.0833 L207.466 191.2365 L207.2662 190.9523 L206.6669 190.1 L205.768 188.8214 L205.4684 188.3952 L204.2698 186.6905 L203.4707 185.554 L202.7716 184.5596 L201.4732 182.7128 L201.2734 182.4287 L200.6741 181.5763 L199.7752 180.2978 L199.4756 179.8716 L198.277 178.5078 L196.9785 177.0304 L196.7788 176.841 L196.579 176.6516 L195.2806 175.4204 L193.9821 174.1892 L193.7824 173.9998 L193.5826 173.8104 L192.2842 172.5792 L190.9857 171.348 L190.786 171.1586 L190.5862 170.9691 L189.2878 169.7379 L187.9893 168.5067 L187.7896 168.3173 L187.5898 168.1279 L186.2914 166.8967 L184.993 165.6655 L184.7932 165.4761 L184.5934 165.2867 L183.295 164.0555 L181.9966 162.8243 L181.7968 162.6349 L181.597 162.4455 L180.2986 161.2143 L179.0002 159.9831 L178.8004 159.7937 L178.6006 159.6043 L177.3022 158.3731 L176.0038 157.1419 L175.804 156.9525 L175.6042 156.7631 L174.3058 155.5319 L173.0074 154.3007 L172.8076 154.1113 L172.6078 153.9219 L171.3094 152.6907 L170.011 151.4595 L169.8112 151.2701 L169.6114 151.0806 L168.313 149.8494 L167.0146 148.6183 L166.8148 148.4288 L166.615 148.2394 L165.3166 147.0082 L164.0181 145.777 L163.8184 145.5876 L163.6186 145.3982 L162.3202 144.167 L161.0217 142.9358 L160.822 142.7464 L160.6222 142.557 L159.3238 141.3258 L158.0254 140.0946 L157.8256 139.9052 L157.6258 139.7158 L156.3274 138.4846 L155.0289 137.2534 L154.8292 137.064 L154.6294 136.8746 L153.331 135.6434 L152.0325 134.4122 L151.8328 134.2228 L151.633 134.0334 L150.3346 132.8022 L149.0361 131.571 L148.8364 131.3816 L148.6366 131.1921 L147.3382 129.961 L146.0397 128.7298 L145.84 128.5403 L145.6402 128.3509 L144.3418 127.1198 L143.0434 125.8885 L142.8436 125.6991 L142.6438 125.5097 L141.3454 124.2785 L140.047 123.0473 L139.8472 122.8579 L139.6474 122.6685 L138.349 121.4373 L137.0506 120.2061 L136.8508 120.0167 L136.651 119.8273 L135.3526 118.5961 L134.0542 117.3649 L133.8544 117.1755 L133.6546 116.9861 L132.3562 115.7549 L131.0578 114.5237 L130.858 114.3343 L130.6582 114.1449 L129.3598 112.9137 L128.0613 111.6825 L127.8616 111.4931 L127.6618 111.3036 L126.3634 110.0724 L125.065 108.8413 L124.8652 108.6519 L124.6654 108.4625 L123.367 107.2313 L122.0686 106.0001 L121.8688 105.8106 L121.669 105.6212 L120.3706 104.39 L119.0722 103.1588 L118.8724 102.9695 L118.6726 102.78 L117.3742 101.5488 L116.0758 100.3176 L115.876 100.1282 L115.6762 99.9388 L114.3778 98.7076 L113.0794 97.4764 L112.8796 97.287 L112.6798 97.0976 L111.3814 95.8664 L110.083 94.6352 L109.8832 94.4458 L109.6834 94.2564 L108.385 93.0252 L107.0865 91.794 L106.8868 91.6046 L106.687 91.4152 L105.3886 90.184 L104.0902 88.9528 L103.8904 88.7634 L103.6906 88.5739 L102.3922 87.3428 L101.0938 86.1116 L100.894 85.9221 L100.6942 85.7327 L99.3958 84.5015 L98.0974 83.2704 L97.8976 83.0809 L97.6978 82.8915 L96.3994 81.6603 L95.101 80.4291 L94.9012 80.2397 L94.7014 80.0503 L93.403 78.8191 L92.1046 77.5879 L91.9048 77.3985 L91.705 77.2091 L90.4066 75.9779 L89.1082 74.7467 L88.9084 74.5573 L88.7086 74.3679 L87.4102 73.1367 L86.1118 71.9055 L85.912 71.7161 L85.7122 71.5267 L84.4138 70.2955 L83.1154 69.0643 L82.9156 68.8749 L82.7158 68.6855 L81.4174 67.4543 L80.119 66.2231 L79.9192 66.0337 L79.7194 65.8442 L78.421 64.6131 L77.1226 63.3819 L76.9228 63.1924 L76.723 63.003 L75.4246 61.7719 L74.1262 60.5406 L73.9264 60.3512 L73.7266 60.1618 L72.4282 58.9306 L71.1298 57.6994 L70.93 57.51 L70.7302 57.3206 L69.4318 56.0894 L68.1334 54.8582 L67.9336 54.6688 L67.7338 54.4794 L66.4354 53.2482 L65.137 52.017 L64.9372 51.8276 L64.7374 51.6382 L63.439 50.407 L62.1406 49.1758 L61.9408 48.9864 L61.741 48.797 L60.4426 47.5658 L59.1442 46.3346 L58.9444 46.1452 L58.7446 45.9557 L57.4462 44.7245 L56.1478 43.4934 L55.948 43.304 L55.7482 43.1145 L54.4498 42.4989 L53.1514 40.6522 L52.9516 40.4627 L52.7518 40.2733 L52.3523 40.6522 L52.9516 41.2204"
                  style="fill:none; clip-path:url(#clipPath2);"/>
        </g>
        <g transform="translate(6,5)"
           style="stroke-linecap:butt; text-rendering:optimizeLegibility; color-rendering:optimizeQuality; image-rendering:optimizeQuality; font-family:'Lucida Bright'; stroke-linejoin:round; color-interpolation:linearRGB;">
            <path d="M2 178.451 L389 178.451"
                  style="fill:none; clip-path:url(#clipPath1);"/>
        </g>
        <g transform="translate(6,5)"
           style="stroke-linecap:butt; text-rendering:optimizeLegibility; color-rendering:optimizeQuality; image-rendering:optimizeQuality; font-family:'Lucida Bright'; stroke-linejoin:round; color-interpolation:linearRGB;">
            <path d="M281.8906 212.9688 L281 210.9531 L280.625 210.2031 Q280.4375 209.7812 280.3047 209.6719 Q280.1719 209.5625 279.8281 209.5312 L279.3906 209.5 L279.25 209.5 L279.3281 209.0469 L281.7188 209.0469 L283.1562 212.1719 L283.5 211.9062 Q284.9219 210.7344 284.9219 209.9688 Q284.9219 209.5625 284.6094 209.0469 L286.0469 209.0469 Q286.125 209.3125 286.125 209.5 Q286.125 210.125 285.6797 210.6406 Q285.2344 211.1562 283.6875 212.3125 L283.3438 212.5781 L284.5469 215.1094 L284.9844 215.9219 Q285.2656 216.4844 285.7344 216.5156 L286.2031 216.5312 L286.3281 216.5469 L286.25 217 L283.8438 217 L282.125 213.375 L281.5 213.9375 Q280 215.2812 280 216.25 Q280 216.6406 280.25 217 L278.7031 217 Q278.6562 216.7969 278.6562 216.6875 Q278.6562 215.75 280.0312 214.5469 L281.1719 213.5938 L281.8906 212.9688 Z"
                  style="stroke:none; clip-path:url(#clipPath3);"/>
        </g>
        <g transform="translate(6,5)"
           style="text-rendering:optimizeLegibility; font-family:'Lucida Bright'; color-interpolation:linearRGB; color-rendering:optimizeQuality; image-rendering:optimizeQuality;">
            <path d="M24.0363 178.451 L24.0363 182.451"
                  style="fill:none; clip-path:url(#clipPath1);"/>
        </g>
        <g style="text-rendering:optimizeLegibility; font-family:'Lucida Bright'; color-interpolation:linearRGB; color-rendering:optimizeQuality; image-rendering:optimizeQuality;">
            <path d="M33.4531 199.8906 L23.5469 199.8906 L23.5469 199.1094 L33.4531 199.1094 L33.4531 199.8906 Z"
                  style="stroke:none; clip-path:url(#clipPath5);"/>
        </g>
        <g style="text-rendering:optimizeLegibility; font-family:'Lucida Bright'; color-interpolation:linearRGB; color-rendering:optimizeQuality; image-rendering:optimizeQuality;">
            <path d="M32.1719 204 L32.1719 203.2812 Q32.7969 201.4531 34.125 200.2188 L34.9062 199.5 Q36.25 198.2344 36.6953 197.4922 Q37.1406 196.75 37.1406 195.7969 Q37.1406 194.6875 36.5938 194.0156 Q36.0469 193.3438 35.1562 193.3438 Q34.1562 193.3438 33.4688 193.8906 Q33.2188 194.0938 33.1406 195.3438 L33.1406 195.5156 L32.4062 195.5156 L32.4062 193.5469 Q33.9844 192.875 35.3281 192.875 Q36.7969 192.875 37.7344 193.7031 Q38.6719 194.5312 38.6719 195.7969 Q38.6719 197.5156 36.5469 198.9688 L35.6719 199.5781 Q33.5625 201.0312 33.3594 202.7344 L38.625 202.7344 L38.625 204 L32.1719 204 Z"
                  style="stroke:none; clip-path:url(#clipPath4);"/>
        </g>
        <g transform="translate(6,5)"
           style="text-rendering:optimizeLegibility; font-family:'Lucida Bright'; color-interpolation:linearRGB; color-rendering:optimizeQuality; image-rendering:optimizeQuality;">
            <path d="M98.7965 178.451 L98.7965 182.451"
                  style="fill:none; clip-path:url(#clipPath1);"/>
        </g>
        <g style="text-rendering:optimizeLegibility; font-family:'Lucida Bright'; color-interpolation:linearRGB; color-rendering:optimizeQuality; image-rendering:optimizeQuality;">
            <path d="M107.4531 199.8906 L97.5469 199.8906 L97.5469 199.1094 L107.4531 199.1094 L107.4531 199.8906 Z"
                  style="stroke:none; clip-path:url(#clipPath6);"/>
        </g>
        <g style="text-rendering:optimizeLegibility; font-family:'Lucida Bright'; color-interpolation:linearRGB; color-rendering:optimizeQuality; image-rendering:optimizeQuality;">
            <path d="M110.2812 193.0625 L110.2812 202.1094 L110.3281 202.8281 Q110.3594 203.2656 110.5859 203.3984 Q110.8125 203.5312 111.5156 203.5312 L112.375 203.5469 L112.375 204 L106.7656 204 L106.7656 203.5469 L107.625 203.5312 Q108.3125 203.5312 108.5391 203.3984 Q108.7656 203.2656 108.7969 202.8281 L108.8438 202.1094 L108.8438 195.375 L108.7969 194.6406 Q108.7969 194.125 108.5 194.125 Q108.2812 194.125 107.4844 194.2656 L106.7656 194.3906 L106.7656 193.9375 L110.2812 193.0625 Z"
                  style="stroke:none; clip-path:url(#clipPath4);"/>
        </g>
        <g transform="translate(6,5)"
           style="text-rendering:optimizeLegibility; font-family:'Lucida Bright'; color-interpolation:linearRGB; color-rendering:optimizeQuality; image-rendering:optimizeQuality;">
            <path d="M173.5567 178.451 L173.5567 182.451"
                  style="fill:none; clip-path:url(#clipPath1);"/>
            <path d="M170.5 202.2656 Q168.8281 202.2656 167.7969 200.7109 Q166.7656 199.1562 166.7656 196.6094 Q166.7656 194 167.7969 192.4453 Q168.8281 190.8906 170.5625 190.8906 Q172.2969 190.8906 173.3281 192.4375 Q174.3594 193.9844 174.3594 196.5938 Q174.3594 199.2031 173.3203 200.7344 Q172.2812 202.2656 170.5 202.2656 ZM170.5312 201.8125 Q172.8281 201.9219 172.8281 196.5 Q172.8281 191.3281 170.5625 191.3281 Q168.3125 191.3281 168.3125 196.5781 Q168.3125 201.7188 170.5312 201.8125 Z"
                  style="clip-path:url(#clipPath4); stroke:none;"
                  transform="translate(-6,-5)"/>
        </g>
        <g transform="translate(6,5)"
           style="text-rendering:optimizeLegibility; font-family:'Lucida Bright'; color-interpolation:linearRGB; color-rendering:optimizeQuality; image-rendering:optimizeQuality;">
            <path d="M248.3169 178.451 L248.3169 182.451"
                  style="fill:none; clip-path:url(#clipPath1);"/>
            <path d="M255.2812 193.0625 L255.2812 202.1094 L255.3281 202.8281 Q255.3594 203.2656 255.5859 203.3984 Q255.8125 203.5312 256.5156 203.5312 L257.375 203.5469 L257.375 204 L251.7656 204 L251.7656 203.5469 L252.625 203.5312 Q253.3125 203.5312 253.5391 203.3984 Q253.7656 203.2656 253.7969 202.8281 L253.8438 202.1094 L253.8438 195.375 L253.7969 194.6406 Q253.7969 194.125 253.5 194.125 Q253.2812 194.125 252.4844 194.2656 L251.7656 194.3906 L251.7656 193.9375 L255.2812 193.0625 Z"
                  style="clip-path:url(#clipPath4); stroke:none;"
                  transform="translate(-6,-5)"/>
        </g>
        <g transform="translate(6,5)"
           style="text-rendering:optimizeLegibility; font-family:'Lucida Bright'; color-interpolation:linearRGB; color-rendering:optimizeQuality; image-rendering:optimizeQuality;">
            <path d="M323.077 178.451 L323.077 182.451"
                  style="fill:none; clip-path:url(#clipPath1);"/>
            <path d="M326.1719 204 L326.1719 203.2812 Q326.7969 201.4531 328.125 200.2188 L328.9062 199.5 Q330.25 198.2344 330.6953 197.4922 Q331.1406 196.75 331.1406 195.7969 Q331.1406 194.6875 330.5938 194.0156 Q330.0469 193.3438 329.1562 193.3438 Q328.1562 193.3438 327.4688 193.8906 Q327.2188 194.0938 327.1406 195.3438 L327.1406 195.5156 L326.4062 195.5156 L326.4062 193.5469 Q327.9844 192.875 329.3281 192.875 Q330.7969 192.875 331.7344 193.7031 Q332.6719 194.5312 332.6719 195.7969 Q332.6719 197.5156 330.5469 198.9688 L329.6719 199.5781 Q327.5625 201.0312 327.3594 202.7344 L332.625 202.7344 L332.625 204 L326.1719 204 Z"
                  style="clip-path:url(#clipPath4); stroke:none;"
                  transform="translate(-6,-5)"/>
        </g>
        <g transform="translate(6,5)"
           style="text-rendering:optimizeLegibility; font-family:'Lucida Bright'; color-interpolation:linearRGB; color-rendering:optimizeQuality; image-rendering:optimizeQuality;">
            <path d="M61.4164 178.451 L61.4164 180.451"
                  style="fill:none; clip-path:url(#clipPath1);"/>
        </g>
        <g transform="translate(6,5)"
           style="text-rendering:optimizeLegibility; font-family:'Lucida Bright'; color-interpolation:linearRGB; color-rendering:optimizeQuality; image-rendering:optimizeQuality;">
            <path d="M136.1766 178.451 L136.1766 180.451"
                  style="fill:none; clip-path:url(#clipPath1);"/>
        </g>
        <g transform="translate(6,5)"
           style="text-rendering:optimizeLegibility; font-family:'Lucida Bright'; color-interpolation:linearRGB; color-rendering:optimizeQuality; image-rendering:optimizeQuality;">
            <path d="M210.9368 178.451 L210.9368 180.451"
                  style="fill:none; clip-path:url(#clipPath1);"/>
        </g>
        <g transform="translate(6,5)"
           style="text-rendering:optimizeLegibility; font-family:'Lucida Bright'; color-interpolation:linearRGB; color-rendering:optimizeQuality; image-rendering:optimizeQuality;">
            <path d="M285.6969 178.451 L285.6969 180.451"
                  style="fill:none; clip-path:url(#clipPath1);"/>
        </g>
        <g transform="translate(6,5)"
           style="text-rendering:optimizeLegibility; font-family:'Lucida Bright'; color-interpolation:linearRGB; color-rendering:optimizeQuality; image-rendering:optimizeQuality;">
            <path d="M360.4571 178.451 L360.4571 180.451"
                  style="fill:none; clip-path:url(#clipPath1);"/>
        </g>
        <g transform="translate(6,5)"
           style="stroke-linecap:butt; text-rendering:optimizeLegibility; color-rendering:optimizeQuality; image-rendering:optimizeQuality; font-family:'Lucida Bright'; stroke-linejoin:round; color-interpolation:linearRGB;">
            <path d="M173.5567 388 L173.5567 1"
                  style="fill:none; clip-path:url(#clipPath1);"/>
        </g>
        <g transform="translate(6,5)"
           style="stroke-linecap:butt; text-rendering:optimizeLegibility; color-rendering:optimizeQuality; image-rendering:optimizeQuality; font-family:'Lucida Bright'; stroke-linejoin:round; color-interpolation:linearRGB;">
            <path d="M113.9688 97.8906 Q115.3125 96.9531 117.3438 95.0781 L117.625 94.8125 Q117.5312 93.1094 117.1875 91.2266 Q116.8438 89.3438 116.4688 88.5 Q116.1406 87.7969 115.9531 87.6719 Q115.7656 87.5469 114.9375 87.5 L114.7656 87.5 L114.8438 87.0469 L117.5156 87.0469 Q118.6562 89.7344 118.8125 93.3594 L119.7188 92.1875 Q121.0469 90.5 121.4922 89.7109 Q121.9375 88.9219 121.9375 88.25 Q121.9375 87.5625 121.3594 87.0469 L123.1719 87.0469 Q123.3281 87.375 123.3281 87.6719 Q123.3281 88.2969 122.9219 88.9766 Q122.5156 89.6562 121.2188 91.2031 L118.4531 94.5312 Q116.7969 96.5156 115.9688 97.8906 L113.9688 97.8906 Z"
                  style="stroke:none; clip-path:url(#clipPath7);"/>
        </g>
        <g transform="translate(6,5)"
           style="text-rendering:optimizeLegibility; font-family:'Lucida Bright'; color-interpolation:linearRGB; color-rendering:optimizeQuality; image-rendering:optimizeQuality;">
            <path d="M173.5567 320.2275 L169.5567 320.2275"
                  style="fill:none; clip-path:url(#clipPath1);"/>
        </g>
        <g style="text-rendering:optimizeLegibility; font-family:'Lucida Bright'; color-interpolation:linearRGB; color-rendering:optimizeQuality; image-rendering:optimizeQuality;">
            <path d="M165.4531 326.8906 L155.5469 326.8906 L155.5469 326.1094 L165.4531 326.1094 L165.4531 326.8906 Z"
                  style="stroke:none; clip-path:url(#clipPath8);"/>
        </g>
        <g style="text-rendering:optimizeLegibility; font-family:'Lucida Bright'; color-interpolation:linearRGB; color-rendering:optimizeQuality; image-rendering:optimizeQuality;">
            <path d="M168.2812 320.0625 L168.2812 329.1094 L168.3281 329.8281 Q168.3594 330.2656 168.5859 330.3984 Q168.8125 330.5312 169.5156 330.5312 L170.375 330.5469 L170.375 331 L164.7656 331 L164.7656 330.5469 L165.625 330.5312 Q166.3125 330.5312 166.5391 330.3984 Q166.7656 330.2656 166.7969 329.8281 L166.8438 329.1094 L166.8438 322.375 L166.7969 321.6406 Q166.7969 321.125 166.5 321.125 Q166.2812 321.125 165.4844 321.2656 L164.7656 321.3906 L164.7656 320.9375 L168.2812 320.0625 Z"
                  style="stroke:none; clip-path:url(#clipPath4);"/>
        </g>
        <g transform="translate(6,5)"
           style="text-rendering:optimizeLegibility; font-family:'Lucida Bright'; color-interpolation:linearRGB; color-rendering:optimizeQuality; image-rendering:optimizeQuality;">
            <path d="M173.5567 249.3393 L169.5567 249.3393"
                  style="fill:none; clip-path:url(#clipPath1);"/>
        </g>
        <g style="text-rendering:optimizeLegibility; font-family:'Lucida Bright'; color-interpolation:linearRGB; color-rendering:optimizeQuality; image-rendering:optimizeQuality;">
            <path d="M151.4531 255.8906 L141.5469 255.8906 L141.5469 255.1094 L151.4531 255.1094 L151.4531 255.8906 Z"
                  style="stroke:none; clip-path:url(#clipPath9);"/>
        </g>
        <g style="text-rendering:optimizeLegibility; font-family:'Lucida Bright'; color-interpolation:linearRGB; color-rendering:optimizeQuality; image-rendering:optimizeQuality;">
            <path d="M153.5 260.2656 Q151.8281 260.2656 150.7969 258.7109 Q149.7656 257.1562 149.7656 254.6094 Q149.7656 252 150.7969 250.4453 Q151.8281 248.8906 153.5625 248.8906 Q155.2969 248.8906 156.3281 250.4375 Q157.3594 251.9844 157.3594 254.5938 Q157.3594 257.2031 156.3203 258.7344 Q155.2812 260.2656 153.5 260.2656 ZM153.5312 259.8125 Q155.8281 259.9219 155.8281 254.5 Q155.8281 249.3281 153.5625 249.3281 Q151.3125 249.3281 151.3125 254.5781 Q151.3125 259.7188 153.5312 259.8125 ZM159.2041 260 L159.2041 258.1875 L161.0166 258.1875 L161.0166 260 L159.2041 260 ZM163.8218 260.0156 L163.8218 258.1875 L164.5405 258.1875 L164.5562 258.3594 L164.5718 258.9219 Q164.6187 259.8125 165.978 259.8125 Q166.9937 259.8125 167.5874 259.0234 Q168.1812 258.2344 168.1812 256.875 Q168.1812 255.3281 167.2593 254.6641 Q166.3374 254 164.2593 254 L163.9937 254 L163.9937 249.1562 L169.4624 249.1562 L169.4624 250.4219 L164.4468 250.4219 L164.4468 253.4531 L165.1187 253.4531 Q169.6968 253.4531 169.6968 256.9375 Q169.6968 258.5 168.6421 259.3828 Q167.5874 260.2656 165.728 260.2656 Q164.8062 260.2656 163.8218 260.0156 Z"
                  style="stroke:none; clip-path:url(#clipPath4);"/>
        </g>
        <g transform="translate(6,5)"
           style="text-rendering:optimizeLegibility; font-family:'Lucida Bright'; color-interpolation:linearRGB; color-rendering:optimizeQuality; image-rendering:optimizeQuality;">
            <path d="M173.5567 178.451 L169.5567 178.451"
                  style="fill:none; clip-path:url(#clipPath1);"/>
        </g>
        <g transform="translate(6,5)"
           style="text-rendering:optimizeLegibility; font-family:'Lucida Bright'; color-interpolation:linearRGB; color-rendering:optimizeQuality; image-rendering:optimizeQuality;">
            <path d="M173.5567 107.5627 L169.5567 107.5627"
                  style="fill:none; clip-path:url(#clipPath1);"/>
            <path d="M153.5 118.2656 Q151.8281 118.2656 150.7969 116.7109 Q149.7656 115.1562 149.7656 112.6094 Q149.7656 110 150.7969 108.4453 Q151.8281 106.8906 153.5625 106.8906 Q155.2969 106.8906 156.3281 108.4375 Q157.3594 109.9844 157.3594 112.5938 Q157.3594 115.2031 156.3203 116.7344 Q155.2812 118.2656 153.5 118.2656 ZM153.5312 117.8125 Q155.8281 117.9219 155.8281 112.5 Q155.8281 107.3281 153.5625 107.3281 Q151.3125 107.3281 151.3125 112.5781 Q151.3125 117.7188 153.5312 117.8125 ZM159.2041 118 L159.2041 116.1875 L161.0166 116.1875 L161.0166 118 L159.2041 118 ZM163.8218 118.0156 L163.8218 116.1875 L164.5405 116.1875 L164.5562 116.3594 L164.5718 116.9219 Q164.6187 117.8125 165.978 117.8125 Q166.9937 117.8125 167.5874 117.0234 Q168.1812 116.2344 168.1812 114.875 Q168.1812 113.3281 167.2593 112.6641 Q166.3374 112 164.2593 112 L163.9937 112 L163.9937 107.1562 L169.4624 107.1562 L169.4624 108.4219 L164.4468 108.4219 L164.4468 111.4531 L165.1187 111.4531 Q169.6968 111.4531 169.6968 114.9375 Q169.6968 116.5 168.6421 117.3828 Q167.5874 118.2656 165.728 118.2656 Q164.8062 118.2656 163.8218 118.0156 Z"
                  style="clip-path:url(#clipPath4); stroke:none;"
                  transform="translate(-6,-5)"/>
        </g>
        <g transform="translate(6,5)"
           style="text-rendering:optimizeLegibility; font-family:'Lucida Bright'; color-interpolation:linearRGB; color-rendering:optimizeQuality; image-rendering:optimizeQuality;">
            <path d="M173.5567 36.6744 L169.5567 36.6744"
                  style="fill:none; clip-path:url(#clipPath1);"/>
            <path d="M168.2812 36.0625 L168.2812 45.1094 L168.3281 45.8281 Q168.3594 46.2656 168.5859 46.3984 Q168.8125 46.5312 169.5156 46.5312 L170.375 46.5469 L170.375 47 L164.7656 47 L164.7656 46.5469 L165.625 46.5312 Q166.3125 46.5312 166.5391 46.3984 Q166.7656 46.2656 166.7969 45.8281 L166.8438 45.1094 L166.8438 38.375 L166.7969 37.6406 Q166.7969 37.125 166.5 37.125 Q166.2812 37.125 165.4844 37.2656 L164.7656 37.3906 L164.7656 36.9375 L168.2812 36.0625 Z"
                  style="clip-path:url(#clipPath4); stroke:none;"
                  transform="translate(-6,-5)"/>
        </g>
        <g transform="translate(6,5)"
           style="text-rendering:optimizeLegibility; font-family:'Lucida Bright'; color-interpolation:linearRGB; color-rendering:optimizeQuality; image-rendering:optimizeQuality;">
            <path d="M173.5567 376.9381 L171.5567 376.9381"
                  style="fill:none; clip-path:url(#clipPath1);"/>
        </g>
        <g transform="translate(6,5)"
           style="text-rendering:optimizeLegibility; font-family:'Lucida Bright'; color-interpolation:linearRGB; color-rendering:optimizeQuality; image-rendering:optimizeQuality;">
            <path d="M173.5567 362.7605 L171.5567 362.7605"
                  style="fill:none; clip-path:url(#clipPath1);"/>
        </g>
        <g transform="translate(6,5)"
           style="text-rendering:optimizeLegibility; font-family:'Lucida Bright'; color-interpolation:linearRGB; color-rendering:optimizeQuality; image-rendering:optimizeQuality;">
            <path d="M173.5567 348.5829 L171.5567 348.5829"
                  style="fill:none; clip-path:url(#clipPath1);"/>
        </g>
        <g transform="translate(6,5)"
           style="text-rendering:optimizeLegibility; font-family:'Lucida Bright'; color-interpolation:linearRGB; color-rendering:optimizeQuality; image-rendering:optimizeQuality;">
            <path d="M173.5567 334.4052 L171.5567 334.4052"
                  style="fill:none; clip-path:url(#clipPath1);"/>
        </g>
        <g transform="translate(6,5)"
           style="text-rendering:optimizeLegibility; font-family:'Lucida Bright'; color-interpolation:linearRGB; color-rendering:optimizeQuality; image-rendering:optimizeQuality;">
            <path d="M173.5567 306.0499 L171.5567 306.0499"
                  style="fill:none; clip-path:url(#clipPath1);"/>
        </g>
        <g transform="translate(6,5)"
           style="text-rendering:optimizeLegibility; font-family:'Lucida Bright'; color-interpolation:linearRGB; color-rendering:optimizeQuality; image-rendering:optimizeQuality;">
            <path d="M173.5567 291.8722 L171.5567 291.8722"
                  style="fill:none; clip-path:url(#clipPath1);"/>
        </g>
        <g transform="translate(6,5)"
           style="text-rendering:optimizeLegibility; font-family:'Lucida Bright'; color-interpolation:linearRGB; color-rendering:optimizeQuality; image-rendering:optimizeQuality;">
            <path d="M173.5567 277.6946 L171.5567 277.6946"
                  style="fill:none; clip-path:url(#clipPath1);"/>
        </g>
        <g transform="translate(6,5)"
           style="text-rendering:optimizeLegibility; font-family:'Lucida Bright'; color-interpolation:linearRGB; color-rendering:optimizeQuality; image-rendering:optimizeQuality;">
            <path d="M173.5567 263.5169 L171.5567 263.5169"
                  style="fill:none; clip-path:url(#clipPath1);"/>
        </g>
        <g transform="translate(6,5)"
           style="text-rendering:optimizeLegibility; font-family:'Lucida Bright'; color-interpolation:linearRGB; color-rendering:optimizeQuality; image-rendering:optimizeQuality;">
            <path d="M173.5567 235.1616 L171.5567 235.1616"
                  style="fill:none; clip-path:url(#clipPath1);"/>
        </g>
        <g transform="translate(6,5)"
           style="text-rendering:optimizeLegibility; font-family:'Lucida Bright'; color-interpolation:linearRGB; color-rendering:optimizeQuality; image-rendering:optimizeQuality;">
            <path d="M173.5567 220.984 L171.5567 220.984"
                  style="fill:none; clip-path:url(#clipPath1);"/>
        </g>
        <g transform="translate(6,5)"
           style="text-rendering:optimizeLegibility; font-family:'Lucida Bright'; color-interpolation:linearRGB; color-rendering:optimizeQuality; image-rendering:optimizeQuality;">
            <path d="M173.5567 206.8063 L171.5567 206.8063"
                  style="fill:none; clip-path:url(#clipPath1);"/>
        </g>
        <g transform="translate(6,5)"
           style="text-rendering:optimizeLegibility; font-family:'Lucida Bright'; color-interpolation:linearRGB; color-rendering:optimizeQuality; image-rendering:optimizeQuality;">
            <path d="M173.5567 192.6286 L171.5567 192.6286"
                  style="fill:none; clip-path:url(#clipPath1);"/>
        </g>
        <g transform="translate(6,5)"
           style="text-rendering:optimizeLegibility; font-family:'Lucida Bright'; color-interpolation:linearRGB; color-rendering:optimizeQuality; image-rendering:optimizeQuality;">
            <path d="M173.5567 164.2733 L171.5567 164.2733"
                  style="fill:none; clip-path:url(#clipPath1);"/>
        </g>
        <g transform="translate(6,5)"
           style="text-rendering:optimizeLegibility; font-family:'Lucida Bright'; color-interpolation:linearRGB; color-rendering:optimizeQuality; image-rendering:optimizeQuality;">
            <path d="M173.5567 150.0957 L171.5567 150.0957"
                  style="fill:none; clip-path:url(#clipPath1);"/>
        </g>
        <g transform="translate(6,5)"
           style="text-rendering:optimizeLegibility; font-family:'Lucida Bright'; color-interpolation:linearRGB; color-rendering:optimizeQuality; image-rendering:optimizeQuality;">
            <path d="M173.5567 135.918 L171.5567 135.918"
                  style="fill:none; clip-path:url(#clipPath1);"/>
        </g>
        <g transform="translate(6,5)"
           style="text-rendering:optimizeLegibility; font-family:'Lucida Bright'; color-interpolation:linearRGB; color-rendering:optimizeQuality; image-rendering:optimizeQuality;">
            <path d="M173.5567 121.7404 L171.5567 121.7404"
                  style="fill:none; clip-path:url(#clipPath1);"/>
        </g>
        <g transform="translate(6,5)"
           style="text-rendering:optimizeLegibility; font-family:'Lucida Bright'; color-interpolation:linearRGB; color-rendering:optimizeQuality; image-rendering:optimizeQuality;">
            <path d="M173.5567 93.3851 L171.5567 93.3851"
                  style="fill:none; clip-path:url(#clipPath1);"/>
        </g>
        <g transform="translate(6,5)"
           style="text-rendering:optimizeLegibility; font-family:'Lucida Bright'; color-interpolation:linearRGB; color-rendering:optimizeQuality; image-rendering:optimizeQuality;">
            <path d="M173.5567 79.2074 L171.5567 79.2074"
                  style="fill:none; clip-path:url(#clipPath1);"/>
        </g>
        <g transform="translate(6,5)"
           style="text-rendering:optimizeLegibility; font-family:'Lucida Bright'; color-interpolation:linearRGB; color-rendering:optimizeQuality; image-rendering:optimizeQuality;">
            <path d="M173.5567 65.0298 L171.5567 65.0298"
                  style="fill:none; clip-path:url(#clipPath1);"/>
        </g>
        <g transform="translate(6,5)"
           style="text-rendering:optimizeLegibility; font-family:'Lucida Bright'; color-interpolation:linearRGB; color-rendering:optimizeQuality; image-rendering:optimizeQuality;">
            <path d="M173.5567 50.8521 L171.5567 50.8521"
                  style="fill:none; clip-path:url(#clipPath1);"/>
        </g>
        <g transform="translate(6,5)"
           style="text-rendering:optimizeLegibility; font-family:'Lucida Bright'; color-interpolation:linearRGB; color-rendering:optimizeQuality; image-rendering:optimizeQuality;">
            <path d="M173.5567 22.4968 L171.5567 22.4968"
                  style="fill:none; clip-path:url(#clipPath1);"/>
        </g>
        <g transform="translate(6,5)"
           style="text-rendering:optimizeLegibility; font-family:'Lucida Bright'; color-interpolation:linearRGB; color-rendering:optimizeQuality; image-rendering:optimizeQuality;">
            <path d="M173.5567 8.3192 L171.5567 8.3192"
                  style="fill:none; clip-path:url(#clipPath1);"/>
        </g>
    </g>
</svg>
