<?xml version="1.0" encoding="UTF-8"?>
<!DOCTYPE svg PUBLIC '-//W3C//DTD SVG 1.0//EN'
    'http://www.w3.org/TR/2001/REC-SVG-20010904/DTD/svg10.dtd' >

<svg style="stroke-dasharray:none; shape-rendering:auto; font-family:'Dialog'; text-rendering:auto; fill-opacity:1; color-interpolation:auto; color-rendering:auto; font-size:12px; fill:black; stroke:black; image-rendering:auto; stroke-miterlimit:10; stroke-linecap:square; stroke-linejoin:miter; font-style:normal; stroke-width:1; stroke-dashoffset:0; font-weight:normal; stroke-opacity:1;"
     xmlns="http://www.w3.org/2000/svg" contentScriptType="text/ecmascript"
     preserveAspectRatio="xMidYMid meet"
     xmlns:xlink="http://www.w3.org/1999/xlink" zoomAndPan="magnify"
     version="1.0" contentStyleType="text/css">
    <!--Generated by the Batik Graphics2D SVG Generator-->
    <defs id="genericDefs"/>
    <g>
        <defs id="defs1">
            <clipPath clipPathUnits="userSpaceOnUse" id="clipPath1">
                <path d="M0 0 L390 0 L390 390 L0 390 L0 0 Z"/>
            </clipPath>
            <clipPath clipPathUnits="userSpaceOnUse" id="clipPath2">
                <path d="M1 0 L1 389 L390 389 L390 0 Z"/>
            </clipPath>
            <clipPath clipPathUnits="userSpaceOnUse" id="clipPath3">
                <path d="M261 185 L261 203 L280 203 L280 185 Z"/>
            </clipPath>
            <clipPath clipPathUnits="userSpaceOnUse" id="clipPath4">
                <path d="M6 5 L396 5 L396 395 L6 395 L6 5 Z"/>
            </clipPath>
            <clipPath clipPathUnits="userSpaceOnUse" id="clipPath5">
                <path d="M69 174 L69 190 L77 190 L77 174 Z"/>
            </clipPath>
            <clipPath clipPathUnits="userSpaceOnUse" id="clipPath6">
                <path d="M86 72 L86 90 L106 90 L106 72 Z"/>
            </clipPath>
            <clipPath clipPathUnits="userSpaceOnUse" id="clipPath7">
                <path d="M117 375 L117 391 L125 391 L125 375 Z"/>
            </clipPath>
            <clipPath clipPathUnits="userSpaceOnUse" id="clipPath8">
                <path d="M131 303 L131 319 L139 319 L139 303 Z"/>
            </clipPath>
            <clipPath clipPathUnits="userSpaceOnUse" id="clipPath9">
                <path d="M117 231 L117 247 L125 247 L125 231 Z"/>
            </clipPath>
        </defs>
        <g transform="translate(6,5)"
           style="stroke-linecap:butt; fill:rgb(165,165,165); text-rendering:optimizeLegibility; image-rendering:optimizeQuality; color-rendering:optimizeQuality; font-family:'Lucida Bright'; stroke-linejoin:round; stroke:rgb(165,165,165); color-interpolation:linearRGB;">
            <path d="M72.3258 388 L72.3258 1"
                  style="fill:none; clip-path:url(#clipPath1);"/>
            <path d="M151.8159 388 L151.8159 1"
                  style="fill:none; clip-path:url(#clipPath1);"/>
            <path d="M231.306 388 L231.306 1"
                  style="fill:none; clip-path:url(#clipPath1);"/>
            <path d="M310.7961 388 L310.7961 1"
                  style="fill:none; clip-path:url(#clipPath1);"/>
            <path d="M32.5807 388 L32.5807 1"
                  style="fill:none; clip-path:url(#clipPath1); stroke:rgb(233,233,233);"/>
            <path d="M112.0708 388 L112.0708 1"
                  style="fill:none; clip-path:url(#clipPath1); stroke:rgb(233,233,233);"/>
            <path d="M191.5609 388 L191.5609 1"
                  style="fill:none; clip-path:url(#clipPath1); stroke:rgb(233,233,233);"/>
            <path d="M271.0511 388 L271.0511 1"
                  style="fill:none; clip-path:url(#clipPath1); stroke:rgb(233,233,233);"/>
            <path d="M350.5412 388 L350.5412 1"
                  style="fill:none; clip-path:url(#clipPath1); stroke:rgb(233,233,233);"/>
        </g>
        <g transform="translate(6,5)"
           style="stroke-linecap:butt; fill:rgb(165,165,165); text-rendering:optimizeLegibility; image-rendering:optimizeQuality; color-rendering:optimizeQuality; font-family:'Lucida Bright'; stroke-linejoin:round; stroke:rgb(165,165,165); color-interpolation:linearRGB;">
            <path d="M2 377.4913 L389 377.4913"
                  style="fill:none; clip-path:url(#clipPath1);"/>
            <path d="M2 305.5262 L389 305.5262"
                  style="fill:none; clip-path:url(#clipPath1);"/>
            <path d="M2 233.561 L389 233.561"
                  style="fill:none; clip-path:url(#clipPath1);"/>
            <path d="M2 161.5959 L389 161.5959"
                  style="fill:none; clip-path:url(#clipPath1);"/>
            <path d="M2 89.6307 L389 89.6307"
                  style="fill:none; clip-path:url(#clipPath1);"/>
            <path d="M2 17.6656 L389 17.6656"
                  style="fill:none; clip-path:url(#clipPath1);"/>
            <path d="M2 363.0983 L389 363.0983"
                  style="fill:none; clip-path:url(#clipPath1); stroke:rgb(233,233,233);"/>
            <path d="M2 348.7053 L389 348.7053"
                  style="fill:none; clip-path:url(#clipPath1); stroke:rgb(233,233,233);"/>
            <path d="M2 334.3122 L389 334.3122"
                  style="fill:none; clip-path:url(#clipPath1); stroke:rgb(233,233,233);"/>
            <path d="M2 319.9192 L389 319.9192"
                  style="fill:none; clip-path:url(#clipPath1); stroke:rgb(233,233,233);"/>
            <path d="M2 291.1331 L389 291.1331"
                  style="fill:none; clip-path:url(#clipPath1); stroke:rgb(233,233,233);"/>
            <path d="M2 276.7401 L389 276.7401"
                  style="fill:none; clip-path:url(#clipPath1); stroke:rgb(233,233,233);"/>
            <path d="M2 262.3471 L389 262.3471"
                  style="fill:none; clip-path:url(#clipPath1); stroke:rgb(233,233,233);"/>
            <path d="M2 247.954 L389 247.954"
                  style="fill:none; clip-path:url(#clipPath1); stroke:rgb(233,233,233);"/>
            <path d="M2 219.168 L389 219.168"
                  style="fill:none; clip-path:url(#clipPath1); stroke:rgb(233,233,233);"/>
            <path d="M2 204.775 L389 204.775"
                  style="fill:none; clip-path:url(#clipPath1); stroke:rgb(233,233,233);"/>
            <path d="M2 190.3819 L389 190.3819"
                  style="fill:none; clip-path:url(#clipPath1); stroke:rgb(233,233,233);"/>
            <path d="M2 175.9889 L389 175.9889"
                  style="fill:none; clip-path:url(#clipPath1); stroke:rgb(233,233,233);"/>
            <path d="M2 147.2029 L389 147.2029"
                  style="fill:none; clip-path:url(#clipPath1); stroke:rgb(233,233,233);"/>
            <path d="M2 132.8098 L389 132.8098"
                  style="fill:none; clip-path:url(#clipPath1); stroke:rgb(233,233,233);"/>
            <path d="M2 118.4168 L389 118.4168"
                  style="fill:none; clip-path:url(#clipPath1); stroke:rgb(233,233,233);"/>
            <path d="M2 104.0238 L389 104.0238"
                  style="fill:none; clip-path:url(#clipPath1); stroke:rgb(233,233,233);"/>
            <path d="M2 75.2377 L389 75.2377"
                  style="fill:none; clip-path:url(#clipPath1); stroke:rgb(233,233,233);"/>
            <path d="M2 60.8447 L389 60.8447"
                  style="fill:none; clip-path:url(#clipPath1); stroke:rgb(233,233,233);"/>
            <path d="M2 46.4517 L389 46.4517"
                  style="fill:none; clip-path:url(#clipPath1); stroke:rgb(233,233,233);"/>
            <path d="M2 32.0586 L389 32.0586"
                  style="fill:none; clip-path:url(#clipPath1); stroke:rgb(233,233,233);"/>
            <path d="M2 3.2726 L389 3.2726"
                  style="fill:none; clip-path:url(#clipPath1); stroke:rgb(233,233,233);"/>
        </g>
        <g transform="translate(6,5)"
           style="stroke-linecap:butt; fill:blue; text-rendering:optimizeLegibility; image-rendering:optimizeQuality; color-rendering:optimizeQuality; font-family:'Lucida Bright'; stroke-linejoin:round; stroke:blue; color-interpolation:linearRGB; stroke-width:1.5;">
            <path d="M2.8715 12.0764 L3.1104 13.0506 L3.4645 14.1244 L4.1219 15.935 L4.4645 16.7225 L5.3211 18.8193 L6.0574 20.3664 L6.6576 21.7037 L7.6504 23.6414 L8.1092 24.5881 L9.2434 26.6699 L9.6583 27.4725 L10.8364 29.5252 L11.2904 30.3568 L12.4294 32.2544 L12.9942 33.2412 L14.0224 34.8889 L14.7599 36.1256 L15.6154 37.4503 L16.5797 39.0099 L17.2084 39.9544 L18.447 41.8943 L18.8014 42.4125 L20.3561 44.7787 L20.3943 44.8333 L20.5609 45.0802 L21.9873 47.1596 L22.319 47.6631 L23.5803 49.4575 L24.3172 50.5475 L25.1733 51.7388 L26.3452 53.4318 L26.7663 54.0063 L28.2155 56.0558 L28.3593 56.2553 L28.4016 56.3162 L29.9523 58.4244 L30.5027 59.2006 L31.5453 60.5923 L32.6247 62.085 L33.1383 62.7592 L34.6287 64.7837 L34.7312 64.9201 L34.767 64.9693 L36.3242 67.0067 L36.9498 67.8537 L37.9172 69.1002 L39.1469 70.7381 L39.5102 71.1996 L40.4357 72.4139 L41.1032 73.2708 L41.368 73.6224 L42.6962 75.3037 L43.6161 76.5068 L44.2892 77.3478 L45.8737 79.3912 L45.8822 79.4016 L45.9015 79.4262 L47.4751 81.3855 L48.1676 82.2756 L49.0681 83.3834 L50.4683 85.1599 L50.6611 85.3946 L51.0822 85.9224 L52.2541 87.3589 L52.7961 88.0443 L53.8471 89.3184 L55.1359 90.9287 L55.4401 91.2937 L56.0747 92.0778 L57.0331 93.2354 L57.4969 93.813 L58.6261 95.1629 L59.8721 96.6974 L60.219 97.1082 L60.913 97.9539 L61.812 99.0249 L62.2658 99.5818 L63.405 100.9259 L64.6731 102.4662 L64.998 102.8462 L65.6232 103.5982 L66.591 104.7359 L67.0987 105.3506 L68.184 106.6151 L69.535 108.235 L69.777 108.5145 L70.226 109.048 L71.37 110.3761 L71.9919 111.1193 L72.963 112.2374 L74.4546 114.0037 L74.5559 114.1195 L74.7379 114.3331 L76.1489 115.952 L76.9421 116.8881 L77.7419 117.7987 L79.1638 119.4627 L79.3349 119.6582 L79.432 119.7725 L80.9279 121.4694 L81.946 122.6568 L82.5209 123.3044 L83.5117 124.4508 L84.1139 125.1315 L84.4664 125.5412 L85.7069 126.9334 L87.0008 128.4256 L87.2999 128.759 L87.8006 129.3323 L88.8928 130.5536 L89.5509 131.3099 L90.4858 132.3485 L92.0366 134.1178 L92.0788 134.1649 L92.1045 134.1943 L93.6718 135.9291 L94.6829 137.0787 L95.2648 137.7188 L96.2043 138.7798 L96.8578 139.5005 L97.2661 139.9631 L98.4508 141.2616 L99.8598 142.8474 L100.0438 143.0479 L100.3333 143.3717 L101.6367 144.7952 L102.4719 145.7318 L103.2297 146.5548 L104.4119 147.8723 L104.8227 148.3193 L105.0883 148.6162 L106.4157 150.0523 L107.7196 151.5005 L108.0087 151.8117 L108.4491 152.2979 L109.6017 153.5404 L110.3647 154.3849 L111.1947 155.275 L112.4477 156.6537 L112.7877 157.0188 L113.0148 157.2693 L114.3806 158.7287 L115.6802 160.1537 L115.9736 160.4657 L116.4069 160.9381 L117.5666 162.1727 L118.3586 163.0381 L119.1596 163.8867 L120.3319 165.1606 L120.7526 165.6068 L121.0425 165.9224 L122.3456 167.2979 L123.7389 168.8068 L123.9386 169.0166 L124.2248 169.325 L125.5316 170.6992 L126.4508 171.6912 L127.1245 172.3966 L128.0818 173.4245 L128.7175 174.0905 L129.1687 174.5756 L130.3105 175.7666 L131.893 177.4599 L131.9035 177.4708 L131.9181 177.4864 L133.4965 179.1266 L134.6386 180.3443 L135.0895 180.811 L135.7123 181.472 L136.6825 182.4763 L137.3907 183.2287 L138.2755 184.1411 L139.487 185.4223 L139.8685 185.8157 L140.1494 186.1131 L141.4615 187.4609 L142.9195 188.9974 L143.0544 189.1355 L143.2358 189.3259 L144.6474 190.7704 L145.7059 191.8818 L146.2404 192.4269 L146.9529 193.1719 L147.8334 194.0694 L148.4994 194.7662 L149.4264 195.7079 L150.6513 196.984 L151.0194 197.3578 L151.3003 197.6506 L152.6124 198.9784 L154.1119 200.5349 L154.2054 200.6292 L154.3268 200.7549 L155.7984 202.2382 L156.9403 203.4193 L157.3913 203.8725 L157.9722 204.471 L158.9843 205.4873 L159.7767 206.3037 L160.5773 207.1052 L161.5996 208.1547 L162.1703 208.7254 L162.621 209.188 L163.7633 210.3271 L165.209 211.8058 L165.3563 211.9525 L165.4736 212.0724 L166.9493 213.5381 L168.3415 214.9568 L168.5423 215.1556 L168.7923 215.4096 L170.1352 216.738 L171.222 217.8412 L171.7282 218.3407 L172.3536 218.9735 L173.3212 219.9268 L174.1111 220.7256 L174.9142 221.5148 L175.8976 222.5061 L176.5072 223.1042 L177.0092 223.6099 L178.1002 224.6778 L179.4243 226.0074 L179.6932 226.2702 L179.9166 226.4943 L181.2862 227.8294 L182.8349 229.3787 L182.8792 229.4217 L182.9321 229.4745 L184.4721 230.9696 L185.7702 232.263 L186.0651 232.5488 L186.4149 232.8964 L187.6581 234.0983 L188.7152 235.1474 L189.2511 235.6645 L189.8811 236.2881 L190.8441 237.2151 L191.6702 238.0318 L192.4371 238.7686 L193.3306 239.6496 L194.0301 240.3201 L194.6355 240.9162 L195.6231 241.8611 L196.7635 242.9812 L197.216 243.4131 L197.6113 243.8006 L198.809 244.9418 L200.1799 246.2827 L200.402 246.4938 L200.5978 246.6849 L201.995 248.0105 L203.5797 249.5542 L203.588 249.5621 L203.5954 249.5693 L205.181 251.067 L206.6103 252.4537 L206.774 252.6081 L206.9573 252.7856 L208.367 254.1113 L209.6367 255.338 L209.9599 255.6416 L210.3186 255.9875 L211.5529 257.1431 L212.6749 258.2224 L213.1459 258.663 L213.664 259.1605 L214.7389 260.1623 L215.7249 261.1068 L216.3319 261.6719 L216.9934 262.3045 L217.9249 263.1687 L218.7872 263.9911 L219.5179 264.6684 L220.3068 265.4196 L221.1109 266.1621 L221.8622 266.8755 L222.7039 267.6522 L223.6043 268.5059 L224.2968 269.1425 L224.95 269.7599 L225.8898 270.6232 L226.8859 271.5634 L227.4828 272.1095 L228.0511 272.6443 L229.0758 273.5811 L230.1516 274.5922 L230.6688 275.063 L231.1659 275.5287 L232.2618 276.5258 L233.4014 277.5922 L233.8548 278.0028 L234.2947 278.413 L235.4478 279.4572 L236.6354 280.5634 L237.0408 280.9288 L237.4379 281.2974 L238.6337 282.3751 L239.8535 283.5061 L240.2267 283.8408 L240.596 284.1818 L241.8197 285.2793 L243.0559 286.4201 L243.4127 286.7384 L243.7693 287.0662 L245.0057 288.1695 L246.2425 289.3055 L246.5987 289.6217 L246.9582 289.9506 L248.1917 291.0457 L249.4133 292.1624 L249.7847 292.4903 L250.1633 292.8349 L251.3776 293.9076 L252.5683 294.9908 L252.9706 295.3441 L253.385 295.7193 L254.5636 296.7551 L255.7076 297.7907 L256.1566 298.1829 L256.6237 298.6037 L257.7496 299.5878 L258.8312 300.5622 L259.3426 301.0063 L259.8801 301.488 L260.9356 302.4058 L261.9392 303.3052 L262.5286 303.8143 L263.1546 304.3724 L264.1216 305.2086 L265.0315 306.02 L265.7145 306.6066 L266.4478 307.2568 L267.3075 307.9962 L268.1081 308.7063 L268.9005 309.383 L269.7602 310.1412 L270.4935 310.7683 L271.1691 311.3644 L272.0865 312.1432 L273.0925 313.0255 L273.6795 313.5247 L274.2145 313.9943 L275.2725 314.8871 L276.4453 315.9099 L276.8655 316.2652 L277.2443 316.5959 L278.4584 317.6143 L279.8192 318.7943 L280.0514 318.9895 L280.2585 319.1693 L281.6444 320.3246 L283.2149 321.6786 L283.2374 321.6975 L283.2573 321.7146 L284.8304 323.0179 L286.2349 324.2217 L286.4234 324.3764 L286.6428 324.563 L288.0164 325.6938 L289.1959 326.6988 L289.6093 327.0359 L290.0963 327.4474 L291.2023 328.3521 L292.141 329.147 L292.7953 329.6768 L293.5753 330.3318 L294.3883 330.9925 L295.0702 331.5663 L295.9813 332.299 L297.0806 333.2162 L297.5743 333.6147 L297.9834 333.9569 L299.1673 334.9022 L300.6131 336.1005 L300.7603 336.2185 L300.8807 336.3186 L302.3533 337.486 L303.7565 338.6412 L303.9463 338.7899 L304.1856 338.9849 L305.5392 340.0502 L306.6121 340.9274 L307.1322 341.3316 L307.7969 341.8693 L308.7252 342.5945 L309.4514 343.1841 L310.3182 343.8523 L311.4407 344.7537 L311.9112 345.1184 L312.2744 345.4113 L313.5042 346.3517 L315.0806 347.608 L315.0972 347.6205 L315.1194 347.638 L316.6902 348.8293 L317.8583 349.7532 L318.2832 350.0703 L318.8624 350.5224 L319.8761 351.2848 L320.6193 351.868 L321.4691 352.4968 L322.6449 353.4068 L323.0621 353.7179 L323.3636 353.9526 L324.6551 354.8995 L326.0859 355.9975 L326.2481 356.1142 L326.4824 356.2911 L327.8411 357.278 L328.781 357.9931 L329.4341 358.4582 L330.3928 359.1755 L331.027 359.6318 L331.4589 359.9575 L332.62 360.7759 L334.1165 361.8851 L334.213 361.9516 L334.362 362.0599 L335.806 363.067 L336.7415 363.7537 L337.399 364.2015 L338.4315 364.9443 L338.992 365.331 L339.3487 365.5902 L340.585 366.4223 L341.9298 367.3794 L342.178 367.5417 L342.5908 367.8286 L343.771 368.6135 L344.48 369.1125 L345.364 369.6833 L346.8635 370.713 L346.9569 370.7744 L347.012 370.8127 L348.5499 371.7924 L349.503 372.4388 L350.1429 372.8323 L351.3048 373.5974 L351.7359 373.8682 L351.9732 374.0271 L353.3289 374.848 L354.4057 375.5471 L354.9219 375.8466 L355.9356 376.4818 L356.5149 376.8269 L356.8097 377.0155 L358.1079 377.7551 L359.1741 378.4124 L359.7009 378.697 L360.835 379.3661 L361.2938 379.6227 L361.5068 379.7517 L362.8868 380.4814 L363.7921 381.0054 L364.4798 381.3452 L366.0468 382.2035 L366.0728 382.2153 L366.1416 382.2505 L367.6658 382.984 L368.2409 383.2919 L369.2588 383.74 L370.3937 384.3055 L370.8518 384.4854 L372.2781 385.1349 L372.4447 385.2058 L372.4983 385.2318 L374.0377 385.8111 L374.531 386.0281 L375.6307 386.3781 L376.5042 386.7165 L377.2237 386.8956 L378.4086 387.2804 L378.8167 387.3475 L380.2332 387.6997 L380.4097 387.7102 L381.9643 387.9498 L382.0027 387.9469 L383.585 388 L383.5957 387.9973 L385.0742 387.812 L385.1887 387.7556 L386.4046 387.3366 L386.7816 387.0167 L387.5414 386.5106 L388.3746 385.3257 L388.4384 385.2503 L388.4845 385.1349 L388.9437 383.2809 L389 382.2505 L388.8799 380.2809 L388.7366 379.3661 L388.3746 377.9161 L388.0442 376.4818 L387.6012 375.0813 L387.0785 373.5974 L386.7816 372.899 L385.9095 370.713 L385.1887 369.1707 L384.5978 367.8286 L383.5957 365.8432 L383.1668 364.9443 L382.0027 362.7805 L381.6351 362.0599 L380.4097 359.9018 L380.0176 359.1755 L378.8167 357.1562 L378.3265 356.2911 L377.2237 354.5099 L376.5715 353.4068 L375.6307 351.9396 L374.761 350.5224 L374.0377 349.429 L372.9019 347.638 L372.4447 346.9659 L370.9998 344.7537 L370.8518 344.5414 L370.1875 343.5509 L369.2588 342.1894 L369.0491 341.8693 L367.6658 339.8914 L367.0562 338.9849 L366.0728 337.6101 L365.033 336.1005 L364.4798 335.3428 L362.9828 333.2162 L362.8868 333.0872 L362.5782 332.6574 L361.2938 330.9041 L360.8898 330.3318 L359.7009 328.7386 L358.7708 327.4474 L358.1079 326.574 L356.6328 324.563 L356.5149 324.41 L356.1893 323.9735 L354.9219 322.3097 L354.4576 321.6786 L353.3289 320.2198 L352.2623 318.7943 L351.7359 318.1237 L350.38 316.3392 L350.1429 316.0338 L350.0499 315.9099 L348.5499 314.0056 L347.8028 313.0255 L346.9569 311.9658 L345.5461 310.1412 L345.364 309.9157 L344.942 309.3772 L343.771 307.9153 L343.2602 307.2568 L342.178 305.9222 L340.9598 304.3724 L340.585 303.9154 L339.7601 302.8788 L338.992 301.935 L338.6395 301.488 L337.399 299.9808 L336.2996 298.6037 L335.806 298.0103 L334.7692 296.7263 L334.213 296.053 L333.9457 295.7193 L332.62 294.1311 L331.5699 292.8349 L331.027 292.1909 L329.9344 290.8564 L329.4341 290.2592 L329.1831 289.9506 L327.8411 288.364 L326.7749 287.0662 L326.2481 286.4491 L325.2288 285.2205 L324.6551 284.5448 L324.3559 284.1818 L323.0621 282.6716 L321.9182 281.2974 L321.4691 280.7776 L320.6313 279.7804 L319.8761 278.9021 L319.4677 278.413 L318.2832 277.0468 L317.0034 275.5287 L316.6902 275.1702 L316.1253 274.5058 L315.0972 273.3243 L314.522 272.6443 L313.5042 271.4837 L312.0336 269.7599 L311.9112 269.6213 L311.6972 269.3725 L310.3182 267.8057 L309.522 266.8755 L308.7252 265.9768 L307.3461 264.3785 L307.1322 264.1364 L307.0075 263.9911 L305.5392 262.3409 L304.4708 261.1068 L303.9463 260.5213 L303.0647 259.5106 L302.3533 258.714 L301.9263 258.2224 L300.7603 256.9255 L299.371 255.338 L299.1673 255.1129 L298.8343 254.735 L297.5743 253.3387 L296.7971 252.4537 L295.9813 251.5552 L294.6597 250.0606 L294.3883 249.761 L294.2194 249.5693 L292.7953 248.0065 L291.6226 246.6849 L291.2023 246.2264 L290.5387 245.4833 L289.6093 244.4672 L289.0158 243.8006 L288.0164 242.7141 L286.4526 240.969 L286.4234 240.9372 L286.4046 240.9162 L284.8304 239.2111 L283.7699 238.0318 L283.2374 237.4581 L282.424 236.5589 L281.6444 235.7177 L281.1298 235.1474 L280.0514 233.9898 L278.4839 232.263 L278.4584 232.2358 L278.4204 232.1941 L276.8655 230.5311 L275.8156 229.3787 L275.2725 228.8006 L274.4684 227.9228 L273.6795 227.0822 L273.1421 226.4943 L272.0865 225.375 L270.5378 223.69 L270.4935 223.6431 L270.4631 223.6099 L268.9005 221.9592 L267.7626 220.7256 L267.3075 220.2469 L266.6537 219.5417 L265.7145 218.5533 L265.0554 217.8412 L264.1216 216.8627 L262.7918 215.4334 L262.5286 215.1574 L262.3422 214.9568 L260.9356 213.4884 L259.6135 212.0724 L259.3426 211.7908 L258.9644 211.3876 L257.7496 210.1243 L256.8724 209.188 L256.1566 208.4467 L255.166 207.3944 L254.5636 206.7703 L254.1248 206.3037 L252.9706 205.1127 L251.3872 203.4367 L251.3776 203.4268 L251.3706 203.4193 L249.7847 201.7889 L248.5957 200.5349 L248.1917 200.1211 L247.6475 199.5497 L246.5987 198.4756 L245.8136 197.6506 L245.0057 196.8262 L243.927 195.6974 L243.4127 195.1728 L243.0243 194.7662 L241.8197 193.5417 L240.2277 191.8818 L240.2267 191.8808 L240.2254 191.8794 L238.6337 190.2677 L237.411 188.9974 L237.0408 188.6237 L236.5591 188.1253 L235.4478 187.0044 L234.5866 186.1131 L233.8548 185.3772 L232.9109 184.404 L232.2618 183.7519 L231.7543 183.2287 L230.6688 182.1414 L229.2808 180.7155 L229.0758 180.5104 L228.9141 180.3443 L227.4828 178.9164 L226.0598 177.4599 L225.8898 177.2908 L225.6759 177.0726 L224.2968 175.7022 L223.1918 174.5756 L222.7039 174.092 L222.0951 173.4733 L221.1109 172.4992 L220.3153 171.6912 L219.5179 170.904 L218.5317 169.9055 L217.9249 169.3074 L217.4301 168.8068 L216.3319 167.7271 L214.9857 166.3693 L214.7389 166.1271 L214.5359 165.9224 L213.1459 164.5614 L211.6298 163.0381 L211.5529 162.963 L211.4601 162.87 L209.9599 161.407 L208.7077 160.1537 L208.367 159.8222 L207.959 159.415 L206.774 158.2642 L205.776 157.2693 L205.181 156.6926 L204.4747 155.9904 L203.588 155.1329 L202.8347 154.3849 L201.995 153.5745 L201.0071 152.5961 L200.402 152.0135 L199.8833 151.5005 L198.809 150.468 L197.5563 149.2322 L197.216 148.906 L196.9218 148.6162 L195.6231 147.3732 L194.1221 145.8985 L194.0301 145.8106 L193.9497 145.7318 L192.4371 144.2903 L190.9626 142.8474 L190.8441 142.7347 L190.7089 142.6027 L189.2511 141.2193 L187.962 139.9631 L187.6581 139.6751 L187.3146 139.3412 L186.0651 138.1607 L184.9503 137.0787 L184.4721 136.6276 L183.9365 136.1088 L182.8792 135.1143 L181.9272 134.1943 L181.2862 133.5921 L180.5745 132.9057 L179.6932 132.0805 L178.8924 131.3099 L178.1002 130.5689 L177.2286 129.7317 L176.5072 129.0594 L175.8457 128.4256 L174.9142 127.5581 L173.8987 126.5869 L173.3212 126.051 L172.7868 125.5412 L171.7282 124.5599 L170.5849 123.4711 L170.1352 123.0558 L169.7152 122.6568 L168.5423 121.5745 L167.2872 120.3843 L166.9493 120.0737 L166.6306 119.7725 L165.3563 118.6019 L164.0054 117.3265 L163.7633 117.105 L163.5328 116.8881 L162.1703 115.6425 L160.7397 114.2977 L160.5773 114.1499 L160.4212 114.0037 L158.9843 112.6963 L157.4899 111.2979 L157.3913 111.2086 L157.2957 111.1193 L155.7984 109.7635 L154.2561 108.3268 L154.2054 108.2811 L154.1556 108.235 L152.6124 106.8443 L151.0382 105.3847 L151.0194 105.3678 L151.0007 105.3506 L149.4264 103.9389 L147.8362 102.4713 L147.8334 102.4688 L147.8306 102.4662 L146.2404 101.0475 L144.6502 99.5868 L144.6474 99.5844 L144.6447 99.5818 L143.0544 98.1702 L141.4799 96.731 L141.4615 96.7146 L141.4426 96.6974 L139.8685 95.3073 L138.3256 93.9038 L138.2755 93.8598 L138.2239 93.813 L136.6825 92.459 L135.187 91.1053 L135.0895 91.0202 L134.988 90.9287 L133.4965 89.6254 L132.0643 88.3354 L131.9035 88.1959 L131.7344 88.0443 L130.3105 86.8068 L128.9574 85.5942 L128.7175 85.3871 L128.4626 85.1599 L127.1245 84.0033 L125.8662 82.8814 L125.5316 82.5942 L125.1721 82.2756 L123.9386 81.2151 L122.7907 80.1972 L122.3456 79.8173 L121.8623 79.3912 L120.7526 78.4427 L119.731 77.5415 L119.1596 77.0567 L118.5325 76.5068 L117.5666 75.6859 L116.687 74.9142 L115.9736 74.3125 L115.1821 73.6224 L114.3806 72.9452 L113.6587 72.3152 L112.7877 71.5851 L111.8105 70.7381 L111.1947 70.2208 L110.646 69.7447 L109.6017 68.8747 L108.4169 67.8537 L108.0087 67.5128 L107.649 67.2025 L106.4157 66.1815 L105.0007 64.9693 L104.8227 64.8216 L104.6676 64.6885 L103.2297 63.5058 L101.7038 62.2065 L101.6367 62.1518 L101.5576 62.085 L100.0438 60.8479 L98.7609 59.7621 L98.4508 59.5112 L98.0806 59.2006 L96.8578 58.2079 L95.8339 57.3467 L95.2648 56.8896 L94.5771 56.3162 L93.6718 55.5862 L92.923 54.9604 L92.0788 54.2871 L91.0461 53.4318 L90.4858 52.9832 L90.0281 52.603 L88.8928 51.7041 L87.4867 50.5475 L87.2999 50.3989 L87.1491 50.2745 L85.7069 49.1409 L84.2915 47.9847 L84.1139 47.8469 L83.8864 47.6631 L82.5209 46.5979 L81.4551 45.7333 L80.9279 45.3275 L80.2436 44.7787 L79.3349 44.0753 L78.6351 43.5116 L77.7419 42.8297 L76.5668 41.8943 L76.1489 41.5734 L75.8315 41.3196 L74.5559 40.3539 L73.0469 39.1619 L72.963 39.0994 L72.8482 39.0099 L71.37 37.9002 L70.2894 37.0535 L69.777 36.6751 L69.0659 36.1256 L68.184 35.4692 L67.5488 34.9755 L66.591 34.2748 L65.2418 33.2412 L64.998 33.0613 L64.825 32.9279 L63.405 31.899 L62.1282 30.9294 L61.812 30.7047 L61.3461 30.3568 L60.219 29.548 L59.4546 28.9726 L58.6261 28.3903 L57.385 27.4725 L57.0331 27.2224 L56.7982 27.0472 L55.4401 26.1027 L54.1699 25.1726 L53.8471 24.9535 L53.3378 24.5881 L52.2541 23.8427 L51.5676 23.345 L50.6611 22.7371 L49.205 21.7037 L49.0681 21.6106 L48.983 21.5495 L47.4751 20.5506 L46.4353 19.821 L45.8822 19.4653 L44.9382 18.8193 L44.2892 18.3948 L43.9091 18.1311 L42.6962 17.362 L41.4122 16.4944 L41.1032 16.3054 L40.5382 15.935 L39.5102 15.2924 L38.9484 14.9177 L37.9172 14.2968 L36.5104 13.3876 L36.3242 13.2804 L35.9555 13.0506 L34.7312 12.3256 L34.1136 11.9323 L33.1383 11.3806 L31.744 10.5262 L31.5453 10.4197 L31.1126 10.1662 L29.9523 9.5225 L29.4195 9.2015 L28.3593 8.6462 L27.1297 7.9398 L26.7663 7.7623 L25.8809 7.2818 L25.1733 6.9197 L24.8831 6.7563 L23.5803 6.1372 L22.6865 5.6634 L21.9873 5.3605 L20.5302 4.6434 L20.3943 4.5912 L19.9619 4.3975 L18.8014 3.912 L18.4371 3.7379 L17.2084 3.2862 L16.4023 2.9379 L15.6154 2.6957 L14.4275 2.2467 L14.0224 2.1511 L12.5222 1.6811 L12.4294 1.6673 L11.7711 1.5131 L10.8364 1.3132 L10.7048 1.2747 L9.2434 1.0957 L8.9827 1.041 L7.6504 1.0301 L7.3671 1 L6.0574 1.182 L5.8773 1.1868 L4.9051 1.5131 L4.543 1.6553 L4.4645 1.7286 L3.4188 2.5042 L2.8715 3.3633 L2.5408 3.7987 L2.3284 4.3975 L2.0421 5.7801 L2 7.2818 L2.1311 8.8256 L2.3644 10.1662 L2.8715 12.0764"
                  style="fill:none; clip-path:url(#clipPath2);"/>
        </g>
        <g transform="translate(6,5)"
           style="stroke-linecap:butt; fill:rgb(120,0,14); text-rendering:optimizeLegibility; image-rendering:optimizeQuality; color-rendering:optimizeQuality; font-family:'Lucida Bright'; stroke-linejoin:round; stroke:rgb(120,0,14); color-interpolation:linearRGB; stroke-width:1.5;">
            <path d="M283.2374 304.5647 L283.4498 304.757 L283.4498 304.3724 L283.2374 304.084 L282.6002 303.2187 L283.025 304.3724 L283.2374 304.5647"
                  style="fill:none; clip-path:url(#clipPath2);"/>
            <path d="M20.3943 19.1078 L21.0315 19.9731 L20.6067 18.8193 L20.3943 18.627 L20.1819 18.4348 L20.1819 18.8193 L20.3943 19.1078"
                  style="fill:none; clip-path:url(#clipPath2);"/>
            <path d="M23.5803 22.2806 L24.4299 24.5881 L25.1733 25.5976 L26.5539 27.4725 L26.7663 27.7609 L27.4035 28.6262 L28.3593 29.9242 L28.6779 30.3568 L29.9523 32.0875 L30.8019 33.2412 L31.5453 34.2507 L32.9258 36.1256 L33.1383 36.414 L33.7754 37.2793 L34.7312 38.5773 L35.0498 39.0099 L36.3242 40.7406 L37.1738 41.8943 L37.9172 42.9038 L39.2978 44.7787 L39.5102 45.0671 L40.1474 45.9325 L41.1032 47.2304 L41.4218 47.6631 L42.6962 49.3937 L43.5458 50.5475 L44.2892 51.557 L45.6698 53.4318 L45.8822 53.7203 L46.5194 54.5856 L47.4751 55.8836 L47.7937 56.3162 L49.0681 58.0468 L49.9177 59.2006 L50.6611 60.2101 L52.0417 62.085 L52.2541 62.3734 L52.8913 63.2387 L53.8471 64.5367 L54.1657 64.9693 L55.4401 66.7 L56.2897 67.8537 L57.0331 68.8633 L58.4137 70.7381 L58.6261 71.0265 L59.2633 71.8918 L60.219 73.1898 L60.5377 73.6224 L61.812 75.3531 L62.6616 76.5068 L63.405 77.5164 L64.7856 79.3912 L64.998 79.6796 L65.6352 80.545 L66.591 81.8429 L66.9096 82.2756 L68.184 84.0062 L69.0336 85.1599 L69.777 86.1695 L71.1576 88.0443 L71.37 88.3328 L72.0072 89.1981 L72.963 90.4961 L73.2816 90.9287 L74.5559 92.6593 L75.4055 93.813 L76.1489 94.8226 L77.5295 96.6974 L77.7419 96.9859 L78.3791 97.8512 L79.3349 99.1492 L79.6535 99.5818 L80.9279 101.3124 L81.7775 102.4662 L82.5209 103.4757 L83.9015 105.3506 L84.1139 105.639 L84.7511 106.5043 L85.7069 107.8023 L86.0255 108.235 L87.2999 109.9656 L88.1494 111.1193 L88.8928 112.1288 L90.2734 114.0037 L90.4858 114.2921 L91.123 115.1574 L92.0788 116.4554 L92.3974 116.8881 L93.6718 118.6187 L94.5214 119.7725 L95.2648 120.782 L96.6454 122.6568 L96.8578 122.9453 L97.495 123.8106 L98.4508 125.1086 L98.7694 125.5412 L100.0438 127.2718 L100.8933 128.4256 L101.6367 129.4351 L103.0173 131.3099 L103.2297 131.5984 L103.8669 132.4637 L104.8227 133.7617 L105.1413 134.1943 L106.4157 135.9249 L107.2653 137.0787 L108.0087 138.0882 L109.3893 139.9631 L109.6017 140.2515 L110.2389 141.1168 L111.1947 142.4148 L111.5133 142.8474 L112.7877 144.5781 L113.6373 145.7318 L114.3806 146.7413 L115.7612 148.6162 L115.9736 148.9046 L116.6108 149.7699 L117.5666 151.0679 L117.8852 151.5005 L119.1596 153.2312 L120.0092 154.3849 L120.7526 155.3945 L122.1332 157.2693 L122.3456 157.5577 L122.9828 158.423 L123.9386 159.721 L124.2572 160.1537 L125.5316 161.5382 L126.9122 163.0381 L127.1245 163.2304 L127.337 163.4226 L128.7175 164.6725 L130.0981 165.9224 L130.3105 166.1147 L130.5229 166.307 L131.9035 167.5569 L133.2841 168.8068 L133.4965 168.9991 L133.7089 169.1914 L135.0895 170.4413 L136.4701 171.6912 L136.6825 171.8835 L136.8949 172.0758 L138.2755 173.3257 L139.6561 174.5756 L139.8685 174.7678 L140.0809 174.9602 L141.4615 176.21 L142.842 177.4599 L143.0544 177.6522 L143.2668 177.8445 L144.6474 179.0944 L146.028 180.3443 L146.2404 180.5366 L146.4528 180.7289 L147.8334 181.9788 L149.214 183.2287 L149.4264 183.421 L149.6388 183.6133 L151.0194 184.8632 L152.4 186.1131 L152.6124 186.3054 L152.8248 186.4977 L154.2054 187.7475 L155.586 188.9974 L155.7984 189.1897 L156.0107 189.382 L157.3913 190.6319 L158.7719 191.8818 L158.9843 192.0741 L159.1967 192.2664 L160.5773 193.5163 L161.9579 194.7662 L162.1703 194.9585 L162.3827 195.1508 L163.7633 196.4007 L165.1439 197.6506 L165.3563 197.8428 L165.5687 198.0351 L166.9493 199.285 L168.3298 200.5349 L168.5423 200.7272 L168.7547 200.9195 L170.1352 202.1694 L171.5158 203.4193 L171.7282 203.6116 L171.9406 203.8039 L173.3212 205.0538 L174.7018 206.3037 L174.9142 206.496 L175.1266 206.6883 L176.5072 207.9382 L177.8878 209.188 L178.1002 209.3803 L178.3126 209.5726 L179.6932 210.8225 L181.0738 212.0724 L181.2862 212.2647 L181.4986 212.457 L182.8792 213.7069 L184.2597 214.9568 L184.4721 215.1491 L184.6845 215.3414 L186.0651 216.5913 L187.4457 217.8412 L187.6581 218.0335 L187.8705 218.2258 L189.2511 219.4756 L190.6317 220.7256 L190.8441 220.9178 L191.0565 221.1101 L192.4371 222.36 L193.8177 223.6099 L194.0301 223.8022 L194.2425 223.9945 L195.6231 225.2444 L197.0036 226.4943 L197.216 226.6866 L197.4285 226.8789 L198.809 228.1288 L200.1896 229.3787 L200.402 229.571 L200.6144 229.7633 L201.995 231.0132 L203.3756 232.263 L203.588 232.4553 L203.8004 232.6476 L205.181 233.8975 L206.5616 235.1474 L206.774 235.3397 L206.9864 235.532 L208.367 236.7819 L209.7475 238.0318 L209.9599 238.2241 L210.1723 238.4164 L211.5529 239.6663 L212.9335 240.9162 L213.1459 241.1085 L213.3583 241.3008 L214.7389 242.5507 L216.1195 243.8006 L216.3319 243.9928 L216.5443 244.1851 L217.9249 245.435 L219.3055 246.6849 L219.5179 246.8772 L219.7303 247.0695 L221.1109 248.3194 L222.4915 249.5693 L222.7039 249.7616 L222.9163 249.9539 L224.2968 251.2038 L225.6774 252.4537 L225.8898 252.646 L226.1022 252.8383 L227.4828 254.0882 L228.8634 255.338 L229.0758 255.5303 L229.2882 255.7226 L230.6688 256.9725 L232.0494 258.2224 L232.2618 258.4147 L232.4742 258.607 L233.8548 259.8569 L235.2354 261.1068 L235.4478 261.2991 L235.6602 261.4914 L237.0408 262.7413 L238.4213 263.9911 L238.6337 264.1835 L238.8461 264.3757 L240.2267 265.6256 L241.6073 266.8755 L241.8197 267.0678 L242.0321 267.2601 L243.4127 268.51 L244.7933 269.7599 L245.0057 269.9522 L245.2181 270.1445 L246.5987 271.3944 L247.9793 272.6443 L248.1917 272.8366 L248.4041 273.0289 L249.7847 274.2788 L251.1653 275.5287 L251.3776 275.7209 L251.59 275.9132 L252.9706 277.1631 L254.3512 278.413 L254.5636 278.6053 L254.776 278.7976 L256.1566 280.0475 L257.5372 281.2974 L257.7496 281.4897 L257.962 281.682 L259.3426 282.9319 L260.7232 284.1818 L260.9356 284.3741 L261.148 284.5664 L262.5286 285.8163 L263.9091 287.0662 L264.1216 287.2585 L264.334 287.4507 L265.7145 288.7007 L267.0952 289.9506 L267.3075 290.1428 L267.5199 290.3351 L268.9005 291.585 L270.2811 292.8349 L270.4935 293.0272 L270.7059 293.2195 L272.0865 294.4694 L273.4671 295.7193 L273.6795 295.9116 L273.8919 296.1039 L275.2725 297.3538 L276.6531 298.6037 L276.8655 298.796 L277.0779 298.9883 L278.4584 299.6132 L279.839 301.488 L280.0514 301.6803 L280.2638 301.8726 L280.6886 301.488 L280.0514 300.9112 L279.2018 298.6037 L278.4584 297.5941 L277.0779 295.7193 L276.8655 295.4308 L276.2283 294.5656 L275.2725 293.2676 L274.9539 292.8349 L273.6795 291.1043 L272.8299 289.9506 L272.0865 288.941 L270.7059 287.0662 L270.4935 286.7777 L269.8563 285.9124 L268.9005 284.6144 L268.5819 284.1818 L267.3075 282.4512 L266.4579 281.2974 L265.7145 280.2879 L264.334 278.413 L264.1216 278.1246 L263.4843 277.2593 L262.5286 275.9613 L262.21 275.5287 L260.9356 273.798 L260.086 272.6443 L259.3426 271.6348 L257.962 269.7599 L257.7496 269.4715 L257.1124 268.6062 L256.1566 267.3082 L255.838 266.8755 L254.5636 265.1449 L253.714 263.9911 L252.9706 262.9816 L251.59 261.1068 L251.3776 260.8184 L250.7404 259.9531 L249.7847 258.6551 L249.466 258.2224 L248.1917 256.4918 L247.3421 255.338 L246.5987 254.3285 L245.2181 252.4537 L245.0057 252.1652 L244.3685 251.2999 L243.4127 250.002 L243.0941 249.5693 L241.8197 247.8387 L240.9701 246.6849 L240.2267 245.6754 L238.8461 243.8006 L238.6337 243.5121 L237.9965 242.6468 L237.0408 241.3488 L236.7222 240.9162 L235.4478 239.1855 L234.5982 238.0318 L233.8548 237.0223 L232.4742 235.1474 L232.2618 234.859 L231.6246 233.9937 L230.6688 232.6957 L230.3502 232.263 L229.0758 230.5324 L228.2262 229.3787 L227.4828 228.3691 L226.1022 226.4943 L225.8898 226.2059 L225.2526 225.3405 L224.2968 224.0426 L223.9782 223.6099 L222.7039 221.8793 L221.8542 220.7256 L221.1109 219.716 L219.7303 217.8412 L219.5179 217.5527 L218.8807 216.6874 L217.9249 215.3895 L217.6063 214.9568 L216.3319 213.2262 L215.4823 212.0724 L214.7389 211.0629 L213.3583 209.188 L213.1459 208.8996 L212.5087 208.0343 L211.5529 206.7363 L211.2343 206.3037 L209.9599 204.5731 L209.1104 203.4193 L208.367 202.4098 L206.9864 200.5349 L206.774 200.2465 L206.1368 199.3812 L205.181 198.0832 L204.8624 197.6506 L203.588 195.9199 L202.7384 194.7662 L201.995 193.7566 L200.6144 191.8818 L200.402 191.5934 L199.7648 190.7281 L198.809 189.4301 L198.4904 188.9974 L197.216 187.2668 L196.3664 186.1131 L195.6231 185.1035 L194.2425 183.2287 L194.0301 182.9402 L193.3929 182.0749 L192.4371 180.777 L192.1185 180.3443 L190.8441 178.6137 L189.9945 177.4599 L189.2511 176.4504 L187.8705 174.5756 L187.6581 174.2871 L187.0209 173.4218 L186.0651 172.1238 L185.7465 171.6912 L184.4721 169.9606 L183.6225 168.8068 L182.8792 167.7973 L181.4986 165.9224 L181.2862 165.634 L180.649 164.7687 L179.6932 163.4707 L179.3746 163.0381 L178.1002 161.6536 L176.7196 160.1537 L176.5072 159.9614 L176.2948 159.7691 L174.9142 158.5192 L173.5336 157.2693 L173.3212 157.077 L173.1088 156.8847 L171.7282 155.6348 L170.3476 154.3849 L170.1352 154.1926 L169.9228 154.0004 L168.5423 152.7505 L167.1617 151.5005 L166.9493 151.3083 L166.7369 151.116 L165.3563 149.8661 L163.9757 148.6162 L163.7633 148.4239 L163.5509 148.2316 L162.1703 146.9817 L160.7897 145.7318 L160.5773 145.5395 L160.3649 145.3472 L158.9843 144.0973 L157.6037 142.8474 L157.3913 142.6552 L157.1789 142.4629 L155.7984 141.213 L154.4178 139.9631 L154.2054 139.7708 L153.993 139.5785 L152.6124 138.3286 L151.2318 137.0787 L151.0194 136.8864 L150.807 136.6941 L149.4264 135.4442 L148.0458 134.1943 L147.8334 134.002 L147.621 133.8097 L146.2404 132.5598 L144.8598 131.3099 L144.6474 131.1176 L144.435 130.9254 L143.0544 129.6755 L141.6739 128.4256 L141.4615 128.2333 L141.2491 128.041 L139.8685 126.7911 L138.4879 125.5412 L138.2755 125.3489 L138.0631 125.1566 L136.6825 123.9067 L135.3019 122.6568 L135.0895 122.4645 L134.8771 122.2722 L133.4965 121.0223 L132.1159 119.7725 L131.9035 119.5801 L131.6911 119.3878 L130.3105 118.138 L128.9299 116.8881 L128.7175 116.6958 L128.5052 116.5035 L127.1245 115.2536 L125.744 114.0037 L125.5316 113.8114 L125.3192 113.6191 L123.9386 112.3692 L122.558 111.1193 L122.3456 110.927 L122.1332 110.7347 L120.7526 109.4849 L119.372 108.235 L119.1596 108.0427 L118.9472 107.8504 L117.5666 106.6005 L116.186 105.3506 L115.9736 105.1583 L115.7612 104.966 L114.3806 103.7161 L113.0001 102.4662 L112.7877 102.2739 L112.5753 102.0816 L111.1947 100.8317 L109.8141 99.5818 L109.6017 99.3895 L109.3893 99.1972 L108.0087 97.9473 L106.6281 96.6974 L106.4157 96.5052 L106.2033 96.3129 L104.8227 95.063 L103.4421 93.813 L103.2297 93.6208 L103.0173 93.4285 L101.6367 92.1786 L100.2562 90.9287 L100.0438 90.7364 L99.8314 90.5441 L98.4508 89.2942 L97.0702 88.0443 L96.8578 87.8521 L96.6454 87.6597 L95.2648 86.4099 L93.8842 85.1599 L93.6718 84.9677 L93.4594 84.7754 L92.0788 83.5255 L90.6982 82.2756 L90.4858 82.0833 L90.2734 81.891 L88.8928 80.6411 L87.5122 79.3912 L87.2999 79.1989 L87.0875 79.0066 L85.7069 77.7567 L84.3263 76.5068 L84.1139 76.3145 L83.9015 76.1223 L82.5209 74.8723 L81.1403 73.6224 L80.9279 73.4302 L80.7155 73.2379 L79.3349 71.988 L77.9543 70.7381 L77.7419 70.5458 L77.5295 70.3535 L76.1489 69.1036 L74.7683 67.8537 L74.5559 67.6614 L74.3436 67.4691 L72.963 66.2192 L71.5824 64.9693 L71.37 64.777 L71.1576 64.5847 L69.777 63.3348 L68.3964 62.085 L68.184 61.8926 L67.9716 61.7004 L66.591 60.4505 L65.2104 59.2006 L64.998 59.0083 L64.7856 58.816 L63.405 57.5661 L62.0244 56.3162 L61.812 56.1239 L61.5996 55.9316 L60.219 54.6817 L58.8385 53.4318 L58.6261 53.2395 L58.4137 53.0472 L57.0331 51.7974 L55.6525 50.5475 L55.4401 50.3552 L55.2277 50.1629 L53.8471 48.913 L52.4665 47.6631 L52.2541 47.4708 L52.0417 47.2785 L50.6611 46.0286 L49.2805 44.7787 L49.0681 44.5864 L48.8557 44.3941 L47.4751 43.1442 L46.0946 41.8943 L45.8822 41.702 L45.6698 41.5098 L44.2892 40.2599 L42.9086 39.0099 L42.6962 38.8177 L42.4838 38.6254 L41.1032 37.3755 L39.7226 36.1256 L39.5102 35.9333 L39.2978 35.741 L37.9172 34.4911 L36.5366 33.2412 L36.3242 33.0489 L36.1118 32.8566 L34.7312 31.6067 L33.3506 30.3568 L33.1383 30.1646 L32.9258 29.9722 L31.5453 28.7224 L30.1647 27.4725 L29.9523 27.2802 L29.7399 27.0879 L28.3593 25.838 L26.9787 24.5881 L26.7663 24.3958 L26.5539 24.2035 L25.1733 23.5786 L23.7927 21.7037 L23.5803 21.5114 L23.3679 21.3191 L22.9431 21.7037 L23.5803 22.2806"
                  style="fill:none; clip-path:url(#clipPath2);"/>
        </g>
        <g transform="translate(6,5)"
           style="stroke-linecap:butt; text-rendering:optimizeLegibility; color-rendering:optimizeQuality; image-rendering:optimizeQuality; font-family:'Lucida Bright'; stroke-linejoin:round; color-interpolation:linearRGB;">
            <path d="M2 161.5959 L389 161.5959"
                  style="fill:none; clip-path:url(#clipPath1);"/>
        </g>
        <g transform="translate(6,5)"
           style="stroke-linecap:butt; text-rendering:optimizeLegibility; color-rendering:optimizeQuality; image-rendering:optimizeQuality; font-family:'Lucida Bright'; stroke-linejoin:round; color-interpolation:linearRGB;">
            <path d="M270.8906 195.9688 L270 193.9531 L269.625 193.2031 Q269.4375 192.7812 269.3047 192.6719 Q269.1719 192.5625 268.8281 192.5312 L268.3906 192.5 L268.25 192.5 L268.3281 192.0469 L270.7188 192.0469 L272.1562 195.1719 L272.5 194.9062 Q273.9219 193.7344 273.9219 192.9688 Q273.9219 192.5625 273.6094 192.0469 L275.0469 192.0469 Q275.125 192.3125 275.125 192.5 Q275.125 193.125 274.6797 193.6406 Q274.2344 194.1562 272.6875 195.3125 L272.3438 195.5781 L273.5469 198.1094 L273.9844 198.9219 Q274.2656 199.4844 274.7344 199.5156 L275.2031 199.5312 L275.3281 199.5469 L275.25 200 L272.8438 200 L271.125 196.375 L270.5 196.9375 Q269 198.2812 269 199.25 Q269 199.6406 269.25 200 L267.7031 200 Q267.6562 199.7969 267.6562 199.6875 Q267.6562 198.75 269.0312 197.5469 L270.1719 196.5938 L270.8906 195.9688 Z"
                  style="stroke:none; clip-path:url(#clipPath3);"/>
        </g>
        <g transform="translate(6,5)"
           style="text-rendering:optimizeLegibility; font-family:'Lucida Bright'; color-interpolation:linearRGB; color-rendering:optimizeQuality; image-rendering:optimizeQuality;">
            <path d="M72.3258 161.5959 L72.3258 165.5959"
                  style="fill:none; clip-path:url(#clipPath1);"/>
        </g>
        <g style="text-rendering:optimizeLegibility; font-family:'Lucida Bright'; color-interpolation:linearRGB; color-rendering:optimizeQuality; image-rendering:optimizeQuality;">
            <path d="M81.4531 182.8906 L71.5469 182.8906 L71.5469 182.1094 L81.4531 182.1094 L81.4531 182.8906 Z"
                  style="stroke:none; clip-path:url(#clipPath5);"/>
        </g>
        <g style="text-rendering:optimizeLegibility; font-family:'Lucida Bright'; color-interpolation:linearRGB; color-rendering:optimizeQuality; image-rendering:optimizeQuality;">
            <path d="M84.2812 176.0625 L84.2812 185.1094 L84.3281 185.8281 Q84.3594 186.2656 84.5859 186.3984 Q84.8125 186.5312 85.5156 186.5312 L86.375 186.5469 L86.375 187 L80.7656 187 L80.7656 186.5469 L81.625 186.5312 Q82.3125 186.5312 82.5391 186.3984 Q82.7656 186.2656 82.7969 185.8281 L82.8438 185.1094 L82.8438 178.375 L82.7969 177.6406 Q82.7969 177.125 82.5 177.125 Q82.2812 177.125 81.4844 177.2656 L80.7656 177.3906 L80.7656 176.9375 L84.2812 176.0625 Z"
                  style="stroke:none; clip-path:url(#clipPath4);"/>
        </g>
        <g transform="translate(6,5)"
           style="text-rendering:optimizeLegibility; font-family:'Lucida Bright'; color-interpolation:linearRGB; color-rendering:optimizeQuality; image-rendering:optimizeQuality;">
            <path d="M151.8159 161.5959 L151.8159 165.5959"
                  style="fill:none; clip-path:url(#clipPath1);"/>
            <path d="M148.5 185.2656 Q146.8281 185.2656 145.7969 183.7109 Q144.7656 182.1562 144.7656 179.6094 Q144.7656 177 145.7969 175.4453 Q146.8281 173.8906 148.5625 173.8906 Q150.2969 173.8906 151.3281 175.4375 Q152.3594 176.9844 152.3594 179.5938 Q152.3594 182.2031 151.3203 183.7344 Q150.2812 185.2656 148.5 185.2656 ZM148.5312 184.8125 Q150.8281 184.9219 150.8281 179.5 Q150.8281 174.3281 148.5625 174.3281 Q146.3125 174.3281 146.3125 179.5781 Q146.3125 184.7188 148.5312 184.8125 Z"
                  style="clip-path:url(#clipPath4); stroke:none;"
                  transform="translate(-6,-5)"/>
        </g>
        <g transform="translate(6,5)"
           style="text-rendering:optimizeLegibility; font-family:'Lucida Bright'; color-interpolation:linearRGB; color-rendering:optimizeQuality; image-rendering:optimizeQuality;">
            <path d="M231.306 161.5959 L231.306 165.5959"
                  style="fill:none; clip-path:url(#clipPath1);"/>
            <path d="M238.2812 176.0625 L238.2812 185.1094 L238.3281 185.8281 Q238.3594 186.2656 238.5859 186.3984 Q238.8125 186.5312 239.5156 186.5312 L240.375 186.5469 L240.375 187 L234.7656 187 L234.7656 186.5469 L235.625 186.5312 Q236.3125 186.5312 236.5391 186.3984 Q236.7656 186.2656 236.7969 185.8281 L236.8438 185.1094 L236.8438 178.375 L236.7969 177.6406 Q236.7969 177.125 236.5 177.125 Q236.2812 177.125 235.4844 177.2656 L234.7656 177.3906 L234.7656 176.9375 L238.2812 176.0625 Z"
                  style="clip-path:url(#clipPath4); stroke:none;"
                  transform="translate(-6,-5)"/>
        </g>
        <g transform="translate(6,5)"
           style="text-rendering:optimizeLegibility; font-family:'Lucida Bright'; color-interpolation:linearRGB; color-rendering:optimizeQuality; image-rendering:optimizeQuality;">
            <path d="M310.7961 161.5959 L310.7961 165.5959"
                  style="fill:none; clip-path:url(#clipPath1);"/>
            <path d="M313.1719 187 L313.1719 186.2812 Q313.7969 184.4531 315.125 183.2188 L315.9062 182.5 Q317.25 181.2344 317.6953 180.4922 Q318.1406 179.75 318.1406 178.7969 Q318.1406 177.6875 317.5938 177.0156 Q317.0469 176.3438 316.1562 176.3438 Q315.1562 176.3438 314.4688 176.8906 Q314.2188 177.0938 314.1406 178.3438 L314.1406 178.5156 L313.4062 178.5156 L313.4062 176.5469 Q314.9844 175.875 316.3281 175.875 Q317.7969 175.875 318.7344 176.7031 Q319.6719 177.5312 319.6719 178.7969 Q319.6719 180.5156 317.5469 181.9688 L316.6719 182.5781 Q314.5625 184.0312 314.3594 185.7344 L319.625 185.7344 L319.625 187 L313.1719 187 Z"
                  style="clip-path:url(#clipPath4); stroke:none;"
                  transform="translate(-6,-5)"/>
        </g>
        <g transform="translate(6,5)"
           style="text-rendering:optimizeLegibility; font-family:'Lucida Bright'; color-interpolation:linearRGB; color-rendering:optimizeQuality; image-rendering:optimizeQuality;">
            <path d="M32.5807 161.5959 L32.5807 163.5959"
                  style="fill:none; clip-path:url(#clipPath1);"/>
        </g>
        <g transform="translate(6,5)"
           style="text-rendering:optimizeLegibility; font-family:'Lucida Bright'; color-interpolation:linearRGB; color-rendering:optimizeQuality; image-rendering:optimizeQuality;">
            <path d="M112.0708 161.5959 L112.0708 163.5959"
                  style="fill:none; clip-path:url(#clipPath1);"/>
        </g>
        <g transform="translate(6,5)"
           style="text-rendering:optimizeLegibility; font-family:'Lucida Bright'; color-interpolation:linearRGB; color-rendering:optimizeQuality; image-rendering:optimizeQuality;">
            <path d="M191.5609 161.5959 L191.5609 163.5959"
                  style="fill:none; clip-path:url(#clipPath1);"/>
        </g>
        <g transform="translate(6,5)"
           style="text-rendering:optimizeLegibility; font-family:'Lucida Bright'; color-interpolation:linearRGB; color-rendering:optimizeQuality; image-rendering:optimizeQuality;">
            <path d="M271.0511 161.5959 L271.0511 163.5959"
                  style="fill:none; clip-path:url(#clipPath1);"/>
        </g>
        <g transform="translate(6,5)"
           style="text-rendering:optimizeLegibility; font-family:'Lucida Bright'; color-interpolation:linearRGB; color-rendering:optimizeQuality; image-rendering:optimizeQuality;">
            <path d="M350.5412 161.5959 L350.5412 163.5959"
                  style="fill:none; clip-path:url(#clipPath1);"/>
        </g>
        <g transform="translate(6,5)"
           style="stroke-linecap:butt; text-rendering:optimizeLegibility; color-rendering:optimizeQuality; image-rendering:optimizeQuality; font-family:'Lucida Bright'; stroke-linejoin:round; color-interpolation:linearRGB;">
            <path d="M151.8159 388 L151.8159 1"
                  style="fill:none; clip-path:url(#clipPath1);"/>
        </g>
        <g transform="translate(6,5)"
           style="stroke-linecap:butt; text-rendering:optimizeLegibility; color-rendering:optimizeQuality; image-rendering:optimizeQuality; font-family:'Lucida Bright'; stroke-linejoin:round; color-interpolation:linearRGB;">
            <path d="M91.9688 89.8906 Q93.3125 88.9531 95.3438 87.0781 L95.625 86.8125 Q95.5312 85.1094 95.1875 83.2266 Q94.8438 81.3438 94.4688 80.5 Q94.1406 79.7969 93.9531 79.6719 Q93.7656 79.5469 92.9375 79.5 L92.7656 79.5 L92.8438 79.0469 L95.5156 79.0469 Q96.6562 81.7344 96.8125 85.3594 L97.7188 84.1875 Q99.0469 82.5 99.4922 81.7109 Q99.9375 80.9219 99.9375 80.25 Q99.9375 79.5625 99.3594 79.0469 L101.1719 79.0469 Q101.3281 79.375 101.3281 79.6719 Q101.3281 80.2969 100.9219 80.9766 Q100.5156 81.6562 99.2188 83.2031 L96.4531 86.5312 Q94.7969 88.5156 93.9688 89.8906 L91.9688 89.8906 Z"
                  style="stroke:none; clip-path:url(#clipPath6);"/>
        </g>
        <g transform="translate(6,5)"
           style="text-rendering:optimizeLegibility; font-family:'Lucida Bright'; color-interpolation:linearRGB; color-rendering:optimizeQuality; image-rendering:optimizeQuality;">
            <path d="M151.8159 377.4913 L147.8159 377.4913"
                  style="fill:none; clip-path:url(#clipPath1);"/>
        </g>
        <g style="text-rendering:optimizeLegibility; font-family:'Lucida Bright'; color-interpolation:linearRGB; color-rendering:optimizeQuality; image-rendering:optimizeQuality;">
            <path d="M129.4531 383.8906 L119.5469 383.8906 L119.5469 383.1094 L129.4531 383.1094 L129.4531 383.8906 Z"
                  style="stroke:none; clip-path:url(#clipPath7);"/>
        </g>
        <g style="text-rendering:optimizeLegibility; font-family:'Lucida Bright'; color-interpolation:linearRGB; color-rendering:optimizeQuality; image-rendering:optimizeQuality;">
            <path d="M132.2812 377.0625 L132.2812 386.1094 L132.3281 386.8281 Q132.3594 387.2656 132.5859 387.3984 Q132.8125 387.5312 133.5156 387.5312 L134.375 387.5469 L134.375 388 L128.7656 388 L128.7656 387.5469 L129.625 387.5312 Q130.3125 387.5312 130.5391 387.3984 Q130.7656 387.2656 130.7969 386.8281 L130.8438 386.1094 L130.8438 379.375 L130.7969 378.6406 Q130.7969 378.125 130.5 378.125 Q130.2812 378.125 129.4844 378.2656 L128.7656 378.3906 L128.7656 377.9375 L132.2812 377.0625 ZM137.2041 388 L137.2041 386.1875 L139.0166 386.1875 L139.0166 388 L137.2041 388 ZM141.8218 388.0156 L141.8218 386.1875 L142.5405 386.1875 L142.5562 386.3594 L142.5718 386.9219 Q142.6187 387.8125 143.978 387.8125 Q144.9937 387.8125 145.5874 387.0234 Q146.1812 386.2344 146.1812 384.875 Q146.1812 383.3281 145.2593 382.6641 Q144.3374 382 142.2593 382 L141.9937 382 L141.9937 377.1562 L147.4624 377.1562 L147.4624 378.4219 L142.4468 378.4219 L142.4468 381.4531 L143.1187 381.4531 Q147.6968 381.4531 147.6968 384.9375 Q147.6968 386.5 146.6421 387.3828 Q145.5874 388.2656 143.728 388.2656 Q142.8062 388.2656 141.8218 388.0156 Z"
                  style="stroke:none; clip-path:url(#clipPath4);"/>
        </g>
        <g transform="translate(6,5)"
           style="text-rendering:optimizeLegibility; font-family:'Lucida Bright'; color-interpolation:linearRGB; color-rendering:optimizeQuality; image-rendering:optimizeQuality;">
            <path d="M151.8159 305.5262 L147.8159 305.5262"
                  style="fill:none; clip-path:url(#clipPath1);"/>
        </g>
        <g style="text-rendering:optimizeLegibility; font-family:'Lucida Bright'; color-interpolation:linearRGB; color-rendering:optimizeQuality; image-rendering:optimizeQuality;">
            <path d="M143.4531 311.8906 L133.5469 311.8906 L133.5469 311.1094 L143.4531 311.1094 L143.4531 311.8906 Z"
                  style="stroke:none; clip-path:url(#clipPath8);"/>
        </g>
        <g style="text-rendering:optimizeLegibility; font-family:'Lucida Bright'; color-interpolation:linearRGB; color-rendering:optimizeQuality; image-rendering:optimizeQuality;">
            <path d="M146.2812 305.0625 L146.2812 314.1094 L146.3281 314.8281 Q146.3594 315.2656 146.5859 315.3984 Q146.8125 315.5312 147.5156 315.5312 L148.375 315.5469 L148.375 316 L142.7656 316 L142.7656 315.5469 L143.625 315.5312 Q144.3125 315.5312 144.5391 315.3984 Q144.7656 315.2656 144.7969 314.8281 L144.8438 314.1094 L144.8438 307.375 L144.7969 306.6406 Q144.7969 306.125 144.5 306.125 Q144.2812 306.125 143.4844 306.2656 L142.7656 306.3906 L142.7656 305.9375 L146.2812 305.0625 Z"
                  style="stroke:none; clip-path:url(#clipPath4);"/>
        </g>
        <g transform="translate(6,5)"
           style="text-rendering:optimizeLegibility; font-family:'Lucida Bright'; color-interpolation:linearRGB; color-rendering:optimizeQuality; image-rendering:optimizeQuality;">
            <path d="M151.8159 233.561 L147.8159 233.561"
                  style="fill:none; clip-path:url(#clipPath1);"/>
        </g>
        <g style="text-rendering:optimizeLegibility; font-family:'Lucida Bright'; color-interpolation:linearRGB; color-rendering:optimizeQuality; image-rendering:optimizeQuality;">
            <path d="M129.4531 239.8906 L119.5469 239.8906 L119.5469 239.1094 L129.4531 239.1094 L129.4531 239.8906 Z"
                  style="stroke:none; clip-path:url(#clipPath9);"/>
        </g>
        <g style="text-rendering:optimizeLegibility; font-family:'Lucida Bright'; color-interpolation:linearRGB; color-rendering:optimizeQuality; image-rendering:optimizeQuality;">
            <path d="M131.5 244.2656 Q129.8281 244.2656 128.7969 242.7109 Q127.7656 241.1562 127.7656 238.6094 Q127.7656 236 128.7969 234.4453 Q129.8281 232.8906 131.5625 232.8906 Q133.2969 232.8906 134.3281 234.4375 Q135.3594 235.9844 135.3594 238.5938 Q135.3594 241.2031 134.3203 242.7344 Q133.2812 244.2656 131.5 244.2656 ZM131.5312 243.8125 Q133.8281 243.9219 133.8281 238.5 Q133.8281 233.3281 131.5625 233.3281 Q129.3125 233.3281 129.3125 238.5781 Q129.3125 243.7188 131.5312 243.8125 ZM137.2041 244 L137.2041 242.1875 L139.0166 242.1875 L139.0166 244 L137.2041 244 ZM141.8218 244.0156 L141.8218 242.1875 L142.5405 242.1875 L142.5562 242.3594 L142.5718 242.9219 Q142.6187 243.8125 143.978 243.8125 Q144.9937 243.8125 145.5874 243.0234 Q146.1812 242.2344 146.1812 240.875 Q146.1812 239.3281 145.2593 238.6641 Q144.3374 238 142.2593 238 L141.9937 238 L141.9937 233.1562 L147.4624 233.1562 L147.4624 234.4219 L142.4468 234.4219 L142.4468 237.4531 L143.1187 237.4531 Q147.6968 237.4531 147.6968 240.9375 Q147.6968 242.5 146.6421 243.3828 Q145.5874 244.2656 143.728 244.2656 Q142.8062 244.2656 141.8218 244.0156 Z"
                  style="stroke:none; clip-path:url(#clipPath4);"/>
        </g>
        <g transform="translate(6,5)"
           style="text-rendering:optimizeLegibility; font-family:'Lucida Bright'; color-interpolation:linearRGB; color-rendering:optimizeQuality; image-rendering:optimizeQuality;">
            <path d="M151.8159 161.5959 L147.8159 161.5959"
                  style="fill:none; clip-path:url(#clipPath1);"/>
        </g>
        <g transform="translate(6,5)"
           style="text-rendering:optimizeLegibility; font-family:'Lucida Bright'; color-interpolation:linearRGB; color-rendering:optimizeQuality; image-rendering:optimizeQuality;">
            <path d="M151.8159 89.6307 L147.8159 89.6307"
                  style="fill:none; clip-path:url(#clipPath1);"/>
            <path d="M131.5 100.2656 Q129.8281 100.2656 128.7969 98.7109 Q127.7656 97.1562 127.7656 94.6094 Q127.7656 92 128.7969 90.4453 Q129.8281 88.8906 131.5625 88.8906 Q133.2969 88.8906 134.3281 90.4375 Q135.3594 91.9844 135.3594 94.5938 Q135.3594 97.2031 134.3203 98.7344 Q133.2812 100.2656 131.5 100.2656 ZM131.5312 99.8125 Q133.8281 99.9219 133.8281 94.5 Q133.8281 89.3281 131.5625 89.3281 Q129.3125 89.3281 129.3125 94.5781 Q129.3125 99.7188 131.5312 99.8125 ZM137.2041 100 L137.2041 98.1875 L139.0166 98.1875 L139.0166 100 L137.2041 100 ZM141.8218 100.0156 L141.8218 98.1875 L142.5405 98.1875 L142.5562 98.3594 L142.5718 98.9219 Q142.6187 99.8125 143.978 99.8125 Q144.9937 99.8125 145.5874 99.0234 Q146.1812 98.2344 146.1812 96.875 Q146.1812 95.3281 145.2593 94.6641 Q144.3374 94 142.2593 94 L141.9937 94 L141.9937 89.1562 L147.4624 89.1562 L147.4624 90.4219 L142.4468 90.4219 L142.4468 93.4531 L143.1187 93.4531 Q147.6968 93.4531 147.6968 96.9375 Q147.6968 98.5 146.6421 99.3828 Q145.5874 100.2656 143.728 100.2656 Q142.8062 100.2656 141.8218 100.0156 Z"
                  style="clip-path:url(#clipPath4); stroke:none;"
                  transform="translate(-6,-5)"/>
        </g>
        <g transform="translate(6,5)"
           style="text-rendering:optimizeLegibility; font-family:'Lucida Bright'; color-interpolation:linearRGB; color-rendering:optimizeQuality; image-rendering:optimizeQuality;">
            <path d="M151.8159 17.6656 L147.8159 17.6656"
                  style="fill:none; clip-path:url(#clipPath1);"/>
            <path d="M146.2812 17.0625 L146.2812 26.1094 L146.3281 26.8281 Q146.3594 27.2656 146.5859 27.3984 Q146.8125 27.5312 147.5156 27.5312 L148.375 27.5469 L148.375 28 L142.7656 28 L142.7656 27.5469 L143.625 27.5312 Q144.3125 27.5312 144.5391 27.3984 Q144.7656 27.2656 144.7969 26.8281 L144.8438 26.1094 L144.8438 19.375 L144.7969 18.6406 Q144.7969 18.125 144.5 18.125 Q144.2812 18.125 143.4844 18.2656 L142.7656 18.3906 L142.7656 17.9375 L146.2812 17.0625 Z"
                  style="clip-path:url(#clipPath4); stroke:none;"
                  transform="translate(-6,-5)"/>
        </g>
        <g transform="translate(6,5)"
           style="text-rendering:optimizeLegibility; font-family:'Lucida Bright'; color-interpolation:linearRGB; color-rendering:optimizeQuality; image-rendering:optimizeQuality;">
            <path d="M151.8159 363.0983 L149.8159 363.0983"
                  style="fill:none; clip-path:url(#clipPath1);"/>
        </g>
        <g transform="translate(6,5)"
           style="text-rendering:optimizeLegibility; font-family:'Lucida Bright'; color-interpolation:linearRGB; color-rendering:optimizeQuality; image-rendering:optimizeQuality;">
            <path d="M151.8159 348.7053 L149.8159 348.7053"
                  style="fill:none; clip-path:url(#clipPath1);"/>
        </g>
        <g transform="translate(6,5)"
           style="text-rendering:optimizeLegibility; font-family:'Lucida Bright'; color-interpolation:linearRGB; color-rendering:optimizeQuality; image-rendering:optimizeQuality;">
            <path d="M151.8159 334.3122 L149.8159 334.3122"
                  style="fill:none; clip-path:url(#clipPath1);"/>
        </g>
        <g transform="translate(6,5)"
           style="text-rendering:optimizeLegibility; font-family:'Lucida Bright'; color-interpolation:linearRGB; color-rendering:optimizeQuality; image-rendering:optimizeQuality;">
            <path d="M151.8159 319.9192 L149.8159 319.9192"
                  style="fill:none; clip-path:url(#clipPath1);"/>
        </g>
        <g transform="translate(6,5)"
           style="text-rendering:optimizeLegibility; font-family:'Lucida Bright'; color-interpolation:linearRGB; color-rendering:optimizeQuality; image-rendering:optimizeQuality;">
            <path d="M151.8159 291.1331 L149.8159 291.1331"
                  style="fill:none; clip-path:url(#clipPath1);"/>
        </g>
        <g transform="translate(6,5)"
           style="text-rendering:optimizeLegibility; font-family:'Lucida Bright'; color-interpolation:linearRGB; color-rendering:optimizeQuality; image-rendering:optimizeQuality;">
            <path d="M151.8159 276.7401 L149.8159 276.7401"
                  style="fill:none; clip-path:url(#clipPath1);"/>
        </g>
        <g transform="translate(6,5)"
           style="text-rendering:optimizeLegibility; font-family:'Lucida Bright'; color-interpolation:linearRGB; color-rendering:optimizeQuality; image-rendering:optimizeQuality;">
            <path d="M151.8159 262.3471 L149.8159 262.3471"
                  style="fill:none; clip-path:url(#clipPath1);"/>
        </g>
        <g transform="translate(6,5)"
           style="text-rendering:optimizeLegibility; font-family:'Lucida Bright'; color-interpolation:linearRGB; color-rendering:optimizeQuality; image-rendering:optimizeQuality;">
            <path d="M151.8159 247.954 L149.8159 247.954"
                  style="fill:none; clip-path:url(#clipPath1);"/>
        </g>
        <g transform="translate(6,5)"
           style="text-rendering:optimizeLegibility; font-family:'Lucida Bright'; color-interpolation:linearRGB; color-rendering:optimizeQuality; image-rendering:optimizeQuality;">
            <path d="M151.8159 219.168 L149.8159 219.168"
                  style="fill:none; clip-path:url(#clipPath1);"/>
        </g>
        <g transform="translate(6,5)"
           style="text-rendering:optimizeLegibility; font-family:'Lucida Bright'; color-interpolation:linearRGB; color-rendering:optimizeQuality; image-rendering:optimizeQuality;">
            <path d="M151.8159 204.775 L149.8159 204.775"
                  style="fill:none; clip-path:url(#clipPath1);"/>
        </g>
        <g transform="translate(6,5)"
           style="text-rendering:optimizeLegibility; font-family:'Lucida Bright'; color-interpolation:linearRGB; color-rendering:optimizeQuality; image-rendering:optimizeQuality;">
            <path d="M151.8159 190.3819 L149.8159 190.3819"
                  style="fill:none; clip-path:url(#clipPath1);"/>
        </g>
        <g transform="translate(6,5)"
           style="text-rendering:optimizeLegibility; font-family:'Lucida Bright'; color-interpolation:linearRGB; color-rendering:optimizeQuality; image-rendering:optimizeQuality;">
            <path d="M151.8159 175.9889 L149.8159 175.9889"
                  style="fill:none; clip-path:url(#clipPath1);"/>
        </g>
        <g transform="translate(6,5)"
           style="text-rendering:optimizeLegibility; font-family:'Lucida Bright'; color-interpolation:linearRGB; color-rendering:optimizeQuality; image-rendering:optimizeQuality;">
            <path d="M151.8159 147.2029 L149.8159 147.2029"
                  style="fill:none; clip-path:url(#clipPath1);"/>
        </g>
        <g transform="translate(6,5)"
           style="text-rendering:optimizeLegibility; font-family:'Lucida Bright'; color-interpolation:linearRGB; color-rendering:optimizeQuality; image-rendering:optimizeQuality;">
            <path d="M151.8159 132.8098 L149.8159 132.8098"
                  style="fill:none; clip-path:url(#clipPath1);"/>
        </g>
        <g transform="translate(6,5)"
           style="text-rendering:optimizeLegibility; font-family:'Lucida Bright'; color-interpolation:linearRGB; color-rendering:optimizeQuality; image-rendering:optimizeQuality;">
            <path d="M151.8159 118.4168 L149.8159 118.4168"
                  style="fill:none; clip-path:url(#clipPath1);"/>
        </g>
        <g transform="translate(6,5)"
           style="text-rendering:optimizeLegibility; font-family:'Lucida Bright'; color-interpolation:linearRGB; color-rendering:optimizeQuality; image-rendering:optimizeQuality;">
            <path d="M151.8159 104.0238 L149.8159 104.0238"
                  style="fill:none; clip-path:url(#clipPath1);"/>
        </g>
        <g transform="translate(6,5)"
           style="text-rendering:optimizeLegibility; font-family:'Lucida Bright'; color-interpolation:linearRGB; color-rendering:optimizeQuality; image-rendering:optimizeQuality;">
            <path d="M151.8159 75.2377 L149.8159 75.2377"
                  style="fill:none; clip-path:url(#clipPath1);"/>
        </g>
        <g transform="translate(6,5)"
           style="text-rendering:optimizeLegibility; font-family:'Lucida Bright'; color-interpolation:linearRGB; color-rendering:optimizeQuality; image-rendering:optimizeQuality;">
            <path d="M151.8159 60.8447 L149.8159 60.8447"
                  style="fill:none; clip-path:url(#clipPath1);"/>
        </g>
        <g transform="translate(6,5)"
           style="text-rendering:optimizeLegibility; font-family:'Lucida Bright'; color-interpolation:linearRGB; color-rendering:optimizeQuality; image-rendering:optimizeQuality;">
            <path d="M151.8159 46.4517 L149.8159 46.4517"
                  style="fill:none; clip-path:url(#clipPath1);"/>
        </g>
        <g transform="translate(6,5)"
           style="text-rendering:optimizeLegibility; font-family:'Lucida Bright'; color-interpolation:linearRGB; color-rendering:optimizeQuality; image-rendering:optimizeQuality;">
            <path d="M151.8159 32.0586 L149.8159 32.0586"
                  style="fill:none; clip-path:url(#clipPath1);"/>
        </g>
        <g transform="translate(6,5)"
           style="text-rendering:optimizeLegibility; font-family:'Lucida Bright'; color-interpolation:linearRGB; color-rendering:optimizeQuality; image-rendering:optimizeQuality;">
            <path d="M151.8159 3.2726 L149.8159 3.2726"
                  style="fill:none; clip-path:url(#clipPath1);"/>
        </g>
    </g>
</svg>
