<?xml version="1.0" encoding="UTF-8"?>
<!DOCTYPE svg PUBLIC '-//W3C//DTD SVG 1.0//EN'
    'http://www.w3.org/TR/2001/REC-SVG-20010904/DTD/svg10.dtd' >

<svg style="stroke-dasharray:none; shape-rendering:auto; font-family:'Dialog'; text-rendering:auto; fill-opacity:1; color-interpolation:auto; color-rendering:auto; font-size:12px; fill:black; stroke:black; image-rendering:auto; stroke-miterlimit:10; stroke-linecap:square; stroke-linejoin:miter; font-style:normal; stroke-width:1; stroke-dashoffset:0; font-weight:normal; stroke-opacity:1;"
     xmlns="http://www.w3.org/2000/svg" contentScriptType="text/ecmascript"
     preserveAspectRatio="xMidYMid meet"
     xmlns:xlink="http://www.w3.org/1999/xlink" zoomAndPan="magnify"
     version="1.0" contentStyleType="text/css">
    <!--Generated by the Batik Graphics2D SVG Generator-->
    <defs id="genericDefs"/>
    <g>
        <defs id="defs1">
            <clipPath clipPathUnits="userSpaceOnUse" id="clipPath1">
                <path d="M0 0 L390 0 L390 390 L0 390 L0 0 Z"/>
            </clipPath>
            <clipPath clipPathUnits="userSpaceOnUse" id="clipPath2">
                <path d="M1 0 L1 389 L390 389 L390 0 Z"/>
            </clipPath>
            <clipPath clipPathUnits="userSpaceOnUse" id="clipPath3">
                <path d="M275 210 L275 228 L294 228 L294 210 Z"/>
            </clipPath>
            <clipPath clipPathUnits="userSpaceOnUse" id="clipPath4">
                <path d="M6 5 L396 5 L396 395 L6 395 L6 5 Z"/>
            </clipPath>
            <clipPath clipPathUnits="userSpaceOnUse" id="clipPath5">
                <path d="M82 199 L82 215 L90 215 L90 199 Z"/>
            </clipPath>
            <clipPath clipPathUnits="userSpaceOnUse" id="clipPath6">
                <path d="M115 84 L115 102 L135 102 L135 84 Z"/>
            </clipPath>
            <clipPath clipPathUnits="userSpaceOnUse" id="clipPath7">
                <path d="M160 328 L160 344 L168 344 L168 328 Z"/>
            </clipPath>
            <clipPath clipPathUnits="userSpaceOnUse" id="clipPath8">
                <path d="M146 256 L146 272 L154 272 L154 256 Z"/>
            </clipPath>
        </defs>
        <g transform="translate(6,5)"
           style="stroke-linecap:butt; fill:rgb(165,165,165); text-rendering:optimizeLegibility; image-rendering:optimizeQuality; color-rendering:optimizeQuality; font-family:'Lucida Bright'; stroke-linejoin:round; stroke:rgb(165,165,165); color-interpolation:linearRGB;">
            <path d="M85.6624 388 L85.6624 1"
                  style="fill:none; clip-path:url(#clipPath1);"/>
            <path d="M180.0459 388 L180.0459 1"
                  style="fill:none; clip-path:url(#clipPath1);"/>
            <path d="M274.4294 388 L274.4294 1"
                  style="fill:none; clip-path:url(#clipPath1);"/>
            <path d="M368.8128 388 L368.8128 1"
                  style="fill:none; clip-path:url(#clipPath1);"/>
            <path d="M38.4707 388 L38.4707 1"
                  style="fill:none; clip-path:url(#clipPath1); stroke:rgb(233,233,233);"/>
            <path d="M132.8542 388 L132.8542 1"
                  style="fill:none; clip-path:url(#clipPath1); stroke:rgb(233,233,233);"/>
            <path d="M227.2376 388 L227.2376 1"
                  style="fill:none; clip-path:url(#clipPath1); stroke:rgb(233,233,233);"/>
            <path d="M321.6211 388 L321.6211 1"
                  style="fill:none; clip-path:url(#clipPath1); stroke:rgb(233,233,233);"/>
        </g>
        <g transform="translate(6,5)"
           style="stroke-linecap:butt; fill:rgb(165,165,165); text-rendering:optimizeLegibility; image-rendering:optimizeQuality; color-rendering:optimizeQuality; font-family:'Lucida Bright'; stroke-linejoin:round; stroke:rgb(165,165,165); color-interpolation:linearRGB;">
            <path d="M2 330.0676 L389 330.0676"
                  style="fill:none; clip-path:url(#clipPath1);"/>
            <path d="M2 258.3684 L389 258.3684"
                  style="fill:none; clip-path:url(#clipPath1);"/>
            <path d="M2 186.6692 L389 186.6692"
                  style="fill:none; clip-path:url(#clipPath1);"/>
            <path d="M2 114.97 L389 114.97"
                  style="fill:none; clip-path:url(#clipPath1);"/>
            <path d="M2 43.2708 L389 43.2708"
                  style="fill:none; clip-path:url(#clipPath1);"/>
            <path d="M2 387.427 L389 387.427"
                  style="fill:none; clip-path:url(#clipPath1); stroke:rgb(233,233,233);"/>
            <path d="M2 373.0872 L389 373.0872"
                  style="fill:none; clip-path:url(#clipPath1); stroke:rgb(233,233,233);"/>
            <path d="M2 358.7473 L389 358.7473"
                  style="fill:none; clip-path:url(#clipPath1); stroke:rgb(233,233,233);"/>
            <path d="M2 344.4075 L389 344.4075"
                  style="fill:none; clip-path:url(#clipPath1); stroke:rgb(233,233,233);"/>
            <path d="M2 315.7278 L389 315.7278"
                  style="fill:none; clip-path:url(#clipPath1); stroke:rgb(233,233,233);"/>
            <path d="M2 301.3879 L389 301.3879"
                  style="fill:none; clip-path:url(#clipPath1); stroke:rgb(233,233,233);"/>
            <path d="M2 287.0481 L389 287.0481"
                  style="fill:none; clip-path:url(#clipPath1); stroke:rgb(233,233,233);"/>
            <path d="M2 272.7083 L389 272.7083"
                  style="fill:none; clip-path:url(#clipPath1); stroke:rgb(233,233,233);"/>
            <path d="M2 244.0286 L389 244.0286"
                  style="fill:none; clip-path:url(#clipPath1); stroke:rgb(233,233,233);"/>
            <path d="M2 229.6887 L389 229.6887"
                  style="fill:none; clip-path:url(#clipPath1); stroke:rgb(233,233,233);"/>
            <path d="M2 215.3489 L389 215.3489"
                  style="fill:none; clip-path:url(#clipPath1); stroke:rgb(233,233,233);"/>
            <path d="M2 201.009 L389 201.009"
                  style="fill:none; clip-path:url(#clipPath1); stroke:rgb(233,233,233);"/>
            <path d="M2 172.3294 L389 172.3294"
                  style="fill:none; clip-path:url(#clipPath1); stroke:rgb(233,233,233);"/>
            <path d="M2 157.9895 L389 157.9895"
                  style="fill:none; clip-path:url(#clipPath1); stroke:rgb(233,233,233);"/>
            <path d="M2 143.6497 L389 143.6497"
                  style="fill:none; clip-path:url(#clipPath1); stroke:rgb(233,233,233);"/>
            <path d="M2 129.3098 L389 129.3098"
                  style="fill:none; clip-path:url(#clipPath1); stroke:rgb(233,233,233);"/>
            <path d="M2 100.6302 L389 100.6302"
                  style="fill:none; clip-path:url(#clipPath1); stroke:rgb(233,233,233);"/>
            <path d="M2 86.2903 L389 86.2903"
                  style="fill:none; clip-path:url(#clipPath1); stroke:rgb(233,233,233);"/>
            <path d="M2 71.9505 L389 71.9505"
                  style="fill:none; clip-path:url(#clipPath1); stroke:rgb(233,233,233);"/>
            <path d="M2 57.6106 L389 57.6106"
                  style="fill:none; clip-path:url(#clipPath1); stroke:rgb(233,233,233);"/>
            <path d="M2 28.9309 L389 28.9309"
                  style="fill:none; clip-path:url(#clipPath1); stroke:rgb(233,233,233);"/>
            <path d="M2 14.5911 L389 14.5911"
                  style="fill:none; clip-path:url(#clipPath1); stroke:rgb(233,233,233);"/>
        </g>
        <g transform="translate(6,5)"
           style="stroke-linecap:butt; fill:blue; text-rendering:optimizeLegibility; image-rendering:optimizeQuality; color-rendering:optimizeQuality; font-family:'Lucida Bright'; stroke-linejoin:round; stroke:blue; color-interpolation:linearRGB; stroke-width:1.5;">
            <path d="M3.1951 11.3625 L3.6616 12.8094 L4.3647 14.5865 L4.8466 15.6831 L5.0865 16.1625 L6.2232 18.5568 L6.978 19.9739 L7.7159 21.4305 L8.8695 23.4844 L9.3085 24.3042 L10.7609 26.7745 L10.9876 27.178 L12.6524 29.8984 L12.7421 30.0517 L14.5438 32.894 L14.5629 32.9254 L16.4353 35.7884 L16.442 35.7991 L18.3267 38.6014 L18.3729 38.6728 L20.2182 41.3483 L20.3499 41.5465 L22.1096 44.0405 L22.3682 44.4203 L24.0011 46.687 L24.4234 47.294 L25.8925 49.2951 L26.5121 50.1677 L27.784 51.8703 L28.631 53.0414 L29.6754 54.4174 L30.7772 55.9151 L31.5669 56.9402 L32.9484 58.7888 L33.4583 59.4417 L35.1424 61.6626 L35.3498 61.9247 L36.5501 63.4862 L37.2412 64.3732 L37.3645 64.5363 L39.1327 66.7758 L39.6189 67.41 L41.0241 69.168 L41.8908 70.2837 L42.9156 71.5512 L44.1787 73.1574 L44.807 73.9263 L46.4813 76.0311 L46.6985 76.2942 L47.6531 77.4814 L48.59 78.6285 L48.8094 78.9049 L50.4814 80.9309 L51.1622 81.7786 L52.3729 83.2314 L53.526 84.6523 L54.2643 85.5303 L55.8999 87.526 L56.1558 87.8277 L57.1278 89.0029 L58.0472 90.096 L58.296 90.3997 L59.9387 92.3356 L60.7142 93.2734 L61.8301 94.5777 L63.1396 96.1472 L63.7216 96.8221 L65.5717 99.0209 L65.613 99.0685 L65.753 99.2335 L67.5045 101.2629 L68.036 101.8946 L69.3959 103.4584 L70.5073 104.7683 L71.2874 105.659 L72.983 107.642 L73.1788 107.8642 L73.7988 108.584 L75.0703 110.034 L75.4825 110.5157 L76.9617 112.1911 L77.9946 113.3894 L78.8532 114.3555 L80.5092 116.2632 L80.7446 116.5265 L81.4466 117.3297 L82.6361 118.666 L83.0452 119.1369 L84.5275 120.7918 L85.5938 122.0106 L86.419 122.9264 L88.1431 124.8843 L88.3105 125.069 L88.7832 125.6025 L90.2019 127.1741 L90.7167 127.758 L92.0934 129.2743 L93.2977 130.6317 L93.9848 131.3844 L95.8714 133.4981 L95.8763 133.5034 L95.8781 133.5055 L97.7677 135.5711 L98.4901 136.3792 L99.6592 137.6505 L101.0999 139.2529 L101.5506 139.7406 L102.7309 141.0462 L103.4421 141.8177 L103.7203 142.1266 L105.3335 143.8681 L106.359 145.0003 L107.225 145.9307 L108.9944 147.874 L109.1164 148.0046 L109.4225 148.3391 L111.0079 150.0381 L111.6553 150.7477 L112.8993 152.0748 L114.3176 153.6215 L114.7908 154.1241 L115.9488 155.3808 L116.6822 156.1611 L116.9892 156.4952 L118.5737 158.1735 L119.6775 159.3689 L120.4651 160.1996 L122.347 162.2281 L122.3566 162.2382 L122.3607 162.2426 L124.2481 164.2277 L125.0744 165.1163 L126.1395 166.2321 L127.7817 167.9901 L128.031 168.2502 L128.6047 168.8618 L129.9224 170.238 L130.5084 170.8638 L131.8139 172.222 L133.2392 173.7375 L133.7053 174.2206 L134.7546 175.3317 L135.5968 176.2052 L135.9797 176.6112 L137.4882 178.17 L138.7333 179.4849 L139.3797 180.1505 L140.8036 181.6483 L141.2711 182.1298 L141.4884 182.3586 L143.1626 184.0769 L144.2641 185.2323 L145.054 186.0404 L146.7575 187.8205 L146.9455 188.0127 L147.0347 188.1061 L148.8369 189.9433 L149.8318 190.9798 L150.7284 191.8909 L152.6189 193.8535 L152.6198 193.8544 L152.6218 193.8565 L154.5113 195.7697 L155.4365 196.7272 L156.4027 197.7027 L158.2433 199.6009 L158.2942 199.6521 L158.3984 199.7592 L160.1857 201.5568 L161.0784 202.4746 L162.0771 203.4762 L163.9043 205.3484 L163.9686 205.4126 L164.0977 205.5445 L165.86 207.3052 L166.7578 208.2221 L167.7515 209.2121 L169.6019 211.0958 L169.6429 211.1366 L169.7238 211.2187 L171.5344 213.0155 L172.4747 213.9695 L173.4258 214.9109 L175.2794 216.7857 L175.3173 216.8231 L175.3372 216.8432 L177.2087 218.6883 L178.2294 219.7169 L179.1002 220.5733 L180.7648 222.2461 L180.9916 222.4687 L181.1131 222.5906 L182.8831 224.3241 L184.0221 225.4644 L184.7745 226.1996 L186.1861 227.609 L186.666 228.0769 L186.9279 228.3381 L188.5574 229.9234 L189.8528 231.2118 L190.4489 231.7905 L191.5465 232.8794 L192.3403 233.6482 L192.7818 234.0855 L194.2318 235.4869 L195.7218 236.9592 L196.1232 237.3465 L196.849 238.0618 L198.0147 239.1832 L198.675 239.8329 L199.9061 241.0151 L201.6293 242.7066 L201.7976 242.868 L202.0964 243.1606 L203.6891 244.6825 L204.6077 245.5804 L205.5805 246.5084 L207.2864 248.1722 L207.472 248.3486 L207.5804 248.4541 L209.3634 250.1465 L210.58 251.3278 L211.2549 251.9674 L212.4171 253.0937 L213.1463 253.7822 L213.5802 254.2015 L215.0378 255.5759 L216.5922 257.0753 L216.9292 257.3926 L217.4995 257.9417 L218.8207 259.1807 L219.6209 259.9489 L220.7121 260.9711 L222.5339 262.7168 L222.6036 262.7818 L222.6464 262.8227 L224.495 264.5447 L225.7027 265.6964 L226.3865 266.3326 L227.5079 267.4001 L228.2779 268.1134 L228.7594 268.5701 L230.1694 269.8748 L231.8259 271.4438 L232.0609 271.6609 L232.4394 272.019 L233.9523 273.4106 L234.9148 274.3175 L235.8437 275.1713 L237.3197 276.5599 L237.7352 276.9398 L238.0036 277.1913 L239.6267 278.674 L241.113 280.065 L241.5181 280.4348 L242.1506 281.0259 L243.4096 282.1688 L244.2369 282.9387 L245.301 283.9041 L246.9377 285.4254 L247.1925 285.6551 L247.3625 285.8124 L249.0839 287.3642 L250.5145 288.6861 L250.9754 289.1014 L251.672 289.7445 L252.8668 290.8143 L253.6785 291.5598 L254.7583 292.5264 L256.3649 294.0008 L256.6497 294.254 L256.8464 294.4335 L258.5412 295.9402 L260.0402 297.3073 L260.4326 297.6561 L261.0064 298.179 L262.3241 299.342 L263.2501 300.181 L264.2155 301.0332 L265.604 302.2904 L266.107 302.731 L266.4667 303.0547 L267.9984 304.3968 L269.7012 305.9284 L269.8899 306.0938 L270.1566 306.3336 L271.7813 307.7461 L272.9637 308.8021 L273.6728 309.419 L274.6577 310.2985 L275.5643 311.0802 L276.2361 311.6758 L277.4557 312.7283 L279.1191 314.2031 L279.3471 314.398 L279.5194 314.5496 L281.2386 316.0208 L282.8325 317.4233 L283.13 317.6782 L283.5288 318.0291 L285.0215 319.2953 L286.1691 320.297 L286.913 320.9288 L287.8909 321.7829 L288.8044 322.5505 L289.5209 323.1707 L290.6959 324.1596 L292.2101 325.4713 L292.5873 325.7852 L292.8895 326.0444 L294.4788 327.3694 L296.2821 328.9182 L296.3702 328.9917 L296.4818 329.0876 L298.2617 330.5567 L299.713 331.7918 L300.1531 332.1559 L300.6987 332.6208 L302.0446 333.7198 L303.1665 334.6656 L303.936 335.2956 L304.8692 336.0833 L305.8275 336.8571 L306.645 337.5393 L307.7189 338.409 L308.9917 339.4731 L309.6104 339.9667 L310.1511 340.413 L311.5019 341.4944 L313.0646 342.7874 L313.3933 343.0463 L313.6879 343.2867 L315.2848 344.5496 L317.0863 346.0238 L317.1762 346.0937 L317.259 346.1604 L319.0677 347.5724 L320.8749 349.0341 L320.9591 349.1001 L321.0523 349.1757 L322.8506 350.5603 L324.5376 351.9079 L324.742 352.066 L324.9624 352.2426 L326.6335 353.5104 L328.2461 354.7816 L328.5249 354.9943 L328.8171 355.2256 L330.4164 356.4198 L332.0062 357.6553 L332.3078 357.8819 L332.6147 358.1216 L334.1993 359.2849 L335.8247 360.529 L336.0907 360.7257 L336.3531 360.9276 L337.9822 362.102 L339.7096 363.4027 L339.8736 363.5219 L340.0301 363.6405 L341.7651 364.8667 L343.6433 366.2563 L343.6565 366.2654 L343.6719 366.2764 L345.548 367.5743 L347.1838 368.7618 L347.4394 368.9323 L347.749 369.1501 L349.3309 370.2194 L350.6539 371.1602 L351.2224 371.5292 L351.9423 372.0239 L353.1138 372.7959 L354.0507 373.4473 L355.0052 374.0486 L356.2738 374.8976 L356.8967 375.2968 L357.3715 375.6189 L358.7881 376.4822 L360.611 377.6671 L360.6796 377.7063 L360.785 377.7713 L362.571 378.8201 L363.7495 379.5618 L364.4625 379.9514 L365.6332 380.645 L366.354 381.051 L366.799 381.3213 L368.2454 382.0711 L369.7422 382.919 L370.1369 383.1021 L370.9424 383.5187 L372.0283 384.0486 L372.5684 384.3393 L373.9198 384.9166 L375.2688 385.5684 L375.8112 385.7588 L377.3414 386.3925 L377.7027 386.5321 L377.8328 386.5901 L379.5941 387.1193 L380.225 387.351 L381.4856 387.587 L382.4376 387.8388 L383.377 387.869 L384.4351 388 L385.2685 387.8388 L386.1723 387.7656 L387.1599 387.2206 L387.59 387.0458 L388.1305 386.3925 L388.5828 385.6805 L388.9949 383.5187 L389 383.4406 L388.6638 380.645 L388.4771 379.7724 L387.8677 377.7713 L387.1599 375.9046 L386.8018 374.8976 L386.1466 373.358 L385.529 372.0239 L385.2685 371.5245 L384.0913 369.1501 L383.377 367.8554 L382.5471 366.2764 L381.4856 364.4425 L380.9109 363.4027 L379.5941 361.2209 L379.1946 360.529 L377.7027 358.146 L377.4082 357.6553 L375.8112 355.1862 L375.56 354.7816 L373.9198 352.3182 L373.657 351.9079 L372.0283 349.5247 L371.7054 349.0341 L370.1369 346.7924 L369.7104 346.1604 L368.2454 344.111 L367.6764 343.2867 L366.354 341.4725 L365.6072 340.413 L364.4625 338.8705 L363.5063 337.5393 L362.571 336.2995 L361.3767 334.6656 L360.6796 333.7555 L359.2209 331.7918 L358.7881 331.2348 L357.0412 328.9182 L356.8967 328.7345 L356.0288 327.5995 L355.0052 326.2786 L354.8293 326.0444 L353.1138 323.8603 L352.588 323.1707 L351.2224 321.4539 L350.3284 320.297 L349.3309 319.0577 L348.0518 317.4233 L347.4394 316.6707 L345.7599 314.5496 L345.548 314.2918 L344.5943 313.1006 L343.6565 311.9472 L343.442 311.6758 L341.7651 309.6352 L341.099 308.8021 L339.8736 307.3258 L338.7444 305.9284 L337.9822 305.0186 L336.379 303.0547 L336.0907 302.7136 L334.9752 301.3598 L334.1993 300.4337 L333.9931 300.181 L332.3078 298.1875 L331.5828 297.3073 L330.4164 295.9392 L329.1647 294.4335 L328.5249 293.6891 L326.7396 291.5598 L326.6335 291.4373 L326.269 291.0061 L324.742 289.2307 L324.2853 288.6861 L322.8506 287.0308 L321.8203 285.8124 L320.9591 284.826 L319.3506 282.9387 L319.0677 282.6168 L318.1601 281.5598 L317.1762 280.4342 L316.8614 280.065 L315.2848 278.2739 L314.3545 277.1913 L313.3933 276.1066 L311.845 274.3175 L311.5019 273.9327 L310.4667 272.7448 L309.6104 271.7799 L309.3192 271.4438 L307.7189 269.6521 L306.7751 268.5701 L305.8275 267.5156 L304.2301 265.6964 L303.936 265.371 L303.0966 264.4211 L302.0446 263.2524 L301.6667 262.8227 L300.1531 261.1511 L299.0894 259.9489 L298.2617 259.0399 L296.5128 257.0753 L296.3702 256.9195 L295.9832 256.4873 L294.4788 254.8385 L293.9109 254.2015 L292.5873 252.7587 L291.3042 251.3278 L290.6959 250.6681 L289.0884 248.8856 L288.8044 248.5767 L288.6943 248.4541 L286.913 246.5266 L286.0582 245.5804 L285.0215 244.4641 L283.4253 242.7066 L283.13 242.3902 L282.3836 241.5726 L281.2386 240.3427 L280.7747 239.8329 L279.3471 238.3067 L278.1145 236.9592 L277.4557 236.258 L275.8307 234.4904 L275.5643 234.2062 L275.4536 234.0855 L273.6728 232.1952 L272.7668 231.2118 L271.7813 230.1702 L270.0854 228.3381 L269.8899 228.1322 L269.4263 227.6337 L267.9984 226.1287 L267.382 225.4644 L266.107 224.126 L264.6759 222.5906 L264.2155 222.1093 L263.1486 220.9696 L262.3241 220.1067 L261.9599 219.7169 L260.4326 218.1248 L259.2299 216.8432 L258.5412 216.128 L256.9805 214.472 L256.6497 214.1283 L256.5003 213.9695 L254.7583 212.1659 L253.747 211.0958 L252.8668 210.1877 L251.0018 208.2221 L250.9754 208.1949 L250.9174 208.134 L249.0839 206.2487 L248.2273 205.3484 L247.1925 204.2879 L245.4606 202.4746 L245.301 202.3116 L244.9587 201.9545 L243.4096 200.3724 L242.6705 199.6009 L241.5181 198.4278 L239.883 196.7272 L239.6267 196.467 L239.0879 195.9086 L237.7352 194.5365 L237.0765 193.8535 L235.8437 192.6069 L234.2689 190.9798 L233.9523 190.6605 L233.3002 189.989 L232.0609 188.7404 L231.445 188.1061 L230.1694 186.8246 L228.6181 185.2323 L228.2779 184.8915 L227.5911 184.1888 L226.3865 182.9833 L225.7759 182.3586 L224.495 181.0804 L222.9305 179.4849 L222.6036 179.1595 L221.9563 178.5014 L220.7121 177.2647 L220.069 176.6112 L218.8207 175.3735 L217.2058 173.7375 L216.9292 173.4639 L216.392 172.9212 L215.0378 171.5841 L214.3242 170.8638 L213.1463 169.7036 L211.4439 167.9901 L211.2549 167.8042 L210.8945 167.4425 L209.3634 165.9408 L208.5412 165.1163 L207.472 164.07 L205.6447 162.2426 L205.5805 162.1799 L205.4604 162.0602 L203.6891 160.3343 L202.7199 159.3689 L201.7976 158.4722 L200.0919 156.7773 L199.9061 156.5972 L199.8033 156.4952 L198.0147 154.7641 L196.8602 153.6215 L196.1232 152.9096 L194.7855 151.5889 L194.2318 151.0556 L193.9194 150.7477 L192.3403 149.2295 L190.9617 147.874 L190.4489 147.3819 L189.5348 146.4852 L188.5574 145.55 L187.9959 145.0003 L186.666 143.73 L185.0244 142.1266 L184.7745 141.8884 L184.3371 141.4621 L182.8831 140.0801 L182.0324 139.2529 L180.9916 138.2653 L179.1925 136.5194 L179.1002 136.4321 L179.0455 136.3792 L177.2087 134.6452 L176.0289 133.5055 L175.3173 132.8346 L174.109 131.6697 L173.4258 131.0282 L173.0134 130.6317 L171.5344 129.2447 L169.985 127.758 L169.6429 127.4376 L169.0722 126.8909 L167.7515 125.6591 L166.94 124.8843 L165.86 123.8782 L164.0827 122.1841 L163.9686 122.0782 L163.8974 122.0106 L162.0771 120.3244 L160.825 119.1369 L160.1857 118.5452 L159.1519 117.5663 L158.2942 116.7765 L157.7501 116.2632 L156.4027 115.0235 L154.6682 113.3894 L154.5113 113.2452 L154.262 113.0107 L152.6198 111.5089 L151.5599 110.5157 L150.7284 109.7559 L149.4263 108.5374 L148.8369 108.0019 L148.4507 107.642 L146.9455 106.2749 L145.3264 104.7683 L145.054 104.521 L144.6348 104.1314 L143.1626 102.8029 L142.1808 101.8946 L141.2711 101.0741 L139.8924 99.7998 L139.3797 99.3403 L139.0322 99.0209 L137.4882 97.6373 L135.8661 96.1472 L135.5968 95.9059 L135.1955 95.5375 L133.7053 94.2115 L132.6778 93.2734 L131.8139 92.5047 L130.5474 91.3493 L129.9224 90.7972 L129.4841 90.3997 L128.031 89.1159 L126.2771 87.526 L126.1395 87.4044 L125.9413 87.2249 L124.2481 85.7401 L123.0399 84.6523 L122.3566 84.0529 L121.3887 83.1817 L120.4651 82.3782 L119.7945 81.7786 L118.5737 80.7159 L116.8746 79.1971 L116.6822 79.0311 L116.54 78.9049 L114.7908 77.3943 L113.2547 76.0311 L112.8993 75.7241 L112.4134 75.2928 L111.0079 74.0893 L109.9498 73.1574 L109.1164 72.4431 L107.9976 71.4576 L107.225 70.8018 L106.6319 70.2837 L105.3335 69.1804 L103.6237 67.6859 L103.4421 67.5332 L103.2998 67.41 L101.5506 65.937 L99.9348 64.5363 L99.6592 64.3038 L99.3025 63.9944 L97.7677 62.7143 L96.544 61.6626 L95.8763 61.1046 L95.0298 60.3765 L93.9848 59.5137 L93.1336 58.7888 L92.0934 57.9281 L90.8022 56.8272 L90.2019 56.3369 L89.7019 55.9151 L88.3105 54.7757 L86.6214 53.3489 L86.419 53.1854 L86.2465 53.0414 L84.5275 51.649 L82.7564 50.1677 L82.6361 50.07 L82.4927 49.9498 L80.7446 48.5502 L79.2269 47.294 L78.8532 46.9938 L78.4181 46.6329 L76.9617 45.4811 L75.6657 44.4203 L75.0703 43.9476 L74.3938 43.3925 L73.1788 42.4441 L72.0693 41.5465 L71.2874 40.9336 L70.4216 40.2311 L69.3959 39.4417 L68.4335 38.6728 L67.5045 37.9543 L66.5032 37.1516 L65.613 36.4766 L64.7535 35.7991 L63.7216 35.0123 L62.6405 34.1567 L61.8301 33.5519 L61.0237 32.9254 L59.9387 32.1105 L58.8355 31.2493 L58.0472 30.6711 L57.2376 30.0517 L56.1558 29.2524 L55.0901 28.4326 L54.2643 27.838 L53.3872 27.178 L52.3729 26.4416 L51.4065 25.7098 L50.4814 25.0569 L49.4632 24.3042 L48.59 23.6822 L47.787 23.0844 L46.6985 22.3327 L45.4543 21.4305 L44.807 20.9788 L44.2339 20.5597 L42.9156 19.6707 L41.3469 18.5568 L41.0241 18.3365 L40.7496 18.1397 L39.1327 17.0771 L37.3398 15.8329 L37.2412 15.771 L37.1096 15.6831 L35.3498 14.559 L34.0154 13.6558 L33.4583 13.3178 L32.6735 12.8094 L31.5669 12.1242 L30.7709 11.6001 L29.6754 10.9603 L28.0408 9.9357 L27.784 9.7821 L27.6096 9.6707 L25.8925 8.7099 L24.5531 7.9008 L24.0011 7.6172 L23.0139 7.062 L22.1096 6.5799 L21.5966 6.2826 L20.2182 5.6178 L18.7533 4.8364 L18.3267 4.6574 L17.3426 4.1883 L16.4353 3.7818 L16.0359 3.5815 L14.5438 3.0178 L13.4615 2.5439 L12.6524 2.3107 L11.0375 1.7347 L10.7609 1.6877 L9.2637 1.3145 L8.8695 1.2243 L8.7954 1.202 L6.978 1.0366 L6.771 1 L5.0865 1.1759 L4.9954 1.176 L4.652 1.3145 L3.5411 1.8402 L3.1951 2.3145 L2.4926 3.1209 L2.1725 4.1883 L2 5.2462 L2.1095 7.062 L2.3683 8.6794 L2.703 9.9357 L3.1951 11.3625"
                  style="fill:none; clip-path:url(#clipPath2);"/>
        </g>
        <g transform="translate(6,5)"
           style="stroke-linecap:butt; fill:rgb(120,0,14); text-rendering:optimizeLegibility; image-rendering:optimizeQuality; color-rendering:optimizeQuality; font-family:'Lucida Bright'; stroke-linejoin:round; stroke:rgb(120,0,14); color-interpolation:linearRGB; stroke-width:1.5;">
            <path d="M336.0907 329.1097 L336.3429 329.3013 L336.3429 328.9182 L336.0907 328.6308 L335.3341 327.7686 L335.8385 328.9182 L336.0907 329.1097"
                  style="fill:none; clip-path:url(#clipPath2);"/>
            <path d="M24.0011 44.7076 L24.7577 45.5698 L24.2533 44.4203 L24.0011 44.2287 L23.7489 44.0371 L23.7489 44.4203 L24.0011 44.7076"
                  style="fill:none; clip-path:url(#clipPath2);"/>
            <path d="M27.784 47.8687 L28.7928 50.1677 L29.6754 51.1735 L31.3147 53.0414 L31.5669 53.3288 L32.3235 54.1909 L33.4583 55.4841 L33.8366 55.9151 L35.3498 57.6393 L36.3586 58.7888 L37.2412 59.7946 L38.8805 61.6626 L39.1327 61.9499 L39.8893 62.812 L41.0241 64.1052 L41.4024 64.5363 L42.9156 66.2605 L43.9244 67.41 L44.807 68.4158 L46.4463 70.2837 L46.6985 70.5711 L47.4551 71.4332 L48.59 72.7264 L48.9682 73.1574 L50.4814 74.8817 L51.4902 76.0311 L52.3729 77.037 L54.0121 78.9049 L54.2643 79.1922 L55.0209 80.0544 L56.1558 81.3475 L56.5341 81.7786 L58.0472 83.5028 L59.056 84.6523 L59.9387 85.6581 L61.5779 87.526 L61.8301 87.8134 L62.5867 88.6755 L63.7216 89.9687 L64.0999 90.3997 L65.613 92.1239 L66.6218 93.2734 L67.5045 94.2792 L69.1437 96.1472 L69.3959 96.4345 L70.1525 97.2966 L71.2874 98.5898 L71.6657 99.0209 L73.1788 100.7451 L74.1876 101.8946 L75.0703 102.9004 L76.7095 104.7683 L76.9617 105.0557 L77.7183 105.9178 L78.8532 107.2109 L79.2315 107.642 L80.7446 109.3662 L81.7534 110.5157 L82.6361 111.5215 L84.2754 113.3894 L84.5275 113.6768 L85.2841 114.5389 L86.419 115.8321 L86.7973 116.2632 L88.3105 117.9874 L89.3192 119.1369 L90.2019 120.1427 L91.8412 122.0106 L92.0934 122.298 L92.8499 123.1601 L93.9848 124.4532 L94.3631 124.8843 L95.8763 126.6086 L96.885 127.758 L97.7677 128.7638 L99.407 130.6317 L99.6592 130.9191 L100.4157 131.7812 L101.5506 133.0744 L101.9289 133.5055 L103.4421 135.2297 L104.4508 136.3792 L105.3335 137.385 L106.9728 139.2529 L107.225 139.5403 L107.9816 140.4024 L109.1164 141.6955 L109.4947 142.1266 L111.0079 143.8508 L112.0167 145.0003 L112.8993 146.0061 L114.5386 147.874 L114.7908 148.1614 L115.5474 149.0235 L116.6822 150.3167 L117.0605 150.7477 L118.5737 152.472 L119.5825 153.6215 L120.4651 154.6273 L122.1044 156.4952 L122.3566 156.7825 L123.1132 157.6447 L124.2481 158.9378 L124.6263 159.3689 L126.1395 161.0931 L127.1483 162.2426 L128.031 163.2484 L129.6702 165.1163 L129.9224 165.4037 L130.679 166.2658 L131.8139 167.559 L132.1922 167.9901 L133.7053 169.7143 L134.7141 170.8638 L135.5968 171.8696 L137.236 173.7375 L137.4882 174.0249 L138.2448 174.887 L139.3797 176.1801 L139.758 176.6112 L141.2711 178.3354 L142.2799 179.4849 L143.1626 180.4907 L144.8018 182.3586 L145.054 182.646 L145.8106 183.5081 L146.9455 184.8013 L147.3238 185.2323 L148.8369 186.6117 L150.4762 188.1061 L150.7284 188.2976 L150.9806 188.4892 L152.6198 189.7345 L154.2591 190.9798 L154.5113 191.1714 L154.7635 191.3629 L156.4027 192.6082 L158.042 193.8535 L158.2942 194.0451 L158.5464 194.2366 L160.1857 195.4819 L161.8249 196.7272 L162.0771 196.9188 L162.3293 197.1104 L163.9686 198.3557 L165.6078 199.6009 L165.86 199.7925 L166.1122 199.9841 L167.7515 201.2294 L169.3907 202.4746 L169.6429 202.6662 L169.8951 202.8578 L171.5344 204.1031 L173.1736 205.3484 L173.4258 205.5399 L173.678 205.7315 L175.3173 206.9768 L176.9565 208.2221 L177.2087 208.4137 L177.4609 208.6052 L179.1002 209.8505 L180.7394 211.0958 L180.9916 211.2874 L181.2438 211.4789 L182.8831 212.7242 L184.5223 213.9695 L184.7745 214.1611 L185.0267 214.3527 L186.666 215.5979 L188.3052 216.8432 L188.5574 217.0348 L188.8096 217.2264 L190.4489 218.4716 L192.0882 219.7169 L192.3403 219.9085 L192.5925 220.1001 L194.2318 221.3454 L195.8711 222.5906 L196.1232 222.7822 L196.3754 222.9738 L198.0147 224.2191 L199.6539 225.4644 L199.9061 225.6559 L200.1583 225.8475 L201.7976 227.0928 L203.4369 228.3381 L203.6891 228.5297 L203.9413 228.7212 L205.5805 229.9665 L207.2198 231.2118 L207.472 231.4034 L207.7242 231.595 L209.3634 232.8402 L211.0027 234.0855 L211.2549 234.2771 L211.5071 234.4687 L213.1463 235.714 L214.7856 236.9592 L215.0378 237.1508 L215.29 237.3424 L216.9292 238.5877 L218.5685 239.8329 L218.8207 240.0245 L219.0729 240.2161 L220.7121 241.4614 L222.3514 242.7066 L222.6036 242.8982 L222.8558 243.0898 L224.495 244.3351 L226.1343 245.5804 L226.3865 245.7719 L226.6387 245.9635 L228.2779 247.2088 L229.9172 248.4541 L230.1694 248.6457 L230.4216 248.8372 L232.0609 250.0825 L233.7001 251.3278 L233.9523 251.5194 L234.2045 251.711 L235.8437 252.9563 L237.483 254.2015 L237.7352 254.3931 L237.9874 254.5847 L239.6267 255.83 L241.2659 257.0753 L241.5181 257.2668 L241.7703 257.4584 L243.4096 258.7037 L245.0488 259.9489 L245.301 260.1405 L245.5532 260.3321 L247.1925 261.5774 L248.8317 262.8227 L249.0839 263.0143 L249.3361 263.2058 L250.9754 264.4511 L252.6146 265.6964 L252.8668 265.888 L253.119 266.0795 L254.7583 267.3248 L256.3975 268.5701 L256.6497 268.7617 L256.9019 268.9533 L258.5412 270.1985 L260.1805 271.4438 L260.4326 271.6354 L260.6848 271.827 L262.3241 273.0723 L263.9633 274.3175 L264.2155 274.5091 L264.4677 274.7007 L266.107 275.946 L267.7462 277.1913 L267.9984 277.3828 L268.2506 277.5744 L269.8899 278.8197 L271.5291 280.065 L271.7813 280.2565 L272.0335 280.4481 L273.6728 281.6934 L275.3121 282.9387 L275.5643 283.1302 L275.8164 283.3218 L277.4557 284.5671 L279.095 285.8124 L279.3471 286.004 L279.5993 286.1956 L281.2386 287.4408 L282.8779 288.6861 L283.13 288.8777 L283.3823 289.0693 L285.0215 290.3145 L286.6608 291.5598 L286.913 291.7514 L287.1652 291.943 L288.8044 293.1883 L290.4437 294.4335 L290.6959 294.6251 L290.9481 294.8167 L292.5873 296.062 L294.2266 297.3073 L294.4788 297.4988 L294.731 297.6904 L296.3702 298.9357 L298.0095 300.181 L298.2617 300.3726 L298.5139 300.5641 L300.1531 301.8094 L301.7924 303.0547 L302.0446 303.2463 L302.2968 303.4379 L303.936 304.6831 L305.5753 305.9284 L305.8275 306.12 L306.0797 306.3116 L307.7189 307.5569 L309.3582 308.8021 L309.6104 308.9937 L309.8626 309.1853 L311.5019 310.4305 L313.1411 311.6758 L313.3933 311.8674 L313.6455 312.059 L315.2848 313.3043 L316.924 314.5496 L317.1762 314.7411 L317.4284 314.9327 L319.0677 316.178 L320.7069 317.4233 L320.9591 317.6149 L321.2113 317.8064 L322.8506 319.0517 L324.4898 320.297 L324.742 320.4886 L324.9942 320.6801 L326.6335 321.9254 L328.2727 323.1707 L328.5249 323.3623 L328.7771 323.5539 L330.4164 324.1765 L332.0556 326.0444 L332.3078 326.236 L332.56 326.4276 L333.0644 326.0444 L332.3078 325.4697 L331.299 323.1707 L330.4164 322.1649 L328.7771 320.297 L328.5249 320.0096 L327.7683 319.1475 L326.6335 317.8543 L326.2552 317.4233 L324.742 315.699 L323.7332 314.5496 L322.8506 313.5438 L321.2113 311.6758 L320.9591 311.3885 L320.2025 310.5264 L319.0677 309.2332 L318.6894 308.8021 L317.1762 307.0779 L316.1674 305.9284 L315.2848 304.9226 L313.6455 303.0547 L313.3933 302.7673 L312.6367 301.9052 L311.5019 300.612 L311.1236 300.181 L309.6104 298.4568 L308.6016 297.3073 L307.7189 296.3015 L306.0797 294.4335 L305.8275 294.1462 L305.0709 293.2841 L303.936 291.9909 L303.5577 291.5598 L302.0446 289.8356 L301.0358 288.6861 L300.1531 287.6803 L298.5139 285.8124 L298.2617 285.525 L297.5051 284.6629 L296.3702 283.3698 L295.9919 282.9387 L294.4788 281.2144 L293.47 280.065 L292.5873 279.0591 L290.9481 277.1913 L290.6959 276.9039 L289.9393 276.0417 L288.8044 274.7486 L288.4261 274.3175 L286.913 272.5933 L285.9042 271.4438 L285.0215 270.438 L283.3823 268.5701 L283.13 268.2827 L282.3735 267.4206 L281.2386 266.1274 L280.8603 265.6964 L279.3471 263.9722 L278.3384 262.8227 L277.4557 261.8169 L275.8164 259.9489 L275.5643 259.6616 L274.8076 258.7995 L273.6728 257.5063 L273.2945 257.0753 L271.7813 255.351 L270.7726 254.2015 L269.8899 253.1957 L268.2506 251.3278 L267.9984 251.0404 L267.2419 250.1783 L266.107 248.8851 L265.7287 248.4541 L264.2155 246.7299 L263.2068 245.5804 L262.3241 244.5746 L260.6848 242.7066 L260.4326 242.4193 L259.6761 241.5572 L258.5412 240.264 L258.1629 239.8329 L256.6497 238.1087 L255.6409 236.9592 L254.7583 235.9534 L253.119 234.0855 L252.8668 233.7981 L252.1102 232.936 L250.9754 231.6429 L250.5971 231.2118 L249.0839 229.4876 L248.0751 228.3381 L247.1925 227.3323 L245.5532 225.4644 L245.301 225.177 L244.5444 224.3149 L243.4096 223.0217 L243.0312 222.5906 L241.5181 220.8664 L240.5093 219.7169 L239.6267 218.7111 L237.9874 216.8432 L237.7352 216.5558 L236.9786 215.6937 L235.8437 214.4006 L235.4655 213.9695 L233.9523 212.2453 L232.9435 211.0958 L232.0609 210.09 L230.4216 208.2221 L230.1694 207.9347 L229.4128 207.0726 L228.2779 205.7794 L227.8997 205.3484 L226.3865 203.6241 L225.3777 202.4746 L224.495 201.4688 L222.8558 199.6009 L222.6036 199.3136 L221.847 198.4514 L220.7121 197.1583 L220.3338 196.7272 L218.8207 195.003 L217.8119 193.8535 L216.9292 192.8477 L215.29 190.9798 L215.0378 190.6924 L214.2812 189.8303 L213.1463 188.5371 L212.768 188.1061 L211.2549 186.7267 L209.6156 185.2323 L209.3634 185.0408 L209.1112 184.8492 L207.472 183.6039 L205.8327 182.3586 L205.5805 182.167 L205.3283 181.9755 L203.6891 180.7302 L202.0498 179.4849 L201.7976 179.2933 L201.5454 179.1017 L199.9061 177.8565 L198.2669 176.6112 L198.0147 176.4196 L197.7625 176.228 L196.1232 174.9828 L194.484 173.7375 L194.2318 173.5459 L193.9796 173.3543 L192.3403 172.1091 L190.7011 170.8638 L190.4489 170.6722 L190.1967 170.4806 L188.5574 169.2353 L186.9182 167.9901 L186.666 167.7985 L186.4138 167.6069 L184.7745 166.3616 L183.1353 165.1163 L182.8831 164.9247 L182.6309 164.7332 L180.9916 163.4879 L179.3524 162.2426 L179.1002 162.051 L178.848 161.8595 L177.2087 160.6142 L175.5695 159.3689 L175.3173 159.1773 L175.0651 158.9857 L173.4258 157.7405 L171.7866 156.4952 L171.5344 156.3036 L171.2822 156.112 L169.6429 154.8667 L168.0037 153.6215 L167.7515 153.4299 L167.4993 153.2383 L165.86 151.993 L164.2207 150.7477 L163.9686 150.5562 L163.7164 150.3646 L162.0771 149.1193 L160.4378 147.874 L160.1857 147.6825 L159.9335 147.4909 L158.2942 146.2456 L156.6549 145.0003 L156.4027 144.8087 L156.1506 144.6172 L154.5113 143.3719 L152.872 142.1266 L152.6198 141.935 L152.3676 141.7435 L150.7284 140.4982 L149.0891 139.2529 L148.8369 139.0613 L148.5847 138.8697 L146.9455 137.6244 L145.3062 136.3792 L145.054 136.1876 L144.8018 135.996 L143.1626 134.7507 L141.5233 133.5055 L141.2711 133.3139 L141.0189 133.1223 L139.3797 131.877 L137.7404 130.6317 L137.4882 130.4402 L137.236 130.2486 L135.5968 129.0033 L133.9575 127.758 L133.7053 127.5664 L133.4531 127.3748 L131.8139 126.1296 L130.1746 124.8843 L129.9224 124.6927 L129.6702 124.5011 L128.031 123.2559 L126.3917 122.0106 L126.1395 121.819 L125.8873 121.6274 L124.2481 120.3822 L122.6088 119.1369 L122.3566 118.9453 L122.1044 118.7537 L120.4651 117.5084 L118.8259 116.2632 L118.5737 116.0716 L118.3215 115.88 L116.6822 114.6347 L115.043 113.3894 L114.7908 113.1978 L114.5386 113.0063 L112.8993 111.761 L111.2601 110.5157 L111.0079 110.3242 L110.7557 110.1326 L109.1164 108.8873 L107.4772 107.642 L107.225 107.4504 L106.9728 107.2589 L105.3335 106.0136 L103.6943 104.7683 L103.4421 104.5767 L103.1899 104.3851 L101.5506 103.1399 L99.9114 101.8946 L99.6592 101.703 L99.407 101.5114 L97.7677 100.2661 L96.1285 99.0209 L95.8763 98.8293 L95.6241 98.6377 L93.9848 97.3924 L92.3456 96.1472 L92.0934 95.9556 L91.8412 95.764 L90.2019 94.5187 L88.5627 93.2734 L88.3105 93.0818 L88.0583 92.8903 L86.419 91.645 L84.7797 90.3997 L84.5275 90.2081 L84.2754 90.0166 L82.6361 88.7713 L80.9968 87.526 L80.7446 87.3344 L80.4925 87.1429 L78.8532 85.8976 L77.2139 84.6523 L76.9617 84.4607 L76.7095 84.2691 L75.0703 83.0238 L73.431 81.7786 L73.1788 81.587 L72.9266 81.3954 L71.2874 80.1501 L69.6481 78.9049 L69.3959 78.7133 L69.1437 78.5217 L67.5045 77.2764 L65.8652 76.0311 L65.613 75.8396 L65.3608 75.648 L63.7216 74.4027 L62.0823 73.1574 L61.8301 72.9659 L61.5779 72.7743 L59.9387 71.529 L58.2994 70.2837 L58.0472 70.0921 L57.795 69.9005 L56.1558 68.6553 L54.5165 67.41 L54.2643 67.2184 L54.0121 67.0268 L52.3729 65.7816 L50.7336 64.5363 L50.4814 64.3447 L50.2292 64.1531 L48.59 62.9078 L46.9507 61.6626 L46.6985 61.471 L46.4463 61.2794 L44.807 60.0341 L43.1678 58.7888 L42.9156 58.5973 L42.6634 58.4057 L41.0241 57.1604 L39.3849 55.9151 L39.1327 55.7235 L38.8805 55.532 L37.2412 54.2867 L35.602 53.0414 L35.3498 52.8498 L35.0976 52.6582 L33.4583 51.413 L31.8191 50.1677 L31.5669 49.9761 L31.3147 49.7845 L29.6754 49.1619 L28.0362 47.294 L27.784 47.1024 L27.5318 46.9108 L27.0274 47.294 L27.784 47.8687"
                  style="fill:none; clip-path:url(#clipPath2);"/>
        </g>
        <g transform="translate(6,5)"
           style="stroke-linecap:butt; text-rendering:optimizeLegibility; color-rendering:optimizeQuality; image-rendering:optimizeQuality; font-family:'Lucida Bright'; stroke-linejoin:round; color-interpolation:linearRGB;">
            <path d="M2 186.6692 L389 186.6692"
                  style="fill:none; clip-path:url(#clipPath1);"/>
        </g>
        <g transform="translate(6,5)"
           style="stroke-linecap:butt; text-rendering:optimizeLegibility; color-rendering:optimizeQuality; image-rendering:optimizeQuality; font-family:'Lucida Bright'; stroke-linejoin:round; color-interpolation:linearRGB;">
            <path d="M284.8906 220.9688 L284 218.9531 L283.625 218.2031 Q283.4375 217.7812 283.3047 217.6719 Q283.1719 217.5625 282.8281 217.5312 L282.3906 217.5 L282.25 217.5 L282.3281 217.0469 L284.7188 217.0469 L286.1562 220.1719 L286.5 219.9062 Q287.9219 218.7344 287.9219 217.9688 Q287.9219 217.5625 287.6094 217.0469 L289.0469 217.0469 Q289.125 217.3125 289.125 217.5 Q289.125 218.125 288.6797 218.6406 Q288.2344 219.1562 286.6875 220.3125 L286.3438 220.5781 L287.5469 223.1094 L287.9844 223.9219 Q288.2656 224.4844 288.7344 224.5156 L289.2031 224.5312 L289.3281 224.5469 L289.25 225 L286.8438 225 L285.125 221.375 L284.5 221.9375 Q283 223.2812 283 224.25 Q283 224.6406 283.25 225 L281.7031 225 Q281.6562 224.7969 281.6562 224.6875 Q281.6562 223.75 283.0312 222.5469 L284.1719 221.5938 L284.8906 220.9688 Z"
                  style="stroke:none; clip-path:url(#clipPath3);"/>
        </g>
        <g transform="translate(6,5)"
           style="text-rendering:optimizeLegibility; font-family:'Lucida Bright'; color-interpolation:linearRGB; color-rendering:optimizeQuality; image-rendering:optimizeQuality;">
            <path d="M85.6624 186.6692 L85.6624 190.6692"
                  style="fill:none; clip-path:url(#clipPath1);"/>
        </g>
        <g style="text-rendering:optimizeLegibility; font-family:'Lucida Bright'; color-interpolation:linearRGB; color-rendering:optimizeQuality; image-rendering:optimizeQuality;">
            <path d="M94.4531 207.8906 L84.5469 207.8906 L84.5469 207.1094 L94.4531 207.1094 L94.4531 207.8906 Z"
                  style="stroke:none; clip-path:url(#clipPath5);"/>
        </g>
        <g style="text-rendering:optimizeLegibility; font-family:'Lucida Bright'; color-interpolation:linearRGB; color-rendering:optimizeQuality; image-rendering:optimizeQuality;">
            <path d="M97.2812 201.0625 L97.2812 210.1094 L97.3281 210.8281 Q97.3594 211.2656 97.5859 211.3984 Q97.8125 211.5312 98.5156 211.5312 L99.375 211.5469 L99.375 212 L93.7656 212 L93.7656 211.5469 L94.625 211.5312 Q95.3125 211.5312 95.5391 211.3984 Q95.7656 211.2656 95.7969 210.8281 L95.8438 210.1094 L95.8438 203.375 L95.7969 202.6406 Q95.7969 202.125 95.5 202.125 Q95.2812 202.125 94.4844 202.2656 L93.7656 202.3906 L93.7656 201.9375 L97.2812 201.0625 Z"
                  style="stroke:none; clip-path:url(#clipPath4);"/>
        </g>
        <g transform="translate(6,5)"
           style="text-rendering:optimizeLegibility; font-family:'Lucida Bright'; color-interpolation:linearRGB; color-rendering:optimizeQuality; image-rendering:optimizeQuality;">
            <path d="M180.0459 186.6692 L180.0459 190.6692"
                  style="fill:none; clip-path:url(#clipPath1);"/>
            <path d="M177.5 210.2656 Q175.8281 210.2656 174.7969 208.7109 Q173.7656 207.1562 173.7656 204.6094 Q173.7656 202 174.7969 200.4453 Q175.8281 198.8906 177.5625 198.8906 Q179.2969 198.8906 180.3281 200.4375 Q181.3594 201.9844 181.3594 204.5938 Q181.3594 207.2031 180.3203 208.7344 Q179.2812 210.2656 177.5 210.2656 ZM177.5312 209.8125 Q179.8281 209.9219 179.8281 204.5 Q179.8281 199.3281 177.5625 199.3281 Q175.3125 199.3281 175.3125 204.5781 Q175.3125 209.7188 177.5312 209.8125 Z"
                  style="clip-path:url(#clipPath4); stroke:none;"
                  transform="translate(-6,-5)"/>
        </g>
        <g transform="translate(6,5)"
           style="text-rendering:optimizeLegibility; font-family:'Lucida Bright'; color-interpolation:linearRGB; color-rendering:optimizeQuality; image-rendering:optimizeQuality;">
            <path d="M274.4294 186.6692 L274.4294 190.6692"
                  style="fill:none; clip-path:url(#clipPath1);"/>
            <path d="M281.2812 201.0625 L281.2812 210.1094 L281.3281 210.8281 Q281.3594 211.2656 281.5859 211.3984 Q281.8125 211.5312 282.5156 211.5312 L283.375 211.5469 L283.375 212 L277.7656 212 L277.7656 211.5469 L278.625 211.5312 Q279.3125 211.5312 279.5391 211.3984 Q279.7656 211.2656 279.7969 210.8281 L279.8438 210.1094 L279.8438 203.375 L279.7969 202.6406 Q279.7969 202.125 279.5 202.125 Q279.2812 202.125 278.4844 202.2656 L277.7656 202.3906 L277.7656 201.9375 L281.2812 201.0625 Z"
                  style="clip-path:url(#clipPath4); stroke:none;"
                  transform="translate(-6,-5)"/>
        </g>
        <g transform="translate(6,5)"
           style="text-rendering:optimizeLegibility; font-family:'Lucida Bright'; color-interpolation:linearRGB; color-rendering:optimizeQuality; image-rendering:optimizeQuality;">
            <path d="M368.8128 186.6692 L368.8128 190.6692"
                  style="fill:none; clip-path:url(#clipPath1);"/>
            <path d="M371.1719 212 L371.1719 211.2812 Q371.7969 209.4531 373.125 208.2188 L373.9062 207.5 Q375.25 206.2344 375.6953 205.4922 Q376.1406 204.75 376.1406 203.7969 Q376.1406 202.6875 375.5938 202.0156 Q375.0469 201.3438 374.1562 201.3438 Q373.1562 201.3438 372.4688 201.8906 Q372.2188 202.0938 372.1406 203.3438 L372.1406 203.5156 L371.4062 203.5156 L371.4062 201.5469 Q372.9844 200.875 374.3281 200.875 Q375.7969 200.875 376.7344 201.7031 Q377.6719 202.5312 377.6719 203.7969 Q377.6719 205.5156 375.5469 206.9688 L374.6719 207.5781 Q372.5625 209.0312 372.3594 210.7344 L377.625 210.7344 L377.625 212 L371.1719 212 Z"
                  style="clip-path:url(#clipPath4); stroke:none;"
                  transform="translate(-6,-5)"/>
        </g>
        <g transform="translate(6,5)"
           style="text-rendering:optimizeLegibility; font-family:'Lucida Bright'; color-interpolation:linearRGB; color-rendering:optimizeQuality; image-rendering:optimizeQuality;">
            <path d="M38.4707 186.6692 L38.4707 188.6692"
                  style="fill:none; clip-path:url(#clipPath1);"/>
        </g>
        <g transform="translate(6,5)"
           style="text-rendering:optimizeLegibility; font-family:'Lucida Bright'; color-interpolation:linearRGB; color-rendering:optimizeQuality; image-rendering:optimizeQuality;">
            <path d="M132.8542 186.6692 L132.8542 188.6692"
                  style="fill:none; clip-path:url(#clipPath1);"/>
        </g>
        <g transform="translate(6,5)"
           style="text-rendering:optimizeLegibility; font-family:'Lucida Bright'; color-interpolation:linearRGB; color-rendering:optimizeQuality; image-rendering:optimizeQuality;">
            <path d="M227.2376 186.6692 L227.2376 188.6692"
                  style="fill:none; clip-path:url(#clipPath1);"/>
        </g>
        <g transform="translate(6,5)"
           style="text-rendering:optimizeLegibility; font-family:'Lucida Bright'; color-interpolation:linearRGB; color-rendering:optimizeQuality; image-rendering:optimizeQuality;">
            <path d="M321.6211 186.6692 L321.6211 188.6692"
                  style="fill:none; clip-path:url(#clipPath1);"/>
        </g>
        <g transform="translate(6,5)"
           style="stroke-linecap:butt; text-rendering:optimizeLegibility; color-rendering:optimizeQuality; image-rendering:optimizeQuality; font-family:'Lucida Bright'; stroke-linejoin:round; color-interpolation:linearRGB;">
            <path d="M180.0459 388 L180.0459 1"
                  style="fill:none; clip-path:url(#clipPath1);"/>
        </g>
        <g transform="translate(6,5)"
           style="stroke-linecap:butt; text-rendering:optimizeLegibility; color-rendering:optimizeQuality; image-rendering:optimizeQuality; font-family:'Lucida Bright'; stroke-linejoin:round; color-interpolation:linearRGB;">
            <path d="M120.9688 101.8906 Q122.3125 100.9531 124.3438 99.0781 L124.625 98.8125 Q124.5312 97.1094 124.1875 95.2266 Q123.8438 93.3438 123.4688 92.5 Q123.1406 91.7969 122.9531 91.6719 Q122.7656 91.5469 121.9375 91.5 L121.7656 91.5 L121.8438 91.0469 L124.5156 91.0469 Q125.6562 93.7344 125.8125 97.3594 L126.7188 96.1875 Q128.0469 94.5 128.4922 93.7109 Q128.9375 92.9219 128.9375 92.25 Q128.9375 91.5625 128.3594 91.0469 L130.1719 91.0469 Q130.3281 91.375 130.3281 91.6719 Q130.3281 92.2969 129.9219 92.9766 Q129.5156 93.6562 128.2188 95.2031 L125.4531 98.5312 Q123.7969 100.5156 122.9688 101.8906 L120.9688 101.8906 Z"
                  style="stroke:none; clip-path:url(#clipPath6);"/>
        </g>
        <g transform="translate(6,5)"
           style="text-rendering:optimizeLegibility; font-family:'Lucida Bright'; color-interpolation:linearRGB; color-rendering:optimizeQuality; image-rendering:optimizeQuality;">
            <path d="M180.0459 330.0676 L176.0459 330.0676"
                  style="fill:none; clip-path:url(#clipPath1);"/>
        </g>
        <g style="text-rendering:optimizeLegibility; font-family:'Lucida Bright'; color-interpolation:linearRGB; color-rendering:optimizeQuality; image-rendering:optimizeQuality;">
            <path d="M172.4531 336.8906 L162.5469 336.8906 L162.5469 336.1094 L172.4531 336.1094 L172.4531 336.8906 Z"
                  style="stroke:none; clip-path:url(#clipPath7);"/>
        </g>
        <g style="text-rendering:optimizeLegibility; font-family:'Lucida Bright'; color-interpolation:linearRGB; color-rendering:optimizeQuality; image-rendering:optimizeQuality;">
            <path d="M175.2812 330.0625 L175.2812 339.1094 L175.3281 339.8281 Q175.3594 340.2656 175.5859 340.3984 Q175.8125 340.5312 176.5156 340.5312 L177.375 340.5469 L177.375 341 L171.7656 341 L171.7656 340.5469 L172.625 340.5312 Q173.3125 340.5312 173.5391 340.3984 Q173.7656 340.2656 173.7969 339.8281 L173.8438 339.1094 L173.8438 332.375 L173.7969 331.6406 Q173.7969 331.125 173.5 331.125 Q173.2812 331.125 172.4844 331.2656 L171.7656 331.3906 L171.7656 330.9375 L175.2812 330.0625 Z"
                  style="stroke:none; clip-path:url(#clipPath4);"/>
        </g>
        <g transform="translate(6,5)"
           style="text-rendering:optimizeLegibility; font-family:'Lucida Bright'; color-interpolation:linearRGB; color-rendering:optimizeQuality; image-rendering:optimizeQuality;">
            <path d="M180.0459 258.3684 L176.0459 258.3684"
                  style="fill:none; clip-path:url(#clipPath1);"/>
        </g>
        <g style="text-rendering:optimizeLegibility; font-family:'Lucida Bright'; color-interpolation:linearRGB; color-rendering:optimizeQuality; image-rendering:optimizeQuality;">
            <path d="M158.4531 264.8906 L148.5469 264.8906 L148.5469 264.1094 L158.4531 264.1094 L158.4531 264.8906 Z"
                  style="stroke:none; clip-path:url(#clipPath8);"/>
        </g>
        <g style="text-rendering:optimizeLegibility; font-family:'Lucida Bright'; color-interpolation:linearRGB; color-rendering:optimizeQuality; image-rendering:optimizeQuality;">
            <path d="M160.5 269.2656 Q158.8281 269.2656 157.7969 267.7109 Q156.7656 266.1562 156.7656 263.6094 Q156.7656 261 157.7969 259.4453 Q158.8281 257.8906 160.5625 257.8906 Q162.2969 257.8906 163.3281 259.4375 Q164.3594 260.9844 164.3594 263.5938 Q164.3594 266.2031 163.3203 267.7344 Q162.2812 269.2656 160.5 269.2656 ZM160.5312 268.8125 Q162.8281 268.9219 162.8281 263.5 Q162.8281 258.3281 160.5625 258.3281 Q158.3125 258.3281 158.3125 263.5781 Q158.3125 268.7188 160.5312 268.8125 ZM166.2041 269 L166.2041 267.1875 L168.0166 267.1875 L168.0166 269 L166.2041 269 ZM170.8218 269.0156 L170.8218 267.1875 L171.5405 267.1875 L171.5562 267.3594 L171.5718 267.9219 Q171.6187 268.8125 172.978 268.8125 Q173.9937 268.8125 174.5874 268.0234 Q175.1812 267.2344 175.1812 265.875 Q175.1812 264.3281 174.2593 263.6641 Q173.3374 263 171.2593 263 L170.9937 263 L170.9937 258.1562 L176.4624 258.1562 L176.4624 259.4219 L171.4468 259.4219 L171.4468 262.4531 L172.1187 262.4531 Q176.6968 262.4531 176.6968 265.9375 Q176.6968 267.5 175.6421 268.3828 Q174.5874 269.2656 172.728 269.2656 Q171.8062 269.2656 170.8218 269.0156 Z"
                  style="stroke:none; clip-path:url(#clipPath4);"/>
        </g>
        <g transform="translate(6,5)"
           style="text-rendering:optimizeLegibility; font-family:'Lucida Bright'; color-interpolation:linearRGB; color-rendering:optimizeQuality; image-rendering:optimizeQuality;">
            <path d="M180.0459 186.6692 L176.0459 186.6692"
                  style="fill:none; clip-path:url(#clipPath1);"/>
        </g>
        <g transform="translate(6,5)"
           style="text-rendering:optimizeLegibility; font-family:'Lucida Bright'; color-interpolation:linearRGB; color-rendering:optimizeQuality; image-rendering:optimizeQuality;">
            <path d="M180.0459 114.97 L176.0459 114.97"
                  style="fill:none; clip-path:url(#clipPath1);"/>
            <path d="M160.5 125.2656 Q158.8281 125.2656 157.7969 123.7109 Q156.7656 122.1562 156.7656 119.6094 Q156.7656 117 157.7969 115.4453 Q158.8281 113.8906 160.5625 113.8906 Q162.2969 113.8906 163.3281 115.4375 Q164.3594 116.9844 164.3594 119.5938 Q164.3594 122.2031 163.3203 123.7344 Q162.2812 125.2656 160.5 125.2656 ZM160.5312 124.8125 Q162.8281 124.9219 162.8281 119.5 Q162.8281 114.3281 160.5625 114.3281 Q158.3125 114.3281 158.3125 119.5781 Q158.3125 124.7188 160.5312 124.8125 ZM166.2041 125 L166.2041 123.1875 L168.0166 123.1875 L168.0166 125 L166.2041 125 ZM170.8218 125.0156 L170.8218 123.1875 L171.5405 123.1875 L171.5562 123.3594 L171.5718 123.9219 Q171.6187 124.8125 172.978 124.8125 Q173.9937 124.8125 174.5874 124.0234 Q175.1812 123.2344 175.1812 121.875 Q175.1812 120.3281 174.2593 119.6641 Q173.3374 119 171.2593 119 L170.9937 119 L170.9937 114.1562 L176.4624 114.1562 L176.4624 115.4219 L171.4468 115.4219 L171.4468 118.4531 L172.1187 118.4531 Q176.6968 118.4531 176.6968 121.9375 Q176.6968 123.5 175.6421 124.3828 Q174.5874 125.2656 172.728 125.2656 Q171.8062 125.2656 170.8218 125.0156 Z"
                  style="clip-path:url(#clipPath4); stroke:none;"
                  transform="translate(-6,-5)"/>
        </g>
        <g transform="translate(6,5)"
           style="text-rendering:optimizeLegibility; font-family:'Lucida Bright'; color-interpolation:linearRGB; color-rendering:optimizeQuality; image-rendering:optimizeQuality;">
            <path d="M180.0459 43.2708 L176.0459 43.2708"
                  style="fill:none; clip-path:url(#clipPath1);"/>
            <path d="M175.2812 43.0625 L175.2812 52.1094 L175.3281 52.8281 Q175.3594 53.2656 175.5859 53.3984 Q175.8125 53.5312 176.5156 53.5312 L177.375 53.5469 L177.375 54 L171.7656 54 L171.7656 53.5469 L172.625 53.5312 Q173.3125 53.5312 173.5391 53.3984 Q173.7656 53.2656 173.7969 52.8281 L173.8438 52.1094 L173.8438 45.375 L173.7969 44.6406 Q173.7969 44.125 173.5 44.125 Q173.2812 44.125 172.4844 44.2656 L171.7656 44.3906 L171.7656 43.9375 L175.2812 43.0625 Z"
                  style="clip-path:url(#clipPath4); stroke:none;"
                  transform="translate(-6,-5)"/>
        </g>
        <g transform="translate(6,5)"
           style="text-rendering:optimizeLegibility; font-family:'Lucida Bright'; color-interpolation:linearRGB; color-rendering:optimizeQuality; image-rendering:optimizeQuality;">
            <path d="M180.0459 387.427 L178.0459 387.427"
                  style="fill:none; clip-path:url(#clipPath1);"/>
        </g>
        <g transform="translate(6,5)"
           style="text-rendering:optimizeLegibility; font-family:'Lucida Bright'; color-interpolation:linearRGB; color-rendering:optimizeQuality; image-rendering:optimizeQuality;">
            <path d="M180.0459 373.0872 L178.0459 373.0872"
                  style="fill:none; clip-path:url(#clipPath1);"/>
        </g>
        <g transform="translate(6,5)"
           style="text-rendering:optimizeLegibility; font-family:'Lucida Bright'; color-interpolation:linearRGB; color-rendering:optimizeQuality; image-rendering:optimizeQuality;">
            <path d="M180.0459 358.7473 L178.0459 358.7473"
                  style="fill:none; clip-path:url(#clipPath1);"/>
        </g>
        <g transform="translate(6,5)"
           style="text-rendering:optimizeLegibility; font-family:'Lucida Bright'; color-interpolation:linearRGB; color-rendering:optimizeQuality; image-rendering:optimizeQuality;">
            <path d="M180.0459 344.4075 L178.0459 344.4075"
                  style="fill:none; clip-path:url(#clipPath1);"/>
        </g>
        <g transform="translate(6,5)"
           style="text-rendering:optimizeLegibility; font-family:'Lucida Bright'; color-interpolation:linearRGB; color-rendering:optimizeQuality; image-rendering:optimizeQuality;">
            <path d="M180.0459 315.7278 L178.0459 315.7278"
                  style="fill:none; clip-path:url(#clipPath1);"/>
        </g>
        <g transform="translate(6,5)"
           style="text-rendering:optimizeLegibility; font-family:'Lucida Bright'; color-interpolation:linearRGB; color-rendering:optimizeQuality; image-rendering:optimizeQuality;">
            <path d="M180.0459 301.3879 L178.0459 301.3879"
                  style="fill:none; clip-path:url(#clipPath1);"/>
        </g>
        <g transform="translate(6,5)"
           style="text-rendering:optimizeLegibility; font-family:'Lucida Bright'; color-interpolation:linearRGB; color-rendering:optimizeQuality; image-rendering:optimizeQuality;">
            <path d="M180.0459 287.0481 L178.0459 287.0481"
                  style="fill:none; clip-path:url(#clipPath1);"/>
        </g>
        <g transform="translate(6,5)"
           style="text-rendering:optimizeLegibility; font-family:'Lucida Bright'; color-interpolation:linearRGB; color-rendering:optimizeQuality; image-rendering:optimizeQuality;">
            <path d="M180.0459 272.7083 L178.0459 272.7083"
                  style="fill:none; clip-path:url(#clipPath1);"/>
        </g>
        <g transform="translate(6,5)"
           style="text-rendering:optimizeLegibility; font-family:'Lucida Bright'; color-interpolation:linearRGB; color-rendering:optimizeQuality; image-rendering:optimizeQuality;">
            <path d="M180.0459 244.0286 L178.0459 244.0286"
                  style="fill:none; clip-path:url(#clipPath1);"/>
        </g>
        <g transform="translate(6,5)"
           style="text-rendering:optimizeLegibility; font-family:'Lucida Bright'; color-interpolation:linearRGB; color-rendering:optimizeQuality; image-rendering:optimizeQuality;">
            <path d="M180.0459 229.6887 L178.0459 229.6887"
                  style="fill:none; clip-path:url(#clipPath1);"/>
        </g>
        <g transform="translate(6,5)"
           style="text-rendering:optimizeLegibility; font-family:'Lucida Bright'; color-interpolation:linearRGB; color-rendering:optimizeQuality; image-rendering:optimizeQuality;">
            <path d="M180.0459 215.3489 L178.0459 215.3489"
                  style="fill:none; clip-path:url(#clipPath1);"/>
        </g>
        <g transform="translate(6,5)"
           style="text-rendering:optimizeLegibility; font-family:'Lucida Bright'; color-interpolation:linearRGB; color-rendering:optimizeQuality; image-rendering:optimizeQuality;">
            <path d="M180.0459 201.009 L178.0459 201.009"
                  style="fill:none; clip-path:url(#clipPath1);"/>
        </g>
        <g transform="translate(6,5)"
           style="text-rendering:optimizeLegibility; font-family:'Lucida Bright'; color-interpolation:linearRGB; color-rendering:optimizeQuality; image-rendering:optimizeQuality;">
            <path d="M180.0459 172.3294 L178.0459 172.3294"
                  style="fill:none; clip-path:url(#clipPath1);"/>
        </g>
        <g transform="translate(6,5)"
           style="text-rendering:optimizeLegibility; font-family:'Lucida Bright'; color-interpolation:linearRGB; color-rendering:optimizeQuality; image-rendering:optimizeQuality;">
            <path d="M180.0459 157.9895 L178.0459 157.9895"
                  style="fill:none; clip-path:url(#clipPath1);"/>
        </g>
        <g transform="translate(6,5)"
           style="text-rendering:optimizeLegibility; font-family:'Lucida Bright'; color-interpolation:linearRGB; color-rendering:optimizeQuality; image-rendering:optimizeQuality;">
            <path d="M180.0459 143.6497 L178.0459 143.6497"
                  style="fill:none; clip-path:url(#clipPath1);"/>
        </g>
        <g transform="translate(6,5)"
           style="text-rendering:optimizeLegibility; font-family:'Lucida Bright'; color-interpolation:linearRGB; color-rendering:optimizeQuality; image-rendering:optimizeQuality;">
            <path d="M180.0459 129.3098 L178.0459 129.3098"
                  style="fill:none; clip-path:url(#clipPath1);"/>
        </g>
        <g transform="translate(6,5)"
           style="text-rendering:optimizeLegibility; font-family:'Lucida Bright'; color-interpolation:linearRGB; color-rendering:optimizeQuality; image-rendering:optimizeQuality;">
            <path d="M180.0459 100.6302 L178.0459 100.6302"
                  style="fill:none; clip-path:url(#clipPath1);"/>
        </g>
        <g transform="translate(6,5)"
           style="text-rendering:optimizeLegibility; font-family:'Lucida Bright'; color-interpolation:linearRGB; color-rendering:optimizeQuality; image-rendering:optimizeQuality;">
            <path d="M180.0459 86.2903 L178.0459 86.2903"
                  style="fill:none; clip-path:url(#clipPath1);"/>
        </g>
        <g transform="translate(6,5)"
           style="text-rendering:optimizeLegibility; font-family:'Lucida Bright'; color-interpolation:linearRGB; color-rendering:optimizeQuality; image-rendering:optimizeQuality;">
            <path d="M180.0459 71.9505 L178.0459 71.9505"
                  style="fill:none; clip-path:url(#clipPath1);"/>
        </g>
        <g transform="translate(6,5)"
           style="text-rendering:optimizeLegibility; font-family:'Lucida Bright'; color-interpolation:linearRGB; color-rendering:optimizeQuality; image-rendering:optimizeQuality;">
            <path d="M180.0459 57.6106 L178.0459 57.6106"
                  style="fill:none; clip-path:url(#clipPath1);"/>
        </g>
        <g transform="translate(6,5)"
           style="text-rendering:optimizeLegibility; font-family:'Lucida Bright'; color-interpolation:linearRGB; color-rendering:optimizeQuality; image-rendering:optimizeQuality;">
            <path d="M180.0459 28.9309 L178.0459 28.9309"
                  style="fill:none; clip-path:url(#clipPath1);"/>
        </g>
        <g transform="translate(6,5)"
           style="text-rendering:optimizeLegibility; font-family:'Lucida Bright'; color-interpolation:linearRGB; color-rendering:optimizeQuality; image-rendering:optimizeQuality;">
            <path d="M180.0459 14.5911 L178.0459 14.5911"
                  style="fill:none; clip-path:url(#clipPath1);"/>
        </g>
    </g>
</svg>
