<?xml version="1.0" encoding="UTF-8"?>
<!DOCTYPE svg PUBLIC '-//W3C//DTD SVG 1.0//EN'
    'http://www.w3.org/TR/2001/REC-SVG-20010904/DTD/svg10.dtd' >

<svg style="stroke-dasharray:none; shape-rendering:auto; font-family:'Dialog'; text-rendering:auto; fill-opacity:1; color-interpolation:auto; color-rendering:auto; font-size:12px; fill:black; stroke:black; image-rendering:auto; stroke-miterlimit:10; stroke-linecap:square; stroke-linejoin:miter; font-style:normal; stroke-width:1; stroke-dashoffset:0; font-weight:normal; stroke-opacity:1;"
     xmlns="http://www.w3.org/2000/svg" contentScriptType="text/ecmascript"
     preserveAspectRatio="xMidYMid meet"
     xmlns:xlink="http://www.w3.org/1999/xlink" zoomAndPan="magnify"
     version="1.0" contentStyleType="text/css">
    <!--Generated by the Batik Graphics2D SVG Generator-->
    <defs id="genericDefs"/>
    <g>
        <defs id="defs1">
            <clipPath clipPathUnits="userSpaceOnUse" id="clipPath1">
                <path d="M0 0 L390 0 L390 390 L0 390 L0 0 Z"/>
            </clipPath>
            <clipPath clipPathUnits="userSpaceOnUse" id="clipPath2">
                <path d="M1 0 L1 389 L390 389 L390 0 Z"/>
            </clipPath>
            <clipPath clipPathUnits="userSpaceOnUse" id="clipPath3">
                <path d="M267 191 L267 209 L286 209 L286 191 Z"/>
            </clipPath>
            <clipPath clipPathUnits="userSpaceOnUse" id="clipPath4">
                <path d="M6 5 L396 5 L396 395 L6 395 L6 5 Z"/>
            </clipPath>
            <clipPath clipPathUnits="userSpaceOnUse" id="clipPath5">
                <path d="M67 180 L67 196 L75 196 L75 180 Z"/>
            </clipPath>
            <clipPath clipPathUnits="userSpaceOnUse" id="clipPath6">
                <path d="M99 75 L99 93 L119 93 L119 75 Z"/>
            </clipPath>
            <clipPath clipPathUnits="userSpaceOnUse" id="clipPath7">
                <path d="M144 315 L144 331 L152 331 L152 315 Z"/>
            </clipPath>
            <clipPath clipPathUnits="userSpaceOnUse" id="clipPath8">
                <path d="M130 240 L130 256 L138 256 L138 240 Z"/>
            </clipPath>
        </defs>
        <g transform="translate(6,5)"
           style="stroke-linecap:butt; fill:rgb(165,165,165); text-rendering:optimizeLegibility; image-rendering:optimizeQuality; color-rendering:optimizeQuality; font-family:'Lucida Bright'; stroke-linejoin:round; stroke:rgb(165,165,165); color-interpolation:linearRGB;">
            <path d="M70.6904 388 L70.6904 1"
                  style="fill:none; clip-path:url(#clipPath1);"/>
            <path d="M164.9461 388 L164.9461 1"
                  style="fill:none; clip-path:url(#clipPath1);"/>
            <path d="M259.2018 388 L259.2018 1"
                  style="fill:none; clip-path:url(#clipPath1);"/>
            <path d="M353.4575 388 L353.4575 1"
                  style="fill:none; clip-path:url(#clipPath1);"/>
            <path d="M23.5625 388 L23.5625 1"
                  style="fill:none; clip-path:url(#clipPath1); stroke:rgb(233,233,233);"/>
            <path d="M117.8182 388 L117.8182 1"
                  style="fill:none; clip-path:url(#clipPath1); stroke:rgb(233,233,233);"/>
            <path d="M212.0739 388 L212.0739 1"
                  style="fill:none; clip-path:url(#clipPath1); stroke:rgb(233,233,233);"/>
            <path d="M306.3296 388 L306.3296 1"
                  style="fill:none; clip-path:url(#clipPath1); stroke:rgb(233,233,233);"/>
        </g>
        <g transform="translate(6,5)"
           style="stroke-linecap:butt; fill:rgb(165,165,165); text-rendering:optimizeLegibility; image-rendering:optimizeQuality; color-rendering:optimizeQuality; font-family:'Lucida Bright'; stroke-linejoin:round; stroke:rgb(165,165,165); color-interpolation:linearRGB;">
            <path d="M2 317.1391 L389 317.1391"
                  style="fill:none; clip-path:url(#clipPath1);"/>
            <path d="M2 242.2894 L389 242.2894"
                  style="fill:none; clip-path:url(#clipPath1);"/>
            <path d="M2 167.4397 L389 167.4397"
                  style="fill:none; clip-path:url(#clipPath1);"/>
            <path d="M2 92.59 L389 92.59"
                  style="fill:none; clip-path:url(#clipPath1);"/>
            <path d="M2 17.7403 L389 17.7403"
                  style="fill:none; clip-path:url(#clipPath1);"/>
            <path d="M2 377.0188 L389 377.0188"
                  style="fill:none; clip-path:url(#clipPath1); stroke:rgb(233,233,233);"/>
            <path d="M2 362.0489 L389 362.0489"
                  style="fill:none; clip-path:url(#clipPath1); stroke:rgb(233,233,233);"/>
            <path d="M2 347.0789 L389 347.0789"
                  style="fill:none; clip-path:url(#clipPath1); stroke:rgb(233,233,233);"/>
            <path d="M2 332.109 L389 332.109"
                  style="fill:none; clip-path:url(#clipPath1); stroke:rgb(233,233,233);"/>
            <path d="M2 302.1691 L389 302.1691"
                  style="fill:none; clip-path:url(#clipPath1); stroke:rgb(233,233,233);"/>
            <path d="M2 287.1992 L389 287.1992"
                  style="fill:none; clip-path:url(#clipPath1); stroke:rgb(233,233,233);"/>
            <path d="M2 272.2292 L389 272.2292"
                  style="fill:none; clip-path:url(#clipPath1); stroke:rgb(233,233,233);"/>
            <path d="M2 257.2593 L389 257.2593"
                  style="fill:none; clip-path:url(#clipPath1); stroke:rgb(233,233,233);"/>
            <path d="M2 227.3194 L389 227.3194"
                  style="fill:none; clip-path:url(#clipPath1); stroke:rgb(233,233,233);"/>
            <path d="M2 212.3495 L389 212.3495"
                  style="fill:none; clip-path:url(#clipPath1); stroke:rgb(233,233,233);"/>
            <path d="M2 197.3796 L389 197.3796"
                  style="fill:none; clip-path:url(#clipPath1); stroke:rgb(233,233,233);"/>
            <path d="M2 182.4096 L389 182.4096"
                  style="fill:none; clip-path:url(#clipPath1); stroke:rgb(233,233,233);"/>
            <path d="M2 152.4697 L389 152.4697"
                  style="fill:none; clip-path:url(#clipPath1); stroke:rgb(233,233,233);"/>
            <path d="M2 137.4998 L389 137.4998"
                  style="fill:none; clip-path:url(#clipPath1); stroke:rgb(233,233,233);"/>
            <path d="M2 122.5298 L389 122.5298"
                  style="fill:none; clip-path:url(#clipPath1); stroke:rgb(233,233,233);"/>
            <path d="M2 107.5599 L389 107.5599"
                  style="fill:none; clip-path:url(#clipPath1); stroke:rgb(233,233,233);"/>
            <path d="M2 77.62 L389 77.62"
                  style="fill:none; clip-path:url(#clipPath1); stroke:rgb(233,233,233);"/>
            <path d="M2 62.6501 L389 62.6501"
                  style="fill:none; clip-path:url(#clipPath1); stroke:rgb(233,233,233);"/>
            <path d="M2 47.6801 L389 47.6801"
                  style="fill:none; clip-path:url(#clipPath1); stroke:rgb(233,233,233);"/>
            <path d="M2 32.7102 L389 32.7102"
                  style="fill:none; clip-path:url(#clipPath1); stroke:rgb(233,233,233);"/>
            <path d="M2 2.7704 L389 2.7704"
                  style="fill:none; clip-path:url(#clipPath1); stroke:rgb(233,233,233);"/>
        </g>
        <g transform="translate(6,5)"
           style="stroke-linecap:butt; fill:blue; text-rendering:optimizeLegibility; image-rendering:optimizeQuality; color-rendering:optimizeQuality; font-family:'Lucida Bright'; stroke-linejoin:round; stroke:blue; color-interpolation:linearRGB; stroke-width:1.5;">
            <path d="M3.4458 12.7224 L3.5091 12.9403 L3.6009 13.1866 L4.7493 15.9403 L5.3347 17.1465 L6.1552 18.9403 L7.2236 20.988 L7.6934 21.9403 L9.1125 24.5007 L9.3436 24.9402 L11.0014 27.7821 L11.0891 27.9402 L12.8903 30.8947 L12.9167 30.9402 L14.7792 33.8804 L14.8154 33.9402 L16.6681 36.7681 L16.776 36.9402 L18.557 39.5787 L18.7909 39.9402 L20.4459 42.3276 L20.8538 42.9402 L22.3347 45.0261 L22.9591 45.9402 L24.2236 47.6832 L25.1022 48.9402 L26.1125 50.3057 L27.2792 51.9402 L28.0014 52.899 L29.4865 54.9401 L29.8903 55.4676 L31.7212 57.9401 L31.7792 58.0148 L32.0671 58.3974 L33.6681 60.4911 L33.9999 60.9401 L35.557 62.945 L36.3046 63.9401 L37.4459 65.3887 L38.6295 66.9401 L39.3348 67.8235 L40.9727 69.9401 L41.2237 70.2506 L42.216 71.5161 L43.1125 72.6392 L43.3452 72.9401 L45.0014 74.9888 L45.747 75.94 L46.8903 77.3379 L48.162 78.94 L48.7792 79.6866 L50.5889 81.94 L50.6681 82.0349 L50.9341 82.3625 L52.557 84.3236 L53.0521 84.94 L54.4459 86.607 L55.5285 87.94 L56.3348 88.895 L58.0132 90.94 L58.2237 91.1871 L58.8711 91.9682 L60.1126 93.4369 L60.5257 93.94 L62.0015 95.6698 L63.055 96.9399 L63.8904 97.9107 L65.5894 99.94 L65.7793 100.1588 L66.3204 100.7994 L67.6681 102.3631 L68.1516 102.9399 L69.557 104.5572 L70.7264 105.9399 L71.4459 106.7616 L73.3036 108.9399 L73.3348 108.9753 L73.418 109.072 L75.2237 111.13 L75.9154 111.9399 L77.1126 113.2944 L78.5292 114.9399 L79.0015 115.4706 L80.2203 116.8756 L80.8904 117.6321 L81.1557 117.9399 L82.7793 119.76 L83.8044 120.9399 L84.6682 121.9019 L86.4518 123.9398 L86.5571 124.0563 L86.814 124.3479 L88.4459 126.1612 L89.1286 126.9398 L90.3348 128.2717 L91.8076 129.9398 L92.2237 130.3966 L93.2103 131.5068 L94.1126 132.5005 L94.5012 132.9398 L96.0015 134.5824 L97.2103 135.9398 L97.8904 136.6803 L99.4583 138.43 L99.7793 138.7805 L99.9215 138.9398 L101.6682 140.8363 L102.6592 141.9398 L103.5571 142.9095 L105.3913 144.9398 L105.446 144.9985 L105.5664 145.1311 L107.3349 147.0356 L108.1537 147.9397 L109.2238 149.0863 L110.9118 150.9398 L111.1126 151.1539 L111.5444 151.6255 L113.0015 153.1821 L113.6932 153.9397 L114.8904 155.2125 L116.4759 156.9397 L116.7793 157.2608 L117.4158 157.9507 L118.6682 159.278 L119.2772 159.9397 L120.5571 161.29 L122.0833 162.9397 L122.446 163.3207 L123.1894 164.1204 L124.3349 165.325 L124.9051 165.9397 L126.2238 167.3205 L127.7332 168.9397 L128.1127 169.3354 L128.8729 170.147 L130.0016 171.325 L130.5762 171.9397 L131.8905 173.3056 L133.4253 174.9397 L133.7793 175.3062 L134.4733 176.0418 L135.6682 177.2795 L136.2901 177.9396 L137.5571 179.2469 L139.1589 180.9396 L139.446 181.2348 L139.9969 181.8146 L141.3349 183.1902 L142.0462 183.9396 L143.2238 185.1459 L144.9335 186.9396 L145.1127 187.1226 L145.4494 187.4744 L147.0016 189.0586 L147.844 189.9396 L148.8905 191.0041 L150.7487 192.9396 L150.7794 192.9707 L150.8359 193.0294 L152.6683 194.8862 L153.6829 195.9396 L154.5572 196.8227 L156.1514 198.4716 L156.446 198.769 L156.6109 198.9396 L158.3349 200.6743 L159.5623 201.9395 L160.2238 202.6031 L161.4065 203.8179 L162.1127 204.5257 L162.5156 204.9395 L164.0016 206.4243 L165.4819 207.9395 L165.8905 208.3466 L166.6071 209.0776 L167.7794 210.2442 L168.4611 210.9395 L169.6683 212.1375 L171.4411 213.9395 L171.5572 214.0544 L171.757 214.2568 L173.4461 215.9261 L174.4467 216.9395 L175.335 217.815 L176.8479 219.3423 L177.2239 219.7123 L177.4491 219.9395 L179.1127 221.5724 L180.472 222.9395 L181.0016 223.458 L181.8874 224.3462 L182.8905 225.3265 L183.5024 225.9394 L184.7794 227.1844 L186.5365 228.9394 L186.6683 229.0677 L186.8849 229.2835 L188.5572 230.9065 L189.5955 231.9394 L190.4461 232.7632 L191.8281 234.1343 L192.335 234.624 L192.6534 234.9394 L194.2239 236.4535 L195.7278 237.9394 L196.1128 238.3098 L196.7275 238.9157 L198.0017 240.1382 L198.816 240.9394 L199.8905 241.9685 L201.5865 243.633 L201.7794 243.8172 L201.9042 243.9394 L203.6683 245.6207 L205.0178 246.9394 L205.5572 247.4526 L206.3941 248.2686 L207.4461 249.2661 L208.1382 249.9393 L209.335 251.0725 L211.1698 252.8534 L211.2239 252.9044 L211.2599 252.9393 L213.1128 254.6846 L214.4114 255.9393 L215.0017 256.4946 L215.8916 257.3526 L216.8906 258.2887 L217.5672 258.9393 L218.7795 260.0737 L220.5845 261.806 L220.6684 261.8842 L220.7259 261.9393 L222.5572 263.6438 L223.9137 264.9393 L224.4462 265.4344 L225.226 266.1779 L226.335 267.2043 L227.1084 267.9393 L228.2239 268.9708 L229.8369 270.501 L230.1128 270.7549 L230.3078 270.9393 L232.0017 272.4966 L233.5301 273.9393 L233.8906 274.2705 L234.4036 274.754 L235.7795 276.0116 L236.7676 276.9392 L237.6684 277.7621 L238.9332 278.948 L239.5573 279.5149 L240.0117 279.9392 L241.4462 281.2417 L243.2664 282.9392 L243.3351 283.0015 L243.4299 283.0899 L245.224 284.7087 L246.5508 285.9392 L247.1128 286.4462 L247.8789 287.1559 L249.0017 288.1625 L249.8441 288.9392 L250.8906 289.8773 L252.297 291.1728 L252.7795 291.6025 L253.1469 291.9392 L254.6684 293.2942 L256.4648 294.9392 L256.5573 295.0215 L256.6797 295.1335 L258.4462 296.6961 L259.8121 297.9391 L260.3351 298.4019 L261.017 299.0222 L262.224 300.0823 L263.1716 300.9391 L264.1129 301.7663 L265.3216 302.8589 L266.0018 303.4519 L266.5442 303.9391 L267.8907 305.1138 L269.5928 306.6425 L269.7795 306.8041 L269.9309 306.9391 L271.6684 308.4437 L273.3448 309.9391 L273.5573 310.1233 L273.8219 310.3593 L275.4462 311.7549 L276.7831 312.9391 L277.3351 313.414 L278.0114 314.0131 L279.224 315.0466 L280.239 315.9391 L281.1129 316.6849 L282.1655 317.6109 L283.0018 318.3176 L283.7141 318.9391 L284.8907 319.9351 L286.2836 321.1513 L286.7796 321.5667 L287.2097 321.9391 L288.6685 323.1633 L290.3646 324.6329 L290.5573 324.7928 L290.7277 324.9391 L292.4462 326.3685 L294.2737 327.939 L294.3351 327.9903 L294.4056 328.0509 L296.224 329.5493 L297.8548 330.939 L298.1129 331.1522 L298.4031 331.3999 L300.0018 332.7043 L301.4636 333.939 L301.8907 334.2885 L302.3617 334.6871 L303.7796 335.8321 L305.1023 336.939 L305.6685 337.3977 L306.2805 337.911 L307.5574 338.931 L308.7737 339.939 L309.4463 340.4783 L310.1583 341.0699 L311.3351 341.9994 L312.4807 342.939 L313.224 343.5286 L313.9942 344.1622 L315.1129 345.0352 L316.2267 345.939 L317.0018 346.5468 L317.7871 347.1862 L318.8907 348.0366 L320.0155 348.939 L320.7796 349.5309 L321.5358 350.14 L322.6685 351.0012 L323.8515 351.9389 L324.5574 352.4789 L325.2393 353.0219 L326.4463 353.9267 L327.7395 354.9389 L328.3352 355.3885 L328.8961 355.8298 L330.2241 356.8105 L331.6852 357.9389 L332.1129 358.2573 L332.5052 358.562 L334.0018 359.6497 L335.695 360.9389 L335.8907 361.0824 L336.0653 361.2162 L337.7796 362.4412 L339.5719 363.7854 L339.6685 363.8524 L339.7867 363.9389 L341.5574 365.1816 L343.0191 366.2604 L343.4463 366.5507 L343.9868 366.9389 L345.3352 367.8671 L346.4111 368.6477 L347.2241 369.1879 L348.2903 369.9389 L349.113 370.4936 L349.7463 370.9448 L351.0019 371.7593 L352.7123 372.9388 L352.8907 373.0565 L353.023 373.1489 L354.7797 374.2593 L356.2242 375.2332 L356.6685 375.4999 L357.3482 375.9388 L358.5574 376.682 L359.3561 377.2072 L360.4463 377.84 L362.1984 378.9388 L362.3352 379.0204 L362.4212 379.0754 L364.2241 380.0834 L365.391 380.7921 L366.113 381.1642 L367.4766 381.9388 L368.0019 382.2206 L368.2831 382.3855 L369.8908 383.1714 L371.0706 383.8127 L371.7797 384.1183 L373.4487 384.9388 L373.6686 385.0401 L373.7631 385.089 L375.5575 385.8014 L376.3221 386.1532 L377.4464 386.5103 L378.7564 387.0195 L379.3353 387.1441 L381.0426 387.6505 L381.2242 387.6647 L382.8045 387.9388 L383.113 387.9872 L383.149 387.9959 L385.0019 387.9961 L385.0405 388 L385.312 387.9388 L386.6675 387.5842 L386.8908 387.3842 L387.9583 386.6341 L388.7797 385.0757 L388.8226 385.007 L388.836 384.9388 L389 382.2887 L388.9602 381.9388 L388.7797 381.0972 L388.355 378.9388 L387.9944 377.6916 L387.3748 375.9388 L386.8908 374.8091 L386.1399 372.9388 L385.0019 370.5267 L384.741 369.9389 L383.6289 367.7581 L383.1971 366.9389 L383.113 366.7949 L381.5262 363.9389 L381.2242 363.4432 L379.7679 360.9389 L379.3353 360.2553 L377.9335 357.9389 L377.4464 357.1943 L376.0328 354.9389 L375.5575 354.2336 L374.0737 351.9389 L373.6686 351.3534 L372.063 348.939 L371.7797 348.539 L370.0065 345.939 L369.8908 345.779 L368.8587 344.2998 L368.0019 343.0852 L367.9028 342.939 L366.113 340.4579 L365.7526 339.939 L364.2241 337.8627 L363.5685 336.939 L362.3352 335.2943 L361.3541 333.939 L360.4463 332.7487 L359.1123 330.939 L358.5574 330.2226 L356.8459 327.939 L356.6685 327.7133 L355.8454 326.6317 L354.7797 325.2544 L354.5437 324.9391 L352.8907 322.8341 L352.2105 321.9391 L351.0019 320.4207 L349.8592 318.9391 L349.113 318.0134 L347.4914 315.9391 L347.2241 315.6113 L346.2155 314.3372 L345.3352 313.2454 L345.0959 312.9391 L343.4463 310.9174 L342.6721 309.9391 L341.5574 308.5881 L340.2366 306.9391 L339.6685 306.2576 L337.7905 303.9391 L337.7796 303.9262 L337.7443 303.883 L335.8907 301.6617 L335.3053 300.9391 L334.0018 299.3925 L332.8116 297.9391 L332.1129 297.1177 L330.3109 294.9392 L330.2241 294.838 L329.965 294.5276 L328.3352 292.6141 L327.7764 291.9392 L326.4463 290.3911 L325.2328 288.9392 L324.5574 288.1595 L322.6849 285.9392 L322.6685 285.9204 L322.6228 285.8667 L320.7796 283.7428 L320.1012 282.9392 L318.8907 281.5554 L317.5145 279.9392 L317.0018 279.3574 L315.6274 277.7563 L315.1129 277.1693 L314.9167 276.9392 L313.224 275.0222 L312.2931 273.9393 L311.3351 272.862 L309.6694 270.9393 L309.4463 270.69 L308.8828 270.0443 L307.5574 268.557 L307.0213 267.9393 L305.6685 266.4313 L304.3641 264.9393 L303.7796 264.2919 L302.3481 262.6658 L301.8907 262.1572 L301.6999 261.9393 L300.0018 260.063 L299.0107 258.9393 L298.1129 257.9532 L296.3248 255.9393 L296.224 255.8293 L295.9894 255.5666 L294.3351 253.7544 L293.6099 252.9393 L292.4462 251.6718 L290.8951 249.9393 L290.5573 249.5735 L289.792 248.7239 L288.6685 247.5033 L288.1624 246.9394 L286.7796 245.4453 L285.4199 243.9394 L284.8907 243.3705 L283.7223 242.0837 L283.0018 241.3075 L282.6687 240.9394 L281.1129 239.2719 L279.9 237.9394 L279.224 237.2184 L277.769 235.6285 L277.3351 235.1649 L277.1294 234.9394 L275.4462 233.1496 L274.3359 231.9394 L273.5573 231.1153 L271.9221 229.3423 L271.6684 229.0734 L271.5452 228.9394 L269.7795 227.0764 L268.7281 225.9394 L267.8907 225.0596 L266.1729 223.2113 L266.0018 223.0313 L265.9166 222.9395 L264.1129 221.0507 L263.0773 219.9395 L262.224 219.0496 L260.5136 217.2229 L260.3351 217.0367 L260.2442 216.9395 L258.4462 215.0708 L257.3839 213.9395 L256.5573 213.0838 L254.9369 211.366 L254.6684 211.0879 L254.5287 210.9395 L252.7795 209.135 L251.6485 207.9395 L250.8906 207.1606 L249.4367 205.6303 L249.0017 205.1832 L248.7704 204.9395 L247.1128 203.2418 L245.8716 201.9395 L245.224 201.2785 L244.0072 200.007 L243.3351 199.3212 L242.9701 198.9396 L241.4462 197.3899 L240.0538 195.9396 L239.5573 195.4363 L238.6432 194.4879 L237.6684 193.5003 L237.1283 192.9396 L235.7795 191.5777 L234.1956 189.9396 L233.8906 189.6326 L233.3402 189.0654 L232.0017 187.7192 L231.2453 186.9396 L230.1128 185.804 L228.2974 183.9396 L228.2239 183.8661 L228.0938 183.733 L226.335 181.9764 L225.3219 180.9396 L224.4462 180.0674 L222.9115 178.5023 L222.5572 178.1499 L222.351 177.9396 L220.6684 176.2707 L219.3585 174.9397 L218.7795 174.3668 L217.7838 173.3582 L216.8906 172.4761 L216.3607 171.9397 L215.0017 170.6008 L213.3556 168.9397 L213.1128 168.701 L212.7028 168.2886 L211.2239 166.8379 L210.3304 165.9397 L209.335 164.9657 L207.6726 163.2994 L207.4461 163.0782 L207.3077 162.9397 L205.5572 161.2343 L204.2605 159.9397 L203.6683 159.364 L202.6969 158.3969 L201.7794 157.5072 L201.2088 156.9397 L199.8905 155.6641 L198.1516 153.9397 L198.0017 153.7949 L197.7599 153.5558 L196.1128 151.9692 L195.0702 150.9398 L194.2239 150.1261 L192.8751 148.7976 L192.335 148.2798 L191.9891 147.9397 L190.4461 146.4634 L188.8926 144.9398 L188.5572 144.6194 L188.0318 144.1053 L186.6683 142.8071 L185.7801 141.9398 L184.7794 140.9886 L183.2302 139.4793 L182.8905 139.1575 L182.6665 138.9398 L181.0016 137.3652 L179.532 135.9398 L179.1127 135.5439 L178.4745 134.9261 L177.2239 133.7494 L176.3852 132.9398 L175.335 131.953 L173.7556 130.4314 L173.4461 130.1418 L173.2359 129.9398 L171.5572 128.3708 L170.0648 126.9398 L169.6683 126.5697 L169.0818 126.0083 L167.7794 124.7977 L166.8803 123.9398 L165.8905 123.0208 L164.4447 121.6437 L164.0016 121.2341 L163.6917 120.9399 L162.1127 119.4819 L160.4857 117.9399 L160.2238 117.6983 L159.8475 117.3421 L158.3349 115.9535 L157.2598 114.9399 L156.446 114.1933 L155.2917 113.1065 L154.5572 112.4362 L154.0279 111.9399 L152.6683 110.6998 L150.789 108.9399 L150.7794 108.9311 L150.7659 108.9185 L148.8905 107.2184 L147.5178 105.9399 L147.0016 105.4721 L146.2906 104.8106 L145.1127 103.7496 L144.2384 102.9399 L143.2238 102.0262 L141.8458 100.7513 L141.3349 100.2942 L140.9501 99.94 L139.446 98.594 L137.6478 96.9399 L137.5571 96.8588 L137.4359 96.7474 L135.6682 95.1761 L134.3162 93.94 L133.7793 93.4627 L133.0717 92.8161 L131.8905 91.7734 L130.9732 90.94 L130.0016 90.0819 L128.7399 88.9362 L128.1127 88.3865 L127.6181 87.94 L126.2238 86.7174 L124.4411 85.1087 L124.3349 85.0163 L124.2498 84.94 L122.446 83.3698 L120.8511 81.94 L120.5571 81.684 L120.187 81.3522 L118.6682 80.0401 L117.4326 78.94 L116.7793 78.3752 L115.9698 77.6544 L114.8904 76.7293 L113.9976 75.94 L113.0015 75.0853 L111.7875 74.0119 L111.1126 73.4383 L110.5448 72.9401 L109.2238 71.8156 L107.6409 70.4261 L107.3349 70.1682 L107.0727 69.9401 L105.446 68.5668 L103.5787 66.9401 L103.5571 66.9218 L103.5316 66.8996 L101.6682 65.3403 L100.0482 63.9401 L99.7793 63.7146 L99.4675 63.4449 L97.8904 62.1372 L96.4939 60.9401 L96.0015 60.5309 L95.4409 60.0498 L94.1126 58.9589 L92.9138 57.9401 L92.2237 57.3719 L91.4528 56.7157 L90.3348 55.8068 L89.3057 54.9401 L88.4459 54.2389 L87.5041 53.4442 L86.5571 52.6823 L85.6673 51.9402 L84.6682 51.1335 L83.5957 50.2369 L82.7793 49.5873 L81.9957 48.9402 L80.8904 48.0572 L79.7289 47.0954 L79.0015 46.5234 L78.2878 45.9402 L77.1126 45.0118 L75.9045 44.0215 L75.2237 43.4926 L74.5402 42.9402 L73.3348 41.9991 L72.1238 41.0168 L71.4459 40.4971 L70.7489 39.9402 L69.557 39.0211 L68.3879 38.0833 L67.6681 37.539 L66.9093 36.9402 L65.7793 36.0801 L64.6979 35.2228 L63.8904 34.6209 L63.0165 33.9402 L62.0015 33.1783 L61.0551 32.4373 L60.1126 31.7455 L59.0644 30.9402 L58.2237 30.3183 L57.4609 29.7287 L56.3348 28.9157 L55.0463 27.9402 L54.4459 27.5029 L53.9164 27.0993 L52.557 26.1349 L50.9543 24.9402 L50.6681 24.7352 L50.4232 24.5512 L48.7792 23.4066 L46.9856 22.0916 L46.8903 22.0274 L46.768 21.9403 L45.0014 20.7345 L43.6123 19.7339 L43.1125 19.4052 L42.4467 18.9403 L41.2237 18.1232 L40.2967 17.4681 L39.3348 16.8509 L38.0018 15.9403 L37.4459 15.5774 L37.0407 15.2968 L35.557 14.3703 L33.8523 13.2329 L33.6681 13.124 L33.3801 12.9403 L31.7792 11.9697 L30.7443 11.2967 L29.8903 10.8093 L28.4852 9.9403 L28.0014 9.6563 L27.7043 9.4684 L26.1125 8.595 L24.7541 7.7827 L24.2236 7.516 L23.1898 6.9403 L22.3347 6.4913 L21.8911 6.2358 L20.4459 5.5489 L19.1294 4.8495 L18.557 4.6122 L17.1472 3.9403 L16.6681 3.7268 L16.4712 3.6277 L14.7792 2.9869 L13.9463 2.6175 L12.8903 2.3066 L11.5518 1.8145 L11.0014 1.7128 L9.3128 1.2585 L9.1125 1.2512 L7.2612 1 L7.2236 1.0066 L5.4381 1.1045 L5.3347 1.1564 L3.8977 1.658 L3.4458 2.1434 L2.7129 2.7763 L2.2133 3.9403 L2.0176 4.6719 L2 6.9403 L2.0908 7.7882 L2.5738 9.9403 L3.4458 12.7224"
                  style="fill:none; clip-path:url(#clipPath2);"/>
        </g>
        <g transform="translate(6,5)"
           style="stroke-linecap:butt; fill:rgb(120,0,14); text-rendering:optimizeLegibility; image-rendering:optimizeQuality; color-rendering:optimizeQuality; font-family:'Lucida Bright'; stroke-linejoin:round; stroke:rgb(120,0,14); color-interpolation:linearRGB; stroke-width:1.5;">
            <path d="M320.7796 316.1391 L321.0315 316.3391 L321.0315 315.9391 L320.7796 315.6391 L320.024 314.7391 L320.5278 315.9391 L320.7796 316.1391"
                  style="fill:none; clip-path:url(#clipPath2);"/>
            <path d="M9.1125 19.2403 L9.8681 20.1403 L9.3644 18.9403 L9.1125 18.7403 L8.8606 18.5403 L8.8606 18.9403 L9.1125 19.2403"
                  style="fill:none; clip-path:url(#clipPath2);"/>
            <path d="M12.8903 22.5403 L13.8977 24.9402 L14.7792 25.9903 L16.4162 27.9402 L16.6681 28.2402 L17.4236 29.1402 L18.557 30.4902 L18.9347 30.9402 L20.4459 32.7402 L21.4533 33.9402 L22.3347 34.9902 L23.9718 36.9402 L24.2236 37.2402 L24.9792 38.1402 L26.1125 39.4902 L26.4903 39.9402 L28.0014 41.7402 L29.0088 42.9402 L29.8903 43.9902 L31.5273 45.9402 L31.7792 46.2402 L32.5348 47.1402 L33.6681 48.4901 L34.0459 48.9402 L35.557 50.7401 L36.5644 51.9402 L37.4459 52.9901 L39.0829 54.9401 L39.3348 55.2401 L40.0903 56.1401 L41.2237 57.4901 L41.6014 57.9401 L43.1125 59.7401 L44.12 60.9401 L45.0014 61.9901 L46.6385 63.9401 L46.8903 64.2401 L47.6459 65.1401 L48.7792 66.4901 L49.157 66.9401 L50.6681 68.7401 L51.6755 69.9401 L52.557 70.9901 L54.194 72.9401 L54.4459 73.2401 L55.2015 74.14 L56.3348 75.4901 L56.7126 75.94 L58.2237 77.7401 L59.2311 78.94 L60.1126 79.99 L61.7496 81.94 L62.0015 82.24 L62.757 83.14 L63.8904 84.49 L64.2681 84.94 L65.7793 86.74 L66.7867 87.94 L67.6681 88.99 L69.3052 90.94 L69.557 91.24 L70.3126 92.14 L71.4459 93.49 L71.8237 93.94 L73.3348 95.74 L74.3422 96.9399 L75.2237 97.99 L76.8607 99.94 L77.1126 100.2399 L77.8682 101.14 L79.0015 102.49 L79.3793 102.9399 L80.8904 104.7399 L81.8978 105.9399 L82.7793 106.9899 L84.4163 108.9399 L84.6682 109.2399 L85.4237 110.1399 L86.5571 111.4899 L86.9348 111.9399 L88.4459 113.7399 L89.4534 114.9399 L90.3348 115.9899 L91.9719 117.9399 L92.2237 118.2399 L92.9793 119.1399 L94.1126 120.4899 L94.4904 120.9399 L96.0015 122.7399 L97.0089 123.9398 L97.8904 124.9898 L99.5275 126.9398 L99.7793 127.2398 L100.5349 128.1398 L101.6682 129.4898 L102.046 129.9398 L103.5571 131.7398 L104.5645 132.9398 L105.446 133.9898 L107.083 135.9398 L107.3349 136.2398 L108.0904 137.1398 L109.2238 138.4898 L109.6015 138.9398 L111.1126 140.7398 L112.1201 141.9398 L113.0015 142.9898 L114.6386 144.9398 L114.8904 145.2398 L115.646 146.1398 L116.7793 147.4898 L117.1571 147.9397 L118.6682 149.7398 L119.6756 150.9398 L120.5571 151.9897 L122.1941 153.9397 L122.446 154.2397 L123.2015 155.1397 L124.3349 156.4897 L124.7127 156.9397 L126.2238 158.7397 L127.2312 159.9397 L128.1127 160.9897 L129.7497 162.9397 L130.0016 163.2397 L130.7571 164.1397 L131.8905 165.4897 L132.2682 165.9397 L133.7793 167.3797 L135.4164 168.9397 L135.6682 169.1397 L135.9201 169.3397 L137.5571 170.6397 L139.1942 171.9397 L139.446 172.1397 L139.6979 172.3396 L141.3349 173.6397 L142.972 174.9397 L143.2238 175.1396 L143.4756 175.3396 L145.1127 176.6396 L146.7497 177.9396 L147.0016 178.1396 L147.2534 178.3396 L148.8905 179.6396 L150.5275 180.9396 L150.7794 181.1396 L151.0312 181.3396 L152.6683 182.6396 L154.3053 183.9396 L154.5572 184.1396 L154.809 184.3396 L156.446 185.6396 L158.0831 186.9396 L158.3349 187.1396 L158.5868 187.3396 L160.2238 188.6396 L161.8609 189.9396 L162.1127 190.1396 L162.3646 190.3396 L164.0016 191.6396 L165.6387 192.9396 L165.8905 193.1396 L166.1423 193.3396 L167.7794 194.6396 L169.4164 195.9396 L169.6683 196.1396 L169.9201 196.3396 L171.5572 197.6396 L173.1942 198.9396 L173.4461 199.1396 L173.6979 199.3396 L175.335 200.6395 L176.972 201.9395 L177.2239 202.1395 L177.4757 202.3395 L179.1127 203.6395 L180.7498 204.9395 L181.0016 205.1395 L181.2535 205.3395 L182.8905 206.6395 L184.5276 207.9395 L184.7794 208.1395 L185.0313 208.3395 L186.6683 209.6395 L188.3053 210.9395 L188.5572 211.1395 L188.8091 211.3395 L190.4461 212.6395 L192.0831 213.9395 L192.335 214.1395 L192.5868 214.3395 L194.2239 215.6395 L195.8609 216.9395 L196.1128 217.1395 L196.3646 217.3395 L198.0017 218.6395 L199.6387 219.9395 L199.8905 220.1395 L200.1424 220.3395 L201.7794 221.6395 L203.4165 222.9395 L203.6683 223.1395 L203.9202 223.3395 L205.5572 224.6395 L207.1943 225.9394 L207.4461 226.1395 L207.698 226.3394 L209.335 227.6394 L210.972 228.9394 L211.2239 229.1394 L211.4757 229.3394 L213.1128 230.6394 L214.7498 231.9394 L215.0017 232.1394 L215.2535 232.3394 L216.8906 233.6394 L218.5276 234.9394 L218.7795 235.1394 L219.0313 235.3394 L220.6684 236.6394 L222.3054 237.9394 L222.5572 238.1394 L222.8091 238.3394 L224.4462 239.6394 L226.0832 240.9394 L226.335 241.1394 L226.5869 241.3394 L228.2239 242.6394 L229.861 243.9394 L230.1128 244.1394 L230.3647 244.3394 L232.0017 245.6394 L233.6387 246.9394 L233.8906 247.1394 L234.1425 247.3394 L235.7795 248.6393 L237.4165 249.9393 L237.6684 250.1394 L237.9202 250.3393 L239.5573 251.6393 L241.1943 252.9393 L241.4462 253.1393 L241.698 253.3393 L243.3351 254.6393 L244.9721 255.9393 L245.224 256.1393 L245.4758 256.3393 L247.1128 257.6393 L248.7499 258.9393 L249.0017 259.1393 L249.2536 259.3393 L250.8906 260.6393 L252.5277 261.9393 L252.7795 262.1393 L253.0314 262.3393 L254.6684 263.6393 L256.3054 264.9393 L256.5573 265.1393 L256.8091 265.3393 L258.4462 266.6393 L260.0832 267.9393 L260.3351 268.1393 L260.5869 268.3393 L262.224 269.6393 L263.861 270.9393 L264.1129 271.1393 L264.3647 271.3393 L266.0018 272.6393 L267.6388 273.9393 L267.8907 274.1393 L268.1425 274.3392 L269.7795 275.6393 L271.4166 276.9392 L271.6684 277.1392 L271.9203 277.3392 L273.5573 278.6392 L275.1944 279.9392 L275.4462 280.1392 L275.6981 280.3392 L277.3351 281.6392 L278.9721 282.9392 L279.224 283.1392 L279.4758 283.3392 L281.1129 284.6392 L282.7499 285.9392 L283.0018 286.1392 L283.2536 286.3392 L284.8907 287.6392 L286.5277 288.9392 L286.7796 289.1392 L287.0314 289.3392 L288.6685 290.6392 L290.3055 291.9392 L290.5573 292.1392 L290.8092 292.3392 L292.4462 293.6392 L294.0833 294.9392 L294.3351 295.1392 L294.587 295.3392 L296.224 296.6392 L297.8611 297.9391 L298.1129 298.1392 L298.3647 298.3392 L300.0018 299.6392 L301.6389 300.9391 L301.8907 301.1392 L302.1425 301.3391 L303.7796 302.6391 L305.4166 303.9391 L305.6685 304.1391 L305.9203 304.3391 L307.5574 305.6391 L309.1944 306.9391 L309.4463 307.1391 L309.6981 307.3391 L311.3351 308.6391 L312.9722 309.9391 L313.224 310.1391 L313.4759 310.3391 L315.1129 310.9891 L316.75 312.9391 L317.0018 313.1391 L317.2537 313.3391 L317.7574 312.9391 L317.0018 312.3391 L315.9944 309.9391 L315.1129 308.8891 L313.4759 306.9391 L313.224 306.6391 L312.4685 305.7391 L311.3351 304.3891 L310.9574 303.9391 L309.4463 302.1391 L308.4388 300.9391 L307.5574 299.8892 L305.9203 297.9391 L305.6685 297.6392 L304.9129 296.7392 L303.7796 295.3892 L303.4018 294.9392 L301.8907 293.1392 L300.8833 291.9392 L300.0018 290.8892 L298.3647 288.9392 L298.1129 288.6392 L297.3574 287.7392 L296.224 286.3892 L295.8463 285.9392 L294.3351 284.1392 L293.3277 282.9392 L292.4462 281.8892 L290.8092 279.9392 L290.5573 279.6392 L289.8018 278.7392 L288.6685 277.3892 L288.2907 276.9392 L286.7796 275.1393 L285.7722 273.9393 L284.8907 272.8893 L283.2536 270.9393 L283.0018 270.6393 L282.2462 269.7393 L281.1129 268.3893 L280.7351 267.9393 L279.224 266.1393 L278.2166 264.9393 L277.3351 263.8893 L275.6981 261.9393 L275.4462 261.6393 L274.6907 260.7393 L273.5573 259.3893 L273.1795 258.9393 L271.6684 257.1393 L270.661 255.9393 L269.7795 254.8893 L268.1425 252.9393 L267.8907 252.6393 L267.1351 251.7393 L266.0018 250.3894 L265.624 249.9393 L264.1129 248.1394 L263.1054 246.9394 L262.224 245.8894 L260.5869 243.9394 L260.3351 243.6394 L259.5795 242.7394 L258.4462 241.3894 L258.0684 240.9394 L256.5573 239.1394 L255.5499 237.9394 L254.6684 236.8894 L253.0314 234.9394 L252.7795 234.6394 L252.0239 233.7394 L250.8906 232.3894 L250.5128 231.9394 L249.0017 230.1394 L247.9943 228.9394 L247.1128 227.8894 L245.4758 225.9394 L245.224 225.6395 L244.4684 224.7395 L243.3351 223.3895 L242.9573 222.9395 L241.4462 221.1395 L240.4388 219.9395 L239.5573 218.8895 L237.9202 216.9395 L237.6684 216.6395 L236.9128 215.7395 L235.7795 214.3895 L235.4017 213.9395 L233.8906 212.1395 L232.8832 210.9395 L232.0017 209.8895 L230.3647 207.9395 L230.1128 207.6395 L229.3573 206.7395 L228.2239 205.3895 L227.8461 204.9395 L226.335 203.1395 L225.3276 201.9395 L224.4462 200.8895 L222.8091 198.9396 L222.5572 198.6396 L221.8017 197.7395 L220.6684 196.3896 L220.2906 195.9396 L218.7795 194.1396 L217.7721 192.9396 L216.8906 191.8896 L215.2535 189.9396 L215.0017 189.6396 L214.2461 188.7396 L213.1128 187.3896 L212.735 186.9396 L211.2239 185.1396 L210.2165 183.9396 L209.335 182.8896 L207.698 180.9396 L207.4461 180.6396 L206.6906 179.7396 L205.5572 178.3896 L205.1794 177.9396 L203.6683 176.1396 L202.6609 174.9397 L201.7794 173.8897 L200.1424 171.9397 L199.8905 171.6397 L199.135 170.7397 L198.0017 169.3897 L197.6239 168.9397 L196.1128 167.4997 L194.4757 165.9397 L194.2239 165.7397 L193.972 165.5397 L192.335 164.2397 L190.698 162.9397 L190.4461 162.7397 L190.1942 162.5397 L188.5572 161.2397 L186.9202 159.9397 L186.6683 159.7397 L186.4165 159.5397 L184.7794 158.2397 L183.1424 156.9397 L182.8905 156.7397 L182.6387 156.5397 L181.0016 155.2397 L179.3646 153.9397 L179.1127 153.7397 L178.8609 153.5397 L177.2239 152.2397 L175.5868 150.9398 L175.335 150.7397 L175.0831 150.5397 L173.4461 149.2398 L171.809 147.9397 L171.5572 147.7398 L171.3053 147.5398 L169.6683 146.2398 L168.0312 144.9398 L167.7794 144.7398 L167.5275 144.5398 L165.8905 143.2398 L164.2535 141.9398 L164.0016 141.7398 L163.7498 141.5398 L162.1127 140.2398 L160.4757 138.9398 L160.2238 138.7398 L159.972 138.5398 L158.3349 137.2398 L156.6979 135.9398 L156.446 135.7398 L156.1942 135.5398 L154.5572 134.2398 L152.9201 132.9398 L152.6683 132.7398 L152.4164 132.5398 L150.7794 131.2398 L149.1423 129.9398 L148.8905 129.7398 L148.6386 129.5398 L147.0016 128.2398 L145.3645 126.9398 L145.1127 126.7398 L144.8608 126.5399 L143.2238 125.2398 L141.5868 123.9398 L141.3349 123.7399 L141.0831 123.5399 L139.446 122.2399 L137.809 120.9399 L137.5571 120.7399 L137.3053 120.5399 L135.6682 119.2399 L134.0312 117.9399 L133.7793 117.7399 L133.5275 117.5399 L131.8905 116.2399 L130.2534 114.9399 L130.0016 114.7399 L129.7497 114.5399 L128.1127 113.2399 L126.4756 111.9399 L126.2238 111.7399 L125.9719 111.5399 L124.3349 110.2399 L122.6978 108.9399 L122.446 108.7399 L122.1941 108.5399 L120.5571 107.2399 L118.9201 105.9399 L118.6682 105.7399 L118.4164 105.5399 L116.7793 104.2399 L115.1423 102.9399 L114.8904 102.74 L114.6386 102.5399 L113.0015 101.2399 L111.3645 99.94 L111.1126 99.7399 L110.8608 99.5399 L109.2238 98.24 L107.5867 96.9399 L107.3349 96.74 L107.083 96.5399 L105.446 95.24 L103.8089 93.94 L103.5571 93.74 L103.3052 93.54 L101.6682 92.24 L100.0312 90.94 L99.7793 90.74 L99.5274 90.54 L97.8904 89.24 L96.2534 87.94 L96.0015 87.74 L95.7497 87.54 L94.1126 86.24 L92.4756 84.94 L92.2237 84.74 L91.9719 84.54 L90.3348 83.24 L88.6978 81.94 L88.4459 81.74 L88.1941 81.54 L86.5571 80.24 L84.92 78.94 L84.6682 78.74 L84.4163 78.54 L82.7793 77.2401 L81.1422 75.94 L80.8904 75.7401 L80.6385 75.5401 L79.0015 74.2401 L77.3644 72.9401 L77.1126 72.7401 L76.8607 72.5401 L75.2237 71.2401 L73.5867 69.9401 L73.3348 69.7401 L73.083 69.5401 L71.4459 68.2401 L69.8089 66.9401 L69.557 66.7401 L69.3052 66.5401 L67.6681 65.2401 L66.0311 63.9401 L65.7793 63.7401 L65.5274 63.5401 L63.8904 62.2401 L62.2533 60.9401 L62.0015 60.7401 L61.7496 60.5401 L60.1126 59.2401 L58.4755 57.9401 L58.2237 57.7401 L57.9718 57.5401 L56.3348 56.2401 L54.6978 54.9401 L54.4459 54.7401 L54.194 54.5401 L52.557 53.2401 L50.92 51.9402 L50.6681 51.7401 L50.4163 51.5401 L48.7792 50.2401 L47.1422 48.9402 L46.8903 48.7401 L46.6385 48.5402 L45.0014 47.2401 L43.3644 45.9402 L43.1125 45.7402 L42.8607 45.5402 L41.2237 44.2402 L39.5866 42.9402 L39.3348 42.7402 L39.0829 42.5402 L37.4459 41.2402 L35.8088 39.9402 L35.557 39.7402 L35.3051 39.5402 L33.6681 38.2402 L32.0311 36.9402 L31.7792 36.7402 L31.5273 36.5402 L29.8903 35.2402 L28.2533 33.9402 L28.0014 33.7402 L27.7496 33.5402 L26.1125 32.2402 L24.4755 30.9402 L24.2236 30.7402 L23.9718 30.5402 L22.3347 29.2402 L20.6977 27.9402 L20.4459 27.7402 L20.194 27.5403 L18.557 26.2403 L16.9199 24.9402 L16.6681 24.7403 L16.4162 24.5403 L14.7792 23.8903 L13.1421 21.9403 L12.8903 21.7403 L12.6384 21.5403 L12.1347 21.9403 L12.8903 22.5403"
                  style="fill:none; clip-path:url(#clipPath2);"/>
        </g>
        <g transform="translate(6,5)"
           style="stroke-linecap:butt; text-rendering:optimizeLegibility; color-rendering:optimizeQuality; image-rendering:optimizeQuality; font-family:'Lucida Bright'; stroke-linejoin:round; color-interpolation:linearRGB;">
            <path d="M2 167.4397 L389 167.4397"
                  style="fill:none; clip-path:url(#clipPath1);"/>
        </g>
        <g transform="translate(6,5)"
           style="stroke-linecap:butt; text-rendering:optimizeLegibility; color-rendering:optimizeQuality; image-rendering:optimizeQuality; font-family:'Lucida Bright'; stroke-linejoin:round; color-interpolation:linearRGB;">
            <path d="M276.8906 201.9688 L276 199.9531 L275.625 199.2031 Q275.4375 198.7812 275.3047 198.6719 Q275.1719 198.5625 274.8281 198.5312 L274.3906 198.5 L274.25 198.5 L274.3281 198.0469 L276.7188 198.0469 L278.1562 201.1719 L278.5 200.9062 Q279.9219 199.7344 279.9219 198.9688 Q279.9219 198.5625 279.6094 198.0469 L281.0469 198.0469 Q281.125 198.3125 281.125 198.5 Q281.125 199.125 280.6797 199.6406 Q280.2344 200.1562 278.6875 201.3125 L278.3438 201.5781 L279.5469 204.1094 L279.9844 204.9219 Q280.2656 205.4844 280.7344 205.5156 L281.2031 205.5312 L281.3281 205.5469 L281.25 206 L278.8438 206 L277.125 202.375 L276.5 202.9375 Q275 204.2812 275 205.25 Q275 205.6406 275.25 206 L273.7031 206 Q273.6562 205.7969 273.6562 205.6875 Q273.6562 204.75 275.0312 203.5469 L276.1719 202.5938 L276.8906 201.9688 Z"
                  style="stroke:none; clip-path:url(#clipPath3);"/>
        </g>
        <g transform="translate(6,5)"
           style="text-rendering:optimizeLegibility; font-family:'Lucida Bright'; color-interpolation:linearRGB; color-rendering:optimizeQuality; image-rendering:optimizeQuality;">
            <path d="M70.6904 167.4397 L70.6904 171.4397"
                  style="fill:none; clip-path:url(#clipPath1);"/>
        </g>
        <g style="text-rendering:optimizeLegibility; font-family:'Lucida Bright'; color-interpolation:linearRGB; color-rendering:optimizeQuality; image-rendering:optimizeQuality;">
            <path d="M79.4531 188.8906 L69.5469 188.8906 L69.5469 188.1094 L79.4531 188.1094 L79.4531 188.8906 Z"
                  style="stroke:none; clip-path:url(#clipPath5);"/>
        </g>
        <g style="text-rendering:optimizeLegibility; font-family:'Lucida Bright'; color-interpolation:linearRGB; color-rendering:optimizeQuality; image-rendering:optimizeQuality;">
            <path d="M82.2812 182.0625 L82.2812 191.1094 L82.3281 191.8281 Q82.3594 192.2656 82.5859 192.3984 Q82.8125 192.5312 83.5156 192.5312 L84.375 192.5469 L84.375 193 L78.7656 193 L78.7656 192.5469 L79.625 192.5312 Q80.3125 192.5312 80.5391 192.3984 Q80.7656 192.2656 80.7969 191.8281 L80.8438 191.1094 L80.8438 184.375 L80.7969 183.6406 Q80.7969 183.125 80.5 183.125 Q80.2812 183.125 79.4844 183.2656 L78.7656 183.3906 L78.7656 182.9375 L82.2812 182.0625 Z"
                  style="stroke:none; clip-path:url(#clipPath4);"/>
        </g>
        <g transform="translate(6,5)"
           style="text-rendering:optimizeLegibility; font-family:'Lucida Bright'; color-interpolation:linearRGB; color-rendering:optimizeQuality; image-rendering:optimizeQuality;">
            <path d="M164.9461 167.4397 L164.9461 171.4397"
                  style="fill:none; clip-path:url(#clipPath1);"/>
            <path d="M161.5 191.2656 Q159.8281 191.2656 158.7969 189.7109 Q157.7656 188.1562 157.7656 185.6094 Q157.7656 183 158.7969 181.4453 Q159.8281 179.8906 161.5625 179.8906 Q163.2969 179.8906 164.3281 181.4375 Q165.3594 182.9844 165.3594 185.5938 Q165.3594 188.2031 164.3203 189.7344 Q163.2812 191.2656 161.5 191.2656 ZM161.5312 190.8125 Q163.8281 190.9219 163.8281 185.5 Q163.8281 180.3281 161.5625 180.3281 Q159.3125 180.3281 159.3125 185.5781 Q159.3125 190.7188 161.5312 190.8125 Z"
                  style="clip-path:url(#clipPath4); stroke:none;"
                  transform="translate(-6,-5)"/>
        </g>
        <g transform="translate(6,5)"
           style="text-rendering:optimizeLegibility; font-family:'Lucida Bright'; color-interpolation:linearRGB; color-rendering:optimizeQuality; image-rendering:optimizeQuality;">
            <path d="M259.2018 167.4397 L259.2018 171.4397"
                  style="fill:none; clip-path:url(#clipPath1);"/>
            <path d="M266.2812 182.0625 L266.2812 191.1094 L266.3281 191.8281 Q266.3594 192.2656 266.5859 192.3984 Q266.8125 192.5312 267.5156 192.5312 L268.375 192.5469 L268.375 193 L262.7656 193 L262.7656 192.5469 L263.625 192.5312 Q264.3125 192.5312 264.5391 192.3984 Q264.7656 192.2656 264.7969 191.8281 L264.8438 191.1094 L264.8438 184.375 L264.7969 183.6406 Q264.7969 183.125 264.5 183.125 Q264.2812 183.125 263.4844 183.2656 L262.7656 183.3906 L262.7656 182.9375 L266.2812 182.0625 Z"
                  style="clip-path:url(#clipPath4); stroke:none;"
                  transform="translate(-6,-5)"/>
        </g>
        <g transform="translate(6,5)"
           style="text-rendering:optimizeLegibility; font-family:'Lucida Bright'; color-interpolation:linearRGB; color-rendering:optimizeQuality; image-rendering:optimizeQuality;">
            <path d="M353.4575 167.4397 L353.4575 171.4397"
                  style="fill:none; clip-path:url(#clipPath1);"/>
            <path d="M356.1719 193 L356.1719 192.2812 Q356.7969 190.4531 358.125 189.2188 L358.9062 188.5 Q360.25 187.2344 360.6953 186.4922 Q361.1406 185.75 361.1406 184.7969 Q361.1406 183.6875 360.5938 183.0156 Q360.0469 182.3438 359.1562 182.3438 Q358.1562 182.3438 357.4688 182.8906 Q357.2188 183.0938 357.1406 184.3438 L357.1406 184.5156 L356.4062 184.5156 L356.4062 182.5469 Q357.9844 181.875 359.3281 181.875 Q360.7969 181.875 361.7344 182.7031 Q362.6719 183.5312 362.6719 184.7969 Q362.6719 186.5156 360.5469 187.9688 L359.6719 188.5781 Q357.5625 190.0312 357.3594 191.7344 L362.625 191.7344 L362.625 193 L356.1719 193 Z"
                  style="clip-path:url(#clipPath4); stroke:none;"
                  transform="translate(-6,-5)"/>
        </g>
        <g transform="translate(6,5)"
           style="text-rendering:optimizeLegibility; font-family:'Lucida Bright'; color-interpolation:linearRGB; color-rendering:optimizeQuality; image-rendering:optimizeQuality;">
            <path d="M23.5625 167.4397 L23.5625 169.4397"
                  style="fill:none; clip-path:url(#clipPath1);"/>
        </g>
        <g transform="translate(6,5)"
           style="text-rendering:optimizeLegibility; font-family:'Lucida Bright'; color-interpolation:linearRGB; color-rendering:optimizeQuality; image-rendering:optimizeQuality;">
            <path d="M117.8182 167.4397 L117.8182 169.4397"
                  style="fill:none; clip-path:url(#clipPath1);"/>
        </g>
        <g transform="translate(6,5)"
           style="text-rendering:optimizeLegibility; font-family:'Lucida Bright'; color-interpolation:linearRGB; color-rendering:optimizeQuality; image-rendering:optimizeQuality;">
            <path d="M212.0739 167.4397 L212.0739 169.4397"
                  style="fill:none; clip-path:url(#clipPath1);"/>
        </g>
        <g transform="translate(6,5)"
           style="text-rendering:optimizeLegibility; font-family:'Lucida Bright'; color-interpolation:linearRGB; color-rendering:optimizeQuality; image-rendering:optimizeQuality;">
            <path d="M306.3296 167.4397 L306.3296 169.4397"
                  style="fill:none; clip-path:url(#clipPath1);"/>
        </g>
        <g transform="translate(6,5)"
           style="stroke-linecap:butt; text-rendering:optimizeLegibility; color-rendering:optimizeQuality; image-rendering:optimizeQuality; font-family:'Lucida Bright'; stroke-linejoin:round; color-interpolation:linearRGB;">
            <path d="M164.9461 388 L164.9461 1"
                  style="fill:none; clip-path:url(#clipPath1);"/>
        </g>
        <g transform="translate(6,5)"
           style="stroke-linecap:butt; text-rendering:optimizeLegibility; color-rendering:optimizeQuality; image-rendering:optimizeQuality; font-family:'Lucida Bright'; stroke-linejoin:round; color-interpolation:linearRGB;">
            <path d="M104.9688 92.8906 Q106.3125 91.9531 108.3438 90.0781 L108.625 89.8125 Q108.5312 88.1094 108.1875 86.2266 Q107.8438 84.3438 107.4688 83.5 Q107.1406 82.7969 106.9531 82.6719 Q106.7656 82.5469 105.9375 82.5 L105.7656 82.5 L105.8438 82.0469 L108.5156 82.0469 Q109.6562 84.7344 109.8125 88.3594 L110.7188 87.1875 Q112.0469 85.5 112.4922 84.7109 Q112.9375 83.9219 112.9375 83.25 Q112.9375 82.5625 112.3594 82.0469 L114.1719 82.0469 Q114.3281 82.375 114.3281 82.6719 Q114.3281 83.2969 113.9219 83.9766 Q113.5156 84.6562 112.2188 86.2031 L109.4531 89.5312 Q107.7969 91.5156 106.9688 92.8906 L104.9688 92.8906 Z"
                  style="stroke:none; clip-path:url(#clipPath6);"/>
        </g>
        <g transform="translate(6,5)"
           style="text-rendering:optimizeLegibility; font-family:'Lucida Bright'; color-interpolation:linearRGB; color-rendering:optimizeQuality; image-rendering:optimizeQuality;">
            <path d="M164.9461 317.1391 L160.9461 317.1391"
                  style="fill:none; clip-path:url(#clipPath1);"/>
        </g>
        <g style="text-rendering:optimizeLegibility; font-family:'Lucida Bright'; color-interpolation:linearRGB; color-rendering:optimizeQuality; image-rendering:optimizeQuality;">
            <path d="M156.4531 323.8906 L146.5469 323.8906 L146.5469 323.1094 L156.4531 323.1094 L156.4531 323.8906 Z"
                  style="stroke:none; clip-path:url(#clipPath7);"/>
        </g>
        <g style="text-rendering:optimizeLegibility; font-family:'Lucida Bright'; color-interpolation:linearRGB; color-rendering:optimizeQuality; image-rendering:optimizeQuality;">
            <path d="M159.2812 317.0625 L159.2812 326.1094 L159.3281 326.8281 Q159.3594 327.2656 159.5859 327.3984 Q159.8125 327.5312 160.5156 327.5312 L161.375 327.5469 L161.375 328 L155.7656 328 L155.7656 327.5469 L156.625 327.5312 Q157.3125 327.5312 157.5391 327.3984 Q157.7656 327.2656 157.7969 326.8281 L157.8438 326.1094 L157.8438 319.375 L157.7969 318.6406 Q157.7969 318.125 157.5 318.125 Q157.2812 318.125 156.4844 318.2656 L155.7656 318.3906 L155.7656 317.9375 L159.2812 317.0625 Z"
                  style="stroke:none; clip-path:url(#clipPath4);"/>
        </g>
        <g transform="translate(6,5)"
           style="text-rendering:optimizeLegibility; font-family:'Lucida Bright'; color-interpolation:linearRGB; color-rendering:optimizeQuality; image-rendering:optimizeQuality;">
            <path d="M164.9461 242.2894 L160.9461 242.2894"
                  style="fill:none; clip-path:url(#clipPath1);"/>
        </g>
        <g style="text-rendering:optimizeLegibility; font-family:'Lucida Bright'; color-interpolation:linearRGB; color-rendering:optimizeQuality; image-rendering:optimizeQuality;">
            <path d="M142.4531 248.8906 L132.5469 248.8906 L132.5469 248.1094 L142.4531 248.1094 L142.4531 248.8906 Z"
                  style="stroke:none; clip-path:url(#clipPath8);"/>
        </g>
        <g style="text-rendering:optimizeLegibility; font-family:'Lucida Bright'; color-interpolation:linearRGB; color-rendering:optimizeQuality; image-rendering:optimizeQuality;">
            <path d="M144.5 253.2656 Q142.8281 253.2656 141.7969 251.7109 Q140.7656 250.1562 140.7656 247.6094 Q140.7656 245 141.7969 243.4453 Q142.8281 241.8906 144.5625 241.8906 Q146.2969 241.8906 147.3281 243.4375 Q148.3594 244.9844 148.3594 247.5938 Q148.3594 250.2031 147.3203 251.7344 Q146.2812 253.2656 144.5 253.2656 ZM144.5312 252.8125 Q146.8281 252.9219 146.8281 247.5 Q146.8281 242.3281 144.5625 242.3281 Q142.3125 242.3281 142.3125 247.5781 Q142.3125 252.7188 144.5312 252.8125 ZM150.2041 253 L150.2041 251.1875 L152.0166 251.1875 L152.0166 253 L150.2041 253 ZM154.8218 253.0156 L154.8218 251.1875 L155.5405 251.1875 L155.5562 251.3594 L155.5718 251.9219 Q155.6187 252.8125 156.978 252.8125 Q157.9937 252.8125 158.5874 252.0234 Q159.1812 251.2344 159.1812 249.875 Q159.1812 248.3281 158.2593 247.6641 Q157.3374 247 155.2593 247 L154.9937 247 L154.9937 242.1562 L160.4624 242.1562 L160.4624 243.4219 L155.4468 243.4219 L155.4468 246.4531 L156.1187 246.4531 Q160.6968 246.4531 160.6968 249.9375 Q160.6968 251.5 159.6421 252.3828 Q158.5874 253.2656 156.728 253.2656 Q155.8062 253.2656 154.8218 253.0156 Z"
                  style="stroke:none; clip-path:url(#clipPath4);"/>
        </g>
        <g transform="translate(6,5)"
           style="text-rendering:optimizeLegibility; font-family:'Lucida Bright'; color-interpolation:linearRGB; color-rendering:optimizeQuality; image-rendering:optimizeQuality;">
            <path d="M164.9461 167.4397 L160.9461 167.4397"
                  style="fill:none; clip-path:url(#clipPath1);"/>
        </g>
        <g transform="translate(6,5)"
           style="text-rendering:optimizeLegibility; font-family:'Lucida Bright'; color-interpolation:linearRGB; color-rendering:optimizeQuality; image-rendering:optimizeQuality;">
            <path d="M164.9461 92.59 L160.9461 92.59"
                  style="fill:none; clip-path:url(#clipPath1);"/>
            <path d="M144.5 103.2656 Q142.8281 103.2656 141.7969 101.7109 Q140.7656 100.1562 140.7656 97.6094 Q140.7656 95 141.7969 93.4453 Q142.8281 91.8906 144.5625 91.8906 Q146.2969 91.8906 147.3281 93.4375 Q148.3594 94.9844 148.3594 97.5938 Q148.3594 100.2031 147.3203 101.7344 Q146.2812 103.2656 144.5 103.2656 ZM144.5312 102.8125 Q146.8281 102.9219 146.8281 97.5 Q146.8281 92.3281 144.5625 92.3281 Q142.3125 92.3281 142.3125 97.5781 Q142.3125 102.7188 144.5312 102.8125 ZM150.2041 103 L150.2041 101.1875 L152.0166 101.1875 L152.0166 103 L150.2041 103 ZM154.8218 103.0156 L154.8218 101.1875 L155.5405 101.1875 L155.5562 101.3594 L155.5718 101.9219 Q155.6187 102.8125 156.978 102.8125 Q157.9937 102.8125 158.5874 102.0234 Q159.1812 101.2344 159.1812 99.875 Q159.1812 98.3281 158.2593 97.6641 Q157.3374 97 155.2593 97 L154.9937 97 L154.9937 92.1562 L160.4624 92.1562 L160.4624 93.4219 L155.4468 93.4219 L155.4468 96.4531 L156.1187 96.4531 Q160.6968 96.4531 160.6968 99.9375 Q160.6968 101.5 159.6421 102.3828 Q158.5874 103.2656 156.728 103.2656 Q155.8062 103.2656 154.8218 103.0156 Z"
                  style="clip-path:url(#clipPath4); stroke:none;"
                  transform="translate(-6,-5)"/>
        </g>
        <g transform="translate(6,5)"
           style="text-rendering:optimizeLegibility; font-family:'Lucida Bright'; color-interpolation:linearRGB; color-rendering:optimizeQuality; image-rendering:optimizeQuality;">
            <path d="M164.9461 17.7403 L160.9461 17.7403"
                  style="fill:none; clip-path:url(#clipPath1);"/>
            <path d="M159.2812 17.0625 L159.2812 26.1094 L159.3281 26.8281 Q159.3594 27.2656 159.5859 27.3984 Q159.8125 27.5312 160.5156 27.5312 L161.375 27.5469 L161.375 28 L155.7656 28 L155.7656 27.5469 L156.625 27.5312 Q157.3125 27.5312 157.5391 27.3984 Q157.7656 27.2656 157.7969 26.8281 L157.8438 26.1094 L157.8438 19.375 L157.7969 18.6406 Q157.7969 18.125 157.5 18.125 Q157.2812 18.125 156.4844 18.2656 L155.7656 18.3906 L155.7656 17.9375 L159.2812 17.0625 Z"
                  style="clip-path:url(#clipPath4); stroke:none;"
                  transform="translate(-6,-5)"/>
        </g>
        <g transform="translate(6,5)"
           style="text-rendering:optimizeLegibility; font-family:'Lucida Bright'; color-interpolation:linearRGB; color-rendering:optimizeQuality; image-rendering:optimizeQuality;">
            <path d="M164.9461 377.0188 L162.9461 377.0188"
                  style="fill:none; clip-path:url(#clipPath1);"/>
        </g>
        <g transform="translate(6,5)"
           style="text-rendering:optimizeLegibility; font-family:'Lucida Bright'; color-interpolation:linearRGB; color-rendering:optimizeQuality; image-rendering:optimizeQuality;">
            <path d="M164.9461 362.0489 L162.9461 362.0489"
                  style="fill:none; clip-path:url(#clipPath1);"/>
        </g>
        <g transform="translate(6,5)"
           style="text-rendering:optimizeLegibility; font-family:'Lucida Bright'; color-interpolation:linearRGB; color-rendering:optimizeQuality; image-rendering:optimizeQuality;">
            <path d="M164.9461 347.0789 L162.9461 347.0789"
                  style="fill:none; clip-path:url(#clipPath1);"/>
        </g>
        <g transform="translate(6,5)"
           style="text-rendering:optimizeLegibility; font-family:'Lucida Bright'; color-interpolation:linearRGB; color-rendering:optimizeQuality; image-rendering:optimizeQuality;">
            <path d="M164.9461 332.109 L162.9461 332.109"
                  style="fill:none; clip-path:url(#clipPath1);"/>
        </g>
        <g transform="translate(6,5)"
           style="text-rendering:optimizeLegibility; font-family:'Lucida Bright'; color-interpolation:linearRGB; color-rendering:optimizeQuality; image-rendering:optimizeQuality;">
            <path d="M164.9461 302.1691 L162.9461 302.1691"
                  style="fill:none; clip-path:url(#clipPath1);"/>
        </g>
        <g transform="translate(6,5)"
           style="text-rendering:optimizeLegibility; font-family:'Lucida Bright'; color-interpolation:linearRGB; color-rendering:optimizeQuality; image-rendering:optimizeQuality;">
            <path d="M164.9461 287.1992 L162.9461 287.1992"
                  style="fill:none; clip-path:url(#clipPath1);"/>
        </g>
        <g transform="translate(6,5)"
           style="text-rendering:optimizeLegibility; font-family:'Lucida Bright'; color-interpolation:linearRGB; color-rendering:optimizeQuality; image-rendering:optimizeQuality;">
            <path d="M164.9461 272.2292 L162.9461 272.2292"
                  style="fill:none; clip-path:url(#clipPath1);"/>
        </g>
        <g transform="translate(6,5)"
           style="text-rendering:optimizeLegibility; font-family:'Lucida Bright'; color-interpolation:linearRGB; color-rendering:optimizeQuality; image-rendering:optimizeQuality;">
            <path d="M164.9461 257.2593 L162.9461 257.2593"
                  style="fill:none; clip-path:url(#clipPath1);"/>
        </g>
        <g transform="translate(6,5)"
           style="text-rendering:optimizeLegibility; font-family:'Lucida Bright'; color-interpolation:linearRGB; color-rendering:optimizeQuality; image-rendering:optimizeQuality;">
            <path d="M164.9461 227.3194 L162.9461 227.3194"
                  style="fill:none; clip-path:url(#clipPath1);"/>
        </g>
        <g transform="translate(6,5)"
           style="text-rendering:optimizeLegibility; font-family:'Lucida Bright'; color-interpolation:linearRGB; color-rendering:optimizeQuality; image-rendering:optimizeQuality;">
            <path d="M164.9461 212.3495 L162.9461 212.3495"
                  style="fill:none; clip-path:url(#clipPath1);"/>
        </g>
        <g transform="translate(6,5)"
           style="text-rendering:optimizeLegibility; font-family:'Lucida Bright'; color-interpolation:linearRGB; color-rendering:optimizeQuality; image-rendering:optimizeQuality;">
            <path d="M164.9461 197.3796 L162.9461 197.3796"
                  style="fill:none; clip-path:url(#clipPath1);"/>
        </g>
        <g transform="translate(6,5)"
           style="text-rendering:optimizeLegibility; font-family:'Lucida Bright'; color-interpolation:linearRGB; color-rendering:optimizeQuality; image-rendering:optimizeQuality;">
            <path d="M164.9461 182.4096 L162.9461 182.4096"
                  style="fill:none; clip-path:url(#clipPath1);"/>
        </g>
        <g transform="translate(6,5)"
           style="text-rendering:optimizeLegibility; font-family:'Lucida Bright'; color-interpolation:linearRGB; color-rendering:optimizeQuality; image-rendering:optimizeQuality;">
            <path d="M164.9461 152.4697 L162.9461 152.4697"
                  style="fill:none; clip-path:url(#clipPath1);"/>
        </g>
        <g transform="translate(6,5)"
           style="text-rendering:optimizeLegibility; font-family:'Lucida Bright'; color-interpolation:linearRGB; color-rendering:optimizeQuality; image-rendering:optimizeQuality;">
            <path d="M164.9461 137.4998 L162.9461 137.4998"
                  style="fill:none; clip-path:url(#clipPath1);"/>
        </g>
        <g transform="translate(6,5)"
           style="text-rendering:optimizeLegibility; font-family:'Lucida Bright'; color-interpolation:linearRGB; color-rendering:optimizeQuality; image-rendering:optimizeQuality;">
            <path d="M164.9461 122.5298 L162.9461 122.5298"
                  style="fill:none; clip-path:url(#clipPath1);"/>
        </g>
        <g transform="translate(6,5)"
           style="text-rendering:optimizeLegibility; font-family:'Lucida Bright'; color-interpolation:linearRGB; color-rendering:optimizeQuality; image-rendering:optimizeQuality;">
            <path d="M164.9461 107.5599 L162.9461 107.5599"
                  style="fill:none; clip-path:url(#clipPath1);"/>
        </g>
        <g transform="translate(6,5)"
           style="text-rendering:optimizeLegibility; font-family:'Lucida Bright'; color-interpolation:linearRGB; color-rendering:optimizeQuality; image-rendering:optimizeQuality;">
            <path d="M164.9461 77.62 L162.9461 77.62"
                  style="fill:none; clip-path:url(#clipPath1);"/>
        </g>
        <g transform="translate(6,5)"
           style="text-rendering:optimizeLegibility; font-family:'Lucida Bright'; color-interpolation:linearRGB; color-rendering:optimizeQuality; image-rendering:optimizeQuality;">
            <path d="M164.9461 62.6501 L162.9461 62.6501"
                  style="fill:none; clip-path:url(#clipPath1);"/>
        </g>
        <g transform="translate(6,5)"
           style="text-rendering:optimizeLegibility; font-family:'Lucida Bright'; color-interpolation:linearRGB; color-rendering:optimizeQuality; image-rendering:optimizeQuality;">
            <path d="M164.9461 47.6801 L162.9461 47.6801"
                  style="fill:none; clip-path:url(#clipPath1);"/>
        </g>
        <g transform="translate(6,5)"
           style="text-rendering:optimizeLegibility; font-family:'Lucida Bright'; color-interpolation:linearRGB; color-rendering:optimizeQuality; image-rendering:optimizeQuality;">
            <path d="M164.9461 32.7102 L162.9461 32.7102"
                  style="fill:none; clip-path:url(#clipPath1);"/>
        </g>
        <g transform="translate(6,5)"
           style="text-rendering:optimizeLegibility; font-family:'Lucida Bright'; color-interpolation:linearRGB; color-rendering:optimizeQuality; image-rendering:optimizeQuality;">
            <path d="M164.9461 2.7704 L162.9461 2.7704"
                  style="fill:none; clip-path:url(#clipPath1);"/>
        </g>
    </g>
</svg>
