<?xml version="1.0" encoding="UTF-8"?>
<!DOCTYPE svg PUBLIC '-//W3C//DTD SVG 1.0//EN'
    'http://www.w3.org/TR/2001/REC-SVG-20010904/DTD/svg10.dtd' >

<svg style="stroke-dasharray:none; shape-rendering:auto; font-family:'Dialog'; text-rendering:auto; fill-opacity:1; color-interpolation:auto; color-rendering:auto; font-size:12px; fill:black; stroke:black; image-rendering:auto; stroke-miterlimit:10; stroke-linecap:square; stroke-linejoin:miter; font-style:normal; stroke-width:1; stroke-dashoffset:0; font-weight:normal; stroke-opacity:1;"
     xmlns="http://www.w3.org/2000/svg" contentScriptType="text/ecmascript"
     preserveAspectRatio="xMidYMid meet"
     xmlns:xlink="http://www.w3.org/1999/xlink" zoomAndPan="magnify"
     version="1.0" contentStyleType="text/css">
    <!--Generated by the Batik Graphics2D SVG Generator-->
    <defs id="genericDefs"/>
    <g>
        <defs id="defs1">
            <clipPath clipPathUnits="userSpaceOnUse" id="clipPath1">
                <path d="M0 0 L390 0 L390 390 L0 390 L0 0 Z"/>
            </clipPath>
            <clipPath clipPathUnits="userSpaceOnUse" id="clipPath2">
                <path d="M1 0 L1 389 L390 389 L390 0 Z"/>
            </clipPath>
            <clipPath clipPathUnits="userSpaceOnUse" id="clipPath3">
                <path d="M283 218 L283 236 L302 236 L302 218 Z"/>
            </clipPath>
            <clipPath clipPathUnits="userSpaceOnUse" id="clipPath4">
                <path d="M6 5 L396 5 L396 395 L6 395 L6 5 Z"/>
            </clipPath>
            <clipPath clipPathUnits="userSpaceOnUse" id="clipPath5">
                <path d="M10 207 L10 223 L18 223 L18 207 Z"/>
            </clipPath>
            <clipPath clipPathUnits="userSpaceOnUse" id="clipPath6">
                <path d="M75 207 L75 223 L83 223 L83 207 Z"/>
            </clipPath>
            <clipPath clipPathUnits="userSpaceOnUse" id="clipPath7">
                <path d="M127 207 L127 223 L135 223 L135 207 Z"/>
            </clipPath>
            <clipPath clipPathUnits="userSpaceOnUse" id="clipPath8">
                <path d="M130 88 L130 106 L150 106 L150 88 Z"/>
            </clipPath>
            <clipPath clipPathUnits="userSpaceOnUse" id="clipPath9">
                <path d="M161 348 L161 364 L169 364 L169 348 Z"/>
            </clipPath>
            <clipPath clipPathUnits="userSpaceOnUse" id="clipPath10">
                <path d="M161 309 L161 325 L169 325 L169 309 Z"/>
            </clipPath>
            <clipPath clipPathUnits="userSpaceOnUse" id="clipPath11">
                <path d="M161 270 L161 286 L169 286 L169 270 Z"/>
            </clipPath>
            <clipPath clipPathUnits="userSpaceOnUse" id="clipPath12">
                <path d="M161 231 L161 247 L169 247 L169 231 Z"/>
            </clipPath>
        </defs>
        <g transform="translate(6,5)"
           style="stroke-linecap:butt; fill:rgb(165,165,165); text-rendering:optimizeLegibility; image-rendering:optimizeQuality; color-rendering:optimizeQuality; font-family:'Lucida Bright'; stroke-linejoin:round; stroke:rgb(165,165,165); color-interpolation:linearRGB;">
            <path d="M20.226 388 L20.226 1"
                  style="fill:none; clip-path:url(#clipPath1);"/>
            <path d="M78.6507 388 L78.6507 1"
                  style="fill:none; clip-path:url(#clipPath1);"/>
            <path d="M137.0753 388 L137.0753 1"
                  style="fill:none; clip-path:url(#clipPath1);"/>
            <path d="M195.5 388 L195.5 1"
                  style="fill:none; clip-path:url(#clipPath1);"/>
            <path d="M253.9247 388 L253.9247 1"
                  style="fill:none; clip-path:url(#clipPath1);"/>
            <path d="M312.3493 388 L312.3493 1"
                  style="fill:none; clip-path:url(#clipPath1);"/>
            <path d="M370.774 388 L370.774 1"
                  style="fill:none; clip-path:url(#clipPath1);"/>
            <path d="M8.5411 388 L8.5411 1"
                  style="fill:none; clip-path:url(#clipPath1); stroke:rgb(233,233,233);"/>
            <path d="M31.9109 388 L31.9109 1"
                  style="fill:none; clip-path:url(#clipPath1); stroke:rgb(233,233,233);"/>
            <path d="M43.5959 388 L43.5959 1"
                  style="fill:none; clip-path:url(#clipPath1); stroke:rgb(233,233,233);"/>
            <path d="M55.2808 388 L55.2808 1"
                  style="fill:none; clip-path:url(#clipPath1); stroke:rgb(233,233,233);"/>
            <path d="M66.9657 388 L66.9657 1"
                  style="fill:none; clip-path:url(#clipPath1); stroke:rgb(233,233,233);"/>
            <path d="M90.3356 388 L90.3356 1"
                  style="fill:none; clip-path:url(#clipPath1); stroke:rgb(233,233,233);"/>
            <path d="M102.0205 388 L102.0205 1"
                  style="fill:none; clip-path:url(#clipPath1); stroke:rgb(233,233,233);"/>
            <path d="M113.7055 388 L113.7055 1"
                  style="fill:none; clip-path:url(#clipPath1); stroke:rgb(233,233,233);"/>
            <path d="M125.3904 388 L125.3904 1"
                  style="fill:none; clip-path:url(#clipPath1); stroke:rgb(233,233,233);"/>
            <path d="M148.7603 388 L148.7603 1"
                  style="fill:none; clip-path:url(#clipPath1); stroke:rgb(233,233,233);"/>
            <path d="M160.4452 388 L160.4452 1"
                  style="fill:none; clip-path:url(#clipPath1); stroke:rgb(233,233,233);"/>
            <path d="M172.1301 388 L172.1301 1"
                  style="fill:none; clip-path:url(#clipPath1); stroke:rgb(233,233,233);"/>
            <path d="M183.8151 388 L183.8151 1"
                  style="fill:none; clip-path:url(#clipPath1); stroke:rgb(233,233,233);"/>
            <path d="M207.1849 388 L207.1849 1"
                  style="fill:none; clip-path:url(#clipPath1); stroke:rgb(233,233,233);"/>
            <path d="M218.8699 388 L218.8699 1"
                  style="fill:none; clip-path:url(#clipPath1); stroke:rgb(233,233,233);"/>
            <path d="M230.5548 388 L230.5548 1"
                  style="fill:none; clip-path:url(#clipPath1); stroke:rgb(233,233,233);"/>
            <path d="M242.2397 388 L242.2397 1"
                  style="fill:none; clip-path:url(#clipPath1); stroke:rgb(233,233,233);"/>
            <path d="M265.6096 388 L265.6096 1"
                  style="fill:none; clip-path:url(#clipPath1); stroke:rgb(233,233,233);"/>
            <path d="M277.2945 388 L277.2945 1"
                  style="fill:none; clip-path:url(#clipPath1); stroke:rgb(233,233,233);"/>
            <path d="M288.9795 388 L288.9795 1"
                  style="fill:none; clip-path:url(#clipPath1); stroke:rgb(233,233,233);"/>
            <path d="M300.6644 388 L300.6644 1"
                  style="fill:none; clip-path:url(#clipPath1); stroke:rgb(233,233,233);"/>
            <path d="M324.0343 388 L324.0343 1"
                  style="fill:none; clip-path:url(#clipPath1); stroke:rgb(233,233,233);"/>
            <path d="M335.7192 388 L335.7192 1"
                  style="fill:none; clip-path:url(#clipPath1); stroke:rgb(233,233,233);"/>
            <path d="M347.4041 388 L347.4041 1"
                  style="fill:none; clip-path:url(#clipPath1); stroke:rgb(233,233,233);"/>
            <path d="M359.0891 388 L359.0891 1"
                  style="fill:none; clip-path:url(#clipPath1); stroke:rgb(233,233,233);"/>
            <path d="M382.4589 388 L382.4589 1"
                  style="fill:none; clip-path:url(#clipPath1); stroke:rgb(233,233,233);"/>
        </g>
        <g transform="translate(6,5)"
           style="stroke-linecap:butt; fill:rgb(165,165,165); text-rendering:optimizeLegibility; image-rendering:optimizeQuality; color-rendering:optimizeQuality; font-family:'Lucida Bright'; stroke-linejoin:round; stroke:rgb(165,165,165); color-interpolation:linearRGB;">
            <path d="M2 350.1317 L389 350.1317"
                  style="fill:none; clip-path:url(#clipPath1);"/>
            <path d="M2 311.2238 L389 311.2238"
                  style="fill:none; clip-path:url(#clipPath1);"/>
            <path d="M2 272.3159 L389 272.3159"
                  style="fill:none; clip-path:url(#clipPath1);"/>
            <path d="M2 233.4079 L389 233.4079"
                  style="fill:none; clip-path:url(#clipPath1);"/>
            <path d="M2 194.5 L389 194.5"
                  style="fill:none; clip-path:url(#clipPath1);"/>
            <path d="M2 155.5921 L389 155.5921"
                  style="fill:none; clip-path:url(#clipPath1);"/>
            <path d="M2 116.6841 L389 116.6841"
                  style="fill:none; clip-path:url(#clipPath1);"/>
            <path d="M2 77.7762 L389 77.7762"
                  style="fill:none; clip-path:url(#clipPath1);"/>
            <path d="M2 38.8683 L389 38.8683"
                  style="fill:none; clip-path:url(#clipPath1);"/>
            <path d="M2 369.5857 L389 369.5857"
                  style="fill:none; clip-path:url(#clipPath1); stroke:rgb(233,233,233);"/>
            <path d="M2 330.6777 L389 330.6777"
                  style="fill:none; clip-path:url(#clipPath1); stroke:rgb(233,233,233);"/>
            <path d="M2 291.7698 L389 291.7698"
                  style="fill:none; clip-path:url(#clipPath1); stroke:rgb(233,233,233);"/>
            <path d="M2 252.8619 L389 252.8619"
                  style="fill:none; clip-path:url(#clipPath1); stroke:rgb(233,233,233);"/>
            <path d="M2 213.954 L389 213.954"
                  style="fill:none; clip-path:url(#clipPath1); stroke:rgb(233,233,233);"/>
            <path d="M2 175.046 L389 175.046"
                  style="fill:none; clip-path:url(#clipPath1); stroke:rgb(233,233,233);"/>
            <path d="M2 136.1381 L389 136.1381"
                  style="fill:none; clip-path:url(#clipPath1); stroke:rgb(233,233,233);"/>
            <path d="M2 97.2302 L389 97.2302"
                  style="fill:none; clip-path:url(#clipPath1); stroke:rgb(233,233,233);"/>
            <path d="M2 58.3223 L389 58.3223"
                  style="fill:none; clip-path:url(#clipPath1); stroke:rgb(233,233,233);"/>
            <path d="M2 19.4143 L389 19.4143"
                  style="fill:none; clip-path:url(#clipPath1); stroke:rgb(233,233,233);"/>
        </g>
        <g transform="translate(6,5)"
           style="stroke-linecap:butt; fill:rgb(120,0,14); text-rendering:optimizeLegibility; image-rendering:optimizeQuality; color-rendering:optimizeQuality; font-family:'Lucida Bright'; stroke-linejoin:round; stroke:rgb(120,0,14); color-interpolation:linearRGB; stroke-width:1.5;">
            <path d="M32.7539 60.708 L33.4907 63.8972 L35.0956 67.1049 L35.3808 67.7958 L37.4373 71.0343 L37.7941 71.6944 L39.7789 74.4149 L40.5271 75.593 L42.1206 77.5858 L43.4698 79.4916 L44.4623 80.6543 L46.5574 83.3902 L46.804 83.6652 L47.4367 84.4436 L49.1456 86.4219 L49.8168 87.2888 L51.4873 89.1325 L53.1741 91.1874 L53.829 91.8839 L55.2182 93.5003 L56.1706 94.5404 L56.6229 95.086 L58.5123 97.0764 L60.1669 98.9846 L60.854 99.6878 L62.1261 101.1024 L63.1956 102.2185 L63.7772 102.8831 L65.5373 104.6692 L67.4525 106.7817 L67.879 107.2047 L68.5914 107.9678 L70.2206 109.6067 L71.202 110.6803 L72.5623 112.0188 L74.7867 114.3837 L74.904 114.5006 L74.9762 114.5789 L77.2457 116.794 L78.8411 118.4775 L79.5873 119.193 L80.7156 120.3559 L81.929 121.5308 L82.7362 122.3761 L84.2707 123.8365 L86.5477 126.167 L86.6123 126.2291 L86.6562 126.2747 L88.954 128.4454 L90.6541 130.1733 L91.2957 130.7709 L92.1909 131.6636 L93.6374 133.0199 L94.6797 134.0719 L95.979 135.2739 L97.762 137.0403 L98.3207 137.5602 L98.7301 137.9704 L100.6624 139.7457 L102.8198 141.869 L103.004 142.0364 L103.2446 142.2696 L105.3457 144.1864 L106.9629 145.7676 L107.6874 146.4216 L108.6193 147.3192 L110.029 148.5964 L111.1306 149.6662 L112.3707 150.7785 L113.9423 152.2828 L114.7124 152.9755 L115.3232 153.5648 L117.0541 155.1071 L119.2152 157.1628 L119.3957 157.3241 L119.5411 157.4634 L121.7374 159.4075 L123.8049 161.362 L124.0791 161.6028 L124.4086 161.9106 L126.4207 163.68 L128.1032 165.2606 L128.7624 165.836 L129.5439 166.5617 L131.1041 167.9246 L132.4265 169.1592 L133.4457 170.0433 L134.6378 171.1438 L135.7874 172.1414 L136.7752 173.0578 L138.1291 174.2249 L139.6913 175.6586 L140.4708 176.3306 L141.1496 176.9563 L142.8124 178.381 L144.7054 180.108 L145.1541 180.4922 L145.5502 180.8549 L147.4958 182.5114 L149.6812 184.4934 L149.8374 184.6263 L149.9772 184.7535 L152.1791 186.6165 L154.4371 188.6521 L154.5208 188.7226 L154.6122 188.8043 L156.8624 190.6963 L158.9318 192.5507 L159.2041 192.7787 L159.4979 193.0398 L161.5458 194.7508 L163.4526 196.4493 L163.8875 196.8112 L164.3509 197.2209 L166.2291 198.7802 L167.9998 200.3479 L168.5708 200.8203 L169.1719 201.3487 L170.9125 202.7845 L172.5737 204.2465 L173.2541 204.8061 L173.9617 205.4245 L175.5958 206.7639 L177.1748 208.1451 L177.9375 208.7686 L178.7209 209.4494 L180.2791 210.7184 L181.8034 212.0437 L182.6208 212.7079 L183.4503 213.4246 L184.9625 214.6482 L186.46 215.9422 L187.3042 216.6241 L188.1504 217.3511 L189.6458 218.5534 L191.1449 219.8408 L191.9875 220.5173 L192.8219 221.23 L194.3292 222.4339 L195.8586 223.7394 L196.6708 224.3876 L197.4655 225.0624 L199.0125 226.2901 L200.6015 227.638 L201.3542 228.235 L202.0817 228.8492 L203.6958 230.1218 L205.3741 231.5366 L206.0375 232.0596 L206.6711 232.5914 L208.3792 233.9292 L210.1767 235.4352 L210.7209 235.8615 L211.2342 236.2899 L213.0625 237.7124 L215.0099 239.3338 L215.4042 239.6408 L215.7717 239.9457 L217.7459 241.4715 L219.8741 243.2324 L220.0875 243.3975 L220.2841 243.5597 L222.4292 245.2066 L224.7698 247.131 L224.7709 247.1318 L224.7719 247.1327 L227.1125 248.9178 L229.2199 250.6395 L229.4542 250.8165 L229.7161 251.0296 L231.7959 252.6051 L233.6429 254.1045 L234.1376 254.4755 L234.6977 254.9281 L236.4792 256.2687 L238.0413 257.5287 L238.8209 258.1091 L239.715 258.8267 L241.1626 259.9086 L242.4157 260.913 L243.5042 261.7175 L244.7687 262.7253 L245.8459 263.525 L246.7667 264.2582 L248.1876 265.3006 L249.8593 266.6239 L250.5293 267.1178 L251.0947 267.5652 L252.8709 268.8587 L254.9875 270.5225 L255.2126 270.6873 L255.4001 270.8348 L257.5543 272.3918 L259.6682 274.0419 L259.8959 274.204 L260.1763 274.4211 L262.2376 275.8999 L263.8997 277.1883 L264.5793 277.6682 L265.4272 278.3197 L266.9209 279.3833 L268.1091 280.2979 L269.2626 281.1057 L270.7217 282.2183 L271.6043 282.842 L272.2968 283.3713 L273.946 284.5168 L276.0606 286.1169 L276.2876 286.2761 L276.4633 286.4094 L278.6293 287.9015 L280.5818 289.3675 L280.9709 289.6299 L281.491 290.0154 L283.3126 291.2599 L284.6656 292.2679 L285.6543 292.9285 L286.9948 293.914 L287.996 294.5923 L288.7287 295.1339 L290.3376 296.199 L292.5514 297.8126 L292.6793 297.8986 L292.7716 297.9662 L295.021 299.4415 L296.7498 300.6909 L297.3626 301.0813 L298.25 301.7112 L299.7043 302.6561 L300.7006 303.3699 L302.046 304.218 L304.0254 305.6098 L304.3876 305.843 L304.6319 306.0164 L306.7293 307.3247 L308.5001 308.5579 L309.071 308.9004 L309.9654 309.5084 L311.4127 310.4016 L312.3286 311.0333 L313.7543 311.8784 L316.0276 313.407 L316.096 313.4488 L316.1385 313.4778 L318.4377 314.824 L319.8551 315.7667 L320.7794 316.2797 L322.3741 317.3056 L323.121 317.7375 L323.55 318.0197 L325.4627 319.0661 L327.1725 320.1522 L327.8044 320.4732 L329.0084 321.2042 L330.146 321.8176 L330.7372 322.1883 L332.4877 323.0623 L334.2296 324.1042 L334.8294 324.3729 L336.1307 325.1028 L337.1711 325.6131 L337.6455 325.8927 L339.5127 326.7111 L340.9563 327.5062 L341.8544 327.8376 L344.1828 329.0013 L344.196 329.007 L344.2011 329.0098 L346.5377 329.8459 L347.2556 330.1965 L348.8794 330.6181 L350.1734 331.1558 L351.2211 331.2753 L352.8963 331.7904 L353.5627 331.7077 L355.3269 331.9385 L355.9044 331.601 L357.2906 331.3091 L358.2461 329.5426 L358.4385 329.3217 L358.454 329.0013 L358.2461 328.292 L357.5093 325.1028 L355.9044 321.8951 L355.6192 321.2042 L353.5627 317.9657 L353.2059 317.3056 L351.2211 314.5851 L350.473 313.407 L348.8794 311.4142 L347.5302 309.5084 L346.5377 308.3457 L344.4426 305.6098 L344.196 305.3348 L343.5633 304.5564 L341.8544 302.5782 L341.1832 301.7112 L339.5127 299.8675 L337.8259 297.8126 L337.1711 297.1161 L335.7818 295.4997 L334.8294 294.4596 L334.3771 293.914 L332.4877 291.9236 L330.8331 290.0154 L330.146 289.3122 L328.8739 287.8976 L327.8044 286.7815 L327.2228 286.1169 L325.4627 284.3308 L323.5475 282.2183 L323.121 281.7953 L322.4086 281.0322 L320.7794 279.3933 L319.798 278.3197 L318.4377 276.9813 L316.2133 274.6163 L316.096 274.4994 L316.0238 274.4211 L313.7543 272.206 L312.1589 270.5225 L311.4127 269.807 L310.2844 268.6441 L309.071 267.4692 L308.2638 266.6239 L306.7293 265.1635 L304.4523 262.833 L304.3876 262.7709 L304.3438 262.7253 L302.046 260.5546 L300.3459 258.8267 L299.7043 258.2291 L298.8091 257.3364 L297.3626 255.9801 L296.3203 254.9281 L295.021 253.7261 L293.238 251.9597 L292.6793 251.4398 L292.2699 251.0296 L290.3376 249.2543 L288.1802 247.131 L287.996 246.9636 L287.7554 246.7304 L285.6543 244.8136 L284.0371 243.2324 L283.3126 242.5784 L282.3807 241.6808 L280.9709 240.4036 L279.8694 239.3338 L278.6293 238.2215 L277.0576 236.7172 L276.2876 236.0245 L275.6768 235.4352 L273.946 233.8929 L271.7848 231.8372 L271.6043 231.6759 L271.4589 231.5366 L269.2626 229.5925 L267.1951 227.638 L266.9209 227.3972 L266.5914 227.0894 L264.5793 225.32 L262.8968 223.7394 L262.2376 223.164 L261.4561 222.4383 L259.8959 221.0754 L258.5735 219.8408 L257.5543 218.9567 L256.3622 217.8562 L255.2126 216.8586 L254.2248 215.9422 L252.8709 214.7751 L251.3087 213.3414 L250.5293 212.6694 L249.8504 212.0437 L248.1876 210.619 L246.2946 208.892 L245.8459 208.5078 L245.4499 208.1451 L243.5042 206.4886 L241.3188 204.5065 L241.1626 204.3737 L241.0228 204.2465 L238.8209 202.3835 L236.5629 200.3479 L236.4792 200.2774 L236.3878 200.1957 L234.1376 198.3037 L232.0682 196.4493 L231.7959 196.2213 L231.5021 195.9602 L229.4542 194.2492 L227.5474 192.5507 L227.1125 192.1888 L226.6491 191.7791 L224.7709 190.2198 L223.0002 188.6521 L222.4292 188.1797 L221.828 187.6513 L220.0875 186.2155 L218.4263 184.7535 L217.7459 184.1939 L217.0383 183.5755 L215.4042 182.2361 L213.8252 180.8549 L213.0625 180.2314 L212.2791 179.5506 L210.7209 178.2816 L209.1966 176.9563 L208.3792 176.2921 L207.5497 175.5754 L206.0375 174.3518 L204.54 173.0578 L203.6958 172.3759 L202.8496 171.6489 L201.3542 170.4466 L199.8551 169.1592 L199.0125 168.4827 L198.1781 167.77 L196.6708 166.5661 L195.1414 165.2606 L194.3292 164.6124 L193.5345 163.9376 L191.9875 162.71 L190.3985 161.362 L189.6458 160.765 L188.9183 160.1508 L187.3042 158.8782 L185.6259 157.4634 L184.9625 156.9404 L184.3289 156.4086 L182.6208 155.0708 L180.8232 153.5648 L180.2791 153.1385 L179.7658 152.7101 L177.9375 151.2876 L175.9901 149.6662 L175.5958 149.3592 L175.2283 149.0543 L173.2541 147.5285 L171.1259 145.7676 L170.9125 145.6025 L170.7159 145.4403 L168.5708 143.7934 L166.2303 141.869 L166.2291 141.8682 L166.2281 141.8673 L163.8875 140.0822 L161.78 138.3605 L161.5458 138.1835 L161.2839 137.9704 L159.2041 136.3949 L157.3571 134.8955 L156.8624 134.5245 L156.3023 134.0719 L154.5208 132.7313 L152.9587 131.4713 L152.1791 130.8909 L151.285 130.1733 L149.8374 129.0914 L148.5843 128.087 L147.4958 127.2825 L146.2313 126.2747 L145.1541 125.475 L144.2333 124.7418 L142.8124 123.6994 L141.1407 122.3761 L140.4708 121.8822 L139.9054 121.4348 L138.1291 120.1413 L136.0125 118.4775 L135.7874 118.3127 L135.5999 118.1653 L133.4457 116.6082 L131.3318 114.9581 L131.1041 114.796 L130.8237 114.5789 L128.7624 113.1001 L127.1003 111.8117 L126.4207 111.3318 L125.5728 110.6803 L124.0791 109.6167 L122.8909 108.7021 L121.7374 107.8943 L120.2783 106.7817 L119.3957 106.158 L118.7032 105.6287 L117.0541 104.4832 L114.9394 102.8831 L114.7124 102.7239 L114.5367 102.5906 L112.3707 101.0985 L110.4182 99.6325 L110.029 99.3701 L109.509 98.9846 L107.6874 97.74 L106.3344 96.7321 L105.3457 96.0715 L104.0052 95.086 L103.004 94.4077 L102.2713 93.8661 L100.6624 92.801 L98.4486 91.1874 L98.3207 91.1014 L98.2284 91.0338 L95.979 89.5585 L94.2502 88.3091 L93.6374 87.9187 L92.75 87.2888 L91.2957 86.3439 L90.2994 85.6301 L88.954 84.782 L86.9746 83.3902 L86.6123 83.157 L86.3681 82.9836 L84.2707 81.6753 L82.4999 80.4421 L81.929 80.0996 L81.0346 79.4916 L79.5873 78.5984 L78.6714 77.9667 L77.2457 77.1217 L74.9724 75.593 L74.904 75.5512 L74.8614 75.5222 L72.5623 74.176 L71.1449 73.2333 L70.2206 72.7203 L68.6259 71.6944 L67.879 71.2625 L67.45 70.9803 L65.5373 69.934 L63.8275 68.8478 L63.1956 68.5268 L61.9916 67.7958 L60.854 67.1824 L60.2628 66.8117 L58.5123 65.9377 L56.7704 64.8958 L56.1706 64.6271 L54.8693 63.8972 L53.829 63.3869 L53.3545 63.1073 L51.4873 62.2889 L50.0437 61.4938 L49.1456 61.1624 L46.8172 59.9987 L46.804 59.993 L46.7989 59.9902 L44.4623 59.1541 L43.7444 58.8035 L42.1206 58.3819 L40.8266 57.8442 L39.7789 57.7247 L38.1037 57.2096 L37.4373 57.2923 L35.6731 57.0615 L35.0956 57.399 L33.7094 57.6909 L32.7539 59.4574 L32.5615 59.6783 L32.546 59.9987 L32.7539 60.708"
                  style="fill:none; clip-path:url(#clipPath2);"/>
        </g>
        <g transform="translate(6,5)"
           style="stroke-linecap:butt; fill:rgb(120,0,14); text-rendering:optimizeLegibility; image-rendering:optimizeQuality; color-rendering:optimizeQuality; font-family:'Lucida Bright'; stroke-linejoin:round; stroke:rgb(120,0,14); color-interpolation:linearRGB; stroke-width:1.5;">
            <path d="M388.6878 387.7401 L389 388 L389 387.4802 L388.6878 387.0903 L387.7511 385.9207 L388.3755 387.4802 L388.6878 387.7401"
                  style="fill:none; clip-path:url(#clipPath2);"/>
            <path d="M2.3122 1.9097 L3.2489 3.0793 L2.6244 1.5198 L2.3122 1.2599 L2 1 L2 1.5198 L2.3122 1.9097"
                  style="fill:none; clip-path:url(#clipPath2);"/>
            <path d="M6.9956 6.1981 L8.2445 9.317 L9.3372 10.6815 L11.3667 13.2156 L11.6789 13.6054 L12.6156 14.775 L14.0206 16.5294 L14.4889 17.1142 L16.3622 19.4533 L17.6111 21.0128 L18.7039 22.3773 L20.7334 24.9113 L21.0456 25.3012 L21.9823 26.4708 L23.3873 28.2252 L23.8556 28.8099 L25.7289 31.1491 L26.9778 32.7085 L28.0706 34.0731 L30.1 36.6071 L30.4123 36.997 L31.3489 38.1666 L32.7539 39.9209 L33.2223 40.5057 L35.0956 42.8449 L36.3445 44.4043 L37.4373 45.7688 L39.4667 48.3029 L39.7789 48.6927 L40.7156 49.8623 L42.1206 51.6167 L42.5889 52.2015 L44.4623 54.5406 L45.7112 56.1001 L46.804 57.4646 L48.8334 59.9987 L49.1456 60.3885 L50.0823 61.5581 L51.4873 63.3124 L51.9556 63.8972 L53.829 66.2364 L55.0779 67.7958 L56.1706 69.1603 L58.2001 71.6944 L58.5123 72.0843 L59.449 73.2539 L60.854 75.0082 L61.3223 75.593 L63.1956 77.9322 L64.4445 79.4916 L65.5373 80.8561 L67.5668 83.3902 L67.879 83.7801 L68.8157 84.9496 L70.2206 86.704 L70.689 87.2888 L72.5623 89.628 L73.8112 91.1874 L74.904 92.5519 L76.9334 95.086 L77.2457 95.4758 L78.1823 96.6454 L79.5873 98.3998 L80.0557 98.9846 L81.929 101.3237 L83.1779 102.8831 L84.2707 104.2477 L86.3001 106.7817 L86.6123 107.1716 L87.549 108.3412 L88.954 110.0955 L89.4223 110.6803 L91.2957 113.0195 L92.5446 114.5789 L93.6374 115.9434 L95.6668 118.4775 L95.979 118.8673 L96.9157 120.0369 L98.3207 121.7913 L98.789 122.3761 L100.6624 124.7152 L101.9113 126.2747 L103.004 127.6392 L105.0335 130.1733 L105.3457 130.5631 L106.2824 131.7327 L107.6874 133.4871 L108.1557 134.0719 L110.029 136.411 L111.2779 137.9704 L112.3707 139.3349 L114.4002 141.869 L114.7124 142.2589 L115.6491 143.4285 L117.0541 145.1828 L117.5224 145.7676 L119.3957 148.1068 L120.6446 149.6662 L121.7374 151.0307 L123.7668 153.5648 L124.0791 153.9547 L125.0157 155.1242 L126.4207 156.8786 L126.8891 157.4634 L128.7624 159.8026 L130.0113 161.362 L131.1041 162.7265 L133.1335 165.2606 L133.4457 165.6504 L134.3824 166.82 L135.7874 168.5744 L136.2558 169.1592 L138.1291 171.4983 L139.378 173.0578 L140.4708 174.4223 L142.5002 176.9563 L142.8124 177.3462 L143.7491 178.5158 L145.1541 180.2702 L145.6224 180.8549 L147.4958 183.1941 L148.7447 184.7535 L149.8374 186.118 L151.8669 188.6521 L152.1791 189.042 L153.1158 190.2115 L154.5208 191.9659 L154.9891 192.5507 L156.8624 194.422 L158.8919 196.4493 L159.2041 196.7092 L159.5163 196.9691 L161.5458 198.6585 L163.5752 200.3479 L163.8875 200.6078 L164.1997 200.8677 L166.2291 202.5571 L168.2586 204.2465 L168.5708 204.5064 L168.883 204.7663 L170.9125 206.4557 L172.9419 208.1451 L173.2541 208.405 L173.5664 208.6649 L175.5958 210.3543 L177.6253 212.0437 L177.9375 212.3036 L178.2497 212.5635 L180.2791 214.2529 L182.3086 215.9422 L182.6208 216.2021 L182.933 216.4621 L184.9625 218.1514 L186.9919 219.8408 L187.3042 220.1007 L187.6164 220.3606 L189.6458 222.05 L191.6753 223.7394 L191.9875 223.9993 L192.2997 224.2592 L194.3292 225.9486 L196.3586 227.638 L196.6708 227.8979 L196.983 228.1578 L199.0125 229.8472 L201.042 231.5366 L201.3542 231.7965 L201.6664 232.0564 L203.6958 233.7458 L205.7253 235.4352 L206.0375 235.6951 L206.3497 235.955 L208.3792 237.6444 L210.4086 239.3338 L210.7209 239.5937 L211.0331 239.8536 L213.0625 241.543 L215.092 243.2324 L215.4042 243.4923 L215.7164 243.7522 L217.7459 245.4416 L219.7753 247.131 L220.0875 247.3909 L220.3998 247.6508 L222.4292 249.3402 L224.4586 251.0296 L224.7709 251.2895 L225.0831 251.5494 L227.1125 253.2388 L229.142 254.9281 L229.4542 255.188 L229.7664 255.448 L231.7959 257.1373 L233.8253 258.8267 L234.1376 259.0866 L234.4498 259.3466 L236.4792 261.0359 L238.5087 262.7253 L238.8209 262.9852 L239.1331 263.2451 L241.1626 264.9345 L243.192 266.6239 L243.5042 266.8838 L243.8165 267.1437 L245.8459 268.8331 L247.8754 270.5225 L248.1876 270.7824 L248.4998 271.0423 L250.5293 272.7317 L252.5587 274.4211 L252.8709 274.681 L253.1831 274.9409 L255.2126 276.6303 L257.242 278.3197 L257.5543 278.5796 L257.8665 278.8395 L259.8959 280.5289 L261.9254 282.2183 L262.2376 282.4782 L262.5498 282.7381 L264.5793 284.4275 L266.6087 286.1169 L266.9209 286.3768 L267.2332 286.6367 L269.2626 288.326 L271.2921 290.0154 L271.6043 290.2754 L271.9165 290.5352 L273.946 292.2246 L275.9754 293.914 L276.2876 294.174 L276.5999 294.4338 L278.6293 296.1232 L280.6588 297.8126 L280.9709 298.0725 L281.2832 298.3324 L283.3126 300.0218 L285.3421 301.7112 L285.6543 301.9711 L285.9665 302.231 L287.996 303.9204 L290.0254 305.6098 L290.3376 305.8697 L290.6499 306.1296 L292.6793 307.819 L294.7088 309.5084 L295.021 309.7683 L295.3332 310.0282 L297.3626 311.7176 L299.3921 313.407 L299.7043 313.6669 L300.0165 313.9268 L302.046 315.6162 L304.0754 317.3056 L304.3876 317.5655 L304.6999 317.8254 L306.7293 319.5148 L308.7588 321.2042 L309.071 321.4641 L309.3832 321.724 L311.4127 323.4134 L313.4421 325.1028 L313.7543 325.3627 L314.0666 325.6226 L316.096 327.312 L318.1255 329.0013 L318.4377 329.2613 L318.7499 329.5211 L320.7794 331.2105 L322.8088 332.8999 L323.121 333.1599 L323.4332 333.4197 L325.4627 335.1091 L327.4921 336.7985 L327.8044 337.0584 L328.1166 337.3183 L330.146 339.0077 L332.1755 340.6971 L332.4877 340.957 L332.7999 341.2169 L334.8294 342.9063 L336.8588 344.5957 L337.1711 344.8556 L337.4832 345.1155 L339.5127 346.8049 L341.5421 348.4943 L341.8544 348.7542 L342.1666 349.0141 L344.196 350.7035 L346.2255 352.3929 L346.5377 352.6528 L346.8499 352.9127 L348.8794 354.6021 L350.9088 356.2915 L351.2211 356.5514 L351.5333 356.8113 L353.5627 358.5007 L355.5922 360.1901 L355.9044 360.45 L356.2166 360.7099 L358.2461 362.3993 L360.2755 364.0887 L360.5877 364.3485 L360.9 364.6085 L362.9294 366.2979 L364.9589 367.9872 L365.2711 368.2471 L365.5833 368.507 L367.6127 370.1964 L369.6422 371.8858 L369.9544 372.1457 L370.2666 372.4056 L372.2961 374.095 L374.3255 375.7844 L374.6378 376.0443 L374.95 376.3042 L376.9794 377.9936 L379.0089 379.683 L379.3211 379.9429 L379.6333 380.2028 L381.6628 381.0475 L383.6922 383.5816 L384.0044 383.8415 L384.3167 384.1014 L384.9411 383.5816 L384.0044 382.8019 L382.7556 379.683 L381.6628 378.3185 L379.6333 375.7844 L379.3211 375.3946 L378.3844 374.225 L376.9794 372.4706 L376.5111 371.8858 L374.6378 369.5467 L373.3889 367.9872 L372.2961 366.6227 L370.2666 364.0887 L369.9544 363.6988 L369.0178 362.5292 L367.6127 360.7748 L367.1444 360.1901 L365.2711 357.8509 L364.0222 356.2915 L362.9294 354.927 L360.9 352.3929 L360.5877 352.003 L359.6511 350.8334 L358.2461 349.0791 L357.7777 348.4943 L355.9044 346.1552 L354.6555 344.5957 L353.5627 343.2312 L351.5333 340.6971 L351.2211 340.3073 L350.2844 339.1377 L348.8794 337.3833 L348.4111 336.7985 L346.5377 334.4594 L345.2888 332.8999 L344.196 331.5354 L342.1666 329.0013 L341.8544 328.6115 L340.9177 327.4419 L339.5127 325.6875 L339.0444 325.1028 L337.1711 322.7636 L335.9221 321.2042 L334.8294 319.8397 L332.7999 317.3056 L332.4877 316.9157 L331.551 315.7462 L330.146 313.9918 L329.6777 313.407 L327.8044 311.0678 L326.5555 309.5084 L325.4627 308.1439 L323.4332 305.6098 L323.121 305.2199 L322.1844 304.0504 L320.7794 302.296 L320.311 301.7112 L318.4377 299.3721 L317.1888 297.8126 L316.096 296.4481 L314.0666 293.914 L313.7543 293.5242 L312.8177 292.3546 L311.4127 290.6002 L310.9443 290.0154 L309.071 287.6763 L307.8221 286.1169 L306.7293 284.7523 L304.6999 282.2183 L304.3876 281.8284 L303.451 280.6588 L302.046 278.9045 L301.5776 278.3197 L299.7043 275.9805 L298.4554 274.4211 L297.3626 273.0566 L295.3332 270.5225 L295.021 270.1326 L294.0843 268.9631 L292.6793 267.2087 L292.211 266.6239 L290.3376 264.2848 L289.0887 262.7253 L287.996 261.3608 L285.9665 258.8267 L285.6543 258.4369 L284.7176 257.2673 L283.3126 255.5129 L282.8443 254.9281 L280.9709 252.589 L279.722 251.0296 L278.6293 249.6651 L276.5999 247.131 L276.2876 246.7411 L275.351 245.5715 L273.946 243.8172 L273.4776 243.2324 L271.6043 240.8932 L270.3554 239.3338 L269.2626 237.9693 L267.2332 235.4352 L266.9209 235.0453 L265.9843 233.8758 L264.5793 232.1214 L264.1109 231.5366 L262.2376 229.1974 L260.9887 227.638 L259.8959 226.2735 L257.8665 223.7394 L257.5543 223.3496 L256.6176 222.18 L255.2126 220.4256 L254.7443 219.8408 L252.8709 217.5017 L251.622 215.9422 L250.5293 214.5777 L248.4998 212.0437 L248.1876 211.6538 L247.2509 210.4842 L245.8459 208.7299 L245.3776 208.1451 L243.5042 205.8059 L242.2554 204.2465 L241.1626 202.882 L239.1331 200.3479 L238.8209 199.958 L237.8842 198.7884 L236.4792 197.0341 L236.0109 196.4493 L234.1376 194.578 L232.1081 192.5507 L231.7959 192.2908 L231.4837 192.0309 L229.4542 190.3415 L227.4248 188.6521 L227.1125 188.3922 L226.8003 188.1323 L224.7709 186.4429 L222.7414 184.7535 L222.4292 184.4936 L222.117 184.2337 L220.0875 182.5443 L218.0581 180.8549 L217.7459 180.595 L217.4336 180.3351 L215.4042 178.6457 L213.3748 176.9563 L213.0625 176.6964 L212.7503 176.4365 L210.7209 174.7471 L208.6914 173.0578 L208.3792 172.7979 L208.067 172.5379 L206.0375 170.8486 L204.0081 169.1592 L203.6958 168.8993 L203.3836 168.6394 L201.3542 166.95 L199.3247 165.2606 L199.0125 165.0007 L198.7003 164.7408 L196.6708 163.0514 L194.6414 161.362 L194.3292 161.1021 L194.0169 160.8422 L191.9875 159.1528 L189.9581 157.4634 L189.6458 157.2035 L189.3336 156.9436 L187.3042 155.2542 L185.2747 153.5648 L184.9625 153.3049 L184.6503 153.045 L182.6208 151.3556 L180.5914 149.6662 L180.2791 149.4063 L179.9669 149.1464 L177.9375 147.457 L175.908 145.7676 L175.5958 145.5077 L175.2836 145.2478 L173.2541 143.5584 L171.2247 141.869 L170.9125 141.6091 L170.6002 141.3492 L168.5708 139.6598 L166.5414 137.9704 L166.2291 137.7106 L165.9169 137.4506 L163.8875 135.7612 L161.858 134.0719 L161.5458 133.812 L161.2336 133.5521 L159.2041 131.8626 L157.1747 130.1733 L156.8624 129.9134 L156.5502 129.6534 L154.5208 127.9641 L152.4913 126.2747 L152.1791 126.0148 L151.8669 125.7549 L149.8374 124.0655 L147.808 122.3761 L147.4958 122.1162 L147.1835 121.8563 L145.1541 120.1669 L143.1246 118.4775 L142.8124 118.2176 L142.5002 117.9577 L140.4708 116.2683 L138.4413 114.5789 L138.1291 114.319 L137.8169 114.0591 L135.7874 112.3697 L133.758 110.6803 L133.4457 110.4204 L133.1335 110.1605 L131.1041 108.4711 L129.0746 106.7817 L128.7624 106.5218 L128.4502 106.2619 L126.4207 104.5725 L124.3913 102.8831 L124.0791 102.6232 L123.7668 102.3633 L121.7374 100.674 L119.7079 98.9846 L119.3957 98.7246 L119.0835 98.4647 L117.0541 96.7754 L115.0246 95.086 L114.7124 94.826 L114.4002 94.5662 L112.3707 92.8768 L110.3413 91.1874 L110.029 90.9275 L109.7168 90.6675 L107.6874 88.9782 L105.6579 87.2888 L105.3457 87.0289 L105.0335 86.769 L103.004 85.0796 L100.9746 83.3902 L100.6624 83.1303 L100.3501 82.8704 L98.3207 81.181 L96.2913 79.4916 L95.979 79.2317 L95.6668 78.9718 L93.6374 77.2824 L91.6079 75.593 L91.2957 75.3331 L90.9835 75.0732 L88.954 73.3838 L86.9246 71.6944 L86.6123 71.4345 L86.3001 71.1746 L84.2707 69.4852 L82.2412 67.7958 L81.929 67.5359 L81.6168 67.276 L79.5873 65.5866 L77.5579 63.8972 L77.2457 63.6374 L76.9334 63.3774 L74.904 61.688 L72.8745 59.9987 L72.5623 59.7387 L72.2501 59.4789 L70.2206 57.7895 L68.1912 56.1001 L67.879 55.8402 L67.5668 55.5803 L65.5373 53.8909 L63.5079 52.2015 L63.1956 51.9416 L62.8834 51.6817 L60.854 49.9923 L58.8245 48.3029 L58.5123 48.043 L58.2001 47.7831 L56.1706 46.0937 L54.1412 44.4043 L53.829 44.1444 L53.5167 43.8845 L51.4873 42.1951 L49.4578 40.5057 L49.1456 40.2458 L48.8334 39.9859 L46.804 38.2965 L44.7745 36.6071 L44.4623 36.3472 L44.1501 36.0873 L42.1206 34.3979 L40.0912 32.7085 L39.7789 32.4486 L39.4667 32.1887 L37.4373 30.4993 L35.4078 28.8099 L35.0956 28.55 L34.7834 28.2901 L32.7539 26.6007 L30.7245 24.9113 L30.4123 24.6515 L30.1 24.3915 L28.0706 22.7021 L26.0411 21.0128 L25.7289 20.7528 L25.4167 20.493 L23.3873 18.8036 L21.3578 17.1142 L21.0456 16.8543 L20.7334 16.5944 L18.7039 14.905 L16.6745 13.2156 L16.3622 12.9557 L16.05 12.6958 L14.0206 11.0064 L11.9911 9.317 L11.6789 9.0571 L11.3667 8.7972 L9.3372 7.9525 L7.3078 5.4184 L6.9956 5.1585 L6.6833 4.8986 L6.0589 5.4184 L6.9956 6.1981"
                  style="fill:none; clip-path:url(#clipPath2);"/>
        </g>
        <g transform="translate(6,5)"
           style="stroke-linecap:butt; text-rendering:optimizeLegibility; color-rendering:optimizeQuality; image-rendering:optimizeQuality; font-family:'Lucida Bright'; stroke-linejoin:round; color-interpolation:linearRGB;">
            <path d="M2 194.5 L389 194.5"
                  style="fill:none; clip-path:url(#clipPath1);"/>
        </g>
        <g transform="translate(6,5)"
           style="stroke-linecap:butt; text-rendering:optimizeLegibility; color-rendering:optimizeQuality; image-rendering:optimizeQuality; font-family:'Lucida Bright'; stroke-linejoin:round; color-interpolation:linearRGB;">
            <path d="M292.8906 228.9688 L292 226.9531 L291.625 226.2031 Q291.4375 225.7812 291.3047 225.6719 Q291.1719 225.5625 290.8281 225.5312 L290.3906 225.5 L290.25 225.5 L290.3281 225.0469 L292.7188 225.0469 L294.1562 228.1719 L294.5 227.9062 Q295.9219 226.7344 295.9219 225.9688 Q295.9219 225.5625 295.6094 225.0469 L297.0469 225.0469 Q297.125 225.3125 297.125 225.5 Q297.125 226.125 296.6797 226.6406 Q296.2344 227.1562 294.6875 228.3125 L294.3438 228.5781 L295.5469 231.1094 L295.9844 231.9219 Q296.2656 232.4844 296.7344 232.5156 L297.2031 232.5312 L297.3281 232.5469 L297.25 233 L294.8438 233 L293.125 229.375 L292.5 229.9375 Q291 231.2812 291 232.25 Q291 232.6406 291.25 233 L289.7031 233 Q289.6562 232.7969 289.6562 232.6875 Q289.6562 231.75 291.0312 230.5469 L292.1719 229.5938 L292.8906 228.9688 Z"
                  style="stroke:none; clip-path:url(#clipPath3);"/>
        </g>
        <g transform="translate(6,5)"
           style="text-rendering:optimizeLegibility; font-family:'Lucida Bright'; color-interpolation:linearRGB; color-rendering:optimizeQuality; image-rendering:optimizeQuality;">
            <path d="M20.226 194.5 L20.226 198.5"
                  style="fill:none; clip-path:url(#clipPath1);"/>
        </g>
        <g style="text-rendering:optimizeLegibility; font-family:'Lucida Bright'; color-interpolation:linearRGB; color-rendering:optimizeQuality; image-rendering:optimizeQuality;">
            <path d="M22.4531 215.8906 L12.5469 215.8906 L12.5469 215.1094 L22.4531 215.1094 L22.4531 215.8906 Z"
                  style="stroke:none; clip-path:url(#clipPath5);"/>
        </g>
        <g style="text-rendering:optimizeLegibility; font-family:'Lucida Bright'; color-interpolation:linearRGB; color-rendering:optimizeQuality; image-rendering:optimizeQuality;">
            <path d="M25.2812 209.0625 L25.2812 218.1094 L25.3281 218.8281 Q25.3594 219.2656 25.5859 219.3984 Q25.8125 219.5312 26.5156 219.5312 L27.375 219.5469 L27.375 220 L21.7656 220 L21.7656 219.5469 L22.625 219.5312 Q23.3125 219.5312 23.5391 219.3984 Q23.7656 219.2656 23.7969 218.8281 L23.8438 218.1094 L23.8438 211.375 L23.7969 210.6406 Q23.7969 210.125 23.5 210.125 Q23.2812 210.125 22.4844 210.2656 L21.7656 210.3906 L21.7656 209.9375 L25.2812 209.0625 ZM30.2041 220 L30.2041 218.1875 L32.0166 218.1875 L32.0166 220 L30.2041 220 ZM34.8218 220.0156 L34.8218 218.1875 L35.5405 218.1875 L35.5562 218.3594 L35.5718 218.9219 Q35.6187 219.8125 36.978 219.8125 Q37.9937 219.8125 38.5874 219.0234 Q39.1812 218.2344 39.1812 216.875 Q39.1812 215.3281 38.2593 214.6641 Q37.3374 214 35.2593 214 L34.9937 214 L34.9937 209.1562 L40.4624 209.1562 L40.4624 210.4219 L35.4468 210.4219 L35.4468 213.4531 L36.1187 213.4531 Q40.6968 213.4531 40.6968 216.9375 Q40.6968 218.5 39.6421 219.3828 Q38.5874 220.2656 36.728 220.2656 Q35.8062 220.2656 34.8218 220.0156 Z"
                  style="stroke:none; clip-path:url(#clipPath4);"/>
        </g>
        <g transform="translate(6,5)"
           style="text-rendering:optimizeLegibility; font-family:'Lucida Bright'; color-interpolation:linearRGB; color-rendering:optimizeQuality; image-rendering:optimizeQuality;">
            <path d="M78.6507 194.5 L78.6507 198.5"
                  style="fill:none; clip-path:url(#clipPath1);"/>
        </g>
        <g style="text-rendering:optimizeLegibility; font-family:'Lucida Bright'; color-interpolation:linearRGB; color-rendering:optimizeQuality; image-rendering:optimizeQuality;">
            <path d="M87.4531 215.8906 L77.5469 215.8906 L77.5469 215.1094 L87.4531 215.1094 L87.4531 215.8906 Z"
                  style="stroke:none; clip-path:url(#clipPath6);"/>
        </g>
        <g style="text-rendering:optimizeLegibility; font-family:'Lucida Bright'; color-interpolation:linearRGB; color-rendering:optimizeQuality; image-rendering:optimizeQuality;">
            <path d="M90.2812 209.0625 L90.2812 218.1094 L90.3281 218.8281 Q90.3594 219.2656 90.5859 219.3984 Q90.8125 219.5312 91.5156 219.5312 L92.375 219.5469 L92.375 220 L86.7656 220 L86.7656 219.5469 L87.625 219.5312 Q88.3125 219.5312 88.5391 219.3984 Q88.7656 219.2656 88.7969 218.8281 L88.8438 218.1094 L88.8438 211.375 L88.7969 210.6406 Q88.7969 210.125 88.5 210.125 Q88.2812 210.125 87.4844 210.2656 L86.7656 210.3906 L86.7656 209.9375 L90.2812 209.0625 Z"
                  style="stroke:none; clip-path:url(#clipPath4);"/>
        </g>
        <g transform="translate(6,5)"
           style="text-rendering:optimizeLegibility; font-family:'Lucida Bright'; color-interpolation:linearRGB; color-rendering:optimizeQuality; image-rendering:optimizeQuality;">
            <path d="M137.0753 194.5 L137.0753 198.5"
                  style="fill:none; clip-path:url(#clipPath1);"/>
        </g>
        <g style="text-rendering:optimizeLegibility; font-family:'Lucida Bright'; color-interpolation:linearRGB; color-rendering:optimizeQuality; image-rendering:optimizeQuality;">
            <path d="M139.4531 215.8906 L129.5469 215.8906 L129.5469 215.1094 L139.4531 215.1094 L139.4531 215.8906 Z"
                  style="stroke:none; clip-path:url(#clipPath7);"/>
        </g>
        <g style="text-rendering:optimizeLegibility; font-family:'Lucida Bright'; color-interpolation:linearRGB; color-rendering:optimizeQuality; image-rendering:optimizeQuality;">
            <path d="M141.5 220.2656 Q139.8281 220.2656 138.7969 218.7109 Q137.7656 217.1562 137.7656 214.6094 Q137.7656 212 138.7969 210.4453 Q139.8281 208.8906 141.5625 208.8906 Q143.2969 208.8906 144.3281 210.4375 Q145.3594 211.9844 145.3594 214.5938 Q145.3594 217.2031 144.3203 218.7344 Q143.2812 220.2656 141.5 220.2656 ZM141.5312 219.8125 Q143.8281 219.9219 143.8281 214.5 Q143.8281 209.3281 141.5625 209.3281 Q139.3125 209.3281 139.3125 214.5781 Q139.3125 219.7188 141.5312 219.8125 ZM147.2041 220 L147.2041 218.1875 L149.0166 218.1875 L149.0166 220 L147.2041 220 ZM151.8218 220.0156 L151.8218 218.1875 L152.5405 218.1875 L152.5562 218.3594 L152.5718 218.9219 Q152.6187 219.8125 153.978 219.8125 Q154.9937 219.8125 155.5874 219.0234 Q156.1812 218.2344 156.1812 216.875 Q156.1812 215.3281 155.2593 214.6641 Q154.3374 214 152.2593 214 L151.9937 214 L151.9937 209.1562 L157.4624 209.1562 L157.4624 210.4219 L152.4468 210.4219 L152.4468 213.4531 L153.1187 213.4531 Q157.6968 213.4531 157.6968 216.9375 Q157.6968 218.5 156.6421 219.3828 Q155.5874 220.2656 153.728 220.2656 Q152.8062 220.2656 151.8218 220.0156 Z"
                  style="stroke:none; clip-path:url(#clipPath4);"/>
        </g>
        <g transform="translate(6,5)"
           style="text-rendering:optimizeLegibility; font-family:'Lucida Bright'; color-interpolation:linearRGB; color-rendering:optimizeQuality; image-rendering:optimizeQuality;">
            <path d="M195.5 194.5 L195.5 198.5"
                  style="fill:none; clip-path:url(#clipPath1);"/>
            <path d="M192.5 218.2656 Q190.8281 218.2656 189.7969 216.7109 Q188.7656 215.1562 188.7656 212.6094 Q188.7656 210 189.7969 208.4453 Q190.8281 206.8906 192.5625 206.8906 Q194.2969 206.8906 195.3281 208.4375 Q196.3594 209.9844 196.3594 212.5938 Q196.3594 215.2031 195.3203 216.7344 Q194.2812 218.2656 192.5 218.2656 ZM192.5312 217.8125 Q194.8281 217.9219 194.8281 212.5 Q194.8281 207.3281 192.5625 207.3281 Q190.3125 207.3281 190.3125 212.5781 Q190.3125 217.7188 192.5312 217.8125 Z"
                  style="clip-path:url(#clipPath4); stroke:none;"
                  transform="translate(-6,-5)"/>
        </g>
        <g transform="translate(6,5)"
           style="text-rendering:optimizeLegibility; font-family:'Lucida Bright'; color-interpolation:linearRGB; color-rendering:optimizeQuality; image-rendering:optimizeQuality;">
            <path d="M253.9247 194.5 L253.9247 198.5"
                  style="fill:none; clip-path:url(#clipPath1);"/>
            <path d="M252.5 220.2656 Q250.8281 220.2656 249.7969 218.7109 Q248.7656 217.1562 248.7656 214.6094 Q248.7656 212 249.7969 210.4453 Q250.8281 208.8906 252.5625 208.8906 Q254.2969 208.8906 255.3281 210.4375 Q256.3594 211.9844 256.3594 214.5938 Q256.3594 217.2031 255.3203 218.7344 Q254.2812 220.2656 252.5 220.2656 ZM252.5312 219.8125 Q254.8281 219.9219 254.8281 214.5 Q254.8281 209.3281 252.5625 209.3281 Q250.3125 209.3281 250.3125 214.5781 Q250.3125 219.7188 252.5312 219.8125 ZM258.2041 220 L258.2041 218.1875 L260.0166 218.1875 L260.0166 220 L258.2041 220 ZM262.8218 220.0156 L262.8218 218.1875 L263.5405 218.1875 L263.5562 218.3594 L263.5718 218.9219 Q263.6187 219.8125 264.978 219.8125 Q265.9937 219.8125 266.5874 219.0234 Q267.1812 218.2344 267.1812 216.875 Q267.1812 215.3281 266.2593 214.6641 Q265.3374 214 263.2593 214 L262.9937 214 L262.9937 209.1562 L268.4624 209.1562 L268.4624 210.4219 L263.4468 210.4219 L263.4468 213.4531 L264.1187 213.4531 Q268.6968 213.4531 268.6968 216.9375 Q268.6968 218.5 267.6421 219.3828 Q266.5874 220.2656 264.728 220.2656 Q263.8062 220.2656 262.8218 220.0156 Z"
                  style="clip-path:url(#clipPath4); stroke:none;"
                  transform="translate(-6,-5)"/>
        </g>
        <g transform="translate(6,5)"
           style="text-rendering:optimizeLegibility; font-family:'Lucida Bright'; color-interpolation:linearRGB; color-rendering:optimizeQuality; image-rendering:optimizeQuality;">
            <path d="M312.3493 194.5 L312.3493 198.5"
                  style="fill:none; clip-path:url(#clipPath1);"/>
            <path d="M319.2812 209.0625 L319.2812 218.1094 L319.3281 218.8281 Q319.3594 219.2656 319.5859 219.3984 Q319.8125 219.5312 320.5156 219.5312 L321.375 219.5469 L321.375 220 L315.7656 220 L315.7656 219.5469 L316.625 219.5312 Q317.3125 219.5312 317.5391 219.3984 Q317.7656 219.2656 317.7969 218.8281 L317.8438 218.1094 L317.8438 211.375 L317.7969 210.6406 Q317.7969 210.125 317.5 210.125 Q317.2812 210.125 316.4844 210.2656 L315.7656 210.3906 L315.7656 209.9375 L319.2812 209.0625 Z"
                  style="clip-path:url(#clipPath4); stroke:none;"
                  transform="translate(-6,-5)"/>
        </g>
        <g transform="translate(6,5)"
           style="text-rendering:optimizeLegibility; font-family:'Lucida Bright'; color-interpolation:linearRGB; color-rendering:optimizeQuality; image-rendering:optimizeQuality;">
            <path d="M370.774 194.5 L370.774 198.5"
                  style="fill:none; clip-path:url(#clipPath1);"/>
            <path d="M370.2812 209.0625 L370.2812 218.1094 L370.3281 218.8281 Q370.3594 219.2656 370.5859 219.3984 Q370.8125 219.5312 371.5156 219.5312 L372.375 219.5469 L372.375 220 L366.7656 220 L366.7656 219.5469 L367.625 219.5312 Q368.3125 219.5312 368.5391 219.3984 Q368.7656 219.2656 368.7969 218.8281 L368.8438 218.1094 L368.8438 211.375 L368.7969 210.6406 Q368.7969 210.125 368.5 210.125 Q368.2812 210.125 367.4844 210.2656 L366.7656 210.3906 L366.7656 209.9375 L370.2812 209.0625 ZM375.2041 220 L375.2041 218.1875 L377.0166 218.1875 L377.0166 220 L375.2041 220 ZM379.8218 220.0156 L379.8218 218.1875 L380.5405 218.1875 L380.5562 218.3594 L380.5718 218.9219 Q380.6187 219.8125 381.978 219.8125 Q382.9937 219.8125 383.5874 219.0234 Q384.1812 218.2344 384.1812 216.875 Q384.1812 215.3281 383.2593 214.6641 Q382.3374 214 380.2593 214 L379.9937 214 L379.9937 209.1562 L385.4624 209.1562 L385.4624 210.4219 L380.4468 210.4219 L380.4468 213.4531 L381.1187 213.4531 Q385.6968 213.4531 385.6968 216.9375 Q385.6968 218.5 384.6421 219.3828 Q383.5874 220.2656 381.728 220.2656 Q380.8062 220.2656 379.8218 220.0156 Z"
                  style="clip-path:url(#clipPath4); stroke:none;"
                  transform="translate(-6,-5)"/>
        </g>
        <g transform="translate(6,5)"
           style="text-rendering:optimizeLegibility; font-family:'Lucida Bright'; color-interpolation:linearRGB; color-rendering:optimizeQuality; image-rendering:optimizeQuality;">
            <path d="M8.5411 194.5 L8.5411 196.5"
                  style="fill:none; clip-path:url(#clipPath1);"/>
        </g>
        <g transform="translate(6,5)"
           style="text-rendering:optimizeLegibility; font-family:'Lucida Bright'; color-interpolation:linearRGB; color-rendering:optimizeQuality; image-rendering:optimizeQuality;">
            <path d="M31.9109 194.5 L31.9109 196.5"
                  style="fill:none; clip-path:url(#clipPath1);"/>
        </g>
        <g transform="translate(6,5)"
           style="text-rendering:optimizeLegibility; font-family:'Lucida Bright'; color-interpolation:linearRGB; color-rendering:optimizeQuality; image-rendering:optimizeQuality;">
            <path d="M43.5959 194.5 L43.5959 196.5"
                  style="fill:none; clip-path:url(#clipPath1);"/>
        </g>
        <g transform="translate(6,5)"
           style="text-rendering:optimizeLegibility; font-family:'Lucida Bright'; color-interpolation:linearRGB; color-rendering:optimizeQuality; image-rendering:optimizeQuality;">
            <path d="M55.2808 194.5 L55.2808 196.5"
                  style="fill:none; clip-path:url(#clipPath1);"/>
        </g>
        <g transform="translate(6,5)"
           style="text-rendering:optimizeLegibility; font-family:'Lucida Bright'; color-interpolation:linearRGB; color-rendering:optimizeQuality; image-rendering:optimizeQuality;">
            <path d="M66.9657 194.5 L66.9657 196.5"
                  style="fill:none; clip-path:url(#clipPath1);"/>
        </g>
        <g transform="translate(6,5)"
           style="text-rendering:optimizeLegibility; font-family:'Lucida Bright'; color-interpolation:linearRGB; color-rendering:optimizeQuality; image-rendering:optimizeQuality;">
            <path d="M90.3356 194.5 L90.3356 196.5"
                  style="fill:none; clip-path:url(#clipPath1);"/>
        </g>
        <g transform="translate(6,5)"
           style="text-rendering:optimizeLegibility; font-family:'Lucida Bright'; color-interpolation:linearRGB; color-rendering:optimizeQuality; image-rendering:optimizeQuality;">
            <path d="M102.0205 194.5 L102.0205 196.5"
                  style="fill:none; clip-path:url(#clipPath1);"/>
        </g>
        <g transform="translate(6,5)"
           style="text-rendering:optimizeLegibility; font-family:'Lucida Bright'; color-interpolation:linearRGB; color-rendering:optimizeQuality; image-rendering:optimizeQuality;">
            <path d="M113.7055 194.5 L113.7055 196.5"
                  style="fill:none; clip-path:url(#clipPath1);"/>
        </g>
        <g transform="translate(6,5)"
           style="text-rendering:optimizeLegibility; font-family:'Lucida Bright'; color-interpolation:linearRGB; color-rendering:optimizeQuality; image-rendering:optimizeQuality;">
            <path d="M125.3904 194.5 L125.3904 196.5"
                  style="fill:none; clip-path:url(#clipPath1);"/>
        </g>
        <g transform="translate(6,5)"
           style="text-rendering:optimizeLegibility; font-family:'Lucida Bright'; color-interpolation:linearRGB; color-rendering:optimizeQuality; image-rendering:optimizeQuality;">
            <path d="M148.7603 194.5 L148.7603 196.5"
                  style="fill:none; clip-path:url(#clipPath1);"/>
        </g>
        <g transform="translate(6,5)"
           style="text-rendering:optimizeLegibility; font-family:'Lucida Bright'; color-interpolation:linearRGB; color-rendering:optimizeQuality; image-rendering:optimizeQuality;">
            <path d="M160.4452 194.5 L160.4452 196.5"
                  style="fill:none; clip-path:url(#clipPath1);"/>
        </g>
        <g transform="translate(6,5)"
           style="text-rendering:optimizeLegibility; font-family:'Lucida Bright'; color-interpolation:linearRGB; color-rendering:optimizeQuality; image-rendering:optimizeQuality;">
            <path d="M172.1301 194.5 L172.1301 196.5"
                  style="fill:none; clip-path:url(#clipPath1);"/>
        </g>
        <g transform="translate(6,5)"
           style="text-rendering:optimizeLegibility; font-family:'Lucida Bright'; color-interpolation:linearRGB; color-rendering:optimizeQuality; image-rendering:optimizeQuality;">
            <path d="M183.8151 194.5 L183.8151 196.5"
                  style="fill:none; clip-path:url(#clipPath1);"/>
        </g>
        <g transform="translate(6,5)"
           style="text-rendering:optimizeLegibility; font-family:'Lucida Bright'; color-interpolation:linearRGB; color-rendering:optimizeQuality; image-rendering:optimizeQuality;">
            <path d="M207.1849 194.5 L207.1849 196.5"
                  style="fill:none; clip-path:url(#clipPath1);"/>
        </g>
        <g transform="translate(6,5)"
           style="text-rendering:optimizeLegibility; font-family:'Lucida Bright'; color-interpolation:linearRGB; color-rendering:optimizeQuality; image-rendering:optimizeQuality;">
            <path d="M218.8699 194.5 L218.8699 196.5"
                  style="fill:none; clip-path:url(#clipPath1);"/>
        </g>
        <g transform="translate(6,5)"
           style="text-rendering:optimizeLegibility; font-family:'Lucida Bright'; color-interpolation:linearRGB; color-rendering:optimizeQuality; image-rendering:optimizeQuality;">
            <path d="M230.5548 194.5 L230.5548 196.5"
                  style="fill:none; clip-path:url(#clipPath1);"/>
        </g>
        <g transform="translate(6,5)"
           style="text-rendering:optimizeLegibility; font-family:'Lucida Bright'; color-interpolation:linearRGB; color-rendering:optimizeQuality; image-rendering:optimizeQuality;">
            <path d="M242.2397 194.5 L242.2397 196.5"
                  style="fill:none; clip-path:url(#clipPath1);"/>
        </g>
        <g transform="translate(6,5)"
           style="text-rendering:optimizeLegibility; font-family:'Lucida Bright'; color-interpolation:linearRGB; color-rendering:optimizeQuality; image-rendering:optimizeQuality;">
            <path d="M265.6096 194.5 L265.6096 196.5"
                  style="fill:none; clip-path:url(#clipPath1);"/>
        </g>
        <g transform="translate(6,5)"
           style="text-rendering:optimizeLegibility; font-family:'Lucida Bright'; color-interpolation:linearRGB; color-rendering:optimizeQuality; image-rendering:optimizeQuality;">
            <path d="M277.2945 194.5 L277.2945 196.5"
                  style="fill:none; clip-path:url(#clipPath1);"/>
        </g>
        <g transform="translate(6,5)"
           style="text-rendering:optimizeLegibility; font-family:'Lucida Bright'; color-interpolation:linearRGB; color-rendering:optimizeQuality; image-rendering:optimizeQuality;">
            <path d="M288.9795 194.5 L288.9795 196.5"
                  style="fill:none; clip-path:url(#clipPath1);"/>
        </g>
        <g transform="translate(6,5)"
           style="text-rendering:optimizeLegibility; font-family:'Lucida Bright'; color-interpolation:linearRGB; color-rendering:optimizeQuality; image-rendering:optimizeQuality;">
            <path d="M300.6644 194.5 L300.6644 196.5"
                  style="fill:none; clip-path:url(#clipPath1);"/>
        </g>
        <g transform="translate(6,5)"
           style="text-rendering:optimizeLegibility; font-family:'Lucida Bright'; color-interpolation:linearRGB; color-rendering:optimizeQuality; image-rendering:optimizeQuality;">
            <path d="M324.0343 194.5 L324.0343 196.5"
                  style="fill:none; clip-path:url(#clipPath1);"/>
        </g>
        <g transform="translate(6,5)"
           style="text-rendering:optimizeLegibility; font-family:'Lucida Bright'; color-interpolation:linearRGB; color-rendering:optimizeQuality; image-rendering:optimizeQuality;">
            <path d="M335.7192 194.5 L335.7192 196.5"
                  style="fill:none; clip-path:url(#clipPath1);"/>
        </g>
        <g transform="translate(6,5)"
           style="text-rendering:optimizeLegibility; font-family:'Lucida Bright'; color-interpolation:linearRGB; color-rendering:optimizeQuality; image-rendering:optimizeQuality;">
            <path d="M347.4041 194.5 L347.4041 196.5"
                  style="fill:none; clip-path:url(#clipPath1);"/>
        </g>
        <g transform="translate(6,5)"
           style="text-rendering:optimizeLegibility; font-family:'Lucida Bright'; color-interpolation:linearRGB; color-rendering:optimizeQuality; image-rendering:optimizeQuality;">
            <path d="M359.0891 194.5 L359.0891 196.5"
                  style="fill:none; clip-path:url(#clipPath1);"/>
        </g>
        <g transform="translate(6,5)"
           style="text-rendering:optimizeLegibility; font-family:'Lucida Bright'; color-interpolation:linearRGB; color-rendering:optimizeQuality; image-rendering:optimizeQuality;">
            <path d="M382.4589 194.5 L382.4589 196.5"
                  style="fill:none; clip-path:url(#clipPath1);"/>
        </g>
        <g transform="translate(6,5)"
           style="stroke-linecap:butt; text-rendering:optimizeLegibility; color-rendering:optimizeQuality; image-rendering:optimizeQuality; font-family:'Lucida Bright'; stroke-linejoin:round; color-interpolation:linearRGB;">
            <path d="M195.5 388 L195.5 1"
                  style="fill:none; clip-path:url(#clipPath1);"/>
        </g>
        <g transform="translate(6,5)"
           style="stroke-linecap:butt; text-rendering:optimizeLegibility; color-rendering:optimizeQuality; image-rendering:optimizeQuality; font-family:'Lucida Bright'; stroke-linejoin:round; color-interpolation:linearRGB;">
            <path d="M135.9688 105.8906 Q137.3125 104.9531 139.3438 103.0781 L139.625 102.8125 Q139.5312 101.1094 139.1875 99.2266 Q138.8438 97.3438 138.4688 96.5 Q138.1406 95.7969 137.9531 95.6719 Q137.7656 95.5469 136.9375 95.5 L136.7656 95.5 L136.8438 95.0469 L139.5156 95.0469 Q140.6562 97.7344 140.8125 101.3594 L141.7188 100.1875 Q143.0469 98.5 143.4922 97.7109 Q143.9375 96.9219 143.9375 96.25 Q143.9375 95.5625 143.3594 95.0469 L145.1719 95.0469 Q145.3281 95.375 145.3281 95.6719 Q145.3281 96.2969 144.9219 96.9766 Q144.5156 97.6562 143.2188 99.2031 L140.4531 102.5312 Q138.7969 104.5156 137.9688 105.8906 L135.9688 105.8906 Z"
                  style="stroke:none; clip-path:url(#clipPath8);"/>
        </g>
        <g transform="translate(6,5)"
           style="text-rendering:optimizeLegibility; font-family:'Lucida Bright'; color-interpolation:linearRGB; color-rendering:optimizeQuality; image-rendering:optimizeQuality;">
            <path d="M195.5 350.1317 L191.5 350.1317"
                  style="fill:none; clip-path:url(#clipPath1);"/>
        </g>
        <g style="text-rendering:optimizeLegibility; font-family:'Lucida Bright'; color-interpolation:linearRGB; color-rendering:optimizeQuality; image-rendering:optimizeQuality;">
            <path d="M173.4531 356.8906 L163.5469 356.8906 L163.5469 356.1094 L173.4531 356.1094 L173.4531 356.8906 Z"
                  style="stroke:none; clip-path:url(#clipPath9);"/>
        </g>
        <g style="text-rendering:optimizeLegibility; font-family:'Lucida Bright'; color-interpolation:linearRGB; color-rendering:optimizeQuality; image-rendering:optimizeQuality;">
            <path d="M175.5 361.2656 Q173.8281 361.2656 172.7969 359.7109 Q171.7656 358.1562 171.7656 355.6094 Q171.7656 353 172.7969 351.4453 Q173.8281 349.8906 175.5625 349.8906 Q177.2969 349.8906 178.3281 351.4375 Q179.3594 352.9844 179.3594 355.5938 Q179.3594 358.2031 178.3203 359.7344 Q177.2812 361.2656 175.5 361.2656 ZM175.5312 360.8125 Q177.8281 360.9219 177.8281 355.5 Q177.8281 350.3281 175.5625 350.3281 Q173.3125 350.3281 173.3125 355.5781 Q173.3125 360.7188 175.5312 360.8125 ZM181.2041 361 L181.2041 359.1875 L183.0166 359.1875 L183.0166 361 L181.2041 361 ZM187.2437 355.1562 Q185.5718 354.0156 185.5718 352.6406 Q185.5718 351.4062 186.4624 350.6406 Q187.353 349.875 188.7905 349.875 Q190.1655 349.875 190.9858 350.5234 Q191.8062 351.1719 191.8062 352.2656 Q191.8062 353.9219 189.6655 355.0156 Q192.2593 356.125 192.2593 358.1875 Q192.2593 359.5469 191.228 360.4062 Q190.1968 361.2656 188.5718 361.2656 Q186.9937 361.2656 186.0093 360.4688 Q185.0249 359.6719 185.0249 358.3594 Q185.0249 356.1875 187.2437 355.1562 ZM189.2593 354.7812 Q190.5405 353.8438 190.5405 352.2812 Q190.5405 351.4062 190.0171 350.8672 Q189.4937 350.3281 188.6499 350.3281 Q187.8843 350.3281 187.353 350.8594 Q186.8218 351.3906 186.8218 352.1719 Q186.8218 352.9219 187.3062 353.4375 Q187.7905 353.9531 189.2593 354.7812 ZM187.5718 355.4844 Q186.4624 356.4844 186.4624 358.1875 Q186.4624 359.3906 187.0562 360.1016 Q187.6499 360.8125 188.6499 360.8125 Q189.5874 360.8125 190.1968 360.1875 Q190.8062 359.5625 190.8062 358.6094 Q190.8062 357.8125 190.3374 357.2734 Q189.8687 356.7344 188.5874 356.0312 L187.5718 355.4844 Z"
                  style="stroke:none; clip-path:url(#clipPath4);"/>
        </g>
        <g transform="translate(6,5)"
           style="text-rendering:optimizeLegibility; font-family:'Lucida Bright'; color-interpolation:linearRGB; color-rendering:optimizeQuality; image-rendering:optimizeQuality;">
            <path d="M195.5 311.2238 L191.5 311.2238"
                  style="fill:none; clip-path:url(#clipPath1);"/>
        </g>
        <g style="text-rendering:optimizeLegibility; font-family:'Lucida Bright'; color-interpolation:linearRGB; color-rendering:optimizeQuality; image-rendering:optimizeQuality;">
            <path d="M173.4531 317.8906 L163.5469 317.8906 L163.5469 317.1094 L173.4531 317.1094 L173.4531 317.8906 Z"
                  style="stroke:none; clip-path:url(#clipPath10);"/>
        </g>
        <g style="text-rendering:optimizeLegibility; font-family:'Lucida Bright'; color-interpolation:linearRGB; color-rendering:optimizeQuality; image-rendering:optimizeQuality;">
            <path d="M175.5 322.2656 Q173.8281 322.2656 172.7969 320.7109 Q171.7656 319.1562 171.7656 316.6094 Q171.7656 314 172.7969 312.4453 Q173.8281 310.8906 175.5625 310.8906 Q177.2969 310.8906 178.3281 312.4375 Q179.3594 313.9844 179.3594 316.5938 Q179.3594 319.2031 178.3203 320.7344 Q177.2812 322.2656 175.5 322.2656 ZM175.5312 321.8125 Q177.8281 321.9219 177.8281 316.5 Q177.8281 311.3281 175.5625 311.3281 Q173.3125 311.3281 173.3125 316.5781 Q173.3125 321.7188 175.5312 321.8125 ZM181.2041 322 L181.2041 320.1875 L183.0166 320.1875 L183.0166 322 L181.2041 322 ZM186.5405 316.4531 Q187.5562 315.0469 189.1499 315.0469 Q190.5718 315.0469 191.4702 315.9922 Q192.3687 316.9375 192.3687 318.4375 Q192.3687 320.0625 191.3452 321.1641 Q190.3218 322.2656 188.8218 322.2656 Q186.9937 322.2656 186.0015 320.8359 Q185.0093 319.4062 185.0093 316.75 Q185.0093 313.9531 186.1499 312.4141 Q187.2905 310.875 189.3843 310.875 Q190.728 310.875 191.7593 311.3594 L191.7593 313.0938 L191.0405 313.0938 L191.0249 312.9531 L190.9937 312.4219 Q190.9468 311.9375 190.4624 311.6328 Q189.978 311.3281 189.2437 311.3281 Q187.9624 311.3281 187.2515 312.6719 Q186.5405 314.0156 186.5405 316.4531 ZM186.5874 318 Q186.5874 319.6719 187.2671 320.7422 Q187.9468 321.8125 189.0093 321.8125 Q190.9155 321.8125 190.9155 318.6406 Q190.9155 315.5469 188.9312 315.5469 Q187.853 315.5469 187.2202 316.2109 Q186.5874 316.875 186.5874 318 Z"
                  style="stroke:none; clip-path:url(#clipPath4);"/>
        </g>
        <g transform="translate(6,5)"
           style="text-rendering:optimizeLegibility; font-family:'Lucida Bright'; color-interpolation:linearRGB; color-rendering:optimizeQuality; image-rendering:optimizeQuality;">
            <path d="M195.5 272.3159 L191.5 272.3159"
                  style="fill:none; clip-path:url(#clipPath1);"/>
        </g>
        <g style="text-rendering:optimizeLegibility; font-family:'Lucida Bright'; color-interpolation:linearRGB; color-rendering:optimizeQuality; image-rendering:optimizeQuality;">
            <path d="M173.4531 278.8906 L163.5469 278.8906 L163.5469 278.1094 L173.4531 278.1094 L173.4531 278.8906 Z"
                  style="stroke:none; clip-path:url(#clipPath11);"/>
        </g>
        <g style="text-rendering:optimizeLegibility; font-family:'Lucida Bright'; color-interpolation:linearRGB; color-rendering:optimizeQuality; image-rendering:optimizeQuality;">
            <path d="M175.5 283.2656 Q173.8281 283.2656 172.7969 281.7109 Q171.7656 280.1562 171.7656 277.6094 Q171.7656 275 172.7969 273.4453 Q173.8281 271.8906 175.5625 271.8906 Q177.2969 271.8906 178.3281 273.4375 Q179.3594 274.9844 179.3594 277.5938 Q179.3594 280.2031 178.3203 281.7344 Q177.2812 283.2656 175.5 283.2656 ZM175.5312 282.8125 Q177.8281 282.9219 177.8281 277.5 Q177.8281 272.3281 175.5625 272.3281 Q173.3125 272.3281 173.3125 277.5781 Q173.3125 282.7188 175.5312 282.8125 ZM181.2041 283 L181.2041 281.1875 L183.0166 281.1875 L183.0166 283 L181.2041 283 ZM189.5249 279.9375 L184.5562 279.9375 L184.5562 279.2031 L189.978 271.9844 L190.7905 271.9844 L190.7905 278.8438 L192.2437 278.8438 L192.2437 279.9375 L190.7905 279.9375 L190.7905 281.1094 Q190.7905 281.9688 190.9233 282.2188 Q191.0562 282.4688 191.5093 282.5 L192.0093 282.5312 L192.1499 282.5469 L192.1499 283 L187.9937 283 L187.9937 282.5469 L188.1187 282.5312 L188.8843 282.5 Q189.2749 282.4844 189.3999 282.2109 Q189.5249 281.9375 189.5249 281.1094 L189.5249 279.9375 ZM185.3687 278.8438 L189.5249 278.8438 L189.5249 273.3125 L185.3687 278.8438 Z"
                  style="stroke:none; clip-path:url(#clipPath4);"/>
        </g>
        <g transform="translate(6,5)"
           style="text-rendering:optimizeLegibility; font-family:'Lucida Bright'; color-interpolation:linearRGB; color-rendering:optimizeQuality; image-rendering:optimizeQuality;">
            <path d="M195.5 233.4079 L191.5 233.4079"
                  style="fill:none; clip-path:url(#clipPath1);"/>
        </g>
        <g style="text-rendering:optimizeLegibility; font-family:'Lucida Bright'; color-interpolation:linearRGB; color-rendering:optimizeQuality; image-rendering:optimizeQuality;">
            <path d="M173.4531 239.8906 L163.5469 239.8906 L163.5469 239.1094 L173.4531 239.1094 L173.4531 239.8906 Z"
                  style="stroke:none; clip-path:url(#clipPath12);"/>
        </g>
        <g style="text-rendering:optimizeLegibility; font-family:'Lucida Bright'; color-interpolation:linearRGB; color-rendering:optimizeQuality; image-rendering:optimizeQuality;">
            <path d="M175.5 244.2656 Q173.8281 244.2656 172.7969 242.7109 Q171.7656 241.1562 171.7656 238.6094 Q171.7656 236 172.7969 234.4453 Q173.8281 232.8906 175.5625 232.8906 Q177.2969 232.8906 178.3281 234.4375 Q179.3594 235.9844 179.3594 238.5938 Q179.3594 241.2031 178.3203 242.7344 Q177.2812 244.2656 175.5 244.2656 ZM175.5312 243.8125 Q177.8281 243.9219 177.8281 238.5 Q177.8281 233.3281 175.5625 233.3281 Q173.3125 233.3281 173.3125 238.5781 Q173.3125 243.7188 175.5312 243.8125 ZM181.2041 244 L181.2041 242.1875 L183.0166 242.1875 L183.0166 244 L181.2041 244 ZM185.2749 244 L185.2749 243.2812 Q185.8999 241.4531 187.228 240.2188 L188.0093 239.5 Q189.353 238.2344 189.7983 237.4922 Q190.2437 236.75 190.2437 235.7969 Q190.2437 234.6875 189.6968 234.0156 Q189.1499 233.3438 188.2593 233.3438 Q187.2593 233.3438 186.5718 233.8906 Q186.3218 234.0938 186.2437 235.3438 L186.2437 235.5156 L185.5093 235.5156 L185.5093 233.5469 Q187.0874 232.875 188.4312 232.875 Q189.8999 232.875 190.8374 233.7031 Q191.7749 234.5312 191.7749 235.7969 Q191.7749 237.5156 189.6499 238.9688 L188.7749 239.5781 Q186.6655 241.0312 186.4624 242.7344 L191.728 242.7344 L191.728 244 L185.2749 244 Z"
                  style="stroke:none; clip-path:url(#clipPath4);"/>
        </g>
        <g transform="translate(6,5)"
           style="text-rendering:optimizeLegibility; font-family:'Lucida Bright'; color-interpolation:linearRGB; color-rendering:optimizeQuality; image-rendering:optimizeQuality;">
            <path d="M195.5 194.5 L191.5 194.5"
                  style="fill:none; clip-path:url(#clipPath1);"/>
        </g>
        <g transform="translate(6,5)"
           style="text-rendering:optimizeLegibility; font-family:'Lucida Bright'; color-interpolation:linearRGB; color-rendering:optimizeQuality; image-rendering:optimizeQuality;">
            <path d="M195.5 155.5921 L191.5 155.5921"
                  style="fill:none; clip-path:url(#clipPath1);"/>
            <path d="M175.5 166.2656 Q173.8281 166.2656 172.7969 164.7109 Q171.7656 163.1562 171.7656 160.6094 Q171.7656 158 172.7969 156.4453 Q173.8281 154.8906 175.5625 154.8906 Q177.2969 154.8906 178.3281 156.4375 Q179.3594 157.9844 179.3594 160.5938 Q179.3594 163.2031 178.3203 164.7344 Q177.2812 166.2656 175.5 166.2656 ZM175.5312 165.8125 Q177.8281 165.9219 177.8281 160.5 Q177.8281 155.3281 175.5625 155.3281 Q173.3125 155.3281 173.3125 160.5781 Q173.3125 165.7188 175.5312 165.8125 ZM181.2041 166 L181.2041 164.1875 L183.0166 164.1875 L183.0166 166 L181.2041 166 ZM185.2749 166 L185.2749 165.2812 Q185.8999 163.4531 187.228 162.2188 L188.0093 161.5 Q189.353 160.2344 189.7983 159.4922 Q190.2437 158.75 190.2437 157.7969 Q190.2437 156.6875 189.6968 156.0156 Q189.1499 155.3438 188.2593 155.3438 Q187.2593 155.3438 186.5718 155.8906 Q186.3218 156.0938 186.2437 157.3438 L186.2437 157.5156 L185.5093 157.5156 L185.5093 155.5469 Q187.0874 154.875 188.4312 154.875 Q189.8999 154.875 190.8374 155.7031 Q191.7749 156.5312 191.7749 157.7969 Q191.7749 159.5156 189.6499 160.9688 L188.7749 161.5781 Q186.6655 163.0312 186.4624 164.7344 L191.728 164.7344 L191.728 166 L185.2749 166 Z"
                  style="clip-path:url(#clipPath4); stroke:none;"
                  transform="translate(-6,-5)"/>
        </g>
        <g transform="translate(6,5)"
           style="text-rendering:optimizeLegibility; font-family:'Lucida Bright'; color-interpolation:linearRGB; color-rendering:optimizeQuality; image-rendering:optimizeQuality;">
            <path d="M195.5 116.6841 L191.5 116.6841"
                  style="fill:none; clip-path:url(#clipPath1);"/>
            <path d="M175.5 127.2656 Q173.8281 127.2656 172.7969 125.7109 Q171.7656 124.1562 171.7656 121.6094 Q171.7656 119 172.7969 117.4453 Q173.8281 115.8906 175.5625 115.8906 Q177.2969 115.8906 178.3281 117.4375 Q179.3594 118.9844 179.3594 121.5938 Q179.3594 124.2031 178.3203 125.7344 Q177.2812 127.2656 175.5 127.2656 ZM175.5312 126.8125 Q177.8281 126.9219 177.8281 121.5 Q177.8281 116.3281 175.5625 116.3281 Q173.3125 116.3281 173.3125 121.5781 Q173.3125 126.7188 175.5312 126.8125 ZM181.2041 127 L181.2041 125.1875 L183.0166 125.1875 L183.0166 127 L181.2041 127 ZM189.5249 123.9375 L184.5562 123.9375 L184.5562 123.2031 L189.978 115.9844 L190.7905 115.9844 L190.7905 122.8438 L192.2437 122.8438 L192.2437 123.9375 L190.7905 123.9375 L190.7905 125.1094 Q190.7905 125.9688 190.9233 126.2188 Q191.0562 126.4688 191.5093 126.5 L192.0093 126.5312 L192.1499 126.5469 L192.1499 127 L187.9937 127 L187.9937 126.5469 L188.1187 126.5312 L188.8843 126.5 Q189.2749 126.4844 189.3999 126.2109 Q189.5249 125.9375 189.5249 125.1094 L189.5249 123.9375 ZM185.3687 122.8438 L189.5249 122.8438 L189.5249 117.3125 L185.3687 122.8438 Z"
                  style="clip-path:url(#clipPath4); stroke:none;"
                  transform="translate(-6,-5)"/>
        </g>
        <g transform="translate(6,5)"
           style="text-rendering:optimizeLegibility; font-family:'Lucida Bright'; color-interpolation:linearRGB; color-rendering:optimizeQuality; image-rendering:optimizeQuality;">
            <path d="M195.5 77.7762 L191.5 77.7762"
                  style="fill:none; clip-path:url(#clipPath1);"/>
            <path d="M175.5 88.2656 Q173.8281 88.2656 172.7969 86.7109 Q171.7656 85.1562 171.7656 82.6094 Q171.7656 80 172.7969 78.4453 Q173.8281 76.8906 175.5625 76.8906 Q177.2969 76.8906 178.3281 78.4375 Q179.3594 79.9844 179.3594 82.5938 Q179.3594 85.2031 178.3203 86.7344 Q177.2812 88.2656 175.5 88.2656 ZM175.5312 87.8125 Q177.8281 87.9219 177.8281 82.5 Q177.8281 77.3281 175.5625 77.3281 Q173.3125 77.3281 173.3125 82.5781 Q173.3125 87.7188 175.5312 87.8125 ZM181.2041 88 L181.2041 86.1875 L183.0166 86.1875 L183.0166 88 L181.2041 88 ZM186.5405 82.4531 Q187.5562 81.0469 189.1499 81.0469 Q190.5718 81.0469 191.4702 81.9922 Q192.3687 82.9375 192.3687 84.4375 Q192.3687 86.0625 191.3452 87.1641 Q190.3218 88.2656 188.8218 88.2656 Q186.9937 88.2656 186.0015 86.8359 Q185.0093 85.4062 185.0093 82.75 Q185.0093 79.9531 186.1499 78.4141 Q187.2905 76.875 189.3843 76.875 Q190.728 76.875 191.7593 77.3594 L191.7593 79.0938 L191.0405 79.0938 L191.0249 78.9531 L190.9937 78.4219 Q190.9468 77.9375 190.4624 77.6328 Q189.978 77.3281 189.2437 77.3281 Q187.9624 77.3281 187.2515 78.6719 Q186.5405 80.0156 186.5405 82.4531 ZM186.5874 84 Q186.5874 85.6719 187.2671 86.7422 Q187.9468 87.8125 189.0093 87.8125 Q190.9155 87.8125 190.9155 84.6406 Q190.9155 81.5469 188.9312 81.5469 Q187.853 81.5469 187.2202 82.2109 Q186.5874 82.875 186.5874 84 Z"
                  style="clip-path:url(#clipPath4); stroke:none;"
                  transform="translate(-6,-5)"/>
        </g>
        <g transform="translate(6,5)"
           style="text-rendering:optimizeLegibility; font-family:'Lucida Bright'; color-interpolation:linearRGB; color-rendering:optimizeQuality; image-rendering:optimizeQuality;">
            <path d="M195.5 38.8683 L191.5 38.8683"
                  style="fill:none; clip-path:url(#clipPath1);"/>
            <path d="M175.5 49.2656 Q173.8281 49.2656 172.7969 47.7109 Q171.7656 46.1562 171.7656 43.6094 Q171.7656 41 172.7969 39.4453 Q173.8281 37.8906 175.5625 37.8906 Q177.2969 37.8906 178.3281 39.4375 Q179.3594 40.9844 179.3594 43.5938 Q179.3594 46.2031 178.3203 47.7344 Q177.2812 49.2656 175.5 49.2656 ZM175.5312 48.8125 Q177.8281 48.9219 177.8281 43.5 Q177.8281 38.3281 175.5625 38.3281 Q173.3125 38.3281 173.3125 43.5781 Q173.3125 48.7188 175.5312 48.8125 ZM181.2041 49 L181.2041 47.1875 L183.0166 47.1875 L183.0166 49 L181.2041 49 ZM187.2437 43.1562 Q185.5718 42.0156 185.5718 40.6406 Q185.5718 39.4062 186.4624 38.6406 Q187.353 37.875 188.7905 37.875 Q190.1655 37.875 190.9858 38.5234 Q191.8062 39.1719 191.8062 40.2656 Q191.8062 41.9219 189.6655 43.0156 Q192.2593 44.125 192.2593 46.1875 Q192.2593 47.5469 191.228 48.4062 Q190.1968 49.2656 188.5718 49.2656 Q186.9937 49.2656 186.0093 48.4688 Q185.0249 47.6719 185.0249 46.3594 Q185.0249 44.1875 187.2437 43.1562 ZM189.2593 42.7812 Q190.5405 41.8438 190.5405 40.2812 Q190.5405 39.4062 190.0171 38.8672 Q189.4937 38.3281 188.6499 38.3281 Q187.8843 38.3281 187.353 38.8594 Q186.8218 39.3906 186.8218 40.1719 Q186.8218 40.9219 187.3062 41.4375 Q187.7905 41.9531 189.2593 42.7812 ZM187.5718 43.4844 Q186.4624 44.4844 186.4624 46.1875 Q186.4624 47.3906 187.0562 48.1016 Q187.6499 48.8125 188.6499 48.8125 Q189.5874 48.8125 190.1968 48.1875 Q190.8062 47.5625 190.8062 46.6094 Q190.8062 45.8125 190.3374 45.2734 Q189.8687 44.7344 188.5874 44.0312 L187.5718 43.4844 Z"
                  style="clip-path:url(#clipPath4); stroke:none;"
                  transform="translate(-6,-5)"/>
        </g>
        <g transform="translate(6,5)"
           style="text-rendering:optimizeLegibility; font-family:'Lucida Bright'; color-interpolation:linearRGB; color-rendering:optimizeQuality; image-rendering:optimizeQuality;">
            <path d="M195.5 369.5857 L193.5 369.5857"
                  style="fill:none; clip-path:url(#clipPath1);"/>
        </g>
        <g transform="translate(6,5)"
           style="text-rendering:optimizeLegibility; font-family:'Lucida Bright'; color-interpolation:linearRGB; color-rendering:optimizeQuality; image-rendering:optimizeQuality;">
            <path d="M195.5 330.6777 L193.5 330.6777"
                  style="fill:none; clip-path:url(#clipPath1);"/>
        </g>
        <g transform="translate(6,5)"
           style="text-rendering:optimizeLegibility; font-family:'Lucida Bright'; color-interpolation:linearRGB; color-rendering:optimizeQuality; image-rendering:optimizeQuality;">
            <path d="M195.5 291.7698 L193.5 291.7698"
                  style="fill:none; clip-path:url(#clipPath1);"/>
        </g>
        <g transform="translate(6,5)"
           style="text-rendering:optimizeLegibility; font-family:'Lucida Bright'; color-interpolation:linearRGB; color-rendering:optimizeQuality; image-rendering:optimizeQuality;">
            <path d="M195.5 252.8619 L193.5 252.8619"
                  style="fill:none; clip-path:url(#clipPath1);"/>
        </g>
        <g transform="translate(6,5)"
           style="text-rendering:optimizeLegibility; font-family:'Lucida Bright'; color-interpolation:linearRGB; color-rendering:optimizeQuality; image-rendering:optimizeQuality;">
            <path d="M195.5 213.954 L193.5 213.954"
                  style="fill:none; clip-path:url(#clipPath1);"/>
        </g>
        <g transform="translate(6,5)"
           style="text-rendering:optimizeLegibility; font-family:'Lucida Bright'; color-interpolation:linearRGB; color-rendering:optimizeQuality; image-rendering:optimizeQuality;">
            <path d="M195.5 175.046 L193.5 175.046"
                  style="fill:none; clip-path:url(#clipPath1);"/>
        </g>
        <g transform="translate(6,5)"
           style="text-rendering:optimizeLegibility; font-family:'Lucida Bright'; color-interpolation:linearRGB; color-rendering:optimizeQuality; image-rendering:optimizeQuality;">
            <path d="M195.5 136.1381 L193.5 136.1381"
                  style="fill:none; clip-path:url(#clipPath1);"/>
        </g>
        <g transform="translate(6,5)"
           style="text-rendering:optimizeLegibility; font-family:'Lucida Bright'; color-interpolation:linearRGB; color-rendering:optimizeQuality; image-rendering:optimizeQuality;">
            <path d="M195.5 97.2302 L193.5 97.2302"
                  style="fill:none; clip-path:url(#clipPath1);"/>
        </g>
        <g transform="translate(6,5)"
           style="text-rendering:optimizeLegibility; font-family:'Lucida Bright'; color-interpolation:linearRGB; color-rendering:optimizeQuality; image-rendering:optimizeQuality;">
            <path d="M195.5 58.3223 L193.5 58.3223"
                  style="fill:none; clip-path:url(#clipPath1);"/>
        </g>
        <g transform="translate(6,5)"
           style="text-rendering:optimizeLegibility; font-family:'Lucida Bright'; color-interpolation:linearRGB; color-rendering:optimizeQuality; image-rendering:optimizeQuality;">
            <path d="M195.5 19.4143 L193.5 19.4143"
                  style="fill:none; clip-path:url(#clipPath1);"/>
        </g>
    </g>
</svg>
